<svg width="720" height="398" viewBox="0 0 720 398" fill="none" xmlns="http://www.w3.org/2000/svg">
<path d="M48.8949 312H44.2784L57.6307 275.636H62.1761L75.5284 312H70.9119L60.0455 281.389H59.7614L48.8949 312ZM50.5994 297.795H69.2074V301.702H50.5994V297.795Z" fill="white"/>
<path d="M152.087 272.348C151.043 272.331 149.999 272.133 148.955 271.751C147.911 271.37 146.958 270.728 146.096 269.825C145.234 268.913 144.542 267.683 144.02 266.134C143.498 264.576 143.237 262.62 143.237 260.267C143.237 258.013 143.449 256.016 143.871 254.276C144.294 252.528 144.907 251.057 145.711 249.864C146.514 248.663 147.484 247.751 148.619 247.13C149.762 246.508 151.051 246.197 152.484 246.197C153.91 246.197 155.177 246.483 156.288 247.055C157.406 247.618 158.318 248.406 159.022 249.417C159.726 250.427 160.182 251.592 160.389 252.909H157.357C157.075 251.766 156.528 250.817 155.716 250.063C154.904 249.309 153.827 248.932 152.484 248.932C150.512 248.932 148.959 249.789 147.824 251.505C146.697 253.22 146.129 255.627 146.121 258.726H146.32C146.784 258.022 147.335 257.421 147.973 256.924C148.619 256.418 149.332 256.029 150.11 255.755C150.889 255.482 151.714 255.345 152.584 255.345C154.042 255.345 155.376 255.71 156.586 256.439C157.796 257.16 158.765 258.158 159.494 259.434C160.223 260.702 160.588 262.156 160.588 263.797C160.588 265.371 160.236 266.813 159.532 268.122C158.827 269.423 157.837 270.459 156.561 271.229C155.293 271.992 153.802 272.365 152.087 272.348ZM152.087 269.614C153.131 269.614 154.067 269.353 154.896 268.831C155.732 268.309 156.391 267.608 156.872 266.73C157.361 265.852 157.605 264.874 157.605 263.797C157.605 262.745 157.369 261.788 156.897 260.926C156.433 260.056 155.79 259.364 154.97 258.85C154.158 258.336 153.23 258.08 152.186 258.08C151.399 258.08 150.666 258.237 149.986 258.552C149.307 258.858 148.71 259.281 148.196 259.82C147.691 260.358 147.293 260.975 147.003 261.672C146.713 262.359 146.568 263.084 146.568 263.847C146.568 264.857 146.804 265.802 147.277 266.68C147.757 267.559 148.412 268.267 149.24 268.806C150.077 269.344 151.026 269.614 152.087 269.614ZM173.778 272.348C171.906 272.348 170.311 271.838 168.993 270.819C167.676 269.792 166.669 268.304 165.973 266.357C165.277 264.402 164.929 262.04 164.929 259.273C164.929 256.522 165.277 254.173 165.973 252.225C166.677 250.27 167.688 248.779 169.006 247.751C170.331 246.715 171.922 246.197 173.778 246.197C175.634 246.197 177.221 246.715 178.539 247.751C179.864 248.779 180.875 250.27 181.571 252.225C182.276 254.173 182.628 256.522 182.628 259.273C182.628 262.04 182.28 264.402 181.584 266.357C180.888 268.304 179.881 269.792 178.563 270.819C177.246 271.838 175.651 272.348 173.778 272.348ZM173.778 269.614C175.634 269.614 177.076 268.719 178.104 266.929C179.131 265.139 179.645 262.587 179.645 259.273C179.645 257.069 179.409 255.192 178.936 253.642C178.472 252.093 177.801 250.912 176.923 250.1C176.053 249.288 175.005 248.882 173.778 248.882C171.939 248.882 170.501 249.789 169.465 251.604C168.43 253.41 167.912 255.967 167.912 259.273C167.912 261.477 168.144 263.349 168.608 264.891C169.072 266.432 169.739 267.604 170.609 268.408C171.487 269.212 172.544 269.614 173.778 269.614ZM192.67 257.781C191.618 257.781 190.657 257.524 189.787 257.011C188.925 256.497 188.237 255.809 187.724 254.947C187.21 254.077 186.953 253.116 186.953 252.064C186.953 251.012 187.21 250.055 187.724 249.193C188.237 248.323 188.925 247.631 189.787 247.117C190.657 246.603 191.618 246.347 192.67 246.347C193.723 246.347 194.68 246.603 195.541 247.117C196.411 247.631 197.103 248.323 197.617 249.193C198.131 250.055 198.388 251.012 198.388 252.064C198.388 253.116 198.131 254.077 197.617 254.947C197.103 255.809 196.411 256.497 195.541 257.011C194.68 257.524 193.723 257.781 192.67 257.781ZM192.67 255.295C193.267 255.295 193.81 255.15 194.299 254.86C194.787 254.57 195.177 254.181 195.467 253.692C195.757 253.203 195.902 252.661 195.902 252.064C195.902 251.467 195.757 250.925 195.467 250.436C195.177 249.947 194.787 249.557 194.299 249.267C193.81 248.977 193.267 248.832 192.67 248.832C192.074 248.832 191.531 248.977 191.042 249.267C190.553 249.557 190.164 249.947 189.874 250.436C189.584 250.925 189.439 251.467 189.439 252.064C189.439 252.661 189.584 253.203 189.874 253.692C190.164 254.181 190.553 254.57 191.042 254.86C191.531 255.15 192.074 255.295 192.67 255.295Z" fill="white"/>
<path d="M549.087 270.348C548.043 270.331 546.999 270.133 545.955 269.751C544.911 269.37 543.958 268.728 543.096 267.825C542.234 266.913 541.542 265.683 541.02 264.134C540.498 262.576 540.237 260.62 540.237 258.267C540.237 256.013 540.449 254.016 540.871 252.276C541.294 250.528 541.907 249.057 542.711 247.864C543.514 246.663 544.484 245.751 545.619 245.13C546.762 244.508 548.051 244.197 549.484 244.197C550.91 244.197 552.177 244.483 553.288 245.055C554.406 245.618 555.318 246.406 556.022 247.417C556.726 248.427 557.182 249.592 557.389 250.909H554.357C554.075 249.766 553.528 248.817 552.716 248.063C551.904 247.309 550.827 246.932 549.484 246.932C547.512 246.932 545.959 247.789 544.824 249.505C543.697 251.22 543.129 253.627 543.121 256.726H543.32C543.784 256.022 544.335 255.421 544.973 254.924C545.619 254.418 546.332 254.029 547.11 253.755C547.889 253.482 548.714 253.345 549.584 253.345C551.042 253.345 552.376 253.71 553.586 254.439C554.796 255.16 555.765 256.158 556.494 257.434C557.223 258.702 557.588 260.156 557.588 261.797C557.588 263.371 557.236 264.813 556.532 266.122C555.827 267.423 554.837 268.459 553.561 269.229C552.293 269.992 550.802 270.365 549.087 270.348ZM549.087 267.614C550.131 267.614 551.067 267.353 551.896 266.831C552.732 266.309 553.391 265.608 553.872 264.73C554.361 263.852 554.605 262.874 554.605 261.797C554.605 260.745 554.369 259.788 553.897 258.926C553.433 258.056 552.79 257.364 551.97 256.85C551.158 256.336 550.23 256.08 549.186 256.08C548.399 256.08 547.666 256.237 546.986 256.552C546.307 256.858 545.71 257.281 545.196 257.82C544.691 258.358 544.293 258.975 544.003 259.672C543.713 260.359 543.568 261.084 543.568 261.847C543.568 262.857 543.804 263.802 544.277 264.68C544.757 265.559 545.412 266.267 546.24 266.806C547.077 267.344 548.026 267.614 549.087 267.614ZM570.778 270.348C568.906 270.348 567.311 269.838 565.993 268.819C564.676 267.792 563.669 266.304 562.973 264.357C562.277 262.402 561.929 260.04 561.929 257.273C561.929 254.522 562.277 252.173 562.973 250.225C563.677 248.27 564.688 246.779 566.006 245.751C567.331 244.715 568.922 244.197 570.778 244.197C572.634 244.197 574.221 244.715 575.539 245.751C576.864 246.779 577.875 248.27 578.571 250.225C579.276 252.173 579.628 254.522 579.628 257.273C579.628 260.04 579.28 262.402 578.584 264.357C577.888 266.304 576.881 267.792 575.563 268.819C574.246 269.838 572.651 270.348 570.778 270.348ZM570.778 267.614C572.634 267.614 574.076 266.719 575.104 264.929C576.131 263.139 576.645 260.587 576.645 257.273C576.645 255.069 576.409 253.192 575.936 251.642C575.472 250.093 574.801 248.912 573.923 248.1C573.053 247.288 572.005 246.882 570.778 246.882C568.939 246.882 567.501 247.789 566.465 249.604C565.43 251.41 564.912 253.967 564.912 257.273C564.912 259.477 565.144 261.349 565.608 262.891C566.072 264.432 566.739 265.604 567.609 266.408C568.487 267.212 569.544 267.614 570.778 267.614ZM589.67 255.781C588.618 255.781 587.657 255.524 586.787 255.011C585.925 254.497 585.237 253.809 584.724 252.947C584.21 252.077 583.953 251.116 583.953 250.064C583.953 249.012 584.21 248.055 584.724 247.193C585.237 246.323 585.925 245.631 586.787 245.117C587.657 244.603 588.618 244.347 589.67 244.347C590.723 244.347 591.68 244.603 592.541 245.117C593.411 245.631 594.103 246.323 594.617 247.193C595.131 248.055 595.388 249.012 595.388 250.064C595.388 251.116 595.131 252.077 594.617 252.947C594.103 253.809 593.411 254.497 592.541 255.011C591.68 255.524 590.723 255.781 589.67 255.781ZM589.67 253.295C590.267 253.295 590.81 253.15 591.299 252.86C591.787 252.57 592.177 252.181 592.467 251.692C592.757 251.203 592.902 250.661 592.902 250.064C592.902 249.467 592.757 248.925 592.467 248.436C592.177 247.947 591.787 247.557 591.299 247.267C590.81 246.977 590.267 246.832 589.67 246.832C589.074 246.832 588.531 246.977 588.042 247.267C587.553 247.557 587.164 247.947 586.874 248.436C586.584 248.925 586.439 249.467 586.439 250.064C586.439 250.661 586.584 251.203 586.874 251.692C587.164 252.181 587.553 252.57 588.042 252.86C588.531 253.15 589.074 253.295 589.67 253.295Z" fill="white"/>
<path d="M658.403 312V275.636H671.116C673.65 275.636 675.739 276.074 677.384 276.95C679.03 277.814 680.255 278.98 681.06 280.448C681.865 281.904 682.267 283.52 682.267 285.295C682.267 286.858 681.989 288.148 681.433 289.166C680.888 290.184 680.166 290.989 679.266 291.581C678.379 292.173 677.414 292.611 676.372 292.895V293.25C677.485 293.321 678.603 293.712 679.728 294.422C680.853 295.132 681.794 296.15 682.551 297.476C683.309 298.802 683.688 300.423 683.688 302.341C683.688 304.164 683.273 305.803 682.445 307.259C681.616 308.715 680.308 309.869 678.521 310.722C676.733 311.574 674.407 312 671.543 312H658.403ZM662.807 308.094H671.543C674.419 308.094 676.461 307.537 677.668 306.425C678.888 305.3 679.497 303.939 679.497 302.341C679.497 301.11 679.183 299.973 678.556 298.932C677.929 297.878 677.035 297.038 675.875 296.411C674.715 295.771 673.342 295.452 671.756 295.452H662.807V308.094ZM662.807 291.616H670.974C672.3 291.616 673.496 291.356 674.561 290.835C675.638 290.314 676.491 289.58 677.118 288.634C677.757 287.687 678.077 286.574 678.077 285.295C678.077 283.697 677.52 282.342 676.408 281.229C675.295 280.105 673.531 279.543 671.116 279.543H662.807V291.616Z" fill="white"/>
<path d="M562.665 56H558.261C558.001 54.7334 557.545 53.6207 556.894 52.6619C556.255 51.7031 555.474 50.8982 554.55 50.2472C553.639 49.5843 552.627 49.0871 551.514 48.7557C550.402 48.4242 549.241 48.2585 548.034 48.2585C545.832 48.2585 543.838 48.8149 542.05 49.9276C540.275 51.0402 538.86 52.6797 537.807 54.8459C536.765 57.0121 536.244 59.6695 536.244 62.8182C536.244 65.9669 536.765 68.6243 537.807 70.7905C538.86 72.9567 540.275 74.5961 542.05 75.7088C543.838 76.8215 545.832 77.3778 548.034 77.3778C549.241 77.3778 550.402 77.2121 551.514 76.8807C552.627 76.5492 553.639 76.058 554.55 75.407C555.474 74.7441 556.255 73.9332 556.894 72.9744C557.545 72.0038 558.001 70.8911 558.261 69.6364H562.665C562.333 71.4948 561.73 73.1579 560.854 74.6257C559.978 76.0935 558.889 77.3423 557.587 78.3722C556.285 79.3902 554.823 80.1655 553.201 80.6982C551.591 81.2308 549.869 81.4972 548.034 81.4972C544.933 81.4972 542.175 80.7396 539.76 79.2244C537.345 77.7093 535.445 75.5549 534.06 72.7614C532.675 69.9678 531.983 66.6534 531.983 62.8182C531.983 58.983 532.675 55.6686 534.06 52.875C535.445 50.0814 537.345 47.9271 539.76 46.4119C542.175 44.8968 544.933 44.1392 548.034 44.1392C549.869 44.1392 551.591 44.4055 553.201 44.9382C554.823 45.4709 556.285 46.2521 557.587 47.282C558.889 48.3 559.978 49.5428 560.854 51.0107C561.73 52.4666 562.333 54.1297 562.665 56Z" fill="white"/>
<path d="M169.625 81H158.403V44.6364H170.122C173.65 44.6364 176.668 45.3643 179.178 46.8203C181.687 48.2644 183.611 50.3419 184.948 53.0526C186.286 55.7514 186.955 58.983 186.955 62.7472C186.955 66.535 186.28 69.7962 184.93 72.5305C183.581 75.2531 181.616 77.3482 179.036 78.8161C176.455 80.272 173.318 81 169.625 81ZM162.807 77.0938H169.341C172.348 77.0938 174.839 76.5137 176.816 75.3537C178.793 74.1937 180.267 72.5424 181.237 70.3999C182.208 68.2573 182.693 65.7064 182.693 62.7472C182.693 59.8116 182.214 57.2843 181.255 55.1655C180.296 53.0348 178.864 51.4013 176.958 50.2649C175.052 49.1167 172.679 48.5426 169.838 48.5426H162.807V77.0938Z" fill="white"/>
<path d="M34.9119 168.543V164.92L50.892 139.636H53.5199V145.247H51.7443L39.6705 164.352V164.636H61.1903V168.543H34.9119ZM52.0284 176V167.442V165.755V139.636H56.2188V176H52.0284ZM81.9778 176V148.727H86.0261V152.989H86.3812C86.9494 151.533 87.8668 150.402 89.1333 149.597C90.3999 148.781 91.921 148.372 93.6966 148.372C95.4958 148.372 96.9932 148.781 98.1887 149.597C99.3961 150.402 100.337 151.533 101.012 152.989H101.296C101.994 151.58 103.042 150.461 104.439 149.633C105.836 148.792 107.51 148.372 109.464 148.372C111.902 148.372 113.897 149.136 115.447 150.663C116.998 152.178 117.773 154.539 117.773 157.747V176H113.583V157.747C113.583 155.735 113.032 154.297 111.932 153.433C110.831 152.568 109.535 152.136 108.043 152.136C106.126 152.136 104.64 152.716 103.586 153.876C102.533 155.025 102.006 156.481 102.006 158.244V176H97.7449V157.321C97.7449 155.77 97.2418 154.522 96.2356 153.575C95.2295 152.616 93.9333 152.136 92.3471 152.136C91.2581 152.136 90.2401 152.426 89.2931 153.006C88.358 153.586 87.6004 154.391 87.0204 155.421C86.4522 156.439 86.1681 157.617 86.1681 158.955V176H81.9778Z" fill="white"/>
<path d="M219.004 65.5H505.657C505.84 65.5 506.009 65.6 506.097 65.7607L638.39 308.761C638.571 309.094 638.33 309.5 637.951 309.5H92.9365C92.5616 309.5 92.3195 309.102 92.4922 308.77L218.561 65.7695C218.646 65.604 218.817 65.5002 219.004 65.5Z" fill="#008423" stroke="white" stroke-width="5"/>
<line x1="543.663" y1="182.358" x2="582.24" y2="163.363" stroke="white" stroke-width="7"/>
<line x1="144.695" y1="160.938" x2="182.317" y2="181.759" stroke="white" stroke-width="7"/>
<line x1="366.5" y1="81" x2="366.5" y2="47" stroke="white" stroke-width="7"/>
<path d="M120.163 255.972C129.963 260.901 138.099 268.6 143.562 278.112C149.025 287.625 151.574 298.533 150.892 309.481L145.412 309.14C146.027 299.265 143.728 289.427 138.801 280.847C133.874 272.267 126.535 265.323 117.696 260.877L120.163 255.972Z" fill="white"/>
<path d="M575 309C575 298.03 578.222 287.302 584.265 278.147C590.309 268.993 598.908 261.815 608.996 257.504L611.153 262.553C602.055 266.441 594.299 272.915 588.847 281.172C583.396 289.43 580.491 299.106 580.491 309L575 309Z" fill="white"/>
<path d="M273.895 223H269.278L282.631 186.636H287.176L300.528 223H295.912L285.045 192.389H284.761L273.895 223ZM275.599 208.795H294.207V212.702H275.599V208.795ZM305.624 223V195.727H309.673V199.847H309.957C310.454 198.497 311.353 197.402 312.656 196.562C313.958 195.721 315.425 195.301 317.059 195.301C317.367 195.301 317.751 195.307 318.213 195.319C318.675 195.331 319.024 195.348 319.261 195.372V199.634C319.119 199.598 318.793 199.545 318.284 199.474C317.787 199.391 317.26 199.349 316.704 199.349C315.378 199.349 314.194 199.628 313.153 200.184C312.123 200.728 311.306 201.486 310.702 202.457C310.111 203.415 309.815 204.51 309.815 205.741V223H305.624ZM334.832 223.568C332.205 223.568 329.938 222.988 328.032 221.828C326.138 220.656 324.676 219.023 323.646 216.928C322.628 214.821 322.119 212.37 322.119 209.577C322.119 206.783 322.628 204.321 323.646 202.19C324.676 200.048 326.108 198.379 327.943 197.183C329.79 195.976 331.944 195.372 334.406 195.372C335.827 195.372 337.229 195.609 338.614 196.082C339.999 196.556 341.26 197.325 342.396 198.391C343.533 199.444 344.438 200.841 345.113 202.581C345.788 204.321 346.125 206.464 346.125 209.009V210.784H325.102V207.162H341.864C341.864 205.623 341.556 204.25 340.94 203.043C340.337 201.835 339.473 200.882 338.348 200.184C337.235 199.486 335.921 199.136 334.406 199.136C332.737 199.136 331.293 199.551 330.074 200.379C328.866 201.196 327.937 202.261 327.286 203.575C326.635 204.889 326.31 206.298 326.31 207.801V210.216C326.31 212.276 326.665 214.022 327.375 215.454C328.097 216.874 329.097 217.957 330.376 218.703C331.654 219.437 333.14 219.804 334.832 219.804C335.933 219.804 336.928 219.65 337.815 219.342C338.715 219.023 339.49 218.549 340.141 217.922C340.792 217.283 341.295 216.49 341.651 215.543L345.699 216.679C345.273 218.052 344.557 219.259 343.55 220.301C342.544 221.331 341.301 222.136 339.822 222.716C338.342 223.284 336.679 223.568 334.832 223.568ZM360.525 223.639C358.797 223.639 357.228 223.314 355.82 222.663C354.411 222 353.292 221.047 352.464 219.804C351.635 218.549 351.221 217.034 351.221 215.259C351.221 213.696 351.529 212.429 352.144 211.459C352.76 210.476 353.582 209.707 354.612 209.151C355.642 208.594 356.778 208.18 358.021 207.908C359.276 207.624 360.537 207.399 361.803 207.233C363.46 207.02 364.804 206.86 365.834 206.754C366.875 206.635 367.633 206.44 368.107 206.168C368.592 205.895 368.835 205.422 368.835 204.747V204.605C368.835 202.853 368.355 201.492 367.396 200.521C366.449 199.551 365.011 199.065 363.082 199.065C361.081 199.065 359.513 199.503 358.376 200.379C357.24 201.255 356.441 202.19 355.979 203.185L352.002 201.764C352.712 200.107 353.659 198.817 354.843 197.893C356.039 196.958 357.341 196.307 358.749 195.94C360.17 195.562 361.567 195.372 362.94 195.372C363.816 195.372 364.822 195.479 365.958 195.692C367.106 195.893 368.213 196.313 369.278 196.952C370.356 197.592 371.249 198.556 371.96 199.847C372.67 201.137 373.025 202.865 373.025 205.031V223H368.835V219.307H368.621C368.337 219.899 367.864 220.532 367.201 221.207C366.538 221.881 365.656 222.455 364.555 222.929C363.455 223.402 362.111 223.639 360.525 223.639ZM361.164 219.875C362.821 219.875 364.218 219.549 365.354 218.898C366.503 218.247 367.367 217.407 367.947 216.377C368.539 215.347 368.835 214.264 368.835 213.128V209.293C368.657 209.506 368.266 209.701 367.663 209.879C367.071 210.044 366.384 210.192 365.603 210.322C364.834 210.441 364.082 210.547 363.348 210.642C362.626 210.725 362.04 210.796 361.59 210.855C360.501 210.997 359.483 211.228 358.536 211.548C357.601 211.855 356.844 212.323 356.263 212.95C355.695 213.566 355.411 214.406 355.411 215.472C355.411 216.928 355.95 218.028 357.027 218.774C358.116 219.508 359.495 219.875 361.164 219.875ZM396.44 201.48V197.645H418.315V201.48H396.44ZM396.44 211.991V208.156H418.315V211.991H396.44ZM447.226 212.773V212.56C447.25 210.299 447.486 208.5 447.936 207.162C448.386 205.824 449.025 204.741 449.854 203.913C450.682 203.084 451.677 202.321 452.837 201.622C453.535 201.196 454.162 200.693 454.719 200.113C455.275 199.521 455.713 198.84 456.033 198.071C456.364 197.302 456.53 196.449 456.53 195.514C456.53 194.354 456.258 193.348 455.713 192.496C455.169 191.643 454.441 190.987 453.529 190.525C452.618 190.063 451.606 189.832 450.493 189.832C449.522 189.832 448.587 190.034 447.688 190.436C446.788 190.839 446.036 191.472 445.433 192.336C444.829 193.2 444.48 194.33 444.385 195.727H439.911C440.005 193.715 440.526 191.993 441.473 190.56C442.432 189.128 443.692 188.033 445.255 187.276C446.829 186.518 448.575 186.139 450.493 186.139C452.576 186.139 454.387 186.554 455.926 187.382C457.477 188.211 458.672 189.347 459.513 190.791C460.365 192.235 460.791 193.881 460.791 195.727C460.791 197.029 460.59 198.207 460.188 199.261C459.797 200.314 459.229 201.255 458.483 202.084C457.749 202.912 456.861 203.646 455.82 204.286C454.778 204.937 453.943 205.623 453.316 206.345C452.689 207.055 452.233 207.902 451.949 208.884C451.665 209.867 451.511 211.092 451.487 212.56V212.773H447.226ZM449.499 223.284C448.623 223.284 447.871 222.97 447.244 222.343C446.616 221.716 446.303 220.964 446.303 220.088C446.303 219.212 446.616 218.46 447.244 217.833C447.871 217.206 448.623 216.892 449.499 216.892C450.375 216.892 451.126 217.206 451.754 217.833C452.381 218.46 452.695 219.212 452.695 220.088C452.695 220.668 452.547 221.201 452.251 221.686C451.967 222.171 451.582 222.562 451.097 222.858C450.623 223.142 450.09 223.284 449.499 223.284Z" fill="white"/>
</svg>
