<svg width="488" height="267" viewBox="0 0 488 267" fill="none" xmlns="http://www.w3.org/2000/svg">
<g clip-path="url(#clip0_75_2)">
<path d="M191.5 48.1006L423.906 223.231L60.0041 222.602L191.5 48.1006Z" fill="#24CEFB" stroke="white" stroke-width="3"/>
<rect x="192" y="204" width="18" height="18" fill="#00FF55" stroke="white" stroke-width="2"/>
<rect x="178.271" y="66.3881" width="22" height="22" transform="rotate(-53 178.271 66.3881)" fill="#F96F2A" stroke="white" stroke-width="2"/>
<path d="M185.83 40H183.614L190.023 22.5455H192.205L198.614 40H196.398L191.182 25.3068H191.045L185.83 40ZM186.648 33.1818H195.58V35.0568H186.648V33.1818Z" fill="white"/>
<path d="M39.1136 236V218.545H45.2159C46.4318 218.545 47.4347 218.756 48.2244 219.176C49.0142 219.591 49.6023 220.151 49.9886 220.855C50.375 221.554 50.5682 222.33 50.5682 223.182C50.5682 223.932 50.4347 224.551 50.1676 225.04C49.9063 225.528 49.5597 225.915 49.1278 226.199C48.7017 226.483 48.2386 226.693 47.7386 226.83V227C48.2727 227.034 48.8097 227.222 49.3494 227.562C49.8892 227.903 50.3409 228.392 50.7045 229.028C51.0682 229.665 51.25 230.443 51.25 231.364C51.25 232.239 51.0511 233.026 50.6534 233.724C50.2557 234.423 49.6278 234.977 48.7699 235.386C47.9119 235.795 46.7955 236 45.4205 236H39.1136ZM41.2273 234.125H45.4205C46.8011 234.125 47.7813 233.858 48.3608 233.324C48.946 232.784 49.2386 232.131 49.2386 231.364C49.2386 230.773 49.0881 230.227 48.7869 229.727C48.4858 229.222 48.0568 228.818 47.5 228.517C46.9432 228.21 46.2841 228.057 45.5227 228.057H41.2273V234.125ZM41.2273 226.216H45.1477C45.7841 226.216 46.358 226.091 46.8693 225.841C47.3864 225.591 47.7955 225.239 48.0966 224.784C48.4034 224.33 48.5568 223.795 48.5568 223.182C48.5568 222.415 48.2898 221.764 47.7557 221.23C47.2216 220.69 46.375 220.42 45.2159 220.42H41.2273V226.216Z" fill="white"/>
<path d="M448.159 226H446.045C445.92 225.392 445.702 224.858 445.389 224.398C445.082 223.938 444.707 223.551 444.264 223.239C443.827 222.92 443.341 222.682 442.807 222.523C442.273 222.364 441.716 222.284 441.136 222.284C440.08 222.284 439.122 222.551 438.264 223.085C437.412 223.619 436.733 224.406 436.227 225.446C435.727 226.486 435.477 227.761 435.477 229.273C435.477 230.784 435.727 232.06 436.227 233.099C436.733 234.139 437.412 234.926 438.264 235.46C439.122 235.994 440.08 236.261 441.136 236.261C441.716 236.261 442.273 236.182 442.807 236.023C443.341 235.864 443.827 235.628 444.264 235.315C444.707 234.997 445.082 234.608 445.389 234.148C445.702 233.682 445.92 233.148 446.045 232.545H448.159C448 233.437 447.71 234.236 447.29 234.94C446.869 235.645 446.347 236.244 445.722 236.739C445.097 237.227 444.395 237.599 443.616 237.855C442.844 238.111 442.017 238.239 441.136 238.239C439.648 238.239 438.324 237.875 437.165 237.148C436.006 236.42 435.094 235.386 434.429 234.045C433.764 232.705 433.432 231.114 433.432 229.273C433.432 227.432 433.764 225.841 434.429 224.5C435.094 223.159 436.006 222.125 437.165 221.398C438.324 220.67 439.648 220.307 441.136 220.307C442.017 220.307 442.844 220.435 443.616 220.69C444.395 220.946 445.097 221.321 445.722 221.815C446.347 222.304 446.869 222.901 447.29 223.605C447.71 224.304 448 225.102 448.159 226Z" fill="white"/>
<path d="M210.412 133.909V136.636H202.528V133.909H210.412ZM204.318 130.773H207.949V142.977C207.949 143.312 208 143.574 208.102 143.761C208.205 143.943 208.347 144.071 208.528 144.145C208.716 144.219 208.932 144.256 209.176 144.256C209.347 144.256 209.517 144.241 209.688 144.213C209.858 144.179 209.989 144.153 210.08 144.136L210.651 146.838C210.469 146.895 210.213 146.96 209.884 147.034C209.554 147.114 209.153 147.162 208.682 147.179C207.807 147.213 207.04 147.097 206.381 146.83C205.727 146.562 205.219 146.148 204.855 145.585C204.491 145.023 204.313 144.312 204.318 143.455V130.773Z" fill="#9900FF"/>
<path d="M79.6023 120.239C78.8864 120.227 78.1705 120.091 77.4545 119.83C76.7386 119.568 76.0852 119.128 75.4943 118.509C74.9034 117.884 74.429 117.04 74.071 115.977C73.7131 114.909 73.5341 113.568 73.5341 111.955C73.5341 110.409 73.679 109.04 73.9688 107.847C74.2585 106.648 74.679 105.639 75.2301 104.821C75.7813 103.997 76.446 103.372 77.2244 102.946C78.0085 102.52 78.892 102.307 79.875 102.307C80.8523 102.307 81.7216 102.503 82.483 102.895C83.25 103.281 83.875 103.821 84.358 104.514C84.8409 105.207 85.1534 106.006 85.2955 106.909H83.2159C83.0227 106.125 82.6477 105.474 82.0909 104.957C81.5341 104.44 80.7955 104.182 79.875 104.182C78.5227 104.182 77.4574 104.77 76.679 105.946C75.9063 107.122 75.517 108.773 75.5114 110.898H75.6477C75.9659 110.415 76.3438 110.003 76.7812 109.662C77.2244 109.315 77.7131 109.048 78.2472 108.861C78.7813 108.673 79.3466 108.58 79.9432 108.58C80.9432 108.58 81.858 108.83 82.6875 109.33C83.517 109.824 84.1818 110.509 84.6818 111.384C85.1818 112.253 85.4318 113.25 85.4318 114.375C85.4318 115.455 85.1903 116.443 84.7074 117.341C84.2244 118.233 83.5455 118.943 82.6705 119.472C81.8011 119.994 80.7784 120.25 79.6023 120.239ZM79.6023 118.364C80.3182 118.364 80.9602 118.185 81.5284 117.827C82.1023 117.469 82.554 116.989 82.8835 116.386C83.2188 115.784 83.3864 115.114 83.3864 114.375C83.3864 113.653 83.2244 112.997 82.9006 112.406C82.5824 111.81 82.142 111.335 81.5795 110.983C81.0227 110.631 80.3864 110.455 79.6705 110.455C79.1307 110.455 78.6278 110.562 78.1619 110.778C77.696 110.989 77.2869 111.278 76.9347 111.648C76.5881 112.017 76.3153 112.44 76.1165 112.918C75.9176 113.389 75.8182 113.886 75.8182 114.409C75.8182 115.102 75.9801 115.75 76.304 116.352C76.6335 116.955 77.0824 117.44 77.6506 117.81C78.2244 118.179 78.875 118.364 79.6023 118.364ZM100.886 120.273C99.6584 120.273 98.6016 119.983 97.7152 119.403C96.8288 118.824 96.147 118.026 95.6697 117.009C95.1925 115.991 94.9538 114.83 94.9538 113.523C94.9538 112.193 95.1982 111.02 95.6868 110.003C96.1811 108.98 96.8686 108.182 97.7493 107.608C98.6357 107.028 99.6697 106.739 100.852 106.739C101.772 106.739 102.602 106.909 103.34 107.25C104.079 107.591 104.684 108.068 105.156 108.682C105.627 109.295 105.92 110.011 106.033 110.83H104.022C103.869 110.233 103.528 109.705 102.999 109.244C102.477 108.778 101.772 108.545 100.886 108.545C100.102 108.545 99.4141 108.75 98.8232 109.159C98.2379 109.562 97.7805 110.134 97.451 110.872C97.1271 111.605 96.9652 112.466 96.9652 113.455C96.9652 114.466 97.1243 115.347 97.4425 116.097C97.7663 116.847 98.2209 117.429 98.8061 117.844C99.397 118.259 100.09 118.466 100.886 118.466C101.408 118.466 101.883 118.375 102.309 118.193C102.735 118.011 103.096 117.75 103.391 117.409C103.687 117.068 103.897 116.659 104.022 116.182H106.033C105.92 116.955 105.638 117.651 105.19 118.27C104.746 118.884 104.158 119.372 103.425 119.736C102.698 120.094 101.852 120.273 100.886 120.273ZM108.974 120V106.909H110.917V108.955H111.087C111.36 108.256 111.8 107.713 112.408 107.327C113.016 106.935 113.746 106.739 114.599 106.739C115.462 106.739 116.181 106.935 116.755 107.327C117.335 107.713 117.786 108.256 118.11 108.955H118.246C118.582 108.278 119.085 107.741 119.755 107.344C120.425 106.94 121.229 106.739 122.167 106.739C123.337 106.739 124.295 107.105 125.039 107.838C125.783 108.565 126.156 109.699 126.156 111.239V120H124.144V111.239C124.144 110.273 123.88 109.582 123.352 109.168C122.823 108.753 122.201 108.545 121.485 108.545C120.565 108.545 119.852 108.824 119.346 109.381C118.84 109.932 118.587 110.631 118.587 111.477V120H116.542V111.034C116.542 110.29 116.3 109.69 115.817 109.236C115.335 108.776 114.712 108.545 113.951 108.545C113.428 108.545 112.94 108.685 112.485 108.963C112.036 109.241 111.673 109.628 111.394 110.122C111.121 110.611 110.985 111.176 110.985 111.818V120H108.974Z" fill="white"/>
<path d="M300.398 118.239C299.227 118.239 298.193 118.031 297.295 117.616C296.403 117.196 295.707 116.619 295.207 115.886C294.707 115.148 294.46 114.307 294.466 113.364C294.46 112.625 294.605 111.943 294.901 111.318C295.196 110.687 295.599 110.162 296.111 109.741C296.628 109.315 297.205 109.045 297.841 108.932V108.83C297.006 108.614 296.341 108.145 295.847 107.423C295.352 106.696 295.108 105.869 295.114 104.943C295.108 104.057 295.332 103.264 295.787 102.565C296.241 101.866 296.866 101.315 297.662 100.912C298.463 100.509 299.375 100.307 300.398 100.307C301.409 100.307 302.313 100.509 303.108 100.912C303.903 101.315 304.528 101.866 304.983 102.565C305.443 103.264 305.676 104.057 305.682 104.943C305.676 105.869 305.423 106.696 304.923 107.423C304.429 108.145 303.773 108.614 302.955 108.83V108.932C303.585 109.045 304.153 109.315 304.659 109.741C305.165 110.162 305.568 110.687 305.869 111.318C306.17 111.943 306.324 112.625 306.33 113.364C306.324 114.307 306.068 115.148 305.562 115.886C305.062 116.619 304.366 117.196 303.474 117.616C302.588 118.031 301.563 118.239 300.398 118.239ZM300.398 116.364C301.188 116.364 301.869 116.236 302.443 115.98C303.017 115.724 303.46 115.364 303.773 114.898C304.085 114.432 304.244 113.886 304.25 113.261C304.244 112.602 304.074 112.02 303.739 111.514C303.403 111.009 302.946 110.611 302.366 110.321C301.793 110.031 301.136 109.886 300.398 109.886C299.653 109.886 298.989 110.031 298.403 110.321C297.824 110.611 297.366 111.009 297.031 111.514C296.702 112.02 296.54 112.602 296.545 113.261C296.54 113.886 296.69 114.432 296.997 114.898C297.31 115.364 297.756 115.724 298.335 115.98C298.915 116.236 299.602 116.364 300.398 116.364ZM300.398 108.08C301.023 108.08 301.577 107.955 302.06 107.705C302.548 107.455 302.932 107.105 303.21 106.656C303.489 106.207 303.631 105.682 303.636 105.08C303.631 104.489 303.491 103.974 303.219 103.537C302.946 103.094 302.568 102.753 302.085 102.514C301.602 102.27 301.04 102.148 300.398 102.148C299.744 102.148 299.173 102.27 298.685 102.514C298.196 102.753 297.818 103.094 297.551 103.537C297.284 103.974 297.153 104.489 297.159 105.08C297.153 105.682 297.287 106.207 297.56 106.656C297.838 107.105 298.222 107.455 298.71 107.705C299.199 107.955 299.761 108.08 300.398 108.08ZM321.698 118.273C320.471 118.273 319.414 117.983 318.528 117.403C317.641 116.824 316.96 116.026 316.482 115.009C316.005 113.991 315.766 112.83 315.766 111.523C315.766 110.193 316.011 109.02 316.499 108.003C316.994 106.98 317.681 106.182 318.562 105.608C319.448 105.028 320.482 104.739 321.664 104.739C322.585 104.739 323.414 104.909 324.153 105.25C324.891 105.591 325.496 106.068 325.968 106.682C326.44 107.295 326.732 108.011 326.846 108.83H324.835C324.681 108.233 324.34 107.705 323.812 107.244C323.289 106.778 322.585 106.545 321.698 106.545C320.914 106.545 320.227 106.75 319.636 107.159C319.05 107.562 318.593 108.134 318.263 108.872C317.94 109.605 317.778 110.466 317.778 111.455C317.778 112.466 317.937 113.347 318.255 114.097C318.579 114.847 319.033 115.429 319.619 115.844C320.21 116.259 320.903 116.466 321.698 116.466C322.221 116.466 322.695 116.375 323.121 116.193C323.548 116.011 323.908 115.75 324.204 115.409C324.499 115.068 324.71 114.659 324.835 114.182H326.846C326.732 114.955 326.451 115.651 326.002 116.27C325.559 116.884 324.971 117.372 324.238 117.736C323.511 118.094 322.664 118.273 321.698 118.273ZM329.786 118V104.909H331.729V106.955H331.9C332.173 106.256 332.613 105.713 333.221 105.327C333.829 104.935 334.559 104.739 335.411 104.739C336.275 104.739 336.994 104.935 337.567 105.327C338.147 105.713 338.599 106.256 338.923 106.955H339.059C339.394 106.278 339.897 105.741 340.567 105.344C341.238 104.94 342.042 104.739 342.979 104.739C344.15 104.739 345.107 105.105 345.852 105.838C346.596 106.565 346.968 107.699 346.968 109.239V118H344.957V109.239C344.957 108.273 344.692 107.582 344.164 107.168C343.636 106.753 343.013 106.545 342.298 106.545C341.377 106.545 340.664 106.824 340.158 107.381C339.653 107.932 339.4 108.631 339.4 109.477V118H337.354V109.034C337.354 108.29 337.113 107.69 336.63 107.236C336.147 106.776 335.525 106.545 334.763 106.545C334.241 106.545 333.752 106.685 333.298 106.963C332.849 107.241 332.485 107.628 332.207 108.122C331.934 108.611 331.798 109.176 331.798 109.818V118H329.786Z" fill="white"/>
<path d="M211.943 236.545V254H209.83V238.761H209.727L205.466 241.591V239.443L209.83 236.545H211.943ZM222.656 254.239C221.372 254.239 220.278 253.889 219.375 253.19C218.472 252.486 217.781 251.466 217.304 250.131C216.827 248.79 216.588 247.17 216.588 245.273C216.588 243.386 216.827 241.776 217.304 240.44C217.787 239.099 218.48 238.077 219.384 237.372C220.293 236.662 221.384 236.307 222.656 236.307C223.929 236.307 225.017 236.662 225.92 237.372C226.83 238.077 227.523 239.099 228 240.44C228.483 241.776 228.724 243.386 228.724 245.273C228.724 247.17 228.486 248.79 228.009 250.131C227.531 251.466 226.841 252.486 225.938 253.19C225.034 253.889 223.94 254.239 222.656 254.239ZM222.656 252.364C223.929 252.364 224.918 251.75 225.622 250.523C226.327 249.295 226.679 247.545 226.679 245.273C226.679 243.761 226.517 242.474 226.193 241.412C225.875 240.349 225.415 239.54 224.812 238.983C224.216 238.426 223.497 238.148 222.656 238.148C221.395 238.148 220.409 238.77 219.699 240.014C218.989 241.253 218.634 243.006 218.634 245.273C218.634 246.784 218.793 248.068 219.111 249.125C219.429 250.182 219.886 250.986 220.483 251.537C221.085 252.088 221.81 252.364 222.656 252.364ZM244.065 254.273C242.838 254.273 241.781 253.983 240.895 253.403C240.009 252.824 239.327 252.026 238.849 251.009C238.372 249.991 238.134 248.83 238.134 247.523C238.134 246.193 238.378 245.02 238.866 244.003C239.361 242.98 240.048 242.182 240.929 241.608C241.815 241.028 242.849 240.739 244.031 240.739C244.952 240.739 245.781 240.909 246.52 241.25C247.259 241.591 247.864 242.068 248.335 242.682C248.807 243.295 249.099 244.011 249.213 244.83H247.202C247.048 244.233 246.707 243.705 246.179 243.244C245.656 242.778 244.952 242.545 244.065 242.545C243.281 242.545 242.594 242.75 242.003 243.159C241.418 243.562 240.96 244.134 240.631 244.872C240.307 245.605 240.145 246.466 240.145 247.455C240.145 248.466 240.304 249.347 240.622 250.097C240.946 250.847 241.401 251.429 241.986 251.844C242.577 252.259 243.27 252.466 244.065 252.466C244.588 252.466 245.062 252.375 245.489 252.193C245.915 252.011 246.276 251.75 246.571 251.409C246.866 251.068 247.077 250.659 247.202 250.182H249.213C249.099 250.955 248.818 251.651 248.369 252.27C247.926 252.884 247.338 253.372 246.605 253.736C245.878 254.094 245.031 254.273 244.065 254.273ZM252.153 254V240.909H254.097V242.955H254.267C254.54 242.256 254.98 241.713 255.588 241.327C256.196 240.935 256.926 240.739 257.778 240.739C258.642 240.739 259.361 240.935 259.935 241.327C260.514 241.713 260.966 242.256 261.29 242.955H261.426C261.761 242.278 262.264 241.741 262.935 241.344C263.605 240.94 264.409 240.739 265.347 240.739C266.517 240.739 267.474 241.105 268.219 241.838C268.963 242.565 269.335 243.699 269.335 245.239V254H267.324V245.239C267.324 244.273 267.06 243.582 266.531 243.168C266.003 242.753 265.381 242.545 264.665 242.545C263.744 242.545 263.031 242.824 262.526 243.381C262.02 243.932 261.767 244.631 261.767 245.477V254H259.722V245.034C259.722 244.29 259.48 243.69 258.997 243.236C258.514 242.776 257.892 242.545 257.131 242.545C256.608 242.545 256.119 242.685 255.665 242.963C255.216 243.241 254.852 243.628 254.574 244.122C254.301 244.611 254.165 245.176 254.165 245.818V254H252.153Z" fill="white"/>
<path d="M193.747 52.0026C193.748 51.0361 192.966 50.2514 192 50.25C191.033 50.2486 190.248 51.0309 190.247 51.9974L191.997 52L193.747 52.0026ZM191.75 220.75L193.5 220.753L193.747 52.0026L191.997 52L190.247 51.9974L190 220.747L191.75 220.75Z" fill="#9900FF"/>
</g>
<defs>
<clipPath id="clip0_75_2">
<rect width="488" height="267" fill="white"/>
</clipPath>
</defs>
</svg>
