<svg width="1035" height="591" viewBox="0 0 1035 591" fill="none" xmlns="http://www.w3.org/2000/svg">
<path d="M935.072 69L813.634 368H172.551L299.312 69H935.072Z" fill="#5FD7FF" stroke="white" stroke-width="10"/>
<path d="M209.304 196.773V196.56C209.328 194.299 209.564 192.5 210.014 191.162C210.464 189.824 211.103 188.741 211.932 187.913C212.76 187.084 213.755 186.321 214.915 185.622C215.613 185.196 216.241 184.693 216.797 184.113C217.353 183.521 217.791 182.84 218.111 182.071C218.442 181.302 218.608 180.449 218.608 179.514C218.608 178.354 218.336 177.348 217.791 176.496C217.247 175.643 216.519 174.987 215.607 174.525C214.696 174.063 213.684 173.832 212.571 173.832C211.6 173.832 210.665 174.034 209.766 174.436C208.866 174.839 208.114 175.472 207.511 176.336C206.907 177.2 206.558 178.33 206.463 179.727H201.989C202.083 177.715 202.604 175.993 203.551 174.56C204.51 173.128 205.771 172.033 207.333 171.276C208.907 170.518 210.653 170.139 212.571 170.139C214.654 170.139 216.465 170.554 218.004 171.382C219.555 172.211 220.75 173.347 221.591 174.791C222.443 176.235 222.869 177.881 222.869 179.727C222.869 181.029 222.668 182.207 222.266 183.261C221.875 184.314 221.307 185.255 220.561 186.084C219.827 186.912 218.939 187.646 217.898 188.286C216.856 188.937 216.022 189.623 215.394 190.345C214.767 191.055 214.311 191.902 214.027 192.884C213.743 193.867 213.589 195.092 213.565 196.56V196.773H209.304ZM211.577 207.284C210.701 207.284 209.949 206.97 209.322 206.343C208.694 205.716 208.381 204.964 208.381 204.088C208.381 203.212 208.694 202.46 209.322 201.833C209.949 201.206 210.701 200.892 211.577 200.892C212.453 200.892 213.204 201.206 213.832 201.833C214.459 202.46 214.773 203.212 214.773 204.088C214.773 204.668 214.625 205.201 214.329 205.686C214.045 206.171 213.66 206.562 213.175 206.858C212.701 207.142 212.169 207.284 211.577 207.284Z" fill="#F8B32A"/>
<path d="M121.895 388H117.278L130.631 351.636H135.176L148.528 388H143.912L133.045 357.389H132.761L121.895 388ZM123.599 373.795H142.207V377.702H123.599V373.795Z" fill="white"/>
<path d="M836.403 388V351.636H849.116C851.65 351.636 853.739 352.074 855.384 352.95C857.03 353.814 858.255 354.98 859.06 356.448C859.865 357.904 860.267 359.52 860.267 361.295C860.267 362.858 859.989 364.148 859.433 365.166C858.888 366.184 858.166 366.989 857.266 367.581C856.379 368.173 855.414 368.611 854.372 368.895V369.25C855.485 369.321 856.603 369.712 857.728 370.422C858.853 371.132 859.794 372.15 860.551 373.476C861.309 374.802 861.688 376.423 861.688 378.341C861.688 380.164 861.273 381.803 860.445 383.259C859.616 384.715 858.308 385.869 856.521 386.722C854.733 387.574 852.407 388 849.543 388H836.403ZM840.807 384.094H849.543C852.419 384.094 854.461 383.537 855.668 382.425C856.888 381.3 857.497 379.939 857.497 378.341C857.497 377.11 857.183 375.973 856.556 374.932C855.929 373.878 855.035 373.038 853.875 372.411C852.715 371.771 851.342 371.452 849.756 371.452H840.807V384.094ZM840.807 367.616H848.974C850.3 367.616 851.496 367.356 852.561 366.835C853.638 366.314 854.491 365.58 855.118 364.634C855.757 363.687 856.077 362.574 856.077 361.295C856.077 359.697 855.52 358.342 854.408 357.229C853.295 356.105 851.531 355.543 849.116 355.543H840.807V367.616Z" fill="white"/>
<path d="M988.665 57H984.261C984.001 55.7334 983.545 54.6207 982.894 53.6619C982.255 52.7031 981.474 51.8982 980.55 51.2472C979.639 50.5843 978.627 50.0871 977.514 49.7557C976.402 49.4242 975.241 49.2585 974.034 49.2585C971.832 49.2585 969.838 49.8149 968.05 50.9276C966.275 52.0402 964.86 53.6797 963.807 55.8459C962.765 58.0121 962.244 60.6695 962.244 63.8182C962.244 66.9669 962.765 69.6243 963.807 71.7905C964.86 73.9567 966.275 75.5961 968.05 76.7088C969.838 77.8215 971.832 78.3778 974.034 78.3778C975.241 78.3778 976.402 78.2121 977.514 77.8807C978.627 77.5492 979.639 77.058 980.55 76.407C981.474 75.7441 982.255 74.9332 982.894 73.9744C983.545 73.0038 984.001 71.8911 984.261 70.6364H988.665C988.333 72.4948 987.73 74.1579 986.854 75.6257C985.978 77.0935 984.889 78.3423 983.587 79.3722C982.285 80.3902 980.823 81.1655 979.201 81.6982C977.591 82.2308 975.869 82.4972 974.034 82.4972C970.933 82.4972 968.175 81.7396 965.76 80.2244C963.345 78.7093 961.445 76.5549 960.06 73.7614C958.675 70.9678 957.983 67.6534 957.983 63.8182C957.983 59.983 958.675 56.6686 960.06 53.875C961.445 51.0814 963.345 48.9271 965.76 47.4119C968.175 45.8968 970.933 45.1392 974.034 45.1392C975.869 45.1392 977.591 45.4055 979.201 45.9382C980.823 46.4709 982.285 47.2521 983.587 48.282C984.889 49.3 985.978 50.5428 986.854 52.0107C987.73 53.4666 988.333 55.1297 988.665 57Z" fill="white"/>
<path d="M262.625 82H251.403V45.6364H263.122C266.65 45.6364 269.668 46.3643 272.178 47.8203C274.687 49.2644 276.611 51.3419 277.948 54.0526C279.286 56.7514 279.955 59.983 279.955 63.7472C279.955 67.535 279.28 70.7962 277.93 73.5305C276.581 76.2531 274.616 78.3482 272.036 79.8161C269.455 81.272 266.318 82 262.625 82ZM255.807 78.0938H262.341C265.348 78.0938 267.839 77.5137 269.816 76.3537C271.793 75.1937 273.267 73.5424 274.237 71.3999C275.208 69.2573 275.693 66.7064 275.693 63.7472C275.693 60.8116 275.214 58.2843 274.255 56.1655C273.296 54.0348 271.864 52.4013 269.958 51.2649C268.052 50.1167 265.679 49.5426 262.838 49.5426H255.807V78.0938Z" fill="white"/>
<line x1="173.824" y1="365.132" x2="299.132" y2="70.1762" stroke="#F8B32A" stroke-width="12" stroke-linecap="round"/>
<path d="M269.403 548V511.636H273.807V529.676H274.233L290.568 511.636H296.321L281.051 528.043L296.321 548H290.994L278.352 531.097L273.807 536.21V548H269.403ZM310.885 548.568C308.257 548.568 305.99 547.988 304.085 546.828C302.191 545.656 300.729 544.023 299.699 541.928C298.681 539.821 298.172 537.37 298.172 534.577C298.172 531.783 298.681 529.321 299.699 527.19C300.729 525.048 302.161 523.379 303.996 522.183C305.843 520.976 307.997 520.372 310.459 520.372C311.879 520.372 313.282 520.609 314.667 521.082C316.052 521.556 317.313 522.325 318.449 523.391C319.585 524.444 320.491 525.841 321.166 527.581C321.84 529.321 322.178 531.464 322.178 534.009V535.784H301.155V532.162H317.916C317.916 530.623 317.609 529.25 316.993 528.043C316.389 526.835 315.525 525.882 314.401 525.184C313.288 524.486 311.974 524.136 310.459 524.136C308.79 524.136 307.346 524.551 306.127 525.379C304.919 526.196 303.99 527.261 303.339 528.575C302.688 529.889 302.362 531.298 302.362 532.801V535.216C302.362 537.276 302.718 539.022 303.428 540.454C304.15 541.874 305.15 542.957 306.428 543.703C307.707 544.437 309.192 544.804 310.885 544.804C311.986 544.804 312.98 544.65 313.868 544.342C314.768 544.023 315.543 543.549 316.194 542.922C316.845 542.283 317.348 541.49 317.703 540.543L321.752 541.679C321.325 543.052 320.609 544.259 319.603 545.301C318.597 546.331 317.354 547.136 315.874 547.716C314.395 548.284 312.732 548.568 310.885 548.568ZM332.742 511.636V548H328.552V511.636H332.742ZM340.417 548V520.727H344.608V548H340.417ZM342.548 516.182C341.731 516.182 341.027 515.904 340.435 515.347C339.855 514.791 339.565 514.122 339.565 513.341C339.565 512.56 339.855 511.891 340.435 511.335C341.027 510.778 341.731 510.5 342.548 510.5C343.365 510.5 344.063 510.778 344.643 511.335C345.235 511.891 345.531 512.56 345.531 513.341C345.531 514.122 345.235 514.791 344.643 515.347C344.063 515.904 343.365 516.182 342.548 516.182ZM356.473 511.636V548H352.282V511.636H356.473ZM364.148 548V520.727H368.338V548H364.148ZM366.278 516.182C365.462 516.182 364.757 515.904 364.165 515.347C363.585 514.791 363.295 514.122 363.295 513.341C363.295 512.56 363.585 511.891 364.165 511.335C364.757 510.778 365.462 510.5 366.278 510.5C367.095 510.5 367.794 510.778 368.374 511.335C368.965 511.891 369.261 512.56 369.261 513.341C369.261 514.122 368.965 514.791 368.374 515.347C367.794 515.904 367.095 516.182 366.278 516.182ZM380.203 531.594V548H376.013V520.727H380.061V524.989H380.416C381.056 523.604 382.026 522.491 383.328 521.651C384.63 520.798 386.311 520.372 388.371 520.372C390.218 520.372 391.833 520.751 393.218 521.509C394.603 522.254 395.68 523.391 396.45 524.918C397.219 526.433 397.604 528.35 397.604 530.67V548H393.414V530.955C393.414 528.812 392.857 527.143 391.744 525.947C390.632 524.74 389.105 524.136 387.164 524.136C385.826 524.136 384.63 524.426 383.577 525.006C382.535 525.586 381.713 526.433 381.109 527.545C380.505 528.658 380.203 530.008 380.203 531.594ZM416.27 558.795C414.245 558.795 412.505 558.535 411.049 558.014C409.593 557.505 408.38 556.83 407.409 555.99C406.451 555.161 405.687 554.274 405.119 553.327L408.457 550.983C408.836 551.48 409.315 552.048 409.895 552.688C410.475 553.339 411.268 553.901 412.275 554.374C413.292 554.86 414.624 555.102 416.27 555.102C418.471 555.102 420.288 554.57 421.721 553.504C423.153 552.439 423.869 550.77 423.869 548.497V542.957H423.514C423.206 543.455 422.768 544.07 422.2 544.804C421.644 545.526 420.839 546.171 419.785 546.739C418.743 547.296 417.335 547.574 415.559 547.574C413.358 547.574 411.381 547.053 409.629 546.011C407.889 544.97 406.51 543.455 405.492 541.466C404.486 539.477 403.983 537.062 403.983 534.222C403.983 531.428 404.474 528.996 405.456 526.924C406.439 524.841 407.806 523.231 409.558 522.094C411.31 520.946 413.334 520.372 415.63 520.372C417.406 520.372 418.815 520.668 419.856 521.26C420.91 521.84 421.715 522.503 422.271 523.249C422.839 523.982 423.277 524.586 423.585 525.06H424.011V520.727H428.059V548.781C428.059 551.125 427.527 553.031 426.461 554.499C425.408 555.978 423.987 557.061 422.2 557.748C420.424 558.446 418.448 558.795 416.27 558.795ZM416.127 543.81C417.808 543.81 419.229 543.425 420.389 542.656C421.549 541.886 422.431 540.779 423.034 539.335C423.638 537.891 423.94 536.163 423.94 534.151C423.94 532.186 423.644 530.451 423.052 528.948C422.46 527.445 421.584 526.267 420.424 525.415C419.264 524.562 417.832 524.136 416.127 524.136C414.352 524.136 412.872 524.586 411.689 525.486C410.517 526.385 409.635 527.593 409.043 529.108C408.463 530.623 408.173 532.304 408.173 534.151C408.173 536.045 408.469 537.719 409.061 539.175C409.664 540.62 410.552 541.756 411.724 542.585C412.908 543.401 414.376 543.81 416.127 543.81ZM451.497 526.48V522.645H473.372V526.48H451.497ZM451.497 536.991V533.156H473.372V536.991H451.497ZM508.817 548.497C507.325 548.473 505.834 548.189 504.342 547.645C502.851 547.1 501.489 546.183 500.258 544.893C499.027 543.591 498.039 541.833 497.293 539.619C496.547 537.394 496.175 534.6 496.175 531.239C496.175 528.019 496.476 525.166 497.08 522.68C497.684 520.183 498.56 518.082 499.708 516.377C500.856 514.661 502.241 513.359 503.863 512.471C505.496 511.583 507.337 511.139 509.385 511.139C511.421 511.139 513.232 511.548 514.818 512.364C516.416 513.169 517.718 514.294 518.724 515.738C519.73 517.182 520.381 518.845 520.677 520.727H516.345C515.943 519.094 515.161 517.738 514.001 516.661C512.841 515.584 511.302 515.045 509.385 515.045C506.568 515.045 504.348 516.271 502.726 518.721C501.117 521.171 500.306 524.61 500.294 529.037H500.578C501.241 528.031 502.028 527.173 502.939 526.462C503.863 525.74 504.881 525.184 505.993 524.793C507.106 524.403 508.284 524.207 509.527 524.207C511.61 524.207 513.516 524.728 515.244 525.77C516.972 526.8 518.357 528.226 519.399 530.049C520.441 531.86 520.961 533.938 520.961 536.281C520.961 538.53 520.458 540.59 519.452 542.46C518.446 544.319 517.032 545.798 515.209 546.899C513.398 547.988 511.267 548.521 508.817 548.497ZM508.817 544.591C510.308 544.591 511.646 544.218 512.829 543.472C514.025 542.727 514.966 541.726 515.653 540.472C516.351 539.217 516.7 537.82 516.7 536.281C516.7 534.778 516.363 533.411 515.688 532.18C515.025 530.937 514.108 529.948 512.936 529.214C511.776 528.481 510.45 528.114 508.959 528.114C507.834 528.114 506.787 528.339 505.816 528.788C504.845 529.226 503.993 529.83 503.259 530.599C502.537 531.369 501.969 532.251 501.555 533.245C501.14 534.228 500.933 535.263 500.933 536.352C500.933 537.796 501.27 539.146 501.945 540.401C502.632 541.655 503.567 542.667 504.751 543.437C505.946 544.206 507.301 544.591 508.817 544.591ZM539.805 548.497C537.129 548.497 534.851 547.769 532.969 546.313C531.087 544.845 529.648 542.721 528.654 539.939C527.66 537.145 527.163 533.772 527.163 529.818C527.163 525.888 527.66 522.532 528.654 519.751C529.66 516.957 531.104 514.826 532.987 513.359C534.88 511.879 537.153 511.139 539.805 511.139C542.456 511.139 544.723 511.879 546.605 513.359C548.499 514.826 549.943 516.957 550.938 519.751C551.944 522.532 552.447 525.888 552.447 529.818C552.447 533.772 551.95 537.145 550.955 539.939C549.961 542.721 548.523 544.845 546.641 546.313C544.759 547.769 542.48 548.497 539.805 548.497ZM539.805 544.591C542.456 544.591 544.516 543.312 545.984 540.756C547.451 538.199 548.185 534.553 548.185 529.818C548.185 526.67 547.848 523.988 547.173 521.775C546.51 519.561 545.552 517.875 544.297 516.714C543.054 515.554 541.557 514.974 539.805 514.974C537.177 514.974 535.123 516.271 533.643 518.863C532.164 521.443 531.424 525.095 531.424 529.818C531.424 532.967 531.755 535.642 532.418 537.844C533.081 540.045 534.034 541.72 535.277 542.869C536.532 544.017 538.041 544.591 539.805 544.591ZM584.407 548.568C581.85 548.568 579.648 547.964 577.802 546.757C575.955 545.55 574.535 543.887 573.54 541.768C572.546 539.649 572.049 537.228 572.049 534.506C572.049 531.736 572.558 529.291 573.576 527.173C574.606 525.042 576.038 523.379 577.873 522.183C579.719 520.976 581.874 520.372 584.336 520.372C586.254 520.372 587.982 520.727 589.521 521.438C591.059 522.148 592.32 523.142 593.303 524.42C594.285 525.699 594.895 527.19 595.131 528.895H590.941C590.621 527.652 589.911 526.551 588.81 525.592C587.721 524.622 586.254 524.136 584.407 524.136C582.773 524.136 581.341 524.562 580.11 525.415C578.891 526.255 577.938 527.445 577.251 528.984C576.577 530.511 576.239 532.304 576.239 534.364C576.239 536.471 576.571 538.305 577.234 539.868C577.908 541.43 578.855 542.644 580.075 543.508C581.306 544.372 582.75 544.804 584.407 544.804C585.496 544.804 586.484 544.615 587.372 544.236C588.26 543.857 589.012 543.312 589.627 542.602C590.243 541.892 590.681 541.04 590.941 540.045H595.131C594.895 541.655 594.309 543.105 593.374 544.396C592.45 545.674 591.225 546.692 589.698 547.45C588.183 548.195 586.419 548.568 584.407 548.568ZM601.257 548V520.727H605.305V524.989H605.661C606.229 523.533 607.146 522.402 608.413 521.597C609.679 520.781 611.2 520.372 612.976 520.372C614.775 520.372 616.272 520.781 617.468 521.597C618.675 522.402 619.616 523.533 620.291 524.989H620.575C621.274 523.58 622.321 522.461 623.718 521.633C625.115 520.792 626.79 520.372 628.743 520.372C631.181 520.372 633.176 521.136 634.727 522.663C636.277 524.178 637.053 526.539 637.053 529.747V548H632.862V529.747C632.862 527.735 632.312 526.297 631.211 525.433C630.11 524.568 628.814 524.136 627.322 524.136C625.405 524.136 623.919 524.716 622.866 525.876C621.812 527.025 621.286 528.481 621.286 530.244V548H617.024V529.321C617.024 527.77 616.521 526.522 615.515 525.575C614.509 524.616 613.213 524.136 611.626 524.136C610.537 524.136 609.519 524.426 608.572 525.006C607.637 525.586 606.88 526.391 606.3 527.421C605.732 528.439 605.447 529.617 605.447 530.955V548H601.257Z" fill="white"/>
<path d="M436.341 400.139C437.832 400.151 439.324 400.435 440.815 400.991C442.307 401.548 443.668 402.471 444.899 403.761C446.13 405.04 447.119 406.786 447.864 408.999C448.61 411.213 448.983 413.989 448.983 417.327C448.983 420.558 448.675 423.429 448.06 425.938C447.456 428.436 446.58 430.543 445.432 432.259C444.295 433.976 442.911 435.278 441.277 436.165C439.655 437.053 437.821 437.497 435.773 437.497C433.737 437.497 431.92 437.095 430.322 436.29C428.736 435.473 427.433 434.343 426.415 432.898C425.409 431.442 424.764 429.756 424.48 427.838H428.812C429.203 429.507 429.978 430.886 431.138 431.975C432.31 433.052 433.855 433.591 435.773 433.591C438.578 433.591 440.792 432.366 442.413 429.915C444.047 427.465 444.864 424.003 444.864 419.528H444.58C443.917 420.523 443.129 421.381 442.218 422.103C441.307 422.825 440.295 423.381 439.182 423.772C438.069 424.163 436.885 424.358 435.631 424.358C433.547 424.358 431.636 423.843 429.896 422.813C428.167 421.772 426.782 420.345 425.741 418.534C424.711 416.711 424.196 414.628 424.196 412.284C424.196 410.059 424.693 408.023 425.688 406.176C426.694 404.318 428.102 402.838 429.913 401.737C431.736 400.636 433.879 400.104 436.341 400.139ZM436.341 404.045C434.849 404.045 433.506 404.418 432.31 405.164C431.127 405.898 430.186 406.892 429.487 408.147C428.801 409.39 428.457 410.769 428.457 412.284C428.457 413.799 428.789 415.178 429.452 416.421C430.126 417.652 431.044 418.635 432.204 419.369C433.376 420.091 434.707 420.452 436.199 420.452C437.323 420.452 438.371 420.233 439.342 419.795C440.312 419.345 441.159 418.735 441.881 417.966C442.615 417.185 443.189 416.303 443.603 415.32C444.017 414.326 444.224 413.29 444.224 412.213C444.224 410.793 443.881 409.461 443.195 408.218C442.52 406.975 441.585 405.969 440.389 405.2C439.205 404.43 437.856 404.045 436.341 404.045ZM481.178 437.568C478.622 437.568 476.42 436.964 474.573 435.757C472.727 434.55 471.306 432.887 470.312 430.768C469.318 428.649 468.82 426.228 468.82 423.506C468.82 420.736 469.329 418.291 470.347 416.173C471.377 414.042 472.81 412.379 474.644 411.183C476.491 409.976 478.645 409.372 481.107 409.372C483.025 409.372 484.753 409.727 486.292 410.438C487.831 411.148 489.092 412.142 490.074 413.42C491.057 414.699 491.666 416.19 491.903 417.895H487.713C487.393 416.652 486.683 415.551 485.582 414.592C484.493 413.622 483.025 413.136 481.178 413.136C479.545 413.136 478.113 413.562 476.882 414.415C475.662 415.255 474.709 416.445 474.023 417.984C473.348 419.511 473.011 421.304 473.011 423.364C473.011 425.471 473.342 427.305 474.005 428.868C474.68 430.43 475.627 431.644 476.846 432.508C478.077 433.372 479.521 433.804 481.178 433.804C482.267 433.804 483.256 433.615 484.144 433.236C485.031 432.857 485.783 432.312 486.399 431.602C487.014 430.892 487.452 430.04 487.713 429.045H491.903C491.666 430.655 491.08 432.105 490.145 433.396C489.222 434.674 487.997 435.692 486.47 436.45C484.954 437.195 483.191 437.568 481.178 437.568ZM498.029 437V409.727H502.077V413.989H502.432C503 412.533 503.918 411.402 505.184 410.597C506.451 409.781 507.972 409.372 509.747 409.372C511.547 409.372 513.044 409.781 514.24 410.597C515.447 411.402 516.388 412.533 517.063 413.989H517.347C518.045 412.58 519.093 411.461 520.49 410.633C521.886 409.792 523.561 409.372 525.514 409.372C527.953 409.372 529.947 410.136 531.498 411.663C533.049 413.178 533.824 415.539 533.824 418.747V437H529.634V418.747C529.634 416.735 529.083 415.297 527.982 414.433C526.882 413.568 525.585 413.136 524.094 413.136C522.176 413.136 520.691 413.716 519.637 414.876C518.584 416.025 518.057 417.481 518.057 419.244V437H513.796V418.321C513.796 416.77 513.293 415.522 512.286 414.575C511.28 413.616 509.984 413.136 508.398 413.136C507.309 413.136 506.291 413.426 505.344 414.006C504.409 414.586 503.651 415.391 503.071 416.421C502.503 417.439 502.219 418.617 502.219 419.955V437H498.029Z" fill="white"/>
</svg>
