<svg width="1375" height="480" viewBox="0 0 1375 480" fill="none" xmlns="http://www.w3.org/2000/svg">
<g clip-path="url(#clip0_110_385)">
<path d="M837.072 68L715.634 367H74.5508L201.312 68H837.072Z" fill="#5FD7FF" stroke="white" stroke-width="10"/>
<path d="M338.341 399.139C339.832 399.151 341.324 399.435 342.815 399.991C344.307 400.548 345.668 401.471 346.899 402.761C348.13 404.04 349.119 405.786 349.864 407.999C350.61 410.213 350.983 412.989 350.983 416.327C350.983 419.558 350.675 422.429 350.06 424.938C349.456 427.436 348.58 429.543 347.432 431.259C346.295 432.976 344.911 434.278 343.277 435.165C341.655 436.053 339.821 436.497 337.773 436.497C335.737 436.497 333.92 436.095 332.322 435.29C330.736 434.473 329.433 433.343 328.415 431.898C327.409 430.442 326.764 428.756 326.48 426.838H330.812C331.203 428.507 331.978 429.886 333.138 430.975C334.31 432.052 335.855 432.591 337.773 432.591C340.578 432.591 342.792 431.366 344.413 428.915C346.047 426.465 346.864 423.003 346.864 418.528H346.58C345.917 419.523 345.129 420.381 344.218 421.103C343.307 421.825 342.295 422.381 341.182 422.772C340.069 423.163 338.885 423.358 337.631 423.358C335.547 423.358 333.636 422.843 331.896 421.813C330.167 420.772 328.782 419.345 327.741 417.534C326.711 415.711 326.196 413.628 326.196 411.284C326.196 409.059 326.693 407.023 327.688 405.176C328.694 403.318 330.102 401.838 331.913 400.737C333.736 399.636 335.879 399.104 338.341 399.139ZM338.341 403.045C336.849 403.045 335.506 403.418 334.31 404.164C333.127 404.898 332.186 405.892 331.487 407.147C330.801 408.39 330.457 409.769 330.457 411.284C330.457 412.799 330.789 414.178 331.452 415.421C332.126 416.652 333.044 417.635 334.204 418.369C335.376 419.091 336.707 419.452 338.199 419.452C339.323 419.452 340.371 419.233 341.342 418.795C342.312 418.345 343.159 417.735 343.881 416.966C344.615 416.185 345.189 415.303 345.603 414.32C346.017 413.326 346.224 412.29 346.224 411.213C346.224 409.793 345.881 408.461 345.195 407.218C344.52 405.975 343.585 404.969 342.389 404.2C341.205 403.43 339.856 403.045 338.341 403.045ZM383.178 436.568C380.622 436.568 378.42 435.964 376.573 434.757C374.727 433.55 373.306 431.887 372.312 429.768C371.318 427.649 370.82 425.228 370.82 422.506C370.82 419.736 371.329 417.291 372.347 415.173C373.377 413.042 374.81 411.379 376.644 410.183C378.491 408.976 380.645 408.372 383.107 408.372C385.025 408.372 386.753 408.727 388.292 409.438C389.831 410.148 391.092 411.142 392.074 412.42C393.057 413.699 393.666 415.19 393.903 416.895H389.713C389.393 415.652 388.683 414.551 387.582 413.592C386.493 412.622 385.025 412.136 383.178 412.136C381.545 412.136 380.113 412.562 378.882 413.415C377.662 414.255 376.709 415.445 376.023 416.984C375.348 418.511 375.011 420.304 375.011 422.364C375.011 424.471 375.342 426.305 376.005 427.868C376.68 429.43 377.627 430.644 378.846 431.508C380.077 432.372 381.521 432.804 383.178 432.804C384.267 432.804 385.256 432.615 386.144 432.236C387.031 431.857 387.783 431.312 388.399 430.602C389.014 429.892 389.452 429.04 389.713 428.045H393.903C393.666 429.655 393.08 431.105 392.145 432.396C391.222 433.674 389.997 434.692 388.47 435.45C386.954 436.195 385.191 436.568 383.178 436.568ZM400.029 436V408.727H404.077V412.989H404.432C405 411.533 405.918 410.402 407.184 409.597C408.451 408.781 409.972 408.372 411.747 408.372C413.547 408.372 415.044 408.781 416.24 409.597C417.447 410.402 418.388 411.533 419.063 412.989H419.347C420.045 411.58 421.093 410.461 422.49 409.633C423.886 408.792 425.561 408.372 427.514 408.372C429.953 408.372 431.947 409.136 433.498 410.663C435.049 412.178 435.824 414.539 435.824 417.747V436H431.634V417.747C431.634 415.735 431.083 414.297 429.982 413.433C428.882 412.568 427.585 412.136 426.094 412.136C424.176 412.136 422.691 412.716 421.637 413.876C420.584 415.025 420.057 416.481 420.057 418.244V436H415.796V417.321C415.796 415.77 415.293 414.522 414.286 413.575C413.28 412.616 411.984 412.136 410.398 412.136C409.309 412.136 408.291 412.426 407.344 413.006C406.409 413.586 405.651 414.391 405.071 415.421C404.503 416.439 404.219 417.617 404.219 418.955V436H400.029Z" fill="white"/>
<path d="M0.764205 196V192.804L12.767 179.665C14.1757 178.126 15.3357 176.788 16.2472 175.652C17.1586 174.504 17.8333 173.427 18.2713 172.42C18.7211 171.402 18.946 170.337 18.946 169.224C18.946 167.946 18.6383 166.839 18.0227 165.904C17.419 164.969 16.5904 164.247 15.5369 163.738C14.4834 163.229 13.2997 162.974 11.9858 162.974C10.589 162.974 9.36979 163.264 8.32812 163.844C7.2983 164.413 6.49929 165.212 5.93111 166.241C5.37476 167.271 5.09659 168.479 5.09659 169.864H0.90625C0.90625 167.733 1.39749 165.863 2.37997 164.253C3.36245 162.643 4.70005 161.388 6.39276 160.489C8.0973 159.589 10.009 159.139 12.1278 159.139C14.2585 159.139 16.1465 159.589 17.7919 160.489C19.4373 161.388 20.7275 162.602 21.6626 164.129C22.5978 165.656 23.0653 167.354 23.0653 169.224C23.0653 170.562 22.8227 171.87 22.3374 173.148C21.8639 174.415 21.0353 175.83 19.8516 177.392C18.6797 178.943 17.0521 180.837 14.9688 183.074L6.80114 191.81V192.094H23.7045V196H0.764205ZM43.8217 159.636V196H39.4183V164.253H39.2053L30.3274 170.148V165.673L39.4183 159.636H43.8217ZM79.4929 196.568C76.9361 196.568 74.7344 195.964 72.8878 194.757C71.0412 193.55 69.6207 191.887 68.6264 189.768C67.6321 187.649 67.1349 185.228 67.1349 182.506C67.1349 179.736 67.6439 177.291 68.6619 175.173C69.6918 173.042 71.1241 171.379 72.9588 170.183C74.8054 168.976 76.9598 168.372 79.4219 168.372C81.3395 168.372 83.0677 168.727 84.6065 169.438C86.1454 170.148 87.406 171.142 88.3885 172.42C89.371 173.699 89.9806 175.19 90.2173 176.895H86.027C85.7074 175.652 84.9972 174.551 83.8963 173.592C82.8073 172.622 81.3395 172.136 79.4929 172.136C77.8594 172.136 76.4271 172.562 75.196 173.415C73.9768 174.255 73.0239 175.445 72.3374 176.984C71.6626 178.511 71.3253 180.304 71.3253 182.364C71.3253 184.471 71.6567 186.305 72.3196 187.868C72.9943 189.43 73.9413 190.644 75.1605 191.508C76.3916 192.372 77.8357 192.804 79.4929 192.804C80.5819 192.804 81.5703 192.615 82.4581 192.236C83.3459 191.857 84.0975 191.312 84.7131 190.602C85.3286 189.892 85.7666 189.04 86.027 188.045H90.2173C89.9806 189.655 89.3946 191.105 88.4595 192.396C87.5362 193.674 86.3111 194.692 84.7841 195.45C83.2689 196.195 81.5052 196.568 79.4929 196.568ZM96.343 196V168.727H100.391V172.989H100.746C101.315 171.533 102.232 170.402 103.499 169.597C104.765 168.781 106.286 168.372 108.062 168.372C109.861 168.372 111.358 168.781 112.554 169.597C113.761 170.402 114.702 171.533 115.377 172.989H115.661C116.36 171.58 117.407 170.461 118.804 169.633C120.201 168.792 121.876 168.372 123.829 168.372C126.267 168.372 128.262 169.136 129.812 170.663C131.363 172.178 132.138 174.539 132.138 177.747V196H127.948V177.747C127.948 175.735 127.398 174.297 126.297 173.433C125.196 172.568 123.9 172.136 122.408 172.136C120.491 172.136 119.005 172.716 117.952 173.876C116.898 175.025 116.371 176.481 116.371 178.244V196H112.11V177.321C112.11 175.77 111.607 174.522 110.601 173.575C109.595 172.616 108.299 172.136 106.712 172.136C105.623 172.136 104.605 172.426 103.658 173.006C102.723 173.586 101.966 174.391 101.386 175.421C100.817 176.439 100.533 177.617 100.533 178.955V196H96.343Z" fill="#24F0BF"/>
<path d="M23.8949 387H19.2784L32.6307 350.636H37.1761L50.5284 387H45.9119L35.0455 356.389H34.7614L23.8949 387ZM25.5994 372.795H44.2074V376.702H25.5994V372.795Z" fill="white"/>
<path d="M738.403 387V350.636H751.116C753.65 350.636 755.739 351.074 757.384 351.95C759.03 352.814 760.255 353.98 761.06 355.448C761.865 356.904 762.267 358.52 762.267 360.295C762.267 361.858 761.989 363.148 761.433 364.166C760.888 365.184 760.166 365.989 759.266 366.581C758.379 367.173 757.414 367.611 756.372 367.895V368.25C757.485 368.321 758.603 368.712 759.728 369.422C760.853 370.132 761.794 371.15 762.551 372.476C763.309 373.802 763.688 375.423 763.688 377.341C763.688 379.164 763.273 380.803 762.445 382.259C761.616 383.715 760.308 384.869 758.521 385.722C756.733 386.574 754.407 387 751.543 387H738.403ZM742.807 383.094H751.543C754.419 383.094 756.461 382.537 757.668 381.425C758.888 380.3 759.497 378.939 759.497 377.341C759.497 376.11 759.183 374.973 758.556 373.932C757.929 372.878 757.035 372.038 755.875 371.411C754.715 370.771 753.342 370.452 751.756 370.452H742.807V383.094ZM742.807 366.616H750.974C752.3 366.616 753.496 366.356 754.561 365.835C755.638 365.314 756.491 364.58 757.118 363.634C757.757 362.687 758.077 361.574 758.077 360.295C758.077 358.697 757.52 357.342 756.408 356.229C755.295 355.105 753.531 354.543 751.116 354.543H742.807V366.616Z" fill="white"/>
<path d="M890.665 56H886.261C886.001 54.7334 885.545 53.6207 884.894 52.6619C884.255 51.7031 883.474 50.8982 882.55 50.2472C881.639 49.5843 880.627 49.0871 879.514 48.7557C878.402 48.4242 877.241 48.2585 876.034 48.2585C873.832 48.2585 871.838 48.8149 870.05 49.9276C868.275 51.0402 866.86 52.6797 865.807 54.8459C864.765 57.0121 864.244 59.6695 864.244 62.8182C864.244 65.9669 864.765 68.6243 865.807 70.7905C866.86 72.9567 868.275 74.5961 870.05 75.7088C871.838 76.8215 873.832 77.3778 876.034 77.3778C877.241 77.3778 878.402 77.2121 879.514 76.8807C880.627 76.5492 881.639 76.058 882.55 75.407C883.474 74.7441 884.255 73.9332 884.894 72.9744C885.545 72.0038 886.001 70.8911 886.261 69.6364H890.665C890.333 71.4948 889.73 73.1579 888.854 74.6257C887.978 76.0935 886.889 77.3423 885.587 78.3722C884.285 79.3902 882.823 80.1655 881.201 80.6982C879.591 81.2308 877.869 81.4972 876.034 81.4972C872.933 81.4972 870.175 80.7396 867.76 79.2244C865.345 77.7093 863.445 75.5549 862.06 72.7614C860.675 69.9678 859.983 66.6534 859.983 62.8182C859.983 58.983 860.675 55.6686 862.06 52.875C863.445 50.0814 865.345 47.9271 867.76 46.4119C870.175 44.8968 872.933 44.1392 876.034 44.1392C877.869 44.1392 879.591 44.4055 881.201 44.9382C882.823 45.4709 884.285 46.2521 885.587 47.282C886.889 48.3 887.978 49.5428 888.854 51.0107C889.73 52.4666 890.333 54.1297 890.665 56Z" fill="white"/>
<path d="M164.625 81H153.403V44.6364H165.122C168.65 44.6364 171.668 45.3643 174.178 46.8203C176.687 48.2644 178.611 50.3419 179.948 53.0526C181.286 55.7514 181.955 58.983 181.955 62.7472C181.955 66.535 181.28 69.7962 179.93 72.5305C178.581 75.2531 176.616 77.3482 174.036 78.8161C171.455 80.272 168.318 81 164.625 81ZM157.807 77.0938H164.341C167.348 77.0938 169.839 76.5137 171.816 75.3537C173.793 74.1937 175.267 72.5424 176.237 70.3999C177.208 68.2573 177.693 65.7064 177.693 62.7472C177.693 59.8116 177.214 57.2843 176.255 55.1655C175.296 53.0348 173.864 51.4013 171.958 50.2649C170.052 49.1167 167.679 48.5426 164.838 48.5426H157.807V77.0938Z" fill="white"/>
<path d="M879.403 260V223.636H883.807V241.676H884.233L900.568 223.636H906.321L891.051 240.043L906.321 260H900.994L888.352 243.097L883.807 248.21V260H879.403ZM920.885 260.568C918.257 260.568 915.99 259.988 914.085 258.828C912.191 257.656 910.729 256.023 909.699 253.928C908.681 251.821 908.172 249.37 908.172 246.577C908.172 243.783 908.681 241.321 909.699 239.19C910.729 237.048 912.161 235.379 913.996 234.183C915.843 232.976 917.997 232.372 920.459 232.372C921.879 232.372 923.282 232.609 924.667 233.082C926.052 233.556 927.313 234.325 928.449 235.391C929.585 236.444 930.491 237.841 931.166 239.581C931.84 241.321 932.178 243.464 932.178 246.009V247.784H911.155V244.162H927.916C927.916 242.623 927.609 241.25 926.993 240.043C926.389 238.835 925.525 237.882 924.401 237.184C923.288 236.486 921.974 236.136 920.459 236.136C918.79 236.136 917.346 236.551 916.127 237.379C914.919 238.196 913.99 239.261 913.339 240.575C912.688 241.889 912.362 243.298 912.362 244.801V247.216C912.362 249.276 912.718 251.022 913.428 252.454C914.15 253.874 915.15 254.957 916.428 255.703C917.707 256.437 919.192 256.804 920.885 256.804C921.986 256.804 922.98 256.65 923.868 256.342C924.768 256.023 925.543 255.549 926.194 254.922C926.845 254.283 927.348 253.49 927.703 252.543L931.752 253.679C931.325 255.052 930.609 256.259 929.603 257.301C928.597 258.331 927.354 259.136 925.874 259.716C924.395 260.284 922.732 260.568 920.885 260.568ZM942.742 223.636V260H938.552V223.636H942.742ZM950.417 260V232.727H954.608V260H950.417ZM952.548 228.182C951.731 228.182 951.027 227.904 950.435 227.347C949.855 226.791 949.565 226.122 949.565 225.341C949.565 224.56 949.855 223.891 950.435 223.335C951.027 222.778 951.731 222.5 952.548 222.5C953.365 222.5 954.063 222.778 954.643 223.335C955.235 223.891 955.531 224.56 955.531 225.341C955.531 226.122 955.235 226.791 954.643 227.347C954.063 227.904 953.365 228.182 952.548 228.182ZM966.473 223.636V260H962.282V223.636H966.473ZM974.148 260V232.727H978.338V260H974.148ZM976.278 228.182C975.462 228.182 974.757 227.904 974.165 227.347C973.585 226.791 973.295 226.122 973.295 225.341C973.295 224.56 973.585 223.891 974.165 223.335C974.757 222.778 975.462 222.5 976.278 222.5C977.095 222.5 977.794 222.778 978.374 223.335C978.965 223.891 979.261 224.56 979.261 225.341C979.261 226.122 978.965 226.791 978.374 227.347C977.794 227.904 977.095 228.182 976.278 228.182ZM990.203 243.594V260H986.013V232.727H990.061V236.989H990.416C991.056 235.604 992.026 234.491 993.328 233.651C994.63 232.798 996.311 232.372 998.371 232.372C1000.22 232.372 1001.83 232.751 1003.22 233.509C1004.6 234.254 1005.68 235.391 1006.45 236.918C1007.22 238.433 1007.6 240.35 1007.6 242.67V260H1003.41V242.955C1003.41 240.812 1002.86 239.143 1001.74 237.947C1000.63 236.74 999.105 236.136 997.164 236.136C995.826 236.136 994.63 236.426 993.577 237.006C992.535 237.586 991.713 238.433 991.109 239.545C990.505 240.658 990.203 242.008 990.203 243.594ZM1026.27 270.795C1024.25 270.795 1022.51 270.535 1021.05 270.014C1019.59 269.505 1018.38 268.83 1017.41 267.99C1016.45 267.161 1015.69 266.274 1015.12 265.327L1018.46 262.983C1018.84 263.48 1019.32 264.048 1019.9 264.688C1020.48 265.339 1021.27 265.901 1022.27 266.374C1023.29 266.86 1024.62 267.102 1026.27 267.102C1028.47 267.102 1030.29 266.57 1031.72 265.504C1033.15 264.439 1033.87 262.77 1033.87 260.497V254.957H1033.51C1033.21 255.455 1032.77 256.07 1032.2 256.804C1031.64 257.526 1030.84 258.171 1029.79 258.739C1028.74 259.296 1027.33 259.574 1025.56 259.574C1023.36 259.574 1021.38 259.053 1019.63 258.011C1017.89 256.97 1016.51 255.455 1015.49 253.466C1014.49 251.477 1013.98 249.062 1013.98 246.222C1013.98 243.428 1014.47 240.996 1015.46 238.924C1016.44 236.841 1017.81 235.231 1019.56 234.094C1021.31 232.946 1023.33 232.372 1025.63 232.372C1027.41 232.372 1028.81 232.668 1029.86 233.26C1030.91 233.84 1031.71 234.503 1032.27 235.249C1032.84 235.982 1033.28 236.586 1033.58 237.06H1034.01V232.727H1038.06V260.781C1038.06 263.125 1037.53 265.031 1036.46 266.499C1035.41 267.978 1033.99 269.061 1032.2 269.748C1030.42 270.446 1028.45 270.795 1026.27 270.795ZM1026.13 255.81C1027.81 255.81 1029.23 255.425 1030.39 254.656C1031.55 253.886 1032.43 252.779 1033.03 251.335C1033.64 249.891 1033.94 248.163 1033.94 246.151C1033.94 244.186 1033.64 242.451 1033.05 240.948C1032.46 239.445 1031.58 238.267 1030.42 237.415C1029.26 236.562 1027.83 236.136 1026.13 236.136C1024.35 236.136 1022.87 236.586 1021.69 237.486C1020.52 238.385 1019.63 239.593 1019.04 241.108C1018.46 242.623 1018.17 244.304 1018.17 246.151C1018.17 248.045 1018.47 249.719 1019.06 251.175C1019.66 252.62 1020.55 253.756 1021.72 254.585C1022.91 255.401 1024.38 255.81 1026.13 255.81ZM1061.5 238.48V234.645H1083.37V238.48H1061.5ZM1061.5 248.991V245.156H1083.37V248.991H1061.5ZM1118.82 260.497C1117.33 260.473 1115.83 260.189 1114.34 259.645C1112.85 259.1 1111.49 258.183 1110.26 256.893C1109.03 255.591 1108.04 253.833 1107.29 251.619C1106.55 249.394 1106.17 246.6 1106.17 243.239C1106.17 240.019 1106.48 237.166 1107.08 234.68C1107.68 232.183 1108.56 230.082 1109.71 228.377C1110.86 226.661 1112.24 225.359 1113.86 224.471C1115.5 223.583 1117.34 223.139 1119.38 223.139C1121.42 223.139 1123.23 223.548 1124.82 224.364C1126.42 225.169 1127.72 226.294 1128.72 227.738C1129.73 229.182 1130.38 230.845 1130.68 232.727H1126.34C1125.94 231.094 1125.16 229.738 1124 228.661C1122.84 227.584 1121.3 227.045 1119.38 227.045C1116.57 227.045 1114.35 228.271 1112.73 230.721C1111.12 233.171 1110.31 236.61 1110.29 241.037H1110.58C1111.24 240.031 1112.03 239.173 1112.94 238.462C1113.86 237.74 1114.88 237.184 1115.99 236.793C1117.11 236.403 1118.28 236.207 1119.53 236.207C1121.61 236.207 1123.52 236.728 1125.24 237.77C1126.97 238.8 1128.36 240.226 1129.4 242.049C1130.44 243.86 1130.96 245.938 1130.96 248.281C1130.96 250.53 1130.46 252.59 1129.45 254.46C1128.45 256.319 1127.03 257.798 1125.21 258.899C1123.4 259.988 1121.27 260.521 1118.82 260.497ZM1118.82 256.591C1120.31 256.591 1121.65 256.218 1122.83 255.472C1124.02 254.727 1124.97 253.726 1125.65 252.472C1126.35 251.217 1126.7 249.82 1126.7 248.281C1126.7 246.778 1126.36 245.411 1125.69 244.18C1125.03 242.937 1124.11 241.948 1122.94 241.214C1121.78 240.481 1120.45 240.114 1118.96 240.114C1117.83 240.114 1116.79 240.339 1115.82 240.788C1114.85 241.226 1113.99 241.83 1113.26 242.599C1112.54 243.369 1111.97 244.251 1111.55 245.245C1111.14 246.228 1110.93 247.263 1110.93 248.352C1110.93 249.796 1111.27 251.146 1111.95 252.401C1112.63 253.655 1113.57 254.667 1114.75 255.437C1115.95 256.206 1117.3 256.591 1118.82 256.591ZM1149.8 260.497C1147.13 260.497 1144.85 259.769 1142.97 258.313C1141.09 256.845 1139.65 254.721 1138.65 251.939C1137.66 249.145 1137.16 245.772 1137.16 241.818C1137.16 237.888 1137.66 234.532 1138.65 231.751C1139.66 228.957 1141.1 226.826 1142.99 225.359C1144.88 223.879 1147.15 223.139 1149.8 223.139C1152.46 223.139 1154.72 223.879 1156.61 225.359C1158.5 226.826 1159.94 228.957 1160.94 231.751C1161.94 234.532 1162.45 237.888 1162.45 241.818C1162.45 245.772 1161.95 249.145 1160.96 251.939C1159.96 254.721 1158.52 256.845 1156.64 258.313C1154.76 259.769 1152.48 260.497 1149.8 260.497ZM1149.8 256.591C1152.46 256.591 1154.52 255.312 1155.98 252.756C1157.45 250.199 1158.19 246.553 1158.19 241.818C1158.19 238.67 1157.85 235.988 1157.17 233.775C1156.51 231.561 1155.55 229.875 1154.3 228.714C1153.05 227.554 1151.56 226.974 1149.8 226.974C1147.18 226.974 1145.12 228.271 1143.64 230.863C1142.16 233.443 1141.42 237.095 1141.42 241.818C1141.42 244.967 1141.76 247.642 1142.42 249.844C1143.08 252.045 1144.03 253.72 1145.28 254.869C1146.53 256.017 1148.04 256.591 1149.8 256.591ZM1194.41 260.568C1191.85 260.568 1189.65 259.964 1187.8 258.757C1185.96 257.55 1184.53 255.887 1183.54 253.768C1182.55 251.649 1182.05 249.228 1182.05 246.506C1182.05 243.736 1182.56 241.291 1183.58 239.173C1184.61 237.042 1186.04 235.379 1187.87 234.183C1189.72 232.976 1191.87 232.372 1194.34 232.372C1196.25 232.372 1197.98 232.727 1199.52 233.438C1201.06 234.148 1202.32 235.142 1203.3 236.42C1204.29 237.699 1204.89 239.19 1205.13 240.895H1200.94C1200.62 239.652 1199.91 238.551 1198.81 237.592C1197.72 236.622 1196.25 236.136 1194.41 236.136C1192.77 236.136 1191.34 236.562 1190.11 237.415C1188.89 238.255 1187.94 239.445 1187.25 240.984C1186.58 242.511 1186.24 244.304 1186.24 246.364C1186.24 248.471 1186.57 250.305 1187.23 251.868C1187.91 253.43 1188.86 254.644 1190.07 255.508C1191.31 256.372 1192.75 256.804 1194.41 256.804C1195.5 256.804 1196.48 256.615 1197.37 256.236C1198.26 255.857 1199.01 255.312 1199.63 254.602C1200.24 253.892 1200.68 253.04 1200.94 252.045H1205.13C1204.89 253.655 1204.31 255.105 1203.37 256.396C1202.45 257.674 1201.23 258.692 1199.7 259.45C1198.18 260.195 1196.42 260.568 1194.41 260.568ZM1211.26 260V232.727H1215.31V236.989H1215.66C1216.23 235.533 1217.15 234.402 1218.41 233.597C1219.68 232.781 1221.2 232.372 1222.98 232.372C1224.78 232.372 1226.27 232.781 1227.47 233.597C1228.68 234.402 1229.62 235.533 1230.29 236.989H1230.58C1231.27 235.58 1232.32 234.461 1233.72 233.633C1235.11 232.792 1236.79 232.372 1238.74 232.372C1241.18 232.372 1243.18 233.136 1244.73 234.663C1246.28 236.178 1247.05 238.539 1247.05 241.747V260H1242.86V241.747C1242.86 239.735 1242.31 238.297 1241.21 237.433C1240.11 236.568 1238.81 236.136 1237.32 236.136C1235.4 236.136 1233.92 236.716 1232.87 237.876C1231.81 239.025 1231.29 240.481 1231.29 242.244V260H1227.02V241.321C1227.02 239.77 1226.52 238.522 1225.51 237.575C1224.51 236.616 1223.21 236.136 1221.63 236.136C1220.54 236.136 1219.52 236.426 1218.57 237.006C1217.64 237.586 1216.88 238.391 1216.3 239.421C1215.73 240.439 1215.45 241.617 1215.45 242.955V260H1211.26Z" fill="white"/>
<line x1="75.8238" y1="364.132" x2="201.132" y2="69.1762" stroke="#24F0BF" stroke-width="12" stroke-linecap="round"/>
</g>
<defs>
<clipPath id="clip0_110_385">
<rect width="1375" height="480" fill="white"/>
</clipPath>
</defs>
</svg>
