<svg width="1375" height="480" viewBox="0 0 1375 480" fill="none" xmlns="http://www.w3.org/2000/svg">
<g clip-path="url(#clip0_82_247)">
<path d="M837.072 68L715.634 367H74.5508L201.312 68H837.072Z" fill="#5FD7FF" stroke="white" stroke-width="10"/>
<path d="M338.341 399.139C339.832 399.151 341.324 399.435 342.815 399.991C344.307 400.548 345.668 401.471 346.899 402.761C348.13 404.04 349.119 405.786 349.864 407.999C350.61 410.213 350.983 412.989 350.983 416.327C350.983 419.558 350.675 422.429 350.06 424.938C349.456 427.436 348.58 429.543 347.432 431.259C346.295 432.976 344.911 434.278 343.277 435.165C341.655 436.053 339.821 436.497 337.773 436.497C335.737 436.497 333.92 436.095 332.322 435.29C330.736 434.473 329.433 433.343 328.415 431.898C327.409 430.442 326.764 428.756 326.48 426.838H330.812C331.203 428.507 331.978 429.886 333.138 430.975C334.31 432.052 335.855 432.591 337.773 432.591C340.578 432.591 342.792 431.366 344.413 428.915C346.047 426.465 346.864 423.003 346.864 418.528H346.58C345.917 419.523 345.129 420.381 344.218 421.103C343.307 421.825 342.295 422.381 341.182 422.772C340.069 423.163 338.885 423.358 337.631 423.358C335.547 423.358 333.636 422.843 331.896 421.813C330.167 420.772 328.782 419.345 327.741 417.534C326.711 415.711 326.196 413.628 326.196 411.284C326.196 409.059 326.693 407.023 327.688 405.176C328.694 403.318 330.102 401.838 331.913 400.737C333.736 399.636 335.879 399.104 338.341 399.139ZM338.341 403.045C336.849 403.045 335.506 403.418 334.31 404.164C333.127 404.898 332.186 405.892 331.487 407.147C330.801 408.39 330.457 409.769 330.457 411.284C330.457 412.799 330.789 414.178 331.452 415.421C332.126 416.652 333.044 417.635 334.204 418.369C335.376 419.091 336.707 419.452 338.199 419.452C339.323 419.452 340.371 419.233 341.342 418.795C342.312 418.345 343.159 417.735 343.881 416.966C344.615 416.185 345.189 415.303 345.603 414.32C346.017 413.326 346.224 412.29 346.224 411.213C346.224 409.793 345.881 408.461 345.195 407.218C344.52 405.975 343.585 404.969 342.389 404.2C341.205 403.43 339.856 403.045 338.341 403.045ZM383.178 436.568C380.622 436.568 378.42 435.964 376.573 434.757C374.727 433.55 373.306 431.887 372.312 429.768C371.318 427.649 370.82 425.228 370.82 422.506C370.82 419.736 371.329 417.291 372.347 415.173C373.377 413.042 374.81 411.379 376.644 410.183C378.491 408.976 380.645 408.372 383.107 408.372C385.025 408.372 386.753 408.727 388.292 409.438C389.831 410.148 391.092 411.142 392.074 412.42C393.057 413.699 393.666 415.19 393.903 416.895H389.713C389.393 415.652 388.683 414.551 387.582 413.592C386.493 412.622 385.025 412.136 383.178 412.136C381.545 412.136 380.113 412.562 378.882 413.415C377.662 414.255 376.709 415.445 376.023 416.984C375.348 418.511 375.011 420.304 375.011 422.364C375.011 424.471 375.342 426.305 376.005 427.868C376.68 429.43 377.627 430.644 378.846 431.508C380.077 432.372 381.521 432.804 383.178 432.804C384.267 432.804 385.256 432.615 386.144 432.236C387.031 431.857 387.783 431.312 388.399 430.602C389.014 429.892 389.452 429.04 389.713 428.045H393.903C393.666 429.655 393.08 431.105 392.145 432.396C391.222 433.674 389.997 434.692 388.47 435.45C386.954 436.195 385.191 436.568 383.178 436.568ZM400.029 436V408.727H404.077V412.989H404.432C405 411.533 405.918 410.402 407.184 409.597C408.451 408.781 409.972 408.372 411.747 408.372C413.547 408.372 415.044 408.781 416.24 409.597C417.447 410.402 418.388 411.533 419.063 412.989H419.347C420.045 411.58 421.093 410.461 422.49 409.633C423.886 408.792 425.561 408.372 427.514 408.372C429.953 408.372 431.947 409.136 433.498 410.663C435.049 412.178 435.824 414.539 435.824 417.747V436H431.634V417.747C431.634 415.735 431.083 414.297 429.982 413.433C428.882 412.568 427.585 412.136 426.094 412.136C424.176 412.136 422.691 412.716 421.637 413.876C420.584 415.025 420.057 416.481 420.057 418.244V436H415.796V417.321C415.796 415.77 415.293 414.522 414.286 413.575C413.28 412.616 411.984 412.136 410.398 412.136C409.309 412.136 408.291 412.426 407.344 413.006C406.409 413.586 405.651 414.391 405.071 415.421C404.503 416.439 404.219 417.617 404.219 418.955V436H400.029Z" fill="white"/>
<path d="M0.764205 196V192.804L12.767 179.665C14.1757 178.126 15.3357 176.788 16.2472 175.652C17.1586 174.504 17.8333 173.427 18.2713 172.42C18.7211 171.402 18.946 170.337 18.946 169.224C18.946 167.946 18.6383 166.839 18.0227 165.904C17.419 164.969 16.5904 164.247 15.5369 163.738C14.4834 163.229 13.2997 162.974 11.9858 162.974C10.589 162.974 9.36979 163.264 8.32812 163.844C7.2983 164.413 6.49929 165.212 5.93111 166.241C5.37476 167.271 5.09659 168.479 5.09659 169.864H0.90625C0.90625 167.733 1.39749 165.863 2.37997 164.253C3.36245 162.643 4.70005 161.388 6.39276 160.489C8.0973 159.589 10.009 159.139 12.1278 159.139C14.2585 159.139 16.1465 159.589 17.7919 160.489C19.4373 161.388 20.7275 162.602 21.6626 164.129C22.5978 165.656 23.0653 167.354 23.0653 169.224C23.0653 170.562 22.8227 171.87 22.3374 173.148C21.8639 174.415 21.0353 175.83 19.8516 177.392C18.6797 178.943 17.0521 180.837 14.9688 183.074L6.80114 191.81V192.094H23.7045V196H0.764205ZM43.8217 159.636V196H39.4183V164.253H39.2053L30.3274 170.148V165.673L39.4183 159.636H43.8217ZM79.4929 196.568C76.9361 196.568 74.7344 195.964 72.8878 194.757C71.0412 193.55 69.6207 191.887 68.6264 189.768C67.6321 187.649 67.1349 185.228 67.1349 182.506C67.1349 179.736 67.6439 177.291 68.6619 175.173C69.6918 173.042 71.1241 171.379 72.9588 170.183C74.8054 168.976 76.9598 168.372 79.4219 168.372C81.3395 168.372 83.0677 168.727 84.6065 169.438C86.1454 170.148 87.406 171.142 88.3885 172.42C89.371 173.699 89.9806 175.19 90.2173 176.895H86.027C85.7074 175.652 84.9972 174.551 83.8963 173.592C82.8073 172.622 81.3395 172.136 79.4929 172.136C77.8594 172.136 76.4271 172.562 75.196 173.415C73.9768 174.255 73.0239 175.445 72.3374 176.984C71.6626 178.511 71.3253 180.304 71.3253 182.364C71.3253 184.471 71.6567 186.305 72.3196 187.868C72.9943 189.43 73.9413 190.644 75.1605 191.508C76.3916 192.372 77.8357 192.804 79.4929 192.804C80.5819 192.804 81.5703 192.615 82.4581 192.236C83.3459 191.857 84.0975 191.312 84.7131 190.602C85.3286 189.892 85.7666 189.04 86.027 188.045H90.2173C89.9806 189.655 89.3946 191.105 88.4595 192.396C87.5362 193.674 86.3111 194.692 84.7841 195.45C83.2689 196.195 81.5052 196.568 79.4929 196.568ZM96.343 196V168.727H100.391V172.989H100.746C101.315 171.533 102.232 170.402 103.499 169.597C104.765 168.781 106.286 168.372 108.062 168.372C109.861 168.372 111.358 168.781 112.554 169.597C113.761 170.402 114.702 171.533 115.377 172.989H115.661C116.36 171.58 117.407 170.461 118.804 169.633C120.201 168.792 121.876 168.372 123.829 168.372C126.267 168.372 128.262 169.136 129.812 170.663C131.363 172.178 132.138 174.539 132.138 177.747V196H127.948V177.747C127.948 175.735 127.398 174.297 126.297 173.433C125.196 172.568 123.9 172.136 122.408 172.136C120.491 172.136 119.005 172.716 117.952 173.876C116.898 175.025 116.371 176.481 116.371 178.244V196H112.11V177.321C112.11 175.77 111.607 174.522 110.601 173.575C109.595 172.616 108.299 172.136 106.712 172.136C105.623 172.136 104.605 172.426 103.658 173.006C102.723 173.586 101.966 174.391 101.386 175.421C100.817 176.439 100.533 177.617 100.533 178.955V196H96.343Z" fill="#24F0BF"/>
<path d="M23.8949 387H19.2784L32.6307 350.636H37.1761L50.5284 387H45.9119L35.0455 356.389H34.7614L23.8949 387ZM25.5994 372.795H44.2074V376.702H25.5994V372.795Z" fill="white"/>
<path d="M738.403 387V350.636H751.116C753.65 350.636 755.739 351.074 757.384 351.95C759.03 352.814 760.255 353.98 761.06 355.448C761.865 356.904 762.267 358.52 762.267 360.295C762.267 361.858 761.989 363.148 761.433 364.166C760.888 365.184 760.166 365.989 759.266 366.581C758.379 367.173 757.414 367.611 756.372 367.895V368.25C757.485 368.321 758.603 368.712 759.728 369.422C760.853 370.132 761.794 371.15 762.551 372.476C763.309 373.802 763.688 375.423 763.688 377.341C763.688 379.164 763.273 380.803 762.445 382.259C761.616 383.715 760.308 384.869 758.521 385.722C756.733 386.574 754.407 387 751.543 387H738.403ZM742.807 383.094H751.543C754.419 383.094 756.461 382.537 757.668 381.425C758.888 380.3 759.497 378.939 759.497 377.341C759.497 376.11 759.183 374.973 758.556 373.932C757.929 372.878 757.035 372.038 755.875 371.411C754.715 370.771 753.342 370.452 751.756 370.452H742.807V383.094ZM742.807 366.616H750.974C752.3 366.616 753.496 366.356 754.561 365.835C755.638 365.314 756.491 364.58 757.118 363.634C757.757 362.687 758.077 361.574 758.077 360.295C758.077 358.697 757.52 357.342 756.408 356.229C755.295 355.105 753.531 354.543 751.116 354.543H742.807V366.616Z" fill="white"/>
<path d="M890.665 56H886.261C886.001 54.7334 885.545 53.6207 884.894 52.6619C884.255 51.7031 883.474 50.8982 882.55 50.2472C881.639 49.5843 880.627 49.0871 879.514 48.7557C878.402 48.4242 877.241 48.2585 876.034 48.2585C873.832 48.2585 871.838 48.8149 870.05 49.9276C868.275 51.0402 866.86 52.6797 865.807 54.8459C864.765 57.0121 864.244 59.6695 864.244 62.8182C864.244 65.9669 864.765 68.6243 865.807 70.7905C866.86 72.9567 868.275 74.5961 870.05 75.7088C871.838 76.8215 873.832 77.3778 876.034 77.3778C877.241 77.3778 878.402 77.2121 879.514 76.8807C880.627 76.5492 881.639 76.058 882.55 75.407C883.474 74.7441 884.255 73.9332 884.894 72.9744C885.545 72.0038 886.001 70.8911 886.261 69.6364H890.665C890.333 71.4948 889.73 73.1579 888.854 74.6257C887.978 76.0935 886.889 77.3423 885.587 78.3722C884.285 79.3902 882.823 80.1655 881.201 80.6982C879.591 81.2308 877.869 81.4972 876.034 81.4972C872.933 81.4972 870.175 80.7396 867.76 79.2244C865.345 77.7093 863.445 75.5549 862.06 72.7614C860.675 69.9678 859.983 66.6534 859.983 62.8182C859.983 58.983 860.675 55.6686 862.06 52.875C863.445 50.0814 865.345 47.9271 867.76 46.4119C870.175 44.8968 872.933 44.1392 876.034 44.1392C877.869 44.1392 879.591 44.4055 881.201 44.9382C882.823 45.4709 884.285 46.2521 885.587 47.282C886.889 48.3 887.978 49.5428 888.854 51.0107C889.73 52.4666 890.333 54.1297 890.665 56Z" fill="white"/>
<path d="M164.625 81H153.403V44.6364H165.122C168.65 44.6364 171.668 45.3643 174.178 46.8203C176.687 48.2644 178.611 50.3419 179.948 53.0526C181.286 55.7514 181.955 58.983 181.955 62.7472C181.955 66.535 181.28 69.7962 179.93 72.5305C178.581 75.2531 176.616 77.3482 174.036 78.8161C171.455 80.272 168.318 81 164.625 81ZM157.807 77.0938H164.341C167.348 77.0938 169.839 76.5137 171.816 75.3537C173.793 74.1937 175.267 72.5424 176.237 70.3999C177.208 68.2573 177.693 65.7064 177.693 62.7472C177.693 59.8116 177.214 57.2843 176.255 55.1655C175.296 53.0348 173.864 51.4013 171.958 50.2649C170.052 49.1167 167.679 48.5426 164.838 48.5426H157.807V77.0938Z" fill="white"/>
<path d="M879.403 260V223.636H891.69C894.543 223.636 896.875 224.151 898.686 225.181C900.509 226.199 901.858 227.578 902.734 229.318C903.61 231.058 904.048 233 904.048 235.142C904.048 237.285 903.61 239.232 902.734 240.984C901.87 242.736 900.533 244.132 898.722 245.174C896.911 246.204 894.59 246.719 891.761 246.719H882.955V242.812H891.619C893.572 242.812 895.141 242.475 896.325 241.8C897.508 241.126 898.366 240.214 898.899 239.066C899.444 237.906 899.716 236.598 899.716 235.142C899.716 233.686 899.444 232.384 898.899 231.236C898.366 230.088 897.502 229.188 896.307 228.537C895.111 227.874 893.525 227.543 891.548 227.543H883.807V260H879.403ZM921.715 260.568C919.087 260.568 916.821 259.988 914.915 258.828C913.021 257.656 911.559 256.023 910.529 253.928C909.511 251.821 909.002 249.37 909.002 246.577C909.002 243.783 909.511 241.321 910.529 239.19C911.559 237.048 912.991 235.379 914.826 234.183C916.673 232.976 918.827 232.372 921.289 232.372C922.71 232.372 924.112 232.609 925.497 233.082C926.882 233.556 928.143 234.325 929.279 235.391C930.415 236.444 931.321 237.841 931.996 239.581C932.67 241.321 933.008 243.464 933.008 246.009V247.784H911.985V244.162H928.746C928.746 242.623 928.439 241.25 927.823 240.043C927.219 238.835 926.355 237.882 925.231 237.184C924.118 236.486 922.804 236.136 921.289 236.136C919.62 236.136 918.176 236.551 916.957 237.379C915.749 238.196 914.82 239.261 914.169 240.575C913.518 241.889 913.192 243.298 913.192 244.801V247.216C913.192 249.276 913.548 251.022 914.258 252.454C914.98 253.874 915.98 254.957 917.259 255.703C918.537 256.437 920.022 256.804 921.715 256.804C922.816 256.804 923.81 256.65 924.698 256.342C925.598 256.023 926.373 255.549 927.024 254.922C927.675 254.283 928.178 253.49 928.533 252.543L932.582 253.679C932.156 255.052 931.439 256.259 930.433 257.301C929.427 258.331 928.184 259.136 926.705 259.716C925.225 260.284 923.562 260.568 921.715 260.568ZM939.382 260V232.727H943.43V236.847H943.714C944.212 235.497 945.111 234.402 946.413 233.562C947.715 232.721 949.183 232.301 950.817 232.301C951.125 232.301 951.509 232.307 951.971 232.319C952.433 232.331 952.782 232.348 953.018 232.372V236.634C952.876 236.598 952.551 236.545 952.042 236.474C951.545 236.391 951.018 236.349 950.462 236.349C949.136 236.349 947.952 236.628 946.911 237.184C945.881 237.728 945.064 238.486 944.46 239.457C943.868 240.415 943.572 241.51 943.572 242.741V260H939.382ZM957.986 260V232.727H962.176V260H957.986ZM960.116 228.182C959.3 228.182 958.595 227.904 958.003 227.347C957.423 226.791 957.133 226.122 957.133 225.341C957.133 224.56 957.423 223.891 958.003 223.335C958.595 222.778 959.3 222.5 960.116 222.5C960.933 222.5 961.631 222.778 962.211 223.335C962.803 223.891 963.099 224.56 963.099 225.341C963.099 226.122 962.803 226.791 962.211 227.347C961.631 227.904 960.933 228.182 960.116 228.182ZM969.851 260V232.727H973.899V236.989H974.254C974.822 235.533 975.74 234.402 977.006 233.597C978.273 232.781 979.794 232.372 981.57 232.372C983.369 232.372 984.866 232.781 986.062 233.597C987.269 234.402 988.21 235.533 988.885 236.989H989.169C989.867 235.58 990.915 234.461 992.312 233.633C993.709 232.792 995.384 232.372 997.337 232.372C999.775 232.372 1001.77 233.136 1003.32 234.663C1004.87 236.178 1005.65 238.539 1005.65 241.747V260H1001.46V241.747C1001.46 239.735 1000.91 238.297 999.805 237.433C998.704 236.568 997.408 236.136 995.916 236.136C993.999 236.136 992.513 236.716 991.46 237.876C990.406 239.025 989.879 240.481 989.879 242.244V260H985.618V241.321C985.618 239.77 985.115 238.522 984.109 237.575C983.103 236.616 981.806 236.136 980.22 236.136C979.131 236.136 978.113 236.426 977.166 237.006C976.231 237.586 975.473 238.391 974.893 239.421C974.325 240.439 974.041 241.617 974.041 242.955V260H969.851ZM1024.74 260.568C1022.11 260.568 1019.85 259.988 1017.94 258.828C1016.05 257.656 1014.59 256.023 1013.56 253.928C1012.54 251.821 1012.03 249.37 1012.03 246.577C1012.03 243.783 1012.54 241.321 1013.56 239.19C1014.59 237.048 1016.02 235.379 1017.85 234.183C1019.7 232.976 1021.85 232.372 1024.32 232.372C1025.74 232.372 1027.14 232.609 1028.52 233.082C1029.91 233.556 1031.17 234.325 1032.31 235.391C1033.44 236.444 1034.35 237.841 1035.02 239.581C1035.7 241.321 1036.04 243.464 1036.04 246.009V247.784H1015.01V244.162H1031.77C1031.77 242.623 1031.47 241.25 1030.85 240.043C1030.25 238.835 1029.38 237.882 1028.26 237.184C1027.15 236.486 1025.83 236.136 1024.32 236.136C1022.65 236.136 1021.2 236.551 1019.98 237.379C1018.78 238.196 1017.85 239.261 1017.2 240.575C1016.55 241.889 1016.22 243.298 1016.22 244.801V247.216C1016.22 249.276 1016.57 251.022 1017.29 252.454C1018.01 253.874 1019.01 254.957 1020.29 255.703C1021.56 256.437 1023.05 256.804 1024.74 256.804C1025.84 256.804 1026.84 256.65 1027.73 256.342C1028.63 256.023 1029.4 255.549 1030.05 254.922C1030.7 254.283 1031.21 253.49 1031.56 252.543L1035.61 253.679C1035.18 255.052 1034.47 256.259 1033.46 257.301C1032.45 258.331 1031.21 259.136 1029.73 259.716C1028.25 260.284 1026.59 260.568 1024.74 260.568ZM1054.27 232.727V236.278H1040.14V232.727H1054.27ZM1044.26 226.193H1048.45V252.188C1048.45 253.371 1048.62 254.259 1048.96 254.851C1049.32 255.431 1049.77 255.821 1050.31 256.023C1050.87 256.212 1051.45 256.307 1052.07 256.307C1052.53 256.307 1052.91 256.283 1053.2 256.236C1053.5 256.177 1053.74 256.129 1053.92 256.094L1054.77 259.858C1054.48 259.964 1054.09 260.071 1053.58 260.178C1053.07 260.296 1052.42 260.355 1051.64 260.355C1050.46 260.355 1049.3 260.101 1048.16 259.592C1047.04 259.083 1046.1 258.307 1045.36 257.266C1044.62 256.224 1044.26 254.91 1044.26 253.324V226.193ZM1071.72 260.568C1069.09 260.568 1066.82 259.988 1064.91 258.828C1063.02 257.656 1061.56 256.023 1060.53 253.928C1059.51 251.821 1059 249.37 1059 246.577C1059 243.783 1059.51 241.321 1060.53 239.19C1061.56 237.048 1062.99 235.379 1064.83 234.183C1066.67 232.976 1068.83 232.372 1071.29 232.372C1072.71 232.372 1074.11 232.609 1075.5 233.082C1076.88 233.556 1078.14 234.325 1079.28 235.391C1080.42 236.444 1081.32 237.841 1082 239.581C1082.67 241.321 1083.01 243.464 1083.01 246.009V247.784H1061.99V244.162H1078.75C1078.75 242.623 1078.44 241.25 1077.82 240.043C1077.22 238.835 1076.36 237.882 1075.23 237.184C1074.12 236.486 1072.8 236.136 1071.29 236.136C1069.62 236.136 1068.18 236.551 1066.96 237.379C1065.75 238.196 1064.82 239.261 1064.17 240.575C1063.52 241.889 1063.19 243.298 1063.19 244.801V247.216C1063.19 249.276 1063.55 251.022 1064.26 252.454C1064.98 253.874 1065.98 254.957 1067.26 255.703C1068.54 256.437 1070.02 256.804 1071.72 256.804C1072.82 256.804 1073.81 256.65 1074.7 256.342C1075.6 256.023 1076.37 255.549 1077.02 254.922C1077.68 254.283 1078.18 253.49 1078.53 252.543L1082.58 253.679C1082.16 255.052 1081.44 256.259 1080.43 257.301C1079.43 258.331 1078.18 259.136 1076.7 259.716C1075.22 260.284 1073.56 260.568 1071.72 260.568ZM1089.38 260V232.727H1093.43V236.847H1093.71C1094.21 235.497 1095.11 234.402 1096.41 233.562C1097.72 232.721 1099.18 232.301 1100.82 232.301C1101.12 232.301 1101.51 232.307 1101.97 232.319C1102.43 232.331 1102.78 232.348 1103.02 232.372V236.634C1102.88 236.598 1102.55 236.545 1102.04 236.474C1101.54 236.391 1101.02 236.349 1100.46 236.349C1099.14 236.349 1097.95 236.628 1096.91 237.184C1095.88 237.728 1095.06 238.486 1094.46 239.457C1093.87 240.415 1093.57 241.51 1093.57 242.741V260H1089.38ZM1123.75 238.48V234.645H1145.63V238.48H1123.75ZM1123.75 248.991V245.156H1145.63V248.991H1123.75ZM1181.07 260.497C1179.58 260.473 1178.09 260.189 1176.6 259.645C1175.11 259.1 1173.75 258.183 1172.51 256.893C1171.28 255.591 1170.29 253.833 1169.55 251.619C1168.8 249.394 1168.43 246.6 1168.43 243.239C1168.43 240.019 1168.73 237.166 1169.34 234.68C1169.94 232.183 1170.82 230.082 1171.96 228.377C1173.11 226.661 1174.5 225.359 1176.12 224.471C1177.75 223.583 1179.59 223.139 1181.64 223.139C1183.68 223.139 1185.49 223.548 1187.07 224.364C1188.67 225.169 1189.97 226.294 1190.98 227.738C1191.99 229.182 1192.64 230.845 1192.93 232.727H1188.6C1188.2 231.094 1187.42 229.738 1186.26 228.661C1185.1 227.584 1183.56 227.045 1181.64 227.045C1178.82 227.045 1176.6 228.271 1174.98 230.721C1173.37 233.171 1172.56 236.61 1172.55 241.037H1172.83C1173.5 240.031 1174.28 239.173 1175.2 238.462C1176.12 237.74 1177.14 237.184 1178.25 236.793C1179.36 236.403 1180.54 236.207 1181.78 236.207C1183.87 236.207 1185.77 236.728 1187.5 237.77C1189.23 238.8 1190.61 240.226 1191.65 242.049C1192.7 243.86 1193.22 245.938 1193.22 248.281C1193.22 250.53 1192.71 252.59 1191.71 254.46C1190.7 256.319 1189.29 257.798 1187.46 258.899C1185.65 259.988 1183.52 260.521 1181.07 260.497ZM1181.07 256.591C1182.56 256.591 1183.9 256.218 1185.09 255.472C1186.28 254.727 1187.22 253.726 1187.91 252.472C1188.61 251.217 1188.96 249.82 1188.96 248.281C1188.96 246.778 1188.62 245.411 1187.94 244.18C1187.28 242.937 1186.36 241.948 1185.19 241.214C1184.03 240.481 1182.71 240.114 1181.21 240.114C1180.09 240.114 1179.04 240.339 1178.07 240.788C1177.1 241.226 1176.25 241.83 1175.51 242.599C1174.79 243.369 1174.22 244.251 1173.81 245.245C1173.4 246.228 1173.19 247.263 1173.19 248.352C1173.19 249.796 1173.53 251.146 1174.2 252.401C1174.89 253.655 1175.82 254.667 1177.01 255.437C1178.2 256.206 1179.56 256.591 1181.07 256.591ZM1212.06 260.497C1209.39 260.497 1207.11 259.769 1205.22 258.313C1203.34 256.845 1201.9 254.721 1200.91 251.939C1199.92 249.145 1199.42 245.772 1199.42 241.818C1199.42 237.888 1199.92 234.532 1200.91 231.751C1201.92 228.957 1203.36 226.826 1205.24 225.359C1207.14 223.879 1209.41 223.139 1212.06 223.139C1214.71 223.139 1216.98 223.879 1218.86 225.359C1220.75 226.826 1222.2 228.957 1223.19 231.751C1224.2 234.532 1224.7 237.888 1224.7 241.818C1224.7 245.772 1224.21 249.145 1223.21 251.939C1222.22 254.721 1220.78 256.845 1218.9 258.313C1217.01 259.769 1214.74 260.497 1212.06 260.497ZM1212.06 256.591C1214.71 256.591 1216.77 255.312 1218.24 252.756C1219.71 250.199 1220.44 246.553 1220.44 241.818C1220.44 238.67 1220.1 235.988 1219.43 233.775C1218.77 231.561 1217.81 229.875 1216.55 228.714C1215.31 227.554 1213.81 226.974 1212.06 226.974C1209.43 226.974 1207.38 228.271 1205.9 230.863C1204.42 233.443 1203.68 237.095 1203.68 241.818C1203.68 244.967 1204.01 247.642 1204.67 249.844C1205.34 252.045 1206.29 253.72 1207.53 254.869C1208.79 256.017 1210.3 256.591 1212.06 256.591ZM1256.66 260.568C1254.11 260.568 1251.9 259.964 1250.06 258.757C1248.21 257.55 1246.79 255.887 1245.8 253.768C1244.8 251.649 1244.3 249.228 1244.3 246.506C1244.3 243.736 1244.81 241.291 1245.83 239.173C1246.86 237.042 1248.29 235.379 1250.13 234.183C1251.98 232.976 1254.13 232.372 1256.59 232.372C1258.51 232.372 1260.24 232.727 1261.78 233.438C1263.32 234.148 1264.58 235.142 1265.56 236.42C1266.54 237.699 1267.15 239.19 1267.39 240.895H1263.2C1262.88 239.652 1262.17 238.551 1261.07 237.592C1259.98 236.622 1258.51 236.136 1256.66 236.136C1255.03 236.136 1253.6 236.562 1252.37 237.415C1251.15 238.255 1250.19 239.445 1249.51 240.984C1248.83 242.511 1248.5 244.304 1248.5 246.364C1248.5 248.471 1248.83 250.305 1249.49 251.868C1250.16 253.43 1251.11 254.644 1252.33 255.508C1253.56 256.372 1255.01 256.804 1256.66 256.804C1257.75 256.804 1258.74 256.615 1259.63 256.236C1260.52 255.857 1261.27 255.312 1261.88 254.602C1262.5 253.892 1262.94 253.04 1263.2 252.045H1267.39C1267.15 253.655 1266.56 255.105 1265.63 256.396C1264.71 257.674 1263.48 258.692 1261.95 259.45C1260.44 260.195 1258.68 260.568 1256.66 260.568ZM1273.51 260V232.727H1277.56V236.989H1277.92C1278.48 235.533 1279.4 234.402 1280.67 233.597C1281.94 232.781 1283.46 232.372 1285.23 232.372C1287.03 232.372 1288.53 232.781 1289.72 233.597C1290.93 234.402 1291.87 235.533 1292.55 236.989H1292.83C1293.53 235.58 1294.58 234.461 1295.97 233.633C1297.37 232.792 1299.05 232.372 1301 232.372C1303.44 232.372 1305.43 233.136 1306.98 234.663C1308.53 236.178 1309.31 238.539 1309.31 241.747V260H1305.12V241.747C1305.12 239.735 1304.57 238.297 1303.47 237.433C1302.37 236.568 1301.07 236.136 1299.58 236.136C1297.66 236.136 1296.18 236.716 1295.12 237.876C1294.07 239.025 1293.54 240.481 1293.54 242.244V260H1289.28V241.321C1289.28 239.77 1288.78 238.522 1287.77 237.575C1286.76 236.616 1285.47 236.136 1283.88 236.136C1282.79 236.136 1281.78 236.426 1280.83 237.006C1279.89 237.586 1279.14 238.391 1278.56 239.421C1277.99 240.439 1277.7 241.617 1277.7 242.955V260H1273.51Z" fill="white"/>
<line x1="75.8238" y1="364.132" x2="201.132" y2="69.1762" stroke="#24F0BF" stroke-width="12" stroke-linecap="round"/>
</g>
<defs>
<clipPath id="clip0_82_247">
<rect width="1375" height="480" fill="white"/>
</clipPath>
</defs>
</svg>
