<svg width="1035" height="591" viewBox="0 0 1035 591" fill="none" xmlns="http://www.w3.org/2000/svg">
<path d="M935.072 69L813.634 368H172.551L299.312 69H935.072Z" fill="#5FD7FF" stroke="white" stroke-width="10"/>
<path d="M436.341 400.139C437.832 400.151 439.324 400.435 440.815 400.991C442.307 401.548 443.668 402.471 444.899 403.761C446.13 405.04 447.119 406.786 447.864 408.999C448.61 411.213 448.983 413.989 448.983 417.327C448.983 420.558 448.675 423.429 448.06 425.938C447.456 428.436 446.58 430.543 445.432 432.259C444.295 433.976 442.911 435.278 441.277 436.165C439.655 437.053 437.821 437.497 435.773 437.497C433.737 437.497 431.92 437.095 430.322 436.29C428.736 435.473 427.433 434.343 426.415 432.898C425.409 431.442 424.764 429.756 424.48 427.838H428.812C429.203 429.507 429.978 430.886 431.138 431.975C432.31 433.052 433.855 433.591 435.773 433.591C438.578 433.591 440.792 432.366 442.413 429.915C444.047 427.465 444.864 424.003 444.864 419.528H444.58C443.917 420.523 443.129 421.381 442.218 422.103C441.307 422.825 440.295 423.381 439.182 423.772C438.069 424.163 436.885 424.358 435.631 424.358C433.547 424.358 431.636 423.843 429.896 422.813C428.167 421.772 426.782 420.345 425.741 418.534C424.711 416.711 424.196 414.628 424.196 412.284C424.196 410.059 424.693 408.023 425.688 406.176C426.694 404.318 428.102 402.838 429.913 401.737C431.736 400.636 433.879 400.104 436.341 400.139ZM436.341 404.045C434.849 404.045 433.506 404.418 432.31 405.164C431.127 405.898 430.186 406.892 429.487 408.147C428.801 409.39 428.457 410.769 428.457 412.284C428.457 413.799 428.789 415.178 429.452 416.421C430.126 417.652 431.044 418.635 432.204 419.369C433.376 420.091 434.707 420.452 436.199 420.452C437.323 420.452 438.371 420.233 439.342 419.795C440.312 419.345 441.159 418.735 441.881 417.966C442.615 417.185 443.189 416.303 443.603 415.32C444.017 414.326 444.224 413.29 444.224 412.213C444.224 410.793 443.881 409.461 443.195 408.218C442.52 406.975 441.585 405.969 440.389 405.2C439.205 404.43 437.856 404.045 436.341 404.045ZM481.178 437.568C478.622 437.568 476.42 436.964 474.573 435.757C472.727 434.55 471.306 432.887 470.312 430.768C469.318 428.649 468.82 426.228 468.82 423.506C468.82 420.736 469.329 418.291 470.347 416.173C471.377 414.042 472.81 412.379 474.644 411.183C476.491 409.976 478.645 409.372 481.107 409.372C483.025 409.372 484.753 409.727 486.292 410.438C487.831 411.148 489.092 412.142 490.074 413.42C491.057 414.699 491.666 416.19 491.903 417.895H487.713C487.393 416.652 486.683 415.551 485.582 414.592C484.493 413.622 483.025 413.136 481.178 413.136C479.545 413.136 478.113 413.562 476.882 414.415C475.662 415.255 474.709 416.445 474.023 417.984C473.348 419.511 473.011 421.304 473.011 423.364C473.011 425.471 473.342 427.305 474.005 428.868C474.68 430.43 475.627 431.644 476.846 432.508C478.077 433.372 479.521 433.804 481.178 433.804C482.267 433.804 483.256 433.615 484.144 433.236C485.031 432.857 485.783 432.312 486.399 431.602C487.014 430.892 487.452 430.04 487.713 429.045H491.903C491.666 430.655 491.08 432.105 490.145 433.396C489.222 434.674 487.997 435.692 486.47 436.45C484.954 437.195 483.191 437.568 481.178 437.568ZM498.029 437V409.727H502.077V413.989H502.432C503 412.533 503.918 411.402 505.184 410.597C506.451 409.781 507.972 409.372 509.747 409.372C511.547 409.372 513.044 409.781 514.24 410.597C515.447 411.402 516.388 412.533 517.063 413.989H517.347C518.045 412.58 519.093 411.461 520.49 410.633C521.886 409.792 523.561 409.372 525.514 409.372C527.953 409.372 529.947 410.136 531.498 411.663C533.049 413.178 533.824 415.539 533.824 418.747V437H529.634V418.747C529.634 416.735 529.083 415.297 527.982 414.433C526.882 413.568 525.585 413.136 524.094 413.136C522.176 413.136 520.691 413.716 519.637 414.876C518.584 416.025 518.057 417.481 518.057 419.244V437H513.796V418.321C513.796 416.77 513.293 415.522 512.286 414.575C511.28 413.616 509.984 413.136 508.398 413.136C507.309 413.136 506.291 413.426 505.344 414.006C504.409 414.586 503.651 415.391 503.071 416.421C502.503 417.439 502.219 418.617 502.219 419.955V437H498.029Z" fill="#F8B32A"/>
<path d="M209.304 196.773V196.56C209.328 194.299 209.564 192.5 210.014 191.162C210.464 189.824 211.103 188.741 211.932 187.913C212.76 187.084 213.755 186.321 214.915 185.622C215.613 185.196 216.241 184.693 216.797 184.113C217.353 183.521 217.791 182.84 218.111 182.071C218.442 181.302 218.608 180.449 218.608 179.514C218.608 178.354 218.336 177.348 217.791 176.496C217.247 175.643 216.519 174.987 215.607 174.525C214.696 174.063 213.684 173.832 212.571 173.832C211.6 173.832 210.665 174.034 209.766 174.436C208.866 174.839 208.114 175.472 207.511 176.336C206.907 177.2 206.558 178.33 206.463 179.727H201.989C202.083 177.715 202.604 175.993 203.551 174.56C204.51 173.128 205.771 172.033 207.333 171.276C208.907 170.518 210.653 170.139 212.571 170.139C214.654 170.139 216.465 170.554 218.004 171.382C219.555 172.211 220.75 173.347 221.591 174.791C222.443 176.235 222.869 177.881 222.869 179.727C222.869 181.029 222.668 182.207 222.266 183.261C221.875 184.314 221.307 185.255 220.561 186.084C219.827 186.912 218.939 187.646 217.898 188.286C216.856 188.937 216.022 189.623 215.394 190.345C214.767 191.055 214.311 191.902 214.027 192.884C213.743 193.867 213.589 195.092 213.565 196.56V196.773H209.304ZM211.577 207.284C210.701 207.284 209.949 206.97 209.322 206.343C208.694 205.716 208.381 204.964 208.381 204.088C208.381 203.212 208.694 202.46 209.322 201.833C209.949 201.206 210.701 200.892 211.577 200.892C212.453 200.892 213.204 201.206 213.832 201.833C214.459 202.46 214.773 203.212 214.773 204.088C214.773 204.668 214.625 205.201 214.329 205.686C214.045 206.171 213.66 206.562 213.175 206.858C212.701 207.142 212.169 207.284 211.577 207.284Z" fill="white"/>
<path d="M121.895 388H117.278L130.631 351.636H135.176L148.528 388H143.912L133.045 357.389H132.761L121.895 388ZM123.599 373.795H142.207V377.702H123.599V373.795Z" fill="white"/>
<path d="M836.403 388V351.636H849.116C851.65 351.636 853.739 352.074 855.384 352.95C857.03 353.814 858.255 354.98 859.06 356.448C859.865 357.904 860.267 359.52 860.267 361.295C860.267 362.858 859.989 364.148 859.433 365.166C858.888 366.184 858.166 366.989 857.266 367.581C856.379 368.173 855.414 368.611 854.372 368.895V369.25C855.485 369.321 856.603 369.712 857.728 370.422C858.853 371.132 859.794 372.15 860.551 373.476C861.309 374.802 861.688 376.423 861.688 378.341C861.688 380.164 861.273 381.803 860.445 383.259C859.616 384.715 858.308 385.869 856.521 386.722C854.733 387.574 852.407 388 849.543 388H836.403ZM840.807 384.094H849.543C852.419 384.094 854.461 383.537 855.668 382.425C856.888 381.3 857.497 379.939 857.497 378.341C857.497 377.11 857.183 375.973 856.556 374.932C855.929 373.878 855.035 373.038 853.875 372.411C852.715 371.771 851.342 371.452 849.756 371.452H840.807V384.094ZM840.807 367.616H848.974C850.3 367.616 851.496 367.356 852.561 366.835C853.638 366.314 854.491 365.58 855.118 364.634C855.757 363.687 856.077 362.574 856.077 361.295C856.077 359.697 855.52 358.342 854.408 357.229C853.295 356.105 851.531 355.543 849.116 355.543H840.807V367.616Z" fill="white"/>
<path d="M988.665 57H984.261C984.001 55.7334 983.545 54.6207 982.894 53.6619C982.255 52.7031 981.474 51.8982 980.55 51.2472C979.639 50.5843 978.627 50.0871 977.514 49.7557C976.402 49.4242 975.241 49.2585 974.034 49.2585C971.832 49.2585 969.838 49.8149 968.05 50.9276C966.275 52.0402 964.86 53.6797 963.807 55.8459C962.765 58.0121 962.244 60.6695 962.244 63.8182C962.244 66.9669 962.765 69.6243 963.807 71.7905C964.86 73.9567 966.275 75.5961 968.05 76.7088C969.838 77.8215 971.832 78.3778 974.034 78.3778C975.241 78.3778 976.402 78.2121 977.514 77.8807C978.627 77.5492 979.639 77.058 980.55 76.407C981.474 75.7441 982.255 74.9332 982.894 73.9744C983.545 73.0038 984.001 71.8911 984.261 70.6364H988.665C988.333 72.4948 987.73 74.1579 986.854 75.6257C985.978 77.0935 984.889 78.3423 983.587 79.3722C982.285 80.3902 980.823 81.1655 979.201 81.6982C977.591 82.2308 975.869 82.4972 974.034 82.4972C970.933 82.4972 968.175 81.7396 965.76 80.2244C963.345 78.7093 961.445 76.5549 960.06 73.7614C958.675 70.9678 957.983 67.6534 957.983 63.8182C957.983 59.983 958.675 56.6686 960.06 53.875C961.445 51.0814 963.345 48.9271 965.76 47.4119C968.175 45.8968 970.933 45.1392 974.034 45.1392C975.869 45.1392 977.591 45.4055 979.201 45.9382C980.823 46.4709 982.285 47.2521 983.587 48.282C984.889 49.3 985.978 50.5428 986.854 52.0107C987.73 53.4666 988.333 55.1297 988.665 57Z" fill="white"/>
<path d="M262.625 82H251.403V45.6364H263.122C266.65 45.6364 269.668 46.3643 272.178 47.8203C274.687 49.2644 276.611 51.3419 277.948 54.0526C279.286 56.7514 279.955 59.983 279.955 63.7472C279.955 67.535 279.28 70.7962 277.93 73.5305C276.581 76.2531 274.616 78.3482 272.036 79.8161C269.455 81.272 266.318 82 262.625 82ZM255.807 78.0938H262.341C265.348 78.0938 267.839 77.5137 269.816 76.3537C271.793 75.1937 273.267 73.5424 274.237 71.3999C275.208 69.2573 275.693 66.7064 275.693 63.7472C275.693 60.8116 275.214 58.2843 274.255 56.1655C273.296 54.0348 271.864 52.4013 269.958 51.2649C268.052 50.1167 265.679 49.5426 262.838 49.5426H255.807V78.0938Z" fill="white"/>
<path d="M269.403 548V511.636H281.69C284.543 511.636 286.875 512.151 288.686 513.181C290.509 514.199 291.858 515.578 292.734 517.318C293.61 519.058 294.048 521 294.048 523.142C294.048 525.285 293.61 527.232 292.734 528.984C291.87 530.736 290.533 532.132 288.722 533.174C286.911 534.204 284.59 534.719 281.761 534.719H272.955V530.812H281.619C283.572 530.812 285.141 530.475 286.325 529.8C287.508 529.126 288.366 528.214 288.899 527.066C289.444 525.906 289.716 524.598 289.716 523.142C289.716 521.686 289.444 520.384 288.899 519.236C288.366 518.088 287.502 517.188 286.307 516.537C285.111 515.874 283.525 515.543 281.548 515.543H273.807V548H269.403ZM311.715 548.568C309.087 548.568 306.821 547.988 304.915 546.828C303.021 545.656 301.559 544.023 300.529 541.928C299.511 539.821 299.002 537.37 299.002 534.577C299.002 531.783 299.511 529.321 300.529 527.19C301.559 525.048 302.991 523.379 304.826 522.183C306.673 520.976 308.827 520.372 311.289 520.372C312.71 520.372 314.112 520.609 315.497 521.082C316.882 521.556 318.143 522.325 319.279 523.391C320.415 524.444 321.321 525.841 321.996 527.581C322.67 529.321 323.008 531.464 323.008 534.009V535.784H301.985V532.162H318.746C318.746 530.623 318.439 529.25 317.823 528.043C317.219 526.835 316.355 525.882 315.231 525.184C314.118 524.486 312.804 524.136 311.289 524.136C309.62 524.136 308.176 524.551 306.957 525.379C305.749 526.196 304.82 527.261 304.169 528.575C303.518 529.889 303.192 531.298 303.192 532.801V535.216C303.192 537.276 303.548 539.022 304.258 540.454C304.98 541.874 305.98 542.957 307.259 543.703C308.537 544.437 310.022 544.804 311.715 544.804C312.816 544.804 313.81 544.65 314.698 544.342C315.598 544.023 316.373 543.549 317.024 542.922C317.675 542.283 318.178 541.49 318.533 540.543L322.582 541.679C322.156 543.052 321.439 544.259 320.433 545.301C319.427 546.331 318.184 547.136 316.705 547.716C315.225 548.284 313.562 548.568 311.715 548.568ZM329.382 548V520.727H333.43V524.847H333.714C334.212 523.497 335.111 522.402 336.413 521.562C337.715 520.721 339.183 520.301 340.817 520.301C341.125 520.301 341.509 520.307 341.971 520.319C342.433 520.331 342.782 520.348 343.018 520.372V524.634C342.876 524.598 342.551 524.545 342.042 524.474C341.545 524.391 341.018 524.349 340.462 524.349C339.136 524.349 337.952 524.628 336.911 525.184C335.881 525.728 335.064 526.486 334.46 527.457C333.868 528.415 333.572 529.51 333.572 530.741V548H329.382ZM347.986 548V520.727H352.176V548H347.986ZM350.116 516.182C349.3 516.182 348.595 515.904 348.003 515.347C347.423 514.791 347.133 514.122 347.133 513.341C347.133 512.56 347.423 511.891 348.003 511.335C348.595 510.778 349.3 510.5 350.116 510.5C350.933 510.5 351.631 510.778 352.211 511.335C352.803 511.891 353.099 512.56 353.099 513.341C353.099 514.122 352.803 514.791 352.211 515.347C351.631 515.904 350.933 516.182 350.116 516.182ZM359.851 548V520.727H363.899V524.989H364.254C364.822 523.533 365.74 522.402 367.006 521.597C368.273 520.781 369.794 520.372 371.57 520.372C373.369 520.372 374.866 520.781 376.062 521.597C377.269 522.402 378.21 523.533 378.885 524.989H379.169C379.867 523.58 380.915 522.461 382.312 521.633C383.709 520.792 385.384 520.372 387.337 520.372C389.775 520.372 391.77 521.136 393.32 522.663C394.871 524.178 395.646 526.539 395.646 529.747V548H391.456V529.747C391.456 527.735 390.906 526.297 389.805 525.433C388.704 524.568 387.408 524.136 385.916 524.136C383.999 524.136 382.513 524.716 381.46 525.876C380.406 527.025 379.879 528.481 379.879 530.244V548H375.618V529.321C375.618 527.77 375.115 526.522 374.109 525.575C373.103 524.616 371.806 524.136 370.22 524.136C369.131 524.136 368.113 524.426 367.166 525.006C366.231 525.586 365.473 526.391 364.893 527.421C364.325 528.439 364.041 529.617 364.041 530.955V548H359.851ZM414.743 548.568C412.115 548.568 409.848 547.988 407.942 546.828C406.048 545.656 404.586 544.023 403.556 541.928C402.538 539.821 402.029 537.37 402.029 534.577C402.029 531.783 402.538 529.321 403.556 527.19C404.586 525.048 406.019 523.379 407.853 522.183C409.7 520.976 411.854 520.372 414.316 520.372C415.737 520.372 417.14 520.609 418.525 521.082C419.909 521.556 421.17 522.325 422.306 523.391C423.443 524.444 424.348 525.841 425.023 527.581C425.698 529.321 426.035 531.464 426.035 534.009V535.784H405.012V532.162H421.774C421.774 530.623 421.466 529.25 420.85 528.043C420.247 526.835 419.383 525.882 418.258 525.184C417.145 524.486 415.832 524.136 414.316 524.136C412.647 524.136 411.203 524.551 409.984 525.379C408.777 526.196 407.847 527.261 407.196 528.575C406.545 529.889 406.22 531.298 406.22 532.801V535.216C406.22 537.276 406.575 539.022 407.285 540.454C408.007 541.874 409.007 542.957 410.286 543.703C411.564 544.437 413.05 544.804 414.743 544.804C415.843 544.804 416.838 544.65 417.725 544.342C418.625 544.023 419.4 543.549 420.051 542.922C420.703 542.283 421.206 541.49 421.561 540.543L425.609 541.679C425.183 543.052 424.467 544.259 423.461 545.301C422.454 546.331 421.212 547.136 419.732 547.716C418.252 548.284 416.589 548.568 414.743 548.568ZM444.27 520.727V524.278H430.137V520.727H444.27ZM434.256 514.193H438.446V540.188C438.446 541.371 438.618 542.259 438.961 542.851C439.316 543.431 439.766 543.821 440.311 544.023C440.867 544.212 441.453 544.307 442.069 544.307C442.53 544.307 442.909 544.283 443.205 544.236C443.501 544.177 443.738 544.129 443.915 544.094L444.767 547.858C444.483 547.964 444.087 548.071 443.578 548.178C443.069 548.296 442.424 548.355 441.642 548.355C440.459 548.355 439.299 548.101 438.162 547.592C437.038 547.083 436.103 546.307 435.357 545.266C434.623 544.224 434.256 542.91 434.256 541.324V514.193ZM461.715 548.568C459.087 548.568 456.821 547.988 454.915 546.828C453.021 545.656 451.559 544.023 450.529 541.928C449.511 539.821 449.002 537.37 449.002 534.577C449.002 531.783 449.511 529.321 450.529 527.19C451.559 525.048 452.991 523.379 454.826 522.183C456.673 520.976 458.827 520.372 461.289 520.372C462.71 520.372 464.112 520.609 465.497 521.082C466.882 521.556 468.143 522.325 469.279 523.391C470.415 524.444 471.321 525.841 471.996 527.581C472.67 529.321 473.008 531.464 473.008 534.009V535.784H451.985V532.162H468.746C468.746 530.623 468.439 529.25 467.823 528.043C467.219 526.835 466.355 525.882 465.231 525.184C464.118 524.486 462.804 524.136 461.289 524.136C459.62 524.136 458.176 524.551 456.957 525.379C455.749 526.196 454.82 527.261 454.169 528.575C453.518 529.889 453.192 531.298 453.192 532.801V535.216C453.192 537.276 453.548 539.022 454.258 540.454C454.98 541.874 455.98 542.957 457.259 543.703C458.537 544.437 460.022 544.804 461.715 544.804C462.816 544.804 463.81 544.65 464.698 544.342C465.598 544.023 466.373 543.549 467.024 542.922C467.675 542.283 468.178 541.49 468.533 540.543L472.582 541.679C472.156 543.052 471.439 544.259 470.433 545.301C469.427 546.331 468.184 547.136 466.705 547.716C465.225 548.284 463.562 548.568 461.715 548.568ZM479.382 548V520.727H483.43V524.847H483.714C484.212 523.497 485.111 522.402 486.413 521.562C487.715 520.721 489.183 520.301 490.817 520.301C491.125 520.301 491.509 520.307 491.971 520.319C492.433 520.331 492.782 520.348 493.018 520.372V524.634C492.876 524.598 492.551 524.545 492.042 524.474C491.545 524.391 491.018 524.349 490.462 524.349C489.136 524.349 487.952 524.628 486.911 525.184C485.881 525.728 485.064 526.486 484.46 527.457C483.868 528.415 483.572 529.51 483.572 530.741V548H479.382ZM513.753 526.48V522.645H535.628V526.48H513.753ZM513.753 536.991V533.156H535.628V536.991H513.753ZM571.072 548.497C569.581 548.473 568.089 548.189 566.598 547.645C565.107 547.1 563.745 546.183 562.514 544.893C561.283 543.591 560.295 541.833 559.549 539.619C558.803 537.394 558.43 534.6 558.43 531.239C558.43 528.019 558.732 525.166 559.336 522.68C559.94 520.183 560.816 518.082 561.964 516.377C563.112 514.661 564.497 513.359 566.119 512.471C567.752 511.583 569.593 511.139 571.641 511.139C573.677 511.139 575.488 511.548 577.074 512.364C578.672 513.169 579.974 514.294 580.98 515.738C581.986 517.182 582.637 518.845 582.933 520.727H578.601C578.198 519.094 577.417 517.738 576.257 516.661C575.097 515.584 573.558 515.045 571.641 515.045C568.823 515.045 566.604 516.271 564.982 518.721C563.372 521.171 562.562 524.61 562.55 529.037H562.834C563.497 528.031 564.284 527.173 565.195 526.462C566.119 525.74 567.137 525.184 568.249 524.793C569.362 524.403 570.54 524.207 571.783 524.207C573.866 524.207 575.772 524.728 577.5 525.77C579.228 526.8 580.613 528.226 581.655 530.049C582.696 531.86 583.217 533.938 583.217 536.281C583.217 538.53 582.714 540.59 581.708 542.46C580.702 544.319 579.287 545.798 577.464 546.899C575.653 547.988 573.523 548.521 571.072 548.497ZM571.072 544.591C572.564 544.591 573.902 544.218 575.085 543.472C576.281 542.727 577.222 541.726 577.908 540.472C578.607 539.217 578.956 537.82 578.956 536.281C578.956 534.778 578.619 533.411 577.944 532.18C577.281 530.937 576.364 529.948 575.192 529.214C574.032 528.481 572.706 528.114 571.214 528.114C570.09 528.114 569.042 528.339 568.072 528.788C567.101 529.226 566.249 529.83 565.515 530.599C564.793 531.369 564.225 532.251 563.81 533.245C563.396 534.228 563.189 535.263 563.189 536.352C563.189 537.796 563.526 539.146 564.201 540.401C564.888 541.655 565.823 542.667 567.006 543.437C568.202 544.206 569.557 544.591 571.072 544.591ZM602.061 548.497C599.385 548.497 597.107 547.769 595.225 546.313C593.343 544.845 591.904 542.721 590.91 539.939C589.916 537.145 589.419 533.772 589.419 529.818C589.419 525.888 589.916 522.532 590.91 519.751C591.916 516.957 593.36 514.826 595.242 513.359C597.136 511.879 599.409 511.139 602.061 511.139C604.712 511.139 606.979 511.879 608.861 513.359C610.755 514.826 612.199 516.957 613.193 519.751C614.2 522.532 614.703 525.888 614.703 529.818C614.703 533.772 614.205 537.145 613.211 539.939C612.217 542.721 610.779 544.845 608.896 546.313C607.014 547.769 604.736 548.497 602.061 548.497ZM602.061 544.591C604.712 544.591 606.772 543.312 608.24 540.756C609.707 538.199 610.441 534.553 610.441 529.818C610.441 526.67 610.104 523.988 609.429 521.775C608.766 519.561 607.807 517.875 606.553 516.714C605.31 515.554 603.812 514.974 602.061 514.974C599.433 514.974 597.379 516.271 595.899 518.863C594.42 521.443 593.68 525.095 593.68 529.818C593.68 532.967 594.011 535.642 594.674 537.844C595.337 540.045 596.29 541.72 597.533 542.869C598.788 544.017 600.297 544.591 602.061 544.591ZM646.663 548.568C644.106 548.568 641.904 547.964 640.058 546.757C638.211 545.55 636.791 543.887 635.796 541.768C634.802 539.649 634.305 537.228 634.305 534.506C634.305 531.736 634.814 529.291 635.832 527.173C636.862 525.042 638.294 523.379 640.129 522.183C641.975 520.976 644.13 520.372 646.592 520.372C648.509 520.372 650.238 520.727 651.776 521.438C653.315 522.148 654.576 523.142 655.558 524.42C656.541 525.699 657.151 527.19 657.387 528.895H653.197C652.877 527.652 652.167 526.551 651.066 525.592C649.977 524.622 648.509 524.136 646.663 524.136C645.029 524.136 643.597 524.562 642.366 525.415C641.147 526.255 640.194 527.445 639.507 528.984C638.833 530.511 638.495 532.304 638.495 534.364C638.495 536.471 638.827 538.305 639.49 539.868C640.164 541.43 641.111 542.644 642.33 543.508C643.561 544.372 645.006 544.804 646.663 544.804C647.752 544.804 648.74 544.615 649.628 544.236C650.516 543.857 651.267 543.312 651.883 542.602C652.499 541.892 652.936 541.04 653.197 540.045H657.387C657.151 541.655 656.565 543.105 655.629 544.396C654.706 545.674 653.481 546.692 651.954 547.45C650.439 548.195 648.675 548.568 646.663 548.568ZM663.513 548V520.727H667.561V524.989H667.916C668.485 523.533 669.402 522.402 670.669 521.597C671.935 520.781 673.456 520.372 675.232 520.372C677.031 520.372 678.528 520.781 679.724 521.597C680.931 522.402 681.872 523.533 682.547 524.989H682.831C683.53 523.58 684.577 522.461 685.974 521.633C687.371 520.792 689.046 520.372 690.999 520.372C693.437 520.372 695.432 521.136 696.982 522.663C698.533 524.178 699.308 526.539 699.308 529.747V548H695.118V529.747C695.118 527.735 694.568 526.297 693.467 525.433C692.366 524.568 691.07 524.136 689.578 524.136C687.661 524.136 686.175 524.716 685.122 525.876C684.068 527.025 683.541 528.481 683.541 530.244V548H679.28V529.321C679.28 527.77 678.777 526.522 677.771 525.575C676.765 524.616 675.468 524.136 673.882 524.136C672.793 524.136 671.775 524.426 670.828 525.006C669.893 525.586 669.136 526.391 668.556 527.421C667.987 528.439 667.703 529.617 667.703 530.955V548H663.513Z" fill="white"/>
<line x1="174" y1="367" x2="811" y2="367" stroke="#F8B32A" stroke-width="12" stroke-linecap="round"/>
</svg>
