<svg width="816" height="511" viewBox="0 0 816 511" fill="none" xmlns="http://www.w3.org/2000/svg">
<g clip-path="url(#clip0_82_280)">
<path d="M641.345 229.936L378.342 391.679L130.585 225.018L390.783 61.3875L641.345 229.936Z" fill="#5FD7FF" stroke="#FFB84D" stroke-width="10"/>
<path d="M81.8949 276H77.2784L90.6307 239.636H95.1761L108.528 276H103.912L93.0455 245.389H92.7614L81.8949 276ZM83.5994 261.795H102.207V265.702H83.5994V261.795Z" fill="white"/>
<path d="M414.403 428V391.636H427.116C429.65 391.636 431.739 392.074 433.384 392.95C435.03 393.814 436.255 394.98 437.06 396.448C437.865 397.904 438.267 399.52 438.267 401.295C438.267 402.858 437.989 404.148 437.433 405.166C436.888 406.184 436.166 406.989 435.266 407.581C434.379 408.173 433.414 408.611 432.372 408.895V409.25C433.485 409.321 434.603 409.712 435.728 410.422C436.853 411.132 437.794 412.15 438.551 413.476C439.309 414.802 439.688 416.423 439.688 418.341C439.688 420.164 439.273 421.803 438.445 423.259C437.616 424.715 436.308 425.869 434.521 426.722C432.733 427.574 430.407 428 427.543 428H414.403ZM418.807 424.094H427.543C430.419 424.094 432.461 423.537 433.668 422.425C434.888 421.3 435.497 419.939 435.497 418.341C435.497 417.11 435.183 415.973 434.556 414.932C433.929 413.878 433.035 413.038 431.875 412.411C430.715 411.771 429.342 411.452 427.756 411.452H418.807V424.094ZM418.807 407.616H426.974C428.3 407.616 429.496 407.356 430.561 406.835C431.638 406.314 432.491 405.58 433.118 404.634C433.757 403.687 434.077 402.574 434.077 401.295C434.077 399.697 433.52 398.342 432.408 397.229C431.295 396.105 429.531 395.543 427.116 395.543H418.807V407.616Z" fill="white"/>
<path d="M695.665 251H691.261C691.001 249.733 690.545 248.621 689.894 247.662C689.255 246.703 688.474 245.898 687.55 245.247C686.639 244.584 685.627 244.087 684.514 243.756C683.402 243.424 682.241 243.259 681.034 243.259C678.832 243.259 676.838 243.815 675.05 244.928C673.275 246.04 671.86 247.68 670.807 249.846C669.765 252.012 669.244 254.67 669.244 257.818C669.244 260.967 669.765 263.624 670.807 265.79C671.86 267.957 673.275 269.596 675.05 270.709C676.838 271.821 678.832 272.378 681.034 272.378C682.241 272.378 683.402 272.212 684.514 271.881C685.627 271.549 686.639 271.058 687.55 270.407C688.474 269.744 689.255 268.933 689.894 267.974C690.545 267.004 691.001 265.891 691.261 264.636H695.665C695.333 266.495 694.73 268.158 693.854 269.626C692.978 271.094 691.889 272.342 690.587 273.372C689.285 274.39 687.823 275.165 686.201 275.698C684.591 276.231 682.869 276.497 681.034 276.497C677.933 276.497 675.175 275.74 672.76 274.224C670.345 272.709 668.445 270.555 667.06 267.761C665.675 264.968 664.983 261.653 664.983 257.818C664.983 253.983 665.675 250.669 667.06 247.875C668.445 245.081 670.345 242.927 672.76 241.412C675.175 239.897 677.933 239.139 681.034 239.139C682.869 239.139 684.591 239.406 686.201 239.938C687.823 240.471 689.285 241.252 690.587 242.282C691.889 243.3 692.978 244.543 693.854 246.011C694.73 247.467 695.333 249.13 695.665 251Z" fill="white"/>
<path d="M347.625 58H336.403V21.6364H348.122C351.65 21.6364 354.668 22.3643 357.178 23.8203C359.687 25.2644 361.611 27.3419 362.948 30.0526C364.286 32.7514 364.955 35.983 364.955 39.7472C364.955 43.535 364.28 46.7962 362.93 49.5305C361.581 52.2531 359.616 54.3482 357.036 55.8161C354.455 57.272 351.318 58 347.625 58ZM340.807 54.0938H347.341C350.348 54.0938 352.839 53.5137 354.816 52.3537C356.793 51.1937 358.267 49.5424 359.237 47.3999C360.208 45.2573 360.693 42.7064 360.693 39.7472C360.693 36.8116 360.214 34.2843 359.255 32.1655C358.296 30.0348 356.864 28.4013 354.958 27.2649C353.052 26.1167 350.679 25.5426 347.838 25.5426H340.807V54.0938Z" fill="white"/>
<path d="M171.403 490V453.636H175.807V471.676H176.233L192.568 453.636H198.321L183.051 470.043L198.321 490H192.994L180.352 473.097L175.807 478.21V490H171.403ZM212.885 490.568C210.257 490.568 207.99 489.988 206.085 488.828C204.191 487.656 202.729 486.023 201.699 483.928C200.681 481.821 200.172 479.37 200.172 476.577C200.172 473.783 200.681 471.321 201.699 469.19C202.729 467.048 204.161 465.379 205.996 464.183C207.843 462.976 209.997 462.372 212.459 462.372C213.879 462.372 215.282 462.609 216.667 463.082C218.052 463.556 219.313 464.325 220.449 465.391C221.585 466.444 222.491 467.841 223.166 469.581C223.84 471.321 224.178 473.464 224.178 476.009V477.784H203.155V474.162H219.916C219.916 472.623 219.609 471.25 218.993 470.043C218.389 468.835 217.525 467.882 216.401 467.184C215.288 466.486 213.974 466.136 212.459 466.136C210.79 466.136 209.346 466.551 208.127 467.379C206.919 468.196 205.99 469.261 205.339 470.575C204.688 471.889 204.362 473.298 204.362 474.801V477.216C204.362 479.276 204.718 481.022 205.428 482.454C206.15 483.874 207.15 484.957 208.428 485.703C209.707 486.437 211.192 486.804 212.885 486.804C213.986 486.804 214.98 486.65 215.868 486.342C216.768 486.023 217.543 485.549 218.194 484.922C218.845 484.283 219.348 483.49 219.703 482.543L223.752 483.679C223.325 485.052 222.609 486.259 221.603 487.301C220.597 488.331 219.354 489.136 217.874 489.716C216.395 490.284 214.732 490.568 212.885 490.568ZM234.742 453.636V490H230.552V453.636H234.742ZM242.417 490V462.727H246.608V490H242.417ZM244.548 458.182C243.731 458.182 243.027 457.904 242.435 457.347C241.855 456.791 241.565 456.122 241.565 455.341C241.565 454.56 241.855 453.891 242.435 453.335C243.027 452.778 243.731 452.5 244.548 452.5C245.365 452.5 246.063 452.778 246.643 453.335C247.235 453.891 247.531 454.56 247.531 455.341C247.531 456.122 247.235 456.791 246.643 457.347C246.063 457.904 245.365 458.182 244.548 458.182ZM258.473 453.636V490H254.282V453.636H258.473ZM266.148 490V462.727H270.338V490H266.148ZM268.278 458.182C267.462 458.182 266.757 457.904 266.165 457.347C265.585 456.791 265.295 456.122 265.295 455.341C265.295 454.56 265.585 453.891 266.165 453.335C266.757 452.778 267.462 452.5 268.278 452.5C269.095 452.5 269.794 452.778 270.374 453.335C270.965 453.891 271.261 454.56 271.261 455.341C271.261 456.122 270.965 456.791 270.374 457.347C269.794 457.904 269.095 458.182 268.278 458.182ZM282.203 473.594V490H278.013V462.727H282.061V466.989H282.416C283.056 465.604 284.026 464.491 285.328 463.651C286.63 462.798 288.311 462.372 290.371 462.372C292.218 462.372 293.833 462.751 295.218 463.509C296.603 464.254 297.68 465.391 298.45 466.918C299.219 468.433 299.604 470.35 299.604 472.67V490H295.414V472.955C295.414 470.812 294.857 469.143 293.744 467.947C292.632 466.74 291.105 466.136 289.164 466.136C287.826 466.136 286.63 466.426 285.577 467.006C284.535 467.586 283.713 468.433 283.109 469.545C282.505 470.658 282.203 472.008 282.203 473.594ZM318.27 500.795C316.245 500.795 314.505 500.535 313.049 500.014C311.593 499.505 310.38 498.83 309.409 497.99C308.451 497.161 307.687 496.274 307.119 495.327L310.457 492.983C310.836 493.48 311.315 494.048 311.895 494.688C312.475 495.339 313.268 495.901 314.275 496.374C315.292 496.86 316.624 497.102 318.27 497.102C320.471 497.102 322.288 496.57 323.721 495.504C325.153 494.439 325.869 492.77 325.869 490.497V484.957H325.514C325.206 485.455 324.768 486.07 324.2 486.804C323.644 487.526 322.839 488.171 321.785 488.739C320.743 489.296 319.335 489.574 317.559 489.574C315.358 489.574 313.381 489.053 311.629 488.011C309.889 486.97 308.51 485.455 307.492 483.466C306.486 481.477 305.983 479.062 305.983 476.222C305.983 473.428 306.474 470.996 307.456 468.924C308.439 466.841 309.806 465.231 311.558 464.094C313.31 462.946 315.334 462.372 317.63 462.372C319.406 462.372 320.815 462.668 321.856 463.26C322.91 463.84 323.715 464.503 324.271 465.249C324.839 465.982 325.277 466.586 325.585 467.06H326.011V462.727H330.059V490.781C330.059 493.125 329.527 495.031 328.461 496.499C327.408 497.978 325.987 499.061 324.2 499.748C322.424 500.446 320.448 500.795 318.27 500.795ZM318.127 485.81C319.808 485.81 321.229 485.425 322.389 484.656C323.549 483.886 324.431 482.779 325.034 481.335C325.638 479.891 325.94 478.163 325.94 476.151C325.94 474.186 325.644 472.451 325.052 470.948C324.46 469.445 323.584 468.267 322.424 467.415C321.264 466.562 319.832 466.136 318.127 466.136C316.352 466.136 314.872 466.586 313.689 467.486C312.517 468.385 311.635 469.593 311.043 471.108C310.463 472.623 310.173 474.304 310.173 476.151C310.173 478.045 310.469 479.719 311.061 481.175C311.664 482.62 312.552 483.756 313.724 484.585C314.908 485.401 316.376 485.81 318.127 485.81ZM353.497 468.48V464.645H375.372V468.48H353.497ZM353.497 478.991V475.156H375.372V478.991H353.497ZM410.319 453.139C411.811 453.151 413.302 453.435 414.794 453.991C416.285 454.548 417.647 455.471 418.878 456.761C420.109 458.04 421.097 459.786 421.843 461.999C422.589 464.213 422.961 466.989 422.961 470.327C422.961 473.558 422.654 476.429 422.038 478.938C421.434 481.436 420.559 483.543 419.41 485.259C418.274 486.976 416.889 488.278 415.256 489.165C413.634 490.053 411.799 490.497 409.751 490.497C407.715 490.497 405.898 490.095 404.3 489.29C402.714 488.473 401.412 487.343 400.394 485.898C399.388 484.442 398.743 482.756 398.459 480.838H402.791C403.182 482.507 403.957 483.886 405.117 484.975C406.289 486.052 407.834 486.591 409.751 486.591C412.557 486.591 414.77 485.366 416.392 482.915C418.025 480.465 418.842 477.003 418.842 472.528H418.558C417.895 473.523 417.108 474.381 416.197 475.103C415.285 475.825 414.273 476.381 413.16 476.772C412.048 477.163 410.864 477.358 409.609 477.358C407.526 477.358 405.614 476.843 403.874 475.813C402.146 474.772 400.761 473.345 399.719 471.534C398.689 469.711 398.175 467.628 398.175 465.284C398.175 463.059 398.672 461.023 399.666 459.176C400.672 457.318 402.081 455.838 403.892 454.737C405.715 453.636 407.857 453.104 410.319 453.139ZM410.319 457.045C408.828 457.045 407.484 457.418 406.289 458.164C405.105 458.898 404.164 459.892 403.466 461.147C402.779 462.39 402.436 463.769 402.436 465.284C402.436 466.799 402.767 468.178 403.43 469.421C404.105 470.652 405.022 471.635 406.182 472.369C407.354 473.091 408.686 473.452 410.177 473.452C411.302 473.452 412.349 473.233 413.32 472.795C414.291 472.345 415.137 471.735 415.859 470.966C416.593 470.185 417.167 469.303 417.581 468.32C417.996 467.326 418.203 466.29 418.203 465.213C418.203 463.793 417.86 462.461 417.173 461.218C416.498 459.975 415.563 458.969 414.368 458.2C413.184 457.43 411.835 457.045 410.319 457.045ZM429.944 490V486.804L441.947 473.665C443.355 472.126 444.515 470.788 445.427 469.652C446.338 468.504 447.013 467.427 447.451 466.42C447.901 465.402 448.126 464.337 448.126 463.224C448.126 461.946 447.818 460.839 447.202 459.904C446.599 458.969 445.77 458.247 444.717 457.738C443.663 457.229 442.479 456.974 441.165 456.974C439.769 456.974 438.549 457.264 437.508 457.844C436.478 458.413 435.679 459.212 435.111 460.241C434.554 461.271 434.276 462.479 434.276 463.864H430.086C430.086 461.733 430.577 459.863 431.56 458.253C432.542 456.643 433.88 455.388 435.572 454.489C437.277 453.589 439.189 453.139 441.308 453.139C443.438 453.139 445.326 453.589 446.972 454.489C448.617 455.388 449.907 456.602 450.842 458.129C451.777 459.656 452.245 461.354 452.245 463.224C452.245 464.562 452.002 465.87 451.517 467.148C451.044 468.415 450.215 469.83 449.031 471.392C447.859 472.943 446.232 474.837 444.148 477.074L435.981 485.81V486.094H452.884V490H429.944ZM485.43 490.568C482.874 490.568 480.672 489.964 478.825 488.757C476.979 487.55 475.558 485.887 474.564 483.768C473.57 481.649 473.072 479.228 473.072 476.506C473.072 473.736 473.581 471.291 474.599 469.173C475.629 467.042 477.062 465.379 478.896 464.183C480.743 462.976 482.897 462.372 485.359 462.372C487.277 462.372 489.005 462.727 490.544 463.438C492.083 464.148 493.344 465.142 494.326 466.42C495.308 467.699 495.918 469.19 496.155 470.895H491.964C491.645 469.652 490.935 468.551 489.834 467.592C488.745 466.622 487.277 466.136 485.43 466.136C483.797 466.136 482.365 466.562 481.134 467.415C479.914 468.255 478.961 469.445 478.275 470.984C477.6 472.511 477.263 474.304 477.263 476.364C477.263 478.471 477.594 480.305 478.257 481.868C478.932 483.43 479.879 484.644 481.098 485.508C482.329 486.372 483.773 486.804 485.43 486.804C486.519 486.804 487.508 486.615 488.396 486.236C489.283 485.857 490.035 485.312 490.651 484.602C491.266 483.892 491.704 483.04 491.964 482.045H496.155C495.918 483.655 495.332 485.105 494.397 486.396C493.474 487.674 492.249 488.692 490.722 489.45C489.206 490.195 487.443 490.568 485.43 490.568ZM502.281 490V462.727H506.329V466.989H506.684C507.252 465.533 508.17 464.402 509.436 463.597C510.703 462.781 512.224 462.372 513.999 462.372C515.799 462.372 517.296 462.781 518.491 463.597C519.699 464.402 520.64 465.533 521.315 466.989H521.599C522.297 465.58 523.345 464.461 524.741 463.633C526.138 462.792 527.813 462.372 529.766 462.372C532.205 462.372 534.199 463.136 535.75 464.663C537.301 466.178 538.076 468.539 538.076 471.747V490H533.886V471.747C533.886 469.735 533.335 468.297 532.234 467.433C531.134 466.568 529.837 466.136 528.346 466.136C526.428 466.136 524.943 466.716 523.889 467.876C522.836 469.025 522.309 470.481 522.309 472.244V490H518.048V471.321C518.048 469.77 517.545 468.522 516.538 467.575C515.532 466.616 514.236 466.136 512.65 466.136C511.561 466.136 510.543 466.426 509.596 467.006C508.661 467.586 507.903 468.391 507.323 469.421C506.755 470.439 506.471 471.617 506.471 472.955V490H502.281Z" fill="#FFB84D"/>
</g>
<defs>
<clipPath id="clip0_82_280">
<rect width="816" height="511" fill="white"/>
</clipPath>
</defs>
</svg>
