<svg width="1188" height="449" viewBox="0 0 1188 449" fill="none" xmlns="http://www.w3.org/2000/svg">
<g clip-path="url(#clip0_82_307)">
<path d="M641.345 229.936L378.342 391.679L130.584 225.017L390.783 61.3875L641.345 229.936Z" fill="#5FD7FF" stroke="white" stroke-width="10"/>
<path d="M133.764 119V115.804L145.767 102.665C147.176 101.126 148.336 99.7884 149.247 98.652C150.159 97.5038 150.833 96.4266 151.271 95.4205C151.721 94.4025 151.946 93.3371 151.946 92.2244C151.946 90.946 151.638 89.8393 151.023 88.9041C150.419 87.969 149.59 87.2469 148.537 86.7379C147.483 86.2289 146.3 85.9744 144.986 85.9744C143.589 85.9744 142.37 86.2644 141.328 86.8445C140.298 87.4126 139.499 88.2116 138.931 89.2415C138.375 90.2713 138.097 91.4787 138.097 92.8636H133.906C133.906 90.733 134.397 88.8627 135.38 87.2528C136.362 85.643 137.7 84.3883 139.393 83.4886C141.097 82.589 143.009 82.1392 145.128 82.1392C147.259 82.1392 149.147 82.589 150.792 83.4886C152.437 84.3883 153.728 85.6016 154.663 87.1286C155.598 88.6555 156.065 90.3542 156.065 92.2244C156.065 93.562 155.823 94.87 155.337 96.1484C154.864 97.415 154.035 98.8295 152.852 100.392C151.68 101.943 150.052 103.837 147.969 106.074L139.801 114.81V115.094H156.705V119H133.764ZM176.325 119.497C173.981 119.497 171.892 119.095 170.057 118.29C168.234 117.485 166.784 116.366 165.707 114.934C164.641 113.49 164.061 111.815 163.967 109.909H168.441C168.536 111.081 168.938 112.093 169.648 112.945C170.359 113.786 171.288 114.437 172.436 114.898C173.584 115.36 174.857 115.591 176.254 115.591C177.816 115.591 179.201 115.319 180.408 114.774C181.616 114.23 182.563 113.472 183.249 112.501C183.936 111.531 184.279 110.406 184.279 109.128C184.279 107.79 183.948 106.612 183.285 105.594C182.622 104.565 181.651 103.76 180.373 103.18C179.094 102.6 177.532 102.31 175.685 102.31H172.773V98.4034H175.685C177.129 98.4034 178.396 98.143 179.485 97.6222C180.586 97.1013 181.444 96.3674 182.06 95.4205C182.687 94.4735 183.001 93.3608 183.001 92.0824C183.001 90.8513 182.728 89.7801 182.184 88.8686C181.639 87.9571 180.87 87.2469 179.876 86.7379C178.893 86.2289 177.733 85.9744 176.396 85.9744C175.141 85.9744 173.957 86.2053 172.844 86.6669C171.744 87.1167 170.844 87.7737 170.146 88.6378C169.447 89.4901 169.068 90.5199 169.009 91.7273H164.748C164.819 89.8215 165.393 88.1525 166.47 86.7202C167.547 85.276 168.956 84.1515 170.696 83.3466C172.448 82.5417 174.371 82.1392 176.467 82.1392C178.716 82.1392 180.645 82.5949 182.255 83.5064C183.865 84.406 185.102 85.5956 185.966 87.0753C186.83 88.5549 187.262 90.1529 187.262 91.8693C187.262 93.9171 186.723 95.6631 185.646 97.1072C184.581 98.5514 183.131 99.5516 181.296 100.108V100.392C183.593 100.771 185.386 101.747 186.676 103.322C187.966 104.884 188.612 106.82 188.612 109.128C188.612 111.105 188.073 112.88 186.996 114.455C185.93 116.017 184.474 117.248 182.628 118.148C180.781 119.047 178.68 119.497 176.325 119.497ZM221.087 119.568C218.53 119.568 216.328 118.964 214.482 117.757C212.635 116.55 211.214 114.887 210.22 112.768C209.226 110.649 208.729 108.228 208.729 105.506C208.729 102.736 209.238 100.291 210.256 98.1726C211.286 96.0419 212.718 94.3788 214.553 93.1832C216.399 91.9759 218.554 91.3722 221.016 91.3722C222.933 91.3722 224.661 91.7273 226.2 92.4375C227.739 93.1477 229 94.142 229.982 95.4205C230.965 96.6989 231.574 98.1903 231.811 99.8949H227.621C227.301 98.652 226.591 97.5511 225.49 96.5923C224.401 95.6217 222.933 95.1364 221.087 95.1364C219.453 95.1364 218.021 95.5625 216.79 96.4148C215.571 97.2552 214.618 98.4448 213.931 99.9837C213.256 101.511 212.919 103.304 212.919 105.364C212.919 107.471 213.25 109.305 213.913 110.868C214.588 112.43 215.535 113.644 216.754 114.508C217.985 115.372 219.429 115.804 221.087 115.804C222.176 115.804 223.164 115.615 224.052 115.236C224.94 114.857 225.691 114.312 226.307 113.602C226.922 112.892 227.36 112.04 227.621 111.045H231.811C231.574 112.655 230.988 114.105 230.053 115.396C229.13 116.674 227.905 117.692 226.378 118.45C224.863 119.195 223.099 119.568 221.087 119.568ZM237.937 119V91.7273H241.985V95.9886H242.34C242.908 94.5327 243.826 93.4022 245.092 92.5973C246.359 91.7805 247.88 91.3722 249.656 91.3722C251.455 91.3722 252.952 91.7805 254.148 92.5973C255.355 93.4022 256.296 94.5327 256.971 95.9886H257.255C257.953 94.58 259.001 93.4614 260.398 92.6328C261.795 91.7924 263.469 91.3722 265.423 91.3722C267.861 91.3722 269.856 92.1357 271.406 93.6626C272.957 95.1778 273.732 97.5393 273.732 100.747V119H269.542V100.747C269.542 98.7348 268.991 97.2966 267.891 96.4325C266.79 95.5684 265.494 95.1364 264.002 95.1364C262.085 95.1364 260.599 95.7164 259.545 96.8764C258.492 98.0246 257.965 99.4806 257.965 101.244V119H253.704V100.321C253.704 98.7704 253.201 97.5215 252.195 96.5746C251.188 95.6158 249.892 95.1364 248.306 95.1364C247.217 95.1364 246.199 95.4264 245.252 96.0064C244.317 96.5864 243.559 97.3913 242.979 98.4212C242.411 99.4392 242.127 100.617 242.127 101.955V119H237.937Z" fill="#24F0BF"/>
<path d="M81.8949 276H77.2784L90.6307 239.636H95.1761L108.528 276H103.912L93.0455 245.389H92.7614L81.8949 276ZM83.5994 261.795H102.207V265.702H83.5994V261.795Z" fill="white"/>
<path d="M414.403 428V391.636H427.116C429.65 391.636 431.739 392.074 433.384 392.95C435.03 393.814 436.255 394.98 437.06 396.448C437.865 397.904 438.267 399.52 438.267 401.295C438.267 402.858 437.989 404.148 437.433 405.166C436.888 406.184 436.166 406.989 435.266 407.581C434.379 408.173 433.414 408.611 432.372 408.895V409.25C433.485 409.321 434.603 409.712 435.728 410.422C436.853 411.132 437.794 412.15 438.551 413.476C439.309 414.802 439.688 416.423 439.688 418.341C439.688 420.164 439.273 421.803 438.445 423.259C437.616 424.715 436.308 425.869 434.521 426.722C432.733 427.574 430.407 428 427.543 428H414.403ZM418.807 424.094H427.543C430.419 424.094 432.461 423.537 433.668 422.425C434.888 421.3 435.497 419.939 435.497 418.341C435.497 417.11 435.183 415.973 434.556 414.932C433.929 413.878 433.035 413.038 431.875 412.411C430.715 411.771 429.342 411.452 427.756 411.452H418.807V424.094ZM418.807 407.616H426.974C428.3 407.616 429.496 407.356 430.561 406.835C431.638 406.314 432.491 405.58 433.118 404.634C433.757 403.687 434.077 402.574 434.077 401.295C434.077 399.697 433.52 398.342 432.408 397.229C431.295 396.105 429.531 395.543 427.116 395.543H418.807V407.616Z" fill="white"/>
<path d="M695.665 251H691.261C691.001 249.733 690.545 248.621 689.894 247.662C689.255 246.703 688.474 245.898 687.55 245.247C686.639 244.584 685.627 244.087 684.514 243.756C683.402 243.424 682.241 243.259 681.034 243.259C678.832 243.259 676.838 243.815 675.05 244.928C673.275 246.04 671.86 247.68 670.807 249.846C669.765 252.012 669.244 254.67 669.244 257.818C669.244 260.967 669.765 263.624 670.807 265.79C671.86 267.957 673.275 269.596 675.05 270.709C676.838 271.821 678.832 272.378 681.034 272.378C682.241 272.378 683.402 272.212 684.514 271.881C685.627 271.549 686.639 271.058 687.55 270.407C688.474 269.744 689.255 268.933 689.894 267.974C690.545 267.004 691.001 265.891 691.261 264.636H695.665C695.333 266.495 694.73 268.158 693.854 269.626C692.978 271.094 691.889 272.342 690.587 273.372C689.285 274.39 687.823 275.165 686.201 275.698C684.591 276.231 682.869 276.497 681.034 276.497C677.933 276.497 675.175 275.74 672.76 274.224C670.345 272.709 668.445 270.555 667.06 267.761C665.675 264.968 664.983 261.653 664.983 257.818C664.983 253.983 665.675 250.669 667.06 247.875C668.445 245.081 670.345 242.927 672.76 241.412C675.175 239.897 677.933 239.139 681.034 239.139C682.869 239.139 684.591 239.406 686.201 239.938C687.823 240.471 689.285 241.252 690.587 242.282C691.889 243.3 692.978 244.543 693.854 246.011C694.73 247.467 695.333 249.13 695.665 251Z" fill="white"/>
<path d="M347.625 58H336.403V21.6364H348.122C351.65 21.6364 354.668 22.3643 357.178 23.8203C359.687 25.2644 361.611 27.3419 362.948 30.0526C364.286 32.7514 364.955 35.983 364.955 39.7472C364.955 43.535 364.28 46.7962 362.93 49.5305C361.581 52.2531 359.616 54.3482 357.036 55.8161C354.455 57.272 351.318 58 347.625 58ZM340.807 54.0938H347.341C350.348 54.0938 352.839 53.5137 354.816 52.3537C356.793 51.1937 358.267 49.5424 359.237 47.3999C360.208 45.2573 360.693 42.7064 360.693 39.7472C360.693 36.8116 360.214 34.2843 359.255 32.1655C358.296 30.0348 356.864 28.4013 354.958 27.2649C353.052 26.1167 350.679 25.5426 347.838 25.5426H340.807V54.0938Z" fill="white"/>
<path d="M684.403 113V76.6364H688.807V94.6761H689.233L705.568 76.6364H711.321L696.051 93.0426L711.321 113H705.994L693.352 96.0966L688.807 101.21V113H684.403ZM725.885 113.568C723.257 113.568 720.99 112.988 719.085 111.828C717.191 110.656 715.729 109.023 714.699 106.928C713.681 104.821 713.172 102.37 713.172 99.5767C713.172 96.7831 713.681 94.321 714.699 92.1903C715.729 90.0478 717.161 88.3788 718.996 87.1832C720.843 85.9759 722.997 85.3722 725.459 85.3722C726.879 85.3722 728.282 85.6089 729.667 86.0824C731.052 86.5559 732.313 87.3253 733.449 88.3906C734.585 89.4441 735.491 90.8409 736.166 92.581C736.84 94.321 737.178 96.4635 737.178 99.0085V100.784H716.155V97.1619H732.916C732.916 95.6231 732.609 94.25 731.993 93.0426C731.389 91.8352 730.525 90.8823 729.401 90.1839C728.288 89.4856 726.974 89.1364 725.459 89.1364C723.79 89.1364 722.346 89.5507 721.127 90.3793C719.919 91.196 718.99 92.2614 718.339 93.5753C717.688 94.8892 717.362 96.2978 717.362 97.8011V100.216C717.362 102.276 717.718 104.022 718.428 105.454C719.15 106.874 720.15 107.957 721.428 108.703C722.707 109.437 724.192 109.804 725.885 109.804C726.986 109.804 727.98 109.65 728.868 109.342C729.768 109.023 730.543 108.549 731.194 107.922C731.845 107.283 732.348 106.49 732.703 105.543L736.752 106.679C736.325 108.052 735.609 109.259 734.603 110.301C733.597 111.331 732.354 112.136 730.874 112.716C729.395 113.284 727.732 113.568 725.885 113.568ZM747.742 76.6364V113H743.552V76.6364H747.742ZM755.417 113V85.7273H759.608V113H755.417ZM757.548 81.1818C756.731 81.1818 756.027 80.9036 755.435 80.3473C754.855 79.791 754.565 79.1222 754.565 78.3409C754.565 77.5597 754.855 76.8909 755.435 76.3345C756.027 75.7782 756.731 75.5 757.548 75.5C758.365 75.5 759.063 75.7782 759.643 76.3345C760.235 76.8909 760.531 77.5597 760.531 78.3409C760.531 79.1222 760.235 79.791 759.643 80.3473C759.063 80.9036 758.365 81.1818 757.548 81.1818ZM771.473 76.6364V113H767.282V76.6364H771.473ZM779.148 113V85.7273H783.338V113H779.148ZM781.278 81.1818C780.462 81.1818 779.757 80.9036 779.165 80.3473C778.585 79.791 778.295 79.1222 778.295 78.3409C778.295 77.5597 778.585 76.8909 779.165 76.3345C779.757 75.7782 780.462 75.5 781.278 75.5C782.095 75.5 782.794 75.7782 783.374 76.3345C783.965 76.8909 784.261 77.5597 784.261 78.3409C784.261 79.1222 783.965 79.791 783.374 80.3473C782.794 80.9036 782.095 81.1818 781.278 81.1818ZM795.203 96.5938V113H791.013V85.7273H795.061V89.9886H795.416C796.056 88.6037 797.026 87.491 798.328 86.6506C799.63 85.7983 801.311 85.3722 803.371 85.3722C805.218 85.3722 806.833 85.7509 808.218 86.5085C809.603 87.2543 810.68 88.3906 811.45 89.9176C812.219 91.4328 812.604 93.3504 812.604 95.6705V113H808.414V95.9545C808.414 93.812 807.857 92.143 806.744 90.9474C805.632 89.7401 804.105 89.1364 802.164 89.1364C800.826 89.1364 799.63 89.4264 798.577 90.0064C797.535 90.5864 796.713 91.4328 796.109 92.5455C795.505 93.6581 795.203 95.0076 795.203 96.5938ZM831.27 123.795C829.245 123.795 827.505 123.535 826.049 123.014C824.593 122.505 823.38 121.83 822.409 120.99C821.451 120.161 820.687 119.274 820.119 118.327L823.457 115.983C823.836 116.48 824.315 117.048 824.895 117.688C825.475 118.339 826.268 118.901 827.275 119.374C828.292 119.86 829.624 120.102 831.27 120.102C833.471 120.102 835.288 119.57 836.721 118.504C838.153 117.439 838.869 115.77 838.869 113.497V107.957H838.514C838.206 108.455 837.768 109.07 837.2 109.804C836.644 110.526 835.839 111.171 834.785 111.739C833.743 112.296 832.335 112.574 830.559 112.574C828.358 112.574 826.381 112.053 824.629 111.011C822.889 109.97 821.51 108.455 820.492 106.466C819.486 104.477 818.983 102.062 818.983 99.2216C818.983 96.428 819.474 93.9955 820.456 91.924C821.439 89.8407 822.806 88.2308 824.558 87.0945C826.31 85.9463 828.334 85.3722 830.63 85.3722C832.406 85.3722 833.815 85.6681 834.856 86.2599C835.91 86.84 836.715 87.5028 837.271 88.2486C837.839 88.9825 838.277 89.5862 838.585 90.0597H839.011V85.7273H843.059V113.781C843.059 116.125 842.527 118.031 841.461 119.499C840.408 120.978 838.987 122.061 837.2 122.748C835.424 123.446 833.448 123.795 831.27 123.795ZM831.127 108.81C832.808 108.81 834.229 108.425 835.389 107.656C836.549 106.886 837.431 105.779 838.034 104.335C838.638 102.891 838.94 101.163 838.94 99.1506C838.94 97.1856 838.644 95.4515 838.052 93.9482C837.46 92.4448 836.584 91.267 835.424 90.4148C834.264 89.5625 832.832 89.1364 831.127 89.1364C829.352 89.1364 827.872 89.5862 826.689 90.4858C825.517 91.3854 824.635 92.5928 824.043 94.108C823.463 95.6231 823.173 97.304 823.173 99.1506C823.173 101.045 823.469 102.719 824.061 104.175C824.664 105.62 825.552 106.756 826.724 107.585C827.908 108.401 829.376 108.81 831.127 108.81ZM866.497 91.4801V87.6449H888.372V91.4801H866.497ZM866.497 101.991V98.1562H888.372V101.991H866.497ZM923.319 76.1392C924.811 76.151 926.302 76.4351 927.794 76.9915C929.285 77.5478 930.647 78.4711 931.878 79.7614C933.109 81.0398 934.097 82.7857 934.843 84.9993C935.589 87.2128 935.961 89.9886 935.961 93.3267C935.961 96.5582 935.654 99.4287 935.038 101.938C934.434 104.436 933.559 106.543 932.41 108.259C931.274 109.976 929.889 111.278 928.256 112.165C926.634 113.053 924.799 113.497 922.751 113.497C920.715 113.497 918.898 113.095 917.3 112.29C915.714 111.473 914.412 110.343 913.394 108.898C912.388 107.442 911.743 105.756 911.459 103.838H915.791C916.182 105.507 916.957 106.886 918.117 107.975C919.289 109.052 920.834 109.591 922.751 109.591C925.557 109.591 927.77 108.366 929.392 105.915C931.025 103.465 931.842 100.003 931.842 95.5284H931.558C930.895 96.5227 930.108 97.3809 929.197 98.103C928.285 98.825 927.273 99.3814 926.16 99.772C925.048 100.163 923.864 100.358 922.609 100.358C920.526 100.358 918.614 99.843 916.874 98.8132C915.146 97.7715 913.761 96.3452 912.719 94.5341C911.689 92.7112 911.175 90.6278 911.175 88.2841C911.175 86.0587 911.672 84.0227 912.666 82.1761C913.672 80.3177 915.081 78.8381 916.892 77.7372C918.715 76.6364 920.857 76.1037 923.319 76.1392ZM923.319 80.0455C921.828 80.0455 920.484 80.4183 919.289 81.1641C918.105 81.898 917.164 82.8923 916.466 84.147C915.779 85.3899 915.436 86.7689 915.436 88.2841C915.436 89.7992 915.767 91.1783 916.43 92.4212C917.105 93.6522 918.022 94.6347 919.182 95.3686C920.354 96.0907 921.686 96.4517 923.177 96.4517C924.302 96.4517 925.349 96.2327 926.32 95.7947C927.291 95.3449 928.137 94.7353 928.859 93.9659C929.593 93.1847 930.167 92.3028 930.581 91.3203C930.996 90.326 931.203 89.2902 931.203 88.2131C931.203 86.7926 930.86 85.4609 930.173 84.218C929.498 82.9751 928.563 81.969 927.368 81.1996C926.184 80.4302 924.835 80.0455 923.319 80.0455ZM942.944 113V109.804L954.947 96.6648C956.355 95.1259 957.515 93.7884 958.427 92.652C959.338 91.5038 960.013 90.4266 960.451 89.4205C960.901 88.4025 961.126 87.3371 961.126 86.2244C961.126 84.946 960.818 83.8393 960.202 82.9041C959.599 81.969 958.77 81.2469 957.717 80.7379C956.663 80.2289 955.479 79.9744 954.165 79.9744C952.769 79.9744 951.549 80.2644 950.508 80.8445C949.478 81.4126 948.679 82.2116 948.111 83.2415C947.554 84.2713 947.276 85.4787 947.276 86.8636H943.086C943.086 84.733 943.577 82.8627 944.56 81.2528C945.542 79.643 946.88 78.3883 948.572 77.4886C950.277 76.589 952.189 76.1392 954.308 76.1392C956.438 76.1392 958.326 76.589 959.972 77.4886C961.617 78.3883 962.907 79.6016 963.842 81.1286C964.777 82.6555 965.245 84.3542 965.245 86.2244C965.245 87.562 965.002 88.87 964.517 90.1484C964.044 91.415 963.215 92.8295 962.031 94.392C960.859 95.9427 959.232 97.8366 957.148 100.074L948.981 108.81V109.094H965.884V113H942.944ZM998.43 113.568C995.874 113.568 993.672 112.964 991.825 111.757C989.979 110.55 988.558 108.887 987.564 106.768C986.57 104.649 986.072 102.228 986.072 99.5057C986.072 96.7358 986.581 94.2914 987.599 92.1726C988.629 90.0419 990.062 88.3788 991.896 87.1832C993.743 85.9759 995.897 85.3722 998.359 85.3722C1000.28 85.3722 1002.01 85.7273 1003.54 86.4375C1005.08 87.1477 1006.34 88.142 1007.33 89.4205C1008.31 90.6989 1008.92 92.1903 1009.15 93.8949H1004.96C1004.64 92.652 1003.93 91.5511 1002.83 90.5923C1001.74 89.6217 1000.28 89.1364 998.43 89.1364C996.797 89.1364 995.365 89.5625 994.134 90.4148C992.914 91.2552 991.961 92.4448 991.275 93.9837C990.6 95.5107 990.263 97.304 990.263 99.3636C990.263 101.471 990.594 103.305 991.257 104.868C991.932 106.43 992.879 107.644 994.098 108.508C995.329 109.372 996.773 109.804 998.43 109.804C999.519 109.804 1000.51 109.615 1001.4 109.236C1002.28 108.857 1003.04 108.312 1003.65 107.602C1004.27 106.892 1004.7 106.04 1004.96 105.045H1009.15C1008.92 106.655 1008.33 108.105 1007.4 109.396C1006.47 110.674 1005.25 111.692 1003.72 112.45C1002.21 113.195 1000.44 113.568 998.43 113.568ZM1015.28 113V85.7273H1019.33V89.9886H1019.68C1020.25 88.5327 1021.17 87.4022 1022.44 86.5973C1023.7 85.7805 1025.22 85.3722 1027 85.3722C1028.8 85.3722 1030.3 85.7805 1031.49 86.5973C1032.7 87.4022 1033.64 88.5327 1034.31 89.9886H1034.6C1035.3 88.58 1036.34 87.4614 1037.74 86.6328C1039.14 85.7924 1040.81 85.3722 1042.77 85.3722C1045.2 85.3722 1047.2 86.1357 1048.75 87.6626C1050.3 89.1778 1051.08 91.5393 1051.08 94.7472V113H1046.89V94.7472C1046.89 92.7348 1046.34 91.2966 1045.23 90.4325C1044.13 89.5684 1042.84 89.1364 1041.35 89.1364C1039.43 89.1364 1037.94 89.7164 1036.89 90.8764C1035.84 92.0246 1035.31 93.4806 1035.31 95.2443V113H1031.05V94.321C1031.05 92.7704 1030.54 91.5215 1029.54 90.5746C1028.53 89.6158 1027.24 89.1364 1025.65 89.1364C1024.56 89.1364 1023.54 89.4264 1022.6 90.0064C1021.66 90.5864 1020.9 91.3913 1020.32 92.4212C1019.75 93.4392 1019.47 94.617 1019.47 95.9545V113H1015.28Z" fill="white"/>
<line x1="131.889" y1="224.728" x2="390.728" y2="62.1113" stroke="#24F0BF" stroke-width="12" stroke-linecap="round"/>
</g>
<defs>
<clipPath id="clip0_82_307">
<rect width="1188" height="449" fill="white"/>
</clipPath>
</defs>
</svg>
