<svg width="1188" height="449" viewBox="0 0 1188 449" fill="none" xmlns="http://www.w3.org/2000/svg">
<g clip-path="url(#clip0_82_298)">
<path d="M641.345 229.935L378.342 391.679L130.584 225.017L390.783 61.3872L641.345 229.935Z" fill="#5FD7FF" stroke="white" stroke-width="10"/>
<path d="M249.304 108.773V108.56C249.328 106.299 249.564 104.5 250.014 103.162C250.464 101.824 251.103 100.741 251.932 99.9126C252.76 99.084 253.755 98.3205 254.915 97.6222C255.613 97.196 256.241 96.6929 256.797 96.1129C257.353 95.5211 257.791 94.8404 258.111 94.071C258.442 93.3016 258.608 92.4493 258.608 91.5142C258.608 90.3542 258.336 89.348 257.791 88.4957C257.247 87.6435 256.519 86.9865 255.607 86.5249C254.696 86.0632 253.684 85.8324 252.571 85.8324C251.6 85.8324 250.665 86.0336 249.766 86.4361C248.866 86.8385 248.114 87.4718 247.511 88.3359C246.907 89.2 246.558 90.3305 246.463 91.7273H241.989C242.083 89.715 242.604 87.9927 243.551 86.5604C244.51 85.1281 245.771 84.0331 247.333 83.2756C248.907 82.518 250.653 82.1392 252.571 82.1392C254.654 82.1392 256.465 82.5535 258.004 83.3821C259.555 84.2107 260.75 85.3471 261.591 86.7912C262.443 88.2353 262.869 89.8807 262.869 91.7273C262.869 93.0294 262.668 94.2071 262.266 95.2607C261.875 96.3142 261.307 97.2552 260.561 98.0838C259.827 98.9124 258.939 99.6463 257.898 100.286C256.856 100.937 256.022 101.623 255.394 102.345C254.767 103.055 254.311 103.902 254.027 104.884C253.743 105.867 253.589 107.092 253.565 108.56V108.773H249.304ZM251.577 119.284C250.701 119.284 249.949 118.97 249.322 118.343C248.694 117.716 248.381 116.964 248.381 116.088C248.381 115.212 248.694 114.46 249.322 113.833C249.949 113.206 250.701 112.892 251.577 112.892C252.453 112.892 253.204 113.206 253.832 113.833C254.459 114.46 254.773 115.212 254.773 116.088C254.773 116.668 254.625 117.201 254.329 117.686C254.045 118.171 253.66 118.562 253.175 118.858C252.701 119.142 252.169 119.284 251.577 119.284Z" fill="#F8B32A"/>
<path d="M81.8949 276H77.2784L90.6307 239.636H95.1761L108.528 276H103.912L93.0455 245.389H92.7614L81.8949 276ZM83.5994 261.795H102.207V265.702H83.5994V261.795Z" fill="white"/>
<path d="M414.403 428V391.636H427.116C429.65 391.636 431.739 392.074 433.384 392.95C435.03 393.814 436.255 394.98 437.06 396.448C437.865 397.904 438.267 399.52 438.267 401.295C438.267 402.858 437.989 404.148 437.433 405.166C436.888 406.184 436.166 406.989 435.266 407.581C434.379 408.173 433.414 408.611 432.372 408.895V409.25C433.485 409.321 434.603 409.712 435.728 410.422C436.853 411.132 437.794 412.15 438.551 413.476C439.309 414.802 439.688 416.423 439.688 418.341C439.688 420.164 439.273 421.803 438.445 423.259C437.616 424.715 436.308 425.869 434.521 426.722C432.733 427.574 430.407 428 427.543 428H414.403ZM418.807 424.094H427.543C430.419 424.094 432.461 423.537 433.668 422.425C434.888 421.3 435.497 419.939 435.497 418.341C435.497 417.11 435.183 415.973 434.556 414.932C433.929 413.878 433.035 413.038 431.875 412.411C430.715 411.771 429.342 411.452 427.756 411.452H418.807V424.094ZM418.807 407.616H426.974C428.3 407.616 429.496 407.356 430.561 406.835C431.638 406.314 432.491 405.58 433.118 404.634C433.757 403.687 434.077 402.574 434.077 401.295C434.077 399.697 433.52 398.342 432.408 397.229C431.295 396.105 429.531 395.543 427.116 395.543H418.807V407.616Z" fill="white"/>
<path d="M695.665 251H691.261C691.001 249.733 690.545 248.621 689.894 247.662C689.255 246.703 688.474 245.898 687.55 245.247C686.639 244.584 685.627 244.087 684.514 243.756C683.402 243.424 682.241 243.259 681.034 243.259C678.832 243.259 676.838 243.815 675.05 244.928C673.275 246.04 671.86 247.68 670.807 249.846C669.765 252.012 669.244 254.67 669.244 257.818C669.244 260.967 669.765 263.624 670.807 265.79C671.86 267.957 673.275 269.596 675.05 270.709C676.838 271.821 678.832 272.378 681.034 272.378C682.241 272.378 683.402 272.212 684.514 271.881C685.627 271.549 686.639 271.058 687.55 270.407C688.474 269.744 689.255 268.933 689.894 267.974C690.545 267.004 691.001 265.891 691.261 264.636H695.665C695.333 266.495 694.73 268.158 693.854 269.626C692.978 271.094 691.889 272.342 690.587 273.372C689.285 274.39 687.823 275.165 686.201 275.698C684.591 276.231 682.869 276.497 681.034 276.497C677.933 276.497 675.175 275.74 672.76 274.224C670.345 272.709 668.445 270.555 667.06 267.761C665.675 264.968 664.983 261.653 664.983 257.818C664.983 253.983 665.675 250.669 667.06 247.875C668.445 245.081 670.345 242.927 672.76 241.412C675.175 239.897 677.933 239.139 681.034 239.139C682.869 239.139 684.591 239.406 686.201 239.938C687.823 240.471 689.285 241.252 690.587 242.282C691.889 243.3 692.978 244.543 693.854 246.011C694.73 247.467 695.333 249.13 695.665 251Z" fill="white"/>
<path d="M347.625 58H336.403V21.6364H348.122C351.65 21.6364 354.668 22.3643 357.178 23.8203C359.687 25.2644 361.611 27.3419 362.948 30.0526C364.286 32.7514 364.955 35.983 364.955 39.7472C364.955 43.535 364.28 46.7962 362.93 49.5305C361.581 52.2531 359.616 54.3482 357.036 55.8161C354.455 57.272 351.318 58 347.625 58ZM340.807 54.0938H347.341C350.348 54.0938 352.839 53.5137 354.816 52.3537C356.793 51.1937 358.267 49.5424 359.237 47.3999C360.208 45.2573 360.693 42.7064 360.693 39.7472C360.693 36.8116 360.214 34.2843 359.255 32.1655C358.296 30.0348 356.864 28.4013 354.958 27.2649C353.052 26.1167 350.679 25.5426 347.838 25.5426H340.807V54.0938Z" fill="white"/>
<path d="M684.403 113V76.6364H696.69C699.543 76.6364 701.875 77.1513 703.686 78.1811C705.509 79.1991 706.858 80.5781 707.734 82.3182C708.61 84.0582 709.048 85.9995 709.048 88.142C709.048 90.2846 708.61 92.2318 707.734 93.9837C706.87 95.7356 705.533 97.1323 703.722 98.174C701.911 99.2038 699.59 99.7188 696.761 99.7188H687.955V95.8125H696.619C698.572 95.8125 700.141 95.4751 701.325 94.8004C702.508 94.1257 703.366 93.2143 703.899 92.0661C704.444 90.906 704.716 89.598 704.716 88.142C704.716 86.6861 704.444 85.384 703.899 84.2358C703.366 83.0876 702.502 82.188 701.307 81.5369C700.111 80.8741 698.525 80.5426 696.548 80.5426H688.807V113H684.403ZM726.715 113.568C724.087 113.568 721.821 112.988 719.915 111.828C718.021 110.656 716.559 109.023 715.529 106.928C714.511 104.821 714.002 102.37 714.002 99.5767C714.002 96.7831 714.511 94.321 715.529 92.1903C716.559 90.0478 717.991 88.3788 719.826 87.1832C721.673 85.9759 723.827 85.3722 726.289 85.3722C727.71 85.3722 729.112 85.6089 730.497 86.0824C731.882 86.5559 733.143 87.3253 734.279 88.3906C735.415 89.4441 736.321 90.8409 736.996 92.581C737.67 94.321 738.008 96.4635 738.008 99.0085V100.784H716.985V97.1619H733.746C733.746 95.6231 733.439 94.25 732.823 93.0426C732.219 91.8352 731.355 90.8823 730.231 90.1839C729.118 89.4856 727.804 89.1364 726.289 89.1364C724.62 89.1364 723.176 89.5507 721.957 90.3793C720.749 91.196 719.82 92.2614 719.169 93.5753C718.518 94.8892 718.192 96.2978 718.192 97.8011V100.216C718.192 102.276 718.548 104.022 719.258 105.454C719.98 106.874 720.98 107.957 722.259 108.703C723.537 109.437 725.022 109.804 726.715 109.804C727.816 109.804 728.81 109.65 729.698 109.342C730.598 109.023 731.373 108.549 732.024 107.922C732.675 107.283 733.178 106.49 733.533 105.543L737.582 106.679C737.156 108.052 736.439 109.259 735.433 110.301C734.427 111.331 733.184 112.136 731.705 112.716C730.225 113.284 728.562 113.568 726.715 113.568ZM744.382 113V85.7273H748.43V89.8466H748.714C749.212 88.4972 750.111 87.4022 751.413 86.5618C752.715 85.7214 754.183 85.3011 755.817 85.3011C756.125 85.3011 756.509 85.3071 756.971 85.3189C757.433 85.3307 757.782 85.3485 758.018 85.3722V89.6335C757.876 89.598 757.551 89.5447 757.042 89.4737C756.545 89.3909 756.018 89.3494 755.462 89.3494C754.136 89.3494 752.952 89.6276 751.911 90.1839C750.881 90.7285 750.064 91.486 749.46 92.4567C748.868 93.4155 748.572 94.5104 748.572 95.7415V113H744.382ZM762.986 113V85.7273H767.176V113H762.986ZM765.116 81.1818C764.3 81.1818 763.595 80.9036 763.003 80.3473C762.423 79.791 762.133 79.1222 762.133 78.3409C762.133 77.5597 762.423 76.8909 763.003 76.3345C763.595 75.7782 764.3 75.5 765.116 75.5C765.933 75.5 766.631 75.7782 767.211 76.3345C767.803 76.8909 768.099 77.5597 768.099 78.3409C768.099 79.1222 767.803 79.791 767.211 80.3473C766.631 80.9036 765.933 81.1818 765.116 81.1818ZM774.851 113V85.7273H778.899V89.9886H779.254C779.822 88.5327 780.74 87.4022 782.006 86.5973C783.273 85.7805 784.794 85.3722 786.57 85.3722C788.369 85.3722 789.866 85.7805 791.062 86.5973C792.269 87.4022 793.21 88.5327 793.885 89.9886H794.169C794.867 88.58 795.915 87.4614 797.312 86.6328C798.709 85.7924 800.384 85.3722 802.337 85.3722C804.775 85.3722 806.77 86.1357 808.32 87.6626C809.871 89.1778 810.646 91.5393 810.646 94.7472V113H806.456V94.7472C806.456 92.7348 805.906 91.2966 804.805 90.4325C803.704 89.5684 802.408 89.1364 800.916 89.1364C798.999 89.1364 797.513 89.7164 796.46 90.8764C795.406 92.0246 794.879 93.4806 794.879 95.2443V113H790.618V94.321C790.618 92.7704 790.115 91.5215 789.109 90.5746C788.103 89.6158 786.806 89.1364 785.22 89.1364C784.131 89.1364 783.113 89.4264 782.166 90.0064C781.231 90.5864 780.473 91.3913 779.893 92.4212C779.325 93.4392 779.041 94.617 779.041 95.9545V113H774.851ZM829.743 113.568C827.115 113.568 824.848 112.988 822.942 111.828C821.048 110.656 819.586 109.023 818.556 106.928C817.538 104.821 817.029 102.37 817.029 99.5767C817.029 96.7831 817.538 94.321 818.556 92.1903C819.586 90.0478 821.019 88.3788 822.853 87.1832C824.7 85.9759 826.854 85.3722 829.316 85.3722C830.737 85.3722 832.14 85.6089 833.525 86.0824C834.909 86.5559 836.17 87.3253 837.306 88.3906C838.443 89.4441 839.348 90.8409 840.023 92.581C840.698 94.321 841.035 96.4635 841.035 99.0085V100.784H820.012V97.1619H836.774C836.774 95.6231 836.466 94.25 835.85 93.0426C835.247 91.8352 834.383 90.8823 833.258 90.1839C832.145 89.4856 830.832 89.1364 829.316 89.1364C827.647 89.1364 826.203 89.5507 824.984 90.3793C823.777 91.196 822.847 92.2614 822.196 93.5753C821.545 94.8892 821.22 96.2978 821.22 97.8011V100.216C821.22 102.276 821.575 104.022 822.285 105.454C823.007 106.874 824.007 107.957 825.286 108.703C826.564 109.437 828.05 109.804 829.743 109.804C830.843 109.804 831.838 109.65 832.725 109.342C833.625 109.023 834.4 108.549 835.051 107.922C835.703 107.283 836.206 106.49 836.561 105.543L840.609 106.679C840.183 108.052 839.467 109.259 838.461 110.301C837.454 111.331 836.212 112.136 834.732 112.716C833.252 113.284 831.589 113.568 829.743 113.568ZM859.27 85.7273V89.2784H845.137V85.7273H859.27ZM849.256 79.1932H853.446V105.188C853.446 106.371 853.618 107.259 853.961 107.851C854.316 108.431 854.766 108.821 855.311 109.023C855.867 109.212 856.453 109.307 857.069 109.307C857.53 109.307 857.909 109.283 858.205 109.236C858.501 109.177 858.738 109.129 858.915 109.094L859.767 112.858C859.483 112.964 859.087 113.071 858.578 113.178C858.069 113.296 857.424 113.355 856.642 113.355C855.459 113.355 854.299 113.101 853.162 112.592C852.038 112.083 851.103 111.307 850.357 110.266C849.623 109.224 849.256 107.91 849.256 106.324V79.1932ZM876.715 113.568C874.087 113.568 871.821 112.988 869.915 111.828C868.021 110.656 866.559 109.023 865.529 106.928C864.511 104.821 864.002 102.37 864.002 99.5767C864.002 96.7831 864.511 94.321 865.529 92.1903C866.559 90.0478 867.991 88.3788 869.826 87.1832C871.673 85.9759 873.827 85.3722 876.289 85.3722C877.71 85.3722 879.112 85.6089 880.497 86.0824C881.882 86.5559 883.143 87.3253 884.279 88.3906C885.415 89.4441 886.321 90.8409 886.996 92.581C887.67 94.321 888.008 96.4635 888.008 99.0085V100.784H866.985V97.1619H883.746C883.746 95.6231 883.439 94.25 882.823 93.0426C882.219 91.8352 881.355 90.8823 880.231 90.1839C879.118 89.4856 877.804 89.1364 876.289 89.1364C874.62 89.1364 873.176 89.5507 871.957 90.3793C870.749 91.196 869.82 92.2614 869.169 93.5753C868.518 94.8892 868.192 96.2978 868.192 97.8011V100.216C868.192 102.276 868.548 104.022 869.258 105.454C869.98 106.874 870.98 107.957 872.259 108.703C873.537 109.437 875.022 109.804 876.715 109.804C877.816 109.804 878.81 109.65 879.698 109.342C880.598 109.023 881.373 108.549 882.024 107.922C882.675 107.283 883.178 106.49 883.533 105.543L887.582 106.679C887.156 108.052 886.439 109.259 885.433 110.301C884.427 111.331 883.184 112.136 881.705 112.716C880.225 113.284 878.562 113.568 876.715 113.568ZM894.382 113V85.7273H898.43V89.8466H898.714C899.212 88.4972 900.111 87.4022 901.413 86.5618C902.715 85.7214 904.183 85.3011 905.817 85.3011C906.125 85.3011 906.509 85.3071 906.971 85.3189C907.433 85.3307 907.782 85.3485 908.018 85.3722V89.6335C907.876 89.598 907.551 89.5447 907.042 89.4737C906.545 89.3909 906.018 89.3494 905.462 89.3494C904.136 89.3494 902.952 89.6276 901.911 90.1839C900.881 90.7285 900.064 91.486 899.46 92.4567C898.868 93.4155 898.572 94.5104 898.572 95.7415V113H894.382ZM928.753 91.4801V87.6449H950.628V91.4801H928.753ZM928.753 101.991V98.1562H950.628V101.991H928.753ZM985.575 76.1392C987.067 76.151 988.558 76.4351 990.05 76.9915C991.541 77.5478 992.902 78.4711 994.134 79.7614C995.365 81.0398 996.353 82.7857 997.099 84.9993C997.844 87.2128 998.217 89.9886 998.217 93.3267C998.217 96.5582 997.91 99.4287 997.294 101.938C996.69 104.436 995.814 106.543 994.666 108.259C993.53 109.976 992.145 111.278 990.511 112.165C988.89 113.053 987.055 113.497 985.007 113.497C982.971 113.497 981.154 113.095 979.556 112.29C977.97 111.473 976.668 110.343 975.65 108.898C974.644 107.442 973.999 105.756 973.714 103.838H978.047C978.438 105.507 979.213 106.886 980.373 107.975C981.545 109.052 983.089 109.591 985.007 109.591C987.813 109.591 990.026 108.366 991.648 105.915C993.281 103.465 994.098 100.003 994.098 95.5284H993.814C993.151 96.5227 992.364 97.3809 991.452 98.103C990.541 98.825 989.529 99.3814 988.416 99.772C987.304 100.163 986.12 100.358 984.865 100.358C982.782 100.358 980.87 99.843 979.13 98.8132C977.402 97.7715 976.017 96.3452 974.975 94.5341C973.945 92.7112 973.43 90.6278 973.43 88.2841C973.43 86.0587 973.928 84.0227 974.922 82.1761C975.928 80.3177 977.337 78.8381 979.148 77.7372C980.971 76.6364 983.113 76.1037 985.575 76.1392ZM985.575 80.0455C984.084 80.0455 982.74 80.4183 981.545 81.1641C980.361 81.898 979.42 82.8923 978.722 84.147C978.035 85.3899 977.692 86.7689 977.692 88.2841C977.692 89.7992 978.023 91.1783 978.686 92.4212C979.361 93.6522 980.278 94.6347 981.438 95.3686C982.61 96.0907 983.942 96.4517 985.433 96.4517C986.558 96.4517 987.605 96.2327 988.576 95.7947C989.547 95.3449 990.393 94.7353 991.115 93.9659C991.849 93.1847 992.423 92.3028 992.837 91.3203C993.252 90.326 993.459 89.2902 993.459 88.2131C993.459 86.7926 993.116 85.4609 992.429 84.218C991.754 82.9751 990.819 81.969 989.624 81.1996C988.44 80.4302 987.09 80.0455 985.575 80.0455ZM1005.2 113V109.804L1017.2 96.6648C1018.61 95.1259 1019.77 93.7884 1020.68 92.652C1021.59 91.5038 1022.27 90.4266 1022.71 89.4205C1023.16 88.4025 1023.38 87.3371 1023.38 86.2244C1023.38 84.946 1023.07 83.8393 1022.46 82.9041C1021.85 81.969 1021.03 81.2469 1019.97 80.7379C1018.92 80.2289 1017.74 79.9744 1016.42 79.9744C1015.02 79.9744 1013.81 80.2644 1012.76 80.8445C1011.73 81.4126 1010.93 82.2116 1010.37 83.2415C1009.81 84.2713 1009.53 85.4787 1009.53 86.8636H1005.34C1005.34 84.733 1005.83 82.8627 1006.82 81.2528C1007.8 79.643 1009.14 78.3883 1010.83 77.4886C1012.53 76.589 1014.44 76.1392 1016.56 76.1392C1018.69 76.1392 1020.58 76.589 1022.23 77.4886C1023.87 78.3883 1025.16 79.6016 1026.1 81.1286C1027.03 82.6555 1027.5 84.3542 1027.5 86.2244C1027.5 87.562 1027.26 88.87 1026.77 90.1484C1026.3 91.415 1025.47 92.8295 1024.29 94.392C1023.12 95.9427 1021.49 97.8366 1019.4 100.074L1011.24 108.81V109.094H1028.14V113H1005.2ZM1060.69 113.568C1058.13 113.568 1055.93 112.964 1054.08 111.757C1052.23 110.55 1050.81 108.887 1049.82 106.768C1048.83 104.649 1048.33 102.228 1048.33 99.5057C1048.33 96.7358 1048.84 94.2914 1049.86 92.1726C1050.89 90.0419 1052.32 88.3788 1054.15 87.1832C1056 85.9759 1058.15 85.3722 1060.62 85.3722C1062.53 85.3722 1064.26 85.7273 1065.8 86.4375C1067.34 87.1477 1068.6 88.142 1069.58 89.4205C1070.56 90.6989 1071.17 92.1903 1071.41 93.8949H1067.22C1066.9 92.652 1066.19 91.5511 1065.09 90.5923C1064 89.6217 1062.53 89.1364 1060.69 89.1364C1059.05 89.1364 1057.62 89.5625 1056.39 90.4148C1055.17 91.2552 1054.22 92.4448 1053.53 93.9837C1052.86 95.5107 1052.52 97.304 1052.52 99.3636C1052.52 101.471 1052.85 103.305 1053.51 104.868C1054.19 106.43 1055.13 107.644 1056.35 108.508C1057.58 109.372 1059.03 109.804 1060.69 109.804C1061.78 109.804 1062.76 109.615 1063.65 109.236C1064.54 108.857 1065.29 108.312 1065.91 107.602C1066.52 106.892 1066.96 106.04 1067.22 105.045H1071.41C1071.17 106.655 1070.59 108.105 1069.65 109.396C1068.73 110.674 1067.5 111.692 1065.98 112.45C1064.46 113.195 1062.7 113.568 1060.69 113.568ZM1077.54 113V85.7273H1081.58V89.9886H1081.94C1082.51 88.5327 1083.43 87.4022 1084.69 86.5973C1085.96 85.7805 1087.48 85.3722 1089.26 85.3722C1091.05 85.3722 1092.55 85.7805 1093.75 86.5973C1094.95 87.4022 1095.9 88.5327 1096.57 89.9886H1096.85C1097.55 88.58 1098.6 87.4614 1100 86.6328C1101.39 85.7924 1103.07 85.3722 1105.02 85.3722C1107.46 85.3722 1109.46 86.1357 1111.01 87.6626C1112.56 89.1778 1113.33 91.5393 1113.33 94.7472V113H1109.14V94.7472C1109.14 92.7348 1108.59 91.2966 1107.49 90.4325C1106.39 89.5684 1105.09 89.1364 1103.6 89.1364C1101.68 89.1364 1100.2 89.7164 1099.15 90.8764C1098.09 92.0246 1097.56 93.4806 1097.56 95.2443V113H1093.3V94.321C1093.3 92.7704 1092.8 91.5215 1091.79 90.5746C1090.79 89.6158 1089.49 89.1364 1087.91 89.1364C1086.82 89.1364 1085.8 89.4264 1084.85 90.0064C1083.92 90.5864 1083.16 91.3913 1082.58 92.4212C1082.01 93.4392 1081.73 94.617 1081.73 95.9545V113H1077.54Z" fill="white"/>
<line x1="131.889" y1="224.728" x2="390.728" y2="62.1113" stroke="#F8B32A" stroke-width="12" stroke-linecap="round"/>
</g>
<defs>
<clipPath id="clip0_82_298">
<rect width="1188" height="449" fill="white"/>
</clipPath>
</defs>
</svg>
