<svg width="816" height="511" viewBox="0 0 816 511" fill="none" xmlns="http://www.w3.org/2000/svg">
<g clip-path="url(#clip0_82_280)">
<path d="M641.345 229.935L378.342 391.679L130.585 225.018L390.783 61.3872L641.345 229.935Z" fill="#5FD7FF" stroke="#FFB84D" stroke-width="10"/>
<path d="M249.304 108.773V108.56C249.328 106.299 249.564 104.5 250.014 103.162C250.464 101.824 251.103 100.741 251.932 99.9126C252.76 99.084 253.755 98.3205 254.915 97.6222C255.613 97.196 256.241 96.6929 256.797 96.1129C257.353 95.5211 257.791 94.8404 258.111 94.071C258.442 93.3016 258.608 92.4493 258.608 91.5142C258.608 90.3542 258.336 89.348 257.791 88.4957C257.247 87.6435 256.519 86.9865 255.607 86.5249C254.696 86.0632 253.684 85.8324 252.571 85.8324C251.6 85.8324 250.665 86.0336 249.766 86.4361C248.866 86.8385 248.114 87.4718 247.511 88.3359C246.907 89.2 246.558 90.3305 246.463 91.7273H241.989C242.083 89.715 242.604 87.9927 243.551 86.5604C244.51 85.1281 245.771 84.0331 247.333 83.2756C248.907 82.518 250.653 82.1392 252.571 82.1392C254.654 82.1392 256.465 82.5535 258.004 83.3821C259.555 84.2107 260.75 85.3471 261.591 86.7912C262.443 88.2353 262.869 89.8807 262.869 91.7273C262.869 93.0294 262.668 94.2071 262.266 95.2607C261.875 96.3142 261.307 97.2552 260.561 98.0838C259.827 98.9124 258.939 99.6463 257.898 100.286C256.856 100.937 256.022 101.623 255.394 102.345C254.767 103.055 254.311 103.902 254.027 104.884C253.743 105.867 253.589 107.092 253.565 108.56V108.773H249.304ZM251.577 119.284C250.701 119.284 249.949 118.97 249.322 118.343C248.694 117.716 248.381 116.964 248.381 116.088C248.381 115.212 248.694 114.46 249.322 113.833C249.949 113.206 250.701 112.892 251.577 112.892C252.453 112.892 253.204 113.206 253.832 113.833C254.459 114.46 254.773 115.212 254.773 116.088C254.773 116.668 254.625 117.201 254.329 117.686C254.045 118.171 253.66 118.562 253.175 118.858C252.701 119.142 252.169 119.284 251.577 119.284Z" fill="white"/>
<path d="M81.8949 276H77.2784L90.6307 239.636H95.1761L108.528 276H103.912L93.0455 245.389H92.7614L81.8949 276ZM83.5994 261.795H102.207V265.702H83.5994V261.795Z" fill="white"/>
<path d="M414.403 428V391.636H427.116C429.65 391.636 431.739 392.074 433.384 392.95C435.03 393.814 436.255 394.98 437.06 396.448C437.865 397.904 438.267 399.52 438.267 401.295C438.267 402.858 437.989 404.148 437.433 405.166C436.888 406.184 436.166 406.989 435.266 407.581C434.379 408.173 433.414 408.611 432.372 408.895V409.25C433.485 409.321 434.603 409.712 435.728 410.422C436.853 411.132 437.794 412.15 438.551 413.476C439.309 414.802 439.688 416.423 439.688 418.341C439.688 420.164 439.273 421.803 438.445 423.259C437.616 424.715 436.308 425.869 434.521 426.722C432.733 427.574 430.407 428 427.543 428H414.403ZM418.807 424.094H427.543C430.419 424.094 432.461 423.537 433.668 422.425C434.888 421.3 435.497 419.939 435.497 418.341C435.497 417.11 435.183 415.973 434.556 414.932C433.929 413.878 433.035 413.038 431.875 412.411C430.715 411.771 429.342 411.452 427.756 411.452H418.807V424.094ZM418.807 407.616H426.974C428.3 407.616 429.496 407.356 430.561 406.835C431.638 406.314 432.491 405.58 433.118 404.634C433.757 403.687 434.077 402.574 434.077 401.295C434.077 399.697 433.52 398.342 432.408 397.229C431.295 396.105 429.531 395.543 427.116 395.543H418.807V407.616Z" fill="white"/>
<path d="M695.665 251H691.261C691.001 249.733 690.545 248.621 689.894 247.662C689.255 246.703 688.474 245.898 687.55 245.247C686.639 244.584 685.627 244.087 684.514 243.756C683.402 243.424 682.241 243.259 681.034 243.259C678.832 243.259 676.838 243.815 675.05 244.928C673.275 246.04 671.86 247.68 670.807 249.846C669.765 252.012 669.244 254.67 669.244 257.818C669.244 260.967 669.765 263.624 670.807 265.79C671.86 267.957 673.275 269.596 675.05 270.709C676.838 271.821 678.832 272.378 681.034 272.378C682.241 272.378 683.402 272.212 684.514 271.881C685.627 271.549 686.639 271.058 687.55 270.407C688.474 269.744 689.255 268.933 689.894 267.974C690.545 267.004 691.001 265.891 691.261 264.636H695.665C695.333 266.495 694.73 268.158 693.854 269.626C692.978 271.094 691.889 272.342 690.587 273.372C689.285 274.39 687.823 275.165 686.201 275.698C684.591 276.231 682.869 276.497 681.034 276.497C677.933 276.497 675.175 275.74 672.76 274.224C670.345 272.709 668.445 270.555 667.06 267.761C665.675 264.968 664.983 261.653 664.983 257.818C664.983 253.983 665.675 250.669 667.06 247.875C668.445 245.081 670.345 242.927 672.76 241.412C675.175 239.897 677.933 239.139 681.034 239.139C682.869 239.139 684.591 239.406 686.201 239.938C687.823 240.471 689.285 241.252 690.587 242.282C691.889 243.3 692.978 244.543 693.854 246.011C694.73 247.467 695.333 249.13 695.665 251Z" fill="white"/>
<path d="M347.625 58H336.403V21.6364H348.122C351.65 21.6364 354.668 22.3643 357.178 23.8203C359.687 25.2644 361.611 27.3419 362.948 30.0526C364.286 32.7514 364.955 35.983 364.955 39.7472C364.955 43.535 364.28 46.7962 362.93 49.5305C361.581 52.2531 359.616 54.3482 357.036 55.8161C354.455 57.272 351.318 58 347.625 58ZM340.807 54.0938H347.341C350.348 54.0938 352.839 53.5137 354.816 52.3537C356.793 51.1937 358.267 49.5424 359.237 47.3999C360.208 45.2573 360.693 42.7064 360.693 39.7472C360.693 36.8116 360.214 34.2843 359.255 32.1655C358.296 30.0348 356.864 28.4013 354.958 27.2649C353.052 26.1167 350.679 25.5426 347.838 25.5426H340.807V54.0938Z" fill="white"/>
<path d="M171.403 490V453.636H183.69C186.543 453.636 188.875 454.151 190.686 455.181C192.509 456.199 193.858 457.578 194.734 459.318C195.61 461.058 196.048 463 196.048 465.142C196.048 467.285 195.61 469.232 194.734 470.984C193.87 472.736 192.533 474.132 190.722 475.174C188.911 476.204 186.59 476.719 183.761 476.719H174.955V472.812H183.619C185.572 472.812 187.141 472.475 188.325 471.8C189.508 471.126 190.366 470.214 190.899 469.066C191.444 467.906 191.716 466.598 191.716 465.142C191.716 463.686 191.444 462.384 190.899 461.236C190.366 460.088 189.502 459.188 188.307 458.537C187.111 457.874 185.525 457.543 183.548 457.543H175.807V490H171.403ZM213.715 490.568C211.087 490.568 208.821 489.988 206.915 488.828C205.021 487.656 203.559 486.023 202.529 483.928C201.511 481.821 201.002 479.37 201.002 476.577C201.002 473.783 201.511 471.321 202.529 469.19C203.559 467.048 204.991 465.379 206.826 464.183C208.673 462.976 210.827 462.372 213.289 462.372C214.71 462.372 216.112 462.609 217.497 463.082C218.882 463.556 220.143 464.325 221.279 465.391C222.415 466.444 223.321 467.841 223.996 469.581C224.67 471.321 225.008 473.464 225.008 476.009V477.784H203.985V474.162H220.746C220.746 472.623 220.439 471.25 219.823 470.043C219.219 468.835 218.355 467.882 217.231 467.184C216.118 466.486 214.804 466.136 213.289 466.136C211.62 466.136 210.176 466.551 208.957 467.379C207.749 468.196 206.82 469.261 206.169 470.575C205.518 471.889 205.192 473.298 205.192 474.801V477.216C205.192 479.276 205.548 481.022 206.258 482.454C206.98 483.874 207.98 484.957 209.259 485.703C210.537 486.437 212.022 486.804 213.715 486.804C214.816 486.804 215.81 486.65 216.698 486.342C217.598 486.023 218.373 485.549 219.024 484.922C219.675 484.283 220.178 483.49 220.533 482.543L224.582 483.679C224.156 485.052 223.439 486.259 222.433 487.301C221.427 488.331 220.184 489.136 218.705 489.716C217.225 490.284 215.562 490.568 213.715 490.568ZM231.382 490V462.727H235.43V466.847H235.714C236.212 465.497 237.111 464.402 238.413 463.562C239.715 462.721 241.183 462.301 242.817 462.301C243.125 462.301 243.509 462.307 243.971 462.319C244.433 462.331 244.782 462.348 245.018 462.372V466.634C244.876 466.598 244.551 466.545 244.042 466.474C243.545 466.391 243.018 466.349 242.462 466.349C241.136 466.349 239.952 466.628 238.911 467.184C237.881 467.728 237.064 468.486 236.46 469.457C235.868 470.415 235.572 471.51 235.572 472.741V490H231.382ZM249.986 490V462.727H254.176V490H249.986ZM252.116 458.182C251.3 458.182 250.595 457.904 250.003 457.347C249.423 456.791 249.133 456.122 249.133 455.341C249.133 454.56 249.423 453.891 250.003 453.335C250.595 452.778 251.3 452.5 252.116 452.5C252.933 452.5 253.631 452.778 254.211 453.335C254.803 453.891 255.099 454.56 255.099 455.341C255.099 456.122 254.803 456.791 254.211 457.347C253.631 457.904 252.933 458.182 252.116 458.182ZM261.851 490V462.727H265.899V466.989H266.254C266.822 465.533 267.74 464.402 269.006 463.597C270.273 462.781 271.794 462.372 273.57 462.372C275.369 462.372 276.866 462.781 278.062 463.597C279.269 464.402 280.21 465.533 280.885 466.989H281.169C281.867 465.58 282.915 464.461 284.312 463.633C285.709 462.792 287.384 462.372 289.337 462.372C291.775 462.372 293.77 463.136 295.32 464.663C296.871 466.178 297.646 468.539 297.646 471.747V490H293.456V471.747C293.456 469.735 292.906 468.297 291.805 467.433C290.704 466.568 289.408 466.136 287.916 466.136C285.999 466.136 284.513 466.716 283.46 467.876C282.406 469.025 281.879 470.481 281.879 472.244V490H277.618V471.321C277.618 469.77 277.115 468.522 276.109 467.575C275.103 466.616 273.806 466.136 272.22 466.136C271.131 466.136 270.113 466.426 269.166 467.006C268.231 467.586 267.473 468.391 266.893 469.421C266.325 470.439 266.041 471.617 266.041 472.955V490H261.851ZM316.743 490.568C314.115 490.568 311.848 489.988 309.942 488.828C308.048 487.656 306.586 486.023 305.556 483.928C304.538 481.821 304.029 479.37 304.029 476.577C304.029 473.783 304.538 471.321 305.556 469.19C306.586 467.048 308.019 465.379 309.853 464.183C311.7 462.976 313.854 462.372 316.316 462.372C317.737 462.372 319.14 462.609 320.525 463.082C321.909 463.556 323.17 464.325 324.306 465.391C325.443 466.444 326.348 467.841 327.023 469.581C327.698 471.321 328.035 473.464 328.035 476.009V477.784H307.012V474.162H323.774C323.774 472.623 323.466 471.25 322.85 470.043C322.247 468.835 321.383 467.882 320.258 467.184C319.145 466.486 317.832 466.136 316.316 466.136C314.647 466.136 313.203 466.551 311.984 467.379C310.777 468.196 309.847 469.261 309.196 470.575C308.545 471.889 308.22 473.298 308.22 474.801V477.216C308.22 479.276 308.575 481.022 309.285 482.454C310.007 483.874 311.007 484.957 312.286 485.703C313.564 486.437 315.05 486.804 316.743 486.804C317.843 486.804 318.838 486.65 319.725 486.342C320.625 486.023 321.4 485.549 322.051 484.922C322.703 484.283 323.206 483.49 323.561 482.543L327.609 483.679C327.183 485.052 326.467 486.259 325.461 487.301C324.454 488.331 323.212 489.136 321.732 489.716C320.252 490.284 318.589 490.568 316.743 490.568ZM346.27 462.727V466.278H332.137V462.727H346.27ZM336.256 456.193H340.446V482.188C340.446 483.371 340.618 484.259 340.961 484.851C341.316 485.431 341.766 485.821 342.311 486.023C342.867 486.212 343.453 486.307 344.069 486.307C344.53 486.307 344.909 486.283 345.205 486.236C345.501 486.177 345.738 486.129 345.915 486.094L346.767 489.858C346.483 489.964 346.087 490.071 345.578 490.178C345.069 490.296 344.424 490.355 343.642 490.355C342.459 490.355 341.299 490.101 340.162 489.592C339.038 489.083 338.103 488.307 337.357 487.266C336.623 486.224 336.256 484.91 336.256 483.324V456.193ZM363.715 490.568C361.087 490.568 358.821 489.988 356.915 488.828C355.021 487.656 353.559 486.023 352.529 483.928C351.511 481.821 351.002 479.37 351.002 476.577C351.002 473.783 351.511 471.321 352.529 469.19C353.559 467.048 354.991 465.379 356.826 464.183C358.673 462.976 360.827 462.372 363.289 462.372C364.71 462.372 366.112 462.609 367.497 463.082C368.882 463.556 370.143 464.325 371.279 465.391C372.415 466.444 373.321 467.841 373.996 469.581C374.67 471.321 375.008 473.464 375.008 476.009V477.784H353.985V474.162H370.746C370.746 472.623 370.439 471.25 369.823 470.043C369.219 468.835 368.355 467.882 367.231 467.184C366.118 466.486 364.804 466.136 363.289 466.136C361.62 466.136 360.176 466.551 358.957 467.379C357.749 468.196 356.82 469.261 356.169 470.575C355.518 471.889 355.192 473.298 355.192 474.801V477.216C355.192 479.276 355.548 481.022 356.258 482.454C356.98 483.874 357.98 484.957 359.259 485.703C360.537 486.437 362.022 486.804 363.715 486.804C364.816 486.804 365.81 486.65 366.698 486.342C367.598 486.023 368.373 485.549 369.024 484.922C369.675 484.283 370.178 483.49 370.533 482.543L374.582 483.679C374.156 485.052 373.439 486.259 372.433 487.301C371.427 488.331 370.184 489.136 368.705 489.716C367.225 490.284 365.562 490.568 363.715 490.568ZM381.382 490V462.727H385.43V466.847H385.714C386.212 465.497 387.111 464.402 388.413 463.562C389.715 462.721 391.183 462.301 392.817 462.301C393.125 462.301 393.509 462.307 393.971 462.319C394.433 462.331 394.782 462.348 395.018 462.372V466.634C394.876 466.598 394.551 466.545 394.042 466.474C393.545 466.391 393.018 466.349 392.462 466.349C391.136 466.349 389.952 466.628 388.911 467.184C387.881 467.728 387.064 468.486 386.46 469.457C385.868 470.415 385.572 471.51 385.572 472.741V490H381.382ZM415.753 468.48V464.645H437.628V468.48H415.753ZM415.753 478.991V475.156H437.628V478.991H415.753ZM472.575 453.139C474.067 453.151 475.558 453.435 477.05 453.991C478.541 454.548 479.902 455.471 481.134 456.761C482.365 458.04 483.353 459.786 484.099 461.999C484.844 464.213 485.217 466.989 485.217 470.327C485.217 473.558 484.91 476.429 484.294 478.938C483.69 481.436 482.814 483.543 481.666 485.259C480.53 486.976 479.145 488.278 477.511 489.165C475.89 490.053 474.055 490.497 472.007 490.497C469.971 490.497 468.154 490.095 466.556 489.29C464.97 488.473 463.668 487.343 462.65 485.898C461.644 484.442 460.999 482.756 460.714 480.838H465.047C465.438 482.507 466.213 483.886 467.373 484.975C468.545 486.052 470.089 486.591 472.007 486.591C474.813 486.591 477.026 485.366 478.648 482.915C480.281 480.465 481.098 477.003 481.098 472.528H480.814C480.151 473.523 479.364 474.381 478.452 475.103C477.541 475.825 476.529 476.381 475.416 476.772C474.304 477.163 473.12 477.358 471.865 477.358C469.782 477.358 467.87 476.843 466.13 475.813C464.402 474.772 463.017 473.345 461.975 471.534C460.945 469.711 460.43 467.628 460.43 465.284C460.43 463.059 460.928 461.023 461.922 459.176C462.928 457.318 464.337 455.838 466.148 454.737C467.971 453.636 470.113 453.104 472.575 453.139ZM472.575 457.045C471.084 457.045 469.74 457.418 468.545 458.164C467.361 458.898 466.42 459.892 465.722 461.147C465.035 462.39 464.692 463.769 464.692 465.284C464.692 466.799 465.023 468.178 465.686 469.421C466.361 470.652 467.278 471.635 468.438 472.369C469.61 473.091 470.942 473.452 472.433 473.452C473.558 473.452 474.605 473.233 475.576 472.795C476.547 472.345 477.393 471.735 478.115 470.966C478.849 470.185 479.423 469.303 479.837 468.32C480.252 467.326 480.459 466.29 480.459 465.213C480.459 463.793 480.116 462.461 479.429 461.218C478.754 459.975 477.819 458.969 476.624 458.2C475.44 457.43 474.09 457.045 472.575 457.045ZM492.2 490V486.804L504.203 473.665C505.611 472.126 506.771 470.788 507.683 469.652C508.594 468.504 509.269 467.427 509.707 466.42C510.157 465.402 510.382 464.337 510.382 463.224C510.382 461.946 510.074 460.839 509.458 459.904C508.855 458.969 508.026 458.247 506.972 457.738C505.919 457.229 504.735 456.974 503.421 456.974C502.025 456.974 500.805 457.264 499.764 457.844C498.734 458.413 497.935 459.212 497.367 460.241C496.81 461.271 496.532 462.479 496.532 463.864H492.342C492.342 461.733 492.833 459.863 493.816 458.253C494.798 456.643 496.136 455.388 497.828 454.489C499.533 453.589 501.445 453.139 503.563 453.139C505.694 453.139 507.582 453.589 509.227 454.489C510.873 455.388 512.163 456.602 513.098 458.129C514.033 459.656 514.501 461.354 514.501 463.224C514.501 464.562 514.258 465.87 513.773 467.148C513.299 468.415 512.471 469.83 511.287 471.392C510.115 472.943 508.488 474.837 506.404 477.074L498.237 485.81V486.094H515.14V490H492.2ZM547.686 490.568C545.129 490.568 542.928 489.964 541.081 488.757C539.235 487.55 537.814 485.887 536.82 483.768C535.825 481.649 535.328 479.228 535.328 476.506C535.328 473.736 535.837 471.291 536.855 469.173C537.885 467.042 539.317 465.379 541.152 464.183C542.999 462.976 545.153 462.372 547.615 462.372C549.533 462.372 551.261 462.727 552.8 463.438C554.339 464.148 555.599 465.142 556.582 466.42C557.564 467.699 558.174 469.19 558.411 470.895H554.22C553.901 469.652 553.191 468.551 552.09 467.592C551.001 466.622 549.533 466.136 547.686 466.136C546.053 466.136 544.62 466.562 543.389 467.415C542.17 468.255 541.217 469.445 540.531 470.984C539.856 472.511 539.519 474.304 539.519 476.364C539.519 478.471 539.85 480.305 540.513 481.868C541.188 483.43 542.135 484.644 543.354 485.508C544.585 486.372 546.029 486.804 547.686 486.804C548.775 486.804 549.764 486.615 550.651 486.236C551.539 485.857 552.291 485.312 552.906 484.602C553.522 483.892 553.96 483.04 554.22 482.045H558.411C558.174 483.655 557.588 485.105 556.653 486.396C555.73 487.674 554.504 488.692 552.977 489.45C551.462 490.195 549.699 490.568 547.686 490.568ZM564.536 490V462.727H568.585V466.989H568.94C569.508 465.533 570.425 464.402 571.692 463.597C572.959 462.781 574.48 462.372 576.255 462.372C578.054 462.372 579.552 462.781 580.747 463.597C581.955 464.402 582.896 465.533 583.57 466.989H583.855C584.553 465.58 585.601 464.461 586.997 463.633C588.394 462.792 590.069 462.372 592.022 462.372C594.461 462.372 596.455 463.136 598.006 464.663C599.557 466.178 600.332 468.539 600.332 471.747V490H596.142V471.747C596.142 469.735 595.591 468.297 594.49 467.433C593.389 466.568 592.093 466.136 590.602 466.136C588.684 466.136 587.199 466.716 586.145 467.876C585.092 469.025 584.565 470.481 584.565 472.244V490H580.303V471.321C580.303 469.77 579.8 468.522 578.794 467.575C577.788 466.616 576.492 466.136 574.906 466.136C573.817 466.136 572.799 466.426 571.852 467.006C570.917 467.586 570.159 468.391 569.579 469.421C569.011 470.439 568.727 471.617 568.727 472.955V490H564.536Z" fill="#FFB84D"/>
</g>
<defs>
<clipPath id="clip0_82_280">
<rect width="816" height="511" fill="white"/>
</clipPath>
</defs>
</svg>
