<svg width="816" height="511" viewBox="0 0 816 511" fill="none" xmlns="http://www.w3.org/2000/svg">
<g clip-path="url(#clip0_82_266)">
<path d="M641.345 229.935L378.342 391.679L130.585 225.018L390.783 61.3872L641.345 229.935Z" fill="#5FD7FF" stroke="white" stroke-width="10"/>
<path d="M81.8949 276H77.2784L90.6307 239.636H95.1761L108.528 276H103.912L93.0455 245.389H92.7614L81.8949 276ZM83.5994 261.795H102.207V265.702H83.5994V261.795Z" fill="white"/>
<path d="M414.403 428V391.636H427.116C429.65 391.636 431.739 392.074 433.384 392.95C435.03 393.814 436.255 394.98 437.06 396.448C437.865 397.904 438.267 399.52 438.267 401.295C438.267 402.858 437.989 404.148 437.433 405.166C436.888 406.184 436.166 406.989 435.266 407.581C434.379 408.173 433.414 408.611 432.372 408.895V409.25C433.485 409.321 434.603 409.712 435.728 410.422C436.853 411.132 437.794 412.15 438.551 413.476C439.309 414.802 439.688 416.423 439.688 418.341C439.688 420.164 439.273 421.803 438.445 423.259C437.616 424.715 436.308 425.869 434.521 426.722C432.733 427.574 430.407 428 427.543 428H414.403ZM418.807 424.094H427.543C430.419 424.094 432.461 423.537 433.668 422.425C434.888 421.3 435.497 419.939 435.497 418.341C435.497 417.11 435.183 415.973 434.556 414.932C433.929 413.878 433.035 413.038 431.875 412.411C430.715 411.771 429.342 411.452 427.756 411.452H418.807V424.094ZM418.807 407.616H426.974C428.3 407.616 429.496 407.356 430.561 406.835C431.638 406.314 432.491 405.58 433.118 404.634C433.757 403.687 434.077 402.574 434.077 401.295C434.077 399.697 433.52 398.342 432.408 397.229C431.295 396.105 429.531 395.543 427.116 395.543H418.807V407.616Z" fill="white"/>
<path d="M695.665 251H691.261C691.001 249.733 690.545 248.621 689.894 247.662C689.255 246.703 688.474 245.898 687.55 245.247C686.639 244.584 685.627 244.087 684.514 243.756C683.402 243.424 682.241 243.259 681.034 243.259C678.832 243.259 676.838 243.815 675.05 244.928C673.275 246.04 671.86 247.68 670.807 249.846C669.765 252.012 669.244 254.67 669.244 257.818C669.244 260.967 669.765 263.624 670.807 265.79C671.86 267.957 673.275 269.596 675.05 270.709C676.838 271.821 678.832 272.378 681.034 272.378C682.241 272.378 683.402 272.212 684.514 271.881C685.627 271.549 686.639 271.058 687.55 270.407C688.474 269.744 689.255 268.933 689.894 267.974C690.545 267.004 691.001 265.891 691.261 264.636H695.665C695.333 266.495 694.73 268.158 693.854 269.626C692.978 271.094 691.889 272.342 690.587 273.372C689.285 274.39 687.823 275.165 686.201 275.698C684.591 276.231 682.869 276.497 681.034 276.497C677.933 276.497 675.175 275.74 672.76 274.224C670.345 272.709 668.445 270.555 667.06 267.761C665.675 264.968 664.983 261.653 664.983 257.818C664.983 253.983 665.675 250.669 667.06 247.875C668.445 245.081 670.345 242.927 672.76 241.412C675.175 239.897 677.933 239.139 681.034 239.139C682.869 239.139 684.591 239.406 686.201 239.938C687.823 240.471 689.285 241.252 690.587 242.282C691.889 243.3 692.978 244.543 693.854 246.011C694.73 247.467 695.333 249.13 695.665 251Z" fill="white"/>
<path d="M347.625 58H336.403V21.6364H348.122C351.65 21.6364 354.668 22.3643 357.178 23.8203C359.687 25.2644 361.611 27.3419 362.948 30.0526C364.286 32.7514 364.955 35.983 364.955 39.7472C364.955 43.535 364.28 46.7962 362.93 49.5305C361.581 52.2531 359.616 54.3482 357.036 55.8161C354.455 57.272 351.318 58 347.625 58ZM340.807 54.0938H347.341C350.348 54.0938 352.839 53.5137 354.816 52.3537C356.793 51.1937 358.267 49.5424 359.237 47.3999C360.208 45.2573 360.693 42.7064 360.693 39.7472C360.693 36.8116 360.214 34.2843 359.255 32.1655C358.296 30.0348 356.864 28.4013 354.958 27.2649C353.052 26.1167 350.679 25.5426 347.838 25.5426H340.807V54.0938Z" fill="white"/>
</g>
<defs>
<clipPath id="clip0_82_266">
<rect width="816" height="511" fill="white"/>
</clipPath>
</defs>
</svg>
