<svg width="1035" height="457" viewBox="0 0 1035 457" fill="none" xmlns="http://www.w3.org/2000/svg">
<path d="M935.072 69L813.634 368H172.551L299.311 69H935.072Z" fill="#5FD7FF" stroke="white" stroke-width="10"/>
<path d="M121.895 388H117.278L130.631 351.636H135.176L148.528 388H143.912L133.045 357.389H132.761L121.895 388ZM123.599 373.795H142.207V377.702H123.599V373.795Z" fill="white"/>
<path d="M836.403 388V351.636H849.116C851.65 351.636 853.739 352.074 855.384 352.95C857.03 353.814 858.255 354.98 859.06 356.448C859.865 357.904 860.267 359.52 860.267 361.295C860.267 362.858 859.989 364.148 859.433 365.166C858.888 366.184 858.166 366.989 857.266 367.581C856.379 368.173 855.414 368.611 854.372 368.895V369.25C855.485 369.321 856.603 369.712 857.728 370.422C858.853 371.132 859.794 372.15 860.551 373.476C861.309 374.802 861.688 376.423 861.688 378.341C861.688 380.164 861.273 381.803 860.445 383.259C859.616 384.715 858.308 385.869 856.521 386.722C854.733 387.574 852.407 388 849.543 388H836.403ZM840.807 384.094H849.543C852.419 384.094 854.461 383.537 855.668 382.425C856.888 381.3 857.497 379.939 857.497 378.341C857.497 377.11 857.183 375.973 856.556 374.932C855.929 373.878 855.035 373.038 853.875 372.411C852.715 371.771 851.342 371.452 849.756 371.452H840.807V384.094ZM840.807 367.616H848.974C850.3 367.616 851.496 367.356 852.561 366.835C853.638 366.314 854.491 365.58 855.118 364.634C855.757 363.687 856.077 362.574 856.077 361.295C856.077 359.697 855.52 358.342 854.408 357.229C853.295 356.105 851.531 355.543 849.116 355.543H840.807V367.616Z" fill="white"/>
<path d="M988.665 57H984.261C984.001 55.7334 983.545 54.6207 982.894 53.6619C982.255 52.7031 981.474 51.8982 980.55 51.2472C979.639 50.5843 978.627 50.0871 977.514 49.7557C976.402 49.4242 975.241 49.2585 974.034 49.2585C971.832 49.2585 969.838 49.8149 968.05 50.9276C966.275 52.0402 964.86 53.6797 963.807 55.8459C962.765 58.0121 962.244 60.6695 962.244 63.8182C962.244 66.9669 962.765 69.6243 963.807 71.7905C964.86 73.9567 966.275 75.5961 968.05 76.7088C969.838 77.8215 971.832 78.3778 974.034 78.3778C975.241 78.3778 976.402 78.2121 977.514 77.8807C978.627 77.5492 979.639 77.058 980.55 76.407C981.474 75.7441 982.255 74.9332 982.894 73.9744C983.545 73.0038 984.001 71.8911 984.261 70.6364H988.665C988.333 72.4948 987.73 74.1579 986.854 75.6257C985.978 77.0935 984.889 78.3423 983.587 79.3722C982.285 80.3902 980.823 81.1655 979.201 81.6982C977.591 82.2308 975.869 82.4972 974.034 82.4972C970.933 82.4972 968.175 81.7396 965.76 80.2244C963.345 78.7093 961.445 76.5549 960.06 73.7614C958.675 70.9678 957.983 67.6534 957.983 63.8182C957.983 59.983 958.675 56.6686 960.06 53.875C961.445 51.0814 963.345 48.9271 965.76 47.4119C968.175 45.8968 970.933 45.1392 974.034 45.1392C975.869 45.1392 977.591 45.4055 979.201 45.9382C980.823 46.4709 982.285 47.2521 983.587 48.282C984.889 49.3 985.978 50.5428 986.854 52.0107C987.73 53.4666 988.333 55.1297 988.665 57Z" fill="white"/>
<path d="M262.625 82H251.403V45.6364H263.122C266.65 45.6364 269.668 46.3643 272.178 47.8203C274.687 49.2644 276.611 51.3419 277.948 54.0526C279.286 56.7514 279.955 59.983 279.955 63.7472C279.955 67.535 279.28 70.7962 277.93 73.5305C276.581 76.2531 274.616 78.3482 272.036 79.8161C269.455 81.272 266.318 82 262.625 82ZM255.807 78.0938H262.341C265.348 78.0938 267.839 77.5137 269.816 76.3537C271.793 75.1937 273.267 73.5424 274.237 71.3999C275.208 69.2573 275.693 66.7064 275.693 63.7472C275.693 60.8116 275.214 58.2843 274.255 56.1655C273.296 54.0348 271.864 52.4013 269.958 51.2649C268.052 50.1167 265.679 49.5426 262.838 49.5426H255.807V78.0938Z" fill="white"/>
</svg>
