<svg width="302" height="202" viewBox="0 0 302 202" fill="none" xmlns="http://www.w3.org/2000/svg">
<line x1="0.5" y1="201.01" x2="0.5" y2="1.00002" stroke="#4F4F4F"/>
<line x1="1" y1="0.5" x2="301" y2="0.5" stroke="#4F4F4F"/>
<line x1="1" y1="80.5" x2="301" y2="80.5" stroke="#4F4F4F"/>
<line x1="1" y1="160.5" x2="301" y2="160.5" stroke="#4F4F4F"/>
<line x1="1" y1="40.5" x2="301" y2="40.5" stroke="#4F4F4F"/>
<line x1="1" y1="120.5" x2="301" y2="120.5" stroke="#4F4F4F"/>
<line x1="1" y1="200.5" x2="301" y2="200.5" stroke="#4F4F4F"/>
<line x1="1" y1="20.5" x2="301" y2="20.5" stroke="#4F4F4F"/>
<line x1="1" y1="100.5" x2="301" y2="100.5" stroke="#4F4F4F"/>
<line x1="1" y1="180.5" x2="301" y2="180.5" stroke="#4F4F4F"/>
<line x1="1" y1="60.5" x2="301" y2="60.5" stroke="#4F4F4F"/>
<line x1="1" y1="140.5" x2="301" y2="140.5" stroke="#4F4F4F"/>
<line x1="160.5" y1="201.01" x2="160.5" y2="1.00002" stroke="#4F4F4F"/>
<line x1="80.5" y1="201.01" x2="80.5" y2="1.00002" stroke="#4F4F4F"/>
<line x1="240.5" y1="201.01" x2="240.5" y2="1.00002" stroke="#4F4F4F"/>
<line x1="40.5" y1="201.01" x2="40.5" y2="1.00002" stroke="#4F4F4F"/>
<line x1="200.5" y1="201.01" x2="200.5" y2="1.00002" stroke="#4F4F4F"/>
<line x1="120.5" y1="201.01" x2="120.5" y2="1.00002" stroke="#4F4F4F"/>
<line x1="280.5" y1="201.01" x2="280.5" y2="1.00002" stroke="#4F4F4F"/>
<line x1="20.5" y1="201.01" x2="20.5" y2="1.00002" stroke="#4F4F4F"/>
<line x1="180.5" y1="201.01" x2="180.5" y2="1.00002" stroke="#4F4F4F"/>
<line x1="100.5" y1="201.01" x2="100.5" y2="1.00002" stroke="#4F4F4F"/>
<line x1="260.5" y1="201.01" x2="260.5" y2="1.00002" stroke="#4F4F4F"/>
<line x1="60.5" y1="201.01" x2="60.5" y2="1.00002" stroke="#4F4F4F"/>
<line x1="220.5" y1="201.01" x2="220.5" y2="1.00002" stroke="#4F4F4F"/>
<line x1="140.5" y1="201.01" x2="140.5" y2="1.00002" stroke="#4F4F4F"/>
<line x1="300.5" y1="201.01" x2="300.5" y2="1.00002" stroke="#4F4F4F"/>
<rect x="138.439" y="92.7225" width="14.1731" height="14.1731" transform="rotate(-138 138.439 92.7225)" fill="#D9D9D9" stroke="#FF7B00"/>
<path d="M260.122 179.158L138 71" stroke="#00B7FF" stroke-width="3" stroke-linecap="round"/>
<line x1="40.5" y1="179.5" x2="260.5" y2="179.5" stroke="white" stroke-width="3" stroke-linecap="round"/>
<path d="M41 179L181 21" stroke="#FFDD00" stroke-width="3" stroke-linecap="round"/>
<path d="M261 179L181 21" stroke="white" stroke-width="3" stroke-linecap="round"/>
<path d="M193.537 30H190.767L198.778 8.18182H201.506L209.517 30H206.747L200.227 11.6335H200.057L193.537 30ZM194.56 21.4773H205.724V23.821H194.56V21.4773Z" fill="white"/>
<path d="M290.199 172H287.557C287.401 171.24 287.127 170.572 286.737 169.997C286.353 169.422 285.884 168.939 285.33 168.548C284.783 168.151 284.176 167.852 283.509 167.653C282.841 167.455 282.145 167.355 281.42 167.355C280.099 167.355 278.903 167.689 277.83 168.357C276.765 169.024 275.916 170.008 275.284 171.308C274.659 172.607 274.347 174.202 274.347 176.091C274.347 177.98 274.659 179.575 275.284 180.874C275.916 182.174 276.765 183.158 277.83 183.825C278.903 184.493 280.099 184.827 281.42 184.827C282.145 184.827 282.841 184.727 283.509 184.528C284.176 184.33 284.783 184.035 285.33 183.644C285.884 183.246 286.353 182.76 286.737 182.185C287.127 181.602 287.401 180.935 287.557 180.182H290.199C290 181.297 289.638 182.295 289.112 183.175C288.587 184.056 287.933 184.805 287.152 185.423C286.371 186.034 285.494 186.499 284.521 186.819C283.555 187.138 282.521 187.298 281.42 187.298C279.56 187.298 277.905 186.844 276.456 185.935C275.007 185.026 273.867 183.733 273.036 182.057C272.205 180.381 271.79 178.392 271.79 176.091C271.79 173.79 272.205 171.801 273.036 170.125C273.867 168.449 275.007 167.156 276.456 166.247C277.905 165.338 279.56 164.884 281.42 164.884C282.521 164.884 283.555 165.043 284.521 165.363C285.494 165.683 286.371 166.151 287.152 166.769C287.933 167.38 288.587 168.126 289.112 169.006C289.638 169.88 290 170.878 290.199 172Z" fill="white"/>
<path d="M13.642 190V168.182H21.2699C22.7898 168.182 24.0433 168.445 25.0305 168.97C26.0178 169.489 26.7528 170.188 27.2358 171.069C27.7188 171.942 27.9602 172.912 27.9602 173.977C27.9602 174.915 27.7933 175.689 27.4595 176.3C27.1328 176.911 26.6996 177.393 26.1598 177.749C25.6271 178.104 25.0483 178.366 24.4233 178.537V178.75C25.0909 178.793 25.7621 179.027 26.4368 179.453C27.1115 179.879 27.6761 180.49 28.1307 181.286C28.5852 182.081 28.8125 183.054 28.8125 184.205C28.8125 185.298 28.5639 186.282 28.0668 187.156C27.5696 188.029 26.7848 188.722 25.7124 189.233C24.6399 189.744 23.2443 190 21.5256 190H13.642ZM16.2841 187.656H21.5256C23.2514 187.656 24.4766 187.322 25.201 186.655C25.9325 185.98 26.2983 185.163 26.2983 184.205C26.2983 183.466 26.1101 182.784 25.7337 182.159C25.3572 181.527 24.821 181.023 24.125 180.646C23.429 180.263 22.6051 180.071 21.6534 180.071H16.2841V187.656ZM16.2841 177.77H21.1847C21.9801 177.77 22.6974 177.614 23.3366 177.301C23.983 176.989 24.4943 176.548 24.8707 175.98C25.2543 175.412 25.446 174.744 25.446 173.977C25.446 173.018 25.1122 172.205 24.4446 171.538C23.777 170.863 22.7188 170.526 21.2699 170.526H16.2841V177.77Z" fill="white"/>
<path d="M91.0204 106.932L80.4476 96.9423L83.9399 93.246C84.6358 92.5095 85.3371 92.0223 86.0437 91.7846C86.747 91.5435 87.4225 91.5076 88.0704 91.6768C88.7148 91.8427 89.2952 92.1696 89.8114 92.6573C90.2657 93.0866 90.5645 93.5219 90.7076 93.9633C90.854 94.4012 90.8897 94.8323 90.8147 95.2565C90.7429 95.6772 90.6052 96.078 90.4016 96.4589L90.5049 96.5564C90.8312 96.2524 91.2521 96.0345 91.7675 95.9026C92.2829 95.7708 92.8374 95.7768 93.431 95.9207C94.0245 96.0647 94.6001 96.4 95.1577 96.9268C95.6877 97.4276 96.0505 97.9984 96.2462 98.6393C96.4419 99.2802 96.4182 99.9775 96.175 100.731C95.9318 101.485 95.4167 102.278 94.6298 103.111L91.0204 106.932ZM91.0943 104.578L93.494 102.038C94.2842 101.202 94.6834 100.455 94.6915 99.7987C94.6995 99.1353 94.4712 98.5841 94.0065 98.1452C93.6486 97.807 93.232 97.586 92.7568 97.4823C92.2782 97.3753 91.7883 97.4043 91.2872 97.5692C90.7827 97.7309 90.3126 98.0423 89.8769 98.5035L87.4186 101.105L91.0943 104.578ZM86.3035 100.052L88.5471 97.6771C88.9113 97.2916 89.164 96.8725 89.3053 96.4197C89.4497 95.9634 89.4705 95.514 89.3675 95.0714C89.2677 94.6255 89.032 94.2269 88.6603 93.8757C88.1957 93.4367 87.6488 93.2261 87.0196 93.244C86.387 93.2586 85.739 93.6169 85.0757 94.319L82.793 96.7351L86.3035 100.052ZM102.188 95.4838C101.713 95.9863 101.188 96.3529 100.612 96.5836C100.032 96.8111 99.4476 96.8746 98.8586 96.774C98.2661 96.6703 97.7118 96.3745 97.1955 95.8868C96.7412 95.4575 96.4575 95.0201 96.3444 94.5745C96.2278 94.1257 96.2301 93.6751 96.3513 93.2228C96.4724 92.7706 96.6641 92.3264 96.9264 91.8902C97.1885 91.4473 97.4694 91.019 97.7691 90.6052C98.1624 90.0649 98.485 89.6303 98.737 89.3017C98.9887 88.9663 99.14 88.6924 99.1909 88.4799C99.2451 88.264 99.1741 88.0634 98.9779 87.878L98.9366 87.839C98.4272 87.3578 97.8997 87.1232 97.3541 87.1353C96.8118 87.144 96.2756 87.4289 95.7456 87.9899C95.196 88.5715 94.8925 89.1478 94.835 89.7189C94.7775 90.2899 94.83 90.7791 94.9922 91.1865L93.4867 91.9527C93.1999 91.2909 93.0849 90.6611 93.1416 90.0633C93.1982 89.4588 93.3666 88.9014 93.6468 88.3911C93.9269 87.874 94.2555 87.4159 94.6327 87.0166C94.8734 86.7619 95.1807 86.4987 95.5549 86.2268C95.9288 85.9482 96.355 85.7419 96.8335 85.6077C97.3153 85.4701 97.8413 85.4753 98.4115 85.6232C98.9817 85.7712 99.5818 86.1427 100.212 86.7377L105.436 91.6738L104.285 92.8922L103.211 91.8776L103.153 91.9396C103.247 92.1848 103.301 92.4964 103.315 92.8745C103.329 93.2526 103.254 93.6667 103.089 94.1168C102.924 94.567 102.624 95.0226 102.188 95.4838ZM101.269 94.2639C101.724 93.7821 102.014 93.2866 102.136 92.7773C102.263 92.2646 102.256 91.7825 102.115 91.331C101.979 90.876 101.745 90.4924 101.415 90.1802L100.3 89.1267C100.313 89.2368 100.262 89.4041 100.148 89.6284C100.034 89.846 99.888 90.0862 99.7112 90.3492C99.5343 90.6054 99.3588 90.8532 99.1847 91.0926C99.0104 91.3253 98.8701 91.5152 98.7638 91.6622C98.5059 92.0179 98.2934 92.3773 98.1261 92.7404C97.9587 93.0968 97.8866 93.4455 97.9097 93.7865C97.9325 94.1208 98.0989 94.4343 98.4086 94.7269C98.8319 95.1269 99.3 95.2727 99.8127 95.1644C100.325 95.0494 100.811 94.7492 101.269 94.2639ZM106.69 78.0192L105.966 79.4063C105.718 79.3028 105.445 79.2369 105.146 79.2085C104.847 79.1734 104.534 79.2158 104.205 79.3357C103.877 79.4555 103.546 79.6927 103.211 80.0472C102.752 80.5325 102.482 81.0425 102.4 81.5774C102.318 82.1056 102.447 82.5307 102.788 82.8526C103.091 83.1387 103.434 83.2546 103.818 83.2002C104.201 83.1457 104.673 82.9398 105.232 82.5823L106.633 81.6783C107.475 81.1319 108.238 80.8524 108.921 80.8397C109.6 80.8238 110.217 81.0776 110.771 81.6011C111.225 82.0303 111.508 82.5448 111.619 83.1446C111.733 83.7409 111.673 84.3689 111.441 85.0286C111.208 85.6884 110.801 86.3262 110.219 86.9423C109.455 87.7511 108.647 88.2547 107.795 88.453C106.943 88.6514 106.113 88.5024 105.306 88.0062L106.109 86.5766C106.64 86.8697 107.157 86.9639 107.66 86.8592C108.166 86.7511 108.654 86.4475 109.126 85.9484C109.662 85.3805 109.968 84.8159 110.042 84.2544C110.117 83.6863 109.983 83.2412 109.643 82.9193C109.367 82.6592 109.046 82.5377 108.678 82.5548C108.306 82.5687 107.886 82.7314 107.416 83.0428L105.857 84.0717C104.999 84.6353 104.228 84.9168 103.545 84.9161C102.861 84.9087 102.246 84.6465 101.699 84.1295C101.251 83.7067 100.974 83.2072 100.868 82.6308C100.764 82.0509 100.821 81.4497 101.037 80.8273C101.257 80.2014 101.631 79.6097 102.158 79.0522C102.899 78.2675 103.653 77.814 104.42 77.6917C105.19 77.5661 105.947 77.6752 106.69 78.0192ZM118.02 78.6862C117.298 79.4502 116.506 79.95 115.646 80.1854C114.785 80.4142 113.908 80.3905 113.016 80.1143C112.124 79.8315 111.271 79.3064 110.459 78.539C109.647 77.7716 109.071 76.9472 108.731 76.0659C108.391 75.178 108.299 74.303 108.456 73.4411C108.612 72.5726 109.028 71.7803 109.704 71.0645C110.095 70.6515 110.549 70.3087 111.067 70.0361C111.585 69.7635 112.155 69.6083 112.777 69.5705C113.395 69.5295 114.05 69.6499 114.742 69.9318C115.433 70.2136 116.149 70.7041 116.888 71.4032L117.405 71.891L111.63 78.0034L110.577 77.0083L115.181 72.1349C114.734 71.7122 114.25 71.4245 113.73 71.2718C113.213 71.1156 112.698 71.1051 112.186 71.2402C111.678 71.3719 111.215 71.658 110.799 72.0985C110.34 72.5838 110.064 73.1175 109.97 73.6996C109.876 74.275 109.93 74.8378 110.134 75.3881C110.337 75.9383 110.657 76.4199 111.094 76.8329L111.796 77.4962C112.395 78.062 113 78.4384 113.612 78.6254C114.223 78.8056 114.813 78.8123 115.381 78.6455C115.945 78.4754 116.46 78.1443 116.925 77.6521C117.228 77.332 117.456 77.0007 117.61 76.658C117.765 76.3086 117.84 75.9531 117.836 75.5915C117.829 75.2266 117.737 74.8625 117.559 74.4991L119.002 73.6342C119.284 74.1353 119.438 74.6752 119.465 75.2539C119.488 75.8293 119.38 76.4118 119.142 77.0014C118.901 77.5877 118.527 78.1493 118.02 78.6862Z" fill="#FFDD00"/>
<path d="M155.618 116.458L165.197 105.512L166.522 106.672L162.257 111.547L168.093 116.654L172.359 111.779L173.684 112.939L164.106 123.886L162.78 122.726L167.064 117.83L161.228 112.722L156.944 117.618L155.618 116.458ZM169.881 129.241C169.09 128.549 168.56 127.777 168.292 126.926C168.031 126.074 168.021 125.198 168.263 124.296C168.511 123.393 169.004 122.522 169.739 121.681C170.475 120.84 171.277 120.233 172.145 119.859C173.019 119.486 173.89 119.361 174.757 119.484C175.631 119.607 176.439 119.993 177.18 120.641C177.607 121.016 177.967 121.456 178.259 121.964C178.552 122.471 178.728 123.035 178.79 123.655C178.854 124.271 178.759 124.93 178.504 125.632C178.249 126.333 177.786 127.067 177.115 127.833L176.648 128.368L170.319 122.83L171.273 121.74L176.319 126.155C176.724 125.691 176.993 125.197 177.126 124.672C177.262 124.149 177.253 123.635 177.099 123.128C176.948 122.625 176.644 122.174 176.188 121.774C175.686 121.335 175.142 121.079 174.557 121.007C173.978 120.935 173.418 121.011 172.876 121.235C172.334 121.459 171.865 121.797 171.469 122.25L170.832 122.977C170.29 123.597 169.937 124.216 169.773 124.834C169.617 125.452 169.632 126.042 169.821 126.603C170.012 127.16 170.363 127.662 170.872 128.108C171.204 128.398 171.544 128.614 171.892 128.755C172.247 128.896 172.605 128.957 172.966 128.94C173.331 128.919 173.691 128.813 174.047 128.621L174.967 130.03C174.477 130.331 173.943 130.506 173.366 130.554C172.792 130.599 172.205 130.514 171.607 130.299C171.012 130.08 170.437 129.728 169.881 129.241ZM175.349 133.724L182.533 125.514L183.794 126.618L176.61 134.828L175.349 133.724ZM184.371 124.707C184.125 124.492 183.987 124.223 183.955 123.899C183.927 123.579 184.016 123.301 184.222 123.066C184.428 122.831 184.691 122.706 185.012 122.691C185.337 122.68 185.622 122.782 185.868 122.997C186.114 123.212 186.251 123.48 186.279 123.8C186.31 124.123 186.223 124.403 186.018 124.638C185.812 124.873 185.547 124.996 185.222 125.008C184.901 125.023 184.617 124.922 184.371 124.707ZM179.39 142.999C178.781 142.466 178.326 141.929 178.025 141.389C177.721 140.852 177.533 140.329 177.462 139.82C177.392 139.318 177.396 138.85 177.474 138.415L179.097 138.589C179.08 138.839 179.074 139.136 179.08 139.481C179.084 139.83 179.174 140.208 179.352 140.616C179.531 141.03 179.868 141.454 180.363 141.887C181.026 142.467 181.713 142.785 182.425 142.842C183.137 142.898 183.792 142.585 184.391 141.901L185.85 140.233L185.743 140.139C185.519 140.208 185.225 140.278 184.861 140.349C184.503 140.42 184.091 140.402 183.624 140.296C183.164 140.189 182.667 139.901 182.132 139.434C181.47 138.854 181.012 138.176 180.759 137.401C180.51 136.629 180.494 135.81 180.711 134.943C180.932 134.08 181.417 133.22 182.165 132.365C182.901 131.524 183.689 130.921 184.531 130.556C185.375 130.188 186.211 130.064 187.038 130.183C187.867 130.299 188.628 130.659 189.319 131.264C189.854 131.732 190.2 132.192 190.357 132.645C190.522 133.097 190.589 133.508 190.56 133.879C190.538 134.25 190.511 134.547 190.479 134.771L190.607 134.883L191.748 133.579L192.967 134.645L185.577 143.09C184.96 143.795 184.297 144.229 183.59 144.39C182.883 144.558 182.17 144.51 181.451 144.246C180.733 143.988 180.046 143.573 179.39 142.999ZM183.295 138.45C183.801 138.893 184.33 139.151 184.882 139.225C185.434 139.299 185.991 139.199 186.553 138.923C187.115 138.647 187.661 138.206 188.191 137.601C188.709 137.009 189.076 136.409 189.294 135.801C189.512 135.192 189.559 134.607 189.434 134.045C189.309 133.483 188.99 132.977 188.477 132.528C187.943 132.061 187.379 131.806 186.786 131.765C186.196 131.727 185.612 131.858 185.035 132.159C184.461 132.462 183.931 132.892 183.445 133.447C182.946 134.018 182.594 134.6 182.389 135.194C182.19 135.788 182.158 136.364 182.292 136.922C182.433 137.479 182.768 137.989 183.295 138.45ZM193.675 141.04L189.353 145.979L188.092 144.875L197.671 133.929L198.932 135.033L195.415 139.052L195.522 139.146C196.085 138.89 196.668 138.806 197.272 138.893C197.881 138.98 198.509 139.306 199.154 139.87C199.713 140.36 200.105 140.901 200.329 141.493C200.556 142.082 200.584 142.707 200.414 143.37C200.25 144.032 199.859 144.715 199.242 145.421L194.677 150.637L193.415 149.534L197.905 144.403C198.476 143.751 198.748 143.098 198.721 142.446C198.701 141.793 198.394 141.206 197.799 140.685C197.385 140.323 196.938 140.086 196.458 139.974C195.981 139.865 195.501 139.895 195.019 140.065C194.541 140.238 194.093 140.563 193.675 141.04ZM207.739 147.571L206.803 148.64L202.549 144.917L203.484 143.848L207.739 147.571ZM206.445 142.967L207.707 144.07L200.86 151.895C200.548 152.252 200.366 152.564 200.313 152.833C200.267 153.101 200.3 153.337 200.411 153.541C200.528 153.744 200.68 153.927 200.865 154.089C201.004 154.211 201.124 154.304 201.226 154.367C201.33 154.427 201.414 154.476 201.477 154.512L200.742 155.869C200.628 155.826 200.481 155.754 200.3 155.652C200.115 155.554 199.905 155.402 199.67 155.196C199.314 154.884 199.032 154.502 198.824 154.049C198.619 153.6 198.542 153.12 198.592 152.61C198.645 152.103 198.881 151.611 199.299 151.134L206.445 142.967Z" fill="#00B7FF"/>
</svg>
