<svg width="300" height="200" viewBox="0 0 300 200" fill="none" xmlns="http://www.w3.org/2000/svg">
<g clip-path="url(#clip0_2_271)">
<line y1="79.5" x2="300" y2="79.5" stroke="#4F4F4F"/>
<line y1="159.5" x2="300" y2="159.5" stroke="#4F4F4F"/>
<line y1="39.5" x2="300" y2="39.5" stroke="#4F4F4F"/>
<line y1="119.5" x2="300" y2="119.5" stroke="#4F4F4F"/>
<line y1="199.5" x2="300" y2="199.5" stroke="#4F4F4F"/>
<line y1="19.5" x2="300" y2="19.5" stroke="#4F4F4F"/>
<line y1="99.5" x2="300" y2="99.5" stroke="#4F4F4F"/>
<line y1="179.5" x2="300" y2="179.5" stroke="#4F4F4F"/>
<line y1="59.5" x2="300" y2="59.5" stroke="#4F4F4F"/>
<line y1="139.5" x2="300" y2="139.5" stroke="#4F4F4F"/>
<line x1="159.5" y1="200.01" x2="159.5" y2="1.52588e-05" stroke="#4F4F4F"/>
<line x1="79.5" y1="200.01" x2="79.5" y2="1.52588e-05" stroke="#4F4F4F"/>
<line x1="239.5" y1="200.01" x2="239.5" y2="1.52588e-05" stroke="#4F4F4F"/>
<line x1="39.5" y1="200.01" x2="39.5" y2="1.52588e-05" stroke="#4F4F4F"/>
<line x1="199.5" y1="200.01" x2="199.5" y2="1.52588e-05" stroke="#4F4F4F"/>
<line x1="119.5" y1="200.01" x2="119.5" y2="1.52588e-05" stroke="#4F4F4F"/>
<line x1="279.5" y1="200.01" x2="279.5" y2="1.52588e-05" stroke="#4F4F4F"/>
<line x1="19.5" y1="200.01" x2="19.5" y2="1.52588e-05" stroke="#4F4F4F"/>
<line x1="179.5" y1="200.01" x2="179.5" y2="1.52588e-05" stroke="#4F4F4F"/>
<line x1="99.5" y1="200.01" x2="99.5" y2="1.52588e-05" stroke="#4F4F4F"/>
<line x1="259.5" y1="200.01" x2="259.5" y2="1.52588e-05" stroke="#4F4F4F"/>
<line x1="59.5" y1="200.01" x2="59.5" y2="1.52588e-05" stroke="#4F4F4F"/>
<line x1="219.5" y1="200.01" x2="219.5" y2="1.52588e-05" stroke="#4F4F4F"/>
<line x1="139.5" y1="200.01" x2="139.5" y2="1.52588e-05" stroke="#4F4F4F"/>
<line x1="299.5" y1="200.01" x2="299.5" y2="1.52588e-05" stroke="#4F4F4F"/>
<path d="M180 178L180 20" stroke="#00B7FF" stroke-width="3" stroke-linecap="round"/>
<line x1="39.5" y1="178.5" x2="259.5" y2="178.5" stroke="#FFDD00" stroke-width="3" stroke-linecap="round"/>
<path d="M40 178L180 20" stroke="white" stroke-width="3" stroke-linecap="round"/>
<path d="M260 178L180 20" stroke="white" stroke-width="3" stroke-linecap="round"/>
<path d="M192.537 29H189.767L197.778 7.18182H200.506L208.517 29H205.747L199.227 10.6335H199.057L192.537 29ZM193.56 20.4773H204.724V22.821H193.56V20.4773Z" fill="white"/>
<path d="M289.199 171H286.557C286.401 170.24 286.127 169.572 285.737 168.997C285.353 168.422 284.884 167.939 284.33 167.548C283.783 167.151 283.176 166.852 282.509 166.653C281.841 166.455 281.145 166.355 280.42 166.355C279.099 166.355 277.903 166.689 276.83 167.357C275.765 168.024 274.916 169.008 274.284 170.308C273.659 171.607 273.347 173.202 273.347 175.091C273.347 176.98 273.659 178.575 274.284 179.874C274.916 181.174 275.765 182.158 276.83 182.825C277.903 183.493 279.099 183.827 280.42 183.827C281.145 183.827 281.841 183.727 282.509 183.528C283.176 183.33 283.783 183.035 284.33 182.644C284.884 182.246 285.353 181.76 285.737 181.185C286.127 180.602 286.401 179.935 286.557 179.182H289.199C289 180.297 288.638 181.295 288.112 182.175C287.587 183.056 286.933 183.805 286.152 184.423C285.371 185.034 284.494 185.499 283.521 185.819C282.555 186.138 281.521 186.298 280.42 186.298C278.56 186.298 276.905 185.844 275.456 184.935C274.007 184.026 272.867 182.733 272.036 181.057C271.205 179.381 270.79 177.392 270.79 175.091C270.79 172.79 271.205 170.801 272.036 169.125C272.867 167.449 274.007 166.156 275.456 165.247C276.905 164.338 278.56 163.884 280.42 163.884C281.521 163.884 282.555 164.043 283.521 164.363C284.494 164.683 285.371 165.151 286.152 165.769C286.933 166.38 287.587 167.126 288.112 168.006C288.638 168.88 289 169.878 289.199 171Z" fill="white"/>
<path d="M12.642 189V167.182H20.2699C21.7898 167.182 23.0433 167.445 24.0305 167.97C25.0178 168.489 25.7528 169.188 26.2358 170.069C26.7188 170.942 26.9602 171.912 26.9602 172.977C26.9602 173.915 26.7933 174.689 26.4595 175.3C26.1328 175.911 25.6996 176.393 25.1598 176.749C24.6271 177.104 24.0483 177.366 23.4233 177.537V177.75C24.0909 177.793 24.7621 178.027 25.4368 178.453C26.1115 178.879 26.6761 179.49 27.1307 180.286C27.5852 181.081 27.8125 182.054 27.8125 183.205C27.8125 184.298 27.5639 185.282 27.0668 186.156C26.5696 187.029 25.7848 187.722 24.7124 188.233C23.6399 188.744 22.2443 189 20.5256 189H12.642ZM15.2841 186.656H20.5256C22.2514 186.656 23.4766 186.322 24.201 185.655C24.9325 184.98 25.2983 184.163 25.2983 183.205C25.2983 182.466 25.1101 181.784 24.7337 181.159C24.3572 180.527 23.821 180.023 23.125 179.646C22.429 179.263 21.6051 179.071 20.6534 179.071H15.2841V186.656ZM15.2841 176.77H20.1847C20.9801 176.77 21.6974 176.614 22.3366 176.301C22.983 175.989 23.4943 175.548 23.8707 174.98C24.2543 174.412 24.446 173.744 24.446 172.977C24.446 172.018 24.1122 171.205 23.4446 170.538C22.777 169.863 21.7188 169.526 20.2699 169.526H15.2841V176.77Z" fill="white"/>
<path d="M101.761 170V155.455H106.847C107.86 155.455 108.696 155.63 109.354 155.98C110.012 156.326 110.502 156.792 110.824 157.379C111.146 157.962 111.307 158.608 111.307 159.318C111.307 159.943 111.196 160.459 110.973 160.866C110.755 161.274 110.466 161.596 110.107 161.832C109.751 162.069 109.366 162.244 108.949 162.358V162.5C109.394 162.528 109.841 162.685 110.291 162.969C110.741 163.253 111.117 163.66 111.42 164.19C111.723 164.721 111.875 165.369 111.875 166.136C111.875 166.866 111.709 167.521 111.378 168.104C111.046 168.686 110.523 169.148 109.808 169.489C109.093 169.83 108.163 170 107.017 170H101.761ZM103.523 168.438H107.017C108.168 168.438 108.984 168.215 109.467 167.77C109.955 167.32 110.199 166.776 110.199 166.136C110.199 165.644 110.073 165.189 109.822 164.773C109.571 164.351 109.214 164.015 108.75 163.764C108.286 163.509 107.737 163.381 107.102 163.381H103.523V168.438ZM103.523 161.847H106.79C107.32 161.847 107.798 161.742 108.224 161.534C108.655 161.326 108.996 161.032 109.247 160.653C109.503 160.275 109.631 159.83 109.631 159.318C109.631 158.679 109.408 158.137 108.963 157.692C108.518 157.242 107.813 157.017 106.847 157.017H103.523V161.847ZM117.752 170.256C117.061 170.256 116.433 170.125 115.87 169.865C115.307 169.6 114.859 169.219 114.528 168.722C114.196 168.22 114.031 167.614 114.031 166.903C114.031 166.278 114.154 165.772 114.4 165.384C114.646 164.991 114.975 164.683 115.387 164.46C115.799 164.238 116.254 164.072 116.751 163.963C117.253 163.849 117.757 163.759 118.263 163.693C118.926 163.608 119.464 163.544 119.876 163.501C120.292 163.454 120.595 163.376 120.785 163.267C120.979 163.158 121.076 162.969 121.076 162.699V162.642C121.076 161.941 120.884 161.397 120.501 161.009C120.122 160.62 119.547 160.426 118.775 160.426C117.975 160.426 117.347 160.601 116.893 160.952C116.438 161.302 116.119 161.676 115.934 162.074L114.343 161.506C114.627 160.843 115.006 160.327 115.479 159.957C115.958 159.583 116.478 159.323 117.042 159.176C117.61 159.025 118.169 158.949 118.718 158.949C119.068 158.949 119.471 158.991 119.925 159.077C120.385 159.157 120.827 159.325 121.254 159.581C121.684 159.837 122.042 160.223 122.326 160.739C122.61 161.255 122.752 161.946 122.752 162.812V170H121.076V168.523H120.991C120.877 168.759 120.688 169.013 120.423 169.283C120.157 169.553 119.805 169.782 119.364 169.972C118.924 170.161 118.387 170.256 117.752 170.256ZM118.008 168.75C118.671 168.75 119.229 168.62 119.684 168.359C120.143 168.099 120.489 167.763 120.721 167.351C120.958 166.939 121.076 166.506 121.076 166.051V164.517C121.005 164.602 120.849 164.68 120.607 164.751C120.371 164.818 120.096 164.877 119.783 164.929C119.476 164.976 119.175 165.019 118.881 165.057C118.593 165.09 118.358 165.118 118.178 165.142C117.743 165.199 117.335 165.291 116.957 165.419C116.583 165.542 116.28 165.729 116.048 165.98C115.82 166.226 115.707 166.562 115.707 166.989C115.707 167.571 115.922 168.011 116.353 168.31C116.789 168.603 117.34 168.75 118.008 168.75ZM133.539 161.534L132.033 161.96C131.938 161.709 131.799 161.465 131.614 161.229C131.434 160.987 131.188 160.788 130.875 160.632C130.563 160.476 130.163 160.398 129.675 160.398C129.007 160.398 128.451 160.552 128.006 160.859C127.566 161.162 127.346 161.548 127.346 162.017C127.346 162.434 127.497 162.763 127.8 163.004C128.103 163.246 128.577 163.447 129.221 163.608L130.84 164.006C131.815 164.242 132.542 164.605 133.02 165.092C133.498 165.575 133.738 166.198 133.738 166.96C133.738 167.585 133.558 168.144 133.198 168.636C132.843 169.129 132.346 169.517 131.706 169.801C131.067 170.085 130.324 170.227 129.476 170.227C128.364 170.227 127.443 169.986 126.713 169.503C125.984 169.02 125.523 168.314 125.328 167.386L126.919 166.989C127.071 167.576 127.357 168.016 127.779 168.31C128.205 168.603 128.761 168.75 129.448 168.75C130.229 168.75 130.849 168.584 131.309 168.253C131.773 167.917 132.005 167.514 132.005 167.045C132.005 166.667 131.872 166.349 131.607 166.094C131.342 165.833 130.935 165.639 130.385 165.511L128.567 165.085C127.568 164.848 126.834 164.482 126.365 163.984C125.901 163.482 125.669 162.855 125.669 162.102C125.669 161.487 125.842 160.942 126.188 160.469C126.538 159.995 127.014 159.624 127.615 159.354C128.221 159.084 128.908 158.949 129.675 158.949C130.755 158.949 131.602 159.186 132.218 159.659C132.838 160.133 133.278 160.758 133.539 161.534ZM140.835 170.227C139.783 170.227 138.877 169.995 138.114 169.531C137.357 169.062 136.772 168.409 136.36 167.571C135.953 166.728 135.749 165.748 135.749 164.631C135.749 163.513 135.953 162.528 136.36 161.676C136.772 160.819 137.345 160.152 138.079 159.673C138.817 159.19 139.679 158.949 140.664 158.949C141.232 158.949 141.793 159.044 142.347 159.233C142.901 159.422 143.406 159.73 143.86 160.156C144.315 160.578 144.677 161.136 144.947 161.832C145.217 162.528 145.352 163.385 145.352 164.403V165.114H136.942V163.665H143.647C143.647 163.049 143.524 162.5 143.278 162.017C143.036 161.534 142.691 161.153 142.241 160.874C141.796 160.594 141.27 160.455 140.664 160.455C139.996 160.455 139.419 160.62 138.931 160.952C138.448 161.278 138.076 161.705 137.816 162.23C137.556 162.756 137.425 163.319 137.425 163.92V164.886C137.425 165.71 137.567 166.409 137.852 166.982C138.14 167.55 138.54 167.983 139.052 168.281C139.563 168.575 140.157 168.722 140.835 168.722C141.275 168.722 141.673 168.66 142.028 168.537C142.388 168.409 142.698 168.22 142.958 167.969C143.219 167.713 143.42 167.396 143.562 167.017L145.181 167.472C145.011 168.021 144.724 168.504 144.322 168.92C143.919 169.332 143.422 169.654 142.83 169.886C142.238 170.114 141.573 170.227 140.835 170.227Z" fill="#FFDD00"/>
<rect x="164.5" y="162.5" width="14.1731" height="14.1731" fill="#D9D9D9" stroke="#FF7B00"/>
<path d="M171 129.239H156.455V127.477H162.932V119.722H156.455V117.96H171V119.722H164.494V127.477H171V129.239ZM171.227 110.087C171.227 111.138 170.995 112.045 170.531 112.808C170.062 113.565 169.409 114.15 168.571 114.562C167.728 114.969 166.748 115.173 165.631 115.173C164.513 115.173 163.528 114.969 162.676 114.562C161.819 114.15 161.152 113.577 160.673 112.843C160.19 112.104 159.949 111.243 159.949 110.258C159.949 109.69 160.044 109.129 160.233 108.575C160.422 108.021 160.73 107.516 161.156 107.062C161.578 106.607 162.136 106.245 162.832 105.975C163.528 105.705 164.385 105.57 165.403 105.57H166.114V113.979H164.665V107.275C164.049 107.275 163.5 107.398 163.017 107.644C162.534 107.886 162.153 108.231 161.874 108.681C161.594 109.126 161.455 109.652 161.455 110.258C161.455 110.925 161.62 111.503 161.952 111.991C162.278 112.474 162.705 112.845 163.23 113.106C163.756 113.366 164.319 113.496 164.92 113.496H165.886C166.71 113.496 167.409 113.354 167.982 113.07C168.55 112.781 168.983 112.381 169.281 111.87C169.575 111.359 169.722 110.764 169.722 110.087C169.722 109.647 169.66 109.249 169.537 108.894C169.409 108.534 169.22 108.224 168.969 107.964C168.713 107.703 168.396 107.502 168.017 107.36L168.472 105.741C169.021 105.911 169.504 106.198 169.92 106.6C170.332 107.003 170.654 107.5 170.886 108.092C171.114 108.683 171.227 109.349 171.227 110.087ZM171 103.021H160.091V101.344H171V103.021ZM158.273 102.168C158.273 102.495 158.161 102.777 157.939 103.013C157.716 103.246 157.449 103.362 157.136 103.362C156.824 103.362 156.556 103.246 156.334 103.013C156.111 102.777 156 102.495 156 102.168C156 101.842 156.111 101.562 156.334 101.33C156.556 101.094 156.824 100.975 157.136 100.975C157.449 100.975 157.716 101.094 157.939 101.33C158.161 101.562 158.273 101.842 158.273 102.168ZM175.318 93.8711C175.318 94.6808 175.214 95.3768 175.006 95.9592C174.802 96.5415 174.532 97.0269 174.196 97.4151C173.865 97.7987 173.509 98.104 173.131 98.3313L172.193 96.9961C172.392 96.8446 172.619 96.6528 172.875 96.4208C173.135 96.1888 173.36 95.8716 173.55 95.4691C173.744 95.0619 173.841 94.5292 173.841 93.8711C173.841 92.9904 173.628 92.2636 173.202 91.6907C172.776 91.1178 172.108 90.8313 171.199 90.8313H168.983V90.9734C169.182 91.0965 169.428 91.2717 169.722 91.4989C170.01 91.7215 170.268 92.0434 170.496 92.4648C170.718 92.8815 170.83 93.445 170.83 94.1552C170.83 95.0359 170.621 95.8266 170.205 96.5273C169.788 97.2234 169.182 97.775 168.386 98.1822C167.591 98.5846 166.625 98.7859 165.489 98.7859C164.371 98.7859 163.398 98.5894 162.57 98.1964C161.736 97.8034 161.092 97.2565 160.638 96.5558C160.179 95.855 159.949 95.0453 159.949 94.1268C159.949 93.4165 160.067 92.8531 160.304 92.4364C160.536 92.015 160.801 91.6931 161.099 91.4705C161.393 91.2433 161.634 91.0681 161.824 90.945V90.7745H160.091V89.1552H171.312C172.25 89.1552 173.012 89.3683 173.599 89.7944C174.191 90.2158 174.625 90.784 174.899 91.4989C175.179 92.2092 175.318 92.9999 175.318 93.8711ZM169.324 93.9279C169.324 93.2556 169.17 92.6874 168.862 92.2234C168.554 91.7594 168.112 91.4066 167.534 91.1651C166.956 90.9237 166.265 90.8029 165.46 90.8029C164.674 90.8029 163.981 90.9213 163.379 91.158C162.778 91.3948 162.307 91.7451 161.966 92.2092C161.625 92.6732 161.455 93.2461 161.455 93.9279C161.455 94.6381 161.634 95.23 161.994 95.7035C162.354 96.1722 162.837 96.525 163.443 96.7617C164.049 96.9937 164.722 97.1097 165.46 97.1097C166.218 97.1097 166.888 96.9914 167.47 96.7546C168.048 96.5131 168.502 96.158 168.834 95.6893C169.161 95.2158 169.324 94.6287 169.324 93.9279ZM164.438 84.4109H171V86.087H156.455V84.4109H161.795V84.2688C161.232 84.0131 160.785 83.6296 160.453 83.1183C160.117 82.6022 159.949 81.9156 159.949 81.0586C159.949 80.3152 160.098 79.6642 160.396 79.1055C160.69 78.5468 161.142 78.1135 161.753 77.8058C162.359 77.4933 163.131 77.337 164.068 77.337H171V79.0131H164.182C163.315 79.0131 162.645 79.238 162.172 79.6879C161.694 80.1329 161.455 80.7508 161.455 81.5415C161.455 82.0908 161.571 82.5832 161.803 83.0188C162.035 83.4497 162.373 83.7906 162.818 84.0415C163.263 84.2878 163.803 84.4109 164.438 84.4109ZM160.091 69.5263H161.511V75.1797H160.091V69.5263ZM157.477 73.532V71.8558H167.875C168.348 71.8558 168.704 71.7872 168.94 71.6499C169.172 71.5078 169.329 71.3279 169.409 71.1101C169.485 70.8875 169.523 70.6532 169.523 70.407C169.523 70.2223 169.513 70.0708 169.494 69.9524C169.471 69.834 169.452 69.7393 169.438 69.6683L170.943 69.3274C170.986 69.4411 171.028 69.5997 171.071 69.8033C171.118 70.0069 171.142 70.2649 171.142 70.5774C171.142 71.0509 171.04 71.5149 170.837 71.9695C170.633 72.4193 170.323 72.7933 169.906 73.0916C169.49 73.3852 168.964 73.532 168.33 73.532H157.477Z" fill="#00B7FF"/>
</g>
<defs>
<clipPath id="clip0_2_271">
<rect width="300" height="200" fill="white"/>
</clipPath>
</defs>
</svg>
