<svg width="302" height="202" viewBox="0 0 302 202" fill="none" xmlns="http://www.w3.org/2000/svg">
<line x1="0.5" y1="201.01" x2="0.5" y2="1.00002" stroke="#4F4F4F"/>
<line x1="1" y1="0.5" x2="301" y2="0.5" stroke="#4F4F4F"/>
<line x1="1" y1="80.5" x2="301" y2="80.5" stroke="#4F4F4F"/>
<line x1="1" y1="160.5" x2="301" y2="160.5" stroke="#4F4F4F"/>
<line x1="1" y1="40.5" x2="301" y2="40.5" stroke="#4F4F4F"/>
<line x1="1" y1="120.5" x2="301" y2="120.5" stroke="#4F4F4F"/>
<line x1="1" y1="200.5" x2="301" y2="200.5" stroke="#4F4F4F"/>
<line x1="1" y1="20.5" x2="301" y2="20.5" stroke="#4F4F4F"/>
<line x1="1" y1="100.5" x2="301" y2="100.5" stroke="#4F4F4F"/>
<line x1="1" y1="180.5" x2="301" y2="180.5" stroke="#4F4F4F"/>
<line x1="1" y1="60.5" x2="301" y2="60.5" stroke="#4F4F4F"/>
<line x1="1" y1="140.5" x2="301" y2="140.5" stroke="#4F4F4F"/>
<line x1="160.5" y1="201.01" x2="160.5" y2="1.00002" stroke="#4F4F4F"/>
<line x1="80.5" y1="201.01" x2="80.5" y2="1.00002" stroke="#4F4F4F"/>
<line x1="240.5" y1="201.01" x2="240.5" y2="1.00002" stroke="#4F4F4F"/>
<line x1="40.5" y1="201.01" x2="40.5" y2="1.00002" stroke="#4F4F4F"/>
<line x1="200.5" y1="201.01" x2="200.5" y2="1.00002" stroke="#4F4F4F"/>
<line x1="120.5" y1="201.01" x2="120.5" y2="1.00002" stroke="#4F4F4F"/>
<line x1="280.5" y1="201.01" x2="280.5" y2="1.00002" stroke="#4F4F4F"/>
<line x1="20.5" y1="201.01" x2="20.5" y2="1.00002" stroke="#4F4F4F"/>
<line x1="180.5" y1="201.01" x2="180.5" y2="1.00002" stroke="#4F4F4F"/>
<line x1="100.5" y1="201.01" x2="100.5" y2="1.00002" stroke="#4F4F4F"/>
<line x1="260.5" y1="201.01" x2="260.5" y2="1.00002" stroke="#4F4F4F"/>
<line x1="60.5" y1="201.01" x2="60.5" y2="1.00002" stroke="#4F4F4F"/>
<line x1="220.5" y1="201.01" x2="220.5" y2="1.00002" stroke="#4F4F4F"/>
<line x1="140.5" y1="201.01" x2="140.5" y2="1.00002" stroke="#4F4F4F"/>
<line x1="300.5" y1="201.01" x2="300.5" y2="1.00002" stroke="#4F4F4F"/>
<path d="M41 178.96L215.797 92" stroke="#00B7FF" stroke-width="3" stroke-linecap="round"/>
<line x1="40.5" y1="179.5" x2="260.5" y2="179.5" stroke="white" stroke-width="3" stroke-linecap="round"/>
<path d="M41 179L181 21" stroke="white" stroke-width="3" stroke-linecap="round"/>
<path d="M261 179L181 21" stroke="#FFDD00" stroke-width="3" stroke-linecap="round"/>
<path d="M193.537 30H190.767L198.778 8.18182H201.506L209.517 30H206.747L200.227 11.6335H200.057L193.537 30ZM194.56 21.4773H205.724V23.821H194.56V21.4773Z" fill="white"/>
<path d="M290.199 172H287.557C287.401 171.24 287.127 170.572 286.737 169.997C286.353 169.422 285.884 168.939 285.33 168.548C284.783 168.151 284.176 167.852 283.509 167.653C282.841 167.455 282.145 167.355 281.42 167.355C280.099 167.355 278.903 167.689 277.83 168.357C276.765 169.024 275.916 170.008 275.284 171.308C274.659 172.607 274.347 174.202 274.347 176.091C274.347 177.98 274.659 179.575 275.284 180.874C275.916 182.174 276.765 183.158 277.83 183.825C278.903 184.493 280.099 184.827 281.42 184.827C282.145 184.827 282.841 184.727 283.509 184.528C284.176 184.33 284.783 184.035 285.33 183.644C285.884 183.246 286.353 182.76 286.737 182.185C287.127 181.602 287.401 180.935 287.557 180.182H290.199C290 181.297 289.638 182.295 289.112 183.175C288.587 184.056 287.933 184.805 287.152 185.423C286.371 186.034 285.494 186.499 284.521 186.819C283.555 187.138 282.521 187.298 281.42 187.298C279.56 187.298 277.905 186.844 276.456 185.935C275.007 185.026 273.867 183.733 273.036 182.057C272.205 180.381 271.79 178.392 271.79 176.091C271.79 173.79 272.205 171.801 273.036 170.125C273.867 168.449 275.007 167.156 276.456 166.247C277.905 165.338 279.56 164.884 281.42 164.884C282.521 164.884 283.555 165.043 284.521 165.363C285.494 165.683 286.371 166.151 287.152 166.769C287.933 167.38 288.587 168.126 289.112 169.006C289.638 169.88 290 170.878 290.199 172Z" fill="white"/>
<path d="M13.642 190V168.182H21.2699C22.7898 168.182 24.0433 168.445 25.0305 168.97C26.0178 169.489 26.7528 170.188 27.2358 171.069C27.7188 171.942 27.9602 172.912 27.9602 173.977C27.9602 174.915 27.7933 175.689 27.4595 176.3C27.1328 176.911 26.6996 177.393 26.1598 177.749C25.6271 178.104 25.0483 178.366 24.4233 178.537V178.75C25.0909 178.793 25.7621 179.027 26.4368 179.453C27.1115 179.879 27.6761 180.49 28.1307 181.286C28.5852 182.081 28.8125 183.054 28.8125 184.205C28.8125 185.298 28.5639 186.282 28.0668 187.156C27.5696 188.029 26.7848 188.722 25.7124 189.233C24.6399 189.744 23.2443 190 21.5256 190H13.642ZM16.2841 187.656H21.5256C23.2514 187.656 24.4766 187.322 25.201 186.655C25.9325 185.98 26.2983 185.163 26.2983 184.205C26.2983 183.466 26.1101 182.784 25.7337 182.159C25.3572 181.527 24.821 181.023 24.125 180.646C23.429 180.263 22.6051 180.071 21.6534 180.071H16.2841V187.656ZM16.2841 177.77H21.1847C21.9801 177.77 22.6974 177.614 23.3366 177.301C23.983 176.989 24.4943 176.548 24.8707 175.98C25.2543 175.412 25.446 174.744 25.446 173.977C25.446 173.018 25.1122 172.205 24.4446 171.538C23.777 170.863 22.7188 170.526 21.2699 170.526H16.2841V177.77Z" fill="white"/>
<path d="M223.526 78.6461L222.696 76.9965L238.09 75.23L238.908 76.8542L228.315 88.1628L227.485 86.5132L236.469 77.1271L236.418 77.0256L223.526 78.6461ZM228.908 76.7014L232.254 83.3504L230.858 84.0527L227.513 77.4037L228.908 76.7014ZM242.978 84.9434L229.984 91.4809L229.231 89.9837L242.224 83.4461L242.978 84.9434ZM232.578 97.206C232.268 96.5884 232.102 95.9695 232.081 95.3491C232.065 94.7266 232.204 94.1556 232.5 93.6361C232.799 93.1144 233.266 92.694 233.9 92.3747C234.459 92.0938 234.966 91.9761 235.424 92.0215C235.886 92.0648 236.309 92.2205 236.692 92.4884C237.076 92.7564 237.429 93.0879 237.749 93.4831C238.077 93.8804 238.384 94.2904 238.671 94.7132C239.045 95.267 239.343 95.7184 239.566 96.0672C239.796 96.4181 240.002 96.6537 240.184 96.7739C240.369 96.8984 240.582 96.9 240.823 96.7787L240.874 96.7531C241.5 96.4382 241.9 96.0221 242.074 95.505C242.251 94.9922 242.166 94.391 241.819 93.7016C241.459 92.9868 241.021 92.5051 240.503 92.2565C239.986 92.008 239.508 91.8906 239.07 91.9044L238.863 90.2278C239.582 90.1837 240.214 90.2901 240.756 90.5471C241.305 90.8061 241.772 91.1543 242.157 91.5917C242.547 92.0312 242.866 92.4962 243.113 92.9868C243.27 93.2998 243.413 93.6785 243.541 94.1229C243.676 94.5693 243.725 95.0403 243.688 95.5359C243.653 96.0357 243.469 96.5285 243.136 97.0143C242.802 97.5 242.249 97.9376 241.475 98.3271L235.054 101.558L234.301 100.06L235.62 99.3963L235.582 99.3201C235.32 99.325 235.008 99.2697 234.648 99.1541C234.288 99.0386 233.924 98.8267 233.557 98.5185C233.19 98.2102 232.864 97.7727 232.578 97.206ZM234.038 96.7576C234.336 97.3498 234.704 97.7903 235.141 98.0793C235.58 98.3726 236.035 98.5302 236.508 98.5523C236.982 98.5787 237.422 98.4897 237.828 98.2854L239.199 97.5959C239.091 97.5707 238.951 97.4663 238.779 97.2825C238.613 97.1008 238.437 96.8821 238.25 96.6263C238.069 96.3727 237.896 96.1233 237.73 95.8781C237.571 95.6349 237.44 95.4383 237.338 95.2883C237.091 94.9247 236.826 94.6024 236.541 94.3215C236.263 94.0427 235.96 93.8561 235.632 93.7616C235.31 93.6692 234.958 93.7188 234.577 93.9103C234.057 94.1721 233.761 94.5625 233.688 95.0814C233.621 95.6025 233.738 96.1612 234.038 96.7576ZM247.465 107.388L246.407 106.235C246.589 106.037 246.744 105.803 246.873 105.531C247.007 105.262 247.074 104.953 247.073 104.604C247.073 104.254 246.963 103.862 246.743 103.426C246.443 102.83 246.056 102.402 245.581 102.143C245.112 101.885 244.669 101.862 244.25 102.073C243.878 102.26 243.652 102.543 243.572 102.923C243.493 103.302 243.526 103.815 243.671 104.463L244.044 106.088C244.271 107.066 244.274 107.878 244.053 108.524C243.837 109.169 243.388 109.662 242.707 110.005C242.149 110.286 241.569 110.376 240.967 110.276C240.368 110.18 239.797 109.91 239.256 109.467C238.715 109.024 238.254 108.423 237.873 107.666C237.373 106.672 237.175 105.741 237.279 104.873C237.382 104.004 237.805 103.275 238.547 102.684L239.617 103.927C239.161 104.326 238.896 104.78 238.823 105.288C238.753 105.801 238.872 106.364 239.18 106.977C239.531 107.675 239.958 108.154 240.461 108.416C240.969 108.679 241.433 108.706 241.852 108.495C242.19 108.325 242.414 108.064 242.523 107.712C242.637 107.358 242.627 106.907 242.495 106.359L242.058 104.543C241.821 103.544 241.818 102.724 242.052 102.082C242.292 101.441 242.748 100.952 243.42 100.614C243.97 100.337 244.534 100.247 245.113 100.343C245.693 100.443 246.239 100.701 246.75 101.117C247.264 101.537 247.693 102.09 248.038 102.775C248.523 103.739 248.692 104.603 248.546 105.365C248.402 106.132 248.041 106.806 247.465 107.388Z" fill="#FFDD00"/>
<path d="M104.527 124.824L103.836 123.423L113.621 118.599L114.312 120.001L110.209 122.023L115.949 133.668L114.369 134.447L108.629 122.802L104.527 124.824ZM122.286 130.545L117.463 120.76L118.966 120.019L123.79 129.804L122.286 130.545ZM117.424 118.752C117.13 118.897 116.829 118.921 116.518 118.826C116.211 118.729 115.989 118.541 115.851 118.26C115.713 117.98 115.698 117.689 115.808 117.387C115.922 117.082 116.126 116.858 116.419 116.714C116.712 116.569 117.011 116.545 117.318 116.642C117.629 116.737 117.853 116.925 117.991 117.205C118.129 117.486 118.142 117.778 118.028 118.082C117.918 118.384 117.717 118.608 117.424 118.752ZM125.145 121.819L128.047 127.705L126.543 128.446L121.72 118.661L123.172 117.945L123.926 119.474L124.053 119.411C124.038 118.802 124.189 118.231 124.508 117.699C124.824 117.163 125.352 116.713 126.091 116.348C126.753 116.022 127.4 115.872 128.031 115.899C128.66 115.921 129.247 116.139 129.793 116.55C130.337 116.958 130.815 117.578 131.225 118.41L134.29 124.628L132.786 125.369L129.772 119.253C129.393 118.485 128.898 117.984 128.287 117.752C127.675 117.516 127.02 117.569 126.323 117.912C125.844 118.149 125.466 118.464 125.191 118.859C124.919 119.251 124.774 119.7 124.754 120.206C124.734 120.712 124.865 121.25 125.145 121.819ZM142.896 125.2C142.169 125.558 141.499 125.772 140.885 125.843C140.272 125.918 139.718 125.89 139.221 125.76C138.73 125.633 138.299 125.449 137.928 125.21L138.711 123.779C138.935 123.89 139.207 124.009 139.528 124.136C139.852 124.267 140.236 124.328 140.68 124.32C141.131 124.314 141.652 124.166 142.243 123.875C143.032 123.486 143.59 122.973 143.916 122.338C144.241 121.702 144.203 120.977 143.801 120.161L142.821 118.174L142.694 118.236C142.671 118.469 142.623 118.767 142.549 119.131C142.477 119.489 142.302 119.863 142.025 120.253C141.75 120.637 141.293 120.985 140.656 121.299C139.866 121.689 139.065 121.852 138.252 121.788C137.444 121.722 136.681 121.422 135.964 120.889C135.251 120.353 134.644 119.576 134.141 118.556C133.647 117.554 133.393 116.594 133.38 115.677C133.364 114.756 133.569 113.937 133.997 113.219C134.422 112.498 135.047 111.934 135.871 111.527C136.508 111.213 137.066 111.071 137.544 111.099C138.025 111.12 138.431 111.216 138.762 111.385C139.096 111.548 139.36 111.687 139.554 111.802L139.707 111.727L138.941 110.173L140.393 109.457L145.355 119.522C145.769 120.363 145.915 121.141 145.792 121.856C145.676 122.573 145.358 123.213 144.838 123.775C144.325 124.34 143.677 124.815 142.896 125.2ZM140.194 119.848C140.797 119.551 141.239 119.162 141.519 118.681C141.799 118.2 141.92 117.646 141.881 117.022C141.842 116.397 141.645 115.723 141.289 115.001C140.942 114.296 140.529 113.726 140.051 113.292C139.572 112.857 139.05 112.589 138.483 112.489C137.916 112.388 137.327 112.489 136.715 112.79C136.078 113.104 135.627 113.527 135.361 114.059C135.1 114.589 134.997 115.178 135.053 115.827C135.112 116.473 135.306 117.127 135.632 117.79C135.967 118.469 136.37 119.018 136.839 119.436C137.311 119.847 137.831 120.098 138.398 120.188C138.967 120.271 139.566 120.158 140.194 119.848ZM153.827 119.811C153.101 120.169 152.431 120.384 151.816 120.454C151.204 120.529 150.649 120.502 150.152 120.372C149.662 120.244 149.231 120.061 148.859 119.821L149.643 118.39C149.866 118.502 150.139 118.621 150.46 118.747C150.783 118.878 151.167 118.94 151.612 118.932C152.063 118.926 152.584 118.777 153.174 118.486C153.964 118.097 154.522 117.585 154.847 116.949C155.173 116.314 155.134 115.588 154.732 114.773L153.753 112.785L153.625 112.848C153.603 113.081 153.555 113.379 153.481 113.743C153.409 114.1 153.234 114.474 152.956 114.864C152.681 115.248 152.225 115.597 151.588 115.911C150.798 116.3 149.997 116.463 149.184 116.399C148.375 116.333 147.613 116.033 146.896 115.5C146.183 114.964 145.575 114.187 145.073 113.168C144.579 112.166 144.325 111.206 144.311 110.289C144.295 109.368 144.501 108.548 144.929 107.831C145.354 107.109 145.979 106.545 146.803 106.139C147.44 105.825 147.997 105.682 148.476 105.71C148.956 105.732 149.362 105.827 149.694 105.997C150.028 106.159 150.291 106.299 150.486 106.414L150.638 106.339L149.872 104.784L151.325 104.068L156.286 114.134C156.701 114.974 156.847 115.752 156.724 116.467C156.608 117.185 156.29 117.824 155.77 118.387C155.256 118.951 154.609 119.426 153.827 119.811ZM151.126 114.46C151.729 114.163 152.171 113.773 152.451 113.292C152.731 112.811 152.852 112.258 152.813 111.633C152.774 111.008 152.577 110.335 152.221 109.613C151.873 108.908 151.46 108.338 150.982 107.903C150.504 107.469 149.981 107.201 149.414 107.1C148.848 107 148.258 107.1 147.647 107.402C147.01 107.716 146.558 108.139 146.293 108.671C146.031 109.201 145.929 109.79 145.984 110.438C146.044 111.084 146.237 111.739 146.564 112.401C146.899 113.081 147.301 113.629 147.771 114.047C148.243 114.458 148.763 114.709 149.329 114.799C149.899 114.883 150.497 114.77 151.126 114.46ZM158.9 112.497L154.077 102.712L155.58 101.971L160.403 111.756L158.9 112.497ZM154.037 100.704C153.744 100.849 153.442 100.873 153.132 100.778C152.825 100.681 152.603 100.493 152.465 100.212C152.327 99.9321 152.312 99.6409 152.422 99.3387C152.536 99.0344 152.739 98.8101 153.032 98.6656C153.326 98.5212 153.625 98.4975 153.932 98.5945C154.243 98.6894 154.467 98.877 154.605 99.1573C154.743 99.4376 154.755 99.7299 154.641 100.034C154.532 100.336 154.33 100.56 154.037 100.704Z" fill="#00B7FF"/>
<rect x="203.672" y="100.073" width="14.1731" height="14.1731" transform="rotate(-26.85 203.672 100.073)" fill="#D9D9D9" stroke="#FF7B00"/>
</svg>
