<svg width="300" height="200" viewBox="0 0 300 200" fill="none" xmlns="http://www.w3.org/2000/svg">
<g clip-path="url(#clip0_3_428)">
<line y1="79.5" x2="300" y2="79.5" stroke="#4F4F4F"/>
<line y1="159.5" x2="300" y2="159.5" stroke="#4F4F4F"/>
<line y1="39.5" x2="300" y2="39.5" stroke="#4F4F4F"/>
<line y1="119.5" x2="300" y2="119.5" stroke="#4F4F4F"/>
<line y1="199.5" x2="300" y2="199.5" stroke="#4F4F4F"/>
<line y1="19.5" x2="300" y2="19.5" stroke="#4F4F4F"/>
<line y1="99.5" x2="300" y2="99.5" stroke="#4F4F4F"/>
<line y1="179.5" x2="300" y2="179.5" stroke="#4F4F4F"/>
<line y1="59.5" x2="300" y2="59.5" stroke="#4F4F4F"/>
<line y1="139.5" x2="300" y2="139.5" stroke="#4F4F4F"/>
<line x1="159.5" y1="200.01" x2="159.5" y2="1.52588e-05" stroke="#4F4F4F"/>
<line x1="79.5" y1="200.01" x2="79.5" y2="1.52588e-05" stroke="#4F4F4F"/>
<line x1="239.5" y1="200.01" x2="239.5" y2="1.52588e-05" stroke="#4F4F4F"/>
<line x1="39.5" y1="200.01" x2="39.5" y2="1.52588e-05" stroke="#4F4F4F"/>
<line x1="199.5" y1="200.01" x2="199.5" y2="1.52588e-05" stroke="#4F4F4F"/>
<line x1="119.5" y1="200.01" x2="119.5" y2="1.52588e-05" stroke="#4F4F4F"/>
<line x1="279.5" y1="200.01" x2="279.5" y2="1.52588e-05" stroke="#4F4F4F"/>
<line x1="19.5" y1="200.01" x2="19.5" y2="1.52588e-05" stroke="#4F4F4F"/>
<line x1="179.5" y1="200.01" x2="179.5" y2="1.52588e-05" stroke="#4F4F4F"/>
<line x1="99.5" y1="200.01" x2="99.5" y2="1.52588e-05" stroke="#4F4F4F"/>
<line x1="259.5" y1="200.01" x2="259.5" y2="1.52588e-05" stroke="#4F4F4F"/>
<line x1="59.5" y1="200.01" x2="59.5" y2="1.52588e-05" stroke="#4F4F4F"/>
<line x1="219.5" y1="200.01" x2="219.5" y2="1.52588e-05" stroke="#4F4F4F"/>
<line x1="139.5" y1="200.01" x2="139.5" y2="1.52588e-05" stroke="#4F4F4F"/>
<line x1="299.5" y1="200.01" x2="299.5" y2="1.52588e-05" stroke="#4F4F4F"/>
<line x1="39.5" y1="178.5" x2="259.5" y2="178.5" stroke="white" stroke-width="3" stroke-linecap="round"/>
<path d="M40 178L180 20" stroke="white" stroke-width="3" stroke-linecap="round"/>
<path d="M260 178L180 20" stroke="#FFDD00" stroke-width="3" stroke-linecap="round"/>
<path d="M192.537 29H189.767L197.778 7.18182H200.506L208.517 29H205.747L199.227 10.6335H199.057L192.537 29ZM193.56 20.4773H204.724V22.821H193.56V20.4773Z" fill="white"/>
<path d="M289.199 171H286.557C286.401 170.24 286.127 169.572 285.737 168.997C285.353 168.422 284.884 167.939 284.33 167.548C283.783 167.151 283.176 166.852 282.509 166.653C281.841 166.455 281.145 166.355 280.42 166.355C279.099 166.355 277.903 166.689 276.83 167.357C275.765 168.024 274.916 169.008 274.284 170.308C273.659 171.607 273.347 173.202 273.347 175.091C273.347 176.98 273.659 178.575 274.284 179.874C274.916 181.174 275.765 182.158 276.83 182.825C277.903 183.493 279.099 183.827 280.42 183.827C281.145 183.827 281.841 183.727 282.509 183.528C283.176 183.33 283.783 183.035 284.33 182.644C284.884 182.246 285.353 181.76 285.737 181.185C286.127 180.602 286.401 179.935 286.557 179.182H289.199C289 180.297 288.638 181.295 288.112 182.175C287.587 183.056 286.933 183.805 286.152 184.423C285.371 185.034 284.494 185.499 283.521 185.819C282.555 186.138 281.521 186.298 280.42 186.298C278.56 186.298 276.905 185.844 275.456 184.935C274.007 184.026 272.867 182.733 272.036 181.057C271.205 179.381 270.79 177.392 270.79 175.091C270.79 172.79 271.205 170.801 272.036 169.125C272.867 167.449 274.007 166.156 275.456 165.247C276.905 164.338 278.56 163.884 280.42 163.884C281.521 163.884 282.555 164.043 283.521 164.363C284.494 164.683 285.371 165.151 286.152 165.769C286.933 166.38 287.587 167.126 288.112 168.006C288.638 168.88 289 169.878 289.199 171Z" fill="white"/>
<path d="M12.642 189V167.182H20.2699C21.7898 167.182 23.0433 167.445 24.0305 167.97C25.0178 168.489 25.7528 169.188 26.2358 170.069C26.7188 170.942 26.9602 171.912 26.9602 172.977C26.9602 173.915 26.7933 174.689 26.4595 175.3C26.1328 175.911 25.6996 176.393 25.1598 176.749C24.6271 177.104 24.0483 177.366 23.4233 177.537V177.75C24.0909 177.793 24.7621 178.027 25.4368 178.453C26.1115 178.879 26.6761 179.49 27.1307 180.286C27.5852 181.081 27.8125 182.054 27.8125 183.205C27.8125 184.298 27.5639 185.282 27.0668 186.156C26.5696 187.029 25.7848 187.722 24.7124 188.233C23.6399 188.744 22.2443 189 20.5256 189H12.642ZM15.2841 186.656H20.5256C22.2514 186.656 23.4766 186.322 24.201 185.655C24.9325 184.98 25.2983 184.163 25.2983 183.205C25.2983 182.466 25.1101 181.784 24.7337 181.159C24.3572 180.527 23.821 180.023 23.125 179.646C22.429 179.263 21.6051 179.071 20.6534 179.071H15.2841V186.656ZM15.2841 176.77H20.1847C20.9801 176.77 21.6974 176.614 22.3366 176.301C22.983 175.989 23.4943 175.548 23.8707 174.98C24.2543 174.412 24.446 173.744 24.446 172.977C24.446 172.018 24.1122 171.205 23.4446 170.538C22.777 169.863 21.7188 169.526 20.2699 169.526H15.2841V176.77Z" fill="white"/>
<path d="M222.526 77.6461L221.696 75.9965L237.09 74.23L237.908 75.8542L227.315 87.1628L226.485 85.5132L235.469 76.1271L235.418 76.0256L222.526 77.6461ZM227.908 75.7014L231.254 82.3504L229.858 83.0527L226.513 76.4037L227.908 75.7014ZM241.978 83.9434L228.984 90.4809L228.231 88.9837L241.224 82.4461L241.978 83.9434ZM231.578 96.206C231.268 95.5884 231.102 94.9695 231.081 94.3491C231.065 93.7266 231.204 93.1556 231.5 92.6361C231.799 92.1144 232.266 91.694 232.9 91.3747C233.459 91.0938 233.966 90.9761 234.424 91.0215C234.886 91.0648 235.309 91.2205 235.692 91.4884C236.076 91.7564 236.429 92.0879 236.749 92.4831C237.077 92.8804 237.384 93.2904 237.671 93.7132C238.045 94.267 238.343 94.7184 238.566 95.0672C238.796 95.4181 239.002 95.6537 239.184 95.7739C239.369 95.8984 239.582 95.9 239.823 95.7787L239.874 95.7531C240.5 95.4382 240.9 95.0221 241.074 94.505C241.251 93.9922 241.166 93.391 240.819 92.7016C240.459 91.9868 240.021 91.5051 239.503 91.2565C238.986 91.008 238.508 90.8906 238.07 90.9044L237.863 89.2278C238.582 89.1837 239.214 89.2901 239.756 89.5471C240.305 89.8061 240.772 90.1543 241.157 90.5917C241.547 91.0312 241.866 91.4962 242.113 91.9868C242.27 92.2998 242.413 92.6785 242.541 93.1229C242.676 93.5693 242.725 94.0403 242.688 94.5359C242.653 95.0357 242.469 95.5285 242.136 96.0143C241.802 96.5 241.249 96.9376 240.475 97.3271L234.054 100.558L233.301 99.0603L234.62 98.3963L234.582 98.3201C234.32 98.325 234.008 98.2697 233.648 98.1541C233.288 98.0386 232.924 97.8267 232.557 97.5185C232.19 97.2102 231.864 96.7727 231.578 96.206ZM233.038 95.7576C233.336 96.3498 233.704 96.7903 234.141 97.0793C234.58 97.3726 235.035 97.5302 235.508 97.5523C235.982 97.5787 236.422 97.4897 236.828 97.2854L238.199 96.5959C238.091 96.5707 237.951 96.4663 237.779 96.2825C237.613 96.1008 237.437 95.8821 237.25 95.6263C237.069 95.3727 236.896 95.1233 236.73 94.8781C236.571 94.6349 236.44 94.4383 236.338 94.2883C236.091 93.9247 235.826 93.6024 235.541 93.3215C235.263 93.0427 234.96 92.8561 234.632 92.7616C234.31 92.6692 233.958 92.7188 233.577 92.9103C233.057 93.1721 232.761 93.5625 232.688 94.0814C232.621 94.6025 232.738 95.1612 233.038 95.7576ZM246.465 106.388L245.407 105.235C245.589 105.037 245.744 104.803 245.873 104.531C246.007 104.262 246.074 103.953 246.073 103.604C246.073 103.254 245.963 102.862 245.743 102.426C245.443 101.83 245.056 101.402 244.581 101.143C244.112 100.885 243.669 100.862 243.25 101.073C242.878 101.26 242.652 101.543 242.572 101.923C242.493 102.302 242.526 102.815 242.671 103.463L243.044 105.088C243.271 106.066 243.274 106.878 243.053 107.524C242.837 108.169 242.388 108.662 241.707 109.005C241.149 109.286 240.569 109.376 239.967 109.276C239.368 109.18 238.797 108.91 238.256 108.467C237.715 108.024 237.254 107.423 236.873 106.666C236.373 105.672 236.175 104.741 236.279 103.873C236.382 103.004 236.805 102.275 237.547 101.684L238.617 102.927C238.161 103.326 237.896 103.78 237.823 104.288C237.753 104.801 237.872 105.364 238.18 105.977C238.531 106.675 238.958 107.154 239.461 107.416C239.969 107.679 240.433 107.706 240.852 107.495C241.19 107.325 241.414 107.064 241.523 106.712C241.637 106.358 241.627 105.907 241.495 105.359L241.058 103.543C240.821 102.544 240.818 101.724 241.052 101.082C241.292 100.441 241.748 99.9522 242.42 99.6138C242.97 99.3372 243.534 99.2468 244.113 99.3428C244.693 99.4429 245.239 99.701 245.75 100.117C246.264 100.537 246.693 101.09 247.038 101.775C247.523 102.739 247.692 103.603 247.546 104.365C247.402 105.132 247.041 105.806 246.465 106.388Z" fill="#FFDD00"/>
</g>
<defs>
<clipPath id="clip0_3_428">
<rect width="300" height="200" fill="white"/>
</clipPath>
</defs>
</svg>
