<svg width="300" height="200" viewBox="0 0 300 200" fill="none" xmlns="http://www.w3.org/2000/svg">
<g clip-path="url(#clip0_1_193)">
<line y1="79.5" x2="300" y2="79.5" stroke="#4F4F4F"/>
<line y1="159.5" x2="300" y2="159.5" stroke="#4F4F4F"/>
<line y1="39.5" x2="300" y2="39.5" stroke="#4F4F4F"/>
<line y1="119.5" x2="300" y2="119.5" stroke="#4F4F4F"/>
<line y1="199.5" x2="300" y2="199.5" stroke="#4F4F4F"/>
<line y1="19.5" x2="300" y2="19.5" stroke="#4F4F4F"/>
<line y1="99.5" x2="300" y2="99.5" stroke="#4F4F4F"/>
<line y1="179.5" x2="300" y2="179.5" stroke="#4F4F4F"/>
<line y1="59.5" x2="300" y2="59.5" stroke="#4F4F4F"/>
<line y1="139.5" x2="300" y2="139.5" stroke="#4F4F4F"/>
<line x1="159.5" y1="200.01" x2="159.5" y2="1.52588e-05" stroke="#4F4F4F"/>
<line x1="79.5" y1="200.01" x2="79.5" y2="1.52588e-05" stroke="#4F4F4F"/>
<line x1="239.5" y1="200.01" x2="239.5" y2="1.52588e-05" stroke="#4F4F4F"/>
<line x1="39.5" y1="200.01" x2="39.5" y2="1.52588e-05" stroke="#4F4F4F"/>
<line x1="199.5" y1="200.01" x2="199.5" y2="1.52588e-05" stroke="#4F4F4F"/>
<line x1="119.5" y1="200.01" x2="119.5" y2="1.52588e-05" stroke="#4F4F4F"/>
<line x1="279.5" y1="200.01" x2="279.5" y2="1.52588e-05" stroke="#4F4F4F"/>
<line x1="19.5" y1="200.01" x2="19.5" y2="1.52588e-05" stroke="#4F4F4F"/>
<line x1="179.5" y1="200.01" x2="179.5" y2="1.52588e-05" stroke="#4F4F4F"/>
<line x1="99.5" y1="200.01" x2="99.5" y2="1.52588e-05" stroke="#4F4F4F"/>
<line x1="259.5" y1="200.01" x2="259.5" y2="1.52588e-05" stroke="#4F4F4F"/>
<line x1="59.5" y1="200.01" x2="59.5" y2="1.52588e-05" stroke="#4F4F4F"/>
<line x1="219.5" y1="200.01" x2="219.5" y2="1.52588e-05" stroke="#4F4F4F"/>
<line x1="139.5" y1="200.01" x2="139.5" y2="1.52588e-05" stroke="#4F4F4F"/>
<line x1="299.5" y1="200.01" x2="299.5" y2="1.52588e-05" stroke="#4F4F4F"/>
<rect x="137.439" y="91.7225" width="14.1731" height="14.1731" transform="rotate(-138 137.439 91.7225)" fill="#D9D9D9" stroke="#FF7B00"/>
<path d="M259.122 178.158L137 70" stroke="#00B7FF" stroke-width="3" stroke-linecap="round"/>
<line x1="39.5" y1="178.5" x2="259.5" y2="178.5" stroke="white" stroke-width="3" stroke-linecap="round"/>
<path d="M40 178L180 20" stroke="#FFDD00" stroke-width="3" stroke-linecap="round"/>
<path d="M260 178L180 20" stroke="white" stroke-width="3" stroke-linecap="round"/>
<path d="M192.537 29H189.767L197.778 7.18182H200.506L208.517 29H205.747L199.227 10.6335H199.057L192.537 29ZM193.56 20.4773H204.724V22.821H193.56V20.4773Z" fill="white"/>
<path d="M289.199 171H286.557C286.401 170.24 286.127 169.572 285.737 168.997C285.353 168.422 284.884 167.939 284.33 167.548C283.783 167.151 283.176 166.852 282.509 166.653C281.841 166.455 281.145 166.355 280.42 166.355C279.099 166.355 277.903 166.689 276.83 167.357C275.765 168.024 274.916 169.008 274.284 170.308C273.659 171.607 273.347 173.202 273.347 175.091C273.347 176.98 273.659 178.575 274.284 179.874C274.916 181.174 275.765 182.158 276.83 182.825C277.903 183.493 279.099 183.827 280.42 183.827C281.145 183.827 281.841 183.727 282.509 183.528C283.176 183.33 283.783 183.035 284.33 182.644C284.884 182.246 285.353 181.76 285.737 181.185C286.127 180.602 286.401 179.935 286.557 179.182H289.199C289 180.297 288.638 181.295 288.112 182.175C287.587 183.056 286.933 183.805 286.152 184.423C285.371 185.034 284.494 185.499 283.521 185.819C282.555 186.138 281.521 186.298 280.42 186.298C278.56 186.298 276.905 185.844 275.456 184.935C274.007 184.026 272.867 182.733 272.036 181.057C271.205 179.381 270.79 177.392 270.79 175.091C270.79 172.79 271.205 170.801 272.036 169.125C272.867 167.449 274.007 166.156 275.456 165.247C276.905 164.338 278.56 163.884 280.42 163.884C281.521 163.884 282.555 164.043 283.521 164.363C284.494 164.683 285.371 165.151 286.152 165.769C286.933 166.38 287.587 167.126 288.112 168.006C288.638 168.88 289 169.878 289.199 171Z" fill="white"/>
<path d="M12.642 189V167.182H20.2699C21.7898 167.182 23.0433 167.445 24.0305 167.97C25.0178 168.489 25.7528 169.188 26.2358 170.069C26.7188 170.942 26.9602 171.912 26.9602 172.977C26.9602 173.915 26.7933 174.689 26.4595 175.3C26.1328 175.911 25.6996 176.393 25.1598 176.749C24.6271 177.104 24.0483 177.366 23.4233 177.537V177.75C24.0909 177.793 24.7621 178.027 25.4368 178.453C26.1115 178.879 26.6761 179.49 27.1307 180.286C27.5852 181.081 27.8125 182.054 27.8125 183.205C27.8125 184.298 27.5639 185.282 27.0668 186.156C26.5696 187.029 25.7848 187.722 24.7124 188.233C23.6399 188.744 22.2443 189 20.5256 189H12.642ZM15.2841 186.656H20.5256C22.2514 186.656 23.4766 186.322 24.201 185.655C24.9325 184.98 25.2983 184.163 25.2983 183.205C25.2983 182.466 25.1101 181.784 24.7337 181.159C24.3572 180.527 23.821 180.023 23.125 179.646C22.429 179.263 21.6051 179.071 20.6534 179.071H15.2841V186.656ZM15.2841 176.77H20.1847C20.9801 176.77 21.6974 176.614 22.3366 176.301C22.983 175.989 23.4943 175.548 23.8707 174.98C24.2543 174.412 24.446 173.744 24.446 172.977C24.446 172.018 24.1122 171.205 23.4446 170.538C22.777 169.863 21.7188 169.526 20.2699 169.526H15.2841V176.77Z" fill="white"/>
<path d="M90.0204 105.932L79.4476 95.9423L82.9399 92.246C83.6358 91.5095 84.3371 91.0223 85.0437 90.7846C85.747 90.5435 86.4225 90.5076 87.0704 90.6768C87.7148 90.8427 88.2952 91.1696 88.8114 91.6573C89.2657 92.0866 89.5645 92.5219 89.7076 92.9633C89.854 93.4012 89.8897 93.8323 89.8147 94.2565C89.7429 94.6772 89.6052 95.078 89.4016 95.4589L89.5049 95.5564C89.8312 95.2524 90.2521 95.0345 90.7675 94.9026C91.2829 94.7708 91.8374 94.7768 92.431 94.9207C93.0245 95.0647 93.6001 95.4 94.1577 95.9268C94.6877 96.4276 95.0505 96.9984 95.2462 97.6393C95.4419 98.2802 95.4182 98.9775 95.175 99.7313C94.9318 100.485 94.4167 101.278 93.6298 102.111L90.0204 105.932ZM90.0943 103.578L92.494 101.038C93.2842 100.202 93.6834 99.4555 93.6915 98.7987C93.6995 98.1353 93.4712 97.5841 93.0065 97.1452C92.6486 96.807 92.232 96.586 91.7568 96.4823C91.2782 96.3753 90.7883 96.4043 90.2872 96.5692C89.7827 96.7309 89.3126 97.0423 88.8769 97.5035L86.4186 100.105L90.0943 103.578ZM85.3035 99.0519L87.5471 96.6771C87.9113 96.2916 88.164 95.8725 88.3053 95.4197C88.4497 94.9634 88.4705 94.514 88.3675 94.0714C88.2677 93.6255 88.032 93.2269 87.6603 92.8757C87.1957 92.4367 86.6488 92.2261 86.0196 92.244C85.387 92.2586 84.739 92.6169 84.0757 93.319L81.793 95.7351L85.3035 99.0519ZM101.188 94.4838C100.713 94.9863 100.188 95.3529 99.6116 95.5836C99.0319 95.8111 98.4476 95.8746 97.8586 95.774C97.2661 95.6703 96.7118 95.3745 96.1955 94.8868C95.7412 94.4575 95.4575 94.0201 95.3444 93.5745C95.2278 93.1257 95.2301 92.6751 95.3513 92.2228C95.4724 91.7706 95.6641 91.3264 95.9264 90.8902C96.1885 90.4473 96.4694 90.019 96.7691 89.6052C97.1624 89.0649 97.485 88.6303 97.737 88.3017C97.9887 87.9663 98.14 87.6924 98.1909 87.4799C98.2451 87.264 98.1741 87.0634 97.9779 86.878L97.9366 86.839C97.4272 86.3578 96.8997 86.1232 96.3541 86.1353C95.8118 86.144 95.2756 86.4289 94.7456 86.9899C94.196 87.5715 93.8925 88.1478 93.835 88.7189C93.7775 89.2899 93.83 89.7791 93.9922 90.1865L92.4867 90.9527C92.1999 90.2909 92.0849 89.6611 92.1416 89.0633C92.1982 88.4588 92.3666 87.9014 92.6468 87.3911C92.9269 86.874 93.2555 86.4159 93.6327 86.0166C93.8734 85.7619 94.1807 85.4987 94.5549 85.2268C94.9288 84.9482 95.355 84.7419 95.8335 84.6077C96.3153 84.4701 96.8413 84.4753 97.4115 84.6232C97.9817 84.7712 98.5818 85.1427 99.2116 85.7377L104.436 90.6738L103.285 91.8922L102.211 90.8776L102.153 90.9396C102.247 91.1848 102.301 91.4964 102.315 91.8745C102.329 92.2526 102.254 92.6667 102.089 93.1168C101.924 93.567 101.624 94.0226 101.188 94.4838ZM100.269 93.2639C100.724 92.7821 101.014 92.2866 101.136 91.7773C101.263 91.2646 101.256 90.7825 101.115 90.331C100.979 89.876 100.745 89.4924 100.415 89.1802L99.2995 88.1267C99.3127 88.2368 99.2622 88.4041 99.1479 88.6284C99.0335 88.846 98.888 89.0862 98.7112 89.3492C98.5343 89.6054 98.3588 89.8532 98.1847 90.0926C98.0104 90.3253 97.8701 90.5152 97.7638 90.6622C97.5059 91.0179 97.2934 91.3773 97.1261 91.7404C96.9587 92.0968 96.8866 92.4455 96.9097 92.7865C96.9325 93.1208 97.0989 93.4343 97.4086 93.7269C97.8319 94.1269 98.3 94.2727 98.8127 94.1644C99.3252 94.0494 99.8108 93.7492 100.269 93.2639ZM105.69 77.0192L104.966 78.4063C104.718 78.3028 104.445 78.2369 104.146 78.2085C103.847 78.1734 103.534 78.2158 103.205 78.3357C102.877 78.4555 102.546 78.6927 102.211 79.0472C101.752 79.5325 101.482 80.0425 101.4 80.5774C101.318 81.1056 101.447 81.5307 101.788 81.8526C102.091 82.1387 102.434 82.2546 102.818 82.2002C103.201 82.1457 103.673 81.9398 104.232 81.5823L105.633 80.6783C106.475 80.1319 107.238 79.8524 107.921 79.8397C108.6 79.8238 109.217 80.0776 109.771 80.6011C110.225 81.0303 110.508 81.5448 110.619 82.1446C110.733 82.7409 110.673 83.3689 110.441 84.0286C110.208 84.6884 109.801 85.3262 109.219 85.9423C108.455 86.7511 107.647 87.2547 106.795 87.453C105.943 87.6514 105.113 87.5024 104.306 87.0062L105.109 85.5766C105.64 85.8697 106.157 85.9639 106.66 85.8592C107.166 85.7511 107.654 85.4475 108.126 84.9484C108.662 84.3805 108.968 83.8159 109.042 83.2544C109.117 82.6863 108.983 82.2412 108.643 81.9193C108.367 81.6592 108.046 81.5377 107.678 81.5548C107.306 81.5687 106.886 81.7314 106.416 82.0428L104.857 83.0717C103.999 83.6353 103.228 83.9168 102.545 83.9161C101.861 83.9087 101.246 83.6465 100.699 83.1295C100.251 82.7067 99.9743 82.2072 99.8675 81.6308C99.764 81.0509 99.8206 80.4497 100.037 79.8273C100.257 79.2014 100.631 78.6097 101.158 78.0522C101.899 77.2675 102.653 76.814 103.42 76.6917C104.19 76.5661 104.947 76.6752 105.69 77.0192ZM117.02 77.6862C116.298 78.4502 115.506 78.95 114.646 79.1854C113.785 79.4142 112.908 79.3905 112.016 79.1143C111.124 78.8315 110.271 78.3064 109.459 77.539C108.647 76.7716 108.071 75.9472 107.731 75.0659C107.391 74.178 107.299 73.303 107.456 72.4411C107.612 71.5726 108.028 70.7803 108.704 70.0645C109.095 69.6515 109.549 69.3087 110.067 69.0361C110.585 68.7635 111.155 68.6083 111.777 68.5705C112.395 68.5295 113.05 68.6499 113.742 68.9318C114.433 69.2136 115.149 69.7041 115.888 70.4032L116.405 70.891L110.63 77.0034L109.577 76.0083L114.181 71.1349C113.734 70.7122 113.25 70.4245 112.73 70.2718C112.213 70.1156 111.698 70.1051 111.186 70.2402C110.678 70.3719 110.215 70.658 109.799 71.0985C109.34 71.5838 109.064 72.1175 108.97 72.6996C108.876 73.275 108.93 73.8378 109.134 74.3881C109.337 74.9383 109.657 75.4199 110.094 75.8329L110.796 76.4962C111.395 77.062 112 77.4384 112.612 77.6254C113.223 77.8056 113.813 77.8123 114.381 77.6455C114.945 77.4754 115.46 77.1443 115.925 76.6521C116.228 76.332 116.456 76.0007 116.61 75.658C116.765 75.3086 116.84 74.9531 116.836 74.5915C116.829 74.2266 116.737 73.8625 116.559 73.4991L118.002 72.6342C118.284 73.1353 118.438 73.6752 118.465 74.2539C118.488 74.8293 118.38 75.4118 118.142 76.0014C117.901 76.5877 117.527 77.1493 117.02 77.6862Z" fill="#FFDD00"/>
<path d="M154.618 115.458L164.197 104.512L165.522 105.672L161.257 110.547L167.093 115.654L171.359 110.779L172.684 111.939L163.106 122.886L161.78 121.726L166.064 116.83L160.228 111.722L155.944 116.618L154.618 115.458ZM168.881 128.241C168.09 127.549 167.56 126.777 167.292 125.926C167.031 125.074 167.021 124.198 167.263 123.296C167.511 122.393 168.004 121.522 168.739 120.681C169.475 119.84 170.277 119.233 171.145 118.859C172.019 118.486 172.89 118.361 173.757 118.484C174.631 118.607 175.439 118.993 176.18 119.641C176.607 120.016 176.967 120.456 177.259 120.964C177.552 121.471 177.728 122.035 177.79 122.655C177.854 123.271 177.759 123.93 177.504 124.632C177.249 125.333 176.786 126.067 176.115 126.833L175.648 127.368L169.319 121.83L170.273 120.74L175.319 125.155C175.724 124.691 175.993 124.197 176.126 123.672C176.262 123.149 176.253 122.635 176.099 122.128C175.948 121.625 175.644 121.174 175.188 120.774C174.686 120.335 174.142 120.079 173.557 120.007C172.978 119.935 172.418 120.011 171.876 120.235C171.334 120.459 170.865 120.797 170.469 121.25L169.832 121.977C169.29 122.597 168.937 123.216 168.773 123.834C168.617 124.452 168.632 125.042 168.821 125.603C169.012 126.16 169.363 126.662 169.872 127.108C170.204 127.398 170.544 127.614 170.892 127.755C171.247 127.896 171.605 127.957 171.966 127.94C172.331 127.919 172.691 127.813 173.047 127.621L173.967 129.03C173.477 129.331 172.943 129.506 172.366 129.554C171.792 129.599 171.205 129.514 170.607 129.299C170.012 129.08 169.437 128.728 168.881 128.241ZM174.349 132.724L181.533 124.514L182.794 125.618L175.61 133.828L174.349 132.724ZM183.371 123.707C183.125 123.492 182.987 123.223 182.955 122.899C182.927 122.579 183.016 122.301 183.222 122.066C183.428 121.831 183.691 121.706 184.012 121.691C184.337 121.68 184.622 121.782 184.868 121.997C185.114 122.212 185.251 122.48 185.279 122.8C185.31 123.123 185.223 123.403 185.018 123.638C184.812 123.873 184.547 123.996 184.222 124.008C183.901 124.023 183.617 123.922 183.371 123.707ZM178.39 141.999C177.781 141.466 177.326 140.929 177.025 140.389C176.721 139.852 176.533 139.329 176.462 138.82C176.392 138.318 176.396 137.85 176.474 137.415L178.097 137.589C178.08 137.839 178.074 138.136 178.08 138.481C178.084 138.83 178.174 139.208 178.352 139.616C178.531 140.03 178.868 140.454 179.363 140.887C180.026 141.467 180.713 141.785 181.425 141.842C182.137 141.898 182.792 141.585 183.391 140.901L184.85 139.233L184.743 139.139C184.519 139.208 184.225 139.278 183.861 139.349C183.503 139.42 183.091 139.402 182.624 139.296C182.164 139.189 181.667 138.901 181.132 138.434C180.47 137.854 180.012 137.176 179.759 136.401C179.51 135.629 179.494 134.81 179.711 133.943C179.932 133.08 180.417 132.22 181.165 131.365C181.901 130.524 182.689 129.921 183.531 129.556C184.375 129.188 185.211 129.064 186.038 129.183C186.867 129.299 187.628 129.659 188.319 130.264C188.854 130.732 189.2 131.192 189.357 131.645C189.522 132.097 189.589 132.508 189.56 132.879C189.538 133.25 189.511 133.547 189.479 133.771L189.607 133.883L190.748 132.579L191.967 133.645L184.577 142.09C183.96 142.795 183.297 143.229 182.59 143.39C181.883 143.558 181.17 143.51 180.451 143.246C179.733 142.988 179.046 142.573 178.39 141.999ZM182.295 137.45C182.801 137.893 183.33 138.151 183.882 138.225C184.434 138.299 184.991 138.199 185.553 137.923C186.115 137.647 186.661 137.206 187.191 136.601C187.709 136.009 188.076 135.409 188.294 134.801C188.512 134.192 188.559 133.607 188.434 133.045C188.309 132.483 187.99 131.977 187.477 131.528C186.943 131.061 186.379 130.806 185.786 130.765C185.196 130.727 184.612 130.858 184.035 131.159C183.461 131.462 182.931 131.892 182.445 132.447C181.946 133.018 181.594 133.6 181.389 134.194C181.19 134.788 181.158 135.364 181.292 135.922C181.433 136.479 181.768 136.989 182.295 137.45ZM192.675 140.04L188.353 144.979L187.092 143.875L196.671 132.929L197.932 134.033L194.415 138.052L194.522 138.146C195.085 137.89 195.668 137.806 196.272 137.893C196.881 137.98 197.509 138.306 198.154 138.87C198.713 139.36 199.105 139.901 199.329 140.493C199.556 141.082 199.584 141.707 199.414 142.37C199.25 143.032 198.859 143.715 198.242 144.421L193.677 149.637L192.415 148.534L196.905 143.403C197.476 142.751 197.748 142.098 197.721 141.446C197.701 140.793 197.394 140.206 196.799 139.685C196.385 139.323 195.938 139.086 195.458 138.974C194.981 138.865 194.501 138.895 194.019 139.065C193.541 139.238 193.093 139.563 192.675 140.04ZM206.739 146.571L205.803 147.64L201.549 143.917L202.484 142.848L206.739 146.571ZM205.445 141.967L206.707 143.07L199.86 150.895C199.548 151.252 199.366 151.564 199.313 151.833C199.267 152.101 199.3 152.337 199.411 152.541C199.528 152.744 199.68 152.927 199.865 153.089C200.004 153.211 200.124 153.304 200.226 153.367C200.33 153.427 200.414 153.476 200.477 153.512L199.742 154.869C199.628 154.826 199.481 154.754 199.3 154.652C199.115 154.554 198.905 154.402 198.67 154.196C198.314 153.884 198.032 153.502 197.824 153.049C197.619 152.6 197.542 152.12 197.592 151.61C197.645 151.103 197.881 150.611 198.299 150.134L205.445 141.967Z" fill="#00B7FF"/>
</g>
<defs>
<clipPath id="clip0_1_193">
<rect width="300" height="200" fill="white"/>
</clipPath>
</defs>
</svg>
