<svg width="300" height="200" viewBox="0 0 300 200" fill="none" xmlns="http://www.w3.org/2000/svg">
<g clip-path="url(#clip0_3_351)">
<line y1="79.5" x2="300" y2="79.5" stroke="#4F4F4F"/>
<line y1="159.5" x2="300" y2="159.5" stroke="#4F4F4F"/>
<line y1="39.5" x2="300" y2="39.5" stroke="#4F4F4F"/>
<line y1="119.5" x2="300" y2="119.5" stroke="#4F4F4F"/>
<line y1="199.5" x2="300" y2="199.5" stroke="#4F4F4F"/>
<line y1="19.5" x2="300" y2="19.5" stroke="#4F4F4F"/>
<line y1="99.5" x2="300" y2="99.5" stroke="#4F4F4F"/>
<line y1="179.5" x2="300" y2="179.5" stroke="#4F4F4F"/>
<line y1="59.5" x2="300" y2="59.5" stroke="#4F4F4F"/>
<line y1="139.5" x2="300" y2="139.5" stroke="#4F4F4F"/>
<line x1="159.5" y1="200.01" x2="159.5" y2="1.52588e-05" stroke="#4F4F4F"/>
<line x1="79.5" y1="200.01" x2="79.5" y2="1.52588e-05" stroke="#4F4F4F"/>
<line x1="239.5" y1="200.01" x2="239.5" y2="1.52588e-05" stroke="#4F4F4F"/>
<line x1="39.5" y1="200.01" x2="39.5" y2="1.52588e-05" stroke="#4F4F4F"/>
<line x1="199.5" y1="200.01" x2="199.5" y2="1.52588e-05" stroke="#4F4F4F"/>
<line x1="119.5" y1="200.01" x2="119.5" y2="1.52588e-05" stroke="#4F4F4F"/>
<line x1="279.5" y1="200.01" x2="279.5" y2="1.52588e-05" stroke="#4F4F4F"/>
<line x1="19.5" y1="200.01" x2="19.5" y2="1.52588e-05" stroke="#4F4F4F"/>
<line x1="179.5" y1="200.01" x2="179.5" y2="1.52588e-05" stroke="#4F4F4F"/>
<line x1="99.5" y1="200.01" x2="99.5" y2="1.52588e-05" stroke="#4F4F4F"/>
<line x1="259.5" y1="200.01" x2="259.5" y2="1.52588e-05" stroke="#4F4F4F"/>
<line x1="59.5" y1="200.01" x2="59.5" y2="1.52588e-05" stroke="#4F4F4F"/>
<line x1="219.5" y1="200.01" x2="219.5" y2="1.52588e-05" stroke="#4F4F4F"/>
<line x1="139.5" y1="200.01" x2="139.5" y2="1.52588e-05" stroke="#4F4F4F"/>
<line x1="299.5" y1="200.01" x2="299.5" y2="1.52588e-05" stroke="#4F4F4F"/>
<path d="M40 177.96L214.797 91" stroke="#00B7FF" stroke-width="3" stroke-linecap="round"/>
<line x1="39.5" y1="178.5" x2="259.5" y2="178.5" stroke="white" stroke-width="3" stroke-linecap="round"/>
<path d="M40 178L180 20" stroke="white" stroke-width="3" stroke-linecap="round"/>
<path d="M260 178L180 20" stroke="#FFDD00" stroke-width="3" stroke-linecap="round"/>
<path d="M192.537 29H189.767L197.778 7.18182H200.506L208.517 29H205.747L199.227 10.6335H199.057L192.537 29ZM193.56 20.4773H204.724V22.821H193.56V20.4773Z" fill="white"/>
<path d="M289.199 171H286.557C286.401 170.24 286.127 169.572 285.737 168.997C285.353 168.422 284.884 167.939 284.33 167.548C283.783 167.151 283.176 166.852 282.509 166.653C281.841 166.455 281.145 166.355 280.42 166.355C279.099 166.355 277.903 166.689 276.83 167.357C275.765 168.024 274.916 169.008 274.284 170.308C273.659 171.607 273.347 173.202 273.347 175.091C273.347 176.98 273.659 178.575 274.284 179.874C274.916 181.174 275.765 182.158 276.83 182.825C277.903 183.493 279.099 183.827 280.42 183.827C281.145 183.827 281.841 183.727 282.509 183.528C283.176 183.33 283.783 183.035 284.33 182.644C284.884 182.246 285.353 181.76 285.737 181.185C286.127 180.602 286.401 179.935 286.557 179.182H289.199C289 180.297 288.638 181.295 288.112 182.175C287.587 183.056 286.933 183.805 286.152 184.423C285.371 185.034 284.494 185.499 283.521 185.819C282.555 186.138 281.521 186.298 280.42 186.298C278.56 186.298 276.905 185.844 275.456 184.935C274.007 184.026 272.867 182.733 272.036 181.057C271.205 179.381 270.79 177.392 270.79 175.091C270.79 172.79 271.205 170.801 272.036 169.125C272.867 167.449 274.007 166.156 275.456 165.247C276.905 164.338 278.56 163.884 280.42 163.884C281.521 163.884 282.555 164.043 283.521 164.363C284.494 164.683 285.371 165.151 286.152 165.769C286.933 166.38 287.587 167.126 288.112 168.006C288.638 168.88 289 169.878 289.199 171Z" fill="white"/>
<path d="M12.642 189V167.182H20.2699C21.7898 167.182 23.0433 167.445 24.0305 167.97C25.0178 168.489 25.7528 169.188 26.2358 170.069C26.7188 170.942 26.9602 171.912 26.9602 172.977C26.9602 173.915 26.7933 174.689 26.4595 175.3C26.1328 175.911 25.6996 176.393 25.1598 176.749C24.6271 177.104 24.0483 177.366 23.4233 177.537V177.75C24.0909 177.793 24.7621 178.027 25.4368 178.453C26.1115 178.879 26.6761 179.49 27.1307 180.286C27.5852 181.081 27.8125 182.054 27.8125 183.205C27.8125 184.298 27.5639 185.282 27.0668 186.156C26.5696 187.029 25.7848 187.722 24.7124 188.233C23.6399 188.744 22.2443 189 20.5256 189H12.642ZM15.2841 186.656H20.5256C22.2514 186.656 23.4766 186.322 24.201 185.655C24.9325 184.98 25.2983 184.163 25.2983 183.205C25.2983 182.466 25.1101 181.784 24.7337 181.159C24.3572 180.527 23.821 180.023 23.125 179.646C22.429 179.263 21.6051 179.071 20.6534 179.071H15.2841V186.656ZM15.2841 176.77H20.1847C20.9801 176.77 21.6974 176.614 22.3366 176.301C22.983 175.989 23.4943 175.548 23.8707 174.98C24.2543 174.412 24.446 173.744 24.446 172.977C24.446 172.018 24.1122 171.205 23.4446 170.538C22.777 169.863 21.7188 169.526 20.2699 169.526H15.2841V176.77Z" fill="white"/>
<path d="M222.258 77.1132L235.252 70.5756L237.537 75.1182C237.993 76.0233 238.212 76.8486 238.195 77.594C238.182 78.3373 237.985 78.9847 237.606 79.5362C237.23 80.0856 236.725 80.5199 236.091 80.8391C235.532 81.12 235.021 81.2526 234.557 81.2368C234.096 81.2252 233.678 81.1119 233.305 80.8969C232.934 80.6861 232.604 80.4201 232.315 80.099L232.188 80.1628C232.363 80.5732 232.425 81.0431 232.373 81.5726C232.321 82.1021 232.127 82.6214 231.789 83.1304C231.452 83.6395 230.94 84.0664 230.255 84.4111C229.604 84.7389 228.944 84.8856 228.274 84.8513C227.605 84.8169 226.958 84.5571 226.332 84.0716C225.706 83.5862 225.135 82.8316 224.62 81.8081L222.258 77.1132ZM224.446 77.9843L226.016 81.1058C226.533 82.1336 227.099 82.7632 227.714 82.9946C228.335 83.228 228.931 83.2011 229.502 82.9138C229.942 82.6925 230.291 82.3761 230.551 81.9647C230.814 81.5511 230.954 81.0807 230.97 80.5534C230.99 80.024 230.857 79.4759 230.572 78.9091L228.963 75.7115L224.446 77.9843ZM230.333 75.022L231.802 77.9404C232.04 78.4141 232.348 78.7945 232.726 79.0815C233.105 79.3728 233.521 79.5454 233.972 79.5993C234.425 79.6575 234.88 79.5716 235.337 79.3418C235.908 79.0545 236.292 78.612 236.49 78.0144C236.692 77.4146 236.576 76.6833 236.141 75.8205L234.648 72.8513L230.333 75.022ZM229.217 91.5126C228.906 90.8951 228.741 90.2762 228.72 89.6558C228.704 89.0333 228.843 88.4623 229.138 87.9427C229.437 87.4211 229.904 87.0007 230.539 86.6814C231.097 86.4005 231.605 86.2828 232.063 86.3282C232.524 86.3715 232.947 86.5272 233.331 86.7951C233.715 87.0631 234.067 87.3946 234.388 87.7898C234.715 88.1871 235.022 88.5971 235.309 89.0199C235.683 89.5737 235.982 90.025 236.205 90.3739C236.435 90.7248 236.641 90.9604 236.823 91.0806C237.008 91.2051 237.22 91.2067 237.461 91.0854L237.512 91.0598C238.138 90.7449 238.538 90.3288 238.713 89.8117C238.889 89.2988 238.804 88.6977 238.457 88.0083C238.098 87.2935 237.659 86.8118 237.142 86.5632C236.625 86.3146 236.147 86.1973 235.709 86.2111L235.501 84.5345C236.221 84.4904 236.852 84.5968 237.395 84.8537C237.944 85.1128 238.411 85.461 238.795 85.8984C239.186 86.3378 239.505 86.8029 239.751 87.2935C239.909 87.6065 240.052 87.9852 240.18 88.4295C240.314 88.876 240.363 89.347 240.326 89.8426C240.292 90.3424 240.108 90.8352 239.774 91.3209C239.441 91.8067 238.887 92.2443 238.113 92.6337L231.693 95.8642L230.939 94.3669L232.259 93.703L232.221 93.6268C231.958 93.6317 231.647 93.5764 231.286 93.4608C230.926 93.3453 230.562 93.1334 230.195 92.8251C229.828 92.5169 229.502 92.0794 229.217 91.5126ZM230.677 91.0643C230.975 91.6565 231.342 92.097 231.779 92.386C232.218 92.6793 232.674 92.8369 233.146 92.859C233.621 92.8854 234.061 92.7964 234.467 92.5921L235.837 91.9026C235.729 91.8774 235.589 91.773 235.417 91.5892C235.252 91.4075 235.075 91.1888 234.888 90.933C234.708 90.6794 234.534 90.4299 234.369 90.1847C234.209 89.9416 234.079 89.745 233.977 89.5949C233.73 89.2313 233.464 88.9091 233.18 88.6282C232.902 88.3494 232.599 88.1627 232.27 88.0683C231.948 87.9759 231.597 88.0255 231.216 88.217C230.696 88.4788 230.399 88.8692 230.326 89.3881C230.26 89.9092 230.377 90.4679 230.677 91.0643ZM244.103 101.695L243.046 100.541C243.228 100.344 243.383 100.11 243.511 99.8382C243.646 99.5689 243.713 99.2596 243.712 98.9102C243.711 98.5608 243.601 98.1683 243.382 97.7327C243.082 97.1363 242.694 96.7085 242.219 96.4492C241.751 96.192 241.307 96.1688 240.888 96.3795C240.516 96.5668 240.29 96.85 240.211 97.2293C240.131 97.6085 240.164 98.1219 240.31 98.7695L240.682 100.395C240.909 101.372 240.913 102.185 240.692 102.831C240.475 103.475 240.027 103.969 239.346 104.311C238.787 104.592 238.207 104.683 237.606 104.582C237.006 104.487 236.436 104.217 235.895 103.774C235.354 103.33 234.893 102.73 234.512 101.973C234.012 100.979 233.814 100.048 233.917 99.1794C234.021 98.311 234.444 97.5815 235.185 96.991L236.256 98.2334C235.799 98.6326 235.535 99.0864 235.462 99.5948C235.391 100.107 235.51 100.67 235.819 101.284C236.17 101.982 236.597 102.461 237.099 102.722C237.608 102.986 238.072 103.012 238.491 102.802C238.829 102.631 239.053 102.37 239.162 102.018C239.275 101.665 239.266 101.214 239.133 100.665L238.697 98.8498C238.459 97.8509 238.457 97.0304 238.69 96.3882C238.93 95.7481 239.386 95.2589 240.059 94.9205C240.609 94.6438 241.173 94.5535 241.751 94.6494C242.332 94.7496 242.878 95.0077 243.389 95.4235C243.902 95.8436 244.331 96.3962 244.676 97.0815C245.161 98.0458 245.331 98.9093 245.185 99.672C245.04 100.439 244.68 101.113 244.103 101.695ZM239.617 112.119C239.145 111.18 238.944 110.266 239.016 109.377C239.094 108.489 239.415 107.673 239.979 106.928C240.549 106.186 241.333 105.564 242.331 105.061C243.329 104.559 244.3 104.298 245.245 104.279C246.195 104.262 247.049 104.473 247.806 104.914C248.57 105.357 249.173 106.018 249.615 106.898C249.871 107.405 250.038 107.949 250.118 108.529C250.198 109.109 250.15 109.698 249.973 110.296C249.801 110.891 249.465 111.466 248.964 112.02C248.464 112.574 247.759 113.079 246.85 113.537L246.215 113.856L242.436 106.344L243.73 105.693L246.743 111.682C247.293 111.406 247.729 111.049 248.049 110.612C248.372 110.179 248.557 109.699 248.605 109.171C248.654 108.648 248.543 108.116 248.27 107.575C247.97 106.978 247.563 106.537 247.047 106.25C246.538 105.965 245.991 105.825 245.404 105.829C244.818 105.832 244.256 105.969 243.719 106.239L242.856 106.674C242.12 107.044 241.56 107.485 241.176 107.996C240.798 108.509 240.591 109.061 240.554 109.652C240.522 110.241 240.658 110.838 240.962 111.443C241.16 111.836 241.394 112.164 241.663 112.426C241.939 112.69 242.248 112.881 242.589 113.001C242.934 113.119 243.308 113.156 243.71 113.113L244.032 114.764C243.465 114.858 242.905 114.819 242.352 114.647C241.803 114.473 241.292 114.173 240.818 113.749C240.349 113.322 239.949 112.779 239.617 112.119Z" fill="#FFDD00"/>
<path d="M109.98 135.118L103.549 122.071L105.129 121.292L107.993 127.102L114.949 123.673L112.086 117.863L113.666 117.084L120.097 130.131L118.517 130.91L115.64 125.075L108.684 128.504L111.56 134.339L109.98 135.118ZM127.259 126.854C126.316 127.319 125.4 127.512 124.511 127.432C123.624 127.347 122.811 127.019 122.071 126.45C121.333 125.874 120.717 125.085 120.223 124.083C119.729 123.08 119.476 122.107 119.465 121.162C119.455 120.212 119.674 119.359 120.121 118.606C120.57 117.846 121.236 117.249 122.119 116.813C122.629 116.562 123.174 116.399 123.755 116.324C124.335 116.249 124.924 116.302 125.52 116.483C126.114 116.66 126.686 117.001 127.235 117.506C127.785 118.011 128.285 118.72 128.735 119.633L129.049 120.27L121.507 123.988L120.866 122.689L126.88 119.724C126.608 119.172 126.254 118.734 125.82 118.41C125.39 118.083 124.911 117.894 124.384 117.842C123.862 117.789 123.328 117.896 122.785 118.164C122.186 118.459 121.741 118.863 121.45 119.376C121.162 119.882 121.017 120.429 121.015 121.016C121.014 121.602 121.146 122.165 121.412 122.704L121.839 123.571C122.204 124.31 122.64 124.873 123.148 125.262C123.658 125.644 124.209 125.855 124.799 125.897C125.388 125.934 125.986 125.803 126.593 125.504C126.988 125.309 127.317 125.078 127.581 124.81C127.848 124.537 128.042 124.23 128.165 123.889C128.285 123.545 128.326 123.171 128.285 122.769L129.939 122.461C130.029 123.029 129.985 123.588 129.809 124.14C129.63 124.688 129.326 125.196 128.898 125.666C128.468 126.131 127.921 126.527 127.259 126.854ZM133.497 123.526L128.673 113.741L130.177 113L135 122.785L133.497 123.526ZM128.634 111.733C128.341 111.878 128.039 111.902 127.728 111.807C127.422 111.71 127.199 111.522 127.061 111.241C126.923 110.961 126.909 110.67 127.019 110.368C127.133 110.063 127.336 109.839 127.629 109.695C127.922 109.55 128.222 109.527 128.528 109.624C128.839 109.718 129.064 109.906 129.202 110.186C129.34 110.467 129.352 110.759 129.238 111.063C129.128 111.365 128.927 111.589 128.634 111.733ZM143.612 123.354C142.886 123.712 142.216 123.926 141.601 123.997C140.989 124.071 140.434 124.044 139.938 123.914C139.447 123.786 139.016 123.603 138.645 123.364L139.428 121.932C139.652 122.044 139.924 122.163 140.245 122.29C140.569 122.421 140.953 122.482 141.397 122.474C141.848 122.468 142.369 122.32 142.959 122.029C143.749 121.639 144.307 121.127 144.632 120.491C144.958 119.856 144.92 119.13 144.518 118.315L143.538 116.327L143.411 116.39C143.388 116.623 143.34 116.921 143.266 117.285C143.194 117.642 143.019 118.016 142.742 118.406C142.466 118.79 142.01 119.139 141.373 119.453C140.583 119.843 139.782 120.005 138.969 119.941C138.161 119.875 137.398 119.576 136.681 119.042C135.968 118.507 135.361 117.729 134.858 116.71C134.364 115.708 134.11 114.748 134.096 113.831C134.08 112.91 134.286 112.091 134.714 111.373C135.139 110.651 135.764 110.087 136.588 109.681C137.225 109.367 137.783 109.224 138.261 109.252C138.742 109.274 139.148 109.37 139.479 109.539C139.813 109.702 140.077 109.841 140.271 109.956L140.424 109.881L139.658 108.326L141.11 107.611L146.071 117.676C146.486 118.517 146.632 119.295 146.509 120.01C146.393 120.727 146.075 121.367 145.555 121.929C145.041 122.494 144.394 122.968 143.612 123.354ZM140.911 118.002C141.514 117.705 141.956 117.316 142.236 116.834C142.516 116.353 142.637 115.8 142.598 115.175C142.559 114.55 142.362 113.877 142.006 113.155C141.658 112.45 141.246 111.88 140.767 111.446C140.289 111.011 139.767 110.743 139.2 110.643C138.633 110.542 138.044 110.642 137.432 110.944C136.795 111.258 136.344 111.681 136.078 112.213C135.817 112.743 135.714 113.332 135.769 113.98C135.829 114.627 136.023 115.281 136.349 115.943C136.684 116.623 137.086 117.172 137.556 117.589C138.028 118.001 138.548 118.251 139.115 118.341C139.684 118.425 140.283 118.312 140.911 118.002ZM147.287 109.412L150.189 115.298L148.685 116.039L142.254 102.992L143.758 102.251L146.119 107.042L146.246 106.979C146.227 106.361 146.373 105.79 146.685 105.266C146.999 104.737 147.541 104.282 148.309 103.903C148.976 103.575 149.626 103.421 150.259 103.441C150.89 103.457 151.479 103.671 152.025 104.083C152.573 104.489 153.054 105.112 153.469 105.953L156.534 112.17L155.03 112.911L152.016 106.796C151.633 106.019 151.135 105.517 150.522 105.291C149.911 105.059 149.251 105.118 148.542 105.467C148.049 105.71 147.659 106.032 147.371 106.433C147.087 106.831 146.931 107.286 146.902 107.796C146.878 108.304 147.007 108.843 147.287 109.412ZM158.716 98.932L159.344 100.206L154.273 102.706L153.645 101.432L158.716 98.932ZM153.968 98.3587L155.471 97.6176L160.068 106.944C160.278 107.369 160.496 107.657 160.724 107.808C160.954 107.954 161.184 108.014 161.415 107.99C161.648 107.96 161.875 107.89 162.096 107.781C162.262 107.7 162.394 107.624 162.491 107.555C162.587 107.481 162.664 107.422 162.721 107.378L163.693 108.578C163.61 108.666 163.486 108.775 163.322 108.903C163.161 109.036 162.94 109.171 162.659 109.309C162.235 109.518 161.773 109.632 161.276 109.651C160.782 109.667 160.31 109.554 159.858 109.312C159.41 109.068 159.046 108.662 158.766 108.093L153.968 98.3587Z" fill="#00B7FF"/>
<rect x="202.672" y="99.0733" width="14.1731" height="14.1731" transform="rotate(-26.85 202.672 99.0733)" fill="#D9D9D9" stroke="#FF7B00"/>
</g>
<defs>
<clipPath id="clip0_3_351">
<rect width="300" height="200" fill="white"/>
</clipPath>
</defs>
</svg>
