<svg width="302" height="202" viewBox="0 0 302 202" fill="none" xmlns="http://www.w3.org/2000/svg">
<line x1="0.5" y1="201.01" x2="0.5" y2="1.00002" stroke="#4F4F4F"/>
<line x1="1" y1="0.5" x2="301" y2="0.5" stroke="#4F4F4F"/>
<line x1="1" y1="80.5" x2="301" y2="80.5" stroke="#4F4F4F"/>
<line x1="1" y1="160.5" x2="301" y2="160.5" stroke="#4F4F4F"/>
<line x1="1" y1="40.5" x2="301" y2="40.5" stroke="#4F4F4F"/>
<line x1="1" y1="120.5" x2="301" y2="120.5" stroke="#4F4F4F"/>
<line x1="1" y1="200.5" x2="301" y2="200.5" stroke="#4F4F4F"/>
<line x1="1" y1="20.5" x2="301" y2="20.5" stroke="#4F4F4F"/>
<line x1="1" y1="100.5" x2="301" y2="100.5" stroke="#4F4F4F"/>
<line x1="1" y1="180.5" x2="301" y2="180.5" stroke="#4F4F4F"/>
<line x1="1" y1="60.5" x2="301" y2="60.5" stroke="#4F4F4F"/>
<line x1="1" y1="140.5" x2="301" y2="140.5" stroke="#4F4F4F"/>
<line x1="160.5" y1="201.01" x2="160.5" y2="1.00002" stroke="#4F4F4F"/>
<line x1="80.5" y1="201.01" x2="80.5" y2="1.00002" stroke="#4F4F4F"/>
<line x1="240.5" y1="201.01" x2="240.5" y2="1.00002" stroke="#4F4F4F"/>
<line x1="40.5" y1="201.01" x2="40.5" y2="1.00002" stroke="#4F4F4F"/>
<line x1="200.5" y1="201.01" x2="200.5" y2="1.00002" stroke="#4F4F4F"/>
<line x1="120.5" y1="201.01" x2="120.5" y2="1.00002" stroke="#4F4F4F"/>
<line x1="280.5" y1="201.01" x2="280.5" y2="1.00002" stroke="#4F4F4F"/>
<line x1="20.5" y1="201.01" x2="20.5" y2="1.00002" stroke="#4F4F4F"/>
<line x1="180.5" y1="201.01" x2="180.5" y2="1.00002" stroke="#4F4F4F"/>
<line x1="100.5" y1="201.01" x2="100.5" y2="1.00002" stroke="#4F4F4F"/>
<line x1="260.5" y1="201.01" x2="260.5" y2="1.00002" stroke="#4F4F4F"/>
<line x1="60.5" y1="201.01" x2="60.5" y2="1.00002" stroke="#4F4F4F"/>
<line x1="220.5" y1="201.01" x2="220.5" y2="1.00002" stroke="#4F4F4F"/>
<line x1="140.5" y1="201.01" x2="140.5" y2="1.00002" stroke="#4F4F4F"/>
<line x1="300.5" y1="201.01" x2="300.5" y2="1.00002" stroke="#4F4F4F"/>
<path d="M41 178.96L215.797 92" stroke="#00B7FF" stroke-width="3" stroke-linecap="round"/>
<line x1="40.5" y1="179.5" x2="260.5" y2="179.5" stroke="white" stroke-width="3" stroke-linecap="round"/>
<path d="M41 179L181 21" stroke="white" stroke-width="3" stroke-linecap="round"/>
<path d="M261 179L181 21" stroke="#FFDD00" stroke-width="3" stroke-linecap="round"/>
<path d="M193.537 30H190.767L198.778 8.18182H201.506L209.517 30H206.747L200.227 11.6335H200.057L193.537 30ZM194.56 21.4773H205.724V23.821H194.56V21.4773Z" fill="white"/>
<path d="M290.199 172H287.557C287.401 171.24 287.127 170.572 286.737 169.997C286.353 169.422 285.884 168.939 285.33 168.548C284.783 168.151 284.176 167.852 283.509 167.653C282.841 167.455 282.145 167.355 281.42 167.355C280.099 167.355 278.903 167.689 277.83 168.357C276.765 169.024 275.916 170.008 275.284 171.308C274.659 172.607 274.347 174.202 274.347 176.091C274.347 177.98 274.659 179.575 275.284 180.874C275.916 182.174 276.765 183.158 277.83 183.825C278.903 184.493 280.099 184.827 281.42 184.827C282.145 184.827 282.841 184.727 283.509 184.528C284.176 184.33 284.783 184.035 285.33 183.644C285.884 183.246 286.353 182.76 286.737 182.185C287.127 181.602 287.401 180.935 287.557 180.182H290.199C290 181.297 289.638 182.295 289.112 183.175C288.587 184.056 287.933 184.805 287.152 185.423C286.371 186.034 285.494 186.499 284.521 186.819C283.555 187.138 282.521 187.298 281.42 187.298C279.56 187.298 277.905 186.844 276.456 185.935C275.007 185.026 273.867 183.733 273.036 182.057C272.205 180.381 271.79 178.392 271.79 176.091C271.79 173.79 272.205 171.801 273.036 170.125C273.867 168.449 275.007 167.156 276.456 166.247C277.905 165.338 279.56 164.884 281.42 164.884C282.521 164.884 283.555 165.043 284.521 165.363C285.494 165.683 286.371 166.151 287.152 166.769C287.933 167.38 288.587 168.126 289.112 169.006C289.638 169.88 290 170.878 290.199 172Z" fill="white"/>
<path d="M13.642 190V168.182H21.2699C22.7898 168.182 24.0433 168.445 25.0305 168.97C26.0178 169.489 26.7528 170.188 27.2358 171.069C27.7188 171.942 27.9602 172.912 27.9602 173.977C27.9602 174.915 27.7933 175.689 27.4595 176.3C27.1328 176.911 26.6996 177.393 26.1598 177.749C25.6271 178.104 25.0483 178.366 24.4233 178.537V178.75C25.0909 178.793 25.7621 179.027 26.4368 179.453C27.1115 179.879 27.6761 180.49 28.1307 181.286C28.5852 182.081 28.8125 183.054 28.8125 184.205C28.8125 185.298 28.5639 186.282 28.0668 187.156C27.5696 188.029 26.7848 188.722 25.7124 189.233C24.6399 189.744 23.2443 190 21.5256 190H13.642ZM16.2841 187.656H21.5256C23.2514 187.656 24.4766 187.322 25.201 186.655C25.9325 185.98 26.2983 185.163 26.2983 184.205C26.2983 183.466 26.1101 182.784 25.7337 182.159C25.3572 181.527 24.821 181.023 24.125 180.646C23.429 180.263 22.6051 180.071 21.6534 180.071H16.2841V187.656ZM16.2841 177.77H21.1847C21.9801 177.77 22.6974 177.614 23.3366 177.301C23.983 176.989 24.4943 176.548 24.8707 175.98C25.2543 175.412 25.446 174.744 25.446 173.977C25.446 173.018 25.1122 172.205 24.4446 171.538C23.777 170.863 22.7188 170.526 21.2699 170.526H16.2841V177.77Z" fill="white"/>
<path d="M223.258 78.1132L236.252 71.5756L238.537 76.1182C238.993 77.0233 239.212 77.8486 239.195 78.594C239.182 79.3373 238.985 79.9847 238.606 80.5362C238.23 81.0856 237.725 81.5199 237.091 81.8391C236.532 82.12 236.021 82.2526 235.557 82.2368C235.096 82.2252 234.678 82.1119 234.305 81.8969C233.934 81.6861 233.604 81.4201 233.315 81.099L233.188 81.1628C233.363 81.5732 233.425 82.0431 233.373 82.5726C233.321 83.1021 233.127 83.6214 232.789 84.1304C232.452 84.6395 231.94 85.0664 231.255 85.4111C230.604 85.7389 229.944 85.8856 229.274 85.8513C228.605 85.8169 227.958 85.5571 227.332 85.0716C226.706 84.5862 226.135 83.8316 225.62 82.8081L223.258 78.1132ZM225.446 78.9843L227.016 82.1058C227.533 83.1336 228.099 83.7632 228.714 83.9946C229.335 84.228 229.931 84.2011 230.502 83.9138C230.942 83.6925 231.291 83.3761 231.551 82.9647C231.814 82.5511 231.954 82.0807 231.97 81.5534C231.99 81.024 231.857 80.4759 231.572 79.9091L229.963 76.7115L225.446 78.9843ZM231.333 76.022L232.802 78.9404C233.04 79.4141 233.348 79.7945 233.726 80.0815C234.105 80.3728 234.521 80.5454 234.972 80.5993C235.425 80.6575 235.88 80.5716 236.337 80.3418C236.908 80.0545 237.292 79.612 237.49 79.0144C237.692 78.4146 237.576 77.6833 237.141 76.8205L235.648 73.8513L231.333 76.022ZM230.217 92.5126C229.906 91.8951 229.741 91.2762 229.72 90.6558C229.704 90.0333 229.843 89.4623 230.138 88.9427C230.437 88.4211 230.904 88.0007 231.539 87.6814C232.097 87.4005 232.605 87.2828 233.063 87.3282C233.524 87.3715 233.947 87.5272 234.331 87.7951C234.715 88.0631 235.067 88.3946 235.388 88.7898C235.715 89.1871 236.022 89.5971 236.309 90.0199C236.683 90.5737 236.982 91.025 237.205 91.3739C237.435 91.7248 237.641 91.9604 237.823 92.0806C238.008 92.2051 238.22 92.2067 238.461 92.0854L238.512 92.0598C239.138 91.7449 239.538 91.3288 239.713 90.8117C239.889 90.2988 239.804 89.6977 239.457 89.0083C239.098 88.2935 238.659 87.8118 238.142 87.5632C237.625 87.3146 237.147 87.1973 236.709 87.2111L236.501 85.5345C237.221 85.4904 237.852 85.5968 238.395 85.8537C238.944 86.1128 239.411 86.461 239.795 86.8984C240.186 87.3378 240.505 87.8029 240.751 88.2935C240.909 88.6065 241.052 88.9852 241.18 89.4295C241.314 89.876 241.363 90.347 241.326 90.8426C241.292 91.3424 241.108 91.8352 240.774 92.3209C240.441 92.8067 239.887 93.2443 239.113 93.6337L232.693 96.8642L231.939 95.3669L233.259 94.703L233.221 94.6268C232.958 94.6317 232.647 94.5764 232.286 94.4608C231.926 94.3453 231.562 94.1334 231.195 93.8251C230.828 93.5169 230.502 93.0794 230.217 92.5126ZM231.677 92.0643C231.975 92.6565 232.342 93.097 232.779 93.386C233.218 93.6793 233.674 93.8369 234.146 93.859C234.621 93.8854 235.061 93.7964 235.467 93.5921L236.837 92.9026C236.729 92.8774 236.589 92.773 236.417 92.5892C236.252 92.4075 236.075 92.1888 235.888 91.933C235.708 91.6794 235.534 91.4299 235.369 91.1847C235.209 90.9416 235.079 90.745 234.977 90.5949C234.73 90.2313 234.464 89.9091 234.18 89.6282C233.902 89.3494 233.599 89.1627 233.27 89.0683C232.948 88.9759 232.597 89.0255 232.216 89.217C231.696 89.4788 231.399 89.8692 231.326 90.3881C231.26 90.9092 231.377 91.4679 231.677 92.0643ZM245.103 102.695L244.046 101.541C244.228 101.344 244.383 101.11 244.511 100.838C244.646 100.569 244.713 100.26 244.712 99.9102C244.711 99.5608 244.601 99.1683 244.382 98.7327C244.082 98.1363 243.694 97.7085 243.219 97.4492C242.751 97.192 242.307 97.1688 241.888 97.3795C241.516 97.5668 241.29 97.85 241.211 98.2293C241.131 98.6085 241.164 99.1219 241.31 99.7695L241.682 101.395C241.909 102.372 241.913 103.185 241.692 103.831C241.475 104.475 241.027 104.969 240.346 105.311C239.787 105.592 239.207 105.683 238.606 105.582C238.006 105.487 237.436 105.217 236.895 104.774C236.354 104.33 235.893 103.73 235.512 102.973C235.012 101.979 234.814 101.048 234.917 100.179C235.021 99.311 235.444 98.5815 236.185 97.991L237.256 99.2334C236.799 99.6326 236.535 100.086 236.462 100.595C236.391 101.107 236.51 101.67 236.819 102.284C237.17 102.982 237.597 103.461 238.099 103.722C238.608 103.986 239.072 104.012 239.491 103.802C239.829 103.631 240.053 103.37 240.162 103.018C240.275 102.665 240.266 102.214 240.133 101.665L239.697 99.8498C239.459 98.8509 239.457 98.0304 239.69 97.3882C239.93 96.7481 240.386 96.2589 241.059 95.9205C241.609 95.6438 242.173 95.5535 242.751 95.6494C243.332 95.7496 243.878 96.0077 244.389 96.4235C244.902 96.8436 245.331 97.3962 245.676 98.0815C246.161 99.0458 246.331 99.9093 246.185 100.672C246.04 101.439 245.68 102.113 245.103 102.695ZM240.617 113.119C240.145 112.18 239.944 111.266 240.016 110.377C240.094 109.489 240.415 108.673 240.979 107.928C241.549 107.186 242.333 106.564 243.331 106.061C244.329 105.559 245.3 105.298 246.245 105.279C247.195 105.262 248.049 105.473 248.806 105.914C249.57 106.357 250.173 107.018 250.615 107.898C250.871 108.405 251.038 108.949 251.118 109.529C251.198 110.109 251.15 110.698 250.973 111.296C250.801 111.891 250.465 112.466 249.964 113.02C249.464 113.574 248.759 114.079 247.85 114.537L247.215 114.856L243.436 107.344L244.73 106.693L247.743 112.682C248.293 112.406 248.729 112.049 249.049 111.612C249.372 111.179 249.557 110.699 249.605 110.171C249.654 109.648 249.543 109.116 249.27 108.575C248.97 107.978 248.563 107.537 248.047 107.25C247.538 106.965 246.991 106.825 246.404 106.829C245.818 106.832 245.256 106.969 244.719 107.239L243.856 107.674C243.12 108.044 242.56 108.485 242.176 108.996C241.798 109.509 241.591 110.061 241.554 110.652C241.522 111.241 241.658 111.838 241.962 112.443C242.16 112.836 242.394 113.164 242.663 113.426C242.939 113.69 243.248 113.881 243.589 114.001C243.934 114.119 244.308 114.156 244.71 114.113L245.032 115.764C244.465 115.858 243.905 115.819 243.352 115.647C242.803 115.473 242.292 115.173 241.818 114.749C241.349 114.322 240.949 113.779 240.617 113.119Z" fill="#FFDD00"/>
<path d="M110.98 136.118L104.549 123.071L106.129 122.292L108.993 128.102L115.949 124.673L113.086 118.863L114.666 118.084L121.097 131.131L119.517 131.91L116.64 126.075L109.684 129.504L112.56 135.339L110.98 136.118ZM128.259 127.854C127.316 128.319 126.4 128.512 125.511 128.432C124.624 128.347 123.811 128.019 123.071 127.45C122.333 126.874 121.717 126.085 121.223 125.083C120.729 124.08 120.476 123.107 120.465 122.162C120.455 121.212 120.674 120.359 121.121 119.606C121.57 118.846 122.236 118.249 123.119 117.813C123.629 117.562 124.174 117.399 124.755 117.324C125.335 117.249 125.924 117.302 126.52 117.483C127.114 117.66 127.686 118.001 128.235 118.506C128.785 119.011 129.285 119.72 129.735 120.633L130.049 121.27L122.507 124.988L121.866 123.689L127.88 120.724C127.608 120.172 127.254 119.734 126.82 119.41C126.39 119.083 125.911 118.894 125.384 118.842C124.862 118.789 124.328 118.896 123.785 119.164C123.186 119.459 122.741 119.863 122.45 120.376C122.162 120.882 122.017 121.429 122.015 122.016C122.014 122.602 122.146 123.165 122.412 123.704L122.839 124.571C123.204 125.31 123.64 125.873 124.148 126.262C124.658 126.644 125.209 126.855 125.799 126.897C126.388 126.934 126.986 126.803 127.593 126.504C127.988 126.309 128.317 126.078 128.581 125.81C128.848 125.537 129.042 125.23 129.165 124.889C129.285 124.545 129.326 124.171 129.285 123.769L130.939 123.461C131.029 124.029 130.985 124.588 130.809 125.14C130.63 125.688 130.326 126.196 129.898 126.666C129.468 127.131 128.921 127.527 128.259 127.854ZM134.497 124.526L129.673 114.741L131.177 114L136 123.785L134.497 124.526ZM129.634 112.733C129.341 112.878 129.039 112.902 128.728 112.807C128.422 112.71 128.199 112.522 128.061 112.241C127.923 111.961 127.909 111.67 128.019 111.368C128.133 111.063 128.336 110.839 128.629 110.695C128.922 110.55 129.222 110.527 129.528 110.624C129.839 110.718 130.064 110.906 130.202 111.186C130.34 111.467 130.352 111.759 130.238 112.063C130.128 112.365 129.927 112.589 129.634 112.733ZM144.612 124.354C143.886 124.712 143.216 124.926 142.601 124.997C141.989 125.071 141.434 125.044 140.938 124.914C140.447 124.786 140.016 124.603 139.645 124.364L140.428 122.932C140.652 123.044 140.924 123.163 141.245 123.29C141.569 123.421 141.953 123.482 142.397 123.474C142.848 123.468 143.369 123.32 143.959 123.029C144.749 122.639 145.307 122.127 145.632 121.491C145.958 120.856 145.92 120.13 145.518 119.315L144.538 117.327L144.411 117.39C144.388 117.623 144.34 117.921 144.266 118.285C144.194 118.642 144.019 119.016 143.742 119.406C143.466 119.79 143.01 120.139 142.373 120.453C141.583 120.843 140.782 121.005 139.969 120.941C139.161 120.875 138.398 120.576 137.681 120.042C136.968 119.507 136.361 118.729 135.858 117.71C135.364 116.708 135.11 115.748 135.096 114.831C135.08 113.91 135.286 113.091 135.714 112.373C136.139 111.651 136.764 111.087 137.588 110.681C138.225 110.367 138.783 110.224 139.261 110.252C139.742 110.274 140.148 110.37 140.479 110.539C140.813 110.702 141.077 110.841 141.271 110.956L141.424 110.881L140.658 109.326L142.11 108.611L147.071 118.676C147.486 119.517 147.632 120.295 147.509 121.01C147.393 121.727 147.075 122.367 146.555 122.929C146.041 123.494 145.394 123.968 144.612 124.354ZM141.911 119.002C142.514 118.705 142.956 118.316 143.236 117.834C143.516 117.353 143.637 116.8 143.598 116.175C143.559 115.55 143.362 114.877 143.006 114.155C142.658 113.45 142.246 112.88 141.767 112.446C141.289 112.011 140.767 111.743 140.2 111.643C139.633 111.542 139.044 111.642 138.432 111.944C137.795 112.258 137.344 112.681 137.078 113.213C136.817 113.743 136.714 114.332 136.769 114.98C136.829 115.627 137.023 116.281 137.349 116.943C137.684 117.623 138.086 118.172 138.556 118.589C139.028 119.001 139.548 119.251 140.115 119.341C140.684 119.425 141.283 119.312 141.911 119.002ZM148.287 110.412L151.189 116.298L149.685 117.039L143.254 103.992L144.758 103.251L147.119 108.042L147.246 107.979C147.227 107.361 147.373 106.79 147.685 106.266C147.999 105.737 148.541 105.282 149.309 104.903C149.976 104.575 150.626 104.421 151.259 104.441C151.89 104.457 152.479 104.671 153.025 105.083C153.573 105.489 154.054 106.112 154.469 106.953L157.534 113.17L156.03 113.911L153.016 107.796C152.633 107.019 152.135 106.517 151.522 106.291C150.911 106.059 150.251 106.118 149.542 106.467C149.049 106.71 148.659 107.032 148.371 107.433C148.087 107.831 147.931 108.286 147.902 108.796C147.878 109.304 148.007 109.843 148.287 110.412ZM159.716 99.932L160.344 101.206L155.273 103.706L154.645 102.432L159.716 99.932ZM154.968 99.3587L156.471 98.6176L161.068 107.944C161.278 108.369 161.496 108.657 161.724 108.808C161.954 108.954 162.184 109.014 162.415 108.99C162.648 108.96 162.875 108.89 163.096 108.781C163.262 108.7 163.394 108.624 163.491 108.555C163.587 108.481 163.664 108.422 163.721 108.378L164.693 109.578C164.61 109.666 164.486 109.775 164.322 109.903C164.161 110.036 163.94 110.171 163.659 110.309C163.235 110.518 162.773 110.632 162.276 110.651C161.782 110.667 161.31 110.554 160.858 110.312C160.41 110.068 160.046 109.662 159.766 109.093L154.968 99.3587Z" fill="#00B7FF"/>
<rect x="203.672" y="100.073" width="14.1731" height="14.1731" transform="rotate(-26.85 203.672 100.073)" fill="#D9D9D9" stroke="#FF7B00"/>
</svg>
