<svg width="302" height="202" viewBox="0 0 302 202" fill="none" xmlns="http://www.w3.org/2000/svg">
<line x1="0.5" y1="201.01" x2="0.5" y2="1.00002" stroke="#4F4F4F"/>
<line x1="1" y1="0.5" x2="301" y2="0.5" stroke="#4F4F4F"/>
<line x1="1" y1="80.5" x2="301" y2="80.5" stroke="#4F4F4F"/>
<line x1="1" y1="160.5" x2="301" y2="160.5" stroke="#4F4F4F"/>
<line x1="1" y1="40.5" x2="301" y2="40.5" stroke="#4F4F4F"/>
<line x1="1" y1="120.5" x2="301" y2="120.5" stroke="#4F4F4F"/>
<line x1="1" y1="200.5" x2="301" y2="200.5" stroke="#4F4F4F"/>
<line x1="1" y1="20.5" x2="301" y2="20.5" stroke="#4F4F4F"/>
<line x1="1" y1="100.5" x2="301" y2="100.5" stroke="#4F4F4F"/>
<line x1="1" y1="180.5" x2="301" y2="180.5" stroke="#4F4F4F"/>
<line x1="1" y1="60.5" x2="301" y2="60.5" stroke="#4F4F4F"/>
<line x1="1" y1="140.5" x2="301" y2="140.5" stroke="#4F4F4F"/>
<line x1="160.5" y1="201.01" x2="160.5" y2="1.00002" stroke="#4F4F4F"/>
<line x1="80.5" y1="201.01" x2="80.5" y2="1.00002" stroke="#4F4F4F"/>
<line x1="240.5" y1="201.01" x2="240.5" y2="1.00002" stroke="#4F4F4F"/>
<line x1="40.5" y1="201.01" x2="40.5" y2="1.00002" stroke="#4F4F4F"/>
<line x1="200.5" y1="201.01" x2="200.5" y2="1.00002" stroke="#4F4F4F"/>
<line x1="120.5" y1="201.01" x2="120.5" y2="1.00002" stroke="#4F4F4F"/>
<line x1="280.5" y1="201.01" x2="280.5" y2="1.00002" stroke="#4F4F4F"/>
<line x1="20.5" y1="201.01" x2="20.5" y2="1.00002" stroke="#4F4F4F"/>
<line x1="180.5" y1="201.01" x2="180.5" y2="1.00002" stroke="#4F4F4F"/>
<line x1="100.5" y1="201.01" x2="100.5" y2="1.00002" stroke="#4F4F4F"/>
<line x1="260.5" y1="201.01" x2="260.5" y2="1.00002" stroke="#4F4F4F"/>
<line x1="60.5" y1="201.01" x2="60.5" y2="1.00002" stroke="#4F4F4F"/>
<line x1="220.5" y1="201.01" x2="220.5" y2="1.00002" stroke="#4F4F4F"/>
<line x1="140.5" y1="201.01" x2="140.5" y2="1.00002" stroke="#4F4F4F"/>
<line x1="300.5" y1="201.01" x2="300.5" y2="1.00002" stroke="#4F4F4F"/>
<rect x="138.439" y="92.7225" width="14.1731" height="14.1731" transform="rotate(-138 138.439 92.7225)" fill="#D9D9D9" stroke="#FF7B00"/>
<path d="M260.122 179.158L138 71" stroke="#00B7FF" stroke-width="3" stroke-linecap="round"/>
<line x1="40.5" y1="179.5" x2="260.5" y2="179.5" stroke="white" stroke-width="3" stroke-linecap="round"/>
<path d="M41 179L181 21" stroke="#FFDD00" stroke-width="3" stroke-linecap="round"/>
<path d="M261 179L181 21" stroke="white" stroke-width="3" stroke-linecap="round"/>
<path d="M193.537 30H190.767L198.778 8.18182H201.506L209.517 30H206.747L200.227 11.6335H200.057L193.537 30ZM194.56 21.4773H205.724V23.821H194.56V21.4773Z" fill="white"/>
<path d="M290.199 172H287.557C287.401 171.24 287.127 170.572 286.737 169.997C286.353 169.422 285.884 168.939 285.33 168.548C284.783 168.151 284.176 167.852 283.509 167.653C282.841 167.455 282.145 167.355 281.42 167.355C280.099 167.355 278.903 167.689 277.83 168.357C276.765 169.024 275.916 170.008 275.284 171.308C274.659 172.607 274.347 174.202 274.347 176.091C274.347 177.98 274.659 179.575 275.284 180.874C275.916 182.174 276.765 183.158 277.83 183.825C278.903 184.493 280.099 184.827 281.42 184.827C282.145 184.827 282.841 184.727 283.509 184.528C284.176 184.33 284.783 184.035 285.33 183.644C285.884 183.246 286.353 182.76 286.737 182.185C287.127 181.602 287.401 180.935 287.557 180.182H290.199C290 181.297 289.638 182.295 289.112 183.175C288.587 184.056 287.933 184.805 287.152 185.423C286.371 186.034 285.494 186.499 284.521 186.819C283.555 187.138 282.521 187.298 281.42 187.298C279.56 187.298 277.905 186.844 276.456 185.935C275.007 185.026 273.867 183.733 273.036 182.057C272.205 180.381 271.79 178.392 271.79 176.091C271.79 173.79 272.205 171.801 273.036 170.125C273.867 168.449 275.007 167.156 276.456 166.247C277.905 165.338 279.56 164.884 281.42 164.884C282.521 164.884 283.555 165.043 284.521 165.363C285.494 165.683 286.371 166.151 287.152 166.769C287.933 167.38 288.587 168.126 289.112 169.006C289.638 169.88 290 170.878 290.199 172Z" fill="white"/>
<path d="M13.642 190V168.182H21.2699C22.7898 168.182 24.0433 168.445 25.0305 168.97C26.0178 169.489 26.7528 170.188 27.2358 171.069C27.7188 171.942 27.9602 172.912 27.9602 173.977C27.9602 174.915 27.7933 175.689 27.4595 176.3C27.1328 176.911 26.6996 177.393 26.1598 177.749C25.6271 178.104 25.0483 178.366 24.4233 178.537V178.75C25.0909 178.793 25.7621 179.027 26.4368 179.453C27.1115 179.879 27.6761 180.49 28.1307 181.286C28.5852 182.081 28.8125 183.054 28.8125 184.205C28.8125 185.298 28.5639 186.282 28.0668 187.156C27.5696 188.029 26.7848 188.722 25.7124 189.233C24.6399 189.744 23.2443 190 21.5256 190H13.642ZM16.2841 187.656H21.5256C23.2514 187.656 24.4766 187.322 25.201 186.655C25.9325 185.98 26.2983 185.163 26.2983 184.205C26.2983 183.466 26.1101 182.784 25.7337 182.159C25.3572 181.527 24.821 181.023 24.125 180.646C23.429 180.263 22.6051 180.071 21.6534 180.071H16.2841V187.656ZM16.2841 177.77H21.1847C21.9801 177.77 22.6974 177.614 23.3366 177.301C23.983 176.989 24.4943 176.548 24.8707 175.98C25.2543 175.412 25.446 174.744 25.446 173.977C25.446 173.018 25.1122 172.205 24.4446 171.538C23.777 170.863 22.7188 170.526 21.2699 170.526H16.2841V177.77Z" fill="white"/>
<path d="M91.4301 106.498L90.1619 107.84L83.2571 93.9687L84.5057 92.6471L98.7465 98.7542L97.4783 100.096L85.5931 94.847L85.515 94.9296L91.4301 106.498ZM87.7683 102.1L92.88 96.69L94.0158 97.7631L88.9041 103.173L87.7683 102.1ZM90.7246 86.0649L101.297 96.0542L100.146 97.2726L89.5735 87.2833L90.7246 86.0649ZM105.796 91.6649C105.322 92.1673 104.796 92.5339 104.22 92.7647C103.64 92.9921 103.056 93.0556 102.467 92.9551C101.874 92.8513 101.32 92.5556 100.804 92.0678C100.349 91.6386 100.066 91.2012 99.9526 90.7555C99.836 90.3067 99.8383 89.8561 99.9595 89.4039C100.081 88.9516 100.272 88.5074 100.535 88.0712C100.797 87.6284 101.078 87.2001 101.377 86.7863C101.771 86.2459 102.093 85.8114 102.345 85.4827C102.597 85.1473 102.748 84.8734 102.799 84.6609C102.853 84.445 102.782 84.2444 102.586 84.0591L102.545 84.02C102.035 83.5388 101.508 83.3042 100.962 83.3164C100.42 83.3251 99.8838 83.6099 99.3538 84.1709C98.8042 84.7525 98.5007 85.3289 98.4432 85.8999C98.3857 86.4709 98.4381 86.9601 98.6004 87.3675L97.0948 88.1337C96.8081 87.4719 96.6931 86.8422 96.7498 86.2444C96.8064 85.6399 96.9748 85.0825 97.255 84.5721C97.5351 84.055 97.8637 83.5969 98.2409 83.1977C98.4816 82.943 98.7889 82.6797 99.163 82.4078C99.537 82.1293 99.9632 81.9229 100.442 81.7887C100.923 81.6511 101.449 81.6563 102.02 81.8042C102.59 81.9522 103.19 82.3237 103.82 82.9188L109.044 87.8549L107.893 89.0732L106.819 88.0587L106.761 88.1206C106.855 88.3658 106.909 88.6774 106.923 89.0555C106.937 89.4336 106.862 89.8477 106.697 90.2979C106.532 90.748 106.232 91.2037 105.796 91.6649ZM104.877 90.445C105.333 89.9631 105.622 89.4676 105.745 88.9583C105.871 88.4457 105.864 87.9635 105.724 87.512C105.587 87.057 105.353 86.6734 105.023 86.3613L103.908 85.3077C103.921 85.4179 103.87 85.5851 103.756 85.8094C103.642 86.027 103.496 86.2673 103.319 86.5302C103.142 86.7864 102.967 87.0342 102.793 87.2736C102.619 87.5063 102.478 87.6962 102.372 87.8433C102.114 88.1989 101.902 88.5583 101.734 88.9214C101.567 89.2779 101.495 89.6266 101.518 89.9676C101.541 90.3019 101.707 90.6153 102.017 90.908C102.44 91.3079 102.908 91.4538 103.421 91.3454C103.933 91.2304 104.419 90.9302 104.877 90.445ZM110.298 74.2002L109.574 75.5873C109.327 75.4838 109.053 75.4179 108.755 75.3895C108.455 75.3545 108.142 75.3969 107.814 75.5167C107.485 75.6366 107.154 75.8737 106.819 76.2282C106.36 76.7135 106.09 77.2236 106.008 77.7585C105.926 78.2866 106.055 78.7117 106.396 79.0336C106.699 79.3198 107.042 79.4356 107.426 79.3812C107.81 79.3268 108.281 79.1208 108.84 78.7633L110.241 77.8594C111.083 77.313 111.846 77.0334 112.529 77.0208C113.208 77.0048 113.825 77.2586 114.379 77.7821C114.833 78.2114 115.116 78.7259 115.227 79.3256C115.341 79.9219 115.282 80.5499 115.049 81.2097C114.817 81.8694 114.409 82.5073 113.827 83.1233C113.063 83.9321 112.255 84.4357 111.403 84.634C110.552 84.8324 109.722 84.6834 108.914 84.1872L109.717 82.7577C110.248 83.0507 110.765 83.1449 111.268 83.0402C111.774 82.9321 112.262 82.6285 112.734 82.1295C113.271 81.5616 113.576 80.9969 113.651 80.4354C113.725 79.8673 113.592 79.4223 113.251 79.1003C112.976 78.8402 112.654 78.7187 112.286 78.7358C111.915 78.7497 111.494 78.9124 111.024 79.2238L109.465 80.2528C108.607 80.8164 107.836 81.0978 107.153 81.0971C106.47 81.0897 105.854 80.8275 105.307 80.3105C104.86 79.8878 104.582 79.3882 104.476 78.8118C104.372 78.2319 104.429 77.6308 104.646 77.0083C104.866 76.3825 105.239 75.7907 105.766 75.2332C106.507 74.4485 107.261 73.995 108.028 73.8728C108.798 73.7471 109.555 73.8562 110.298 74.2002Z" fill="#FFDD00"/>
<path d="M163.569 106.164L164.598 104.988L172.808 112.172L171.779 113.348L168.337 110.336L159.787 120.107L158.462 118.947L167.011 109.176L163.569 106.164ZM165.104 124.759L172.288 116.549L173.549 117.653L166.365 125.863L165.104 124.759ZM174.127 115.742C173.881 115.527 173.742 115.258 173.71 114.935C173.682 114.614 173.771 114.337 173.977 114.101C174.183 113.866 174.446 113.741 174.767 113.727C175.092 113.715 175.377 113.817 175.623 114.032C175.869 114.247 176.006 114.515 176.034 114.835C176.066 115.159 175.979 115.438 175.773 115.673C175.567 115.908 175.302 116.032 174.977 116.043C174.656 116.058 174.372 115.958 174.127 115.742ZM174.259 124.05L169.937 128.988L168.676 127.885L175.86 119.675L177.078 120.741L175.956 122.024L176.063 122.118C176.62 121.869 177.205 121.79 177.818 121.88C178.435 121.966 179.053 122.281 179.673 122.823C180.229 123.31 180.616 123.849 180.833 124.442C181.053 125.031 181.078 125.657 180.908 126.32C180.74 126.978 180.351 127.657 179.74 128.355L175.175 133.572L173.913 132.468L178.403 127.337C178.968 126.692 179.24 126.043 179.22 125.39C179.203 124.734 178.902 124.15 178.318 123.638C177.915 123.286 177.479 123.058 177.009 122.955C176.543 122.856 176.072 122.894 175.598 123.07C175.123 123.246 174.676 123.572 174.259 124.05ZM177.95 141.738C177.341 141.205 176.885 140.668 176.584 140.128C176.28 139.591 176.093 139.069 176.022 138.56C175.951 138.058 175.956 137.59 176.034 137.155L177.656 137.329C177.639 137.578 177.634 137.875 177.64 138.221C177.643 138.569 177.734 138.948 177.912 139.355C178.091 139.769 178.427 140.193 178.923 140.627C179.586 141.207 180.273 141.525 180.985 141.581C181.696 141.638 182.352 141.324 182.95 140.64L184.409 138.973L184.303 138.879C184.079 138.948 183.785 139.017 183.421 139.089C183.063 139.16 182.651 139.142 182.184 139.035C181.724 138.928 181.227 138.641 180.692 138.173C180.029 137.593 179.571 136.916 179.318 136.141C179.069 135.369 179.053 134.55 179.27 133.683C179.491 132.819 179.976 131.96 180.724 131.105C181.46 130.264 182.249 129.661 183.09 129.296C183.935 128.928 184.77 128.803 185.597 128.923C186.427 129.038 187.187 129.399 187.879 130.004C188.413 130.471 188.759 130.932 188.917 131.384C189.081 131.836 189.149 132.248 189.12 132.619C189.098 132.989 189.071 133.287 189.038 133.51L189.167 133.622L190.308 132.318L191.527 133.385L184.137 141.829C183.519 142.535 182.857 142.968 182.15 143.13C181.443 143.297 180.73 143.249 180.011 142.985C179.293 142.728 178.606 142.312 177.95 141.738ZM181.855 137.19C182.361 137.633 182.89 137.891 183.441 137.965C183.993 138.039 184.55 137.938 185.112 137.662C185.675 137.387 186.221 136.946 186.751 136.34C187.268 135.749 187.636 135.149 187.854 134.54C188.072 133.932 188.118 133.347 187.994 132.784C187.869 132.222 187.55 131.717 187.037 131.268C186.502 130.8 185.938 130.546 185.345 130.505C184.755 130.467 184.172 130.598 183.595 130.898C183.021 131.201 182.491 131.631 182.004 132.187C181.506 132.757 181.153 133.339 180.948 133.933C180.749 134.527 180.717 135.103 180.852 135.661C180.993 136.219 181.327 136.728 181.855 137.19ZM187.122 149.764C186.512 149.231 186.057 148.694 185.756 148.154C185.452 147.617 185.264 147.095 185.194 146.586C185.123 146.084 185.127 145.615 185.206 145.181L186.828 145.355C186.811 145.604 186.806 145.901 186.812 146.246C186.815 146.595 186.905 146.973 187.084 147.381C187.262 147.795 187.599 148.219 188.094 148.652C188.757 149.232 189.444 149.551 190.156 149.607C190.868 149.664 191.523 149.35 192.122 148.666L193.581 146.998L193.474 146.905C193.251 146.973 192.957 147.043 192.592 147.115C192.235 147.185 191.822 147.168 191.356 147.061C190.896 146.954 190.398 146.667 189.864 146.199C189.201 145.619 188.743 144.942 188.49 144.167C188.241 143.395 188.225 142.575 188.442 141.709C188.663 140.845 189.148 139.986 189.896 139.13C190.632 138.289 191.421 137.687 192.262 137.322C193.107 136.954 193.942 136.829 194.769 136.949C195.599 137.064 196.359 137.425 197.05 138.03C197.585 138.497 197.931 138.957 198.089 139.41C198.253 139.862 198.321 140.274 198.292 140.645C198.269 141.015 198.242 141.312 198.21 141.536L198.338 141.648L199.48 140.344L200.698 141.41L193.308 149.855C192.691 150.561 192.029 150.994 191.321 151.155C190.615 151.323 189.902 151.275 189.183 151.011C188.464 150.754 187.777 150.338 187.122 149.764ZM191.026 145.216C191.532 145.659 192.061 145.917 192.613 145.991C193.165 146.065 193.722 145.964 194.284 145.688C194.846 145.413 195.392 144.972 195.922 144.366C196.44 143.775 196.808 143.175 197.026 142.566C197.243 141.958 197.29 141.372 197.165 140.81C197.041 140.248 196.722 139.743 196.209 139.294C195.674 138.826 195.11 138.572 194.517 138.531C193.927 138.493 193.344 138.624 192.766 138.924C192.193 139.227 191.663 139.657 191.176 140.213C190.677 140.783 190.325 141.365 190.12 141.959C189.921 142.553 189.889 143.129 190.024 143.687C190.165 144.245 190.499 144.754 191.026 145.216ZM195.823 151.641L203.007 143.431L204.269 144.535L197.085 152.744L195.823 151.641ZM204.846 142.624C204.6 142.409 204.461 142.14 204.43 141.816C204.402 141.496 204.491 141.218 204.696 140.983C204.902 140.748 205.166 140.623 205.487 140.608C205.811 140.597 206.097 140.698 206.343 140.914C206.588 141.129 206.725 141.396 206.753 141.717C206.785 142.04 206.698 142.319 206.492 142.555C206.286 142.79 206.021 142.913 205.696 142.925C205.375 142.939 205.092 142.839 204.846 142.624Z" fill="#00B7FF"/>
</svg>
