<svg width="300" height="200" viewBox="0 0 300 200" fill="none" xmlns="http://www.w3.org/2000/svg">
<g clip-path="url(#clip0_3_542)">
<line y1="79.5" x2="300" y2="79.5" stroke="#4F4F4F"/>
<line y1="159.5" x2="300" y2="159.5" stroke="#4F4F4F"/>
<line y1="39.5" x2="300" y2="39.5" stroke="#4F4F4F"/>
<line y1="119.5" x2="300" y2="119.5" stroke="#4F4F4F"/>
<line y1="199.5" x2="300" y2="199.5" stroke="#4F4F4F"/>
<line y1="19.5" x2="300" y2="19.5" stroke="#4F4F4F"/>
<line y1="99.5" x2="300" y2="99.5" stroke="#4F4F4F"/>
<line y1="179.5" x2="300" y2="179.5" stroke="#4F4F4F"/>
<line y1="59.5" x2="300" y2="59.5" stroke="#4F4F4F"/>
<line y1="139.5" x2="300" y2="139.5" stroke="#4F4F4F"/>
<line x1="159.5" y1="200.01" x2="159.5" y2="1.52588e-05" stroke="#4F4F4F"/>
<line x1="79.5" y1="200.01" x2="79.5" y2="1.52588e-05" stroke="#4F4F4F"/>
<line x1="239.5" y1="200.01" x2="239.5" y2="1.52588e-05" stroke="#4F4F4F"/>
<line x1="39.5" y1="200.01" x2="39.5" y2="1.52588e-05" stroke="#4F4F4F"/>
<line x1="199.5" y1="200.01" x2="199.5" y2="1.52588e-05" stroke="#4F4F4F"/>
<line x1="119.5" y1="200.01" x2="119.5" y2="1.52588e-05" stroke="#4F4F4F"/>
<line x1="279.5" y1="200.01" x2="279.5" y2="1.52588e-05" stroke="#4F4F4F"/>
<line x1="19.5" y1="200.01" x2="19.5" y2="1.52588e-05" stroke="#4F4F4F"/>
<line x1="179.5" y1="200.01" x2="179.5" y2="1.52588e-05" stroke="#4F4F4F"/>
<line x1="99.5" y1="200.01" x2="99.5" y2="1.52588e-05" stroke="#4F4F4F"/>
<line x1="259.5" y1="200.01" x2="259.5" y2="1.52588e-05" stroke="#4F4F4F"/>
<line x1="59.5" y1="200.01" x2="59.5" y2="1.52588e-05" stroke="#4F4F4F"/>
<line x1="219.5" y1="200.01" x2="219.5" y2="1.52588e-05" stroke="#4F4F4F"/>
<line x1="139.5" y1="200.01" x2="139.5" y2="1.52588e-05" stroke="#4F4F4F"/>
<line x1="299.5" y1="200.01" x2="299.5" y2="1.52588e-05" stroke="#4F4F4F"/>
<path d="M180 178L180 20" stroke="#00B7FF" stroke-width="3" stroke-linecap="round"/>
<line x1="39.5" y1="178.5" x2="259.5" y2="178.5" stroke="#FFDD00" stroke-width="3" stroke-linecap="round"/>
<path d="M40 178L180 20" stroke="white" stroke-width="3" stroke-linecap="round"/>
<path d="M260 178L180 20" stroke="white" stroke-width="3" stroke-linecap="round"/>
<path d="M192.537 29H189.767L197.778 7.18182H200.506L208.517 29H205.747L199.227 10.6335H199.057L192.537 29ZM193.56 20.4773H204.724V22.821H193.56V20.4773Z" fill="white"/>
<path d="M289.199 171H286.557C286.401 170.24 286.127 169.572 285.737 168.997C285.353 168.422 284.884 167.939 284.33 167.548C283.783 167.151 283.176 166.852 282.509 166.653C281.841 166.455 281.145 166.355 280.42 166.355C279.099 166.355 277.903 166.689 276.83 167.357C275.765 168.024 274.916 169.008 274.284 170.308C273.659 171.607 273.347 173.202 273.347 175.091C273.347 176.98 273.659 178.575 274.284 179.874C274.916 181.174 275.765 182.158 276.83 182.825C277.903 183.493 279.099 183.827 280.42 183.827C281.145 183.827 281.841 183.727 282.509 183.528C283.176 183.33 283.783 183.035 284.33 182.644C284.884 182.246 285.353 181.76 285.737 181.185C286.127 180.602 286.401 179.935 286.557 179.182H289.199C289 180.297 288.638 181.295 288.112 182.175C287.587 183.056 286.933 183.805 286.152 184.423C285.371 185.034 284.494 185.499 283.521 185.819C282.555 186.138 281.521 186.298 280.42 186.298C278.56 186.298 276.905 185.844 275.456 184.935C274.007 184.026 272.867 182.733 272.036 181.057C271.205 179.381 270.79 177.392 270.79 175.091C270.79 172.79 271.205 170.801 272.036 169.125C272.867 167.449 274.007 166.156 275.456 165.247C276.905 164.338 278.56 163.884 280.42 163.884C281.521 163.884 282.555 164.043 283.521 164.363C284.494 164.683 285.371 165.151 286.152 165.769C286.933 166.38 287.587 167.126 288.112 168.006C288.638 168.88 289 169.878 289.199 171Z" fill="white"/>
<path d="M12.642 189V167.182H20.2699C21.7898 167.182 23.0433 167.445 24.0305 167.97C25.0178 168.489 25.7528 169.188 26.2358 170.069C26.7188 170.942 26.9602 171.912 26.9602 172.977C26.9602 173.915 26.7933 174.689 26.4595 175.3C26.1328 175.911 25.6996 176.393 25.1598 176.749C24.6271 177.104 24.0483 177.366 23.4233 177.537V177.75C24.0909 177.793 24.7621 178.027 25.4368 178.453C26.1115 178.879 26.6761 179.49 27.1307 180.286C27.5852 181.081 27.8125 182.054 27.8125 183.205C27.8125 184.298 27.5639 185.282 27.0668 186.156C26.5696 187.029 25.7848 187.722 24.7124 188.233C23.6399 188.744 22.2443 189 20.5256 189H12.642ZM15.2841 186.656H20.5256C22.2514 186.656 23.4766 186.322 24.201 185.655C24.9325 184.98 25.2983 184.163 25.2983 183.205C25.2983 182.466 25.1101 181.784 24.7337 181.159C24.3572 180.527 23.821 180.023 23.125 179.646C22.429 179.263 21.6051 179.071 20.6534 179.071H15.2841V186.656ZM15.2841 176.77H20.1847C20.9801 176.77 21.6974 176.614 22.3366 176.301C22.983 175.989 23.4943 175.548 23.8707 174.98C24.2543 174.412 24.446 173.744 24.446 172.977C24.446 172.018 24.1122 171.205 23.4446 170.538C22.777 169.863 21.7188 169.526 20.2699 169.526H15.2841V176.77Z" fill="white"/>
<path d="M102.358 170H100.511L105.852 155.455H107.67L113.011 170H111.165L106.818 157.756H106.705L102.358 170ZM103.04 164.318H110.483V165.881H103.04V164.318ZM116.726 155.455V170H115.05V155.455H116.726ZM123.006 170.256C122.315 170.256 121.687 170.125 121.124 169.865C120.56 169.6 120.113 169.219 119.782 168.722C119.45 168.22 119.284 167.614 119.284 166.903C119.284 166.278 119.408 165.772 119.654 165.384C119.9 164.991 120.229 164.683 120.641 164.46C121.053 164.238 121.507 164.072 122.005 163.963C122.507 163.849 123.011 163.759 123.517 163.693C124.18 163.608 124.718 163.544 125.13 163.501C125.546 163.454 125.849 163.376 126.039 163.267C126.233 163.158 126.33 162.969 126.33 162.699V162.642C126.33 161.941 126.138 161.397 125.755 161.009C125.376 160.62 124.801 160.426 124.029 160.426C123.229 160.426 122.601 160.601 122.147 160.952C121.692 161.302 121.373 161.676 121.188 162.074L119.597 161.506C119.881 160.843 120.26 160.327 120.733 159.957C121.212 159.583 121.732 159.323 122.296 159.176C122.864 159.025 123.423 158.949 123.972 158.949C124.322 158.949 124.725 158.991 125.179 159.077C125.639 159.157 126.081 159.325 126.507 159.581C126.938 159.837 127.296 160.223 127.58 160.739C127.864 161.255 128.006 161.946 128.006 162.812V170H126.33V168.523H126.245C126.131 168.759 125.942 169.013 125.676 169.283C125.411 169.553 125.059 169.782 124.618 169.972C124.178 170.161 123.641 170.256 123.006 170.256ZM123.262 168.75C123.925 168.75 124.483 168.62 124.938 168.359C125.397 168.099 125.743 167.763 125.975 167.351C126.212 166.939 126.33 166.506 126.33 166.051V164.517C126.259 164.602 126.103 164.68 125.861 164.751C125.624 164.818 125.35 164.877 125.037 164.929C124.73 164.976 124.429 165.019 124.135 165.057C123.846 165.09 123.612 165.118 123.432 165.142C122.997 165.199 122.589 165.291 122.211 165.419C121.837 165.542 121.533 165.729 121.301 165.98C121.074 166.226 120.961 166.562 120.961 166.989C120.961 167.571 121.176 168.011 121.607 168.31C122.042 168.603 122.594 168.75 123.262 168.75ZM138.793 161.534L137.287 161.96C137.192 161.709 137.053 161.465 136.868 161.229C136.688 160.987 136.442 160.788 136.129 160.632C135.817 160.476 135.417 160.398 134.929 160.398C134.261 160.398 133.705 160.552 133.26 160.859C132.82 161.162 132.599 161.548 132.599 162.017C132.599 162.434 132.751 162.763 133.054 163.004C133.357 163.246 133.83 163.447 134.474 163.608L136.094 164.006C137.069 164.242 137.796 164.605 138.274 165.092C138.752 165.575 138.991 166.198 138.991 166.96C138.991 167.585 138.812 168.144 138.452 168.636C138.097 169.129 137.599 169.517 136.96 169.801C136.321 170.085 135.578 170.227 134.73 170.227C133.617 170.227 132.696 169.986 131.967 169.503C131.238 169.02 130.777 168.314 130.582 167.386L132.173 166.989C132.325 167.576 132.611 168.016 133.033 168.31C133.459 168.603 134.015 168.75 134.702 168.75C135.483 168.75 136.103 168.584 136.562 168.253C137.027 167.917 137.259 167.514 137.259 167.045C137.259 166.667 137.126 166.349 136.861 166.094C136.596 165.833 136.188 165.639 135.639 165.511L133.821 165.085C132.822 164.848 132.088 164.482 131.619 163.984C131.155 163.482 130.923 162.855 130.923 162.102C130.923 161.487 131.096 160.942 131.442 160.469C131.792 159.995 132.268 159.624 132.869 159.354C133.475 159.084 134.162 158.949 134.929 158.949C136.009 158.949 136.856 159.186 137.472 159.659C138.092 160.133 138.532 160.758 138.793 161.534Z" fill="#FFDD00"/>
<rect x="164.5" y="162.5" width="14.1731" height="14.1731" fill="#D9D9D9" stroke="#FF7B00"/>
<path d="M158.017 130.034H156.455V119.125H158.017V123.699H171V125.46H158.017V130.034ZM171 116.634H160.091V114.958H171V116.634ZM158.273 115.782C158.273 116.108 158.161 116.39 157.939 116.627C157.716 116.859 157.449 116.975 157.136 116.975C156.824 116.975 156.556 116.859 156.334 116.627C156.111 116.39 156 116.108 156 115.782C156 115.455 156.111 115.176 156.334 114.944C156.556 114.707 156.824 114.588 157.136 114.588C157.449 114.588 157.716 114.707 157.939 114.944C158.161 115.176 158.273 115.455 158.273 115.782ZM164.438 110.212H171V111.888H160.091V110.268H161.795V110.126C161.241 109.871 160.796 109.482 160.46 108.962C160.119 108.441 159.949 107.768 159.949 106.945C159.949 106.206 160.1 105.56 160.403 105.006C160.702 104.452 161.156 104.021 161.767 103.713C162.373 103.405 163.14 103.251 164.068 103.251H171V104.928H164.182C163.325 104.928 162.657 105.15 162.179 105.595C161.696 106.04 161.455 106.651 161.455 107.428C161.455 107.963 161.571 108.441 161.803 108.862C162.035 109.279 162.373 109.608 162.818 109.849C163.263 110.091 163.803 110.212 164.438 110.212ZM175.318 95.7852C175.318 96.5948 175.214 97.2908 175.006 97.8732C174.802 98.4556 174.532 98.9409 174.196 99.3292C173.865 99.7127 173.509 100.018 173.131 100.245L172.193 98.9102C172.392 98.7586 172.619 98.5669 172.875 98.3349C173.135 98.1029 173.36 97.7856 173.55 97.3832C173.744 96.976 173.841 96.4433 173.841 95.7852C173.841 94.9045 173.628 94.1777 173.202 93.6048C172.776 93.0318 172.108 92.7454 171.199 92.7454H168.983V92.8874C169.182 93.0105 169.428 93.1857 169.722 93.413C170.01 93.6355 170.268 93.9575 170.496 94.3789C170.718 94.7956 170.83 95.359 170.83 96.0692C170.83 96.9499 170.621 97.7406 170.205 98.4414C169.788 99.1374 169.182 99.689 168.386 100.096C167.591 100.499 166.625 100.7 165.489 100.7C164.371 100.7 163.398 100.503 162.57 100.11C161.736 99.7174 161.092 99.1706 160.638 98.4698C160.179 97.7691 159.949 96.9594 159.949 96.0408C159.949 95.3306 160.067 94.7672 160.304 94.3505C160.536 93.9291 160.801 93.6071 161.099 93.3846C161.393 93.1573 161.634 92.9821 161.824 92.859V92.6886H160.091V91.0692H171.312C172.25 91.0692 173.012 91.2823 173.599 91.7085C174.191 92.1299 174.625 92.698 174.899 93.413C175.179 94.1232 175.318 94.9139 175.318 95.7852ZM169.324 95.842C169.324 95.1696 169.17 94.6014 168.862 94.1374C168.554 93.6734 168.112 93.3207 167.534 93.0792C166.956 92.8377 166.265 92.717 165.46 92.717C164.674 92.717 163.981 92.8353 163.379 93.0721C162.778 93.3088 162.307 93.6592 161.966 94.1232C161.625 94.5872 161.455 95.1602 161.455 95.842C161.455 96.5522 161.634 97.1441 161.994 97.6175C162.354 98.0863 162.837 98.439 163.443 98.6758C164.049 98.9078 164.722 99.0238 165.46 99.0238C166.218 99.0238 166.888 98.9054 167.47 98.6687C168.048 98.4272 168.502 98.0721 168.834 97.6033C169.161 97.1299 169.324 96.5427 169.324 95.842ZM175.318 83.5977C175.318 84.4073 175.214 85.1033 175.006 85.6857C174.802 86.2681 174.532 86.7534 174.196 87.1417C173.865 87.5252 173.509 87.8306 173.131 88.0579L172.193 86.7227C172.392 86.5711 172.619 86.3794 172.875 86.1474C173.135 85.9154 173.36 85.5981 173.55 85.1957C173.744 84.7885 173.841 84.2558 173.841 83.5977C173.841 82.717 173.628 81.9902 173.202 81.4173C172.776 80.8443 172.108 80.5579 171.199 80.5579H168.983V80.6999C169.182 80.823 169.428 80.9982 169.722 81.2255C170.01 81.448 170.268 81.77 170.496 82.1914C170.718 82.6081 170.83 83.1715 170.83 83.8817C170.83 84.7624 170.621 85.5531 170.205 86.2539C169.788 86.9499 169.182 87.5015 168.386 87.9087C167.591 88.3112 166.625 88.5124 165.489 88.5124C164.371 88.5124 163.398 88.3159 162.57 87.9229C161.736 87.5299 161.092 86.9831 160.638 86.2823C160.179 85.5816 159.949 84.7719 159.949 83.8533C159.949 83.1431 160.067 82.5797 160.304 82.163C160.536 81.7416 160.801 81.4196 161.099 81.1971C161.393 80.9698 161.634 80.7946 161.824 80.6715V80.5011H160.091V78.8817H171.312C172.25 78.8817 173.012 79.0948 173.599 79.521C174.191 79.9424 174.625 80.5105 174.899 81.2255C175.179 81.9357 175.318 82.7264 175.318 83.5977ZM169.324 83.6545C169.324 82.9821 169.17 82.4139 168.862 81.9499C168.554 81.4859 168.112 81.1332 167.534 80.8917C166.956 80.6502 166.265 80.5295 165.46 80.5295C164.674 80.5295 163.981 80.6478 163.379 80.8846C162.778 81.1213 162.307 81.4717 161.966 81.9357C161.625 82.3997 161.455 82.9727 161.455 83.6545C161.455 84.3647 161.634 84.9566 161.994 85.43C162.354 85.8988 162.837 86.2515 163.443 86.4883C164.049 86.7203 164.722 86.8363 165.46 86.8363C166.218 86.8363 166.888 86.7179 167.47 86.4812C168.048 86.2397 168.502 85.8846 168.834 85.4158C169.161 84.9424 169.324 84.3552 169.324 83.6545ZM171 75.8136H160.091V74.1374H171V75.8136ZM158.273 74.9613C158.273 75.288 158.161 75.5697 157.939 75.8065C157.716 76.0385 157.449 76.1545 157.136 76.1545C156.824 76.1545 156.556 76.0385 156.334 75.8065C156.111 75.5697 156 75.288 156 74.9613C156 74.6346 156.111 74.3552 156.334 74.1232C156.556 73.8865 156.824 73.7681 157.136 73.7681C157.449 73.7681 157.716 73.8865 157.939 74.1232C158.161 74.3552 158.273 74.6346 158.273 74.9613Z" fill="#00B7FF"/>
</g>
<defs>
<clipPath id="clip0_3_542">
<rect width="300" height="200" fill="white"/>
</clipPath>
</defs>
</svg>
