<svg width="302" height="202" viewBox="0 0 302 202" fill="none" xmlns="http://www.w3.org/2000/svg">
<line x1="0.5" y1="201.01" x2="0.5" y2="1.00002" stroke="#4F4F4F"/>
<line x1="1" y1="0.5" x2="301" y2="0.5" stroke="#4F4F4F"/>
<line x1="1" y1="80.5" x2="301" y2="80.5" stroke="#4F4F4F"/>
<line x1="1" y1="160.5" x2="301" y2="160.5" stroke="#4F4F4F"/>
<line x1="1" y1="40.5" x2="301" y2="40.5" stroke="#4F4F4F"/>
<line x1="1" y1="120.5" x2="301" y2="120.5" stroke="#4F4F4F"/>
<line x1="1" y1="200.5" x2="301" y2="200.5" stroke="#4F4F4F"/>
<line x1="1" y1="20.5" x2="301" y2="20.5" stroke="#4F4F4F"/>
<line x1="1" y1="100.5" x2="301" y2="100.5" stroke="#4F4F4F"/>
<line x1="1" y1="180.5" x2="301" y2="180.5" stroke="#4F4F4F"/>
<line x1="1" y1="60.5" x2="301" y2="60.5" stroke="#4F4F4F"/>
<line x1="1" y1="140.5" x2="301" y2="140.5" stroke="#4F4F4F"/>
<line x1="160.5" y1="201.01" x2="160.5" y2="1.00002" stroke="#4F4F4F"/>
<line x1="80.5" y1="201.01" x2="80.5" y2="1.00002" stroke="#4F4F4F"/>
<line x1="240.5" y1="201.01" x2="240.5" y2="1.00002" stroke="#4F4F4F"/>
<line x1="40.5" y1="201.01" x2="40.5" y2="1.00002" stroke="#4F4F4F"/>
<line x1="200.5" y1="201.01" x2="200.5" y2="1.00002" stroke="#4F4F4F"/>
<line x1="120.5" y1="201.01" x2="120.5" y2="1.00002" stroke="#4F4F4F"/>
<line x1="280.5" y1="201.01" x2="280.5" y2="1.00002" stroke="#4F4F4F"/>
<line x1="20.5" y1="201.01" x2="20.5" y2="1.00002" stroke="#4F4F4F"/>
<line x1="180.5" y1="201.01" x2="180.5" y2="1.00002" stroke="#4F4F4F"/>
<line x1="100.5" y1="201.01" x2="100.5" y2="1.00002" stroke="#4F4F4F"/>
<line x1="260.5" y1="201.01" x2="260.5" y2="1.00002" stroke="#4F4F4F"/>
<line x1="60.5" y1="201.01" x2="60.5" y2="1.00002" stroke="#4F4F4F"/>
<line x1="220.5" y1="201.01" x2="220.5" y2="1.00002" stroke="#4F4F4F"/>
<line x1="140.5" y1="201.01" x2="140.5" y2="1.00002" stroke="#4F4F4F"/>
<line x1="300.5" y1="201.01" x2="300.5" y2="1.00002" stroke="#4F4F4F"/>
<path d="M181 179L181 21" stroke="#00B7FF" stroke-width="3" stroke-linecap="round"/>
<line x1="40.5" y1="179.5" x2="260.5" y2="179.5" stroke="#FFDD00" stroke-width="3" stroke-linecap="round"/>
<path d="M41 179L181 21" stroke="white" stroke-width="3" stroke-linecap="round"/>
<path d="M261 179L181 21" stroke="white" stroke-width="3" stroke-linecap="round"/>
<path d="M193.537 30H190.767L198.778 8.18182H201.506L209.517 30H206.747L200.227 11.6335H200.057L193.537 30ZM194.56 21.4773H205.724V23.821H194.56V21.4773Z" fill="white"/>
<path d="M290.199 172H287.557C287.401 171.24 287.127 170.572 286.737 169.997C286.353 169.422 285.884 168.939 285.33 168.548C284.783 168.151 284.176 167.852 283.509 167.653C282.841 167.455 282.145 167.355 281.42 167.355C280.099 167.355 278.903 167.689 277.83 168.357C276.765 169.024 275.916 170.008 275.284 171.308C274.659 172.607 274.347 174.202 274.347 176.091C274.347 177.98 274.659 179.575 275.284 180.874C275.916 182.174 276.765 183.158 277.83 183.825C278.903 184.493 280.099 184.827 281.42 184.827C282.145 184.827 282.841 184.727 283.509 184.528C284.176 184.33 284.783 184.035 285.33 183.644C285.884 183.246 286.353 182.76 286.737 182.185C287.127 181.602 287.401 180.935 287.557 180.182H290.199C290 181.297 289.638 182.295 289.112 183.175C288.587 184.056 287.933 184.805 287.152 185.423C286.371 186.034 285.494 186.499 284.521 186.819C283.555 187.138 282.521 187.298 281.42 187.298C279.56 187.298 277.905 186.844 276.456 185.935C275.007 185.026 273.867 183.733 273.036 182.057C272.205 180.381 271.79 178.392 271.79 176.091C271.79 173.79 272.205 171.801 273.036 170.125C273.867 168.449 275.007 167.156 276.456 166.247C277.905 165.338 279.56 164.884 281.42 164.884C282.521 164.884 283.555 165.043 284.521 165.363C285.494 165.683 286.371 166.151 287.152 166.769C287.933 167.38 288.587 168.126 289.112 169.006C289.638 169.88 290 170.878 290.199 172Z" fill="white"/>
<path d="M13.642 190V168.182H21.2699C22.7898 168.182 24.0433 168.445 25.0305 168.97C26.0178 169.489 26.7528 170.188 27.2358 171.069C27.7188 171.942 27.9602 172.912 27.9602 173.977C27.9602 174.915 27.7933 175.689 27.4595 176.3C27.1328 176.911 26.6996 177.393 26.1598 177.749C25.6271 178.104 25.0483 178.366 24.4233 178.537V178.75C25.0909 178.793 25.7621 179.027 26.4368 179.453C27.1115 179.879 27.6761 180.49 28.1307 181.286C28.5852 182.081 28.8125 183.054 28.8125 184.205C28.8125 185.298 28.5639 186.282 28.0668 187.156C27.5696 188.029 26.7848 188.722 25.7124 189.233C24.6399 189.744 23.2443 190 21.5256 190H13.642ZM16.2841 187.656H21.5256C23.2514 187.656 24.4766 187.322 25.201 186.655C25.9325 185.98 26.2983 185.163 26.2983 184.205C26.2983 183.466 26.1101 182.784 25.7337 182.159C25.3572 181.527 24.821 181.023 24.125 180.646C23.429 180.263 22.6051 180.071 21.6534 180.071H16.2841V187.656ZM16.2841 177.77H21.1847C21.9801 177.77 22.6974 177.614 23.3366 177.301C23.983 176.989 24.4943 176.548 24.8707 175.98C25.2543 175.412 25.446 174.744 25.446 173.977C25.446 173.018 25.1122 172.205 24.4446 171.538C23.777 170.863 22.7188 170.526 21.2699 170.526H16.2841V177.77Z" fill="white"/>
<path d="M102.761 171V156.455H107.847C108.86 156.455 109.696 156.63 110.354 156.98C111.012 157.326 111.502 157.792 111.824 158.379C112.146 158.962 112.307 159.608 112.307 160.318C112.307 160.943 112.196 161.459 111.973 161.866C111.755 162.274 111.466 162.596 111.107 162.832C110.751 163.069 110.366 163.244 109.949 163.358V163.5C110.394 163.528 110.841 163.685 111.291 163.969C111.741 164.253 112.117 164.66 112.42 165.19C112.723 165.721 112.875 166.369 112.875 167.136C112.875 167.866 112.709 168.521 112.378 169.104C112.046 169.686 111.523 170.148 110.808 170.489C110.093 170.83 109.163 171 108.017 171H102.761ZM104.523 169.438H108.017C109.168 169.438 109.984 169.215 110.467 168.77C110.955 168.32 111.199 167.776 111.199 167.136C111.199 166.644 111.073 166.189 110.822 165.773C110.571 165.351 110.214 165.015 109.75 164.764C109.286 164.509 108.737 164.381 108.102 164.381H104.523V169.438ZM104.523 162.847H107.79C108.32 162.847 108.798 162.742 109.224 162.534C109.655 162.326 109.996 162.032 110.247 161.653C110.503 161.275 110.631 160.83 110.631 160.318C110.631 159.679 110.408 159.137 109.963 158.692C109.518 158.242 108.813 158.017 107.847 158.017H104.523V162.847ZM118.752 171.256C118.061 171.256 117.433 171.125 116.87 170.865C116.307 170.6 115.859 170.219 115.528 169.722C115.196 169.22 115.031 168.614 115.031 167.903C115.031 167.278 115.154 166.772 115.4 166.384C115.646 165.991 115.975 165.683 116.387 165.46C116.799 165.238 117.254 165.072 117.751 164.963C118.253 164.849 118.757 164.759 119.263 164.693C119.926 164.608 120.464 164.544 120.876 164.501C121.292 164.454 121.595 164.376 121.785 164.267C121.979 164.158 122.076 163.969 122.076 163.699V163.642C122.076 162.941 121.884 162.397 121.501 162.009C121.122 161.62 120.547 161.426 119.775 161.426C118.975 161.426 118.347 161.601 117.893 161.952C117.438 162.302 117.119 162.676 116.934 163.074L115.343 162.506C115.627 161.843 116.006 161.327 116.479 160.957C116.958 160.583 117.478 160.323 118.042 160.176C118.61 160.025 119.169 159.949 119.718 159.949C120.068 159.949 120.471 159.991 120.925 160.077C121.385 160.157 121.827 160.325 122.254 160.581C122.684 160.837 123.042 161.223 123.326 161.739C123.61 162.255 123.752 162.946 123.752 163.812V171H122.076V169.523H121.991C121.877 169.759 121.688 170.013 121.423 170.283C121.157 170.553 120.805 170.782 120.364 170.972C119.924 171.161 119.387 171.256 118.752 171.256ZM119.008 169.75C119.671 169.75 120.229 169.62 120.684 169.359C121.143 169.099 121.489 168.763 121.721 168.351C121.958 167.939 122.076 167.506 122.076 167.051V165.517C122.005 165.602 121.849 165.68 121.607 165.751C121.371 165.818 121.096 165.877 120.783 165.929C120.476 165.976 120.175 166.019 119.881 166.057C119.593 166.09 119.358 166.118 119.178 166.142C118.743 166.199 118.335 166.291 117.957 166.419C117.583 166.542 117.28 166.729 117.048 166.98C116.82 167.226 116.707 167.562 116.707 167.989C116.707 168.571 116.922 169.011 117.353 169.31C117.789 169.603 118.34 169.75 119.008 169.75ZM134.539 162.534L133.033 162.96C132.938 162.709 132.799 162.465 132.614 162.229C132.434 161.987 132.188 161.788 131.875 161.632C131.563 161.476 131.163 161.398 130.675 161.398C130.007 161.398 129.451 161.552 129.006 161.859C128.566 162.162 128.346 162.548 128.346 163.017C128.346 163.434 128.497 163.763 128.8 164.004C129.103 164.246 129.577 164.447 130.221 164.608L131.84 165.006C132.815 165.242 133.542 165.605 134.02 166.092C134.498 166.575 134.738 167.198 134.738 167.96C134.738 168.585 134.558 169.144 134.198 169.636C133.843 170.129 133.346 170.517 132.706 170.801C132.067 171.085 131.324 171.227 130.476 171.227C129.364 171.227 128.443 170.986 127.713 170.503C126.984 170.02 126.523 169.314 126.328 168.386L127.919 167.989C128.071 168.576 128.357 169.016 128.779 169.31C129.205 169.603 129.761 169.75 130.448 169.75C131.229 169.75 131.849 169.584 132.309 169.253C132.773 168.917 133.005 168.514 133.005 168.045C133.005 167.667 132.872 167.349 132.607 167.094C132.342 166.833 131.935 166.639 131.385 166.511L129.567 166.085C128.568 165.848 127.834 165.482 127.365 164.984C126.901 164.482 126.669 163.855 126.669 163.102C126.669 162.487 126.842 161.942 127.188 161.469C127.538 160.995 128.014 160.624 128.615 160.354C129.221 160.084 129.908 159.949 130.675 159.949C131.755 159.949 132.602 160.186 133.218 160.659C133.838 161.133 134.278 161.758 134.539 162.534ZM141.835 171.227C140.783 171.227 139.877 170.995 139.114 170.531C138.357 170.062 137.772 169.409 137.36 168.571C136.953 167.728 136.749 166.748 136.749 165.631C136.749 164.513 136.953 163.528 137.36 162.676C137.772 161.819 138.345 161.152 139.079 160.673C139.817 160.19 140.679 159.949 141.664 159.949C142.232 159.949 142.793 160.044 143.347 160.233C143.901 160.422 144.406 160.73 144.86 161.156C145.315 161.578 145.677 162.136 145.947 162.832C146.217 163.528 146.352 164.385 146.352 165.403V166.114H137.942V164.665H144.647C144.647 164.049 144.524 163.5 144.278 163.017C144.036 162.534 143.691 162.153 143.241 161.874C142.796 161.594 142.27 161.455 141.664 161.455C140.996 161.455 140.419 161.62 139.931 161.952C139.448 162.278 139.076 162.705 138.816 163.23C138.556 163.756 138.425 164.319 138.425 164.92V165.886C138.425 166.71 138.567 167.409 138.852 167.982C139.14 168.55 139.54 168.983 140.052 169.281C140.563 169.575 141.157 169.722 141.835 169.722C142.275 169.722 142.673 169.66 143.028 169.537C143.388 169.409 143.698 169.22 143.958 168.969C144.219 168.713 144.42 168.396 144.562 168.017L146.181 168.472C146.011 169.021 145.724 169.504 145.322 169.92C144.919 170.332 144.422 170.654 143.83 170.886C143.238 171.114 142.573 171.227 141.835 171.227Z" fill="#FFDD00"/>
<rect x="165.5" y="163.5" width="14.1731" height="14.1731" fill="#D9D9D9" stroke="#FF7B00"/>
<path d="M172 130.239H157.455V128.477H163.932V120.722H157.455V118.96H172V120.722H165.494V128.477H172V130.239ZM172.227 111.087C172.227 112.138 171.995 113.045 171.531 113.808C171.062 114.565 170.409 115.15 169.571 115.562C168.728 115.969 167.748 116.173 166.631 116.173C165.513 116.173 164.528 115.969 163.676 115.562C162.819 115.15 162.152 114.577 161.673 113.843C161.19 113.104 160.949 112.243 160.949 111.258C160.949 110.69 161.044 110.129 161.233 109.575C161.422 109.021 161.73 108.516 162.156 108.062C162.578 107.607 163.136 107.245 163.832 106.975C164.528 106.705 165.385 106.57 166.403 106.57H167.114V114.979H165.665V108.275C165.049 108.275 164.5 108.398 164.017 108.644C163.534 108.886 163.153 109.231 162.874 109.681C162.594 110.126 162.455 110.652 162.455 111.258C162.455 111.925 162.62 112.503 162.952 112.991C163.278 113.474 163.705 113.845 164.23 114.106C164.756 114.366 165.319 114.496 165.92 114.496H166.886C167.71 114.496 168.409 114.354 168.982 114.07C169.55 113.781 169.983 113.381 170.281 112.87C170.575 112.359 170.722 111.764 170.722 111.087C170.722 110.647 170.66 110.249 170.537 109.894C170.409 109.534 170.22 109.224 169.969 108.964C169.713 108.703 169.396 108.502 169.017 108.36L169.472 106.741C170.021 106.911 170.504 107.198 170.92 107.6C171.332 108.003 171.654 108.5 171.886 109.092C172.114 109.683 172.227 110.349 172.227 111.087ZM172 104.021H161.091V102.344H172V104.021ZM159.273 103.168C159.273 103.495 159.161 103.777 158.939 104.013C158.716 104.246 158.449 104.362 158.136 104.362C157.824 104.362 157.556 104.246 157.334 104.013C157.111 103.777 157 103.495 157 103.168C157 102.842 157.111 102.562 157.334 102.33C157.556 102.094 157.824 101.975 158.136 101.975C158.449 101.975 158.716 102.094 158.939 102.33C159.161 102.562 159.273 102.842 159.273 103.168ZM176.318 94.8711C176.318 95.6808 176.214 96.3768 176.006 96.9592C175.802 97.5415 175.532 98.0269 175.196 98.4151C174.865 98.7987 174.509 99.104 174.131 99.3313L173.193 97.9961C173.392 97.8446 173.619 97.6528 173.875 97.4208C174.135 97.1888 174.36 96.8716 174.55 96.4691C174.744 96.0619 174.841 95.5292 174.841 94.8711C174.841 93.9904 174.628 93.2636 174.202 92.6907C173.776 92.1178 173.108 91.8313 172.199 91.8313H169.983V91.9734C170.182 92.0965 170.428 92.2717 170.722 92.4989C171.01 92.7215 171.268 93.0434 171.496 93.4648C171.718 93.8815 171.83 94.445 171.83 95.1552C171.83 96.0359 171.621 96.8266 171.205 97.5273C170.788 98.2234 170.182 98.775 169.386 99.1822C168.591 99.5846 167.625 99.7859 166.489 99.7859C165.371 99.7859 164.398 99.5894 163.57 99.1964C162.736 98.8034 162.092 98.2565 161.638 97.5558C161.179 96.855 160.949 96.0453 160.949 95.1268C160.949 94.4165 161.067 93.8531 161.304 93.4364C161.536 93.015 161.801 92.6931 162.099 92.4705C162.393 92.2433 162.634 92.0681 162.824 91.945V91.7745H161.091V90.1552H172.312C173.25 90.1552 174.012 90.3683 174.599 90.7944C175.191 91.2158 175.625 91.784 175.899 92.4989C176.179 93.2092 176.318 93.9999 176.318 94.8711ZM170.324 94.9279C170.324 94.2556 170.17 93.6874 169.862 93.2234C169.554 92.7594 169.112 92.4066 168.534 92.1651C167.956 91.9237 167.265 91.8029 166.46 91.8029C165.674 91.8029 164.981 91.9213 164.379 92.158C163.778 92.3948 163.307 92.7451 162.966 93.2092C162.625 93.6732 162.455 94.2461 162.455 94.9279C162.455 95.6381 162.634 96.23 162.994 96.7035C163.354 97.1722 163.837 97.525 164.443 97.7617C165.049 97.9937 165.722 98.1097 166.46 98.1097C167.218 98.1097 167.888 97.9914 168.47 97.7546C169.048 97.5131 169.502 97.158 169.834 96.6893C170.161 96.2158 170.324 95.6287 170.324 94.9279ZM165.438 85.4109H172V87.087H157.455V85.4109H162.795V85.2688C162.232 85.0131 161.785 84.6296 161.453 84.1183C161.117 83.6022 160.949 82.9156 160.949 82.0586C160.949 81.3152 161.098 80.6642 161.396 80.1055C161.69 79.5468 162.142 79.1135 162.753 78.8058C163.359 78.4933 164.131 78.337 165.068 78.337H172V80.0131H165.182C164.315 80.0131 163.645 80.238 163.172 80.6879C162.694 81.1329 162.455 81.7508 162.455 82.5415C162.455 83.0908 162.571 83.5832 162.803 84.0188C163.035 84.4497 163.373 84.7906 163.818 85.0415C164.263 85.2878 164.803 85.4109 165.438 85.4109ZM161.091 70.5263H162.511V76.1797H161.091V70.5263ZM158.477 74.532V72.8558H168.875C169.348 72.8558 169.704 72.7872 169.94 72.6499C170.172 72.5078 170.329 72.3279 170.409 72.1101C170.485 71.8875 170.523 71.6532 170.523 71.407C170.523 71.2223 170.513 71.0708 170.494 70.9524C170.471 70.834 170.452 70.7393 170.438 70.6683L171.943 70.3274C171.986 70.4411 172.028 70.5997 172.071 70.8033C172.118 71.0069 172.142 71.2649 172.142 71.5774C172.142 72.0509 172.04 72.5149 171.837 72.9695C171.633 73.4193 171.323 73.7933 170.906 74.0916C170.49 74.3852 169.964 74.532 169.33 74.532H158.477Z" fill="#00B7FF"/>
</svg>
