<svg width="300" height="200" viewBox="0 0 300 200" fill="none" xmlns="http://www.w3.org/2000/svg">
<g clip-path="url(#clip0_2_312)">
<line y1="79.5" x2="300" y2="79.5" stroke="#4F4F4F"/>
<line y1="159.5" x2="300" y2="159.5" stroke="#4F4F4F"/>
<line y1="39.5" x2="300" y2="39.5" stroke="#4F4F4F"/>
<line y1="119.5" x2="300" y2="119.5" stroke="#4F4F4F"/>
<line y1="199.5" x2="300" y2="199.5" stroke="#4F4F4F"/>
<line y1="19.5" x2="300" y2="19.5" stroke="#4F4F4F"/>
<line y1="99.5" x2="300" y2="99.5" stroke="#4F4F4F"/>
<line y1="179.5" x2="300" y2="179.5" stroke="#4F4F4F"/>
<line y1="59.5" x2="300" y2="59.5" stroke="#4F4F4F"/>
<line y1="139.5" x2="300" y2="139.5" stroke="#4F4F4F"/>
<line x1="159.5" y1="200.01" x2="159.5" y2="1.52588e-05" stroke="#4F4F4F"/>
<line x1="79.5" y1="200.01" x2="79.5" y2="1.52588e-05" stroke="#4F4F4F"/>
<line x1="239.5" y1="200.01" x2="239.5" y2="1.52588e-05" stroke="#4F4F4F"/>
<line x1="39.5" y1="200.01" x2="39.5" y2="1.52588e-05" stroke="#4F4F4F"/>
<line x1="199.5" y1="200.01" x2="199.5" y2="1.52588e-05" stroke="#4F4F4F"/>
<line x1="119.5" y1="200.01" x2="119.5" y2="1.52588e-05" stroke="#4F4F4F"/>
<line x1="279.5" y1="200.01" x2="279.5" y2="1.52588e-05" stroke="#4F4F4F"/>
<line x1="19.5" y1="200.01" x2="19.5" y2="1.52588e-05" stroke="#4F4F4F"/>
<line x1="179.5" y1="200.01" x2="179.5" y2="1.52588e-05" stroke="#4F4F4F"/>
<line x1="99.5" y1="200.01" x2="99.5" y2="1.52588e-05" stroke="#4F4F4F"/>
<line x1="259.5" y1="200.01" x2="259.5" y2="1.52588e-05" stroke="#4F4F4F"/>
<line x1="59.5" y1="200.01" x2="59.5" y2="1.52588e-05" stroke="#4F4F4F"/>
<line x1="219.5" y1="200.01" x2="219.5" y2="1.52588e-05" stroke="#4F4F4F"/>
<line x1="139.5" y1="200.01" x2="139.5" y2="1.52588e-05" stroke="#4F4F4F"/>
<line x1="299.5" y1="200.01" x2="299.5" y2="1.52588e-05" stroke="#4F4F4F"/>
<line x1="39.5" y1="178.5" x2="259.5" y2="178.5" stroke="white" stroke-width="3" stroke-linecap="round"/>
<path d="M40 178L180 20" stroke="white" stroke-width="3" stroke-linecap="round"/>
<path d="M260 178L180 20" stroke="#FFDD00" stroke-width="3" stroke-linecap="round"/>
<path d="M192.537 29H189.767L197.778 7.18182H200.506L208.517 29H205.747L199.227 10.6335H199.057L192.537 29ZM193.56 20.4773H204.724V22.821H193.56V20.4773Z" fill="white"/>
<path d="M289.199 171H286.557C286.401 170.24 286.127 169.572 285.737 168.997C285.353 168.422 284.884 167.939 284.33 167.548C283.783 167.151 283.176 166.852 282.509 166.653C281.841 166.455 281.145 166.355 280.42 166.355C279.099 166.355 277.903 166.689 276.83 167.357C275.765 168.024 274.916 169.008 274.284 170.308C273.659 171.607 273.347 173.202 273.347 175.091C273.347 176.98 273.659 178.575 274.284 179.874C274.916 181.174 275.765 182.158 276.83 182.825C277.903 183.493 279.099 183.827 280.42 183.827C281.145 183.827 281.841 183.727 282.509 183.528C283.176 183.33 283.783 183.035 284.33 182.644C284.884 182.246 285.353 181.76 285.737 181.185C286.127 180.602 286.401 179.935 286.557 179.182H289.199C289 180.297 288.638 181.295 288.112 182.175C287.587 183.056 286.933 183.805 286.152 184.423C285.371 185.034 284.494 185.499 283.521 185.819C282.555 186.138 281.521 186.298 280.42 186.298C278.56 186.298 276.905 185.844 275.456 184.935C274.007 184.026 272.867 182.733 272.036 181.057C271.205 179.381 270.79 177.392 270.79 175.091C270.79 172.79 271.205 170.801 272.036 169.125C272.867 167.449 274.007 166.156 275.456 165.247C276.905 164.338 278.56 163.884 280.42 163.884C281.521 163.884 282.555 164.043 283.521 164.363C284.494 164.683 285.371 165.151 286.152 165.769C286.933 166.38 287.587 167.126 288.112 168.006C288.638 168.88 289 169.878 289.199 171Z" fill="white"/>
<path d="M12.642 189V167.182H20.2699C21.7898 167.182 23.0433 167.445 24.0305 167.97C25.0178 168.489 25.7528 169.188 26.2358 170.069C26.7188 170.942 26.9602 171.912 26.9602 172.977C26.9602 173.915 26.7933 174.689 26.4595 175.3C26.1328 175.911 25.6996 176.393 25.1598 176.749C24.6271 177.104 24.0483 177.366 23.4233 177.537V177.75C24.0909 177.793 24.7621 178.027 25.4368 178.453C26.1115 178.879 26.6761 179.49 27.1307 180.286C27.5852 181.081 27.8125 182.054 27.8125 183.205C27.8125 184.298 27.5639 185.282 27.0668 186.156C26.5696 187.029 25.7848 187.722 24.7124 188.233C23.6399 188.744 22.2443 189 20.5256 189H12.642ZM15.2841 186.656H20.5256C22.2514 186.656 23.4766 186.322 24.201 185.655C24.9325 184.98 25.2983 184.163 25.2983 183.205C25.2983 182.466 25.1101 181.784 24.7337 181.159C24.3572 180.527 23.821 180.023 23.125 179.646C22.429 179.263 21.6051 179.071 20.6534 179.071H15.2841V186.656ZM15.2841 176.77H20.1847C20.9801 176.77 21.6974 176.614 22.3366 176.301C22.983 175.989 23.4943 175.548 23.8707 174.98C24.2543 174.412 24.446 173.744 24.446 172.977C24.446 172.018 24.1122 171.205 23.4446 170.538C22.777 169.863 21.7188 169.526 20.2699 169.526H15.2841V176.77Z" fill="white"/>
<path d="M222.258 77.1132L235.252 70.5756L237.537 75.1182C237.993 76.0233 238.212 76.8486 238.195 77.594C238.182 78.3373 237.985 78.9847 237.606 79.5362C237.23 80.0856 236.725 80.5199 236.091 80.8391C235.532 81.12 235.021 81.2526 234.557 81.2368C234.096 81.2252 233.678 81.1119 233.305 80.8969C232.934 80.6861 232.604 80.4201 232.315 80.099L232.188 80.1628C232.363 80.5732 232.425 81.0431 232.373 81.5726C232.321 82.1021 232.127 82.6214 231.789 83.1304C231.452 83.6395 230.94 84.0664 230.255 84.4111C229.604 84.7389 228.944 84.8856 228.274 84.8513C227.605 84.8169 226.958 84.5571 226.332 84.0716C225.706 83.5862 225.135 82.8316 224.62 81.8081L222.258 77.1132ZM224.446 77.9843L226.016 81.1058C226.533 82.1336 227.099 82.7632 227.714 82.9946C228.335 83.228 228.931 83.2011 229.502 82.9138C229.942 82.6925 230.291 82.3761 230.551 81.9647C230.814 81.5511 230.954 81.0807 230.97 80.5534C230.99 80.024 230.857 79.4759 230.572 78.9091L228.963 75.7115L224.446 77.9843ZM230.333 75.022L231.802 77.9404C232.04 78.4141 232.348 78.7945 232.726 79.0815C233.105 79.3728 233.521 79.5454 233.972 79.5993C234.425 79.6575 234.88 79.5716 235.337 79.3418C235.908 79.0545 236.292 78.612 236.49 78.0144C236.692 77.4146 236.576 76.6833 236.141 75.8205L234.648 72.8513L230.333 75.022ZM229.217 91.5126C228.906 90.8951 228.741 90.2762 228.72 89.6558C228.704 89.0333 228.843 88.4623 229.138 87.9427C229.437 87.4211 229.904 87.0007 230.539 86.6814C231.097 86.4005 231.605 86.2828 232.063 86.3282C232.524 86.3715 232.947 86.5272 233.331 86.7951C233.715 87.0631 234.067 87.3946 234.388 87.7898C234.715 88.1871 235.022 88.5971 235.309 89.0199C235.683 89.5737 235.982 90.025 236.205 90.3739C236.435 90.7248 236.641 90.9604 236.823 91.0806C237.008 91.2051 237.22 91.2067 237.461 91.0854L237.512 91.0598C238.138 90.7449 238.538 90.3288 238.713 89.8117C238.889 89.2988 238.804 88.6977 238.457 88.0083C238.098 87.2935 237.659 86.8118 237.142 86.5632C236.625 86.3146 236.147 86.1973 235.709 86.2111L235.501 84.5345C236.221 84.4904 236.852 84.5968 237.395 84.8537C237.944 85.1128 238.411 85.461 238.795 85.8984C239.186 86.3378 239.505 86.8029 239.751 87.2935C239.909 87.6065 240.052 87.9852 240.18 88.4295C240.314 88.876 240.363 89.347 240.326 89.8426C240.292 90.3424 240.108 90.8352 239.774 91.3209C239.441 91.8067 238.887 92.2443 238.113 92.6337L231.693 95.8642L230.939 94.3669L232.259 93.703L232.221 93.6268C231.958 93.6317 231.647 93.5764 231.286 93.4608C230.926 93.3453 230.562 93.1334 230.195 92.8251C229.828 92.5169 229.502 92.0794 229.217 91.5126ZM230.677 91.0643C230.975 91.6565 231.342 92.097 231.779 92.386C232.218 92.6793 232.674 92.8369 233.146 92.859C233.621 92.8854 234.061 92.7964 234.467 92.5921L235.837 91.9026C235.729 91.8774 235.589 91.773 235.417 91.5892C235.252 91.4075 235.075 91.1888 234.888 90.933C234.708 90.6794 234.534 90.4299 234.369 90.1847C234.209 89.9416 234.079 89.745 233.977 89.5949C233.73 89.2313 233.464 88.9091 233.18 88.6282C232.902 88.3494 232.599 88.1627 232.27 88.0683C231.948 87.9759 231.597 88.0255 231.216 88.217C230.696 88.4788 230.399 88.8692 230.326 89.3881C230.26 89.9092 230.377 90.4679 230.677 91.0643ZM244.103 101.695L243.046 100.541C243.228 100.344 243.383 100.11 243.511 99.8382C243.646 99.5689 243.713 99.2596 243.712 98.9102C243.711 98.5608 243.601 98.1683 243.382 97.7327C243.082 97.1363 242.694 96.7085 242.219 96.4492C241.751 96.192 241.307 96.1688 240.888 96.3795C240.516 96.5668 240.29 96.85 240.211 97.2293C240.131 97.6085 240.164 98.1219 240.31 98.7695L240.682 100.395C240.909 101.372 240.913 102.185 240.692 102.831C240.475 103.475 240.027 103.969 239.346 104.311C238.787 104.592 238.207 104.683 237.606 104.582C237.006 104.487 236.436 104.217 235.895 103.774C235.354 103.33 234.893 102.73 234.512 101.973C234.012 100.979 233.814 100.048 233.917 99.1794C234.021 98.311 234.444 97.5815 235.185 96.991L236.256 98.2334C235.799 98.6326 235.535 99.0864 235.462 99.5948C235.391 100.107 235.51 100.67 235.819 101.284C236.17 101.982 236.597 102.461 237.099 102.722C237.608 102.986 238.072 103.012 238.491 102.802C238.829 102.631 239.053 102.37 239.162 102.018C239.275 101.665 239.266 101.214 239.133 100.665L238.697 98.8498C238.459 97.8509 238.457 97.0304 238.69 96.3882C238.93 95.7481 239.386 95.2589 240.059 94.9205C240.609 94.6438 241.173 94.5535 241.751 94.6494C242.332 94.7496 242.878 95.0077 243.389 95.4235C243.902 95.8436 244.331 96.3962 244.676 97.0815C245.161 98.0458 245.331 98.9093 245.185 99.672C245.04 100.439 244.68 101.113 244.103 101.695ZM239.617 112.119C239.145 111.18 238.944 110.266 239.016 109.377C239.094 108.489 239.415 107.673 239.979 106.928C240.549 106.186 241.333 105.564 242.331 105.061C243.329 104.559 244.3 104.298 245.245 104.279C246.195 104.262 247.049 104.473 247.806 104.914C248.57 105.357 249.173 106.018 249.615 106.898C249.871 107.405 250.038 107.949 250.118 108.529C250.198 109.109 250.15 109.698 249.973 110.296C249.801 110.891 249.465 111.466 248.964 112.02C248.464 112.574 247.759 113.079 246.85 113.537L246.215 113.856L242.436 106.344L243.73 105.693L246.743 111.682C247.293 111.406 247.729 111.049 248.049 110.612C248.372 110.179 248.557 109.699 248.605 109.171C248.654 108.648 248.543 108.116 248.27 107.575C247.97 106.978 247.563 106.537 247.047 106.25C246.538 105.965 245.991 105.825 245.404 105.829C244.818 105.832 244.256 105.969 243.719 106.239L242.856 106.674C242.12 107.044 241.56 107.485 241.176 107.996C240.798 108.509 240.591 109.061 240.554 109.652C240.522 110.241 240.658 110.838 240.962 111.443C241.16 111.836 241.394 112.164 241.663 112.426C241.939 112.69 242.248 112.881 242.589 113.001C242.934 113.119 243.308 113.156 243.71 113.113L244.032 114.764C243.465 114.858 242.905 114.819 242.352 114.647C241.803 114.473 241.292 114.173 240.818 113.749C240.349 113.322 239.949 112.779 239.617 112.119Z" fill="#FFDD00"/>
</g>
<defs>
<clipPath id="clip0_2_312">
<rect width="300" height="200" fill="white"/>
</clipPath>
</defs>
</svg>
