<svg width="300" height="200" viewBox="0 0 300 200" fill="none" xmlns="http://www.w3.org/2000/svg">
<g clip-path="url(#clip0_3_582)">
<line y1="79.5" x2="300" y2="79.5" stroke="#4F4F4F"/>
<line y1="159.5" x2="300" y2="159.5" stroke="#4F4F4F"/>
<line y1="39.5" x2="300" y2="39.5" stroke="#4F4F4F"/>
<line y1="119.5" x2="300" y2="119.5" stroke="#4F4F4F"/>
<line y1="199.5" x2="300" y2="199.5" stroke="#4F4F4F"/>
<line y1="19.5" x2="300" y2="19.5" stroke="#4F4F4F"/>
<line y1="99.5" x2="300" y2="99.5" stroke="#4F4F4F"/>
<line y1="179.5" x2="300" y2="179.5" stroke="#4F4F4F"/>
<line y1="59.5" x2="300" y2="59.5" stroke="#4F4F4F"/>
<line y1="139.5" x2="300" y2="139.5" stroke="#4F4F4F"/>
<line x1="159.5" y1="200.01" x2="159.5" y2="1.52588e-05" stroke="#4F4F4F"/>
<line x1="79.5" y1="200.01" x2="79.5" y2="1.52588e-05" stroke="#4F4F4F"/>
<line x1="239.5" y1="200.01" x2="239.5" y2="1.52588e-05" stroke="#4F4F4F"/>
<line x1="39.5" y1="200.01" x2="39.5" y2="1.52588e-05" stroke="#4F4F4F"/>
<line x1="199.5" y1="200.01" x2="199.5" y2="1.52588e-05" stroke="#4F4F4F"/>
<line x1="119.5" y1="200.01" x2="119.5" y2="1.52588e-05" stroke="#4F4F4F"/>
<line x1="279.5" y1="200.01" x2="279.5" y2="1.52588e-05" stroke="#4F4F4F"/>
<line x1="19.5" y1="200.01" x2="19.5" y2="1.52588e-05" stroke="#4F4F4F"/>
<line x1="179.5" y1="200.01" x2="179.5" y2="1.52588e-05" stroke="#4F4F4F"/>
<line x1="99.5" y1="200.01" x2="99.5" y2="1.52588e-05" stroke="#4F4F4F"/>
<line x1="259.5" y1="200.01" x2="259.5" y2="1.52588e-05" stroke="#4F4F4F"/>
<line x1="59.5" y1="200.01" x2="59.5" y2="1.52588e-05" stroke="#4F4F4F"/>
<line x1="219.5" y1="200.01" x2="219.5" y2="1.52588e-05" stroke="#4F4F4F"/>
<line x1="139.5" y1="200.01" x2="139.5" y2="1.52588e-05" stroke="#4F4F4F"/>
<line x1="299.5" y1="200.01" x2="299.5" y2="1.52588e-05" stroke="#4F4F4F"/>
<line x1="39.5" y1="178.5" x2="259.5" y2="178.5" stroke="white" stroke-width="3" stroke-linecap="round"/>
<path d="M40 178L180 20" stroke="#FFDD00" stroke-width="3" stroke-linecap="round"/>
<path d="M260 178L180 20" stroke="white" stroke-width="3" stroke-linecap="round"/>
<path d="M192.537 29H189.767L197.778 7.18182H200.506L208.517 29H205.747L199.227 10.6335H199.057L192.537 29ZM193.56 20.4773H204.724V22.821H193.56V20.4773Z" fill="white"/>
<path d="M289.199 171H286.557C286.401 170.24 286.127 169.572 285.737 168.997C285.353 168.422 284.884 167.939 284.33 167.548C283.783 167.151 283.176 166.852 282.509 166.653C281.841 166.455 281.145 166.355 280.42 166.355C279.099 166.355 277.903 166.689 276.83 167.357C275.765 168.024 274.916 169.008 274.284 170.308C273.659 171.607 273.347 173.202 273.347 175.091C273.347 176.98 273.659 178.575 274.284 179.874C274.916 181.174 275.765 182.158 276.83 182.825C277.903 183.493 279.099 183.827 280.42 183.827C281.145 183.827 281.841 183.727 282.509 183.528C283.176 183.33 283.783 183.035 284.33 182.644C284.884 182.246 285.353 181.76 285.737 181.185C286.127 180.602 286.401 179.935 286.557 179.182H289.199C289 180.297 288.638 181.295 288.112 182.175C287.587 183.056 286.933 183.805 286.152 184.423C285.371 185.034 284.494 185.499 283.521 185.819C282.555 186.138 281.521 186.298 280.42 186.298C278.56 186.298 276.905 185.844 275.456 184.935C274.007 184.026 272.867 182.733 272.036 181.057C271.205 179.381 270.79 177.392 270.79 175.091C270.79 172.79 271.205 170.801 272.036 169.125C272.867 167.449 274.007 166.156 275.456 165.247C276.905 164.338 278.56 163.884 280.42 163.884C281.521 163.884 282.555 164.043 283.521 164.363C284.494 164.683 285.371 165.151 286.152 165.769C286.933 166.38 287.587 167.126 288.112 168.006C288.638 168.88 289 169.878 289.199 171Z" fill="white"/>
<path d="M12.642 189V167.182H20.2699C21.7898 167.182 23.0433 167.445 24.0305 167.97C25.0178 168.489 25.7528 169.188 26.2358 170.069C26.7188 170.942 26.9602 171.912 26.9602 172.977C26.9602 173.915 26.7933 174.689 26.4595 175.3C26.1328 175.911 25.6996 176.393 25.1598 176.749C24.6271 177.104 24.0483 177.366 23.4233 177.537V177.75C24.0909 177.793 24.7621 178.027 25.4368 178.453C26.1115 178.879 26.6761 179.49 27.1307 180.286C27.5852 181.081 27.8125 182.054 27.8125 183.205C27.8125 184.298 27.5639 185.282 27.0668 186.156C26.5696 187.029 25.7848 187.722 24.7124 188.233C23.6399 188.744 22.2443 189 20.5256 189H12.642ZM15.2841 186.656H20.5256C22.2514 186.656 23.4766 186.322 24.201 185.655C24.9325 184.98 25.2983 184.163 25.2983 183.205C25.2983 182.466 25.1101 181.784 24.7337 181.159C24.3572 180.527 23.821 180.023 23.125 179.646C22.429 179.263 21.6051 179.071 20.6534 179.071H15.2841V186.656ZM15.2841 176.77H20.1847C20.9801 176.77 21.6974 176.614 22.3366 176.301C22.983 175.989 23.4943 175.548 23.8707 174.98C24.2543 174.412 24.446 173.744 24.446 172.977C24.446 172.018 24.1122 171.205 23.4446 170.538C22.777 169.863 21.7188 169.526 20.2699 169.526H15.2841V176.77Z" fill="white"/>
<path d="M90.4301 105.498L89.1619 106.84L82.2571 92.9687L83.5057 91.6471L97.7465 97.7542L96.4783 99.0965L84.5931 93.847L84.515 93.9296L90.4301 105.498ZM86.7683 101.1L91.88 95.69L93.0158 96.7631L87.9041 102.173L86.7683 101.1ZM89.7246 85.0649L100.297 95.0542L99.1463 96.2726L88.5735 86.2833L89.7246 85.0649ZM104.796 90.6649C104.322 91.1673 103.796 91.5339 103.22 91.7647C102.64 91.9921 102.056 92.0556 101.467 91.9551C100.874 91.8513 100.32 91.5556 99.8037 91.0678C99.3494 90.6386 99.0657 90.2012 98.9526 89.7555C98.836 89.3067 98.8383 88.8561 98.9595 88.4039C99.0806 87.9516 99.2723 87.5074 99.5346 87.0712C99.7967 86.6284 100.078 86.2001 100.377 85.7863C100.771 85.2459 101.093 84.8114 101.345 84.4827C101.597 84.1473 101.748 83.8734 101.799 83.6609C101.853 83.445 101.782 83.2444 101.586 83.0591L101.545 83.02C101.035 82.5388 100.508 82.3042 99.9623 82.3164C99.42 82.3251 98.8838 82.6099 98.3538 83.1709C97.8042 83.7525 97.5007 84.3289 97.4432 84.8999C97.3857 85.4709 97.4381 85.9601 97.6004 86.3675L96.0948 87.1337C95.8081 86.4719 95.6931 85.8422 95.7498 85.2444C95.8064 84.6399 95.9748 84.0825 96.255 83.5721C96.5351 83.055 96.8637 82.5969 97.2409 82.1977C97.4816 81.943 97.7889 81.6797 98.163 81.4078C98.537 81.1293 98.9632 80.9229 99.4417 80.7887C99.9234 80.6511 100.449 80.6563 101.02 80.8042C101.59 80.9522 102.19 81.3237 102.82 81.9188L108.044 86.8549L106.893 88.0732L105.819 87.0587L105.761 87.1206C105.855 87.3658 105.909 87.6774 105.923 88.0555C105.937 88.4336 105.862 88.8477 105.697 89.2979C105.532 89.748 105.232 90.2037 104.796 90.6649ZM103.877 89.445C104.333 88.9631 104.622 88.4676 104.745 87.9583C104.871 87.4457 104.864 86.9635 104.724 86.512C104.587 86.057 104.353 85.6734 104.023 85.3613L102.908 84.3077C102.921 84.4179 102.87 84.5851 102.756 84.8094C102.642 85.027 102.496 85.2673 102.319 85.5302C102.142 85.7864 101.967 86.0342 101.793 86.2736C101.619 86.5063 101.478 86.6962 101.372 86.8433C101.114 87.1989 100.902 87.5583 100.734 87.9214C100.567 88.2779 100.495 88.6266 100.518 88.9676C100.541 89.3019 100.707 89.6153 101.017 89.908C101.44 90.3079 101.908 90.4538 102.421 90.3454C102.933 90.2304 103.419 89.9302 103.877 89.445ZM109.298 73.2002L108.574 74.5873C108.327 74.4838 108.053 74.4179 107.755 74.3895C107.455 74.3545 107.142 74.3969 106.814 74.5167C106.485 74.6366 106.154 74.8737 105.819 75.2282C105.36 75.7135 105.09 76.2236 105.008 76.7585C104.926 77.2866 105.055 77.7117 105.396 78.0336C105.699 78.3198 106.042 78.4356 106.426 78.3812C106.81 78.3268 107.281 78.1208 107.84 77.7633L109.241 76.8594C110.083 76.313 110.846 76.0334 111.529 76.0208C112.208 76.0048 112.825 76.2586 113.379 76.7821C113.833 77.2114 114.116 77.7259 114.227 78.3256C114.341 78.9219 114.282 79.5499 114.049 80.2097C113.817 80.8694 113.409 81.5073 112.827 82.1233C112.063 82.9321 111.255 83.4357 110.403 83.634C109.552 83.8324 108.722 83.6834 107.914 83.1872L108.717 81.7577C109.248 82.0507 109.765 82.1449 110.268 82.0402C110.774 81.9321 111.262 81.6285 111.734 81.1295C112.271 80.5616 112.576 79.9969 112.651 79.4354C112.725 78.8673 112.592 78.4223 112.251 78.1003C111.976 77.8402 111.654 77.7187 111.286 77.7358C110.915 77.7497 110.494 77.9124 110.024 78.2238L108.465 79.2528C107.607 79.8164 106.836 80.0978 106.153 80.0971C105.47 80.0897 104.854 79.8275 104.307 79.3105C103.86 78.8878 103.582 78.3882 103.476 77.8118C103.372 77.2319 103.429 76.6308 103.646 76.0083C103.866 75.3825 104.239 74.7907 104.766 74.2332C105.507 73.4485 106.261 72.995 107.028 72.8728C107.798 72.7471 108.555 72.8562 109.298 73.2002Z" fill="#FFDD00"/>
</g>
<defs>
<clipPath id="clip0_3_582">
<rect width="300" height="200" fill="white"/>
</clipPath>
</defs>
</svg>
