<svg width="302" height="202" viewBox="0 0 302 202" fill="none" xmlns="http://www.w3.org/2000/svg">
<line x1="0.5" y1="201.01" x2="0.5" y2="1" stroke="#4F4F4F"/>
<line x1="1" y1="0.5" x2="301" y2="0.5" stroke="#4F4F4F"/>
<line x1="1" y1="80.5" x2="301" y2="80.5" stroke="#4F4F4F"/>
<line x1="1" y1="160.5" x2="301" y2="160.5" stroke="#4F4F4F"/>
<line x1="1" y1="40.5" x2="301" y2="40.5" stroke="#4F4F4F"/>
<line x1="1" y1="120.5" x2="301" y2="120.5" stroke="#4F4F4F"/>
<line x1="1" y1="200.5" x2="301" y2="200.5" stroke="#4F4F4F"/>
<line x1="1" y1="20.5" x2="301" y2="20.5" stroke="#4F4F4F"/>
<line x1="1" y1="100.5" x2="301" y2="100.5" stroke="#4F4F4F"/>
<line x1="1" y1="180.5" x2="301" y2="180.5" stroke="#4F4F4F"/>
<line x1="1" y1="60.5" x2="301" y2="60.5" stroke="#4F4F4F"/>
<line x1="1" y1="140.5" x2="301" y2="140.5" stroke="#4F4F4F"/>
<line x1="160.5" y1="201.01" x2="160.5" y2="1" stroke="#4F4F4F"/>
<line x1="80.5" y1="201.01" x2="80.5" y2="1" stroke="#4F4F4F"/>
<line x1="240.5" y1="201.01" x2="240.5" y2="1" stroke="#4F4F4F"/>
<line x1="40.5" y1="201.01" x2="40.5" y2="1" stroke="#4F4F4F"/>
<line x1="200.5" y1="201.01" x2="200.5" y2="1" stroke="#4F4F4F"/>
<line x1="120.5" y1="201.01" x2="120.5" y2="1" stroke="#4F4F4F"/>
<line x1="280.5" y1="201.01" x2="280.5" y2="1" stroke="#4F4F4F"/>
<line x1="20.5" y1="201.01" x2="20.5" y2="1" stroke="#4F4F4F"/>
<line x1="180.5" y1="201.01" x2="180.5" y2="1" stroke="#4F4F4F"/>
<line x1="100.5" y1="201.01" x2="100.5" y2="1" stroke="#4F4F4F"/>
<line x1="260.5" y1="201.01" x2="260.5" y2="1" stroke="#4F4F4F"/>
<line x1="60.5" y1="201.01" x2="60.5" y2="1" stroke="#4F4F4F"/>
<line x1="220.5" y1="201.01" x2="220.5" y2="1" stroke="#4F4F4F"/>
<line x1="140.5" y1="201.01" x2="140.5" y2="1" stroke="#4F4F4F"/>
<line x1="300.5" y1="201.01" x2="300.5" y2="1" stroke="#4F4F4F"/>
<line x1="40.5" y1="179.5" x2="260.5" y2="179.5" stroke="#FFDD00" stroke-width="3" stroke-linecap="round"/>
<path d="M41 179L181 21" stroke="white" stroke-width="3" stroke-linecap="round"/>
<path d="M261 179L181 21" stroke="white" stroke-width="3" stroke-linecap="round"/>
<path d="M193.537 30H190.767L198.778 8.18182H201.506L209.517 30H206.747L200.227 11.6335H200.057L193.537 30ZM194.56 21.4773H205.724V23.821H194.56V21.4773Z" fill="white"/>
<path d="M290.199 172H287.557C287.401 171.24 287.127 170.572 286.737 169.997C286.353 169.422 285.884 168.939 285.33 168.548C284.783 168.151 284.176 167.852 283.509 167.653C282.841 167.455 282.145 167.355 281.42 167.355C280.099 167.355 278.903 167.689 277.83 168.357C276.765 169.024 275.916 170.008 275.284 171.308C274.659 172.607 274.347 174.202 274.347 176.091C274.347 177.98 274.659 179.575 275.284 180.874C275.916 182.174 276.765 183.158 277.83 183.825C278.903 184.493 280.099 184.827 281.42 184.827C282.145 184.827 282.841 184.727 283.509 184.528C284.176 184.33 284.783 184.035 285.33 183.644C285.884 183.246 286.353 182.76 286.737 182.185C287.127 181.602 287.401 180.935 287.557 180.182H290.199C290 181.297 289.638 182.295 289.112 183.175C288.587 184.056 287.933 184.805 287.152 185.423C286.371 186.034 285.494 186.499 284.521 186.819C283.555 187.138 282.521 187.298 281.42 187.298C279.56 187.298 277.905 186.844 276.456 185.935C275.007 185.026 273.867 183.733 273.036 182.057C272.205 180.381 271.79 178.392 271.79 176.091C271.79 173.79 272.205 171.801 273.036 170.125C273.867 168.449 275.007 167.156 276.456 166.247C277.905 165.338 279.56 164.884 281.42 164.884C282.521 164.884 283.555 165.043 284.521 165.363C285.494 165.683 286.371 166.151 287.152 166.769C287.933 167.38 288.587 168.126 289.112 169.006C289.638 169.88 290 170.878 290.199 172Z" fill="white"/>
<path d="M13.642 190V168.182H21.2699C22.7898 168.182 24.0433 168.445 25.0305 168.97C26.0178 169.489 26.7528 170.188 27.2358 171.069C27.7188 171.942 27.9602 172.912 27.9602 173.977C27.9602 174.915 27.7933 175.689 27.4595 176.3C27.1328 176.911 26.6996 177.393 26.1598 177.749C25.6271 178.104 25.0483 178.366 24.4233 178.537V178.75C25.0909 178.793 25.7621 179.027 26.4368 179.453C27.1115 179.879 27.6761 180.49 28.1307 181.286C28.5852 182.081 28.8125 183.054 28.8125 184.205C28.8125 185.298 28.5639 186.282 28.0668 187.156C27.5696 188.029 26.7848 188.722 25.7124 189.233C24.6399 189.744 23.2443 190 21.5256 190H13.642ZM16.2841 187.656H21.5256C23.2514 187.656 24.4766 187.322 25.201 186.655C25.9325 185.98 26.2983 185.163 26.2983 184.205C26.2983 183.466 26.1101 182.784 25.7337 182.159C25.3572 181.527 24.821 181.023 24.125 180.646C23.429 180.263 22.6051 180.071 21.6534 180.071H16.2841V187.656ZM16.2841 177.77H21.1847C21.9801 177.77 22.6974 177.614 23.3366 177.301C23.983 176.989 24.4943 176.548 24.8707 175.98C25.2543 175.412 25.446 174.744 25.446 173.977C25.446 173.018 25.1122 172.205 24.4446 171.538C23.777 170.863 22.7188 170.526 21.2699 170.526H16.2841V177.77Z" fill="white"/>
<path d="M103.358 171H101.511L106.852 156.455H108.67L114.011 171H112.165L107.818 158.756H107.705L103.358 171ZM104.04 165.318H111.483V166.881H104.04V165.318ZM117.726 156.455V171H116.05V156.455H117.726ZM124.006 171.256C123.315 171.256 122.687 171.125 122.124 170.865C121.56 170.6 121.113 170.219 120.782 169.722C120.45 169.22 120.284 168.614 120.284 167.903C120.284 167.278 120.408 166.772 120.654 166.384C120.9 165.991 121.229 165.683 121.641 165.46C122.053 165.238 122.507 165.072 123.005 164.963C123.507 164.849 124.011 164.759 124.517 164.693C125.18 164.608 125.718 164.544 126.13 164.501C126.546 164.454 126.849 164.376 127.039 164.267C127.233 164.158 127.33 163.969 127.33 163.699V163.642C127.33 162.941 127.138 162.397 126.755 162.009C126.376 161.62 125.801 161.426 125.029 161.426C124.229 161.426 123.601 161.601 123.147 161.952C122.692 162.302 122.373 162.676 122.188 163.074L120.597 162.506C120.881 161.843 121.26 161.327 121.733 160.957C122.212 160.583 122.732 160.323 123.296 160.176C123.864 160.025 124.423 159.949 124.972 159.949C125.322 159.949 125.725 159.991 126.179 160.077C126.639 160.157 127.081 160.325 127.507 160.581C127.938 160.837 128.296 161.223 128.58 161.739C128.864 162.255 129.006 162.946 129.006 163.812V171H127.33V169.523H127.245C127.131 169.759 126.942 170.013 126.676 170.283C126.411 170.553 126.059 170.782 125.618 170.972C125.178 171.161 124.641 171.256 124.006 171.256ZM124.262 169.75C124.925 169.75 125.483 169.62 125.938 169.359C126.397 169.099 126.743 168.763 126.975 168.351C127.212 167.939 127.33 167.506 127.33 167.051V165.517C127.259 165.602 127.103 165.68 126.861 165.751C126.624 165.818 126.35 165.877 126.037 165.929C125.73 165.976 125.429 166.019 125.135 166.057C124.846 166.09 124.612 166.118 124.432 166.142C123.997 166.199 123.589 166.291 123.211 166.419C122.837 166.542 122.533 166.729 122.301 166.98C122.074 167.226 121.961 167.562 121.961 167.989C121.961 168.571 122.176 169.011 122.607 169.31C123.042 169.603 123.594 169.75 124.262 169.75ZM139.793 162.534L138.287 162.96C138.192 162.709 138.053 162.465 137.868 162.229C137.688 161.987 137.442 161.788 137.129 161.632C136.817 161.476 136.417 161.398 135.929 161.398C135.261 161.398 134.705 161.552 134.26 161.859C133.82 162.162 133.599 162.548 133.599 163.017C133.599 163.434 133.751 163.763 134.054 164.004C134.357 164.246 134.83 164.447 135.474 164.608L137.094 165.006C138.069 165.242 138.796 165.605 139.274 166.092C139.752 166.575 139.991 167.198 139.991 167.96C139.991 168.585 139.812 169.144 139.452 169.636C139.097 170.129 138.599 170.517 137.96 170.801C137.321 171.085 136.578 171.227 135.73 171.227C134.617 171.227 133.696 170.986 132.967 170.503C132.238 170.02 131.777 169.314 131.582 168.386L133.173 167.989C133.325 168.576 133.611 169.016 134.033 169.31C134.459 169.603 135.015 169.75 135.702 169.75C136.483 169.75 137.103 169.584 137.562 169.253C138.027 168.917 138.259 168.514 138.259 168.045C138.259 167.667 138.126 167.349 137.861 167.094C137.596 166.833 137.188 166.639 136.639 166.511L134.821 166.085C133.822 165.848 133.088 165.482 132.619 164.984C132.155 164.482 131.923 163.855 131.923 163.102C131.923 162.487 132.096 161.942 132.442 161.469C132.792 160.995 133.268 160.624 133.869 160.354C134.475 160.084 135.162 159.949 135.929 159.949C137.009 159.949 137.856 160.186 138.472 160.659C139.092 161.133 139.532 161.758 139.793 162.534Z" fill="#FFDD00"/>
</svg>
