<svg width="300" height="200" viewBox="0 0 300 200" fill="none" xmlns="http://www.w3.org/2000/svg">
<g clip-path="url(#clip0_1_36)">
<line y1="79.5" x2="300" y2="79.5" stroke="#4F4F4F"/>
<line y1="159.5" x2="300" y2="159.5" stroke="#4F4F4F"/>
<line y1="39.5" x2="300" y2="39.5" stroke="#4F4F4F"/>
<line y1="119.5" x2="300" y2="119.5" stroke="#4F4F4F"/>
<line y1="199.5" x2="300" y2="199.5" stroke="#4F4F4F"/>
<line y1="19.5" x2="300" y2="19.5" stroke="#4F4F4F"/>
<line y1="99.5" x2="300" y2="99.5" stroke="#4F4F4F"/>
<line y1="179.5" x2="300" y2="179.5" stroke="#4F4F4F"/>
<line y1="59.5" x2="300" y2="59.5" stroke="#4F4F4F"/>
<line y1="139.5" x2="300" y2="139.5" stroke="#4F4F4F"/>
<line x1="159.5" y1="200.01" x2="159.5" stroke="#4F4F4F"/>
<line x1="79.5" y1="200.01" x2="79.5" stroke="#4F4F4F"/>
<line x1="239.5" y1="200.01" x2="239.5" stroke="#4F4F4F"/>
<line x1="39.5" y1="200.01" x2="39.5" stroke="#4F4F4F"/>
<line x1="199.5" y1="200.01" x2="199.5" stroke="#4F4F4F"/>
<line x1="119.5" y1="200.01" x2="119.5" stroke="#4F4F4F"/>
<line x1="279.5" y1="200.01" x2="279.5" stroke="#4F4F4F"/>
<line x1="19.5" y1="200.01" x2="19.5" stroke="#4F4F4F"/>
<line x1="179.5" y1="200.01" x2="179.5" stroke="#4F4F4F"/>
<line x1="99.5" y1="200.01" x2="99.5" stroke="#4F4F4F"/>
<line x1="259.5" y1="200.01" x2="259.5" stroke="#4F4F4F"/>
<line x1="59.5" y1="200.01" x2="59.5" stroke="#4F4F4F"/>
<line x1="219.5" y1="200.01" x2="219.5" stroke="#4F4F4F"/>
<line x1="139.5" y1="200.01" x2="139.5" stroke="#4F4F4F"/>
<line x1="299.5" y1="200.01" x2="299.5" stroke="#4F4F4F"/>
<line x1="39.5" y1="178.5" x2="259.5" y2="178.5" stroke="white" stroke-width="3" stroke-linecap="round"/>
<path d="M40 178L180 20" stroke="white" stroke-width="3" stroke-linecap="round"/>
<path d="M260 178L180 20" stroke="white" stroke-width="3" stroke-linecap="round"/>
<path d="M192.537 29H189.767L197.778 7.18182H200.506L208.517 29H205.747L199.227 10.6335H199.057L192.537 29ZM193.56 20.4773H204.724V22.821H193.56V20.4773Z" fill="white"/>
<path d="M289.199 171H286.557C286.401 170.24 286.127 169.572 285.737 168.997C285.353 168.422 284.884 167.939 284.33 167.548C283.783 167.151 283.176 166.852 282.509 166.653C281.841 166.455 281.145 166.355 280.42 166.355C279.099 166.355 277.903 166.689 276.83 167.357C275.765 168.024 274.916 169.008 274.284 170.308C273.659 171.607 273.347 173.202 273.347 175.091C273.347 176.98 273.659 178.575 274.284 179.874C274.916 181.174 275.765 182.158 276.83 182.825C277.903 183.493 279.099 183.827 280.42 183.827C281.145 183.827 281.841 183.727 282.509 183.528C283.176 183.33 283.783 183.035 284.33 182.644C284.884 182.246 285.353 181.76 285.737 181.185C286.127 180.602 286.401 179.935 286.557 179.182H289.199C289 180.297 288.638 181.295 288.112 182.175C287.587 183.056 286.933 183.805 286.152 184.423C285.371 185.034 284.494 185.499 283.521 185.819C282.555 186.138 281.521 186.298 280.42 186.298C278.56 186.298 276.905 185.844 275.456 184.935C274.007 184.026 272.867 182.733 272.036 181.057C271.205 179.381 270.79 177.392 270.79 175.091C270.79 172.79 271.205 170.801 272.036 169.125C272.867 167.449 274.007 166.156 275.456 165.247C276.905 164.338 278.56 163.884 280.42 163.884C281.521 163.884 282.555 164.043 283.521 164.363C284.494 164.683 285.371 165.151 286.152 165.769C286.933 166.38 287.587 167.126 288.112 168.006C288.638 168.88 289 169.878 289.199 171Z" fill="white"/>
<path d="M12.642 189V167.182H20.2699C21.7898 167.182 23.0433 167.445 24.0305 167.97C25.0178 168.489 25.7528 169.188 26.2358 170.069C26.7188 170.942 26.9602 171.912 26.9602 172.977C26.9602 173.915 26.7933 174.689 26.4595 175.3C26.1328 175.911 25.6996 176.393 25.1598 176.749C24.6271 177.104 24.0483 177.366 23.4233 177.537V177.75C24.0909 177.793 24.7621 178.027 25.4368 178.453C26.1115 178.879 26.6761 179.49 27.1307 180.286C27.5852 181.081 27.8125 182.054 27.8125 183.205C27.8125 184.298 27.5639 185.282 27.0668 186.156C26.5696 187.029 25.7848 187.722 24.7124 188.233C23.6399 188.744 22.2443 189 20.5256 189H12.642ZM15.2841 186.656H20.5256C22.2514 186.656 23.4766 186.322 24.201 185.655C24.9325 184.98 25.2983 184.163 25.2983 183.205C25.2983 182.466 25.1101 181.784 24.7337 181.159C24.3572 180.527 23.821 180.023 23.125 179.646C22.429 179.263 21.6051 179.071 20.6534 179.071H15.2841V186.656ZM15.2841 176.77H20.1847C20.9801 176.77 21.6974 176.614 22.3366 176.301C22.983 175.989 23.4943 175.548 23.8707 174.98C24.2543 174.412 24.446 173.744 24.446 172.977C24.446 172.018 24.1122 171.205 23.4446 170.538C22.777 169.863 21.7188 169.526 20.2699 169.526H15.2841V176.77Z" fill="white"/>
</g>
<defs>
<clipPath id="clip0_1_36">
<rect width="300" height="200" fill="white"/>
</clipPath>
</defs>
</svg>
