<svg width="302" height="202" viewBox="0 0 302 202" fill="none" xmlns="http://www.w3.org/2000/svg">
<line x1="0.5" y1="201.01" x2="0.5" y2="1.00002" stroke="#4F4F4F"/>
<line x1="1" y1="0.5" x2="301" y2="0.5" stroke="#4F4F4F"/>
<line x1="1" y1="80.5" x2="301" y2="80.5" stroke="#4F4F4F"/>
<line x1="1" y1="160.5" x2="301" y2="160.5" stroke="#4F4F4F"/>
<line x1="1" y1="40.5" x2="301" y2="40.5" stroke="#4F4F4F"/>
<line x1="1" y1="120.5" x2="301" y2="120.5" stroke="#4F4F4F"/>
<line x1="1" y1="200.5" x2="301" y2="200.5" stroke="#4F4F4F"/>
<line x1="1" y1="20.5" x2="301" y2="20.5" stroke="#4F4F4F"/>
<line x1="1" y1="100.5" x2="301" y2="100.5" stroke="#4F4F4F"/>
<line x1="1" y1="180.5" x2="301" y2="180.5" stroke="#4F4F4F"/>
<line x1="1" y1="60.5" x2="301" y2="60.5" stroke="#4F4F4F"/>
<line x1="1" y1="140.5" x2="301" y2="140.5" stroke="#4F4F4F"/>
<line x1="160.5" y1="201.01" x2="160.5" y2="1.00002" stroke="#4F4F4F"/>
<line x1="80.5" y1="201.01" x2="80.5" y2="1.00002" stroke="#4F4F4F"/>
<line x1="240.5" y1="201.01" x2="240.5" y2="1.00002" stroke="#4F4F4F"/>
<line x1="40.5" y1="201.01" x2="40.5" y2="1.00002" stroke="#4F4F4F"/>
<line x1="200.5" y1="201.01" x2="200.5" y2="1.00002" stroke="#4F4F4F"/>
<line x1="120.5" y1="201.01" x2="120.5" y2="1.00002" stroke="#4F4F4F"/>
<line x1="280.5" y1="201.01" x2="280.5" y2="1.00002" stroke="#4F4F4F"/>
<line x1="20.5" y1="201.01" x2="20.5" y2="1.00002" stroke="#4F4F4F"/>
<line x1="180.5" y1="201.01" x2="180.5" y2="1.00002" stroke="#4F4F4F"/>
<line x1="100.5" y1="201.01" x2="100.5" y2="1.00002" stroke="#4F4F4F"/>
<line x1="260.5" y1="201.01" x2="260.5" y2="1.00002" stroke="#4F4F4F"/>
<line x1="60.5" y1="201.01" x2="60.5" y2="1.00002" stroke="#4F4F4F"/>
<line x1="220.5" y1="201.01" x2="220.5" y2="1.00002" stroke="#4F4F4F"/>
<line x1="140.5" y1="201.01" x2="140.5" y2="1.00002" stroke="#4F4F4F"/>
<line x1="300.5" y1="201.01" x2="300.5" y2="1.00002" stroke="#4F4F4F"/>
<line x1="40.5" y1="179.5" x2="260.5" y2="179.5" stroke="white" stroke-width="3" stroke-linecap="round"/>
<path d="M41 179L181 21" stroke="#FFDD00" stroke-width="3" stroke-linecap="round"/>
<path d="M261 179L181 21" stroke="white" stroke-width="3" stroke-linecap="round"/>
<path d="M193.537 30H190.767L198.778 8.18182H201.506L209.517 30H206.747L200.227 11.6335H200.057L193.537 30ZM194.56 21.4773H205.724V23.821H194.56V21.4773Z" fill="white"/>
<path d="M290.199 172H287.557C287.401 171.24 287.127 170.572 286.737 169.997C286.353 169.422 285.884 168.939 285.33 168.548C284.783 168.151 284.176 167.852 283.509 167.653C282.841 167.455 282.145 167.355 281.42 167.355C280.099 167.355 278.903 167.689 277.83 168.357C276.765 169.024 275.916 170.008 275.284 171.308C274.659 172.607 274.347 174.202 274.347 176.091C274.347 177.98 274.659 179.575 275.284 180.874C275.916 182.174 276.765 183.158 277.83 183.825C278.903 184.493 280.099 184.827 281.42 184.827C282.145 184.827 282.841 184.727 283.509 184.528C284.176 184.33 284.783 184.035 285.33 183.644C285.884 183.246 286.353 182.76 286.737 182.185C287.127 181.602 287.401 180.935 287.557 180.182H290.199C290 181.297 289.638 182.295 289.112 183.175C288.587 184.056 287.933 184.805 287.152 185.423C286.371 186.034 285.494 186.499 284.521 186.819C283.555 187.138 282.521 187.298 281.42 187.298C279.56 187.298 277.905 186.844 276.456 185.935C275.007 185.026 273.867 183.733 273.036 182.057C272.205 180.381 271.79 178.392 271.79 176.091C271.79 173.79 272.205 171.801 273.036 170.125C273.867 168.449 275.007 167.156 276.456 166.247C277.905 165.338 279.56 164.884 281.42 164.884C282.521 164.884 283.555 165.043 284.521 165.363C285.494 165.683 286.371 166.151 287.152 166.769C287.933 167.38 288.587 168.126 289.112 169.006C289.638 169.88 290 170.878 290.199 172Z" fill="white"/>
<path d="M13.642 190V168.182H21.2699C22.7898 168.182 24.0433 168.445 25.0305 168.97C26.0178 169.489 26.7528 170.188 27.2358 171.069C27.7188 171.942 27.9602 172.912 27.9602 173.977C27.9602 174.915 27.7933 175.689 27.4595 176.3C27.1328 176.911 26.6996 177.393 26.1598 177.749C25.6271 178.104 25.0483 178.366 24.4233 178.537V178.75C25.0909 178.793 25.7621 179.027 26.4368 179.453C27.1115 179.879 27.6761 180.49 28.1307 181.286C28.5852 182.081 28.8125 183.054 28.8125 184.205C28.8125 185.298 28.5639 186.282 28.0668 187.156C27.5696 188.029 26.7848 188.722 25.7124 189.233C24.6399 189.744 23.2443 190 21.5256 190H13.642ZM16.2841 187.656H21.5256C23.2514 187.656 24.4766 187.322 25.201 186.655C25.9325 185.98 26.2983 185.163 26.2983 184.205C26.2983 183.466 26.1101 182.784 25.7337 182.159C25.3572 181.527 24.821 181.023 24.125 180.646C23.429 180.263 22.6051 180.071 21.6534 180.071H16.2841V187.656ZM16.2841 177.77H21.1847C21.9801 177.77 22.6974 177.614 23.3366 177.301C23.983 176.989 24.4943 176.548 24.8707 175.98C25.2543 175.412 25.446 174.744 25.446 173.977C25.446 173.018 25.1122 172.205 24.4446 171.538C23.777 170.863 22.7188 170.526 21.2699 170.526H16.2841V177.77Z" fill="white"/>
<path d="M91.4301 106.498L90.1619 107.84L83.2571 93.9687L84.5057 92.6471L98.7465 98.7542L97.4783 100.096L85.5931 94.847L85.515 94.9296L91.4301 106.498ZM87.7683 102.1L92.88 96.69L94.0158 97.7631L88.9041 103.173L87.7683 102.1ZM90.7246 86.0649L101.297 96.0542L100.146 97.2726L89.5735 87.2833L90.7246 86.0649ZM105.796 91.6649C105.322 92.1673 104.796 92.5339 104.22 92.7647C103.64 92.9921 103.056 93.0556 102.467 92.9551C101.874 92.8513 101.32 92.5556 100.804 92.0678C100.349 91.6386 100.066 91.2012 99.9526 90.7555C99.836 90.3067 99.8383 89.8561 99.9595 89.4039C100.081 88.9516 100.272 88.5074 100.535 88.0712C100.797 87.6284 101.078 87.2001 101.377 86.7863C101.771 86.2459 102.093 85.8114 102.345 85.4827C102.597 85.1473 102.748 84.8734 102.799 84.6609C102.853 84.445 102.782 84.2444 102.586 84.0591L102.545 84.02C102.035 83.5388 101.508 83.3042 100.962 83.3164C100.42 83.3251 99.8838 83.6099 99.3538 84.1709C98.8042 84.7525 98.5007 85.3289 98.4432 85.8999C98.3857 86.4709 98.4381 86.9601 98.6004 87.3675L97.0948 88.1337C96.8081 87.4719 96.6931 86.8422 96.7498 86.2444C96.8064 85.6399 96.9748 85.0825 97.255 84.5721C97.5351 84.055 97.8637 83.5969 98.2409 83.1977C98.4816 82.943 98.7889 82.6797 99.163 82.4078C99.537 82.1293 99.9632 81.9229 100.442 81.7887C100.923 81.6511 101.449 81.6563 102.02 81.8042C102.59 81.9522 103.19 82.3237 103.82 82.9188L109.044 87.8549L107.893 89.0732L106.819 88.0587L106.761 88.1206C106.855 88.3658 106.909 88.6774 106.923 89.0555C106.937 89.4336 106.862 89.8477 106.697 90.2979C106.532 90.748 106.232 91.2037 105.796 91.6649ZM104.877 90.445C105.333 89.9631 105.622 89.4676 105.745 88.9583C105.871 88.4457 105.864 87.9635 105.724 87.512C105.587 87.057 105.353 86.6734 105.023 86.3613L103.908 85.3077C103.921 85.4179 103.87 85.5851 103.756 85.8094C103.642 86.027 103.496 86.2673 103.319 86.5302C103.142 86.7864 102.967 87.0342 102.793 87.2736C102.619 87.5063 102.478 87.6962 102.372 87.8433C102.114 88.1989 101.902 88.5583 101.734 88.9214C101.567 89.2779 101.495 89.6266 101.518 89.9676C101.541 90.3019 101.707 90.6153 102.017 90.908C102.44 91.3079 102.908 91.4538 103.421 91.3454C103.933 91.2304 104.419 90.9302 104.877 90.445ZM110.298 74.2002L109.574 75.5873C109.327 75.4838 109.053 75.4179 108.755 75.3895C108.455 75.3545 108.142 75.3969 107.814 75.5167C107.485 75.6366 107.154 75.8737 106.819 76.2282C106.36 76.7135 106.09 77.2236 106.008 77.7585C105.926 78.2866 106.055 78.7117 106.396 79.0336C106.699 79.3198 107.042 79.4356 107.426 79.3812C107.81 79.3268 108.281 79.1208 108.84 78.7633L110.241 77.8594C111.083 77.313 111.846 77.0334 112.529 77.0208C113.208 77.0048 113.825 77.2586 114.379 77.7821C114.833 78.2114 115.116 78.7259 115.227 79.3256C115.341 79.9219 115.282 80.5499 115.049 81.2097C114.817 81.8694 114.409 82.5073 113.827 83.1233C113.063 83.9321 112.255 84.4357 111.403 84.634C110.552 84.8324 109.722 84.6834 108.914 84.1872L109.717 82.7577C110.248 83.0507 110.765 83.1449 111.268 83.0402C111.774 82.9321 112.262 82.6285 112.734 82.1295C113.271 81.5616 113.576 80.9969 113.651 80.4354C113.725 79.8673 113.592 79.4223 113.251 79.1003C112.976 78.8402 112.654 78.7187 112.286 78.7358C111.915 78.7497 111.494 78.9124 111.024 79.2238L109.465 80.2528C108.607 80.8164 107.836 81.0978 107.153 81.0971C106.47 81.0897 105.854 80.8275 105.307 80.3105C104.86 79.8878 104.582 79.3882 104.476 78.8118C104.372 78.2319 104.429 77.6308 104.646 77.0083C104.866 76.3825 105.239 75.7907 105.766 75.2332C106.507 74.4485 107.261 73.995 108.028 73.8728C108.798 73.7471 109.555 73.8562 110.298 74.2002Z" fill="#FFDD00"/>
</svg>
