<svg width="260" height="420" viewBox="0 0 260 420" xmlns="http://www.w3.org/2000/svg">
  <ellipse cx="130" cy="390" rx="78" ry="16" fill="#000000" opacity="0.25"/>
  <circle cx="130" cy="78" r="52" fill="#ffd7b0" stroke="#3f2d20" stroke-width="6"/>
  <path d="M82 75c6-34 90-38 98 2-2-26-18-44-50-44-30 0-49 16-48 42z" fill="#3f2d20"/>
  <circle cx="111" cy="82" r="6" fill="#2a1d14"/>
  <circle cx="149" cy="82" r="6" fill="#2a1d14"/>
  <path d="M111 106c8 10 30 10 38 0" stroke="#b15f4c" stroke-width="5" fill="none" stroke-linecap="round"/>
  <rect x="72" y="134" width="116" height="148" rx="28" fill="#2ea9ff" stroke="#1e5a86" stroke-width="6"/>
  <rect x="90" y="156" width="80" height="74" rx="12" fill="#ffffff" opacity="0.85"/>
  <path d="M72 174c-24 10-34 36-28 58" stroke="#ffd7b0" stroke-width="16" stroke-linecap="round"/>
  <path d="M188 174c24 10 34 36 28 58" stroke="#ffd7b0" stroke-width="16" stroke-linecap="round"/>
  <rect x="86" y="282" width="32" height="88" rx="14" fill="#304b6e"/>
  <rect x="142" y="282" width="32" height="88" rx="14" fill="#304b6e"/>
  <rect x="74" y="362" width="52" height="22" rx="11" fill="#1e1e1e"/>
  <rect x="134" y="362" width="52" height="22" rx="11" fill="#1e1e1e"/>
</svg>
