<svg width="309" height="68" viewBox="0 0 309 68" fill="none" xmlns="http://www.w3.org/2000/svg">
<style>
.pulse-anim{
    animation: pulse 1.25s ease-in-out infinite;
}
@keyframes pulse {
  0%,
  100% {
    fill: #d27b00;
    scale: 1;
  }
  50% {
    fill: #282A36;
    scale: 1.02;
  }
}
</style>
<path d="M305.196 0H3.43073C0.0625153 0 0 0.0819998 0 4.5V60C0 64.418 2.73086 68 6.09907 68H301.904C305.272 68 308.003 64.418 308.003 60V6.5C308.003 2.082 308.564 0 305.196 0ZM14.4853 40C11.9588 40 9.91099 37.314 9.91099 34C9.91099 30.686 11.9588 28 14.4853 28C17.0118 28 19.0596 30.686 19.0596 34C19.0596 37.314 17.0118 40 14.4853 40Z" fill="url(#paint0_linear_59_2)"/>
<path d="M14.4869 41C17.0138 41 19.0618 38.314 19.0618 35C19.0618 34.832 19.0564 34.665 19.0457 34.5C18.8521 37.58 16.8849 40 14.4869 40C12.089 40 10.1218 37.58 9.92812 34.5C9.91745 34.665 9.91211 34.832 9.91211 35C9.91211 38.314 11.9601 41 14.4869 41Z" fill="url(#paint1_linear_59_2)"/>
<path d="M14.4869 27C17.0138 27 19.0618 29.686 19.0618 33C19.0618 33.168 19.0564 33.335 19.0457 33.5C18.8521 30.42 16.8849 28 14.4869 28C12.089 28 10.1218 30.42 9.92812 33.5C9.91745 33.335 9.91211 33.168 9.91211 33C9.91211 29.686 11.9601 27 14.4869 27Z" fill="url(#paint2_linear_59_2)"/>
<path d="M301.938 0H6.09976C2.73117 0 0 3.582 0 8V9C0 4.582 2.73117 1 6.09976 1H301.938C305.307 1 308.038 4.582 308.038 9V8C308.038 3.582 305.307 0 301.938 0Z" fill="url(#paint3_linear_59_2)"/>
<path d="M301.938 68H6.09976C2.73117 68 0 64.418 0 60V59C0 63.418 2.73117 67 6.09976 67H301.938C305.307 67 308.038 63.418 308.038 59V60C308.038 64.418 305.307 68 301.938 68Z" fill="url(#paint4_linear_59_2)"/>
<path d="M293.988 13.25C293.85 13.25 293.738 13.138 293.738 13V1C293.738 0.862 293.85 0.75 293.988 0.75C294.126 0.75 294.238 0.862 294.238 1V13C294.238 13.138 294.126 13.25 293.988 13.25Z" fill="#282A36"/>
<path d="M274.986 13.25C274.848 13.25 274.736 13.138 274.736 13V1C274.736 0.862 274.848 0.75 274.986 0.75C275.124 0.75 275.236 0.862 275.236 1V13C275.236 13.138 275.124 13.25 274.986 13.25Z" fill="#282A36"/>
<path d="M255.984 13.25C255.846 13.25 255.734 13.138 255.734 13V1C255.734 0.862 255.846 0.75 255.984 0.75C256.122 0.75 256.234 0.862 256.234 1V13C256.234 13.138 256.122 13.25 255.984 13.25Z" fill="#282A36"/>
<path d="M236.981 13.25C236.843 13.25 236.731 13.138 236.731 13V1C236.731 0.862 236.843 0.75 236.981 0.75C237.119 0.75 237.231 0.862 237.231 1V13C237.231 13.138 237.119 13.25 236.981 13.25Z" fill="#282A36"/>
<path d="M217.979 13.25C217.841 13.25 217.729 13.138 217.729 13V1C217.729 0.862 217.841 0.75 217.979 0.75C218.117 0.75 218.229 0.862 218.229 1V13C218.229 13.138 218.117 13.25 217.979 13.25Z" fill="#282A36"/>
<path d="M198.978 13.25C198.84 13.25 198.728 13.138 198.728 13V1C198.728 0.862 198.84 0.75 198.978 0.75C199.116 0.75 199.228 0.862 199.228 1V13C199.228 13.138 199.116 13.25 198.978 13.25Z" fill="#282A36"/>
<path d="M179.975 13.25C179.837 13.25 179.725 13.138 179.725 13V1C179.725 0.862 179.837 0.75 179.975 0.75C180.113 0.75 180.225 0.862 180.225 1V13C180.225 13.138 180.113 13.25 179.975 13.25Z" fill="#282A36"/>
<path d="M160.973 13.25C160.835 13.25 160.723 13.138 160.723 13V1C160.723 0.862 160.835 0.75 160.973 0.75C161.111 0.75 161.223 0.862 161.223 1V13C161.223 13.138 161.111 13.25 160.973 13.25Z" fill="#282A36"/>
<path d="M141.971 13.25C141.833 13.25 141.721 13.138 141.721 13V1C141.721 0.862 141.833 0.75 141.971 0.75C142.109 0.75 142.221 0.862 142.221 1V13C142.221 13.138 142.109 13.25 141.971 13.25Z" fill="#282A36"/>
<path d="M122.968 13.25C122.83 13.25 122.718 13.138 122.718 13V1C122.718 0.862 122.83 0.75 122.968 0.75C123.106 0.75 123.218 0.862 123.218 1V13C123.218 13.138 123.106 13.25 122.968 13.25Z" fill="#282A36"/>
<path d="M103.966 13.25C103.828 13.25 103.716 13.138 103.716 13V1C103.716 0.862 103.828 0.75 103.966 0.75C104.104 0.75 104.216 0.862 104.216 1V13C104.216 13.138 104.104 13.25 103.966 13.25Z" fill="#282A36"/>
<path d="M84.9635 13.25C84.8255 13.25 84.7135 13.138 84.7135 13V1C84.7135 0.862 84.8255 0.75 84.9635 0.75C85.1015 0.75 85.2135 0.862 85.2135 1V13C85.2135 13.138 85.1015 13.25 84.9635 13.25Z" fill="#282A36"/>
<path d="M65.9612 13.25C65.8232 13.25 65.7112 13.138 65.7112 13V1C65.7112 0.862 65.8232 0.75 65.9612 0.75C66.0992 0.75 66.2112 0.862 66.2112 1V13C66.2112 13.138 66.0992 13.25 65.9612 13.25Z" fill="#282A36"/>
<path d="M46.9588 13.25C46.8208 13.25 46.7088 13.138 46.7088 13V1C46.7088 0.862 46.8208 0.75 46.9588 0.75C47.0968 0.75 47.2088 0.862 47.2088 1V13C47.2088 13.138 47.0968 13.25 46.9588 13.25Z" fill="#282A36"/>
<path d="M27.9565 13.25C27.8185 13.25 27.7065 13.138 27.7065 13V1C27.7065 0.862 27.8185 0.75 27.9565 0.75C28.0945 0.75 28.2065 0.862 28.2065 1V13C28.2065 13.138 28.0945 13.25 27.9565 13.25Z" fill="#282A36"/>
<path d="M8.95294 13.25C8.81494 13.25 8.70294 13.138 8.70294 13V1C8.70294 0.862 8.81494 0.75 8.95294 0.75C9.09094 0.75 9.20294 0.862 9.20294 1V13C9.20294 13.138 9.09094 13.25 8.95294 13.25Z" fill="#282A36"/>
<path d="M10.8544 7.25C10.7164 7.25 10.6044 7.138 10.6044 7V1C10.6044 0.862 10.7164 0.75 10.8544 0.75C10.9924 0.75 11.1044 0.862 11.1044 1V7C11.1044 7.138 10.9924 7.25 10.8544 7.25Z" fill="#282A36"/>
<path d="M12.7534 7.25C12.6154 7.25 12.5034 7.138 12.5034 7V1C12.5034 0.862 12.6154 0.75 12.7534 0.75C12.8914 0.75 13.0034 0.862 13.0034 1V7C13.0034 7.138 12.8924 7.25 12.7534 7.25Z" fill="#282A36"/>
<path d="M14.6539 7.25C14.5159 7.25 14.4039 7.138 14.4039 7V1C14.4039 0.862 14.5159 0.75 14.6539 0.75C14.7919 0.75 14.9039 0.862 14.9039 1V7C14.9039 7.138 14.7929 7.25 14.6539 7.25Z" fill="#282A36"/>
<path d="M16.5541 7.25C16.4161 7.25 16.3041 7.138 16.3041 7V1C16.3041 0.862 16.4161 0.75 16.5541 0.75C16.6921 0.75 16.8041 0.862 16.8041 1V7C16.8041 7.138 16.6921 7.25 16.5541 7.25Z" fill="#282A36"/>
<path d="M18.4553 13.25C18.3173 13.25 18.2053 13.138 18.2053 13V1C18.2053 0.862 18.3173 0.75 18.4553 0.75C18.5933 0.75 18.7053 0.862 18.7053 1V13C18.7053 13.138 18.5933 13.25 18.4553 13.25Z" fill="#282A36"/>
<path d="M20.3555 7.25C20.2175 7.25 20.1055 7.138 20.1055 7V1C20.1055 0.862 20.2175 0.75 20.3555 0.75C20.4935 0.75 20.6055 0.862 20.6055 1V7C20.6055 7.138 20.4935 7.25 20.3555 7.25Z" fill="#282A36"/>
<path d="M22.2548 7.25C22.1168 7.25 22.0048 7.138 22.0048 7V1C22.0048 0.862 22.1168 0.75 22.2548 0.75C22.3928 0.75 22.5048 0.862 22.5048 1V7C22.5048 7.138 22.3938 7.25 22.2548 7.25Z" fill="#282A36"/>
<path d="M24.155 7.25C24.017 7.25 23.905 7.138 23.905 7V1C23.905 0.862 24.017 0.75 24.155 0.75C24.293 0.75 24.405 0.862 24.405 1V7C24.405 7.138 24.294 7.25 24.155 7.25Z" fill="#282A36"/>
<path d="M26.0552 7.25C25.9172 7.25 25.8052 7.138 25.8052 7V1C25.8052 0.862 25.9172 0.75 26.0552 0.75C26.1932 0.75 26.3052 0.862 26.3052 1V7C26.3052 7.138 26.1932 7.25 26.0552 7.25Z" fill="#282A36"/>
<path d="M29.8568 7.25C29.7188 7.25 29.6068 7.138 29.6068 7V1C29.6068 0.862 29.7188 0.75 29.8568 0.75C29.9948 0.75 30.1068 0.862 30.1068 1V7C30.1068 7.138 29.9948 7.25 29.8568 7.25Z" fill="#282A36"/>
<path d="M31.7557 7.25C31.6177 7.25 31.5057 7.138 31.5057 7V1C31.5057 0.862 31.6177 0.75 31.7557 0.75C31.8937 0.75 32.0057 0.862 32.0057 1V7C32.0057 7.138 31.8947 7.25 31.7557 7.25Z" fill="#282A36"/>
<path d="M33.6562 7.25C33.5183 7.25 33.4062 7.138 33.4062 7V1C33.4062 0.862 33.5183 0.75 33.6562 0.75C33.7942 0.75 33.9062 0.862 33.9062 1V7C33.9062 7.138 33.7952 7.25 33.6562 7.25Z" fill="#282A36"/>
<path d="M35.5565 7.25C35.4185 7.25 35.3065 7.138 35.3065 7V1C35.3065 0.862 35.4185 0.75 35.5565 0.75C35.6945 0.75 35.8065 0.862 35.8065 1V7C35.8065 7.138 35.6945 7.25 35.5565 7.25Z" fill="#282A36"/>
<path d="M37.4577 13.25C37.3197 13.25 37.2077 13.138 37.2077 13V1C37.2077 0.862 37.3197 0.75 37.4577 0.75C37.5957 0.75 37.7077 0.862 37.7077 1V13C37.7077 13.138 37.5957 13.25 37.4577 13.25Z" fill="#282A36"/>
<path d="M39.3579 7.25C39.2199 7.25 39.1079 7.138 39.1079 7V1C39.1079 0.862 39.2199 0.75 39.3579 0.75C39.4959 0.75 39.6079 0.862 39.6079 1V7C39.6079 7.138 39.4959 7.25 39.3579 7.25Z" fill="#282A36"/>
<path d="M41.2571 7.25C41.1191 7.25 41.0071 7.138 41.0071 7V1C41.0071 0.862 41.1191 0.75 41.2571 0.75C41.3951 0.75 41.5071 0.862 41.5071 1V7C41.5071 7.138 41.3961 7.25 41.2571 7.25Z" fill="#282A36"/>
<path d="M43.1574 7.25C43.0194 7.25 42.9074 7.138 42.9074 7V1C42.9074 0.862 43.0194 0.75 43.1574 0.75C43.2954 0.75 43.4074 0.862 43.4074 1V7C43.4074 7.138 43.2954 7.25 43.1574 7.25Z" fill="#282A36"/>
<path d="M45.0576 7.25C44.9196 7.25 44.8076 7.138 44.8076 7V1C44.8076 0.862 44.9196 0.75 45.0576 0.75C45.1956 0.75 45.3076 0.862 45.3076 1V7C45.3076 7.138 45.1956 7.25 45.0576 7.25Z" fill="#282A36"/>
<path d="M48.8591 7.25C48.7211 7.25 48.6091 7.138 48.6091 7V1C48.6091 0.862 48.7211 0.75 48.8591 0.75C48.9971 0.75 49.1091 0.862 49.1091 1V7C49.1091 7.138 48.9971 7.25 48.8591 7.25Z" fill="#282A36"/>
<path d="M50.7581 7.25C50.6201 7.25 50.5081 7.138 50.5081 7V1C50.5081 0.862 50.6201 0.75 50.7581 0.75C50.8961 0.75 51.0081 0.862 51.0081 1V7C51.0081 7.138 50.8971 7.25 50.7581 7.25Z" fill="#282A36"/>
<path d="M52.6586 7.25C52.5206 7.25 52.4086 7.138 52.4086 7V1C52.4086 0.862 52.5206 0.75 52.6586 0.75C52.7966 0.75 52.9086 0.862 52.9086 1V7C52.9086 7.138 52.7966 7.25 52.6586 7.25Z" fill="#282A36"/>
<path d="M54.5588 7.25C54.4208 7.25 54.3088 7.138 54.3088 7V1C54.3088 0.862 54.4208 0.75 54.5588 0.75C54.6968 0.75 54.8088 0.862 54.8088 1V7C54.8088 7.138 54.6968 7.25 54.5588 7.25Z" fill="#282A36"/>
<path d="M56.46 13.25C56.322 13.25 56.21 13.138 56.21 13V1C56.21 0.862 56.322 0.75 56.46 0.75C56.598 0.75 56.71 0.862 56.71 1V13C56.71 13.138 56.598 13.25 56.46 13.25Z" fill="#282A36"/>
<path d="M58.3602 7.25C58.2222 7.25 58.1102 7.138 58.1102 7V1C58.1102 0.862 58.2222 0.75 58.3602 0.75C58.4982 0.75 58.6102 0.862 58.6102 1V7C58.6102 7.138 58.4982 7.25 58.3602 7.25Z" fill="#282A36"/>
<path d="M60.2595 7.25C60.1215 7.25 60.0095 7.138 60.0095 7V1C60.0095 0.862 60.1215 0.75 60.2595 0.75C60.3975 0.75 60.5095 0.862 60.5095 1V7C60.5095 7.138 60.3985 7.25 60.2595 7.25Z" fill="#282A36"/>
<path d="M62.1597 7.25C62.0217 7.25 61.9097 7.138 61.9097 7V1C61.9097 0.862 62.0217 0.75 62.1597 0.75C62.2977 0.75 62.4097 0.862 62.4097 1V7C62.4097 7.138 62.2977 7.25 62.1597 7.25Z" fill="#282A36"/>
<path d="M64.0599 7.25C63.9219 7.25 63.8099 7.138 63.8099 7V1C63.8099 0.862 63.9219 0.75 64.0599 0.75C64.1979 0.75 64.3099 0.862 64.3099 1V7C64.3099 7.138 64.1979 7.25 64.0599 7.25Z" fill="#282A36"/>
<path d="M67.8615 7.25C67.7235 7.25 67.6115 7.138 67.6115 7V1C67.6115 0.862 67.7235 0.75 67.8615 0.75C67.9995 0.75 68.1115 0.862 68.1115 1V7C68.1115 7.138 67.9995 7.25 67.8615 7.25Z" fill="#282A36"/>
<path d="M69.7604 7.25C69.6224 7.25 69.5104 7.138 69.5104 7V1C69.5104 0.862 69.6224 0.75 69.7604 0.75C69.8984 0.75 70.0104 0.862 70.0104 1V7C70.0104 7.138 69.8994 7.25 69.7604 7.25Z" fill="#282A36"/>
<path d="M71.6609 7.25C71.5229 7.25 71.4109 7.138 71.4109 7V1C71.4109 0.862 71.5229 0.75 71.6609 0.75C71.7989 0.75 71.9109 0.862 71.9109 1V7C71.9109 7.138 71.7989 7.25 71.6609 7.25Z" fill="#282A36"/>
<path d="M73.5612 7.25C73.4232 7.25 73.3112 7.138 73.3112 7V1C73.3112 0.862 73.4232 0.75 73.5612 0.75C73.6992 0.75 73.8112 0.862 73.8112 1V7C73.8112 7.138 73.6992 7.25 73.5612 7.25Z" fill="#282A36"/>
<path d="M75.4624 13.25C75.3244 13.25 75.2124 13.138 75.2124 13V1C75.2124 0.862 75.3244 0.75 75.4624 0.75C75.6004 0.75 75.7124 0.862 75.7124 1V13C75.7124 13.138 75.6004 13.25 75.4624 13.25Z" fill="#282A36"/>
<path d="M77.3626 7.25C77.2246 7.25 77.1126 7.138 77.1126 7V1C77.1126 0.862 77.2246 0.75 77.3626 0.75C77.5006 0.75 77.6126 0.862 77.6126 1V7C77.6126 7.138 77.5006 7.25 77.3626 7.25Z" fill="#282A36"/>
<path d="M79.2618 7.25C79.1238 7.25 79.0118 7.138 79.0118 7V1C79.0118 0.862 79.1238 0.75 79.2618 0.75C79.3998 0.75 79.5118 0.862 79.5118 1V7C79.5118 7.138 79.4008 7.25 79.2618 7.25Z" fill="#282A36"/>
<path d="M81.1621 7.25C81.0241 7.25 80.9121 7.138 80.9121 7V1C80.9121 0.862 81.0241 0.75 81.1621 0.75C81.3001 0.75 81.4121 0.862 81.4121 1V7C81.4121 7.138 81.3001 7.25 81.1621 7.25Z" fill="#282A36"/>
<path d="M83.0623 7.25C82.9243 7.25 82.8123 7.138 82.8123 7V1C82.8123 0.862 82.9243 0.75 83.0623 0.75C83.2003 0.75 83.3123 0.862 83.3123 1V7C83.3123 7.138 83.2003 7.25 83.0623 7.25Z" fill="#282A36"/>
<path d="M86.8638 7.25C86.7258 7.25 86.6138 7.138 86.6138 7V1C86.6138 0.862 86.7258 0.75 86.8638 0.75C87.0018 0.75 87.1138 0.862 87.1138 1V7C87.1138 7.138 87.0018 7.25 86.8638 7.25Z" fill="#282A36"/>
<path d="M88.7628 7.25C88.6248 7.25 88.5128 7.138 88.5128 7V1C88.5128 0.862 88.6248 0.75 88.7628 0.75C88.9008 0.75 89.0128 0.862 89.0128 1V7C89.0128 7.138 88.9018 7.25 88.7628 7.25Z" fill="#282A36"/>
<path d="M90.6633 7.25C90.5253 7.25 90.4133 7.138 90.4133 7V1C90.4133 0.862 90.5253 0.75 90.6633 0.75C90.8013 0.75 90.9133 0.862 90.9133 1V7C90.9133 7.138 90.8013 7.25 90.6633 7.25Z" fill="#282A36"/>
<path d="M92.5635 7.25C92.4255 7.25 92.3135 7.138 92.3135 7V1C92.3135 0.862 92.4255 0.75 92.5635 0.75C92.7015 0.75 92.8135 0.862 92.8135 1V7C92.8135 7.138 92.7015 7.25 92.5635 7.25Z" fill="#282A36"/>
<path d="M94.4647 13.25C94.3267 13.25 94.2147 13.138 94.2147 13V1C94.2147 0.862 94.3267 0.75 94.4647 0.75C94.6027 0.75 94.7147 0.862 94.7147 1V13C94.7147 13.138 94.6027 13.25 94.4647 13.25Z" fill="#282A36"/>
<path d="M96.364 7.25C96.226 7.25 96.114 7.138 96.114 7V1C96.114 0.862 96.226 0.75 96.364 0.75C96.502 0.75 96.614 0.862 96.614 1V7C96.614 7.138 96.503 7.25 96.364 7.25Z" fill="#282A36"/>
<path d="M98.2642 7.25C98.1262 7.25 98.0142 7.138 98.0142 7V1C98.0142 0.862 98.1262 0.75 98.2642 0.75C98.4022 0.75 98.5142 0.862 98.5142 1V7C98.5142 7.138 98.4032 7.25 98.2642 7.25Z" fill="#282A36"/>
<path d="M100.164 7.25C100.026 7.25 99.9144 7.138 99.9144 7V1C99.9144 0.862 100.026 0.75 100.164 0.75C100.302 0.75 100.414 0.862 100.414 1V7C100.414 7.138 100.302 7.25 100.164 7.25Z" fill="#282A36"/>
<path d="M102.065 7.25C101.927 7.25 101.815 7.138 101.815 7V1C101.815 0.862 101.927 0.75 102.065 0.75C102.203 0.75 102.315 0.862 102.315 1V7C102.315 7.138 102.203 7.25 102.065 7.25Z" fill="#282A36"/>
<path d="M105.865 7.25C105.727 7.25 105.615 7.138 105.615 7V1C105.615 0.862 105.727 0.75 105.865 0.75C106.003 0.75 106.115 0.862 106.115 1V7C106.115 7.138 106.004 7.25 105.865 7.25Z" fill="#282A36"/>
<path d="M107.765 7.25C107.627 7.25 107.515 7.138 107.515 7V1C107.515 0.862 107.627 0.75 107.765 0.75C107.903 0.75 108.015 0.862 108.015 1V7C108.015 7.138 107.904 7.25 107.765 7.25Z" fill="#282A36"/>
<path d="M109.666 7.25C109.528 7.25 109.416 7.138 109.416 7V1C109.416 0.862 109.528 0.75 109.666 0.75C109.804 0.75 109.916 0.862 109.916 1V7C109.916 7.138 109.804 7.25 109.666 7.25Z" fill="#282A36"/>
<path d="M111.566 7.25C111.428 7.25 111.316 7.138 111.316 7V1C111.316 0.862 111.428 0.75 111.566 0.75C111.704 0.75 111.816 0.862 111.816 1V7C111.816 7.138 111.704 7.25 111.566 7.25Z" fill="#282A36"/>
<path d="M113.467 13.25C113.329 13.25 113.217 13.138 113.217 13V1C113.217 0.862 113.329 0.75 113.467 0.75C113.605 0.75 113.717 0.862 113.717 1V13C113.717 13.138 113.605 13.25 113.467 13.25Z" fill="#282A36"/>
<path d="M115.366 7.25C115.228 7.25 115.116 7.138 115.116 7V1C115.116 0.862 115.228 0.75 115.366 0.75C115.504 0.75 115.616 0.862 115.616 1V7C115.616 7.138 115.505 7.25 115.366 7.25Z" fill="#282A36"/>
<path d="M117.267 7.25C117.129 7.25 117.017 7.138 117.017 7V1C117.017 0.862 117.129 0.75 117.267 0.75C117.405 0.75 117.517 0.862 117.517 1V7C117.517 7.138 117.406 7.25 117.267 7.25Z" fill="#282A36"/>
<path d="M119.167 7.25C119.029 7.25 118.917 7.138 118.917 7V1C118.917 0.862 119.029 0.75 119.167 0.75C119.305 0.75 119.417 0.862 119.417 1V7C119.417 7.138 119.305 7.25 119.167 7.25Z" fill="#282A36"/>
<path d="M121.067 7.25C120.929 7.25 120.817 7.138 120.817 7V1C120.817 0.862 120.929 0.75 121.067 0.75C121.205 0.75 121.317 0.862 121.317 1V7C121.317 7.138 121.205 7.25 121.067 7.25Z" fill="#282A36"/>
<path d="M124.867 7.25C124.729 7.25 124.617 7.138 124.617 7V1C124.617 0.862 124.729 0.75 124.867 0.75C125.005 0.75 125.117 0.862 125.117 1V7C125.117 7.138 125.006 7.25 124.867 7.25Z" fill="#282A36"/>
<path d="M126.767 7.25C126.629 7.25 126.517 7.138 126.517 7V1C126.517 0.862 126.629 0.75 126.767 0.75C126.905 0.75 127.017 0.862 127.017 1V7C127.017 7.138 126.906 7.25 126.767 7.25Z" fill="#282A36"/>
<path d="M128.668 7.25C128.53 7.25 128.418 7.138 128.418 7V1C128.418 0.862 128.53 0.75 128.668 0.75C128.806 0.75 128.918 0.862 128.918 1V7C128.918 7.138 128.806 7.25 128.668 7.25Z" fill="#282A36"/>
<path d="M130.568 7.25C130.43 7.25 130.318 7.138 130.318 7V1C130.318 0.862 130.43 0.75 130.568 0.75C130.706 0.75 130.818 0.862 130.818 1V7C130.818 7.138 130.706 7.25 130.568 7.25Z" fill="#282A36"/>
<path d="M132.469 13.25C132.331 13.25 132.219 13.138 132.219 13V1C132.219 0.862 132.331 0.75 132.469 0.75C132.607 0.75 132.719 0.862 132.719 1V13C132.719 13.138 132.607 13.25 132.469 13.25Z" fill="#282A36"/>
<path d="M134.369 7.25C134.231 7.25 134.119 7.138 134.119 7V1C134.119 0.862 134.231 0.75 134.369 0.75C134.507 0.75 134.619 0.862 134.619 1V7C134.619 7.138 134.508 7.25 134.369 7.25Z" fill="#282A36"/>
<path d="M136.269 7.25C136.131 7.25 136.019 7.138 136.019 7V1C136.019 0.862 136.131 0.75 136.269 0.75C136.407 0.75 136.519 0.862 136.519 1V7C136.519 7.138 136.408 7.25 136.269 7.25Z" fill="#282A36"/>
<path d="M138.169 7.25C138.031 7.25 137.919 7.138 137.919 7V1C137.919 0.862 138.031 0.75 138.169 0.75C138.307 0.75 138.419 0.862 138.419 1V7C138.419 7.138 138.307 7.25 138.169 7.25Z" fill="#282A36"/>
<path d="M140.069 7.25C139.931 7.25 139.819 7.138 139.819 7V1C139.819 0.862 139.931 0.75 140.069 0.75C140.207 0.75 140.319 0.862 140.319 1V7C140.319 7.138 140.207 7.25 140.069 7.25Z" fill="#282A36"/>
<path d="M143.87 7.25C143.732 7.25 143.62 7.138 143.62 7V1C143.62 0.862 143.732 0.75 143.87 0.75C144.008 0.75 144.12 0.862 144.12 1V7C144.12 7.138 144.009 7.25 143.87 7.25Z" fill="#282A36"/>
<path d="M145.77 7.25C145.632 7.25 145.52 7.138 145.52 7V1C145.52 0.862 145.632 0.75 145.77 0.75C145.908 0.75 146.02 0.862 146.02 1V7C146.02 7.138 145.909 7.25 145.77 7.25Z" fill="#282A36"/>
<path d="M147.67 7.25C147.532 7.25 147.42 7.138 147.42 7V1C147.42 0.862 147.532 0.75 147.67 0.75C147.808 0.75 147.92 0.862 147.92 1V7C147.92 7.138 147.808 7.25 147.67 7.25Z" fill="#282A36"/>
<path d="M149.57 7.25C149.432 7.25 149.32 7.138 149.32 7V1C149.32 0.862 149.432 0.75 149.57 0.75C149.708 0.75 149.82 0.862 149.82 1V7C149.82 7.138 149.708 7.25 149.57 7.25Z" fill="#282A36"/>
<path d="M151.472 13.25C151.334 13.25 151.222 13.138 151.222 13V1C151.222 0.862 151.334 0.75 151.472 0.75C151.61 0.75 151.722 0.862 151.722 1V13C151.722 13.138 151.61 13.25 151.472 13.25Z" fill="#282A36"/>
<path d="M153.371 7.25C153.233 7.25 153.121 7.138 153.121 7V1C153.121 0.862 153.233 0.75 153.371 0.75C153.509 0.75 153.621 0.862 153.621 1V7C153.621 7.138 153.51 7.25 153.371 7.25Z" fill="#282A36"/>
<path d="M155.271 7.25C155.133 7.25 155.021 7.138 155.021 7V1C155.021 0.862 155.133 0.75 155.271 0.75C155.409 0.75 155.521 0.862 155.521 1V7C155.521 7.138 155.41 7.25 155.271 7.25Z" fill="#282A36"/>
<path d="M157.171 7.25C157.033 7.25 156.921 7.138 156.921 7V1C156.921 0.862 157.033 0.75 157.171 0.75C157.309 0.75 157.421 0.862 157.421 1V7C157.421 7.138 157.309 7.25 157.171 7.25Z" fill="#282A36"/>
<path d="M159.072 7.25C158.934 7.25 158.822 7.138 158.822 7V1C158.822 0.862 158.934 0.75 159.072 0.75C159.21 0.75 159.322 0.862 159.322 1V7C159.322 7.138 159.21 7.25 159.072 7.25Z" fill="#282A36"/>
<path d="M162.872 7.25C162.734 7.25 162.622 7.138 162.622 7V1C162.622 0.862 162.734 0.75 162.872 0.75C163.01 0.75 163.122 0.862 163.122 1V7C163.122 7.138 163.011 7.25 162.872 7.25Z" fill="#282A36"/>
<path d="M164.772 7.25C164.634 7.25 164.522 7.138 164.522 7V1C164.522 0.862 164.634 0.75 164.772 0.75C164.91 0.75 165.022 0.862 165.022 1V7C165.022 7.138 164.911 7.25 164.772 7.25Z" fill="#282A36"/>
<path d="M166.673 7.25C166.535 7.25 166.423 7.138 166.423 7V1C166.423 0.862 166.535 0.75 166.673 0.75C166.811 0.75 166.923 0.862 166.923 1V7C166.923 7.138 166.811 7.25 166.673 7.25Z" fill="#282A36"/>
<path d="M168.573 7.25C168.435 7.25 168.323 7.138 168.323 7V1C168.323 0.862 168.435 0.75 168.573 0.75C168.711 0.75 168.823 0.862 168.823 1V7C168.823 7.138 168.711 7.25 168.573 7.25Z" fill="#282A36"/>
<path d="M170.474 13.25C170.336 13.25 170.224 13.138 170.224 13V1C170.224 0.862 170.336 0.75 170.474 0.75C170.612 0.75 170.724 0.862 170.724 1V13C170.724 13.138 170.612 13.25 170.474 13.25Z" fill="#282A36"/>
<path d="M172.373 7.25C172.235 7.25 172.123 7.138 172.123 7V1C172.123 0.862 172.235 0.75 172.373 0.75C172.511 0.75 172.623 0.862 172.623 1V7C172.623 7.138 172.512 7.25 172.373 7.25Z" fill="#282A36"/>
<path d="M174.274 7.25C174.136 7.25 174.024 7.138 174.024 7V1C174.024 0.862 174.136 0.75 174.274 0.75C174.412 0.75 174.524 0.862 174.524 1V7C174.524 7.138 174.413 7.25 174.274 7.25Z" fill="#282A36"/>
<path d="M176.174 7.25C176.036 7.25 175.924 7.138 175.924 7V1C175.924 0.862 176.036 0.75 176.174 0.75C176.312 0.75 176.424 0.862 176.424 1V7C176.424 7.138 176.312 7.25 176.174 7.25Z" fill="#282A36"/>
<path d="M178.074 7.25C177.936 7.25 177.824 7.138 177.824 7V1C177.824 0.862 177.936 0.75 178.074 0.75C178.212 0.75 178.324 0.862 178.324 1V7C178.324 7.138 178.212 7.25 178.074 7.25Z" fill="#282A36"/>
<path d="M181.875 7.25C181.737 7.25 181.625 7.138 181.625 7V1C181.625 0.862 181.737 0.75 181.875 0.75C182.013 0.75 182.125 0.862 182.125 1V7C182.125 7.138 182.014 7.25 181.875 7.25Z" fill="#282A36"/>
<path d="M183.775 7.25C183.637 7.25 183.525 7.138 183.525 7V1C183.525 0.862 183.637 0.75 183.775 0.75C183.913 0.75 184.025 0.862 184.025 1V7C184.025 7.138 183.914 7.25 183.775 7.25Z" fill="#282A36"/>
<path d="M185.675 7.25C185.537 7.25 185.425 7.138 185.425 7V1C185.425 0.862 185.537 0.75 185.675 0.75C185.813 0.75 185.925 0.862 185.925 1V7C185.925 7.138 185.813 7.25 185.675 7.25Z" fill="#282A36"/>
<path d="M187.575 7.25C187.437 7.25 187.325 7.138 187.325 7V1C187.325 0.862 187.437 0.75 187.575 0.75C187.713 0.75 187.825 0.862 187.825 1V7C187.825 7.138 187.713 7.25 187.575 7.25Z" fill="#282A36"/>
<path d="M189.476 13.25C189.338 13.25 189.226 13.138 189.226 13V1C189.226 0.862 189.338 0.75 189.476 0.75C189.614 0.75 189.726 0.862 189.726 1V13C189.726 13.138 189.614 13.25 189.476 13.25Z" fill="#282A36"/>
<path d="M191.376 7.25C191.238 7.25 191.126 7.138 191.126 7V1C191.126 0.862 191.238 0.75 191.376 0.75C191.514 0.75 191.626 0.862 191.626 1V7C191.626 7.138 191.515 7.25 191.376 7.25Z" fill="#282A36"/>
<path d="M193.276 7.25C193.138 7.25 193.026 7.138 193.026 7V1C193.026 0.862 193.138 0.75 193.276 0.75C193.414 0.75 193.526 0.862 193.526 1V7C193.526 7.138 193.415 7.25 193.276 7.25Z" fill="#282A36"/>
<path d="M195.176 7.25C195.038 7.25 194.926 7.138 194.926 7V1C194.926 0.862 195.038 0.75 195.176 0.75C195.314 0.75 195.426 0.862 195.426 1V7C195.426 7.138 195.314 7.25 195.176 7.25Z" fill="#282A36"/>
<path d="M197.076 7.25C196.938 7.25 196.826 7.138 196.826 7V1C196.826 0.862 196.938 0.75 197.076 0.75C197.214 0.75 197.326 0.862 197.326 1V7C197.326 7.138 197.214 7.25 197.076 7.25Z" fill="#282A36"/>
<path d="M200.877 7.25C200.739 7.25 200.627 7.138 200.627 7V1C200.627 0.862 200.739 0.75 200.877 0.75C201.015 0.75 201.127 0.862 201.127 1V7C201.127 7.138 201.016 7.25 200.877 7.25Z" fill="#282A36"/>
<path d="M202.777 7.25C202.639 7.25 202.527 7.138 202.527 7V1C202.527 0.862 202.639 0.75 202.777 0.75C202.915 0.75 203.027 0.862 203.027 1V7C203.027 7.138 202.916 7.25 202.777 7.25Z" fill="#282A36"/>
<path d="M204.677 7.25C204.539 7.25 204.427 7.138 204.427 7V1C204.427 0.862 204.539 0.75 204.677 0.75C204.815 0.75 204.927 0.862 204.927 1V7C204.927 7.138 204.815 7.25 204.677 7.25Z" fill="#282A36"/>
<path d="M206.579 7.25C206.441 7.25 206.329 7.138 206.329 7V1C206.329 0.862 206.441 0.75 206.579 0.75C206.717 0.75 206.829 0.862 206.829 1V7C206.829 7.138 206.716 7.25 206.579 7.25Z" fill="#282A36"/>
<path d="M208.478 13.25C208.34 13.25 208.228 13.138 208.228 13V1C208.228 0.862 208.34 0.75 208.478 0.75C208.616 0.75 208.728 0.862 208.728 1V13C208.728 13.138 208.616 13.25 208.478 13.25Z" fill="#282A36"/>
<path d="M210.378 7.25C210.24 7.25 210.128 7.138 210.128 7V1C210.128 0.862 210.24 0.75 210.378 0.75C210.516 0.75 210.628 0.862 210.628 1V7C210.628 7.138 210.516 7.25 210.378 7.25Z" fill="#282A36"/>
<path d="M212.278 7.25C212.14 7.25 212.028 7.138 212.028 7V1C212.028 0.862 212.14 0.75 212.278 0.75C212.416 0.75 212.528 0.862 212.528 1V7C212.528 7.138 212.416 7.25 212.278 7.25Z" fill="#282A36"/>
<path d="M214.179 7.25C214.041 7.25 213.929 7.138 213.929 7V1C213.929 0.862 214.041 0.75 214.179 0.75C214.317 0.75 214.429 0.862 214.429 1V7C214.429 7.138 214.317 7.25 214.179 7.25Z" fill="#282A36"/>
<path d="M216.08 7.25C215.942 7.25 215.83 7.138 215.83 7V1C215.83 0.862 215.942 0.75 216.08 0.75C216.218 0.75 216.33 0.862 216.33 1V7C216.33 7.138 216.217 7.25 216.08 7.25Z" fill="#282A36"/>
<path d="M219.879 7.25C219.741 7.25 219.629 7.138 219.629 7V1C219.629 0.862 219.741 0.75 219.879 0.75C220.017 0.75 220.129 0.862 220.129 1V7C220.129 7.138 220.017 7.25 219.879 7.25Z" fill="#282A36"/>
<path d="M221.779 7.25C221.641 7.25 221.529 7.138 221.529 7V1C221.529 0.862 221.641 0.75 221.779 0.75C221.917 0.75 222.029 0.862 222.029 1V7C222.029 7.138 221.917 7.25 221.779 7.25Z" fill="#282A36"/>
<path d="M223.68 7.25C223.542 7.25 223.43 7.138 223.43 7V1C223.43 0.862 223.542 0.75 223.68 0.75C223.818 0.75 223.93 0.862 223.93 1V7C223.93 7.138 223.818 7.25 223.68 7.25Z" fill="#282A36"/>
<path d="M225.581 7.25C225.443 7.25 225.331 7.138 225.331 7V1C225.331 0.862 225.443 0.75 225.581 0.75C225.719 0.75 225.831 0.862 225.831 1V7C225.831 7.138 225.718 7.25 225.581 7.25Z" fill="#282A36"/>
<path d="M227.48 13.25C227.342 13.25 227.23 13.138 227.23 13V1C227.23 0.862 227.342 0.75 227.48 0.75C227.618 0.75 227.73 0.862 227.73 1V13C227.73 13.138 227.618 13.25 227.48 13.25Z" fill="#282A36"/>
<path d="M229.38 7.25C229.242 7.25 229.13 7.138 229.13 7V1C229.13 0.862 229.242 0.75 229.38 0.75C229.518 0.75 229.63 0.862 229.63 1V7C229.63 7.138 229.518 7.25 229.38 7.25Z" fill="#282A36"/>
<path d="M231.281 7.25C231.143 7.25 231.031 7.138 231.031 7V1C231.031 0.862 231.143 0.75 231.281 0.75C231.419 0.75 231.531 0.862 231.531 1V7C231.531 7.138 231.419 7.25 231.281 7.25Z" fill="#282A36"/>
<path d="M233.181 7.25C233.043 7.25 232.931 7.138 232.931 7V1C232.931 0.862 233.043 0.75 233.181 0.75C233.319 0.75 233.431 0.862 233.431 1V7C233.431 7.138 233.319 7.25 233.181 7.25Z" fill="#282A36"/>
<path d="M235.082 7.25C234.944 7.25 234.832 7.138 234.832 7V1C234.832 0.862 234.944 0.75 235.082 0.75C235.22 0.75 235.332 0.862 235.332 1V7C235.332 7.138 235.219 7.25 235.082 7.25Z" fill="#282A36"/>
<path d="M238.883 7.25C238.745 7.25 238.633 7.138 238.633 7V1C238.633 0.862 238.745 0.75 238.883 0.75C239.021 0.75 239.133 0.862 239.133 1V7C239.133 7.138 239.02 7.25 238.883 7.25Z" fill="#282A36"/>
<path d="M240.782 7.25C240.644 7.25 240.532 7.138 240.532 7V1C240.532 0.862 240.644 0.75 240.782 0.75C240.92 0.75 241.032 0.862 241.032 1V7C241.032 7.138 240.92 7.25 240.782 7.25Z" fill="#282A36"/>
<path d="M242.682 7.25C242.544 7.25 242.432 7.138 242.432 7V1C242.432 0.862 242.544 0.75 242.682 0.75C242.82 0.75 242.932 0.862 242.932 1V7C242.932 7.138 242.82 7.25 242.682 7.25Z" fill="#282A36"/>
<path d="M244.583 7.25C244.445 7.25 244.333 7.138 244.333 7V1C244.333 0.862 244.445 0.75 244.583 0.75C244.721 0.75 244.833 0.862 244.833 1V7C244.833 7.138 244.72 7.25 244.583 7.25Z" fill="#282A36"/>
<path d="M246.483 13.25C246.345 13.25 246.233 13.138 246.233 13V1C246.233 0.862 246.345 0.75 246.483 0.75C246.621 0.75 246.733 0.862 246.733 1V13C246.733 13.138 246.621 13.25 246.483 13.25Z" fill="#282A36"/>
<path d="M248.383 7.25C248.245 7.25 248.133 7.138 248.133 7V1C248.133 0.862 248.245 0.75 248.383 0.75C248.521 0.75 248.633 0.862 248.633 1V7C248.633 7.138 248.521 7.25 248.383 7.25Z" fill="#282A36"/>
<path d="M250.283 7.25C250.145 7.25 250.033 7.138 250.033 7V1C250.033 0.862 250.145 0.75 250.283 0.75C250.421 0.75 250.533 0.862 250.533 1V7C250.533 7.138 250.421 7.25 250.283 7.25Z" fill="#282A36"/>
<path d="M252.183 7.25C252.045 7.25 251.933 7.138 251.933 7V1C251.933 0.862 252.045 0.75 252.183 0.75C252.321 0.75 252.433 0.862 252.433 1V7C252.433 7.138 252.321 7.25 252.183 7.25Z" fill="#282A36"/>
<path d="M254.084 7.25C253.946 7.25 253.834 7.138 253.834 7V1C253.834 0.862 253.946 0.75 254.084 0.75C254.222 0.75 254.334 0.862 254.334 1V7C254.334 7.138 254.221 7.25 254.084 7.25Z" fill="#282A36"/>
<path d="M257.884 7.25C257.746 7.25 257.634 7.138 257.634 7V1C257.634 0.862 257.746 0.75 257.884 0.75C258.022 0.75 258.134 0.862 258.134 1V7C258.134 7.138 258.022 7.25 257.884 7.25Z" fill="#282A36"/>
<path d="M259.784 7.25C259.646 7.25 259.534 7.138 259.534 7V1C259.534 0.862 259.646 0.75 259.784 0.75C259.922 0.75 260.034 0.862 260.034 1V7C260.034 7.138 259.922 7.25 259.784 7.25Z" fill="#282A36"/>
<path d="M261.684 7.25C261.546 7.25 261.434 7.138 261.434 7V1C261.434 0.862 261.546 0.75 261.684 0.75C261.822 0.75 261.934 0.862 261.934 1V7C261.934 7.138 261.822 7.25 261.684 7.25Z" fill="#282A36"/>
<path d="M263.586 7.25C263.448 7.25 263.336 7.138 263.336 7V1C263.336 0.862 263.448 0.75 263.586 0.75C263.724 0.75 263.836 0.862 263.836 1V7C263.836 7.138 263.723 7.25 263.586 7.25Z" fill="#282A36"/>
<path d="M265.485 13.25C265.347 13.25 265.235 13.138 265.235 13V1C265.235 0.862 265.347 0.75 265.485 0.75C265.623 0.75 265.735 0.862 265.735 1V13C265.735 13.138 265.623 13.25 265.485 13.25Z" fill="#282A36"/>
<path d="M267.385 7.25C267.247 7.25 267.135 7.138 267.135 7V1C267.135 0.862 267.247 0.75 267.385 0.75C267.523 0.75 267.635 0.862 267.635 1V7C267.635 7.138 267.523 7.25 267.385 7.25Z" fill="#282A36"/>
<path d="M269.285 7.25C269.147 7.25 269.035 7.138 269.035 7V1C269.035 0.862 269.147 0.75 269.285 0.75C269.423 0.75 269.535 0.862 269.535 1V7C269.535 7.138 269.423 7.25 269.285 7.25Z" fill="#282A36"/>
<path d="M271.186 7.25C271.048 7.25 270.936 7.138 270.936 7V1C270.936 0.862 271.048 0.75 271.186 0.75C271.324 0.75 271.436 0.862 271.436 1V7C271.436 7.138 271.324 7.25 271.186 7.25Z" fill="#282A36"/>
<path d="M273.087 7.25C272.949 7.25 272.837 7.138 272.837 7V1C272.837 0.862 272.949 0.75 273.087 0.75C273.225 0.75 273.337 0.862 273.337 1V7C273.337 7.138 273.224 7.25 273.087 7.25Z" fill="#282A36"/>
<path d="M276.886 7.25C276.748 7.25 276.636 7.138 276.636 7V1C276.636 0.862 276.748 0.75 276.886 0.75C277.024 0.75 277.136 0.862 277.136 1V7C277.136 7.138 277.024 7.25 276.886 7.25Z" fill="#282A36"/>
<path d="M278.787 7.25C278.649 7.25 278.537 7.138 278.537 7V1C278.537 0.862 278.649 0.75 278.787 0.75C278.925 0.75 279.037 0.862 279.037 1V7C279.037 7.138 278.925 7.25 278.787 7.25Z" fill="#282A36"/>
<path d="M280.687 7.25C280.549 7.25 280.437 7.138 280.437 7V1C280.437 0.862 280.549 0.75 280.687 0.75C280.825 0.75 280.937 0.862 280.937 1V7C280.937 7.138 280.825 7.25 280.687 7.25Z" fill="#282A36"/>
<path d="M282.588 7.25C282.45 7.25 282.338 7.138 282.338 7V1C282.338 0.862 282.45 0.75 282.588 0.75C282.726 0.75 282.838 0.862 282.838 1V7C282.838 7.138 282.725 7.25 282.588 7.25Z" fill="#282A36"/>
<path d="M284.487 13.25C284.349 13.25 284.237 13.138 284.237 13V1C284.237 0.862 284.349 0.75 284.487 0.75C284.625 0.75 284.737 0.862 284.737 1V13C284.737 13.138 284.625 13.25 284.487 13.25Z" fill="#282A36"/>
<path d="M286.387 7.25C286.249 7.25 286.137 7.138 286.137 7V1C286.137 0.862 286.249 0.75 286.387 0.75C286.525 0.75 286.637 0.862 286.637 1V7C286.637 7.138 286.525 7.25 286.387 7.25Z" fill="#282A36"/>
<path d="M288.288 7.25C288.15 7.25 288.038 7.138 288.038 7V1C288.038 0.862 288.15 0.75 288.288 0.75C288.426 0.75 288.538 0.862 288.538 1V7C288.538 7.138 288.426 7.25 288.288 7.25Z" fill="#282A36"/>
<path d="M290.188 7.25C290.05 7.25 289.938 7.138 289.938 7V1C289.938 0.862 290.05 0.75 290.188 0.75C290.326 0.75 290.438 0.862 290.438 1V7C290.438 7.138 290.326 7.25 290.188 7.25Z" fill="#282A36"/>
<path d="M292.089 7.25C291.951 7.25 291.839 7.138 291.839 7V1C291.839 0.862 291.951 0.75 292.089 0.75C292.227 0.75 292.339 0.862 292.339 1V7C292.339 7.138 292.226 7.25 292.089 7.25Z" fill="#282A36"/>
<path d="M7.34991 17.693C7.34991 16.623 7.87991 15.933 8.94891 15.933C10.0289 15.933 10.5579 16.622 10.5579 17.693V21.3C10.5579 22.369 10.0289 23.07 8.94891 23.07C7.87991 23.07 7.34991 22.37 7.34991 21.3V17.693ZM8.11891 21.351C8.11891 21.981 8.38891 22.361 8.94891 22.361C9.51891 22.361 9.77891 21.981 9.77891 21.351V17.654C9.77891 17.014 9.51891 16.634 8.94891 16.634C8.38891 16.634 8.11891 17.014 8.11891 17.654V21.351Z" fill="#ffd000" class="pulse-anim"/>
<path d="M28.0944 17.273C27.8344 17.432 27.4944 17.552 27.1244 17.573V16.933C27.8844 16.903 28.1444 16.493 28.3244 16.003H28.8644V23H28.0944V17.273Z" fill="#282A36"/>
<path d="M48.5696 17.703C48.5696 19.811 46.2006 20.571 46.1906 22.181V22.29H48.4896V23H45.4216V22.4C45.4216 20.141 47.7906 19.702 47.7906 17.732C47.7906 17.013 47.5506 16.633 46.9706 16.633C46.4016 16.633 46.1516 17.042 46.1516 17.662V18.281H45.4216V17.712C45.4216 16.643 45.9116 15.933 46.9906 15.933C48.0806 15.934 48.5696 16.634 48.5696 17.703Z" fill="#282A36"/>
<path d="M67.5309 17.6933V17.8732C67.5309 18.5932 67.2409 19.1032 66.6809 19.3132C67.2709 19.5332 67.5309 20.0623 67.5309 20.7623V21.3013C67.5309 22.3703 67.0309 23.0713 65.9519 23.0713C64.8829 23.0713 64.3829 22.3713 64.3829 21.3013V20.8213H65.1119V21.3503C65.1119 21.9803 65.3719 22.3602 65.9319 22.3602C66.5009 22.3602 66.7509 21.9903 66.7509 21.2813V20.7413C66.7509 20.0523 66.4609 19.7213 65.8709 19.7023H65.4509V19.0023H65.9109C66.4309 18.9823 66.7509 18.6523 66.7509 18.0433V17.7233C66.7509 17.0033 66.5009 16.6343 65.9319 16.6343C65.3719 16.6343 65.1119 17.0243 65.1119 17.6543V18.0133H64.3829V17.6943C64.3829 16.6243 64.8829 15.9342 65.9519 15.9342C67.0309 15.9342 67.5309 16.6233 67.5309 17.6933Z" fill="#282A36"/>
<path d="M86.1983 21.591V23H85.4383V21.591H83.1793V20.881L85.3483 16.004H86.1983V20.881H86.7583V21.591H86.1983ZM83.8993 20.881H85.4383V17.463L83.8993 20.881Z" fill="#282A36"/>
<path d="M103.206 18.853C103.426 18.473 103.776 18.273 104.246 18.273C105.145 18.273 105.545 18.933 105.545 19.932V21.301C105.545 22.37 105.035 23.071 103.966 23.071C102.897 23.071 102.397 22.371 102.397 21.301V20.831H103.127V21.351C103.127 21.981 103.387 22.361 103.946 22.361C104.506 22.361 104.765 21.981 104.765 21.351V19.992C104.765 19.363 104.505 18.983 103.946 18.983C103.516 18.983 103.226 19.222 103.157 19.732V19.892H102.428L102.618 16.004H105.376V16.703H103.317L103.206 18.853Z" fill="#282A36"/>
<path d="M124.556 17.6833V17.8132H123.826V17.6333C123.826 17.0033 123.566 16.6343 122.996 16.6343C122.406 16.6343 122.146 17.0143 122.146 17.7633V19.3323C122.337 18.8533 122.716 18.5823 123.276 18.5823C124.175 18.5823 124.575 19.2323 124.575 20.2413V21.3013C124.575 22.3703 124.046 23.0713 122.976 23.0713C121.896 23.0713 121.367 22.3713 121.367 21.3013V17.7333C121.367 16.6243 121.867 15.9342 122.976 15.9342C124.056 15.9342 124.556 16.6133 124.556 17.6833ZM122.147 20.3023V21.3513C122.147 21.9813 122.407 22.3613 122.977 22.3613C123.537 22.3613 123.806 21.9813 123.806 21.3513V20.3023C123.806 19.6723 123.536 19.2923 122.977 19.2923C122.407 19.2923 122.147 19.6723 122.147 20.3023Z" fill="#282A36"/>
<path d="M142.757 16.703H140.378V16.004H143.546V16.684L141.747 23H140.968L142.757 16.703Z" fill="#282A36"/>
<path d="M162.614 17.6633V17.8833C162.614 18.5933 162.364 19.1123 161.814 19.3223C162.394 19.5513 162.614 20.1013 162.614 20.8013V21.3213C162.614 22.4003 162.054 23.0703 160.964 23.0703C159.875 23.0703 159.316 22.4003 159.316 21.3213V20.8013C159.316 20.0923 159.536 19.5623 160.126 19.3223C159.556 19.1023 159.316 18.5933 159.316 17.8833V17.6633C159.316 16.5843 159.885 15.9342 160.964 15.9342C162.044 15.9342 162.614 16.5843 162.614 17.6633ZM160.085 17.6833V18.0233C160.085 18.7033 160.414 19.0033 160.964 19.0033C161.514 19.0033 161.844 18.7033 161.844 18.0233V17.6833C161.844 16.9633 161.514 16.6343 160.964 16.6343C160.415 16.6343 160.085 16.9633 160.085 17.6833ZM160.085 20.7113V21.3013C160.085 22.0213 160.404 22.3613 160.964 22.3613C161.524 22.3613 161.834 22.0213 161.844 21.3013V20.7113C161.844 20.0313 161.544 19.7023 160.964 19.7023C160.385 19.7023 160.085 20.0313 160.085 20.7113Z" fill="#282A36"/>
<path d="M181.56 17.6933V21.2603C181.56 22.3693 181.06 23.0703 179.941 23.0703C178.872 23.0703 178.362 22.3803 178.362 21.3103V21.1803H179.091V21.3613C179.091 21.9903 179.361 22.3602 179.92 22.3602C180.52 22.3602 180.779 21.9803 180.779 21.2413V19.6723C180.59 20.1513 180.21 20.4113 179.65 20.4113C178.751 20.4113 178.35 19.7713 178.35 18.7633V17.6943C178.35 16.6243 178.87 15.9342 179.95 15.9342C181.03 15.9342 181.56 16.6233 181.56 17.6933ZM179.122 17.6533V18.7023C179.122 19.3323 179.392 19.7123 179.951 19.7123C180.52 19.7123 180.78 19.3323 180.78 18.7023V17.6533C180.78 17.0133 180.52 16.6433 179.951 16.6433C179.391 16.6443 179.122 17.0143 179.122 17.6533Z" fill="#282A36"/>
<path d="M197.162 17.273C196.902 17.432 196.562 17.552 196.192 17.573V16.933C196.952 16.903 197.212 16.493 197.392 16.003H197.931V23H197.161V17.273H197.162Z" fill="#282A36"/>
<path d="M199.053 17.693C199.053 16.623 199.583 15.933 200.653 15.933C201.732 15.933 202.261 16.622 202.261 17.693V21.3C202.261 22.369 201.732 23.07 200.653 23.07C199.584 23.07 199.053 22.37 199.053 21.3V17.693ZM199.823 21.351C199.823 21.981 200.093 22.361 200.653 22.361C201.222 22.361 201.482 21.981 201.482 21.351V17.654C201.482 17.014 201.222 16.634 200.653 16.634C200.093 16.634 199.823 17.014 199.823 17.654V21.351Z" fill="#282A36"/>
<path d="M216.419 17.273C216.159 17.432 215.819 17.552 215.449 17.573V16.933C216.209 16.903 216.469 16.493 216.649 16.003H217.188V23H216.419V17.273Z" fill="#282A36"/>
<path d="M219.798 17.273C219.538 17.432 219.198 17.552 218.828 17.573V16.933C219.588 16.903 219.848 16.493 220.028 16.003H220.567V23H219.797L219.798 17.273Z" fill="#282A36"/>
<path d="M235.175 17.273C234.915 17.432 234.575 17.552 234.205 17.573V16.933C234.965 16.903 235.225 16.493 235.405 16.003H235.944V23H235.174V17.273H235.175Z" fill="#282A36"/>
<path d="M240.273 17.703C240.273 19.811 237.905 20.571 237.895 22.181V22.29H240.194V23H237.126V22.4C237.126 20.141 239.494 19.702 239.494 17.732C239.494 17.013 239.255 16.633 238.675 16.633C238.106 16.633 237.856 17.042 237.856 17.662V18.281H237.126V17.712C237.126 16.643 237.615 15.933 238.694 15.933C239.784 15.934 240.273 16.634 240.273 17.703Z" fill="#282A36"/>
<path d="M254.176 17.273C253.916 17.432 253.576 17.552 253.206 17.573V16.933C253.966 16.903 254.226 16.493 254.406 16.003H254.945V23H254.175L254.176 17.273Z" fill="#282A36"/>
<path d="M259.236 17.6933V17.8732C259.236 18.5932 258.946 19.1032 258.386 19.3132C258.975 19.5332 259.236 20.0623 259.236 20.7623V21.3013C259.236 22.3703 258.736 23.0713 257.656 23.0713C256.587 23.0713 256.088 22.3713 256.088 21.3013V20.8213H256.817V21.3503C256.817 21.9803 257.077 22.3602 257.636 22.3602C258.205 22.3602 258.455 21.9903 258.455 21.2813V20.7413C258.455 20.0523 258.165 19.7213 257.576 19.7023H257.156V19.0023H257.616C258.136 18.9823 258.455 18.6523 258.455 18.0433V17.7233C258.455 17.0033 258.205 16.6343 257.636 16.6343C257.076 16.6343 256.817 17.0243 256.817 17.6543V18.0133H256.088V17.6943C256.088 16.6243 256.587 15.9342 257.656 15.9342C258.736 15.9342 259.236 16.6233 259.236 17.6933Z" fill="#282A36"/>
<path d="M273.113 17.273C272.853 17.432 272.513 17.552 272.143 17.573V16.933C272.903 16.903 273.163 16.493 273.342 16.003H273.882V23H273.112V17.273H273.113Z" fill="#282A36"/>
<path d="M277.902 21.5913V23.0003H277.142V21.5913H274.883V20.8813L277.052 16.0043H277.902V20.8813H278.462V21.5913H277.902ZM275.603 20.8813H277.142V17.4633L275.603 20.8813Z" fill="#282A36"/>
<path d="M292.179 17.273C291.919 17.432 291.579 17.552 291.209 17.573V16.933C291.969 16.903 292.229 16.493 292.409 16.003H292.948V23H292.178V17.273H292.179Z" fill="#282A36"/>
<path d="M294.909 18.8533C295.129 18.4733 295.478 18.2733 295.948 18.2733C296.847 18.2733 297.248 18.9333 297.248 19.9323V21.3013C297.248 22.3703 296.738 23.0713 295.669 23.0713C294.6 23.0713 294.1 22.3713 294.1 21.3013V20.8313H294.829V21.3513C294.829 21.9813 295.089 22.3613 295.648 22.3613C296.207 22.3613 296.467 21.9813 296.467 21.3513V19.9923C296.467 19.3633 296.207 18.9833 295.648 18.9833C295.218 18.9833 294.928 19.2223 294.859 19.7323V19.8923H294.13L294.319 16.0043H297.078V16.7033H295.018L294.909 18.8533Z" fill="#282A36"/>
<path d="M298.55 67.25C298.412 67.25 298.3 67.138 298.3 67V55C298.3 54.862 298.412 54.75 298.55 54.75C298.688 54.75 298.8 54.862 298.8 55V67C298.8 67.138 298.687 67.25 298.55 67.25Z" fill="#282A36"/>
<path d="M250.283 67.25C250.145 67.25 250.033 67.138 250.033 67V55C250.033 54.862 250.145 54.75 250.283 54.75C250.421 54.75 250.533 54.862 250.533 55V67C250.533 67.138 250.421 67.25 250.283 67.25Z" fill="#282A36"/>
<path d="M202.017 67.25C201.879 67.25 201.767 67.138 201.767 67V55C201.767 54.862 201.879 54.75 202.017 54.75C202.155 54.75 202.267 54.862 202.267 55V67C202.267 67.138 202.155 67.25 202.017 67.25Z" fill="#282A36"/>
<path d="M153.751 67.25C153.613 67.25 153.501 67.138 153.501 67V55C153.501 54.862 153.613 54.75 153.751 54.75C153.889 54.75 154.001 54.862 154.001 55V67C154.001 67.138 153.89 67.25 153.751 67.25Z" fill="#282A36"/>
<path d="M105.485 67.25C105.347 67.25 105.235 67.138 105.235 67V55C105.235 54.862 105.347 54.75 105.485 54.75C105.623 54.75 105.735 54.862 105.735 55V67C105.735 67.138 105.623 67.25 105.485 67.25Z" fill="#282A36"/>
<path d="M57.219 67.25C57.081 67.25 56.969 67.138 56.969 67V55C56.969 54.862 57.081 54.75 57.219 54.75C57.357 54.75 57.469 54.862 57.469 55V67C57.469 67.138 57.358 67.25 57.219 67.25Z" fill="#282A36"/>
<path d="M8.95288 67.25C8.81488 67.25 8.70288 67.138 8.70288 67V55C8.70288 54.862 8.81488 54.75 8.95288 54.75C9.09088 54.75 9.20288 54.862 9.20288 55V67C9.20288 67.138 9.09088 67.25 8.95288 67.25Z" fill="#282A36"/>
<path d="M54.8057 67.25C54.6677 67.25 54.5557 67.138 54.5557 67V65C54.5557 64.862 54.6677 64.75 54.8057 64.75C54.9437 64.75 55.0557 64.862 55.0557 65V67C55.0557 67.138 54.9447 67.25 54.8057 67.25Z" fill="#282A36"/>
<path d="M52.3924 67.25C52.2544 67.25 52.1424 67.138 52.1424 67V61C52.1424 60.862 52.2544 60.75 52.3924 60.75C52.5304 60.75 52.6424 60.862 52.6424 61V67C52.6424 67.138 52.5304 67.25 52.3924 67.25Z" fill="#282A36"/>
<path d="M49.9801 67.25C49.8421 67.25 49.7301 67.138 49.7301 67V65C49.7301 64.862 49.8421 64.75 49.9801 64.75C50.1181 64.75 50.2301 64.862 50.2301 65V67C50.2301 67.138 50.1181 67.25 49.9801 67.25Z" fill="#282A36"/>
<path d="M47.5668 67.25C47.4288 67.25 47.3168 67.138 47.3168 67V61C47.3168 60.862 47.4288 60.75 47.5668 60.75C47.7048 60.75 47.8168 60.862 47.8168 61V67C47.8168 67.138 47.7048 67.25 47.5668 67.25Z" fill="#282A36"/>
<path d="M45.1525 67.25C45.0145 67.25 44.9025 67.138 44.9025 67V65C44.9025 64.862 45.0145 64.75 45.1525 64.75C45.2905 64.75 45.4025 64.862 45.4025 65V67C45.4025 67.138 45.2915 67.25 45.1525 67.25Z" fill="#282A36"/>
<path d="M42.7393 67.25C42.6013 67.25 42.4893 67.138 42.4893 67V61C42.4893 60.862 42.6013 60.75 42.7393 60.75C42.8773 60.75 42.9893 60.862 42.9893 61V67C42.9893 67.138 42.8783 67.25 42.7393 67.25Z" fill="#282A36"/>
<path d="M40.3259 67.25C40.1879 67.25 40.0759 67.138 40.0759 67V65C40.0759 64.862 40.1879 64.75 40.3259 64.75C40.4639 64.75 40.5759 64.862 40.5759 65V67C40.5759 67.138 40.4639 67.25 40.3259 67.25Z" fill="#282A36"/>
<path d="M37.9126 67.25C37.7746 67.25 37.6626 67.138 37.6626 67V61C37.6626 60.862 37.7746 60.75 37.9126 60.75C38.0506 60.75 38.1626 60.862 38.1626 61V67C38.1626 67.138 38.0506 67.25 37.9126 67.25Z" fill="#282A36"/>
<path d="M35.5003 67.25C35.3623 67.25 35.2503 67.138 35.2503 67V65C35.2503 64.862 35.3623 64.75 35.5003 64.75C35.6383 64.75 35.7503 64.862 35.7503 65V67C35.7503 67.138 35.6383 67.25 35.5003 67.25Z" fill="#282A36"/>
<path d="M33.087 67.25C32.949 67.25 32.837 67.138 32.837 67V57C32.837 56.862 32.949 56.75 33.087 56.75C33.225 56.75 33.337 56.862 33.337 57V67C33.337 67.138 33.225 67.25 33.087 67.25Z" fill="#282A36"/>
<path d="M30.6727 67.25C30.5347 67.25 30.4227 67.138 30.4227 67V65C30.4227 64.862 30.5347 64.75 30.6727 64.75C30.8107 64.75 30.9227 64.862 30.9227 65V67C30.9227 67.138 30.8117 67.25 30.6727 67.25Z" fill="#282A36"/>
<path d="M28.2594 67.25C28.1214 67.25 28.0094 67.138 28.0094 67V61C28.0094 60.862 28.1214 60.75 28.2594 60.75C28.3974 60.75 28.5094 60.862 28.5094 61V67C28.5094 67.138 28.3984 67.25 28.2594 67.25Z" fill="#282A36"/>
<path d="M25.8461 67.25C25.7081 67.25 25.5961 67.138 25.5961 67V65C25.5961 64.862 25.7081 64.75 25.8461 64.75C25.9841 64.75 26.0961 64.862 26.0961 65V67C26.0961 67.138 25.9841 67.25 25.8461 67.25Z" fill="#282A36"/>
<path d="M23.4329 67.25C23.2949 67.25 23.1829 67.138 23.1829 67V61C23.1829 60.862 23.2949 60.75 23.4329 60.75C23.5709 60.75 23.6829 60.862 23.6829 61V67C23.6829 67.138 23.5709 67.25 23.4329 67.25Z" fill="#282A36"/>
<path d="M21.0205 67.25C20.8825 67.25 20.7705 67.138 20.7705 67V65C20.7705 64.862 20.8825 64.75 21.0205 64.75C21.1585 64.75 21.2705 64.862 21.2705 65V67C21.2705 67.138 21.1585 67.25 21.0205 67.25Z" fill="#282A36"/>
<path d="M18.6062 67.25C18.4682 67.25 18.3562 67.138 18.3562 67V61C18.3562 60.862 18.4682 60.75 18.6062 60.75C18.7442 60.75 18.8562 60.862 18.8562 61V67C18.8562 67.138 18.7452 67.25 18.6062 67.25Z" fill="#282A36"/>
<path d="M16.1929 67.25C16.0549 67.25 15.9429 67.138 15.9429 67V65C15.9429 64.862 16.0549 64.75 16.1929 64.75C16.3309 64.75 16.4429 64.862 16.4429 65V67C16.4429 67.138 16.3319 67.25 16.1929 67.25Z" fill="#282A36"/>
<path d="M13.7797 67.25C13.6417 67.25 13.5297 67.138 13.5297 67V61C13.5297 60.862 13.6417 60.75 13.7797 60.75C13.9177 60.75 14.0297 60.862 14.0297 61V67C14.0297 67.138 13.9187 67.25 13.7797 67.25Z" fill="#282A36"/>
<path d="M11.3663 67.25C11.2283 67.25 11.1163 67.138 11.1163 67V65C11.1163 64.862 11.2283 64.75 11.3663 64.75C11.5043 64.75 11.6163 64.862 11.6163 65V67C11.6163 67.138 11.5043 67.25 11.3663 67.25Z" fill="#282A36"/>
<path d="M103.073 67.25C102.935 67.25 102.823 67.138 102.823 67V65C102.823 64.862 102.935 64.75 103.073 64.75C103.211 64.75 103.323 64.862 103.323 65V67C103.323 67.138 103.211 67.25 103.073 67.25Z" fill="#282A36"/>
<path d="M100.658 67.25C100.52 67.25 100.408 67.138 100.408 67V61C100.408 60.862 100.52 60.75 100.658 60.75C100.796 60.75 100.908 60.862 100.908 61V67C100.908 67.138 100.797 67.25 100.658 67.25Z" fill="#282A36"/>
<path d="M98.2451 67.25C98.1071 67.25 97.9951 67.138 97.9951 67V65C97.9951 64.862 98.1071 64.75 98.2451 64.75C98.3831 64.75 98.4951 64.862 98.4951 65V67C98.4951 67.138 98.3841 67.25 98.2451 67.25Z" fill="#282A36"/>
<path d="M95.8318 67.25C95.6938 67.25 95.5818 67.138 95.5818 67V61C95.5818 60.862 95.6938 60.75 95.8318 60.75C95.9698 60.75 96.0818 60.862 96.0818 61V67C96.0818 67.138 95.9698 67.25 95.8318 67.25Z" fill="#282A36"/>
<path d="M93.4185 67.25C93.2805 67.25 93.1685 67.138 93.1685 67V65C93.1685 64.862 93.2805 64.75 93.4185 64.75C93.5565 64.75 93.6685 64.862 93.6685 65V67C93.6685 67.138 93.5565 67.25 93.4185 67.25Z" fill="#282A36"/>
<path d="M91.0062 67.25C90.8682 67.25 90.7562 67.138 90.7562 67V61C90.7562 60.862 90.8682 60.75 91.0062 60.75C91.1442 60.75 91.2562 60.862 91.2562 61V67C91.2562 67.138 91.1442 67.25 91.0062 67.25Z" fill="#282A36"/>
<path d="M88.5919 67.25C88.4539 67.25 88.3419 67.138 88.3419 67V65C88.3419 64.862 88.4539 64.75 88.5919 64.75C88.7299 64.75 88.8419 64.862 88.8419 65V67C88.8419 67.138 88.7309 67.25 88.5919 67.25Z" fill="#282A36"/>
<path d="M86.1786 67.25C86.0406 67.25 85.9286 67.138 85.9286 67V61C85.9286 60.862 86.0406 60.75 86.1786 60.75C86.3166 60.75 86.4286 60.862 86.4286 61V67C86.4286 67.138 86.3176 67.25 86.1786 67.25Z" fill="#282A36"/>
<path d="M83.7653 67.25C83.6273 67.25 83.5153 67.138 83.5153 67V65C83.5153 64.862 83.6273 64.75 83.7653 64.75C83.9033 64.75 84.0153 64.862 84.0153 65V67C84.0153 67.138 83.9043 67.25 83.7653 67.25Z" fill="#282A36"/>
<path d="M81.352 67.25C81.214 67.25 81.102 67.138 81.102 67V57C81.102 56.862 81.214 56.75 81.352 56.75C81.49 56.75 81.602 56.862 81.602 57V67C81.602 67.138 81.49 67.25 81.352 67.25Z" fill="#282A36"/>
<path d="M78.9387 67.25C78.8007 67.25 78.6887 67.138 78.6887 67V65C78.6887 64.862 78.8007 64.75 78.9387 64.75C79.0767 64.75 79.1887 64.862 79.1887 65V67C79.1887 67.138 79.0767 67.25 78.9387 67.25Z" fill="#282A36"/>
<path d="M76.5264 67.25C76.3884 67.25 76.2764 67.138 76.2764 67V61C76.2764 60.862 76.3884 60.75 76.5264 60.75C76.6644 60.75 76.7764 60.862 76.7764 61V67C76.7764 67.138 76.6644 67.25 76.5264 67.25Z" fill="#282A36"/>
<path d="M74.1131 67.25C73.9751 67.25 73.8631 67.138 73.8631 67V65C73.8631 64.862 73.9751 64.75 74.1131 64.75C74.2511 64.75 74.3631 64.862 74.3631 65V67C74.3631 67.138 74.2511 67.25 74.1131 67.25Z" fill="#282A36"/>
<path d="M71.6988 67.25C71.5608 67.25 71.4488 67.138 71.4488 67V61C71.4488 60.862 71.5608 60.75 71.6988 60.75C71.8368 60.75 71.9488 60.862 71.9488 61V67C71.9488 67.138 71.8378 67.25 71.6988 67.25Z" fill="#282A36"/>
<path d="M69.2855 67.25C69.1475 67.25 69.0355 67.138 69.0355 67V65C69.0355 64.862 69.1475 64.75 69.2855 64.75C69.4235 64.75 69.5355 64.862 69.5355 65V67C69.5355 67.138 69.4235 67.25 69.2855 67.25Z" fill="#282A36"/>
<path d="M66.8722 67.25C66.7342 67.25 66.6222 67.138 66.6222 67V61C66.6222 60.862 66.7342 60.75 66.8722 60.75C67.0102 60.75 67.1222 60.862 67.1222 61V67C67.1222 67.138 67.0102 67.25 66.8722 67.25Z" fill="#282A36"/>
<path d="M64.4589 67.25C64.3209 67.25 64.2089 67.138 64.2089 67V65C64.2089 64.862 64.3209 64.75 64.4589 64.75C64.5969 64.75 64.7089 64.862 64.7089 65V67C64.7089 67.138 64.5969 67.25 64.4589 67.25Z" fill="#282A36"/>
<path d="M62.0466 67.25C61.9086 67.25 61.7966 67.138 61.7966 67V61C61.7966 60.862 61.9086 60.75 62.0466 60.75C62.1846 60.75 62.2966 60.862 62.2966 61V67C62.2966 67.138 62.1846 67.25 62.0466 67.25Z" fill="#282A36"/>
<path d="M59.6333 67.25C59.4953 67.25 59.3833 67.138 59.3833 67V65C59.3833 64.862 59.4953 64.75 59.6333 64.75C59.7713 64.75 59.8833 64.862 59.8833 65V67C59.8833 67.138 59.7713 67.25 59.6333 67.25Z" fill="#282A36"/>
<path d="M151.338 67.25C151.2 67.25 151.088 67.138 151.088 67V65C151.088 64.862 151.2 64.75 151.338 64.75C151.476 64.75 151.588 64.862 151.588 65V67C151.588 67.138 151.476 67.25 151.338 67.25Z" fill="#282A36"/>
<path d="M148.924 67.25C148.786 67.25 148.674 67.138 148.674 67V61C148.674 60.862 148.786 60.75 148.924 60.75C149.062 60.75 149.174 60.862 149.174 61V67C149.174 67.138 149.062 67.25 148.924 67.25Z" fill="#282A36"/>
<path d="M146.511 67.25C146.373 67.25 146.261 67.138 146.261 67V65C146.261 64.862 146.373 64.75 146.511 64.75C146.649 64.75 146.761 64.862 146.761 65V67C146.761 67.138 146.649 67.25 146.511 67.25Z" fill="#282A36"/>
<path d="M144.099 67.25C143.961 67.25 143.849 67.138 143.849 67V61C143.849 60.862 143.961 60.75 144.099 60.75C144.237 60.75 144.349 60.862 144.349 61V67C144.349 67.138 144.237 67.25 144.099 67.25Z" fill="#282A36"/>
<path d="M141.685 67.25C141.547 67.25 141.435 67.138 141.435 67V65C141.435 64.862 141.547 64.75 141.685 64.75C141.823 64.75 141.935 64.862 141.935 65V67C141.935 67.138 141.824 67.25 141.685 67.25Z" fill="#282A36"/>
<path d="M139.271 67.25C139.133 67.25 139.021 67.138 139.021 67V61C139.021 60.862 139.133 60.75 139.271 60.75C139.409 60.75 139.521 60.862 139.521 61V67C139.521 67.138 139.41 67.25 139.271 67.25Z" fill="#282A36"/>
<path d="M136.858 67.25C136.72 67.25 136.608 67.138 136.608 67V65C136.608 64.862 136.72 64.75 136.858 64.75C136.996 64.75 137.108 64.862 137.108 65V67C137.108 67.138 136.996 67.25 136.858 67.25Z" fill="#282A36"/>
<path d="M134.445 67.25C134.307 67.25 134.195 67.138 134.195 67V61C134.195 60.862 134.307 60.75 134.445 60.75C134.583 60.75 134.695 60.862 134.695 61V67C134.695 67.138 134.583 67.25 134.445 67.25Z" fill="#282A36"/>
<path d="M132.032 67.25C131.894 67.25 131.782 67.138 131.782 67V65C131.782 64.862 131.894 64.75 132.032 64.75C132.17 64.75 132.282 64.862 132.282 65V67C132.282 67.138 132.17 67.25 132.032 67.25Z" fill="#282A36"/>
<path d="M129.618 67.25C129.48 67.25 129.368 67.138 129.368 67V57C129.368 56.862 129.48 56.75 129.618 56.75C129.756 56.75 129.868 56.862 129.868 57V67C129.868 67.138 129.757 67.25 129.618 67.25Z" fill="#282A36"/>
<path d="M127.205 67.25C127.067 67.25 126.955 67.138 126.955 67V65C126.955 64.862 127.067 64.75 127.205 64.75C127.343 64.75 127.455 64.862 127.455 65V67C127.455 67.138 127.344 67.25 127.205 67.25Z" fill="#282A36"/>
<path d="M124.791 67.25C124.653 67.25 124.541 67.138 124.541 67V61C124.541 60.862 124.653 60.75 124.791 60.75C124.929 60.75 125.041 60.862 125.041 61V67C125.041 67.138 124.93 67.25 124.791 67.25Z" fill="#282A36"/>
<path d="M122.378 67.25C122.24 67.25 122.128 67.138 122.128 67V65C122.128 64.862 122.24 64.75 122.378 64.75C122.516 64.75 122.628 64.862 122.628 65V67C122.628 67.138 122.516 67.25 122.378 67.25Z" fill="#282A36"/>
<path d="M119.965 67.25C119.827 67.25 119.715 67.138 119.715 67V61C119.715 60.862 119.827 60.75 119.965 60.75C120.103 60.75 120.215 60.862 120.215 61V67C120.215 67.138 120.103 67.25 119.965 67.25Z" fill="#282A36"/>
<path d="M117.552 67.25C117.414 67.25 117.302 67.138 117.302 67V65C117.302 64.862 117.414 64.75 117.552 64.75C117.69 64.75 117.802 64.862 117.802 65V67C117.802 67.138 117.69 67.25 117.552 67.25Z" fill="#282A36"/>
<path d="M115.138 67.25C115 67.25 114.888 67.138 114.888 67V61C114.888 60.862 115 60.75 115.138 60.75C115.276 60.75 115.388 60.862 115.388 61V67C115.388 67.138 115.277 67.25 115.138 67.25Z" fill="#282A36"/>
<path d="M112.725 67.25C112.587 67.25 112.475 67.138 112.475 67V65C112.475 64.862 112.587 64.75 112.725 64.75C112.863 64.75 112.975 64.862 112.975 65V67C112.975 67.138 112.864 67.25 112.725 67.25Z" fill="#282A36"/>
<path d="M110.312 67.25C110.174 67.25 110.062 67.138 110.062 67V61C110.062 60.862 110.174 60.75 110.312 60.75C110.45 60.75 110.562 60.862 110.562 61V67C110.562 67.138 110.45 67.25 110.312 67.25Z" fill="#282A36"/>
<path d="M107.898 67.25C107.76 67.25 107.648 67.138 107.648 67V65C107.648 64.862 107.76 64.75 107.898 64.75C108.036 64.75 108.148 64.862 108.148 65V67C108.148 67.138 108.036 67.25 107.898 67.25Z" fill="#282A36"/>
<path d="M199.605 67.25C199.467 67.25 199.355 67.138 199.355 67V65C199.355 64.862 199.467 64.75 199.605 64.75C199.743 64.75 199.855 64.862 199.855 65V67C199.855 67.138 199.743 67.25 199.605 67.25Z" fill="#282A36"/>
<path d="M197.19 67.25C197.052 67.25 196.94 67.138 196.94 67V61C196.94 60.862 197.052 60.75 197.19 60.75C197.328 60.75 197.44 60.862 197.44 61V67C197.44 67.138 197.329 67.25 197.19 67.25Z" fill="#282A36"/>
<path d="M194.777 67.25C194.639 67.25 194.527 67.138 194.527 67V65C194.527 64.862 194.639 64.75 194.777 64.75C194.915 64.75 195.027 64.862 195.027 65V67C195.027 67.138 194.916 67.25 194.777 67.25Z" fill="#282A36"/>
<path d="M192.364 67.25C192.226 67.25 192.114 67.138 192.114 67V61C192.114 60.862 192.226 60.75 192.364 60.75C192.502 60.75 192.614 60.862 192.614 61V67C192.614 67.138 192.503 67.25 192.364 67.25Z" fill="#282A36"/>
<path d="M189.95 67.25C189.812 67.25 189.7 67.138 189.7 67V65C189.7 64.862 189.812 64.75 189.95 64.75C190.088 64.75 190.2 64.862 190.2 65V67C190.2 67.138 190.088 67.25 189.95 67.25Z" fill="#282A36"/>
<path d="M187.537 67.25C187.399 67.25 187.287 67.138 187.287 67V61C187.287 60.862 187.399 60.75 187.537 60.75C187.675 60.75 187.787 60.862 187.787 61V67C187.787 67.138 187.675 67.25 187.537 67.25Z" fill="#282A36"/>
<path d="M185.125 67.25C184.987 67.25 184.875 67.138 184.875 67V65C184.875 64.862 184.987 64.75 185.125 64.75C185.263 64.75 185.375 64.862 185.375 65V67C185.375 67.138 185.263 67.25 185.125 67.25Z" fill="#282A36"/>
<path d="M182.711 67.25C182.573 67.25 182.461 67.138 182.461 67V61C182.461 60.862 182.573 60.75 182.711 60.75C182.849 60.75 182.961 60.862 182.961 61V67C182.961 67.138 182.85 67.25 182.711 67.25Z" fill="#282A36"/>
<path d="M180.297 67.25C180.159 67.25 180.047 67.138 180.047 67V65C180.047 64.862 180.159 64.75 180.297 64.75C180.435 64.75 180.547 64.862 180.547 65V67C180.547 67.138 180.436 67.25 180.297 67.25Z" fill="#282A36"/>
<path d="M177.884 67.25C177.746 67.25 177.634 67.138 177.634 67V57C177.634 56.862 177.746 56.75 177.884 56.75C178.022 56.75 178.134 56.862 178.134 57V67C178.134 67.138 178.022 67.25 177.884 67.25Z" fill="#282A36"/>
<path d="M175.471 67.25C175.333 67.25 175.221 67.138 175.221 67V65C175.221 64.862 175.333 64.75 175.471 64.75C175.609 64.75 175.721 64.862 175.721 65V67C175.721 67.138 175.609 67.25 175.471 67.25Z" fill="#282A36"/>
<path d="M173.058 67.25C172.92 67.25 172.808 67.138 172.808 67V61C172.808 60.862 172.92 60.75 173.058 60.75C173.196 60.75 173.308 60.862 173.308 61V67C173.308 67.138 173.196 67.25 173.058 67.25Z" fill="#282A36"/>
<path d="M170.644 67.25C170.506 67.25 170.394 67.138 170.394 67V65C170.394 64.862 170.506 64.75 170.644 64.75C170.782 64.75 170.894 64.862 170.894 65V67C170.894 67.138 170.783 67.25 170.644 67.25Z" fill="#282A36"/>
<path d="M168.231 67.25C168.093 67.25 167.981 67.138 167.981 67V61C167.981 60.862 168.093 60.75 168.231 60.75C168.369 60.75 168.481 60.862 168.481 61V67C168.481 67.138 168.37 67.25 168.231 67.25Z" fill="#282A36"/>
<path d="M165.818 67.25C165.68 67.25 165.568 67.138 165.568 67V65C165.568 64.862 165.68 64.75 165.818 64.75C165.956 64.75 166.068 64.862 166.068 65V67C166.068 67.138 165.957 67.25 165.818 67.25Z" fill="#282A36"/>
<path d="M163.404 67.25C163.266 67.25 163.154 67.138 163.154 67V61C163.154 60.862 163.266 60.75 163.404 60.75C163.542 60.75 163.654 60.862 163.654 61V67C163.654 67.138 163.542 67.25 163.404 67.25Z" fill="#282A36"/>
<path d="M160.991 67.25C160.853 67.25 160.741 67.138 160.741 67V65C160.741 64.862 160.853 64.75 160.991 64.75C161.129 64.75 161.241 64.862 161.241 65V67C161.241 67.138 161.129 67.25 160.991 67.25Z" fill="#282A36"/>
<path d="M158.579 67.25C158.441 67.25 158.329 67.138 158.329 67V61C158.329 60.862 158.441 60.75 158.579 60.75C158.717 60.75 158.829 60.862 158.829 61V67C158.829 67.138 158.717 67.25 158.579 67.25Z" fill="#282A36"/>
<path d="M156.164 67.25C156.026 67.25 155.914 67.138 155.914 67V65C155.914 64.862 156.026 64.75 156.164 64.75C156.302 64.75 156.414 64.862 156.414 65V67C156.414 67.138 156.303 67.25 156.164 67.25Z" fill="#282A36"/>
<path d="M247.871 67.25C247.733 67.25 247.621 67.138 247.621 67V65C247.621 64.862 247.733 64.75 247.871 64.75C248.009 64.75 248.121 64.862 248.121 65V67C248.121 67.138 248.008 67.25 247.871 67.25Z" fill="#282A36"/>
<path d="M245.457 67.25C245.319 67.25 245.207 67.138 245.207 67V61C245.207 60.862 245.319 60.75 245.457 60.75C245.595 60.75 245.707 60.862 245.707 61V67C245.707 67.138 245.594 67.25 245.457 67.25Z" fill="#282A36"/>
<path d="M243.044 67.25C242.906 67.25 242.794 67.138 242.794 67V65C242.794 64.862 242.906 64.75 243.044 64.75C243.182 64.75 243.294 64.862 243.294 65V67C243.294 67.138 243.181 67.25 243.044 67.25Z" fill="#282A36"/>
<path d="M240.631 67.25C240.493 67.25 240.381 67.138 240.381 67V61C240.381 60.862 240.493 60.75 240.631 60.75C240.769 60.75 240.881 60.862 240.881 61V67C240.881 67.138 240.768 67.25 240.631 67.25Z" fill="#282A36"/>
<path d="M238.217 67.25C238.079 67.25 237.967 67.138 237.967 67V65C237.967 64.862 238.079 64.75 238.217 64.75C238.355 64.75 238.467 64.862 238.467 65V67C238.467 67.138 238.354 67.25 238.217 67.25Z" fill="#282A36"/>
<path d="M235.803 67.25C235.665 67.25 235.553 67.138 235.553 67V61C235.553 60.862 235.665 60.75 235.803 60.75C235.941 60.75 236.053 60.862 236.053 61V67C236.053 67.138 235.941 67.25 235.803 67.25Z" fill="#282A36"/>
<path d="M233.39 67.25C233.252 67.25 233.14 67.138 233.14 67V65C233.14 64.862 233.252 64.75 233.39 64.75C233.528 64.75 233.64 64.862 233.64 65V67C233.64 67.138 233.528 67.25 233.39 67.25Z" fill="#282A36"/>
<path d="M230.977 67.25C230.839 67.25 230.727 67.138 230.727 67V61C230.727 60.862 230.839 60.75 230.977 60.75C231.115 60.75 231.227 60.862 231.227 61V67C231.227 67.138 231.115 67.25 230.977 67.25Z" fill="#282A36"/>
<path d="M228.563 67.25C228.425 67.25 228.313 67.138 228.313 67V65C228.313 64.862 228.425 64.75 228.563 64.75C228.701 64.75 228.813 64.862 228.813 65V67C228.813 67.138 228.701 67.25 228.563 67.25Z" fill="#282A36"/>
<path d="M226.15 67.25C226.012 67.25 225.9 67.138 225.9 67V57C225.9 56.862 226.012 56.75 226.15 56.75C226.288 56.75 226.4 56.862 226.4 57V67C226.4 67.138 226.288 67.25 226.15 67.25Z" fill="#282A36"/>
<path d="M223.737 67.25C223.599 67.25 223.487 67.138 223.487 67V65C223.487 64.862 223.599 64.75 223.737 64.75C223.875 64.75 223.987 64.862 223.987 65V67C223.987 67.138 223.875 67.25 223.737 67.25Z" fill="#282A36"/>
<path d="M221.324 67.25C221.186 67.25 221.074 67.138 221.074 67V61C221.074 60.862 221.186 60.75 221.324 60.75C221.462 60.75 221.574 60.862 221.574 61V67C221.574 67.138 221.462 67.25 221.324 67.25Z" fill="#282A36"/>
<path d="M218.911 67.25C218.773 67.25 218.661 67.138 218.661 67V65C218.661 64.862 218.773 64.75 218.911 64.75C219.049 64.75 219.161 64.862 219.161 65V67C219.161 67.138 219.048 67.25 218.911 67.25Z" fill="#282A36"/>
<path d="M216.498 67.25C216.36 67.25 216.248 67.138 216.248 67V61C216.248 60.862 216.36 60.75 216.498 60.75C216.636 60.75 216.748 60.862 216.748 61V67C216.748 67.138 216.635 67.25 216.498 67.25Z" fill="#282A36"/>
<path d="M214.084 67.25C213.946 67.25 213.834 67.138 213.834 67V65C213.834 64.862 213.946 64.75 214.084 64.75C214.222 64.75 214.334 64.862 214.334 65V67C214.334 67.138 214.221 67.25 214.084 67.25Z" fill="#282A36"/>
<path d="M211.671 67.25C211.533 67.25 211.421 67.138 211.421 67V61C211.421 60.862 211.533 60.75 211.671 60.75C211.809 60.75 211.921 60.862 211.921 61V67C211.921 67.138 211.808 67.25 211.671 67.25Z" fill="#282A36"/>
<path d="M209.257 67.25C209.119 67.25 209.007 67.138 209.007 67V65C209.007 64.862 209.119 64.75 209.257 64.75C209.395 64.75 209.507 64.862 209.507 65V67C209.507 67.138 209.395 67.25 209.257 67.25Z" fill="#282A36"/>
<path d="M206.844 67.25C206.706 67.25 206.594 67.138 206.594 67V61C206.594 60.862 206.706 60.75 206.844 60.75C206.982 60.75 207.094 60.862 207.094 61V67C207.094 67.138 206.982 67.25 206.844 67.25Z" fill="#282A36"/>
<path d="M204.43 67.25C204.292 67.25 204.18 67.138 204.18 67V65C204.18 64.862 204.292 64.75 204.43 64.75C204.568 64.75 204.68 64.862 204.68 65V67C204.68 67.138 204.568 67.25 204.43 67.25Z" fill="#282A36"/>
<path d="M296.137 67.25C295.999 67.25 295.887 67.138 295.887 67V65C295.887 64.862 295.999 64.75 296.137 64.75C296.275 64.75 296.387 64.862 296.387 65V67C296.387 67.138 296.274 67.25 296.137 67.25Z" fill="#282A36"/>
<path d="M293.722 67.25C293.584 67.25 293.472 67.138 293.472 67V61C293.472 60.862 293.584 60.75 293.722 60.75C293.86 60.75 293.972 60.862 293.972 61V67C293.972 67.138 293.86 67.25 293.722 67.25Z" fill="#282A36"/>
<path d="M291.309 67.25C291.171 67.25 291.059 67.138 291.059 67V65C291.059 64.862 291.171 64.75 291.309 64.75C291.447 64.75 291.559 64.862 291.559 65V67C291.559 67.138 291.447 67.25 291.309 67.25Z" fill="#282A36"/>
<path d="M288.896 67.25C288.758 67.25 288.646 67.138 288.646 67V61C288.646 60.862 288.758 60.75 288.896 60.75C289.034 60.75 289.146 60.862 289.146 61V67C289.146 67.138 289.034 67.25 288.896 67.25Z" fill="#282A36"/>
<path d="M286.482 67.25C286.344 67.25 286.232 67.138 286.232 67V65C286.232 64.862 286.344 64.75 286.482 64.75C286.62 64.75 286.732 64.862 286.732 65V67C286.732 67.138 286.62 67.25 286.482 67.25Z" fill="#282A36"/>
<path d="M284.069 67.25C283.931 67.25 283.819 67.138 283.819 67V61C283.819 60.862 283.931 60.75 284.069 60.75C284.207 60.75 284.319 60.862 284.319 61V67C284.319 67.138 284.207 67.25 284.069 67.25Z" fill="#282A36"/>
<path d="M281.656 67.25C281.518 67.25 281.406 67.138 281.406 67V65C281.406 64.862 281.518 64.75 281.656 64.75C281.794 64.75 281.906 64.862 281.906 65V67C281.906 67.138 281.794 67.25 281.656 67.25Z" fill="#282A36"/>
<path d="M279.243 67.25C279.105 67.25 278.993 67.138 278.993 67V61C278.993 60.862 279.105 60.75 279.243 60.75C279.381 60.75 279.493 60.862 279.493 61V67C279.493 67.138 279.381 67.25 279.243 67.25Z" fill="#282A36"/>
<path d="M276.829 67.25C276.691 67.25 276.579 67.138 276.579 67V65C276.579 64.862 276.691 64.75 276.829 64.75C276.967 64.75 277.079 64.862 277.079 65V67C277.079 67.138 276.967 67.25 276.829 67.25Z" fill="#282A36"/>
<path d="M274.417 67.25C274.279 67.25 274.167 67.138 274.167 67V57C274.167 56.862 274.279 56.75 274.417 56.75C274.555 56.75 274.667 56.862 274.667 57V67C274.667 67.138 274.554 67.25 274.417 67.25Z" fill="#282A36"/>
<path d="M272.004 67.25C271.866 67.25 271.754 67.138 271.754 67V65C271.754 64.862 271.866 64.75 272.004 64.75C272.142 64.75 272.254 64.862 272.254 65V67C272.254 67.138 272.141 67.25 272.004 67.25Z" fill="#282A36"/>
<path d="M269.59 67.25C269.452 67.25 269.34 67.138 269.34 67V61C269.34 60.862 269.452 60.75 269.59 60.75C269.728 60.75 269.84 60.862 269.84 61V67C269.84 67.138 269.727 67.25 269.59 67.25Z" fill="#282A36"/>
<path d="M267.177 67.25C267.039 67.25 266.927 67.138 266.927 67V65C266.927 64.862 267.039 64.75 267.177 64.75C267.315 64.75 267.427 64.862 267.427 65V67C267.427 67.138 267.314 67.25 267.177 67.25Z" fill="#282A36"/>
<path d="M264.763 67.25C264.625 67.25 264.513 67.138 264.513 67V61C264.513 60.862 264.625 60.75 264.763 60.75C264.901 60.75 265.013 60.862 265.013 61V67C265.013 67.138 264.901 67.25 264.763 67.25Z" fill="#282A36"/>
<path d="M262.349 67.25C262.211 67.25 262.099 67.138 262.099 67V65C262.099 64.862 262.211 64.75 262.349 64.75C262.487 64.75 262.599 64.862 262.599 65V67C262.599 67.138 262.487 67.25 262.349 67.25Z" fill="#282A36"/>
<path d="M259.936 67.25C259.798 67.25 259.686 67.138 259.686 67V61C259.686 60.862 259.798 60.75 259.936 60.75C260.074 60.75 260.186 60.862 260.186 61V67C260.186 67.138 260.074 67.25 259.936 67.25Z" fill="#282A36"/>
<path d="M257.523 67.25C257.385 67.25 257.273 67.138 257.273 67V65C257.273 64.862 257.385 64.75 257.523 64.75C257.661 64.75 257.773 64.862 257.773 65V67C257.773 67.138 257.661 67.25 257.523 67.25Z" fill="#282A36"/>
<path d="M255.11 67.25C254.972 67.25 254.86 67.138 254.86 67V61C254.86 60.862 254.972 60.75 255.11 60.75C255.248 60.75 255.36 60.862 255.36 61V67C255.36 67.138 255.248 67.25 255.11 67.25Z" fill="#282A36"/>
<path d="M252.696 67.25C252.558 67.25 252.446 67.138 252.446 67V65C252.446 64.862 252.558 64.75 252.696 64.75C252.834 64.75 252.946 64.862 252.946 65V67C252.946 67.138 252.834 67.25 252.696 67.25Z" fill="#282A36"/>
<path d="M56.8369 46.273C56.5769 46.432 56.2369 46.552 55.8669 46.573V45.933C56.6269 45.903 56.8869 45.493 57.0669 45.003H57.6069V52H56.8369V46.273Z" fill="#282A36"/>
<path d="M107.098 46.703C107.098 48.811 104.729 49.571 104.719 51.181V51.29H107.018V52H103.95V51.4C103.95 49.141 106.319 48.702 106.319 46.732C106.319 46.013 106.079 45.633 105.499 45.633C104.93 45.633 104.68 46.042 104.68 46.662V47.281H103.951V46.712C103.951 45.643 104.441 44.933 105.52 44.933C106.608 44.934 107.098 45.634 107.098 46.703Z" fill="#282A36"/>
<path d="M155.325 46.6933V46.8733C155.325 47.5933 155.035 48.1033 154.475 48.3133C155.064 48.5333 155.325 49.0623 155.325 49.7623V50.3013C155.325 51.3703 154.825 52.0713 153.745 52.0713C152.676 52.0713 152.176 51.3713 152.176 50.3013V49.8213H152.905V50.3503C152.905 50.9803 153.165 51.3603 153.725 51.3603C154.294 51.3603 154.544 50.9903 154.544 50.2813V49.7413C154.544 49.0523 154.254 48.7213 153.665 48.7023H153.245V48.0023H153.705C154.225 47.9823 154.544 47.6523 154.544 47.0433V46.7233C154.544 46.0033 154.294 45.6343 153.725 45.6343C153.165 45.6343 152.905 46.0243 152.905 46.6543V47.0133H152.176V46.6943C152.176 45.6243 152.675 44.9343 153.745 44.9343C154.825 44.9343 155.325 45.6233 155.325 46.6933Z" fill="#282A36"/>
<path d="M203.255 50.591V52H202.495V50.591H200.236V49.881L202.405 45.004H203.255V49.881H203.814V50.591H203.255ZM200.957 49.881H202.496V46.463L200.957 49.881Z" fill="#282A36"/>
<path d="M249.527 47.853C249.748 47.473 250.097 47.273 250.567 47.273C251.466 47.273 251.866 47.933 251.866 48.932V50.301C251.866 51.37 251.356 52.071 250.287 52.071C249.218 52.071 248.718 51.371 248.718 50.301V49.831H249.448V50.351C249.448 50.981 249.708 51.361 250.267 51.361C250.827 51.361 251.086 50.981 251.086 50.351V48.992C251.086 48.363 250.826 47.983 250.267 47.983C249.837 47.983 249.547 48.222 249.477 48.732V48.892H248.748L248.938 45.004H251.696V45.703H249.637L249.527 47.853Z" fill="#282A36"/>
<path d="M300.142 46.6833V46.8133H299.413V46.6333C299.413 46.0033 299.153 45.6343 298.584 45.6343C297.994 45.6343 297.734 46.0143 297.734 46.7633V48.3323C297.923 47.8533 298.303 47.5823 298.863 47.5823C299.762 47.5823 300.163 48.2323 300.163 49.2413V50.3013C300.163 51.3703 299.633 52.0713 298.563 52.0713C297.484 52.0713 296.954 51.3713 296.954 50.3013V46.7333C296.954 45.6243 297.454 44.9343 298.563 44.9343C299.642 44.9343 300.142 45.6133 300.142 46.6833ZM297.734 49.3023V50.3513C297.734 50.9813 297.994 51.3613 298.563 51.3613C299.123 51.3613 299.393 50.9813 299.393 50.3513V49.3023C299.393 48.6723 299.123 48.2923 298.563 48.2923C297.994 48.2923 297.734 48.6723 297.734 49.3023Z" fill="#282A36"/>
<path d="M7.3479 46.693C7.3479 45.623 7.8779 44.933 8.9469 44.933C10.0269 44.933 10.5559 45.622 10.5559 46.693V50.3C10.5559 51.369 10.0269 52.07 8.9469 52.07C7.8779 52.07 7.3479 51.37 7.3479 50.3V46.693ZM8.1179 50.351C8.1179 50.981 8.3879 51.361 8.9479 51.361C9.5179 51.361 9.7779 50.981 9.7779 50.351V46.654C9.7779 46.014 9.5179 45.634 8.9479 45.634C8.3879 45.634 8.1179 46.014 8.1179 46.654V50.351Z" fill="#282A36"/>
<defs>
<linearGradient id="paint0_linear_59_2" x1="154.002" y1="68" x2="154.002" y2="-4.05312e-06" gradientUnits="userSpaceOnUse">
<stop stop-color="#F1E9DA"/>
<stop offset="0.0164" stop-color="#F6EFE2"/>
<stop offset="0.0478" stop-color="#FBF5EA"/>
<stop offset="0.1" stop-color="#FCF7ED"/>
<stop offset="0.5" stop-color="#F1E9DA"/>
<stop offset="0.7089" stop-color="#F2EBDD"/>
<stop offset="0.8344" stop-color="#F7F1E5"/>
<stop offset="0.9" stop-color="#FCF7ED"/>
<stop offset="0.9522" stop-color="#FBF5EA"/>
<stop offset="0.9836" stop-color="#F6EFE2"/>
<stop offset="1" stop-color="#F1E9DA"/>
</linearGradient>
<linearGradient id="paint1_linear_59_2" x1="14.4869" y1="41" x2="14.4869" y2="34.5" gradientUnits="userSpaceOnUse">
<stop stop-color="#FCF7ED"/>
<stop offset="0.4265" stop-color="#F6F0E3"/>
<stop offset="1" stop-color="#F1E9DA"/>
</linearGradient>
<linearGradient id="paint2_linear_59_2" x1="14.4869" y1="27" x2="14.4869" y2="33.5" gradientUnits="userSpaceOnUse">
<stop stop-color="#FCF7ED"/>
<stop offset="0.4265" stop-color="#F6F0E3"/>
<stop offset="1" stop-color="#F1E9DA"/>
</linearGradient>
<linearGradient id="paint3_linear_59_2" x1="154.019" y1="0" x2="154.019" y2="9" gradientUnits="userSpaceOnUse">
<stop stop-color="#FCF7ED"/>
<stop offset="0.4265" stop-color="#F6F0E3"/>
<stop offset="1" stop-color="#F1E9DA"/>
</linearGradient>
<linearGradient id="paint4_linear_59_2" x1="154.019" y1="68" x2="154.019" y2="59" gradientUnits="userSpaceOnUse">
<stop stop-color="#FCF7ED"/>
<stop offset="0.4265" stop-color="#F6F0E3"/>
<stop offset="1" stop-color="#F1E9DA"/>
</linearGradient>
</defs>
</svg>
