<svg width="29" height="29" viewBox="0 0 29 29" fill="none" xmlns="http://www.w3.org/2000/svg">
<g clip-path="url(#clip0_111_3)">
<path d="M20.0625 10C20.0625 14.8333 18.4792 19.2083 15.3125 23.125C12.8542 26.0417 11 26.8542 9.75 25.5625C9.45833 25.2292 9.3125 24.8333 9.3125 24.375C9.3125 23.5417 9.75 22.5833 10.625 21.5C12.8333 18.75 13.9792 15.875 14.0625 12.875C13.0625 13.2917 12.0625 13.1875 11.0625 12.5625C9.14583 11.4375 8.1875 10.0625 8.1875 8.4375C8.1875 6.77083 8.72917 5.4375 9.8125 4.4375C10.8958 3.4375 12.0625 2.9375 13.3125 2.9375C14.6042 2.9375 15.6042 3.125 16.3125 3.5C17.0208 3.83333 17.6667 4.33333 18.25 5C19.4583 6.375 20.0625 8.04167 20.0625 10Z" fill="#FF6B9D"/>
</g>
<defs>
<clipPath id="clip0_111_3">
<rect width="29" height="29" fill="white"/>
</clipPath>
</defs>
</svg>
