<svg width="720" height="398" viewBox="0 0 720 398" fill="none" xmlns="http://www.w3.org/2000/svg">
<path d="M48.8949 312H44.2784L57.6307 275.636H62.1761L75.5284 312H70.9119L60.0455 281.389H59.7614L48.8949 312ZM50.5994 297.795H69.2074V301.702H50.5994V297.795Z" fill="white"/>
<path d="M152.087 272.348C151.043 272.331 149.999 272.133 148.955 271.751C147.911 271.37 146.958 270.728 146.096 269.825C145.234 268.913 144.542 267.683 144.02 266.134C143.498 264.576 143.237 262.62 143.237 260.267C143.237 258.013 143.449 256.016 143.871 254.276C144.294 252.528 144.907 251.057 145.711 249.864C146.514 248.663 147.484 247.751 148.619 247.13C149.762 246.508 151.051 246.197 152.484 246.197C153.91 246.197 155.177 246.483 156.288 247.055C157.406 247.618 158.318 248.406 159.022 249.417C159.726 250.427 160.182 251.592 160.389 252.909H157.357C157.075 251.766 156.528 250.817 155.716 250.063C154.904 249.309 153.827 248.932 152.484 248.932C150.512 248.932 148.959 249.789 147.824 251.505C146.697 253.22 146.129 255.627 146.121 258.726H146.32C146.784 258.022 147.335 257.421 147.973 256.924C148.619 256.418 149.332 256.029 150.11 255.755C150.889 255.482 151.714 255.345 152.584 255.345C154.042 255.345 155.376 255.71 156.586 256.439C157.796 257.16 158.765 258.158 159.494 259.434C160.223 260.702 160.588 262.156 160.588 263.797C160.588 265.371 160.236 266.813 159.532 268.122C158.827 269.423 157.837 270.459 156.561 271.229C155.293 271.992 153.802 272.365 152.087 272.348ZM152.087 269.614C153.131 269.614 154.067 269.353 154.896 268.831C155.732 268.309 156.391 267.608 156.872 266.73C157.361 265.852 157.605 264.874 157.605 263.797C157.605 262.745 157.369 261.788 156.897 260.926C156.433 260.056 155.79 259.364 154.97 258.85C154.158 258.336 153.23 258.08 152.186 258.08C151.399 258.08 150.666 258.237 149.986 258.552C149.307 258.858 148.71 259.281 148.196 259.82C147.691 260.358 147.293 260.975 147.003 261.672C146.713 262.359 146.568 263.084 146.568 263.847C146.568 264.857 146.804 265.802 147.277 266.68C147.757 267.559 148.412 268.267 149.24 268.806C150.077 269.344 151.026 269.614 152.087 269.614ZM173.778 272.348C171.906 272.348 170.311 271.838 168.993 270.819C167.676 269.792 166.669 268.304 165.973 266.357C165.277 264.402 164.929 262.04 164.929 259.273C164.929 256.522 165.277 254.173 165.973 252.225C166.677 250.27 167.688 248.779 169.006 247.751C170.331 246.715 171.922 246.197 173.778 246.197C175.634 246.197 177.221 246.715 178.539 247.751C179.864 248.779 180.875 250.27 181.571 252.225C182.276 254.173 182.628 256.522 182.628 259.273C182.628 262.04 182.28 264.402 181.584 266.357C180.888 268.304 179.881 269.792 178.563 270.819C177.246 271.838 175.651 272.348 173.778 272.348ZM173.778 269.614C175.634 269.614 177.076 268.719 178.104 266.929C179.131 265.139 179.645 262.587 179.645 259.273C179.645 257.069 179.409 255.192 178.936 253.642C178.472 252.093 177.801 250.912 176.923 250.1C176.053 249.288 175.005 248.882 173.778 248.882C171.939 248.882 170.501 249.789 169.465 251.604C168.43 253.41 167.912 255.967 167.912 259.273C167.912 261.477 168.144 263.349 168.608 264.891C169.072 266.432 169.739 267.604 170.609 268.408C171.487 269.212 172.544 269.614 173.778 269.614ZM192.67 257.781C191.618 257.781 190.657 257.524 189.787 257.011C188.925 256.497 188.237 255.809 187.724 254.947C187.21 254.077 186.953 253.116 186.953 252.064C186.953 251.012 187.21 250.055 187.724 249.193C188.237 248.323 188.925 247.631 189.787 247.117C190.657 246.603 191.618 246.347 192.67 246.347C193.723 246.347 194.68 246.603 195.541 247.117C196.411 247.631 197.103 248.323 197.617 249.193C198.131 250.055 198.388 251.012 198.388 252.064C198.388 253.116 198.131 254.077 197.617 254.947C197.103 255.809 196.411 256.497 195.541 257.011C194.68 257.524 193.723 257.781 192.67 257.781ZM192.67 255.295C193.267 255.295 193.81 255.15 194.299 254.86C194.787 254.57 195.177 254.181 195.467 253.692C195.757 253.203 195.902 252.661 195.902 252.064C195.902 251.467 195.757 250.925 195.467 250.436C195.177 249.947 194.787 249.557 194.299 249.267C193.81 248.977 193.267 248.832 192.67 248.832C192.074 248.832 191.531 248.977 191.042 249.267C190.553 249.557 190.164 249.947 189.874 250.436C189.584 250.925 189.439 251.467 189.439 252.064C189.439 252.661 189.584 253.203 189.874 253.692C190.164 254.181 190.553 254.57 191.042 254.86C191.531 255.15 192.074 255.295 192.67 255.295Z" fill="white"/>
<path d="M549.087 270.348C548.043 270.331 546.999 270.133 545.955 269.751C544.911 269.37 543.958 268.728 543.096 267.825C542.234 266.913 541.542 265.683 541.02 264.134C540.498 262.576 540.237 260.62 540.237 258.267C540.237 256.013 540.449 254.016 540.871 252.276C541.294 250.528 541.907 249.057 542.711 247.864C543.514 246.663 544.484 245.751 545.619 245.13C546.762 244.508 548.051 244.197 549.484 244.197C550.91 244.197 552.177 244.483 553.288 245.055C554.406 245.618 555.318 246.406 556.022 247.417C556.726 248.427 557.182 249.592 557.389 250.909H554.357C554.075 249.766 553.528 248.817 552.716 248.063C551.904 247.309 550.827 246.932 549.484 246.932C547.512 246.932 545.959 247.789 544.824 249.505C543.697 251.22 543.129 253.627 543.121 256.726H543.32C543.784 256.022 544.335 255.421 544.973 254.924C545.619 254.418 546.332 254.029 547.11 253.755C547.889 253.482 548.714 253.345 549.584 253.345C551.042 253.345 552.376 253.71 553.586 254.439C554.796 255.16 555.765 256.158 556.494 257.434C557.223 258.702 557.588 260.156 557.588 261.797C557.588 263.371 557.236 264.813 556.532 266.122C555.827 267.423 554.837 268.459 553.561 269.229C552.293 269.992 550.802 270.365 549.087 270.348ZM549.087 267.614C550.131 267.614 551.067 267.353 551.896 266.831C552.732 266.309 553.391 265.608 553.872 264.73C554.361 263.852 554.605 262.874 554.605 261.797C554.605 260.745 554.369 259.788 553.897 258.926C553.433 258.056 552.79 257.364 551.97 256.85C551.158 256.336 550.23 256.08 549.186 256.08C548.399 256.08 547.666 256.237 546.986 256.552C546.307 256.858 545.71 257.281 545.196 257.82C544.691 258.358 544.293 258.975 544.003 259.672C543.713 260.359 543.568 261.084 543.568 261.847C543.568 262.857 543.804 263.802 544.277 264.68C544.757 265.559 545.412 266.267 546.24 266.806C547.077 267.344 548.026 267.614 549.087 267.614ZM570.778 270.348C568.906 270.348 567.311 269.838 565.993 268.819C564.676 267.792 563.669 266.304 562.973 264.357C562.277 262.402 561.929 260.04 561.929 257.273C561.929 254.522 562.277 252.173 562.973 250.225C563.677 248.27 564.688 246.779 566.006 245.751C567.331 244.715 568.922 244.197 570.778 244.197C572.634 244.197 574.221 244.715 575.539 245.751C576.864 246.779 577.875 248.27 578.571 250.225C579.276 252.173 579.628 254.522 579.628 257.273C579.628 260.04 579.28 262.402 578.584 264.357C577.888 266.304 576.881 267.792 575.563 268.819C574.246 269.838 572.651 270.348 570.778 270.348ZM570.778 267.614C572.634 267.614 574.076 266.719 575.104 264.929C576.131 263.139 576.645 260.587 576.645 257.273C576.645 255.069 576.409 253.192 575.936 251.642C575.472 250.093 574.801 248.912 573.923 248.1C573.053 247.288 572.005 246.882 570.778 246.882C568.939 246.882 567.501 247.789 566.465 249.604C565.43 251.41 564.912 253.967 564.912 257.273C564.912 259.477 565.144 261.349 565.608 262.891C566.072 264.432 566.739 265.604 567.609 266.408C568.487 267.212 569.544 267.614 570.778 267.614ZM589.67 255.781C588.618 255.781 587.657 255.524 586.787 255.011C585.925 254.497 585.237 253.809 584.724 252.947C584.21 252.077 583.953 251.116 583.953 250.064C583.953 249.012 584.21 248.055 584.724 247.193C585.237 246.323 585.925 245.631 586.787 245.117C587.657 244.603 588.618 244.347 589.67 244.347C590.723 244.347 591.68 244.603 592.541 245.117C593.411 245.631 594.103 246.323 594.617 247.193C595.131 248.055 595.388 249.012 595.388 250.064C595.388 251.116 595.131 252.077 594.617 252.947C594.103 253.809 593.411 254.497 592.541 255.011C591.68 255.524 590.723 255.781 589.67 255.781ZM589.67 253.295C590.267 253.295 590.81 253.15 591.299 252.86C591.787 252.57 592.177 252.181 592.467 251.692C592.757 251.203 592.902 250.661 592.902 250.064C592.902 249.467 592.757 248.925 592.467 248.436C592.177 247.947 591.787 247.557 591.299 247.267C590.81 246.977 590.267 246.832 589.67 246.832C589.074 246.832 588.531 246.977 588.042 247.267C587.553 247.557 587.164 247.947 586.874 248.436C586.584 248.925 586.439 249.467 586.439 250.064C586.439 250.661 586.584 251.203 586.874 251.692C587.164 252.181 587.553 252.57 588.042 252.86C588.531 253.15 589.074 253.295 589.67 253.295Z" fill="white"/>
<path d="M658.403 312V275.636H671.116C673.65 275.636 675.739 276.074 677.384 276.95C679.03 277.814 680.255 278.98 681.06 280.448C681.865 281.904 682.267 283.52 682.267 285.295C682.267 286.858 681.989 288.148 681.433 289.166C680.888 290.184 680.166 290.989 679.266 291.581C678.379 292.173 677.414 292.611 676.372 292.895V293.25C677.485 293.321 678.603 293.712 679.728 294.422C680.853 295.132 681.794 296.15 682.551 297.476C683.309 298.802 683.688 300.423 683.688 302.341C683.688 304.164 683.273 305.803 682.445 307.259C681.616 308.715 680.308 309.869 678.521 310.722C676.733 311.574 674.407 312 671.543 312H658.403ZM662.807 308.094H671.543C674.419 308.094 676.461 307.537 677.668 306.425C678.888 305.3 679.497 303.939 679.497 302.341C679.497 301.11 679.183 299.973 678.556 298.932C677.929 297.878 677.035 297.038 675.875 296.411C674.715 295.771 673.342 295.452 671.756 295.452H662.807V308.094ZM662.807 291.616H670.974C672.3 291.616 673.496 291.356 674.561 290.835C675.638 290.314 676.491 289.58 677.118 288.634C677.757 287.687 678.077 286.574 678.077 285.295C678.077 283.697 677.52 282.342 676.408 281.229C675.295 280.105 673.531 279.543 671.116 279.543H662.807V291.616Z" fill="white"/>
<path d="M562.665 56H558.261C558.001 54.7334 557.545 53.6207 556.894 52.6619C556.255 51.7031 555.474 50.8982 554.55 50.2472C553.639 49.5843 552.627 49.0871 551.514 48.7557C550.402 48.4242 549.241 48.2585 548.034 48.2585C545.832 48.2585 543.838 48.8149 542.05 49.9276C540.275 51.0402 538.86 52.6797 537.807 54.8459C536.765 57.0121 536.244 59.6695 536.244 62.8182C536.244 65.9669 536.765 68.6243 537.807 70.7905C538.86 72.9567 540.275 74.5961 542.05 75.7088C543.838 76.8215 545.832 77.3778 548.034 77.3778C549.241 77.3778 550.402 77.2121 551.514 76.8807C552.627 76.5492 553.639 76.058 554.55 75.407C555.474 74.7441 556.255 73.9332 556.894 72.9744C557.545 72.0038 558.001 70.8911 558.261 69.6364H562.665C562.333 71.4948 561.73 73.1579 560.854 74.6257C559.978 76.0935 558.889 77.3423 557.587 78.3722C556.285 79.3902 554.823 80.1655 553.201 80.6982C551.591 81.2308 549.869 81.4972 548.034 81.4972C544.933 81.4972 542.175 80.7396 539.76 79.2244C537.345 77.7093 535.445 75.5549 534.06 72.7614C532.675 69.9678 531.983 66.6534 531.983 62.8182C531.983 58.983 532.675 55.6686 534.06 52.875C535.445 50.0814 537.345 47.9271 539.76 46.4119C542.175 44.8968 544.933 44.1392 548.034 44.1392C549.869 44.1392 551.591 44.4055 553.201 44.9382C554.823 45.4709 556.285 46.2521 557.587 47.282C558.889 48.3 559.978 49.5428 560.854 51.0107C561.73 52.4666 562.333 54.1297 562.665 56Z" fill="white"/>
<path d="M169.625 81H158.403V44.6364H170.122C173.65 44.6364 176.668 45.3643 179.178 46.8203C181.687 48.2644 183.611 50.3419 184.948 53.0526C186.286 55.7514 186.955 58.983 186.955 62.7472C186.955 66.535 186.28 69.7962 184.93 72.5305C183.581 75.2531 181.616 77.3482 179.036 78.8161C176.455 80.272 173.318 81 169.625 81ZM162.807 77.0938H169.341C172.348 77.0938 174.839 76.5137 176.816 75.3537C178.793 74.1937 180.267 72.5424 181.237 70.3999C182.208 68.2573 182.693 65.7064 182.693 62.7472C182.693 59.8116 182.214 57.2843 181.255 55.1655C180.296 53.0348 178.864 51.4013 176.958 50.2649C175.052 49.1167 172.679 48.5426 169.838 48.5426H162.807V77.0938Z" fill="white"/>
<path d="M219.004 65.5H505.657C505.84 65.5 506.009 65.6 506.097 65.7607L638.39 308.761C638.571 309.094 638.33 309.5 637.951 309.5H92.9365C92.5616 309.5 92.3195 309.102 92.4922 308.77L218.561 65.7695C218.646 65.604 218.817 65.5002 219.004 65.5Z" fill="#008423" stroke="#56C7FF" stroke-width="5"/>
<path d="M176.403 224V187.636H180.807V220.094H197.71V224H176.403ZM221.148 212.849V196.727H225.338V224H221.148V219.384H220.864C220.224 220.768 219.23 221.946 217.881 222.917C216.531 223.876 214.827 224.355 212.767 224.355C211.062 224.355 209.547 223.982 208.222 223.237C206.896 222.479 205.854 221.343 205.097 219.827C204.339 218.3 203.96 216.377 203.96 214.057V196.727H208.151V213.773C208.151 215.761 208.707 217.348 209.82 218.531C210.944 219.715 212.376 220.307 214.116 220.307C215.158 220.307 216.218 220.04 217.295 219.508C218.384 218.975 219.295 218.158 220.029 217.058C220.775 215.957 221.148 214.554 221.148 212.849ZM241.039 224.639C239.31 224.639 237.742 224.314 236.333 223.663C234.925 223 233.806 222.047 232.977 220.804C232.149 219.549 231.735 218.034 231.735 216.259C231.735 214.696 232.042 213.429 232.658 212.459C233.273 211.476 234.096 210.707 235.126 210.151C236.156 209.594 237.292 209.18 238.535 208.908C239.79 208.624 241.05 208.399 242.317 208.233C243.974 208.02 245.318 207.86 246.347 207.754C247.389 207.635 248.147 207.44 248.62 207.168C249.106 206.895 249.348 206.422 249.348 205.747V205.605C249.348 203.853 248.869 202.492 247.91 201.521C246.963 200.551 245.525 200.065 243.595 200.065C241.595 200.065 240.026 200.503 238.89 201.379C237.754 202.255 236.955 203.19 236.493 204.185L232.516 202.764C233.226 201.107 234.173 199.817 235.357 198.893C236.552 197.958 237.854 197.307 239.263 196.94C240.683 196.562 242.08 196.372 243.453 196.372C244.329 196.372 245.335 196.479 246.472 196.692C247.62 196.893 248.727 197.313 249.792 197.952C250.869 198.592 251.763 199.556 252.473 200.847C253.183 202.137 253.539 203.865 253.539 206.031V224H249.348V220.307H249.135C248.851 220.899 248.378 221.532 247.715 222.207C247.052 222.881 246.17 223.455 245.069 223.929C243.968 224.402 242.625 224.639 241.039 224.639ZM241.678 220.875C243.335 220.875 244.732 220.549 245.868 219.898C247.016 219.247 247.88 218.407 248.46 217.377C249.052 216.347 249.348 215.264 249.348 214.128V210.293C249.171 210.506 248.78 210.701 248.176 210.879C247.584 211.044 246.898 211.192 246.117 211.322C245.347 211.441 244.596 211.547 243.862 211.642C243.14 211.725 242.554 211.796 242.104 211.855C241.015 211.997 239.997 212.228 239.05 212.548C238.115 212.855 237.357 213.323 236.777 213.95C236.209 214.566 235.925 215.406 235.925 216.472C235.925 217.928 236.463 219.028 237.541 219.774C238.63 220.508 240.009 220.875 241.678 220.875ZM280.505 202.835L276.741 203.901C276.504 203.273 276.155 202.664 275.693 202.072C275.243 201.468 274.628 200.971 273.847 200.58C273.065 200.19 272.065 199.994 270.846 199.994C269.177 199.994 267.786 200.379 266.673 201.148C265.572 201.906 265.022 202.871 265.022 204.043C265.022 205.084 265.401 205.907 266.158 206.511C266.916 207.114 268.1 207.617 269.71 208.02L273.758 209.014C276.196 209.606 278.013 210.512 279.209 211.731C280.404 212.938 281.002 214.495 281.002 216.401C281.002 217.963 280.552 219.36 279.653 220.591C278.765 221.822 277.522 222.793 275.924 223.503C274.326 224.213 272.468 224.568 270.349 224.568C267.567 224.568 265.265 223.964 263.442 222.757C261.619 221.55 260.465 219.786 259.979 217.466L263.957 216.472C264.335 217.939 265.052 219.04 266.105 219.774C267.17 220.508 268.561 220.875 270.278 220.875C272.231 220.875 273.781 220.461 274.93 219.632C276.09 218.792 276.67 217.786 276.67 216.614C276.67 215.667 276.338 214.874 275.675 214.234C275.013 213.583 273.995 213.098 272.621 212.778L268.076 211.713C265.578 211.121 263.744 210.204 262.572 208.961C261.412 207.706 260.832 206.138 260.832 204.256C260.832 202.717 261.264 201.356 262.128 200.172C263.004 198.988 264.193 198.059 265.697 197.384C267.212 196.71 268.928 196.372 270.846 196.372C273.545 196.372 275.664 196.964 277.202 198.148C278.753 199.331 279.854 200.894 280.505 202.835ZM303.077 202.48V198.645H324.952V202.48H303.077ZM303.077 212.991V209.156H324.952V212.991H303.077ZM348.323 224V220.804L360.326 207.665C361.734 206.126 362.894 204.788 363.806 203.652C364.717 202.504 365.392 201.427 365.83 200.42C366.28 199.402 366.505 198.337 366.505 197.224C366.505 195.946 366.197 194.839 365.581 193.904C364.978 192.969 364.149 192.247 363.096 191.738C362.042 191.229 360.858 190.974 359.544 190.974C358.148 190.974 356.928 191.264 355.887 191.844C354.857 192.413 354.058 193.212 353.49 194.241C352.933 195.271 352.655 196.479 352.655 197.864H348.465C348.465 195.733 348.956 193.863 349.939 192.253C350.921 190.643 352.259 189.388 353.951 188.489C355.656 187.589 357.568 187.139 359.686 187.139C361.817 187.139 363.705 187.589 365.35 188.489C366.996 189.388 368.286 190.602 369.221 192.129C370.156 193.656 370.624 195.354 370.624 197.224C370.624 198.562 370.381 199.87 369.896 201.148C369.422 202.415 368.594 203.83 367.41 205.392C366.238 206.943 364.611 208.837 362.527 211.074L354.36 219.81V220.094H371.263V224H348.323ZM390.457 224.497C387.782 224.497 385.503 223.769 383.621 222.313C381.739 220.845 380.301 218.721 379.306 215.939C378.312 213.145 377.815 209.772 377.815 205.818C377.815 201.888 378.312 198.532 379.306 195.751C380.313 192.957 381.757 190.826 383.639 189.359C385.533 187.879 387.806 187.139 390.457 187.139C393.109 187.139 395.375 187.879 397.257 189.359C399.151 190.826 400.596 192.957 401.59 195.751C402.596 198.532 403.099 201.888 403.099 205.818C403.099 209.772 402.602 213.145 401.608 215.939C400.613 218.721 399.175 220.845 397.293 222.313C395.411 223.769 393.132 224.497 390.457 224.497ZM390.457 220.591C393.109 220.591 395.168 219.312 396.636 216.756C398.104 214.199 398.838 210.553 398.838 205.818C398.838 202.67 398.5 199.988 397.826 197.775C397.163 195.561 396.204 193.875 394.949 192.714C393.706 191.554 392.209 190.974 390.457 190.974C387.829 190.974 385.775 192.271 384.296 194.863C382.816 197.443 382.076 201.095 382.076 205.818C382.076 208.967 382.408 211.642 383.071 213.844C383.734 216.045 384.686 217.72 385.929 218.869C387.184 220.017 388.693 220.591 390.457 220.591ZM411.702 224.284C410.826 224.284 410.074 223.97 409.447 223.343C408.819 222.716 408.506 221.964 408.506 221.088C408.506 220.212 408.819 219.46 409.447 218.833C410.074 218.206 410.826 217.892 411.702 217.892C412.578 217.892 413.329 218.206 413.957 218.833C414.584 219.46 414.898 220.212 414.898 221.088C414.898 221.668 414.75 222.201 414.454 222.686C414.17 223.171 413.785 223.562 413.3 223.858C412.826 224.142 412.294 224.284 411.702 224.284ZM422.75 224L439.014 191.827V191.543H420.264V187.636H443.56V191.756L427.367 224H422.75ZM461.471 224.497C459.979 224.473 458.488 224.189 456.996 223.645C455.505 223.1 454.144 222.183 452.913 220.893C451.682 219.591 450.693 217.833 449.947 215.619C449.202 213.394 448.829 210.6 448.829 207.239C448.829 204.019 449.131 201.166 449.734 198.68C450.338 196.183 451.214 194.082 452.362 192.377C453.51 190.661 454.895 189.359 456.517 188.471C458.151 187.583 459.991 187.139 462.039 187.139C464.075 187.139 465.886 187.548 467.472 188.364C469.07 189.169 470.372 190.294 471.379 191.738C472.385 193.182 473.036 194.845 473.332 196.727H468.999C468.597 195.094 467.816 193.738 466.656 192.661C465.496 191.584 463.957 191.045 462.039 191.045C459.222 191.045 457.002 192.271 455.381 194.721C453.771 197.171 452.96 200.61 452.948 205.037H453.232C453.895 204.031 454.682 203.173 455.594 202.462C456.517 201.74 457.535 201.184 458.648 200.793C459.76 200.403 460.938 200.207 462.181 200.207C464.264 200.207 466.17 200.728 467.898 201.77C469.627 202.8 471.012 204.226 472.053 206.049C473.095 207.86 473.616 209.938 473.616 212.281C473.616 214.53 473.113 216.59 472.107 218.46C471.1 220.319 469.686 221.798 467.863 222.899C466.052 223.988 463.921 224.521 461.471 224.497ZM461.471 220.591C462.962 220.591 464.3 220.218 465.484 219.472C466.679 218.727 467.62 217.726 468.307 216.472C469.005 215.217 469.354 213.82 469.354 212.281C469.354 210.778 469.017 209.411 468.342 208.18C467.679 206.937 466.762 205.948 465.59 205.214C464.43 204.481 463.104 204.114 461.613 204.114C460.488 204.114 459.441 204.339 458.47 204.788C457.5 205.226 456.647 205.83 455.913 206.599C455.191 207.369 454.623 208.251 454.209 209.245C453.795 210.228 453.587 211.263 453.587 212.352C453.587 213.796 453.925 215.146 454.599 216.401C455.286 217.655 456.221 218.667 457.405 219.437C458.6 220.206 459.956 220.591 461.471 220.591ZM494.732 224V196.727H498.78V200.989H499.135C499.703 199.533 500.621 198.402 501.887 197.597C503.154 196.781 504.675 196.372 506.45 196.372C508.25 196.372 509.747 196.781 510.943 197.597C512.15 198.402 513.091 199.533 513.766 200.989H514.05C514.748 199.58 515.796 198.461 517.193 197.633C518.589 196.792 520.264 196.372 522.218 196.372C524.656 196.372 526.651 197.136 528.201 198.663C529.752 200.178 530.527 202.539 530.527 205.747V224H526.337V205.747C526.337 203.735 525.786 202.297 524.686 201.433C523.585 200.568 522.289 200.136 520.797 200.136C518.879 200.136 517.394 200.716 516.34 201.876C515.287 203.025 514.76 204.481 514.76 206.244V224H510.499V205.321C510.499 203.77 509.996 202.522 508.99 201.575C507.983 200.616 506.687 200.136 505.101 200.136C504.012 200.136 502.994 200.426 502.047 201.006C501.112 201.586 500.354 202.391 499.774 203.421C499.206 204.439 498.922 205.617 498.922 206.955V224H494.732ZM536.839 205.818V203.048L545.149 195.662C545.978 194.928 546.67 194.271 547.226 193.691C547.783 193.111 548.203 192.549 548.487 192.004C548.771 191.46 548.913 190.88 548.913 190.264C548.913 189.199 548.505 188.353 547.688 187.725C546.871 187.098 545.859 186.784 544.652 186.784C543.373 186.784 542.344 187.127 541.562 187.814C540.781 188.489 540.39 189.376 540.39 190.477H536.697C536.697 188.453 537.449 186.826 538.952 185.594C540.456 184.352 542.379 183.73 544.723 183.73C546.285 183.73 547.658 184.014 548.842 184.582C550.026 185.139 550.949 185.908 551.612 186.891C552.275 187.861 552.606 188.962 552.606 190.193C552.606 191.164 552.411 192.063 552.02 192.892C551.63 193.721 551.02 194.579 550.192 195.467C549.363 196.354 548.298 197.366 546.996 198.503L542.379 202.551V202.693H553.246V205.818H536.839Z" fill="white"/>
</svg>
