<svg width="720" height="398" viewBox="0 0 720 398" fill="none" xmlns="http://www.w3.org/2000/svg">
<g clip-path="url(#clip0_13_495)">
<rect x="220" y="274" width="36" height="36" stroke="#FFB200" stroke-width="4"/>
<rect opacity="0.3" x="470" y="272" width="36" height="36" stroke="#FFB200" stroke-width="4"/>
<path d="M48.8949 312H44.2784L57.6307 275.636H62.1761L75.5284 312H70.9119L60.0455 281.389H59.7614L48.8949 312ZM50.5994 297.795H69.2074V301.702H50.5994V297.795Z" fill="white"/>
<path opacity="0.3" d="M152.087 272.348C151.043 272.331 149.999 272.133 148.955 271.751C147.911 271.37 146.958 270.728 146.096 269.825C145.234 268.913 144.542 267.683 144.02 266.134C143.498 264.576 143.237 262.62 143.237 260.267C143.237 258.013 143.449 256.016 143.871 254.276C144.294 252.528 144.907 251.057 145.711 249.864C146.514 248.663 147.484 247.751 148.619 247.13C149.762 246.508 151.051 246.197 152.484 246.197C153.91 246.197 155.177 246.483 156.288 247.055C157.406 247.618 158.318 248.406 159.022 249.417C159.726 250.427 160.182 251.592 160.389 252.909H157.357C157.075 251.766 156.528 250.817 155.716 250.063C154.904 249.309 153.827 248.932 152.484 248.932C150.512 248.932 148.959 249.789 147.824 251.505C146.697 253.22 146.129 255.627 146.121 258.726H146.32C146.784 258.022 147.335 257.421 147.973 256.924C148.619 256.418 149.332 256.029 150.11 255.755C150.889 255.482 151.714 255.345 152.584 255.345C154.042 255.345 155.376 255.71 156.586 256.439C157.796 257.16 158.765 258.158 159.494 259.434C160.223 260.702 160.588 262.156 160.588 263.797C160.588 265.371 160.236 266.813 159.532 268.122C158.827 269.423 157.837 270.459 156.561 271.229C155.293 271.992 153.802 272.365 152.087 272.348ZM152.087 269.614C153.131 269.614 154.067 269.353 154.896 268.831C155.732 268.309 156.391 267.608 156.872 266.73C157.361 265.852 157.605 264.874 157.605 263.797C157.605 262.745 157.369 261.788 156.897 260.926C156.433 260.056 155.79 259.364 154.97 258.85C154.158 258.336 153.23 258.08 152.186 258.08C151.399 258.08 150.666 258.237 149.986 258.552C149.307 258.858 148.71 259.281 148.196 259.82C147.691 260.358 147.293 260.975 147.003 261.672C146.713 262.359 146.568 263.084 146.568 263.847C146.568 264.857 146.804 265.802 147.277 266.68C147.757 267.559 148.412 268.267 149.24 268.806C150.077 269.344 151.026 269.614 152.087 269.614ZM173.778 272.348C171.906 272.348 170.311 271.838 168.993 270.819C167.676 269.792 166.669 268.304 165.973 266.357C165.277 264.402 164.929 262.04 164.929 259.273C164.929 256.522 165.277 254.173 165.973 252.225C166.677 250.27 167.688 248.779 169.006 247.751C170.331 246.715 171.922 246.197 173.778 246.197C175.634 246.197 177.221 246.715 178.539 247.751C179.864 248.779 180.875 250.27 181.571 252.225C182.276 254.173 182.628 256.522 182.628 259.273C182.628 262.04 182.28 264.402 181.584 266.357C180.888 268.304 179.881 269.792 178.563 270.819C177.246 271.838 175.651 272.348 173.778 272.348ZM173.778 269.614C175.634 269.614 177.076 268.719 178.104 266.929C179.131 265.139 179.645 262.587 179.645 259.273C179.645 257.069 179.409 255.192 178.936 253.642C178.472 252.093 177.801 250.912 176.923 250.1C176.053 249.288 175.005 248.882 173.778 248.882C171.939 248.882 170.501 249.789 169.465 251.604C168.43 253.41 167.912 255.967 167.912 259.273C167.912 261.477 168.144 263.349 168.608 264.891C169.072 266.432 169.739 267.604 170.609 268.408C171.487 269.212 172.544 269.614 173.778 269.614ZM192.67 257.781C191.618 257.781 190.657 257.524 189.787 257.011C188.925 256.497 188.237 255.809 187.724 254.947C187.21 254.077 186.953 253.116 186.953 252.064C186.953 251.012 187.21 250.055 187.724 249.193C188.237 248.323 188.925 247.631 189.787 247.117C190.657 246.603 191.618 246.347 192.67 246.347C193.723 246.347 194.68 246.603 195.541 247.117C196.411 247.631 197.103 248.323 197.617 249.193C198.131 250.055 198.388 251.012 198.388 252.064C198.388 253.116 198.131 254.077 197.617 254.947C197.103 255.809 196.411 256.497 195.541 257.011C194.68 257.524 193.723 257.781 192.67 257.781ZM192.67 255.295C193.267 255.295 193.81 255.15 194.299 254.86C194.787 254.57 195.177 254.181 195.467 253.692C195.757 253.203 195.902 252.661 195.902 252.064C195.902 251.467 195.757 250.925 195.467 250.436C195.177 249.947 194.787 249.557 194.299 249.267C193.81 248.977 193.267 248.832 192.67 248.832C192.074 248.832 191.531 248.977 191.042 249.267C190.553 249.557 190.164 249.947 189.874 250.436C189.584 250.925 189.439 251.467 189.439 252.064C189.439 252.661 189.584 253.203 189.874 253.692C190.164 254.181 190.553 254.57 191.042 254.86C191.531 255.15 192.074 255.295 192.67 255.295Z" fill="white"/>
<path opacity="0.3" d="M549.087 270.348C548.043 270.331 546.999 270.133 545.955 269.751C544.911 269.37 543.958 268.728 543.096 267.825C542.234 266.913 541.542 265.683 541.02 264.134C540.498 262.576 540.237 260.62 540.237 258.267C540.237 256.013 540.449 254.016 540.871 252.276C541.294 250.528 541.907 249.057 542.711 247.864C543.514 246.663 544.484 245.751 545.619 245.13C546.762 244.508 548.051 244.197 549.484 244.197C550.91 244.197 552.177 244.483 553.288 245.055C554.406 245.618 555.318 246.406 556.022 247.417C556.726 248.427 557.182 249.592 557.389 250.909H554.357C554.075 249.766 553.528 248.817 552.716 248.063C551.904 247.309 550.827 246.932 549.484 246.932C547.512 246.932 545.959 247.789 544.824 249.505C543.697 251.22 543.129 253.627 543.121 256.726H543.32C543.784 256.022 544.335 255.421 544.973 254.924C545.619 254.418 546.332 254.029 547.11 253.755C547.889 253.482 548.714 253.345 549.584 253.345C551.042 253.345 552.376 253.71 553.586 254.439C554.796 255.16 555.765 256.158 556.494 257.434C557.223 258.702 557.588 260.156 557.588 261.797C557.588 263.371 557.236 264.813 556.532 266.122C555.827 267.423 554.837 268.459 553.561 269.229C552.293 269.992 550.802 270.365 549.087 270.348ZM549.087 267.614C550.131 267.614 551.067 267.353 551.896 266.831C552.732 266.309 553.391 265.608 553.872 264.73C554.361 263.852 554.605 262.874 554.605 261.797C554.605 260.745 554.369 259.788 553.897 258.926C553.433 258.056 552.79 257.364 551.97 256.85C551.158 256.336 550.23 256.08 549.186 256.08C548.399 256.08 547.666 256.237 546.986 256.552C546.307 256.858 545.71 257.281 545.196 257.82C544.691 258.358 544.293 258.975 544.003 259.672C543.713 260.359 543.568 261.084 543.568 261.847C543.568 262.857 543.804 263.802 544.277 264.68C544.757 265.559 545.412 266.267 546.24 266.806C547.077 267.344 548.026 267.614 549.087 267.614ZM570.778 270.348C568.906 270.348 567.311 269.838 565.993 268.819C564.676 267.792 563.669 266.304 562.973 264.357C562.277 262.402 561.929 260.04 561.929 257.273C561.929 254.522 562.277 252.173 562.973 250.225C563.677 248.27 564.688 246.779 566.006 245.751C567.331 244.715 568.922 244.197 570.778 244.197C572.634 244.197 574.221 244.715 575.539 245.751C576.864 246.779 577.875 248.27 578.571 250.225C579.276 252.173 579.628 254.522 579.628 257.273C579.628 260.04 579.28 262.402 578.584 264.357C577.888 266.304 576.881 267.792 575.563 268.819C574.246 269.838 572.651 270.348 570.778 270.348ZM570.778 267.614C572.634 267.614 574.076 266.719 575.104 264.929C576.131 263.139 576.645 260.587 576.645 257.273C576.645 255.069 576.409 253.192 575.936 251.642C575.472 250.093 574.801 248.912 573.923 248.1C573.053 247.288 572.005 246.882 570.778 246.882C568.939 246.882 567.501 247.789 566.465 249.604C565.43 251.41 564.912 253.967 564.912 257.273C564.912 259.477 565.144 261.349 565.608 262.891C566.072 264.432 566.739 265.604 567.609 266.408C568.487 267.212 569.544 267.614 570.778 267.614ZM589.67 255.781C588.618 255.781 587.657 255.524 586.787 255.011C585.925 254.497 585.237 253.809 584.724 252.947C584.21 252.077 583.953 251.116 583.953 250.064C583.953 249.012 584.21 248.055 584.724 247.193C585.237 246.323 585.925 245.631 586.787 245.117C587.657 244.603 588.618 244.347 589.67 244.347C590.723 244.347 591.68 244.603 592.541 245.117C593.411 245.631 594.103 246.323 594.617 247.193C595.131 248.055 595.388 249.012 595.388 250.064C595.388 251.116 595.131 252.077 594.617 252.947C594.103 253.809 593.411 254.497 592.541 255.011C591.68 255.524 590.723 255.781 589.67 255.781ZM589.67 253.295C590.267 253.295 590.81 253.15 591.299 252.86C591.787 252.57 592.177 252.181 592.467 251.692C592.757 251.203 592.902 250.661 592.902 250.064C592.902 249.467 592.757 248.925 592.467 248.436C592.177 247.947 591.787 247.557 591.299 247.267C590.81 246.977 590.267 246.832 589.67 246.832C589.074 246.832 588.531 246.977 588.042 247.267C587.553 247.557 587.164 247.947 586.874 248.436C586.584 248.925 586.439 249.467 586.439 250.064C586.439 250.661 586.584 251.203 586.874 251.692C587.164 252.181 587.553 252.57 588.042 252.86C588.531 253.15 589.074 253.295 589.67 253.295Z" fill="white"/>
<path d="M658.403 312V275.636H671.116C673.65 275.636 675.739 276.074 677.384 276.95C679.03 277.814 680.255 278.98 681.06 280.448C681.865 281.904 682.267 283.52 682.267 285.295C682.267 286.858 681.989 288.148 681.433 289.166C680.888 290.184 680.166 290.989 679.266 291.581C678.379 292.173 677.414 292.611 676.372 292.895V293.25C677.485 293.321 678.603 293.712 679.728 294.422C680.853 295.132 681.794 296.15 682.551 297.476C683.309 298.802 683.688 300.423 683.688 302.341C683.688 304.164 683.273 305.803 682.445 307.259C681.616 308.715 680.308 309.869 678.521 310.722C676.733 311.574 674.407 312 671.543 312H658.403ZM662.807 308.094H671.543C674.419 308.094 676.461 307.537 677.668 306.425C678.888 305.3 679.497 303.939 679.497 302.341C679.497 301.11 679.183 299.973 678.556 298.932C677.929 297.878 677.035 297.038 675.875 296.411C674.715 295.771 673.342 295.452 671.756 295.452H662.807V308.094ZM662.807 291.616H670.974C672.3 291.616 673.496 291.356 674.561 290.835C675.638 290.314 676.491 289.58 677.118 288.634C677.757 287.687 678.077 286.574 678.077 285.295C678.077 283.697 677.52 282.342 676.408 281.229C675.295 280.105 673.531 279.543 671.116 279.543H662.807V291.616Z" fill="white"/>
<path d="M562.665 56H558.261C558.001 54.7334 557.545 53.6207 556.894 52.6619C556.255 51.7031 555.474 50.8982 554.55 50.2472C553.639 49.5843 552.627 49.0871 551.514 48.7557C550.402 48.4242 549.241 48.2585 548.034 48.2585C545.832 48.2585 543.838 48.8149 542.05 49.9276C540.275 51.0402 538.86 52.6797 537.807 54.8459C536.765 57.0121 536.244 59.6695 536.244 62.8182C536.244 65.9669 536.765 68.6243 537.807 70.7905C538.86 72.9567 540.275 74.5961 542.05 75.7088C543.838 76.8215 545.832 77.3778 548.034 77.3778C549.241 77.3778 550.402 77.2121 551.514 76.8807C552.627 76.5492 553.639 76.058 554.55 75.407C555.474 74.7441 556.255 73.9332 556.894 72.9744C557.545 72.0038 558.001 70.8911 558.261 69.6364H562.665C562.333 71.4948 561.73 73.1579 560.854 74.6257C559.978 76.0935 558.889 77.3423 557.587 78.3722C556.285 79.3902 554.823 80.1655 553.201 80.6982C551.591 81.2308 549.869 81.4972 548.034 81.4972C544.933 81.4972 542.175 80.7396 539.76 79.2244C537.345 77.7093 535.445 75.5549 534.06 72.7614C532.675 69.9678 531.983 66.6534 531.983 62.8182C531.983 58.983 532.675 55.6686 534.06 52.875C535.445 50.0814 537.345 47.9271 539.76 46.4119C542.175 44.8968 544.933 44.1392 548.034 44.1392C549.869 44.1392 551.591 44.4055 553.201 44.9382C554.823 45.4709 556.285 46.2521 557.587 47.282C558.889 48.3 559.978 49.5428 560.854 51.0107C561.73 52.4666 562.333 54.1297 562.665 56Z" fill="white"/>
<path d="M169.625 81H158.403V44.6364H170.122C173.65 44.6364 176.668 45.3643 179.178 46.8203C181.687 48.2644 183.611 50.3419 184.948 53.0526C186.286 55.7514 186.955 58.983 186.955 62.7472C186.955 66.535 186.28 69.7962 184.93 72.5305C183.581 75.2531 181.616 77.3482 179.036 78.8161C176.455 80.272 173.318 81 169.625 81ZM162.807 77.0938H169.341C172.348 77.0938 174.839 76.5137 176.816 75.3537C178.793 74.1937 180.267 72.5424 181.237 70.3999C182.208 68.2573 182.693 65.7064 182.693 62.7472C182.693 59.8116 182.214 57.2843 181.255 55.1655C180.296 53.0348 178.864 51.4013 176.958 50.2649C175.052 49.1167 172.679 48.5426 169.838 48.5426H162.807V77.0938Z" fill="white"/>
<path opacity="0.3" d="M208.699 360V329.455H227.134V332.736H212.398V343.057H226.179V346.338H212.398V356.719H227.372V360H208.699Z" fill="white"/>
<path opacity="0.3" d="M498.699 360V329.455H517.014V332.736H502.398V343.057H515.642V346.338H502.398V360H498.699Z" fill="white"/>
<path d="M219.004 65.5H505.657C505.84 65.5 506.009 65.5999 506.097 65.7607L638.39 308.761C638.571 309.094 638.33 309.5 637.951 309.5H92.9365C92.5616 309.5 92.3195 309.102 92.4922 308.77L218.561 65.7695C218.646 65.604 218.817 65.5002 219.004 65.5Z" stroke="#56C7FF" stroke-width="5"/>
<line x1="543.663" y1="182.358" x2="582.24" y2="163.363" stroke="white" stroke-width="7"/>
<line x1="144.695" y1="160.938" x2="182.317" y2="181.759" stroke="white" stroke-width="7"/>
<path opacity="0.3" d="M120.163 255.972C129.963 260.901 138.099 268.6 143.562 278.112C149.025 287.625 151.574 298.533 150.892 309.481L145.412 309.14C146.027 299.265 143.728 289.427 138.801 280.847C133.874 272.267 126.535 265.323 117.696 260.877L120.163 255.972Z" fill="white"/>
<path opacity="0.3" d="M575 309C575 298.03 578.222 287.302 584.265 278.147C590.309 268.993 598.908 261.815 608.996 257.504L611.153 262.553C602.055 266.441 594.299 272.915 588.847 281.172C583.396 289.43 580.491 299.106 580.491 309H575Z" fill="white"/>
<line x1="220.5" y1="67.0157" x2="219" y2="306.017" stroke="#47D2B6" stroke-width="5"/>
<line opacity="0.3" x1="505.5" y1="68.9789" x2="507.5" y2="305.979" stroke="#FFB200" stroke-width="5" stroke-dasharray="10 10"/>
<path d="M68.8636 154.227V151.909L79.0909 135.727H80.7727V139.318H79.6364L71.9091 151.545V151.727H85.6818V154.227H68.8636ZM79.8182 159V153.523V152.443V135.727H82.5V159H79.8182ZM98.9858 159V141.545H101.577V144.273H101.804C102.168 143.341 102.755 142.617 103.565 142.102C104.376 141.58 105.349 141.318 106.486 141.318C107.637 141.318 108.596 141.58 109.361 142.102C110.134 142.617 110.736 143.341 111.168 144.273H111.349C111.796 143.371 112.467 142.655 113.361 142.125C114.255 141.587 115.327 141.318 116.577 141.318C118.137 141.318 119.414 141.807 120.406 142.784C121.399 143.754 121.895 145.265 121.895 147.318V159H119.213V147.318C119.213 146.03 118.861 145.11 118.156 144.557C117.452 144.004 116.622 143.727 115.668 143.727C114.44 143.727 113.49 144.098 112.815 144.841C112.141 145.576 111.804 146.508 111.804 147.636V159H109.077V147.045C109.077 146.053 108.755 145.254 108.111 144.648C107.467 144.034 106.637 143.727 105.622 143.727C104.925 143.727 104.274 143.913 103.668 144.284C103.069 144.655 102.584 145.17 102.213 145.83C101.849 146.481 101.668 147.235 101.668 148.091V159H98.9858Z" fill="white"/>
<path d="M287.861 47.6392C286.133 47.6392 284.564 47.3137 283.156 46.6626C281.747 45.9998 280.628 45.0469 279.8 43.804C278.971 42.5492 278.557 41.0341 278.557 39.2585C278.557 37.696 278.865 36.4295 279.48 35.4588C280.096 34.4763 280.918 33.7069 281.948 33.1506C282.978 32.5942 284.114 32.1799 285.357 31.9077C286.612 31.6236 287.873 31.3987 289.139 31.233C290.796 31.0199 292.14 30.8601 293.17 30.7536C294.211 30.6352 294.969 30.4399 295.442 30.1676C295.928 29.8954 296.17 29.4219 296.17 28.7472V28.6051C296.17 26.8532 295.691 25.492 294.732 24.5213C293.785 23.5507 292.347 23.0653 290.418 23.0653C288.417 23.0653 286.849 23.5033 285.712 24.3793C284.576 25.2552 283.777 26.1903 283.315 27.1847L279.338 25.7642C280.048 24.107 280.995 22.8168 282.179 21.8935C283.375 20.9583 284.677 20.3073 286.085 19.9403C287.506 19.5616 288.902 19.3722 290.276 19.3722C291.152 19.3722 292.158 19.4787 293.294 19.6918C294.442 19.893 295.549 20.3132 296.614 20.9524C297.692 21.5916 298.585 22.5563 299.295 23.8466C300.006 25.1368 300.361 26.8651 300.361 29.0312V47H296.17V43.3068H295.957C295.673 43.8987 295.2 44.532 294.537 45.2067C293.874 45.8814 292.992 46.4555 291.891 46.929C290.79 47.4025 289.447 47.6392 287.861 47.6392ZM288.5 43.875C290.157 43.875 291.554 43.5495 292.69 42.8984C293.839 42.2474 294.703 41.407 295.283 40.3771C295.875 39.3473 296.17 38.2642 296.17 37.1278V33.2926C295.993 33.5057 295.602 33.701 294.999 33.8786C294.407 34.0443 293.72 34.1922 292.939 34.3224C292.17 34.4408 291.418 34.5473 290.684 34.642C289.962 34.7249 289.376 34.7959 288.926 34.8551C287.837 34.9972 286.819 35.228 285.872 35.5476C284.937 35.8554 284.179 36.3229 283.599 36.9503C283.031 37.5658 282.747 38.4062 282.747 39.4716C282.747 40.9276 283.286 42.0284 284.363 42.7741C285.452 43.508 286.831 43.875 288.5 43.875ZM323.776 25.4801V21.6449H345.651V25.4801H323.776ZM323.776 35.9915V32.1562H345.651V35.9915H323.776ZM368.17 39.5426V35.9205L384.15 10.6364H386.778V16.2472H385.002L372.928 35.3523V35.6364H394.448V39.5426H368.17ZM385.286 47V38.4418V36.755V10.6364H389.477V47H385.286ZM415.236 47V19.7273H419.284V23.9886H419.639C420.207 22.5327 421.125 21.4022 422.391 20.5973C423.658 19.7805 425.179 19.3722 426.954 19.3722C428.754 19.3722 430.251 19.7805 431.447 20.5973C432.654 21.4022 433.595 22.5327 434.27 23.9886H434.554C435.252 22.58 436.3 21.4614 437.697 20.6328C439.093 19.7924 440.768 19.3722 442.721 19.3722C445.16 19.3722 447.154 20.1357 448.705 21.6626C450.256 23.1778 451.031 25.5393 451.031 28.7472V47H446.841V28.7472C446.841 26.7348 446.29 25.2966 445.189 24.4325C444.089 23.5684 442.792 23.1364 441.301 23.1364C439.383 23.1364 437.898 23.7164 436.844 24.8764C435.791 26.0246 435.264 27.4806 435.264 29.2443V47H431.003V28.321C431.003 26.7704 430.5 25.5215 429.493 24.5746C428.487 23.6158 427.191 23.1364 425.605 23.1364C424.516 23.1364 423.498 23.4264 422.551 24.0064C421.616 24.5864 420.858 25.3913 420.278 26.4212C419.71 27.4392 419.426 28.617 419.426 29.9545V47H415.236Z" fill="#56C7FF"/>
<path d="M284.403 362V325.636H288.594V339.06H288.949C289.257 338.586 289.683 337.982 290.227 337.249C290.784 336.503 291.577 335.84 292.607 335.26C293.648 334.668 295.057 334.372 296.832 334.372C299.129 334.372 301.153 334.946 302.905 336.094C304.657 337.243 306.024 338.87 307.006 340.977C307.989 343.084 308.48 345.57 308.48 348.435C308.48 351.323 307.989 353.826 307.006 355.945C306.024 358.052 304.663 359.686 302.923 360.846C301.183 361.994 299.176 362.568 296.903 362.568C295.152 362.568 293.749 362.278 292.695 361.698C291.642 361.106 290.831 360.437 290.263 359.692C289.695 358.934 289.257 358.307 288.949 357.81H288.452V362H284.403ZM288.523 348.364C288.523 350.423 288.825 352.24 289.428 353.815C290.032 355.377 290.914 356.602 292.074 357.49C293.234 358.366 294.654 358.804 296.335 358.804C298.087 358.804 299.549 358.342 300.721 357.419C301.905 356.484 302.792 355.229 303.384 353.655C303.988 352.069 304.29 350.305 304.29 348.364C304.29 346.446 303.994 344.718 303.402 343.179C302.822 341.628 301.94 340.403 300.756 339.504C299.585 338.592 298.111 338.136 296.335 338.136C294.631 338.136 293.198 338.568 292.038 339.433C290.878 340.285 290.002 341.48 289.411 343.019C288.819 344.546 288.523 346.328 288.523 348.364ZM330.657 340.48V336.645H352.532V340.48H330.657ZM330.657 350.991V347.156H352.532V350.991H330.657ZM387.551 362.497C385.112 362.497 382.958 362.065 381.088 361.201C379.229 360.325 377.779 359.124 376.737 357.597C375.696 356.058 375.181 354.306 375.193 352.341C375.181 350.802 375.483 349.382 376.098 348.08C376.714 346.766 377.554 345.671 378.619 344.795C379.697 343.907 380.898 343.345 382.224 343.108V342.895C380.484 342.445 379.099 341.469 378.069 339.965C377.039 338.45 376.53 336.728 376.542 334.798C376.53 332.952 376.998 331.3 377.945 329.844C378.892 328.388 380.194 327.24 381.851 326.4C383.52 325.559 385.42 325.139 387.551 325.139C389.658 325.139 391.54 325.559 393.197 326.4C394.854 327.24 396.156 328.388 397.103 329.844C398.062 331.3 398.547 332.952 398.559 334.798C398.547 336.728 398.021 338.45 396.979 339.965C395.949 341.469 394.582 342.445 392.877 342.895V343.108C394.191 343.345 395.375 343.907 396.428 344.795C397.482 345.671 398.322 346.766 398.95 348.08C399.577 349.382 399.897 350.802 399.909 352.341C399.897 354.306 399.364 356.058 398.311 357.597C397.269 359.124 395.819 360.325 393.96 361.201C392.114 362.065 389.977 362.497 387.551 362.497ZM387.551 358.591C389.196 358.591 390.616 358.325 391.812 357.792C393.008 357.259 393.931 356.508 394.582 355.537C395.233 354.566 395.564 353.43 395.576 352.128C395.564 350.755 395.209 349.541 394.511 348.488C393.812 347.434 392.86 346.606 391.652 346.002C390.457 345.398 389.089 345.097 387.551 345.097C386 345.097 384.615 345.398 383.396 346.002C382.188 346.606 381.235 347.434 380.537 348.488C379.851 349.541 379.513 350.755 379.525 352.128C379.513 353.43 379.827 354.566 380.466 355.537C381.117 356.508 382.046 357.259 383.254 357.792C384.461 358.325 385.893 358.591 387.551 358.591ZM387.551 341.332C388.853 341.332 390.007 341.072 391.013 340.551C392.031 340.03 392.83 339.302 393.41 338.367C393.99 337.432 394.286 336.337 394.298 335.082C394.286 333.851 393.996 332.78 393.428 331.869C392.86 330.945 392.072 330.235 391.066 329.738C390.06 329.229 388.888 328.974 387.551 328.974C386.189 328.974 385 329.229 383.982 329.738C382.964 330.235 382.177 330.945 381.62 331.869C381.064 332.78 380.792 333.851 380.803 335.082C380.792 336.337 381.07 337.432 381.638 338.367C382.218 339.302 383.017 340.03 384.035 340.551C385.053 341.072 386.225 341.332 387.551 341.332ZM420.847 362V334.727H424.895V338.989H425.25C425.819 337.533 426.736 336.402 428.002 335.597C429.269 334.781 430.79 334.372 432.566 334.372C434.365 334.372 435.862 334.781 437.058 335.597C438.265 336.402 439.206 337.533 439.881 338.989H440.165C440.864 337.58 441.911 336.461 443.308 335.633C444.705 334.792 446.38 334.372 448.333 334.372C450.771 334.372 452.766 335.136 454.316 336.663C455.867 338.178 456.642 340.539 456.642 343.747V362H452.452V343.747C452.452 341.735 451.902 340.297 450.801 339.433C449.7 338.568 448.404 338.136 446.912 338.136C444.995 338.136 443.509 338.716 442.456 339.876C441.402 341.025 440.875 342.481 440.875 344.244V362H436.614V343.321C436.614 341.77 436.111 340.522 435.105 339.575C434.099 338.616 432.802 338.136 431.216 338.136C430.127 338.136 429.109 338.426 428.162 339.006C427.227 339.586 426.47 340.391 425.89 341.421C425.321 342.439 425.037 343.617 425.037 344.955V362H420.847Z" fill="#56C7FF"/>
<path d="M243.223 192.234V207H239.452V174.273H243.223V186.29H243.543C244.118 185.022 244.981 184.015 246.131 183.27C247.293 182.513 248.837 182.135 250.766 182.135C252.438 182.135 253.903 182.471 255.16 183.142C256.417 183.802 257.392 184.82 258.085 186.194C258.788 187.558 259.139 189.294 259.139 191.403V207H255.368V191.659C255.368 189.71 254.862 188.202 253.85 187.137C252.848 186.061 251.458 185.523 249.679 185.523C248.443 185.523 247.335 185.784 246.355 186.306C245.386 186.828 244.619 187.589 244.054 188.591C243.5 189.592 243.223 190.807 243.223 192.234ZM280.229 187.632V184.18H299.916V187.632H280.229ZM280.229 197.092V193.641H299.916V197.092H280.229ZM320.95 207V204.124L331.753 192.298C333.021 190.913 334.065 189.71 334.885 188.687C335.705 187.653 336.313 186.684 336.707 185.778C337.112 184.862 337.314 183.903 337.314 182.902C337.314 181.751 337.037 180.755 336.483 179.914C335.94 179.072 335.194 178.422 334.246 177.964C333.298 177.506 332.232 177.277 331.05 177.277C329.793 177.277 328.695 177.538 327.758 178.06C326.831 178.571 326.112 179.29 325.6 180.217C325.1 181.144 324.849 182.231 324.849 183.477H321.078C321.078 181.56 321.52 179.876 322.404 178.428C323.289 176.979 324.493 175.849 326.016 175.04C327.55 174.23 329.271 173.825 331.178 173.825C333.095 173.825 334.794 174.23 336.275 175.04C337.756 175.849 338.917 176.941 339.759 178.316C340.6 179.69 341.021 181.219 341.021 182.902C341.021 184.106 340.803 185.283 340.366 186.434C339.94 187.574 339.194 188.847 338.129 190.253C337.074 191.648 335.609 193.353 333.734 195.366L326.384 203.229V203.484H341.597V207H320.95ZM357.209 201.567L367.309 174.273H371.815L359.446 207H356.57L357.209 201.567ZM353.757 189.678L358.168 201.567L358.999 207H356.123L349.283 189.678H353.757ZM346.471 193.193V189.678H353.63V193.193H346.471ZM387.643 207.447C385.534 207.447 383.654 207.085 382.002 206.361C380.362 205.636 379.057 204.63 378.087 203.341C377.128 202.041 376.606 200.533 376.521 198.818H380.548C380.633 199.873 380.996 200.784 381.635 201.551C382.274 202.307 383.11 202.893 384.144 203.309C385.177 203.724 386.322 203.932 387.579 203.932C388.986 203.932 390.232 203.687 391.319 203.197C392.405 202.707 393.258 202.025 393.876 201.151C394.493 200.278 394.802 199.266 394.802 198.115C394.802 196.911 394.504 195.851 393.907 194.935C393.311 194.008 392.437 193.284 391.287 192.762C390.136 192.24 388.73 191.979 387.068 191.979H384.447V188.463H387.068C388.368 188.463 389.508 188.229 390.488 187.76C391.479 187.291 392.251 186.631 392.805 185.778C393.369 184.926 393.652 183.925 393.652 182.774C393.652 181.666 393.407 180.702 392.917 179.882C392.427 179.061 391.734 178.422 390.839 177.964C389.955 177.506 388.911 177.277 387.707 177.277C386.578 177.277 385.513 177.485 384.511 177.9C383.52 178.305 382.711 178.896 382.082 179.674C381.454 180.441 381.113 181.368 381.059 182.455H377.224C377.288 180.739 377.805 179.237 378.774 177.948C379.744 176.648 381.012 175.636 382.578 174.912C384.154 174.187 385.885 173.825 387.771 173.825C389.795 173.825 391.532 174.235 392.981 175.056C394.43 175.865 395.543 176.936 396.32 178.268C397.098 179.599 397.487 181.038 397.487 182.582C397.487 184.425 397.002 185.997 396.033 187.297C395.074 188.596 393.769 189.496 392.118 189.997V190.253C394.184 190.594 395.798 191.473 396.96 192.89C398.121 194.296 398.702 196.038 398.702 198.115C398.702 199.894 398.217 201.492 397.247 202.909C396.289 204.315 394.978 205.423 393.316 206.233C391.654 207.043 389.763 207.447 387.643 207.447ZM417.958 207V182.455H421.601V186.29H421.921C422.432 184.979 423.258 183.962 424.398 183.238C425.537 182.502 426.906 182.135 428.504 182.135C430.124 182.135 431.471 182.502 432.547 183.238C433.634 183.962 434.481 184.979 435.088 186.29H435.344C435.972 185.022 436.915 184.015 438.172 183.27C439.43 182.513 440.937 182.135 442.695 182.135C444.889 182.135 446.684 182.822 448.08 184.196C449.476 185.56 450.173 187.685 450.173 190.572V207H446.402V190.572C446.402 188.761 445.907 187.467 444.916 186.689C443.925 185.912 442.759 185.523 441.416 185.523C439.691 185.523 438.354 186.045 437.405 187.089C436.457 188.122 435.983 189.433 435.983 191.02V207H432.148V190.189C432.148 188.793 431.695 187.669 430.79 186.817C429.884 185.954 428.718 185.523 427.29 185.523C426.31 185.523 425.394 185.784 424.541 186.306C423.7 186.828 423.018 187.552 422.496 188.479C421.985 189.395 421.729 190.455 421.729 191.659V207H417.958Z" fill="#47D2B6"/>
<path opacity="0.3" d="M122.635 358V355.763L131.037 346.565C132.023 345.488 132.835 344.552 133.473 343.756C134.111 342.953 134.583 342.199 134.89 341.494C135.205 340.782 135.362 340.036 135.362 339.257C135.362 338.362 135.147 337.587 134.716 336.933C134.293 336.278 133.713 335.773 132.976 335.417C132.238 335.06 131.41 334.882 130.49 334.882C129.512 334.882 128.659 335.085 127.93 335.491C127.209 335.889 126.65 336.448 126.252 337.169C125.862 337.89 125.668 338.735 125.668 339.705H122.734C122.734 338.213 123.078 336.904 123.766 335.777C124.454 334.65 125.39 333.772 126.575 333.142C127.768 332.512 129.106 332.197 130.589 332.197C132.081 332.197 133.403 332.512 134.554 333.142C135.706 333.772 136.609 334.621 137.264 335.69C137.918 336.759 138.246 337.948 138.246 339.257C138.246 340.193 138.076 341.109 137.736 342.004C137.405 342.891 136.825 343.881 135.996 344.974C135.176 346.06 134.036 347.386 132.578 348.952L126.861 355.067V355.266H138.693V358H122.635ZM153.72 358V338.909H156.554V341.892H156.802C157.2 340.873 157.842 340.082 158.729 339.518C159.615 338.946 160.68 338.661 161.923 338.661C163.182 338.661 164.231 338.946 165.067 339.518C165.913 340.082 166.571 340.873 167.044 341.892H167.243C167.731 340.906 168.465 340.123 169.442 339.543C170.42 338.955 171.593 338.661 172.96 338.661C174.667 338.661 176.063 339.195 177.148 340.264C178.234 341.324 178.777 342.978 178.777 345.223V358H175.843V345.223C175.843 343.814 175.458 342.808 174.688 342.203C173.917 341.598 173.01 341.295 171.966 341.295C170.623 341.295 169.583 341.701 168.846 342.513C168.108 343.317 167.74 344.336 167.74 345.571V358H164.757V344.925C164.757 343.839 164.405 342.965 163.7 342.302C162.996 341.631 162.089 341.295 160.978 341.295C160.216 341.295 159.503 341.498 158.841 341.904C158.186 342.31 157.656 342.874 157.25 343.595C156.852 344.307 156.653 345.132 156.653 346.068V358H153.72Z" fill="#FFB84B"/>
<path opacity="0.3" d="M550.409 354V351.955L558.091 343.545C558.992 342.561 559.735 341.705 560.318 340.977C560.902 340.242 561.333 339.553 561.614 338.909C561.902 338.258 562.045 337.576 562.045 336.864C562.045 336.045 561.848 335.337 561.455 334.739C561.068 334.14 560.538 333.678 559.864 333.352C559.189 333.027 558.432 332.864 557.591 332.864C556.697 332.864 555.917 333.049 555.25 333.42C554.591 333.784 554.08 334.295 553.716 334.955C553.36 335.614 553.182 336.386 553.182 337.273H550.5C550.5 335.909 550.814 334.712 551.443 333.682C552.072 332.652 552.928 331.848 554.011 331.273C555.102 330.697 556.326 330.409 557.682 330.409C559.045 330.409 560.254 330.697 561.307 331.273C562.36 331.848 563.186 332.625 563.784 333.602C564.383 334.58 564.682 335.667 564.682 336.864C564.682 337.72 564.527 338.557 564.216 339.375C563.913 340.186 563.383 341.091 562.625 342.091C561.875 343.083 560.833 344.295 559.5 345.727L554.273 351.318V351.5H565.091V354H550.409ZM578.83 354V336.545H581.42V339.273H581.648C582.011 338.341 582.598 337.617 583.409 337.102C584.22 336.58 585.193 336.318 586.33 336.318C587.481 336.318 588.439 336.58 589.205 337.102C589.977 337.617 590.58 338.341 591.011 339.273H591.193C591.64 338.371 592.311 337.655 593.205 337.125C594.098 336.587 595.17 336.318 596.42 336.318C597.981 336.318 599.258 336.807 600.25 337.784C601.242 338.754 601.739 340.265 601.739 342.318V354H599.057V342.318C599.057 341.03 598.705 340.11 598 339.557C597.295 339.004 596.466 338.727 595.511 338.727C594.284 338.727 593.333 339.098 592.659 339.841C591.985 340.576 591.648 341.508 591.648 342.636V354H588.92V342.045C588.92 341.053 588.598 340.254 587.955 339.648C587.311 339.034 586.481 338.727 585.466 338.727C584.769 338.727 584.117 338.913 583.511 339.284C582.913 339.655 582.428 340.17 582.057 340.83C581.693 341.481 581.511 342.235 581.511 343.091V354H578.83Z" fill="#FFB84B"/>
<line x1="505.5" y1="67.5" x2="220.5" y2="67.5" stroke="#56C7FF" stroke-width="9" stroke-linecap="round"/>
<line x1="633.508" y1="307.508" x2="95.5082" y2="308.492" stroke="#56C7FF" stroke-width="9" stroke-linecap="round"/>
<line opacity="0.3" x1="366.5" y1="81" x2="366.5" y2="47" stroke="white" stroke-width="7"/>
</g>
<defs>
<clipPath id="clip0_13_495">
<rect width="720" height="398" fill="white"/>
</clipPath>
</defs>
</svg>
