<svg width="648" height="346" viewBox="0 0 648 346" fill="none" xmlns="http://www.w3.org/2000/svg">
<rect x="62" y="32" width="314" height="237" fill="#D69F59" stroke="white" stroke-width="2"/>
<path d="M59.2895 283.274C58.899 283.664 58.899 284.297 59.2895 284.688L65.6534 291.052C66.044 291.442 66.6771 291.442 67.0676 291.052C67.4582 290.661 67.4582 290.028 67.0676 289.638L61.4108 283.981L67.0676 278.324C67.4582 277.933 67.4582 277.3 67.0676 276.91C66.6771 276.519 66.044 276.519 65.6534 276.91L59.2895 283.274ZM376.71 284.688C377.101 284.297 377.101 283.664 376.71 283.274L370.346 276.91C369.956 276.519 369.322 276.519 368.932 276.91C368.541 277.3 368.541 277.933 368.932 278.324L374.589 283.981L368.932 289.638C368.541 290.028 368.541 290.661 368.932 291.052C369.322 291.442 369.956 291.442 370.346 291.052L376.71 284.688ZM59.9966 283.981V284.981H376.003V283.981V282.981H59.9966V283.981Z" fill="white"/>
<path d="M45.2929 271.759C45.6834 272.15 46.3166 272.15 46.7071 271.759L53.0711 265.395C53.4616 265.005 53.4616 264.372 53.0711 263.981C52.6805 263.591 52.0474 263.591 51.6569 263.981L46 269.638L40.3431 263.981C39.9526 263.591 39.3195 263.591 38.9289 263.981C38.5384 264.372 38.5384 265.005 38.9289 265.395L45.2929 271.759ZM46.7071 31.2929C46.3166 30.9023 45.6834 30.9023 45.2929 31.2929L38.9289 37.6568C38.5384 38.0473 38.5384 38.6805 38.9289 39.071C39.3195 39.4616 39.9526 39.4616 40.3431 39.071L46 33.4142L51.6569 39.071C52.0474 39.4616 52.6805 39.4616 53.0711 39.071C53.4616 38.6805 53.4616 38.0473 53.0711 37.6568L46.7071 31.2929ZM46 271.052H47L47 32H46H45L45 271.052H46Z" fill="white"/>
<path d="M37.3281 170.547C37.3125 171.531 37.125 172.516 36.7656 173.5C36.4062 174.484 35.8008 175.383 34.9492 176.195C34.0898 177.008 32.9297 177.66 31.4687 178.152C30 178.645 28.1562 178.891 25.9375 178.891C23.8125 178.891 21.9297 178.691 20.2891 178.293C18.6406 177.895 17.2539 177.316 16.1289 176.559C14.9961 175.801 14.1367 174.887 13.5508 173.816C12.9648 172.738 12.6719 171.523 12.6719 170.172C12.6719 168.828 12.9414 167.633 13.4805 166.586C14.0117 165.531 14.7539 164.672 15.707 164.008C16.6602 163.344 17.7578 162.914 19 162.719V165.578C17.9219 165.844 17.0273 166.359 16.3164 167.125C15.6055 167.891 15.25 168.906 15.25 170.172C15.25 172.031 16.0586 173.496 17.6758 174.566C19.293 175.629 21.5625 176.164 24.4844 176.172V175.984C23.8203 175.547 23.2539 175.027 22.7852 174.426C22.3086 173.816 21.9414 173.145 21.6836 172.41C21.4258 171.676 21.2969 170.898 21.2969 170.078C21.2969 168.703 21.6406 167.445 22.3281 166.305C23.0078 165.164 23.9492 164.25 25.1523 163.562C26.3477 162.875 27.7188 162.531 29.2656 162.531C30.75 162.531 32.1094 162.863 33.3437 163.527C34.5703 164.191 35.5469 165.125 36.2734 166.328C36.9922 167.523 37.3438 168.93 37.3281 170.547ZM34.75 170.547C34.75 169.562 34.5039 168.68 34.0117 167.898C33.5195 167.109 32.8594 166.488 32.0312 166.035C31.2031 165.574 30.2812 165.344 29.2656 165.344C28.2734 165.344 27.3711 165.566 26.5586 166.012C25.7383 166.449 25.0859 167.055 24.6016 167.828C24.1172 168.594 23.875 169.469 23.875 170.453C23.875 171.195 24.0234 171.887 24.3203 172.527C24.6094 173.168 25.0078 173.73 25.5156 174.215C26.0234 174.691 26.6055 175.066 27.2617 175.34C27.9102 175.613 28.5937 175.75 29.3125 175.75C30.2656 175.75 31.1562 175.527 31.9844 175.082C32.8125 174.629 33.4805 174.012 33.9883 173.23C34.4961 172.441 34.75 171.547 34.75 170.547ZM37 148.595H19L19 145.923H21.8125V145.688C20.8516 145.313 20.1055 144.708 19.5742 143.872C19.0352 143.036 18.7656 142.032 18.7656 140.86C18.7656 139.673 19.0352 138.685 19.5742 137.896C20.1055 137.099 20.8516 136.478 21.8125 136.032V135.845C20.8828 135.384 20.1445 134.692 19.5977 133.771C19.043 132.849 18.7656 131.743 18.7656 130.454C18.7656 128.845 19.2695 127.528 20.2773 126.505C21.2773 125.481 22.8359 124.97 24.9531 124.97H37V127.735H24.9531C23.625 127.735 22.6758 128.099 22.1055 128.825C21.5352 129.552 21.25 130.407 21.25 131.392C21.25 132.657 21.6328 133.638 22.3984 134.333C23.1562 135.028 24.1172 135.376 25.2812 135.376H37V138.188H24.6719C23.6484 138.188 22.8242 138.521 22.1992 139.185C21.5664 139.849 21.25 140.704 21.25 141.751C21.25 142.47 21.4414 143.142 21.8242 143.767C22.207 144.384 22.7383 144.884 23.418 145.267C24.0898 145.642 24.8672 145.829 25.75 145.829H37V148.595Z" fill="white"/>
<path d="M199.172 330.328C197.563 330.328 196.141 330.043 194.906 329.473C193.68 328.895 192.723 328.102 192.035 327.094C191.348 326.078 191.008 324.922 191.016 323.625C191.008 322.609 191.207 321.672 191.613 320.812C192.02 319.945 192.574 319.223 193.277 318.645C193.988 318.059 194.781 317.687 195.656 317.531V317.391C194.508 317.094 193.594 316.449 192.914 315.457C192.234 314.457 191.898 313.32 191.906 312.047C191.898 310.828 192.207 309.738 192.832 308.777C193.457 307.816 194.316 307.059 195.41 306.504C196.512 305.949 197.766 305.672 199.172 305.672C200.563 305.672 201.805 305.949 202.898 306.504C203.992 307.059 204.852 307.816 205.477 308.777C206.109 309.738 206.43 310.828 206.438 312.047C206.43 313.32 206.082 314.457 205.395 315.457C204.715 316.449 203.813 317.094 202.688 317.391V317.531C203.555 317.687 204.336 318.059 205.031 318.645C205.727 319.223 206.281 319.945 206.695 320.812C207.109 321.672 207.32 322.609 207.328 323.625C207.32 324.922 206.969 326.078 206.273 327.094C205.586 328.102 204.629 328.895 203.402 329.473C202.184 330.043 200.773 330.328 199.172 330.328ZM199.172 327.75C200.258 327.75 201.195 327.574 201.984 327.223C202.773 326.871 203.383 326.375 203.813 325.734C204.242 325.094 204.461 324.344 204.469 323.484C204.461 322.578 204.227 321.777 203.766 321.082C203.305 320.387 202.676 319.84 201.879 319.441C201.09 319.043 200.188 318.844 199.172 318.844C198.148 318.844 197.234 319.043 196.43 319.441C195.633 319.84 195.004 320.387 194.543 321.082C194.09 321.777 193.867 322.578 193.875 323.484C193.867 324.344 194.074 325.094 194.496 325.734C194.926 326.375 195.539 326.871 196.336 327.223C197.133 327.574 198.078 327.75 199.172 327.75ZM199.172 316.359C200.031 316.359 200.793 316.187 201.457 315.844C202.129 315.5 202.656 315.02 203.039 314.402C203.422 313.785 203.617 313.062 203.625 312.234C203.617 311.422 203.426 310.715 203.051 310.113C202.676 309.504 202.156 309.035 201.492 308.707C200.828 308.371 200.055 308.203 199.172 308.203C198.273 308.203 197.488 308.371 196.816 308.707C196.145 309.035 195.625 309.504 195.258 310.113C194.891 310.715 194.711 311.422 194.719 312.234C194.711 313.062 194.895 313.785 195.27 314.402C195.652 315.02 196.18 315.5 196.852 315.844C197.523 316.187 198.297 316.359 199.172 316.359ZM221.147 330V312H223.819V314.812H224.054C224.429 313.852 225.034 313.105 225.87 312.574C226.706 312.035 227.71 311.766 228.882 311.766C230.069 311.766 231.058 312.035 231.847 312.574C232.644 313.105 233.265 313.852 233.71 314.812H233.897C234.358 313.883 235.05 313.145 235.972 312.598C236.894 312.043 237.999 311.766 239.288 311.766C240.897 311.766 242.214 312.27 243.237 313.277C244.261 314.277 244.772 315.836 244.772 317.953V330H242.007V317.953C242.007 316.625 241.644 315.676 240.917 315.105C240.19 314.535 239.335 314.25 238.351 314.25C237.085 314.25 236.104 314.633 235.409 315.398C234.714 316.156 234.366 317.117 234.366 318.281V330H231.554V317.672C231.554 316.648 231.222 315.824 230.558 315.199C229.894 314.566 229.038 314.25 227.991 314.25C227.272 314.25 226.601 314.441 225.976 314.824C225.358 315.207 224.858 315.738 224.476 316.418C224.101 317.09 223.913 317.867 223.913 318.75V330H221.147Z" fill="white"/>
</svg>
