<svg width="648" height="346" viewBox="0 0 648 346" fill="none" xmlns="http://www.w3.org/2000/svg">
<rect x="62" y="32" width="314" height="237" fill="#D69F59" stroke="white" stroke-width="2"/>
<path d="M59.2895 283.274C58.899 283.664 58.899 284.297 59.2895 284.688L65.6534 291.052C66.044 291.442 66.6771 291.442 67.0676 291.052C67.4582 290.661 67.4582 290.028 67.0676 289.638L61.4108 283.981L67.0676 278.324C67.4582 277.933 67.4582 277.3 67.0676 276.91C66.6771 276.519 66.044 276.519 65.6534 276.91L59.2895 283.274ZM376.71 284.688C377.101 284.297 377.101 283.664 376.71 283.274L370.346 276.91C369.956 276.519 369.322 276.519 368.932 276.91C368.541 277.3 368.541 277.933 368.932 278.324L374.589 283.981L368.932 289.638C368.541 290.028 368.541 290.661 368.932 291.052C369.322 291.442 369.956 291.442 370.346 291.052L376.71 284.688ZM59.9966 283.981V284.981H376.003V283.981V282.981H59.9966V283.981Z" fill="white"/>
<path d="M45.2929 271.759C45.6834 272.15 46.3166 272.15 46.7071 271.759L53.0711 265.395C53.4616 265.005 53.4616 264.372 53.0711 263.981C52.6805 263.591 52.0474 263.591 51.6569 263.981L46 269.638L40.3431 263.981C39.9526 263.591 39.3195 263.591 38.9289 263.981C38.5384 264.372 38.5384 265.005 38.9289 265.395L45.2929 271.759ZM46.7071 31.2929C46.3166 30.9023 45.6834 30.9023 45.2929 31.2929L38.9289 37.6568C38.5384 38.0473 38.5384 38.6805 38.9289 39.071C39.3195 39.4616 39.9526 39.4616 40.3431 39.071L46 33.4142L51.6569 39.071C52.0474 39.4616 52.6805 39.4616 53.0711 39.071C53.4616 38.6805 53.4616 38.0473 53.0711 37.6568L46.7071 31.2929ZM46 271.052H47L47 32H46H45L45 271.052H46Z" fill="white"/>
<path d="M425.484 309V306.891L433.406 298.219C434.336 297.203 435.102 296.32 435.703 295.57C436.305 294.812 436.75 294.102 437.039 293.437C437.336 292.766 437.484 292.062 437.484 291.328C437.484 290.484 437.281 289.754 436.875 289.137C436.477 288.52 435.93 288.043 435.234 287.707C434.539 287.371 433.758 287.203 432.891 287.203C431.969 287.203 431.164 287.395 430.477 287.777C429.797 288.152 429.27 288.68 428.895 289.359C428.527 290.039 428.344 290.836 428.344 291.75H425.578C425.578 290.344 425.902 289.109 426.551 288.047C427.199 286.984 428.082 286.156 429.199 285.562C430.324 284.969 431.586 284.672 432.984 284.672C434.391 284.672 435.637 284.969 436.723 285.562C437.809 286.156 438.66 286.957 439.277 287.965C439.895 288.973 440.203 290.094 440.203 291.328C440.203 292.211 440.043 293.074 439.723 293.918C439.41 294.754 438.863 295.687 438.082 296.719C437.309 297.742 436.234 298.992 434.859 300.469L429.469 306.234V306.422H440.625V309H425.484ZM453.293 309.328C451.527 309.328 450.023 308.848 448.781 307.887C447.539 306.918 446.59 305.516 445.934 303.68C445.277 301.836 444.949 299.609 444.949 297C444.949 294.406 445.277 292.191 445.934 290.355C446.598 288.512 447.551 287.105 448.793 286.137C450.043 285.16 451.543 284.672 453.293 284.672C455.043 284.672 456.539 285.16 457.781 286.137C459.031 287.105 459.984 288.512 460.641 290.355C461.305 292.191 461.637 294.406 461.637 297C461.637 299.609 461.309 301.836 460.652 303.68C459.996 305.516 459.047 306.918 457.805 307.887C456.563 308.848 455.059 309.328 453.293 309.328ZM453.293 306.75C455.043 306.75 456.402 305.906 457.371 304.219C458.34 302.531 458.824 300.125 458.824 297C458.824 294.922 458.602 293.152 458.156 291.691C457.719 290.23 457.086 289.117 456.258 288.352C455.438 287.586 454.449 287.203 453.293 287.203C451.559 287.203 450.203 288.059 449.227 289.77C448.25 291.473 447.762 293.883 447.762 297C447.762 299.078 447.98 300.844 448.418 302.297C448.855 303.75 449.484 304.855 450.305 305.613C451.133 306.371 452.129 306.75 453.293 306.75ZM482.73 309.375C481.043 309.375 479.59 308.977 478.371 308.18C477.152 307.383 476.215 306.285 475.559 304.887C474.902 303.488 474.574 301.891 474.574 300.094C474.574 298.266 474.91 296.652 475.582 295.254C476.262 293.848 477.207 292.75 478.418 291.961C479.637 291.164 481.059 290.766 482.684 290.766C483.949 290.766 485.09 291 486.105 291.469C487.121 291.937 487.953 292.594 488.602 293.437C489.25 294.281 489.652 295.266 489.809 296.391H487.043C486.832 295.57 486.363 294.844 485.637 294.211C484.918 293.57 483.949 293.25 482.73 293.25C481.652 293.25 480.707 293.531 479.895 294.094C479.09 294.648 478.461 295.434 478.008 296.449C477.563 297.457 477.34 298.641 477.34 300C477.34 301.391 477.559 302.602 477.996 303.633C478.441 304.664 479.066 305.465 479.871 306.035C480.684 306.605 481.637 306.891 482.73 306.891C483.449 306.891 484.102 306.766 484.688 306.516C485.273 306.266 485.77 305.906 486.176 305.437C486.582 304.969 486.871 304.406 487.043 303.75H489.809C489.652 304.812 489.266 305.77 488.648 306.621C488.039 307.465 487.23 308.137 486.223 308.637C485.223 309.129 484.059 309.375 482.73 309.375ZM493.852 309V291H496.523V293.812H496.758C497.133 292.852 497.738 292.105 498.574 291.574C499.41 291.035 500.414 290.766 501.586 290.766C502.773 290.766 503.762 291.035 504.551 291.574C505.348 292.105 505.969 292.852 506.414 293.812H506.602C507.063 292.883 507.754 292.145 508.676 291.598C509.598 291.043 510.703 290.766 511.992 290.766C513.602 290.766 514.918 291.27 515.941 292.277C516.965 293.277 517.477 294.836 517.477 296.953V309H514.711V296.953C514.711 295.625 514.348 294.676 513.621 294.105C512.895 293.535 512.039 293.25 511.055 293.25C509.789 293.25 508.809 293.633 508.113 294.398C507.418 295.156 507.07 296.117 507.07 297.281V309H504.258V296.672C504.258 295.648 503.926 294.824 503.262 294.199C502.598 293.566 501.742 293.25 500.695 293.25C499.977 293.25 499.305 293.441 498.68 293.824C498.063 294.207 497.563 294.738 497.18 295.418C496.805 296.09 496.617 296.867 496.617 297.75V309H493.852Z" fill="white"/>
<path d="M394.378 57V37.3636H401.243C402.611 37.3636 403.739 37.6001 404.627 38.0732C405.516 38.5398 406.178 39.1694 406.612 39.962C407.047 40.7482 407.264 41.6207 407.264 42.5795C407.264 43.4233 407.114 44.12 406.814 44.6697C406.52 45.2195 406.13 45.6541 405.644 45.9737C405.164 46.2933 404.643 46.5298 404.081 46.6832V46.875C404.682 46.9134 405.286 47.1243 405.893 47.5078C406.5 47.8913 407.009 48.4411 407.418 49.157C407.827 49.8729 408.031 50.7486 408.031 51.7841C408.031 52.7685 407.808 53.6538 407.36 54.44C406.913 55.2262 406.206 55.8494 405.241 56.3097C404.276 56.7699 403.02 57 401.473 57H394.378ZM396.756 54.8906H401.473C403.026 54.8906 404.129 54.5902 404.781 53.9893C405.439 53.3821 405.768 52.647 405.768 51.7841C405.768 51.1193 405.599 50.5057 405.26 49.9432C404.922 49.3743 404.439 48.9205 403.812 48.5817C403.186 48.2365 402.445 48.0639 401.588 48.0639H396.756V54.8906ZM396.756 45.9929H401.166C401.882 45.9929 402.528 45.8523 403.103 45.571C403.685 45.2898 404.145 44.8935 404.484 44.3821C404.829 43.8707 405.001 43.2699 405.001 42.5795C405.001 41.7166 404.701 40.9847 404.1 40.3839C403.499 39.7766 402.547 39.473 401.243 39.473H396.756V45.9929ZM415.965 57.3452C415.032 57.3452 414.185 57.1694 413.425 56.8178C412.664 56.4599 412.06 55.9453 411.612 55.2741C411.165 54.5966 410.941 53.7784 410.941 52.8196C410.941 51.9759 411.107 51.2919 411.44 50.7678C411.772 50.2372 412.216 49.8217 412.773 49.5213C413.329 49.2209 413.942 48.9972 414.613 48.8501C415.291 48.6967 415.972 48.5753 416.656 48.4858C417.551 48.3707 418.276 48.2844 418.832 48.2269C419.395 48.163 419.804 48.0575 420.059 47.9105C420.322 47.7635 420.453 47.5078 420.453 47.1435V47.0668C420.453 46.1207 420.194 45.3857 419.676 44.8615C419.165 44.3374 418.388 44.0753 417.346 44.0753C416.266 44.0753 415.419 44.3118 414.805 44.7848C414.192 45.2578 413.76 45.7628 413.511 46.2997L411.363 45.5327C411.747 44.6378 412.258 43.9411 412.897 43.4425C413.543 42.9375 414.246 42.5859 415.007 42.3878C415.774 42.1832 416.528 42.081 417.269 42.081C417.742 42.081 418.286 42.1385 418.899 42.2536C419.519 42.3622 420.117 42.5891 420.692 42.9343C421.274 43.2795 421.757 43.8004 422.14 44.4972C422.524 45.1939 422.715 46.1271 422.715 47.2969V57H420.453V55.0057H420.338C420.184 55.3253 419.928 55.6673 419.57 56.0316C419.213 56.396 418.736 56.706 418.142 56.9616C417.547 57.2173 416.822 57.3452 415.965 57.3452ZM416.311 55.3125C417.205 55.3125 417.96 55.1367 418.573 54.7852C419.193 54.4336 419.66 53.9798 419.973 53.4237C420.293 52.8675 420.453 52.2827 420.453 51.669V49.598C420.357 49.7131 420.146 49.8185 419.82 49.9144C419.5 50.0039 419.129 50.0838 418.708 50.1541C418.292 50.218 417.886 50.2756 417.49 50.3267C417.1 50.3714 416.784 50.4098 416.541 50.4418C415.953 50.5185 415.403 50.6431 414.892 50.8157C414.387 50.9819 413.977 51.2344 413.664 51.5732C413.357 51.9055 413.204 52.3594 413.204 52.9347C413.204 53.7209 413.495 54.3153 414.077 54.718C414.665 55.1143 415.409 55.3125 416.311 55.3125ZM429.108 48.1406V57H426.845V42.2727H429.032V44.5739H429.223C429.568 43.826 430.093 43.2251 430.796 42.7713C431.499 42.3111 432.407 42.081 433.519 42.081C434.516 42.081 435.388 42.2855 436.136 42.6946C436.884 43.0973 437.466 43.7109 437.881 44.5355C438.297 45.3537 438.505 46.3892 438.505 47.642V57H436.242V47.7955C436.242 46.6385 435.941 45.7372 435.34 45.0916C434.74 44.4396 433.915 44.1136 432.867 44.1136C432.144 44.1136 431.499 44.2702 430.93 44.5835C430.367 44.8967 429.923 45.3537 429.597 45.9545C429.271 46.5554 429.108 47.2841 429.108 48.1406ZM443.569 62.5227C443.186 62.5227 442.844 62.4908 442.544 62.4268C442.243 62.3693 442.035 62.3118 441.92 62.2543L442.496 60.2599C443.045 60.4006 443.531 60.4517 443.953 60.4134C444.375 60.375 444.749 60.1864 445.075 59.8477C445.407 59.5153 445.711 58.9751 445.986 58.2273L446.407 57.0767L440.961 42.2727H443.416L447.481 54.0085H447.635L451.7 42.2727H454.155L447.903 59.1477C447.622 59.9084 447.274 60.538 446.858 61.0366C446.443 61.5415 445.96 61.9155 445.41 62.1584C444.867 62.4013 444.253 62.5227 443.569 62.5227ZM461.027 57.3452C460.094 57.3452 459.247 57.1694 458.486 56.8178C457.725 56.4599 457.121 55.9453 456.674 55.2741C456.226 54.5966 456.003 53.7784 456.003 52.8196C456.003 51.9759 456.169 51.2919 456.501 50.7678C456.834 50.2372 457.278 49.8217 457.834 49.5213C458.39 49.2209 459.004 48.9972 459.675 48.8501C460.353 48.6967 461.033 48.5753 461.717 48.4858C462.612 48.3707 463.338 48.2844 463.894 48.2269C464.456 48.163 464.865 48.0575 465.121 47.9105C465.383 47.7635 465.514 47.5078 465.514 47.1435V47.0668C465.514 46.1207 465.255 45.3857 464.737 44.8615C464.226 44.3374 463.449 44.0753 462.408 44.0753C461.327 44.0753 460.48 44.3118 459.867 44.7848C459.253 45.2578 458.822 45.7628 458.572 46.2997L456.425 45.5327C456.808 44.6378 457.32 43.9411 457.959 43.4425C458.604 42.9375 459.307 42.5859 460.068 42.3878C460.835 42.1832 461.589 42.081 462.331 42.081C462.804 42.081 463.347 42.1385 463.961 42.2536C464.581 42.3622 465.179 42.5891 465.754 42.9343C466.335 43.2795 466.818 43.8004 467.202 44.4972C467.585 45.1939 467.777 46.1271 467.777 47.2969V57H465.514V55.0057H465.399C465.246 55.3253 464.99 55.6673 464.632 56.0316C464.274 56.396 463.798 56.706 463.203 56.9616C462.609 57.2173 461.883 57.3452 461.027 57.3452ZM461.372 55.3125C462.267 55.3125 463.021 55.1367 463.635 54.7852C464.255 54.4336 464.722 53.9798 465.035 53.4237C465.354 52.8675 465.514 52.2827 465.514 51.669V49.598C465.418 49.7131 465.207 49.8185 464.881 49.9144C464.562 50.0039 464.191 50.0838 463.769 50.1541C463.354 50.218 462.948 50.2756 462.551 50.3267C462.161 50.3714 461.845 50.4098 461.602 50.4418C461.014 50.5185 460.464 50.6431 459.953 50.8157C459.448 50.9819 459.039 51.2344 458.726 51.5732C458.419 51.9055 458.266 52.3594 458.266 52.9347C458.266 53.7209 458.556 54.3153 459.138 54.718C459.726 55.1143 460.471 55.3125 461.372 55.3125ZM474.016 51.6307L473.978 48.831H474.438L480.881 42.2727H483.681L476.816 49.2145H476.624L474.016 51.6307ZM471.907 57V37.3636H474.17V57H471.907ZM481.265 57L475.512 49.7131L477.123 48.1406L484.141 57H481.265ZM488.856 48.1406V57H486.593V42.2727H488.78V44.5739H488.971C489.316 43.826 489.841 43.2251 490.544 42.7713C491.247 42.3111 492.155 42.081 493.267 42.081C494.264 42.081 495.136 42.2855 495.884 42.6946C496.632 43.0973 497.214 43.7109 497.629 44.5355C498.045 45.3537 498.253 46.3892 498.253 47.642V57H495.99V47.7955C495.99 46.6385 495.689 45.7372 495.089 45.0916C494.488 44.4396 493.663 44.1136 492.615 44.1136C491.892 44.1136 491.247 44.2702 490.678 44.5835C490.116 44.8967 489.671 45.3537 489.345 45.9545C489.019 46.5554 488.856 47.2841 488.856 48.1406ZM503.317 62.5227C502.934 62.5227 502.592 62.4908 502.292 62.4268C501.991 62.3693 501.783 62.3118 501.668 62.2543L502.244 60.2599C502.793 60.4006 503.279 60.4517 503.701 60.4134C504.123 60.375 504.497 60.1864 504.823 59.8477C505.155 59.5153 505.459 58.9751 505.734 58.2273L506.156 57.0767L500.71 42.2727H503.164L507.229 54.0085H507.383L511.448 42.2727H513.903L507.651 59.1477C507.37 59.9084 507.022 60.538 506.606 61.0366C506.191 61.5415 505.708 61.9155 505.158 62.1584C504.615 62.4013 504.001 62.5227 503.317 62.5227ZM520.775 57.3452C519.842 57.3452 518.995 57.1694 518.234 56.8178C517.473 56.4599 516.869 55.9453 516.422 55.2741C515.975 54.5966 515.751 53.7784 515.751 52.8196C515.751 51.9759 515.917 51.2919 516.249 50.7678C516.582 50.2372 517.026 49.8217 517.582 49.5213C518.138 49.2209 518.752 48.9972 519.423 48.8501C520.101 48.6967 520.781 48.5753 521.465 48.4858C522.36 48.3707 523.086 48.2844 523.642 48.2269C524.204 48.163 524.613 48.0575 524.869 47.9105C525.131 47.7635 525.262 47.5078 525.262 47.1435V47.0668C525.262 46.1207 525.003 45.3857 524.486 44.8615C523.974 44.3374 523.198 44.0753 522.156 44.0753C521.075 44.0753 520.228 44.3118 519.615 44.7848C519.001 45.2578 518.57 45.7628 518.32 46.2997L516.173 45.5327C516.556 44.6378 517.068 43.9411 517.707 43.4425C518.352 42.9375 519.055 42.5859 519.816 42.3878C520.583 42.1832 521.337 42.081 522.079 42.081C522.552 42.081 523.095 42.1385 523.709 42.2536C524.329 42.3622 524.927 42.5891 525.502 42.9343C526.084 43.2795 526.566 43.8004 526.95 44.4972C527.333 45.1939 527.525 46.1271 527.525 47.2969V57H525.262V55.0057H525.147C524.994 55.3253 524.738 55.6673 524.38 56.0316C524.022 56.396 523.546 56.706 522.951 56.9616C522.357 57.2173 521.631 57.3452 520.775 57.3452ZM521.12 55.3125C522.015 55.3125 522.769 55.1367 523.383 54.7852C524.003 54.4336 524.47 53.9798 524.783 53.4237C525.102 52.8675 525.262 52.2827 525.262 51.669V49.598C525.166 49.7131 524.955 49.8185 524.629 49.9144C524.31 50.0039 523.939 50.0838 523.517 50.1541C523.102 50.218 522.696 50.2756 522.299 50.3267C521.91 50.3714 521.593 50.4098 521.35 50.4418C520.762 50.5185 520.212 50.6431 519.701 50.8157C519.196 50.9819 518.787 51.2344 518.474 51.5732C518.167 51.9055 518.014 52.3594 518.014 52.9347C518.014 53.7209 518.304 54.3153 518.886 54.718C519.474 55.1143 520.219 55.3125 521.12 55.3125ZM548.53 50.9787V42.2727H550.793V57H548.53V54.5071H548.377C548.031 55.255 547.494 55.891 546.766 56.4151C546.037 56.9329 545.117 57.1918 544.004 57.1918C543.084 57.1918 542.266 56.9904 541.55 56.5877C540.834 56.1786 540.271 55.565 539.862 54.7468C539.453 53.9222 539.249 52.8835 539.249 51.6307V42.2727H541.512V51.4773C541.512 52.5511 541.812 53.4077 542.413 54.0469C543.02 54.6861 543.794 55.0057 544.733 55.0057C545.296 55.0057 545.868 54.8619 546.449 54.5742C547.037 54.2866 547.53 53.8455 547.926 53.2511C548.329 52.6566 548.53 51.8991 548.53 50.9787ZM555.244 57V37.3636H557.507V44.6122H557.699C557.865 44.3565 558.095 44.0305 558.389 43.6342C558.689 43.2315 559.118 42.8736 559.674 42.5604C560.236 42.2408 560.997 42.081 561.956 42.081C563.196 42.081 564.289 42.391 565.235 43.011C566.181 43.631 566.919 44.5099 567.45 45.6477C567.98 46.7855 568.245 48.1278 568.245 49.6747C568.245 51.2344 567.98 52.5863 567.45 53.7305C566.919 54.8683 566.184 55.7504 565.244 56.3768C564.305 56.9968 563.221 57.3068 561.994 57.3068C561.048 57.3068 560.291 57.1502 559.722 56.837C559.153 56.5174 558.715 56.1562 558.408 55.7536C558.101 55.3445 557.865 55.0057 557.699 54.7372H557.43V57H555.244ZM557.468 49.6364C557.468 50.7486 557.631 51.7298 557.957 52.5799C558.283 53.4237 558.76 54.0852 559.386 54.5646C560.013 55.0376 560.78 55.2741 561.687 55.2741C562.633 55.2741 563.423 55.0249 564.055 54.5263C564.695 54.0213 565.174 53.3437 565.494 52.4936C565.82 51.6371 565.983 50.6847 565.983 49.6364C565.983 48.6009 565.823 47.6676 565.503 46.8366C565.19 45.9993 564.714 45.3377 564.075 44.8519C563.442 44.3597 562.646 44.1136 561.687 44.1136C560.767 44.1136 559.993 44.3469 559.367 44.8136C558.741 45.2738 558.267 45.9194 557.948 46.7504C557.628 47.5749 557.468 48.5369 557.468 49.6364ZM571.707 57V42.2727H573.97V57H571.707ZM572.857 39.8182C572.416 39.8182 572.036 39.668 571.716 39.3675C571.403 39.0671 571.247 38.706 571.247 38.2841C571.247 37.8622 571.403 37.5011 571.716 37.2006C572.036 36.9002 572.416 36.75 572.857 36.75C573.298 36.75 573.676 36.9002 573.989 37.2006C574.308 37.5011 574.468 37.8622 574.468 38.2841C574.468 38.706 574.308 39.0671 573.989 39.3675C573.676 39.668 573.298 39.8182 572.857 39.8182ZM580.377 48.1406V57H578.114V42.2727H580.3V44.5739H580.492C580.837 43.826 581.361 43.2251 582.064 42.7713C582.767 42.3111 583.675 42.081 584.787 42.081C585.784 42.081 586.657 42.2855 587.405 42.6946C588.153 43.0973 588.734 43.7109 589.15 44.5355C589.565 45.3537 589.773 46.3892 589.773 47.642V57H587.51V47.7955C587.51 46.6385 587.21 45.7372 586.609 45.0916C586.008 44.4396 585.184 44.1136 584.135 44.1136C583.413 44.1136 582.767 44.2702 582.199 44.5835C581.636 44.8967 581.192 45.3537 580.866 45.9545C580.54 46.5554 580.377 47.2841 580.377 48.1406ZM602.422 45.3793V43.3082H614.235V45.3793H602.422ZM602.422 51.0554V48.9844H614.235V51.0554H602.422ZM629.846 51.4773V51.3622C629.859 50.1413 629.987 49.1697 630.23 48.4474C630.473 47.7251 630.818 47.1403 631.265 46.6928C631.713 46.2454 632.25 45.8331 632.876 45.456C633.253 45.2259 633.592 44.9542 633.893 44.641C634.193 44.3214 634.43 43.9538 634.602 43.5384C634.781 43.1229 634.871 42.6626 634.871 42.1577C634.871 41.5312 634.724 40.9879 634.43 40.5277C634.135 40.0675 633.742 39.7127 633.25 39.4634C632.758 39.2141 632.211 39.0895 631.611 39.0895C631.086 39.0895 630.581 39.1982 630.096 39.4155C629.61 39.6328 629.204 39.9748 628.878 40.4414C628.552 40.908 628.363 41.5185 628.312 42.2727H625.896C625.947 41.1861 626.229 40.256 626.74 39.4826C627.258 38.7092 627.938 38.1179 628.782 37.7088C629.632 37.2997 630.575 37.0952 631.611 37.0952C632.736 37.0952 633.714 37.3189 634.545 37.7663C635.382 38.2138 636.028 38.8274 636.481 39.6072C636.942 40.3871 637.172 41.2756 637.172 42.2727C637.172 42.9759 637.063 43.6119 636.846 44.1808C636.635 44.7496 636.328 45.2578 635.925 45.7053C635.529 46.1527 635.05 46.549 634.487 46.8942C633.925 47.2457 633.474 47.6165 633.135 48.0064C632.796 48.3899 632.55 48.8469 632.397 49.3775C632.243 49.908 632.16 50.5696 632.148 51.3622V51.4773H629.846ZM631.074 57.1534C630.601 57.1534 630.195 56.984 629.856 56.6452C629.517 56.3065 629.348 55.9006 629.348 55.4276C629.348 54.9545 629.517 54.5487 629.856 54.2099C630.195 53.8711 630.601 53.7017 631.074 53.7017C631.547 53.7017 631.953 53.8711 632.291 54.2099C632.63 54.5487 632.8 54.9545 632.8 55.4276C632.8 55.7408 632.72 56.0284 632.56 56.2905C632.406 56.5526 632.199 56.7635 631.937 56.9233C631.681 57.0767 631.393 57.1534 631.074 57.1534Z" fill="#FFEA00"/>
<path d="M544.484 226V223.891L552.406 215.219C553.336 214.203 554.102 213.32 554.703 212.57C555.305 211.812 555.75 211.102 556.039 210.437C556.336 209.766 556.484 209.062 556.484 208.328C556.484 207.484 556.281 206.754 555.875 206.137C555.477 205.52 554.93 205.043 554.234 204.707C553.539 204.371 552.758 204.203 551.891 204.203C550.969 204.203 550.164 204.395 549.477 204.777C548.797 205.152 548.27 205.68 547.895 206.359C547.527 207.039 547.344 207.836 547.344 208.75H544.578C544.578 207.344 544.902 206.109 545.551 205.047C546.199 203.984 547.082 203.156 548.199 202.562C549.324 201.969 550.586 201.672 551.984 201.672C553.391 201.672 554.637 201.969 555.723 202.562C556.809 203.156 557.66 203.957 558.277 204.965C558.895 205.973 559.203 207.094 559.203 208.328C559.203 209.211 559.043 210.074 558.723 210.918C558.41 211.754 557.863 212.687 557.082 213.719C556.309 214.742 555.234 215.992 553.859 217.469L548.469 223.234V223.422H559.625V226H544.484ZM572.293 226.328C570.527 226.328 569.023 225.848 567.781 224.887C566.539 223.918 565.59 222.516 564.934 220.68C564.277 218.836 563.949 216.609 563.949 214C563.949 211.406 564.277 209.191 564.934 207.355C565.598 205.512 566.551 204.105 567.793 203.137C569.043 202.16 570.543 201.672 572.293 201.672C574.043 201.672 575.539 202.16 576.781 203.137C578.031 204.105 578.984 205.512 579.641 207.355C580.305 209.191 580.637 211.406 580.637 214C580.637 216.609 580.309 218.836 579.652 220.68C578.996 222.516 578.047 223.918 576.805 224.887C575.563 225.848 574.059 226.328 572.293 226.328ZM572.293 223.75C574.043 223.75 575.402 222.906 576.371 221.219C577.34 219.531 577.824 217.125 577.824 214C577.824 211.922 577.602 210.152 577.156 208.691C576.719 207.23 576.086 206.117 575.258 205.352C574.438 204.586 573.449 204.203 572.293 204.203C570.559 204.203 569.203 205.059 568.227 206.77C567.25 208.473 566.762 210.883 566.762 214C566.762 216.078 566.98 217.844 567.418 219.297C567.855 220.75 568.484 221.855 569.305 222.613C570.133 223.371 571.129 223.75 572.293 223.75ZM601.73 226.375C600.043 226.375 598.59 225.977 597.371 225.18C596.152 224.383 595.215 223.285 594.559 221.887C593.902 220.488 593.574 218.891 593.574 217.094C593.574 215.266 593.91 213.652 594.582 212.254C595.262 210.848 596.207 209.75 597.418 208.961C598.637 208.164 600.059 207.766 601.684 207.766C602.949 207.766 604.09 208 605.105 208.469C606.121 208.937 606.953 209.594 607.602 210.437C608.25 211.281 608.652 212.266 608.809 213.391H606.043C605.832 212.57 605.363 211.844 604.637 211.211C603.918 210.57 602.949 210.25 601.73 210.25C600.652 210.25 599.707 210.531 598.895 211.094C598.09 211.648 597.461 212.434 597.008 213.449C596.563 214.457 596.34 215.641 596.34 217C596.34 218.391 596.559 219.602 596.996 220.633C597.441 221.664 598.066 222.465 598.871 223.035C599.684 223.605 600.637 223.891 601.73 223.891C602.449 223.891 603.102 223.766 603.688 223.516C604.273 223.266 604.77 222.906 605.176 222.437C605.582 221.969 605.871 221.406 606.043 220.75H608.809C608.652 221.812 608.266 222.77 607.648 223.621C607.039 224.465 606.23 225.137 605.223 225.637C604.223 226.129 603.059 226.375 601.73 226.375ZM612.852 226V208H615.523V210.812H615.758C616.133 209.852 616.738 209.105 617.574 208.574C618.41 208.035 619.414 207.766 620.586 207.766C621.773 207.766 622.762 208.035 623.551 208.574C624.348 209.105 624.969 209.852 625.414 210.812H625.602C626.063 209.883 626.754 209.145 627.676 208.598C628.598 208.043 629.703 207.766 630.992 207.766C632.602 207.766 633.918 208.27 634.941 209.277C635.965 210.277 636.477 211.836 636.477 213.953V226H633.711V213.953C633.711 212.625 633.348 211.676 632.621 211.105C631.895 210.535 631.039 210.25 630.055 210.25C628.789 210.25 627.809 210.633 627.113 211.398C626.418 212.156 626.07 213.117 626.07 214.281V226H623.258V213.672C623.258 212.648 622.926 211.824 622.262 211.199C621.598 210.566 620.742 210.25 619.695 210.25C618.977 210.25 618.305 210.441 617.68 210.824C617.063 211.207 616.563 211.738 616.18 212.418C615.805 213.09 615.617 213.867 615.617 214.75V226H612.852Z" fill="white"/>
<rect x="416" y="151" width="111" height="111" fill="#BE4A0E"/>
<path d="M441.5 116L441.871 115.072L441.5 116ZM492.851 77.5254C493.141 77.0554 492.995 76.4393 492.525 76.1491L484.867 71.4211C484.397 71.131 483.781 71.2767 483.491 71.7467C483.201 72.2166 483.347 72.8328 483.817 73.1229L490.624 77.3256L486.421 84.1327C486.131 84.6027 486.277 85.2188 486.747 85.509C487.217 85.7991 487.833 85.6534 488.123 85.1834L492.851 77.5254ZM447 173C447.734 173.679 447.734 173.679 447.735 173.678C447.735 173.678 447.736 173.677 447.737 173.676C447.738 173.675 447.74 173.672 447.743 173.67C447.748 173.664 447.755 173.656 447.765 173.645C447.784 173.625 447.812 173.594 447.848 173.554C447.919 173.475 448.023 173.358 448.157 173.206C448.424 172.902 448.807 172.456 449.279 171.884C450.221 170.74 451.517 169.09 452.937 167.057C455.771 162.999 459.128 157.376 461.139 151.184C463.149 144.994 463.844 138.139 461.215 131.7C458.577 125.24 452.67 119.391 441.871 115.072L441.5 116L441.129 116.929C451.579 121.109 456.986 126.635 459.363 132.456C461.749 138.299 461.164 144.631 459.236 150.566C457.31 156.499 454.072 161.939 451.297 165.912C449.913 167.894 448.65 169.502 447.735 170.612C447.278 171.167 446.908 171.597 446.653 171.887C446.526 172.032 446.428 172.142 446.362 172.215C446.329 172.252 446.305 172.279 446.288 172.297C446.28 172.305 446.274 172.312 446.271 172.316C446.269 172.318 446.267 172.319 446.267 172.32C446.266 172.321 446.266 172.321 446.266 172.321C446.266 172.321 446.266 172.321 447 173ZM441.5 116L441.871 115.072C436.608 112.966 433.645 110.855 432.293 108.879C431.633 107.914 431.365 106.993 431.378 106.104C431.392 105.205 431.697 104.259 432.312 103.259C433.561 101.231 435.999 99.1307 439.334 97.0363C442.646 94.9559 446.745 92.9405 451.204 91.0453C460.118 87.2558 470.371 83.9875 478.41 81.6638C482.427 80.5029 485.884 79.5797 488.337 78.9468C489.563 78.6304 490.538 78.3867 491.205 78.2222C491.539 78.14 491.796 78.0775 491.969 78.0358C492.056 78.0149 492.121 77.9991 492.165 77.9887C492.187 77.9834 492.203 77.9795 492.214 77.9769C492.22 77.9756 492.224 77.9747 492.226 77.9741C492.228 77.9737 492.229 77.9735 492.229 77.9734C492.23 77.9732 492.23 77.9732 492 77C491.77 76.0269 491.769 76.027 491.768 76.0272C491.768 76.0274 491.767 76.0277 491.765 76.028C491.762 76.0287 491.758 76.0298 491.752 76.0312C491.74 76.0339 491.723 76.038 491.7 76.0434C491.655 76.0542 491.588 76.0703 491.5 76.0916C491.324 76.1341 491.064 76.1973 490.727 76.2803C490.053 76.4464 489.071 76.6919 487.837 77.0103C485.37 77.6469 481.893 78.5753 477.855 79.7425C469.785 82.075 459.444 85.3692 450.421 89.2047C445.911 91.1221 441.706 93.1847 438.27 95.3426C434.857 97.4865 432.103 99.7851 430.609 102.21C429.854 103.437 429.4 104.731 429.379 106.073C429.358 107.424 429.778 108.744 430.642 110.008C432.339 112.489 435.767 114.784 441.129 116.929L441.5 116Z" fill="#FFEA00"/>
<path d="M37.3281 170.547C37.3125 171.531 37.125 172.516 36.7656 173.5C36.4062 174.484 35.8008 175.383 34.9492 176.195C34.0898 177.008 32.9297 177.66 31.4687 178.152C30 178.645 28.1562 178.891 25.9375 178.891C23.8125 178.891 21.9297 178.691 20.2891 178.293C18.6406 177.895 17.2539 177.316 16.1289 176.559C14.9961 175.801 14.1367 174.887 13.5508 173.816C12.9648 172.738 12.6719 171.523 12.6719 170.172C12.6719 168.828 12.9414 167.633 13.4805 166.586C14.0117 165.531 14.7539 164.672 15.707 164.008C16.6602 163.344 17.7578 162.914 19 162.719V165.578C17.9219 165.844 17.0273 166.359 16.3164 167.125C15.6055 167.891 15.25 168.906 15.25 170.172C15.25 172.031 16.0586 173.496 17.6758 174.566C19.293 175.629 21.5625 176.164 24.4844 176.172V175.984C23.8203 175.547 23.2539 175.027 22.7852 174.426C22.3086 173.816 21.9414 173.145 21.6836 172.41C21.4258 171.676 21.2969 170.898 21.2969 170.078C21.2969 168.703 21.6406 167.445 22.3281 166.305C23.0078 165.164 23.9492 164.25 25.1523 163.562C26.3477 162.875 27.7188 162.531 29.2656 162.531C30.75 162.531 32.1094 162.863 33.3437 163.527C34.5703 164.191 35.5469 165.125 36.2734 166.328C36.9922 167.523 37.3438 168.93 37.3281 170.547ZM34.75 170.547C34.75 169.562 34.5039 168.68 34.0117 167.898C33.5195 167.109 32.8594 166.488 32.0312 166.035C31.2031 165.574 30.2812 165.344 29.2656 165.344C28.2734 165.344 27.3711 165.566 26.5586 166.012C25.7383 166.449 25.0859 167.055 24.6016 167.828C24.1172 168.594 23.875 169.469 23.875 170.453C23.875 171.195 24.0234 171.887 24.3203 172.527C24.6094 173.168 25.0078 173.73 25.5156 174.215C26.0234 174.691 26.6055 175.066 27.2617 175.34C27.9102 175.613 28.5937 175.75 29.3125 175.75C30.2656 175.75 31.1562 175.527 31.9844 175.082C32.8125 174.629 33.4805 174.012 33.9883 173.23C34.4961 172.441 34.75 171.547 34.75 170.547ZM37 148.595H19L19 145.923H21.8125V145.688C20.8516 145.313 20.1055 144.708 19.5742 143.872C19.0352 143.036 18.7656 142.032 18.7656 140.86C18.7656 139.673 19.0352 138.685 19.5742 137.896C20.1055 137.099 20.8516 136.478 21.8125 136.032V135.845C20.8828 135.384 20.1445 134.692 19.5977 133.771C19.043 132.849 18.7656 131.743 18.7656 130.454C18.7656 128.845 19.2695 127.528 20.2773 126.505C21.2773 125.481 22.8359 124.97 24.9531 124.97H37V127.735H24.9531C23.625 127.735 22.6758 128.099 22.1055 128.825C21.5352 129.552 21.25 130.407 21.25 131.392C21.25 132.657 21.6328 133.638 22.3984 134.333C23.1562 135.028 24.1172 135.376 25.2812 135.376H37V138.188H24.6719C23.6484 138.188 22.8242 138.521 22.1992 139.185C21.5664 139.849 21.25 140.704 21.25 141.751C21.25 142.47 21.4414 143.142 21.8242 143.767C22.207 144.384 22.7383 144.884 23.418 145.267C24.0898 145.642 24.8672 145.829 25.75 145.829H37V148.595Z" fill="white"/>
<path d="M199.172 330.328C197.563 330.328 196.141 330.043 194.906 329.473C193.68 328.895 192.723 328.102 192.035 327.094C191.348 326.078 191.008 324.922 191.016 323.625C191.008 322.609 191.207 321.672 191.613 320.812C192.02 319.945 192.574 319.223 193.277 318.645C193.988 318.059 194.781 317.687 195.656 317.531V317.391C194.508 317.094 193.594 316.449 192.914 315.457C192.234 314.457 191.898 313.32 191.906 312.047C191.898 310.828 192.207 309.738 192.832 308.777C193.457 307.816 194.316 307.059 195.41 306.504C196.512 305.949 197.766 305.672 199.172 305.672C200.563 305.672 201.805 305.949 202.898 306.504C203.992 307.059 204.852 307.816 205.477 308.777C206.109 309.738 206.43 310.828 206.438 312.047C206.43 313.32 206.082 314.457 205.395 315.457C204.715 316.449 203.813 317.094 202.688 317.391V317.531C203.555 317.687 204.336 318.059 205.031 318.645C205.727 319.223 206.281 319.945 206.695 320.812C207.109 321.672 207.32 322.609 207.328 323.625C207.32 324.922 206.969 326.078 206.273 327.094C205.586 328.102 204.629 328.895 203.402 329.473C202.184 330.043 200.773 330.328 199.172 330.328ZM199.172 327.75C200.258 327.75 201.195 327.574 201.984 327.223C202.773 326.871 203.383 326.375 203.813 325.734C204.242 325.094 204.461 324.344 204.469 323.484C204.461 322.578 204.227 321.777 203.766 321.082C203.305 320.387 202.676 319.84 201.879 319.441C201.09 319.043 200.188 318.844 199.172 318.844C198.148 318.844 197.234 319.043 196.43 319.441C195.633 319.84 195.004 320.387 194.543 321.082C194.09 321.777 193.867 322.578 193.875 323.484C193.867 324.344 194.074 325.094 194.496 325.734C194.926 326.375 195.539 326.871 196.336 327.223C197.133 327.574 198.078 327.75 199.172 327.75ZM199.172 316.359C200.031 316.359 200.793 316.187 201.457 315.844C202.129 315.5 202.656 315.02 203.039 314.402C203.422 313.785 203.617 313.062 203.625 312.234C203.617 311.422 203.426 310.715 203.051 310.113C202.676 309.504 202.156 309.035 201.492 308.707C200.828 308.371 200.055 308.203 199.172 308.203C198.273 308.203 197.488 308.371 196.816 308.707C196.145 309.035 195.625 309.504 195.258 310.113C194.891 310.715 194.711 311.422 194.719 312.234C194.711 313.062 194.895 313.785 195.27 314.402C195.652 315.02 196.18 315.5 196.852 315.844C197.523 316.187 198.297 316.359 199.172 316.359ZM221.147 330V312H223.819V314.812H224.054C224.429 313.852 225.034 313.105 225.87 312.574C226.706 312.035 227.71 311.766 228.882 311.766C230.069 311.766 231.058 312.035 231.847 312.574C232.644 313.105 233.265 313.852 233.71 314.812H233.897C234.358 313.883 235.05 313.145 235.972 312.598C236.894 312.043 237.999 311.766 239.288 311.766C240.897 311.766 242.214 312.27 243.237 313.277C244.261 314.277 244.772 315.836 244.772 317.953V330H242.007V317.953C242.007 316.625 241.644 315.676 240.917 315.105C240.19 314.535 239.335 314.25 238.351 314.25C237.085 314.25 236.104 314.633 235.409 315.398C234.714 316.156 234.366 317.117 234.366 318.281V330H231.554V317.672C231.554 316.648 231.222 315.824 230.558 315.199C229.894 314.566 229.038 314.25 227.991 314.25C227.272 314.25 226.601 314.441 225.976 314.824C225.358 315.207 224.858 315.738 224.476 316.418C224.101 317.09 223.913 317.867 223.913 318.75V330H221.147Z" fill="white"/>
</svg>
