<svg width="648" height="346" viewBox="0 0 648 346" fill="none" xmlns="http://www.w3.org/2000/svg">
<rect x="62" y="32" width="314" height="237" fill="#D69F59" stroke="white" stroke-width="2"/>
<path d="M59.2895 283.274C58.899 283.664 58.899 284.297 59.2895 284.688L65.6534 291.052C66.044 291.442 66.6771 291.442 67.0676 291.052C67.4582 290.661 67.4582 290.028 67.0676 289.638L61.4108 283.981L67.0676 278.324C67.4582 277.933 67.4582 277.3 67.0676 276.91C66.6771 276.519 66.044 276.519 65.6534 276.91L59.2895 283.274ZM376.71 284.688C377.101 284.297 377.101 283.664 376.71 283.274L370.346 276.91C369.956 276.519 369.322 276.519 368.932 276.91C368.541 277.3 368.541 277.933 368.932 278.324L374.589 283.981L368.932 289.638C368.541 290.028 368.541 290.661 368.932 291.052C369.322 291.442 369.956 291.442 370.346 291.052L376.71 284.688ZM59.9966 283.981V284.981H376.003V283.981V282.981H59.9966V283.981Z" fill="white"/>
<path d="M45.2929 271.759C45.6834 272.15 46.3166 272.15 46.7071 271.759L53.0711 265.395C53.4616 265.005 53.4616 264.372 53.0711 263.981C52.6805 263.591 52.0474 263.591 51.6569 263.981L46 269.638L40.3431 263.981C39.9526 263.591 39.3195 263.591 38.9289 263.981C38.5384 264.372 38.5384 265.005 38.9289 265.395L45.2929 271.759ZM46.7071 31.2929C46.3166 30.9023 45.6834 30.9023 45.2929 31.2929L38.9289 37.6568C38.5384 38.0473 38.5384 38.6805 38.9289 39.071C39.3195 39.4616 39.9526 39.4616 40.3431 39.071L46 33.4142L51.6569 39.071C52.0474 39.4616 52.6805 39.4616 53.0711 39.071C53.4616 38.6805 53.4616 38.0473 53.0711 37.6568L46.7071 31.2929ZM46 271.052H47L47 32H46H45L45 271.052H46Z" fill="white"/>
<path d="M33.3281 190.547C33.3125 191.531 33.125 192.516 32.7656 193.5C32.4062 194.484 31.8008 195.383 30.9492 196.195C30.0898 197.008 28.9297 197.66 27.4687 198.152C26 198.645 24.1562 198.891 21.9375 198.891C19.8125 198.891 17.9297 198.691 16.2891 198.293C14.6406 197.895 13.2539 197.316 12.1289 196.559C10.9961 195.801 10.1367 194.887 9.55078 193.816C8.96484 192.738 8.67187 191.523 8.67187 190.172C8.67187 188.828 8.94141 187.633 9.48047 186.586C10.0117 185.531 10.7539 184.672 11.707 184.008C12.6602 183.344 13.7578 182.914 15 182.719V185.578C13.9219 185.844 13.0273 186.359 12.3164 187.125C11.6055 187.891 11.25 188.906 11.25 190.172C11.25 192.031 12.0586 193.496 13.6758 194.566C15.293 195.629 17.5625 196.164 20.4844 196.172V195.984C19.8203 195.547 19.2539 195.027 18.7852 194.426C18.3086 193.816 17.9414 193.145 17.6836 192.41C17.4258 191.676 17.2969 190.898 17.2969 190.078C17.2969 188.703 17.6406 187.445 18.3281 186.305C19.0078 185.164 19.9492 184.25 21.1523 183.562C22.3477 182.875 23.7188 182.531 25.2656 182.531C26.75 182.531 28.1094 182.863 29.3437 183.527C30.5703 184.191 31.5469 185.125 32.2734 186.328C32.9922 187.523 33.3438 188.93 33.3281 190.547ZM30.75 190.547C30.75 189.562 30.5039 188.68 30.0117 187.898C29.5195 187.109 28.8594 186.488 28.0312 186.035C27.2031 185.574 26.2812 185.344 25.2656 185.344C24.2734 185.344 23.3711 185.566 22.5586 186.012C21.7383 186.449 21.0859 187.055 20.6016 187.828C20.1172 188.594 19.875 189.469 19.875 190.453C19.875 191.195 20.0234 191.887 20.3203 192.527C20.6094 193.168 21.0078 193.73 21.5156 194.215C22.0234 194.691 22.6055 195.066 23.2617 195.34C23.9102 195.613 24.5937 195.75 25.3125 195.75C26.2656 195.75 27.1562 195.527 27.9844 195.082C28.8125 194.629 29.4805 194.012 29.9883 193.23C30.4961 192.441 30.75 191.547 30.75 190.547ZM33.375 161.282C33.375 162.97 32.9766 164.423 32.1797 165.642C31.3828 166.86 30.2852 167.798 28.8867 168.454C27.4883 169.11 25.8906 169.438 24.0937 169.438C22.2656 169.438 20.6523 169.103 19.2539 168.431C17.8477 167.751 16.75 166.806 15.9609 165.595C15.1641 164.376 14.7656 162.954 14.7656 161.329C14.7656 160.063 15 158.923 15.4688 157.907C15.9375 156.892 16.5937 156.06 17.4375 155.411C18.2812 154.763 19.2656 154.36 20.3906 154.204V156.97C19.5703 157.181 18.8437 157.649 18.2109 158.376C17.5703 159.095 17.25 160.063 17.25 161.282C17.25 162.36 17.5312 163.306 18.0937 164.118C18.6484 164.923 19.4336 165.552 20.4492 166.005C21.457 166.45 22.6406 166.673 24 166.673C25.3906 166.673 26.6016 166.454 27.6328 166.017C28.6641 165.571 29.4648 164.946 30.0352 164.142C30.6055 163.329 30.8906 162.376 30.8906 161.282C30.8906 160.563 30.7656 159.911 30.5156 159.325C30.2656 158.739 29.9063 158.243 29.4375 157.837C28.9687 157.431 28.4062 157.142 27.75 156.97V154.204C28.8125 154.36 29.7695 154.747 30.6211 155.364C31.4648 155.974 32.1367 156.782 32.6367 157.79C33.1289 158.79 33.375 159.954 33.375 161.282ZM33 150.161H15V147.489H17.8125V147.255C16.8516 146.88 16.1055 146.274 15.5742 145.438C15.0352 144.603 14.7656 143.599 14.7656 142.427C14.7656 141.239 15.0352 140.251 15.5742 139.462C16.1055 138.665 16.8516 138.044 17.8125 137.599V137.411C16.8828 136.95 16.1445 136.259 15.5977 135.337C15.043 134.415 14.7656 133.31 14.7656 132.021C14.7656 130.411 15.2695 129.095 16.2773 128.071C17.2773 127.048 18.8359 126.536 20.9531 126.536H33V129.302H20.9531C19.625 129.302 18.6758 129.665 18.1055 130.392C17.5352 131.118 17.25 131.974 17.25 132.958C17.25 134.224 17.6328 135.204 18.3984 135.899C19.1562 136.595 20.1172 136.942 21.2812 136.942H33V139.755H20.6719C19.6484 139.755 18.8242 140.087 18.1992 140.751C17.5664 141.415 17.25 142.271 17.25 143.317C17.25 144.036 17.4414 144.708 17.8242 145.333C18.207 145.95 18.7383 146.45 19.418 146.833C20.0898 147.208 20.8672 147.396 21.75 147.396H33V150.161Z" fill="white"/>
<path d="M180.172 329.328C178.563 329.328 177.141 329.043 175.906 328.473C174.68 327.895 173.723 327.102 173.035 326.094C172.348 325.078 172.008 323.922 172.016 322.625C172.008 321.609 172.207 320.672 172.613 319.812C173.02 318.945 173.574 318.223 174.277 317.645C174.988 317.059 175.781 316.687 176.656 316.531V316.391C175.508 316.094 174.594 315.449 173.914 314.457C173.234 313.457 172.898 312.32 172.906 311.047C172.898 309.828 173.207 308.738 173.832 307.777C174.457 306.816 175.316 306.059 176.41 305.504C177.512 304.949 178.766 304.672 180.172 304.672C181.563 304.672 182.805 304.949 183.898 305.504C184.992 306.059 185.852 306.816 186.477 307.777C187.109 308.738 187.43 309.828 187.438 311.047C187.43 312.32 187.082 313.457 186.395 314.457C185.715 315.449 184.813 316.094 183.688 316.391V316.531C184.555 316.687 185.336 317.059 186.031 317.645C186.727 318.223 187.281 318.945 187.695 319.812C188.109 320.672 188.32 321.609 188.328 322.625C188.32 323.922 187.969 325.078 187.273 326.094C186.586 327.102 185.629 327.895 184.402 328.473C183.184 329.043 181.773 329.328 180.172 329.328ZM180.172 326.75C181.258 326.75 182.195 326.574 182.984 326.223C183.773 325.871 184.383 325.375 184.813 324.734C185.242 324.094 185.461 323.344 185.469 322.484C185.461 321.578 185.227 320.777 184.766 320.082C184.305 319.387 183.676 318.84 182.879 318.441C182.09 318.043 181.188 317.844 180.172 317.844C179.148 317.844 178.234 318.043 177.43 318.441C176.633 318.84 176.004 319.387 175.543 320.082C175.09 320.777 174.867 321.578 174.875 322.484C174.867 323.344 175.074 324.094 175.496 324.734C175.926 325.375 176.539 325.871 177.336 326.223C178.133 326.574 179.078 326.75 180.172 326.75ZM180.172 315.359C181.031 315.359 181.793 315.187 182.457 314.844C183.129 314.5 183.656 314.02 184.039 313.402C184.422 312.785 184.617 312.062 184.625 311.234C184.617 310.422 184.426 309.715 184.051 309.113C183.676 308.504 183.156 308.035 182.492 307.707C181.828 307.371 181.055 307.203 180.172 307.203C179.273 307.203 178.488 307.371 177.816 307.707C177.145 308.035 176.625 308.504 176.258 309.113C175.891 309.715 175.711 310.422 175.719 311.234C175.711 312.062 175.895 312.785 176.27 313.402C176.652 314.02 177.18 314.5 177.852 314.844C178.523 315.187 179.297 315.359 180.172 315.359ZM209.46 329.375C207.772 329.375 206.319 328.977 205.101 328.18C203.882 327.383 202.944 326.285 202.288 324.887C201.632 323.488 201.304 321.891 201.304 320.094C201.304 318.266 201.64 316.652 202.312 315.254C202.991 313.848 203.937 312.75 205.147 311.961C206.366 311.164 207.788 310.766 209.413 310.766C210.679 310.766 211.819 311 212.835 311.469C213.851 311.937 214.683 312.594 215.331 313.437C215.979 314.281 216.382 315.266 216.538 316.391H213.772C213.562 315.57 213.093 314.844 212.366 314.211C211.647 313.57 210.679 313.25 209.46 313.25C208.382 313.25 207.437 313.531 206.624 314.094C205.819 314.648 205.19 315.434 204.737 316.449C204.292 317.457 204.069 318.641 204.069 320C204.069 321.391 204.288 322.602 204.726 323.633C205.171 324.664 205.796 325.465 206.601 326.035C207.413 326.605 208.366 326.891 209.46 326.891C210.179 326.891 210.831 326.766 211.417 326.516C212.003 326.266 212.499 325.906 212.905 325.437C213.312 324.969 213.601 324.406 213.772 323.75H216.538C216.382 324.812 215.995 325.77 215.378 326.621C214.769 327.465 213.96 328.137 212.952 328.637C211.952 329.129 210.788 329.375 209.46 329.375ZM220.581 329V311H223.253V313.812H223.487C223.862 312.852 224.468 312.105 225.304 311.574C226.14 311.035 227.144 310.766 228.315 310.766C229.503 310.766 230.491 311.035 231.28 311.574C232.077 312.105 232.698 312.852 233.144 313.812H233.331C233.792 312.883 234.483 312.145 235.405 311.598C236.327 311.043 237.433 310.766 238.722 310.766C240.331 310.766 241.647 311.27 242.671 312.277C243.694 313.277 244.206 314.836 244.206 316.953V329H241.44V316.953C241.44 315.625 241.077 314.676 240.351 314.105C239.624 313.535 238.769 313.25 237.784 313.25C236.519 313.25 235.538 313.633 234.843 314.398C234.147 315.156 233.8 316.117 233.8 317.281V329H230.987V316.672C230.987 315.648 230.655 314.824 229.991 314.199C229.327 313.566 228.472 313.25 227.425 313.25C226.706 313.25 226.034 313.441 225.409 313.824C224.792 314.207 224.292 314.738 223.909 315.418C223.534 316.09 223.347 316.867 223.347 317.75V329H220.581Z" fill="white"/>
</svg>
