<svg width="648" height="346" viewBox="0 0 648 346" fill="none" xmlns="http://www.w3.org/2000/svg">
<rect x="62" y="32" width="314" height="237" fill="#D69F59" stroke="white" stroke-width="2"/>
<path d="M59.2895 283.274C58.899 283.664 58.899 284.297 59.2895 284.688L65.6534 291.052C66.044 291.442 66.6771 291.442 67.0676 291.052C67.4582 290.661 67.4582 290.028 67.0676 289.638L61.4108 283.981L67.0676 278.324C67.4582 277.933 67.4582 277.3 67.0676 276.91C66.6771 276.519 66.044 276.519 65.6534 276.91L59.2895 283.274ZM376.71 284.688C377.101 284.297 377.101 283.664 376.71 283.274L370.346 276.91C369.956 276.519 369.322 276.519 368.932 276.91C368.541 277.3 368.541 277.933 368.932 278.324L374.589 283.981L368.932 289.638C368.541 290.028 368.541 290.661 368.932 291.052C369.322 291.442 369.956 291.442 370.346 291.052L376.71 284.688ZM59.9966 283.981V284.981H376.003V283.981V282.981H59.9966V283.981Z" fill="white"/>
<path d="M45.2929 271.759C45.6834 272.15 46.3166 272.15 46.7071 271.759L53.0711 265.395C53.4616 265.005 53.4616 264.372 53.0711 263.981C52.6805 263.591 52.0474 263.591 51.6569 263.981L46 269.638L40.3431 263.981C39.9526 263.591 39.3195 263.591 38.9289 263.981C38.5384 264.372 38.5384 265.005 38.9289 265.395L45.2929 271.759ZM46.7071 31.2929C46.3166 30.9023 45.6834 30.9023 45.2929 31.2929L38.9289 37.6568C38.5384 38.0473 38.5384 38.6805 38.9289 39.071C39.3195 39.4616 39.9526 39.4616 40.3431 39.071L46 33.4142L51.6569 39.071C52.0474 39.4616 52.6805 39.4616 53.0711 39.071C53.4616 38.6805 53.4616 38.0473 53.0711 37.6568L46.7071 31.2929ZM46 271.052H47L47 32H46H45L45 271.052H46Z" fill="white"/>
<path d="M425.484 309V306.891L433.406 298.219C434.336 297.203 435.102 296.32 435.703 295.57C436.305 294.812 436.75 294.102 437.039 293.437C437.336 292.766 437.484 292.062 437.484 291.328C437.484 290.484 437.281 289.754 436.875 289.137C436.477 288.52 435.93 288.043 435.234 287.707C434.539 287.371 433.758 287.203 432.891 287.203C431.969 287.203 431.164 287.395 430.477 287.777C429.797 288.152 429.27 288.68 428.895 289.359C428.527 290.039 428.344 290.836 428.344 291.75H425.578C425.578 290.344 425.902 289.109 426.551 288.047C427.199 286.984 428.082 286.156 429.199 285.562C430.324 284.969 431.586 284.672 432.984 284.672C434.391 284.672 435.637 284.969 436.723 285.562C437.809 286.156 438.66 286.957 439.277 287.965C439.895 288.973 440.203 290.094 440.203 291.328C440.203 292.211 440.043 293.074 439.723 293.918C439.41 294.754 438.863 295.687 438.082 296.719C437.309 297.742 436.234 298.992 434.859 300.469L429.469 306.234V306.422H440.625V309H425.484ZM453.293 309.328C451.527 309.328 450.023 308.848 448.781 307.887C447.539 306.918 446.59 305.516 445.934 303.68C445.277 301.836 444.949 299.609 444.949 297C444.949 294.406 445.277 292.191 445.934 290.355C446.598 288.512 447.551 287.105 448.793 286.137C450.043 285.16 451.543 284.672 453.293 284.672C455.043 284.672 456.539 285.16 457.781 286.137C459.031 287.105 459.984 288.512 460.641 290.355C461.305 292.191 461.637 294.406 461.637 297C461.637 299.609 461.309 301.836 460.652 303.68C459.996 305.516 459.047 306.918 457.805 307.887C456.563 308.848 455.059 309.328 453.293 309.328ZM453.293 306.75C455.043 306.75 456.402 305.906 457.371 304.219C458.34 302.531 458.824 300.125 458.824 297C458.824 294.922 458.602 293.152 458.156 291.691C457.719 290.23 457.086 289.117 456.258 288.352C455.438 287.586 454.449 287.203 453.293 287.203C451.559 287.203 450.203 288.059 449.227 289.77C448.25 291.473 447.762 293.883 447.762 297C447.762 299.078 447.98 300.844 448.418 302.297C448.855 303.75 449.484 304.855 450.305 305.613C451.133 306.371 452.129 306.75 453.293 306.75ZM482.73 309.375C481.043 309.375 479.59 308.977 478.371 308.18C477.152 307.383 476.215 306.285 475.559 304.887C474.902 303.488 474.574 301.891 474.574 300.094C474.574 298.266 474.91 296.652 475.582 295.254C476.262 293.848 477.207 292.75 478.418 291.961C479.637 291.164 481.059 290.766 482.684 290.766C483.949 290.766 485.09 291 486.105 291.469C487.121 291.937 487.953 292.594 488.602 293.437C489.25 294.281 489.652 295.266 489.809 296.391H487.043C486.832 295.57 486.363 294.844 485.637 294.211C484.918 293.57 483.949 293.25 482.73 293.25C481.652 293.25 480.707 293.531 479.895 294.094C479.09 294.648 478.461 295.434 478.008 296.449C477.563 297.457 477.34 298.641 477.34 300C477.34 301.391 477.559 302.602 477.996 303.633C478.441 304.664 479.066 305.465 479.871 306.035C480.684 306.605 481.637 306.891 482.73 306.891C483.449 306.891 484.102 306.766 484.688 306.516C485.273 306.266 485.77 305.906 486.176 305.437C486.582 304.969 486.871 304.406 487.043 303.75H489.809C489.652 304.812 489.266 305.77 488.648 306.621C488.039 307.465 487.23 308.137 486.223 308.637C485.223 309.129 484.059 309.375 482.73 309.375ZM493.852 309V291H496.523V293.812H496.758C497.133 292.852 497.738 292.105 498.574 291.574C499.41 291.035 500.414 290.766 501.586 290.766C502.773 290.766 503.762 291.035 504.551 291.574C505.348 292.105 505.969 292.852 506.414 293.812H506.602C507.063 292.883 507.754 292.145 508.676 291.598C509.598 291.043 510.703 290.766 511.992 290.766C513.602 290.766 514.918 291.27 515.941 292.277C516.965 293.277 517.477 294.836 517.477 296.953V309H514.711V296.953C514.711 295.625 514.348 294.676 513.621 294.105C512.895 293.535 512.039 293.25 511.055 293.25C509.789 293.25 508.809 293.633 508.113 294.398C507.418 295.156 507.07 296.117 507.07 297.281V309H504.258V296.672C504.258 295.648 503.926 294.824 503.262 294.199C502.598 293.566 501.742 293.25 500.695 293.25C499.977 293.25 499.305 293.441 498.68 293.824C498.063 294.207 497.563 294.738 497.18 295.418C496.805 296.09 496.617 296.867 496.617 297.75V309H493.852Z" fill="white"/>
<path d="M409.949 37.3636V57H407.648L396.947 41.5824H396.756V57H394.378V37.3636H396.679L407.418 52.8196H407.609V37.3636H409.949ZM423.681 50.9787V42.2727H425.944V57H423.681V54.5071H423.528C423.183 55.255 422.646 55.891 421.917 56.4151C421.188 56.9329 420.268 57.1918 419.156 57.1918C418.235 57.1918 417.417 56.9904 416.701 56.5877C415.985 56.1786 415.423 55.565 415.014 54.7468C414.605 53.9222 414.4 52.8835 414.4 51.6307V42.2727H416.663V51.4773C416.663 52.5511 416.963 53.4077 417.564 54.0469C418.171 54.6861 418.945 55.0057 419.884 55.0057C420.447 55.0057 421.019 54.8619 421.601 54.5742C422.189 54.2866 422.681 53.8455 423.077 53.2511C423.48 52.6566 423.681 51.8991 423.681 50.9787ZM430.089 57V42.2727H432.275V44.5739H432.466C432.773 43.7876 433.269 43.1772 433.953 42.7425C434.637 42.3015 435.458 42.081 436.417 42.081C437.388 42.081 438.197 42.3015 438.843 42.7425C439.494 43.1772 440.003 43.7876 440.367 44.5739H440.52C440.898 43.8132 441.463 43.2092 442.218 42.7617C442.972 42.3079 443.876 42.081 444.931 42.081C446.248 42.081 447.325 42.4933 448.162 43.3178C448.999 44.136 449.418 45.4112 449.418 47.1435V57H447.155V47.1435C447.155 46.0568 446.858 45.2802 446.264 44.8136C445.669 44.3469 444.969 44.1136 444.164 44.1136C443.128 44.1136 442.326 44.4268 441.757 45.0533C441.188 45.6733 440.904 46.4595 440.904 47.4119V57H438.603V46.9134C438.603 46.076 438.331 45.4016 437.788 44.8903C437.244 44.3725 436.545 44.1136 435.688 44.1136C435.1 44.1136 434.55 44.2702 434.039 44.5835C433.534 44.8967 433.125 45.3313 432.812 45.8874C432.505 46.4371 432.351 47.0732 432.351 47.7955V57H430.089ZM453.862 57V37.3636H456.125V44.6122H456.317C456.483 44.3565 456.713 44.0305 457.007 43.6342C457.308 43.2315 457.736 42.8736 458.292 42.5604C458.854 42.2408 459.615 42.081 460.574 42.081C461.814 42.081 462.907 42.391 463.853 43.011C464.799 43.631 465.537 44.5099 466.068 45.6477C466.598 46.7855 466.864 48.1278 466.864 49.6747C466.864 51.2344 466.598 52.5863 466.068 53.7305C465.537 54.8683 464.802 55.7504 463.863 56.3768C462.923 56.9968 461.839 57.3068 460.612 57.3068C459.666 57.3068 458.909 57.1502 458.34 56.837C457.771 56.5174 457.333 56.1562 457.026 55.7536C456.719 55.3445 456.483 55.0057 456.317 54.7372H456.048V57H453.862ZM456.087 49.6364C456.087 50.7486 456.25 51.7298 456.576 52.5799C456.902 53.4237 457.378 54.0852 458.004 54.5646C458.631 55.0376 459.398 55.2741 460.305 55.2741C461.251 55.2741 462.041 55.0249 462.674 54.5263C463.313 54.0213 463.792 53.3437 464.112 52.4936C464.438 51.6371 464.601 50.6847 464.601 49.6364C464.601 48.6009 464.441 47.6676 464.121 46.8366C463.808 45.9993 463.332 45.3377 462.693 44.8519C462.06 44.3597 461.264 44.1136 460.305 44.1136C459.385 44.1136 458.612 44.3469 457.985 44.8136C457.359 45.2738 456.886 45.9194 456.566 46.7504C456.246 47.5749 456.087 48.5369 456.087 49.6364ZM476.5 57.3068C475.081 57.3068 473.857 56.9936 472.827 56.3672C471.805 55.7344 471.015 54.8523 470.459 53.7209C469.909 52.5831 469.635 51.2599 469.635 49.7514C469.635 48.2429 469.909 46.9134 470.459 45.7628C471.015 44.6058 471.789 43.7045 472.779 43.0589C473.777 42.407 474.94 42.081 476.27 42.081C477.037 42.081 477.794 42.2088 478.542 42.4645C479.29 42.7202 479.971 43.1357 480.584 43.7109C481.198 44.2798 481.687 45.0341 482.051 45.9737C482.415 46.9134 482.598 48.0703 482.598 49.4446V50.4034H471.245V48.4474H480.297C480.297 47.6165 480.13 46.875 479.798 46.223C479.472 45.571 479.005 45.0565 478.398 44.6793C477.797 44.3022 477.088 44.1136 476.27 44.1136C475.368 44.1136 474.588 44.3374 473.93 44.7848C473.278 45.2259 472.776 45.8011 472.425 46.5107C472.073 47.2202 471.897 47.9808 471.897 48.7926V50.0966C471.897 51.2088 472.089 52.1516 472.473 52.9251C472.863 53.6921 473.403 54.277 474.093 54.6797C474.783 55.076 475.586 55.2741 476.5 55.2741C477.094 55.2741 477.631 55.1911 478.11 55.0249C478.596 54.8523 479.015 54.5966 479.366 54.2578C479.718 53.9126 479.99 53.4844 480.181 52.973L482.368 53.5866C482.137 54.3281 481.751 54.9801 481.207 55.5426C480.664 56.0987 479.993 56.5334 479.194 56.8466C478.395 57.1534 477.497 57.3068 476.5 57.3068ZM486.04 57V42.2727H488.226V44.4972H488.379C488.648 43.7685 489.134 43.1772 489.837 42.7234C490.54 42.2695 491.332 42.0426 492.214 42.0426C492.381 42.0426 492.588 42.0458 492.838 42.0522C493.087 42.0586 493.276 42.0682 493.403 42.081V44.3821C493.327 44.3629 493.151 44.3342 492.876 44.2958C492.608 44.2511 492.323 44.2287 492.023 44.2287C491.307 44.2287 490.668 44.3789 490.105 44.6793C489.549 44.9734 489.108 45.3825 488.782 45.9066C488.462 46.4244 488.303 47.0156 488.303 47.6804V57H486.04ZM509.662 57.3068C508.333 57.3068 507.166 56.9904 506.163 56.3576C505.166 55.7248 504.386 54.8395 503.823 53.7017C503.267 52.5639 502.989 51.2344 502.989 49.7131C502.989 48.179 503.267 46.8398 503.823 45.6957C504.386 44.5515 505.166 43.663 506.163 43.0302C507.166 42.3974 508.333 42.081 509.662 42.081C510.992 42.081 512.155 42.3974 513.152 43.0302C514.156 43.663 514.936 44.5515 515.492 45.6957C516.054 46.8398 516.336 48.179 516.336 49.7131C516.336 51.2344 516.054 52.5639 515.492 53.7017C514.936 54.8395 514.156 55.7248 513.152 56.3576C512.155 56.9904 510.992 57.3068 509.662 57.3068ZM509.662 55.2741C510.672 55.2741 511.503 55.0153 512.155 54.4975C512.807 53.9798 513.29 53.299 513.603 52.4553C513.916 51.6115 514.073 50.6974 514.073 49.7131C514.073 48.7287 513.916 47.8114 513.603 46.9613C513.29 46.1112 512.807 45.424 512.155 44.8999C511.503 44.3757 510.672 44.1136 509.662 44.1136C508.652 44.1136 507.821 44.3757 507.169 44.8999C506.517 45.424 506.035 46.1112 505.722 46.9613C505.408 47.8114 505.252 48.7287 505.252 49.7131C505.252 50.6974 505.408 51.6115 505.722 52.4553C506.035 53.299 506.517 53.9798 507.169 54.4975C507.821 55.0153 508.652 55.2741 509.662 55.2741ZM526.348 42.2727V44.1903H518.409V42.2727H526.348ZM520.787 57V40.2401C520.787 39.3963 520.985 38.6932 521.381 38.1307C521.778 37.5682 522.292 37.1463 522.925 36.8651C523.558 36.5838 524.226 36.4432 524.929 36.4432C525.485 36.4432 525.939 36.4879 526.29 36.5774C526.642 36.6669 526.904 36.75 527.077 36.8267L526.425 38.7827C526.31 38.7443 526.15 38.6964 525.945 38.6388C525.747 38.5813 525.485 38.5526 525.159 38.5526C524.411 38.5526 523.871 38.7411 523.539 39.1183C523.213 39.4954 523.05 40.0483 523.05 40.777V57H520.787ZM543.518 42.2727V44.1903H535.886V42.2727H543.518ZM538.11 38.7443H540.373V52.7812C540.373 53.4205 540.466 53.8999 540.651 54.2195C540.843 54.5327 541.086 54.7436 541.38 54.8523C541.68 54.9545 541.997 55.0057 542.329 55.0057C542.578 55.0057 542.783 54.9929 542.943 54.9673C543.102 54.9354 543.23 54.9098 543.326 54.8906L543.786 56.9233C543.633 56.9808 543.419 57.0384 543.144 57.0959C542.869 57.1598 542.521 57.1918 542.099 57.1918C541.46 57.1918 540.833 57.0543 540.22 56.7795C539.612 56.5046 539.107 56.0859 538.705 55.5234C538.308 54.9609 538.11 54.2514 538.11 53.3949V38.7443ZM546.922 57V42.2727H549.184V57H546.922ZM548.072 39.8182C547.631 39.8182 547.251 39.668 546.931 39.3675C546.618 39.0671 546.461 38.706 546.461 38.2841C546.461 37.8622 546.618 37.5011 546.931 37.2006C547.251 36.9002 547.631 36.75 548.072 36.75C548.513 36.75 548.89 36.9002 549.204 37.2006C549.523 37.5011 549.683 37.8622 549.683 38.2841C549.683 38.706 549.523 39.0671 549.204 39.3675C548.89 39.668 548.513 39.8182 548.072 39.8182ZM555.592 37.3636V57H553.329V37.3636H555.592ZM565.911 57.3068C564.492 57.3068 563.268 56.9936 562.239 56.3672C561.216 55.7344 560.426 54.8523 559.87 53.7209C559.321 52.5831 559.046 51.2599 559.046 49.7514C559.046 48.2429 559.321 46.9134 559.87 45.7628C560.426 44.6058 561.2 43.7045 562.191 43.0589C563.188 42.407 564.351 42.081 565.681 42.081C566.448 42.081 567.205 42.2088 567.953 42.4645C568.701 42.7202 569.382 43.1357 569.995 43.7109C570.609 44.2798 571.098 45.0341 571.462 45.9737C571.827 46.9134 572.009 48.0703 572.009 49.4446V50.4034H560.657V48.4474H569.708C569.708 47.6165 569.541 46.875 569.209 46.223C568.883 45.571 568.416 45.0565 567.809 44.6793C567.208 44.3022 566.499 44.1136 565.681 44.1136C564.779 44.1136 564 44.3374 563.341 44.7848C562.689 45.2259 562.187 45.8011 561.836 46.5107C561.484 47.2202 561.309 47.9808 561.309 48.7926V50.0966C561.309 51.2088 561.5 52.1516 561.884 52.9251C562.274 53.6921 562.814 54.277 563.504 54.6797C564.195 55.076 564.997 55.2741 565.911 55.2741C566.505 55.2741 567.042 55.1911 567.522 55.0249C568.007 54.8523 568.426 54.5966 568.778 54.2578C569.129 53.9126 569.401 53.4844 569.593 52.973L571.779 53.5866C571.549 54.3281 571.162 54.9801 570.619 55.5426C570.075 56.0987 569.404 56.5334 568.605 56.8466C567.806 57.1534 566.908 57.3068 565.911 57.3068ZM585.883 45.571L583.85 46.1463C583.722 45.8075 583.534 45.4783 583.284 45.1587C583.041 44.8327 582.709 44.5643 582.287 44.3533C581.865 44.1424 581.325 44.0369 580.667 44.0369C579.766 44.0369 579.014 44.2447 578.414 44.6602C577.819 45.0692 577.522 45.5902 577.522 46.223C577.522 46.7855 577.726 47.2298 578.136 47.5558C578.545 47.8817 579.184 48.1534 580.053 48.3707L582.239 48.9077C583.556 49.2273 584.537 49.7163 585.183 50.3746C585.828 51.0266 586.151 51.8672 586.151 52.8963C586.151 53.7401 585.908 54.4943 585.422 55.1591C584.943 55.8239 584.272 56.348 583.409 56.7315C582.546 57.1151 581.543 57.3068 580.398 57.3068C578.896 57.3068 577.653 56.9808 576.669 56.3288C575.684 55.6768 575.061 54.7244 574.799 53.4716L576.947 52.9347C577.151 53.7273 577.538 54.3217 578.107 54.718C578.682 55.1143 579.433 55.3125 580.36 55.3125C581.415 55.3125 582.252 55.0888 582.872 54.6413C583.498 54.1875 583.812 53.6442 583.812 53.0114C583.812 52.5 583.633 52.0717 583.275 51.7266C582.917 51.375 582.367 51.1129 581.626 50.9403L579.171 50.3651C577.822 50.0455 576.832 49.5501 576.199 48.8789C575.572 48.2013 575.259 47.3544 575.259 46.3381C575.259 45.5071 575.492 44.772 575.959 44.1328C576.432 43.4936 577.074 42.9918 577.886 42.6275C578.704 42.2631 579.631 42.081 580.667 42.081C582.124 42.081 583.268 42.4006 584.099 43.0398C584.937 43.679 585.531 44.5227 585.883 45.571ZM598.072 45.3793V43.3082H609.884V45.3793H598.072ZM598.072 51.0554V48.9844H609.884V51.0554H598.072ZM625.496 51.4773V51.3622C625.509 50.1413 625.636 49.1697 625.879 48.4474C626.122 47.7251 626.467 47.1403 626.915 46.6928C627.362 46.2454 627.899 45.8331 628.526 45.456C628.903 45.2259 629.242 44.9542 629.542 44.641C629.842 44.3214 630.079 43.9538 630.252 43.5384C630.43 43.1229 630.52 42.6626 630.52 42.1577C630.52 41.5312 630.373 40.9879 630.079 40.5277C629.785 40.0675 629.392 39.7127 628.9 39.4634C628.407 39.2141 627.861 39.0895 627.26 39.0895C626.736 39.0895 626.231 39.1982 625.745 39.4155C625.259 39.6328 624.853 39.9748 624.527 40.4414C624.201 40.908 624.013 41.5185 623.962 42.2727H621.546C621.597 41.1861 621.878 40.256 622.389 39.4826C622.907 38.7092 623.588 38.1179 624.432 37.7088C625.282 37.2997 626.225 37.0952 627.26 37.0952C628.385 37.0952 629.363 37.3189 630.194 37.7663C631.031 38.2138 631.677 38.8274 632.131 39.6072C632.591 40.3871 632.821 41.2756 632.821 42.2727C632.821 42.9759 632.712 43.6119 632.495 44.1808C632.284 44.7496 631.977 45.2578 631.575 45.7053C631.178 46.1527 630.699 46.549 630.136 46.8942C629.574 47.2457 629.123 47.6165 628.785 48.0064C628.446 48.3899 628.2 48.8469 628.046 49.3775C627.893 49.908 627.81 50.5696 627.797 51.3622V51.4773H625.496ZM626.723 57.1534C626.25 57.1534 625.844 56.984 625.505 56.6452C625.167 56.3065 624.997 55.9006 624.997 55.4276C624.997 54.9545 625.167 54.5487 625.505 54.2099C625.844 53.8711 626.25 53.7017 626.723 53.7017C627.196 53.7017 627.602 53.8711 627.941 54.2099C628.28 54.5487 628.449 54.9545 628.449 55.4276C628.449 55.7408 628.369 56.0284 628.209 56.2905C628.056 56.5526 627.848 56.7635 627.586 56.9233C627.33 57.0767 627.043 57.1534 626.723 57.1534Z" fill="#FFEA00"/>
<path d="M544.484 226V223.891L552.406 215.219C553.336 214.203 554.102 213.32 554.703 212.57C555.305 211.812 555.75 211.102 556.039 210.437C556.336 209.766 556.484 209.062 556.484 208.328C556.484 207.484 556.281 206.754 555.875 206.137C555.477 205.52 554.93 205.043 554.234 204.707C553.539 204.371 552.758 204.203 551.891 204.203C550.969 204.203 550.164 204.395 549.477 204.777C548.797 205.152 548.27 205.68 547.895 206.359C547.527 207.039 547.344 207.836 547.344 208.75H544.578C544.578 207.344 544.902 206.109 545.551 205.047C546.199 203.984 547.082 203.156 548.199 202.562C549.324 201.969 550.586 201.672 551.984 201.672C553.391 201.672 554.637 201.969 555.723 202.562C556.809 203.156 557.66 203.957 558.277 204.965C558.895 205.973 559.203 207.094 559.203 208.328C559.203 209.211 559.043 210.074 558.723 210.918C558.41 211.754 557.863 212.687 557.082 213.719C556.309 214.742 555.234 215.992 553.859 217.469L548.469 223.234V223.422H559.625V226H544.484ZM572.293 226.328C570.527 226.328 569.023 225.848 567.781 224.887C566.539 223.918 565.59 222.516 564.934 220.68C564.277 218.836 563.949 216.609 563.949 214C563.949 211.406 564.277 209.191 564.934 207.355C565.598 205.512 566.551 204.105 567.793 203.137C569.043 202.16 570.543 201.672 572.293 201.672C574.043 201.672 575.539 202.16 576.781 203.137C578.031 204.105 578.984 205.512 579.641 207.355C580.305 209.191 580.637 211.406 580.637 214C580.637 216.609 580.309 218.836 579.652 220.68C578.996 222.516 578.047 223.918 576.805 224.887C575.563 225.848 574.059 226.328 572.293 226.328ZM572.293 223.75C574.043 223.75 575.402 222.906 576.371 221.219C577.34 219.531 577.824 217.125 577.824 214C577.824 211.922 577.602 210.152 577.156 208.691C576.719 207.23 576.086 206.117 575.258 205.352C574.438 204.586 573.449 204.203 572.293 204.203C570.559 204.203 569.203 205.059 568.227 206.77C567.25 208.473 566.762 210.883 566.762 214C566.762 216.078 566.98 217.844 567.418 219.297C567.855 220.75 568.484 221.855 569.305 222.613C570.133 223.371 571.129 223.75 572.293 223.75ZM601.73 226.375C600.043 226.375 598.59 225.977 597.371 225.18C596.152 224.383 595.215 223.285 594.559 221.887C593.902 220.488 593.574 218.891 593.574 217.094C593.574 215.266 593.91 213.652 594.582 212.254C595.262 210.848 596.207 209.75 597.418 208.961C598.637 208.164 600.059 207.766 601.684 207.766C602.949 207.766 604.09 208 605.105 208.469C606.121 208.937 606.953 209.594 607.602 210.437C608.25 211.281 608.652 212.266 608.809 213.391H606.043C605.832 212.57 605.363 211.844 604.637 211.211C603.918 210.57 602.949 210.25 601.73 210.25C600.652 210.25 599.707 210.531 598.895 211.094C598.09 211.648 597.461 212.434 597.008 213.449C596.563 214.457 596.34 215.641 596.34 217C596.34 218.391 596.559 219.602 596.996 220.633C597.441 221.664 598.066 222.465 598.871 223.035C599.684 223.605 600.637 223.891 601.73 223.891C602.449 223.891 603.102 223.766 603.688 223.516C604.273 223.266 604.77 222.906 605.176 222.437C605.582 221.969 605.871 221.406 606.043 220.75H608.809C608.652 221.812 608.266 222.77 607.648 223.621C607.039 224.465 606.23 225.137 605.223 225.637C604.223 226.129 603.059 226.375 601.73 226.375ZM612.852 226V208H615.523V210.812H615.758C616.133 209.852 616.738 209.105 617.574 208.574C618.41 208.035 619.414 207.766 620.586 207.766C621.773 207.766 622.762 208.035 623.551 208.574C624.348 209.105 624.969 209.852 625.414 210.812H625.602C626.063 209.883 626.754 209.145 627.676 208.598C628.598 208.043 629.703 207.766 630.992 207.766C632.602 207.766 633.918 208.27 634.941 209.277C635.965 210.277 636.477 211.836 636.477 213.953V226H633.711V213.953C633.711 212.625 633.348 211.676 632.621 211.105C631.895 210.535 631.039 210.25 630.055 210.25C628.789 210.25 627.809 210.633 627.113 211.398C626.418 212.156 626.07 213.117 626.07 214.281V226H623.258V213.672C623.258 212.648 622.926 211.824 622.262 211.199C621.598 210.566 620.742 210.25 619.695 210.25C618.977 210.25 618.305 210.441 617.68 210.824C617.063 211.207 616.563 211.738 616.18 212.418C615.805 213.09 615.617 213.867 615.617 214.75V226H612.852Z" fill="white"/>
<rect x="416" y="151" width="111" height="111" fill="#BE4A0E"/>
<path d="M441.5 116L441.871 115.072L441.5 116ZM492.851 77.5254C493.141 77.0554 492.995 76.4393 492.525 76.1491L484.867 71.4211C484.397 71.131 483.781 71.2767 483.491 71.7467C483.201 72.2166 483.347 72.8328 483.817 73.1229L490.624 77.3256L486.421 84.1327C486.131 84.6027 486.277 85.2188 486.747 85.509C487.217 85.7991 487.833 85.6534 488.123 85.1834L492.851 77.5254ZM447 173C447.734 173.679 447.734 173.679 447.735 173.678C447.735 173.678 447.736 173.677 447.737 173.676C447.738 173.675 447.74 173.672 447.743 173.67C447.748 173.664 447.755 173.656 447.765 173.645C447.784 173.625 447.812 173.594 447.848 173.554C447.919 173.475 448.023 173.358 448.157 173.206C448.424 172.902 448.807 172.456 449.279 171.884C450.221 170.74 451.517 169.09 452.937 167.057C455.771 162.999 459.128 157.376 461.139 151.184C463.149 144.994 463.844 138.139 461.215 131.7C458.577 125.24 452.67 119.391 441.871 115.072L441.5 116L441.129 116.929C451.579 121.109 456.986 126.635 459.363 132.456C461.749 138.299 461.164 144.631 459.236 150.566C457.31 156.499 454.072 161.939 451.297 165.912C449.913 167.894 448.65 169.502 447.735 170.612C447.278 171.167 446.908 171.597 446.653 171.887C446.526 172.032 446.428 172.142 446.362 172.215C446.329 172.252 446.305 172.279 446.288 172.297C446.28 172.305 446.274 172.312 446.271 172.316C446.269 172.318 446.267 172.319 446.267 172.32C446.266 172.321 446.266 172.321 446.266 172.321C446.266 172.321 446.266 172.321 447 173ZM441.5 116L441.871 115.072C436.608 112.966 433.645 110.855 432.293 108.879C431.633 107.914 431.365 106.993 431.378 106.104C431.392 105.205 431.697 104.259 432.312 103.259C433.561 101.231 435.999 99.1307 439.334 97.0363C442.646 94.9559 446.745 92.9405 451.204 91.0453C460.118 87.2558 470.371 83.9875 478.41 81.6638C482.427 80.5029 485.884 79.5797 488.337 78.9468C489.563 78.6304 490.538 78.3867 491.205 78.2222C491.539 78.14 491.796 78.0775 491.969 78.0358C492.056 78.0149 492.121 77.9991 492.165 77.9887C492.187 77.9834 492.203 77.9795 492.214 77.9769C492.22 77.9756 492.224 77.9747 492.226 77.9741C492.228 77.9737 492.229 77.9735 492.229 77.9734C492.23 77.9732 492.23 77.9732 492 77C491.77 76.0269 491.769 76.027 491.768 76.0272C491.768 76.0274 491.767 76.0277 491.765 76.028C491.762 76.0287 491.758 76.0298 491.752 76.0312C491.74 76.0339 491.723 76.038 491.7 76.0434C491.655 76.0542 491.588 76.0703 491.5 76.0916C491.324 76.1341 491.064 76.1973 490.727 76.2803C490.053 76.4464 489.071 76.6919 487.837 77.0103C485.37 77.6469 481.893 78.5753 477.855 79.7425C469.785 82.075 459.444 85.3692 450.421 89.2047C445.911 91.1221 441.706 93.1847 438.27 95.3426C434.857 97.4865 432.103 99.7851 430.609 102.21C429.854 103.437 429.4 104.731 429.379 106.073C429.358 107.424 429.778 108.744 430.642 110.008C432.339 112.489 435.767 114.784 441.129 116.929L441.5 116Z" fill="#FFEA00"/>
<path d="M37.3281 170.547C37.3125 171.531 37.125 172.516 36.7656 173.5C36.4062 174.484 35.8008 175.383 34.9492 176.195C34.0898 177.008 32.9297 177.66 31.4687 178.152C30 178.645 28.1562 178.891 25.9375 178.891C23.8125 178.891 21.9297 178.691 20.2891 178.293C18.6406 177.895 17.2539 177.316 16.1289 176.559C14.9961 175.801 14.1367 174.887 13.5508 173.816C12.9648 172.738 12.6719 171.523 12.6719 170.172C12.6719 168.828 12.9414 167.633 13.4805 166.586C14.0117 165.531 14.7539 164.672 15.707 164.008C16.6602 163.344 17.7578 162.914 19 162.719V165.578C17.9219 165.844 17.0273 166.359 16.3164 167.125C15.6055 167.891 15.25 168.906 15.25 170.172C15.25 172.031 16.0586 173.496 17.6758 174.566C19.293 175.629 21.5625 176.164 24.4844 176.172V175.984C23.8203 175.547 23.2539 175.027 22.7852 174.426C22.3086 173.816 21.9414 173.145 21.6836 172.41C21.4258 171.676 21.2969 170.898 21.2969 170.078C21.2969 168.703 21.6406 167.445 22.3281 166.305C23.0078 165.164 23.9492 164.25 25.1523 163.562C26.3477 162.875 27.7188 162.531 29.2656 162.531C30.75 162.531 32.1094 162.863 33.3437 163.527C34.5703 164.191 35.5469 165.125 36.2734 166.328C36.9922 167.523 37.3438 168.93 37.3281 170.547ZM34.75 170.547C34.75 169.562 34.5039 168.68 34.0117 167.898C33.5195 167.109 32.8594 166.488 32.0312 166.035C31.2031 165.574 30.2812 165.344 29.2656 165.344C28.2734 165.344 27.3711 165.566 26.5586 166.012C25.7383 166.449 25.0859 167.055 24.6016 167.828C24.1172 168.594 23.875 169.469 23.875 170.453C23.875 171.195 24.0234 171.887 24.3203 172.527C24.6094 173.168 25.0078 173.73 25.5156 174.215C26.0234 174.691 26.6055 175.066 27.2617 175.34C27.9102 175.613 28.5937 175.75 29.3125 175.75C30.2656 175.75 31.1562 175.527 31.9844 175.082C32.8125 174.629 33.4805 174.012 33.9883 173.23C34.4961 172.441 34.75 171.547 34.75 170.547ZM37 148.595H19L19 145.923H21.8125V145.688C20.8516 145.313 20.1055 144.708 19.5742 143.872C19.0352 143.036 18.7656 142.032 18.7656 140.86C18.7656 139.673 19.0352 138.685 19.5742 137.896C20.1055 137.099 20.8516 136.478 21.8125 136.032V135.845C20.8828 135.384 20.1445 134.692 19.5977 133.771C19.043 132.849 18.7656 131.743 18.7656 130.454C18.7656 128.845 19.2695 127.528 20.2773 126.505C21.2773 125.481 22.8359 124.97 24.9531 124.97H37V127.735H24.9531C23.625 127.735 22.6758 128.099 22.1055 128.825C21.5352 129.552 21.25 130.407 21.25 131.392C21.25 132.657 21.6328 133.638 22.3984 134.333C23.1562 135.028 24.1172 135.376 25.2812 135.376H37V138.188H24.6719C23.6484 138.188 22.8242 138.521 22.1992 139.185C21.5664 139.849 21.25 140.704 21.25 141.751C21.25 142.47 21.4414 143.142 21.8242 143.767C22.207 144.384 22.7383 144.884 23.418 145.267C24.0898 145.642 24.8672 145.829 25.75 145.829H37V148.595Z" fill="white"/>
<path d="M199.172 330.328C197.563 330.328 196.141 330.043 194.906 329.473C193.68 328.895 192.723 328.102 192.035 327.094C191.348 326.078 191.008 324.922 191.016 323.625C191.008 322.609 191.207 321.672 191.613 320.812C192.02 319.945 192.574 319.223 193.277 318.645C193.988 318.059 194.781 317.687 195.656 317.531V317.391C194.508 317.094 193.594 316.449 192.914 315.457C192.234 314.457 191.898 313.32 191.906 312.047C191.898 310.828 192.207 309.738 192.832 308.777C193.457 307.816 194.316 307.059 195.41 306.504C196.512 305.949 197.766 305.672 199.172 305.672C200.563 305.672 201.805 305.949 202.898 306.504C203.992 307.059 204.852 307.816 205.477 308.777C206.109 309.738 206.43 310.828 206.438 312.047C206.43 313.32 206.082 314.457 205.395 315.457C204.715 316.449 203.813 317.094 202.688 317.391V317.531C203.555 317.687 204.336 318.059 205.031 318.645C205.727 319.223 206.281 319.945 206.695 320.812C207.109 321.672 207.32 322.609 207.328 323.625C207.32 324.922 206.969 326.078 206.273 327.094C205.586 328.102 204.629 328.895 203.402 329.473C202.184 330.043 200.773 330.328 199.172 330.328ZM199.172 327.75C200.258 327.75 201.195 327.574 201.984 327.223C202.773 326.871 203.383 326.375 203.813 325.734C204.242 325.094 204.461 324.344 204.469 323.484C204.461 322.578 204.227 321.777 203.766 321.082C203.305 320.387 202.676 319.84 201.879 319.441C201.09 319.043 200.188 318.844 199.172 318.844C198.148 318.844 197.234 319.043 196.43 319.441C195.633 319.84 195.004 320.387 194.543 321.082C194.09 321.777 193.867 322.578 193.875 323.484C193.867 324.344 194.074 325.094 194.496 325.734C194.926 326.375 195.539 326.871 196.336 327.223C197.133 327.574 198.078 327.75 199.172 327.75ZM199.172 316.359C200.031 316.359 200.793 316.187 201.457 315.844C202.129 315.5 202.656 315.02 203.039 314.402C203.422 313.785 203.617 313.062 203.625 312.234C203.617 311.422 203.426 310.715 203.051 310.113C202.676 309.504 202.156 309.035 201.492 308.707C200.828 308.371 200.055 308.203 199.172 308.203C198.273 308.203 197.488 308.371 196.816 308.707C196.145 309.035 195.625 309.504 195.258 310.113C194.891 310.715 194.711 311.422 194.719 312.234C194.711 313.062 194.895 313.785 195.27 314.402C195.652 315.02 196.18 315.5 196.852 315.844C197.523 316.187 198.297 316.359 199.172 316.359ZM221.147 330V312H223.819V314.812H224.054C224.429 313.852 225.034 313.105 225.87 312.574C226.706 312.035 227.71 311.766 228.882 311.766C230.069 311.766 231.058 312.035 231.847 312.574C232.644 313.105 233.265 313.852 233.71 314.812H233.897C234.358 313.883 235.05 313.145 235.972 312.598C236.894 312.043 237.999 311.766 239.288 311.766C240.897 311.766 242.214 312.27 243.237 313.277C244.261 314.277 244.772 315.836 244.772 317.953V330H242.007V317.953C242.007 316.625 241.644 315.676 240.917 315.105C240.19 314.535 239.335 314.25 238.351 314.25C237.085 314.25 236.104 314.633 235.409 315.398C234.714 316.156 234.366 317.117 234.366 318.281V330H231.554V317.672C231.554 316.648 231.222 315.824 230.558 315.199C229.894 314.566 229.038 314.25 227.991 314.25C227.272 314.25 226.601 314.441 225.976 314.824C225.358 315.207 224.858 315.738 224.476 316.418C224.101 317.09 223.913 317.867 223.913 318.75V330H221.147Z" fill="white"/>
</svg>
