<svg width="648" height="346" viewBox="0 0 648 346" fill="none" xmlns="http://www.w3.org/2000/svg">
<rect x="62" y="32" width="314" height="237" fill="#D69F59" stroke="white" stroke-width="2"/>
<path d="M59.2895 283.274C58.899 283.664 58.899 284.297 59.2895 284.688L65.6534 291.052C66.044 291.442 66.6771 291.442 67.0676 291.052C67.4582 290.661 67.4582 290.028 67.0676 289.638L61.4108 283.981L67.0676 278.324C67.4582 277.933 67.4582 277.3 67.0676 276.91C66.6771 276.519 66.044 276.519 65.6534 276.91L59.2895 283.274ZM376.71 284.688C377.101 284.297 377.101 283.664 376.71 283.274L370.346 276.91C369.956 276.519 369.322 276.519 368.932 276.91C368.541 277.3 368.541 277.933 368.932 278.324L374.589 283.981L368.932 289.638C368.541 290.028 368.541 290.661 368.932 291.052C369.322 291.442 369.956 291.442 370.346 291.052L376.71 284.688ZM59.9966 283.981V284.981H376.003V283.981V282.981H59.9966V283.981Z" fill="white"/>
<path d="M45.2929 271.759C45.6834 272.15 46.3166 272.15 46.7071 271.759L53.0711 265.395C53.4616 265.005 53.4616 264.372 53.0711 263.981C52.6805 263.591 52.0474 263.591 51.6569 263.981L46 269.638L40.3431 263.981C39.9526 263.591 39.3195 263.591 38.9289 263.981C38.5384 264.372 38.5384 265.005 38.9289 265.395L45.2929 271.759ZM46.7071 31.2929C46.3166 30.9023 45.6834 30.9023 45.2929 31.2929L38.9289 37.6568C38.5384 38.0473 38.5384 38.6805 38.9289 39.071C39.3195 39.4616 39.9526 39.4616 40.3431 39.071L46 33.4142L51.6569 39.071C52.0474 39.4616 52.6805 39.4616 53.0711 39.071C53.4616 38.6805 53.4616 38.0473 53.0711 37.6568L46.7071 31.2929ZM46 271.052H47L47 32H46H45L45 271.052H46Z" fill="white"/>
<path d="M425.484 309V306.891L433.406 298.219C434.336 297.203 435.102 296.32 435.703 295.57C436.305 294.812 436.75 294.102 437.039 293.437C437.336 292.766 437.484 292.062 437.484 291.328C437.484 290.484 437.281 289.754 436.875 289.137C436.477 288.52 435.93 288.043 435.234 287.707C434.539 287.371 433.758 287.203 432.891 287.203C431.969 287.203 431.164 287.395 430.477 287.777C429.797 288.152 429.27 288.68 428.895 289.359C428.527 290.039 428.344 290.836 428.344 291.75H425.578C425.578 290.344 425.902 289.109 426.551 288.047C427.199 286.984 428.082 286.156 429.199 285.562C430.324 284.969 431.586 284.672 432.984 284.672C434.391 284.672 435.637 284.969 436.723 285.562C437.809 286.156 438.66 286.957 439.277 287.965C439.895 288.973 440.203 290.094 440.203 291.328C440.203 292.211 440.043 293.074 439.723 293.918C439.41 294.754 438.863 295.687 438.082 296.719C437.309 297.742 436.234 298.992 434.859 300.469L429.469 306.234V306.422H440.625V309H425.484ZM453.293 309.328C451.527 309.328 450.023 308.848 448.781 307.887C447.539 306.918 446.59 305.516 445.934 303.68C445.277 301.836 444.949 299.609 444.949 297C444.949 294.406 445.277 292.191 445.934 290.355C446.598 288.512 447.551 287.105 448.793 286.137C450.043 285.16 451.543 284.672 453.293 284.672C455.043 284.672 456.539 285.16 457.781 286.137C459.031 287.105 459.984 288.512 460.641 290.355C461.305 292.191 461.637 294.406 461.637 297C461.637 299.609 461.309 301.836 460.652 303.68C459.996 305.516 459.047 306.918 457.805 307.887C456.563 308.848 455.059 309.328 453.293 309.328ZM453.293 306.75C455.043 306.75 456.402 305.906 457.371 304.219C458.34 302.531 458.824 300.125 458.824 297C458.824 294.922 458.602 293.152 458.156 291.691C457.719 290.23 457.086 289.117 456.258 288.352C455.438 287.586 454.449 287.203 453.293 287.203C451.559 287.203 450.203 288.059 449.227 289.77C448.25 291.473 447.762 293.883 447.762 297C447.762 299.078 447.98 300.844 448.418 302.297C448.855 303.75 449.484 304.855 450.305 305.613C451.133 306.371 452.129 306.75 453.293 306.75ZM482.73 309.375C481.043 309.375 479.59 308.977 478.371 308.18C477.152 307.383 476.215 306.285 475.559 304.887C474.902 303.488 474.574 301.891 474.574 300.094C474.574 298.266 474.91 296.652 475.582 295.254C476.262 293.848 477.207 292.75 478.418 291.961C479.637 291.164 481.059 290.766 482.684 290.766C483.949 290.766 485.09 291 486.105 291.469C487.121 291.937 487.953 292.594 488.602 293.437C489.25 294.281 489.652 295.266 489.809 296.391H487.043C486.832 295.57 486.363 294.844 485.637 294.211C484.918 293.57 483.949 293.25 482.73 293.25C481.652 293.25 480.707 293.531 479.895 294.094C479.09 294.648 478.461 295.434 478.008 296.449C477.563 297.457 477.34 298.641 477.34 300C477.34 301.391 477.559 302.602 477.996 303.633C478.441 304.664 479.066 305.465 479.871 306.035C480.684 306.605 481.637 306.891 482.73 306.891C483.449 306.891 484.102 306.766 484.688 306.516C485.273 306.266 485.77 305.906 486.176 305.437C486.582 304.969 486.871 304.406 487.043 303.75H489.809C489.652 304.812 489.266 305.77 488.648 306.621C488.039 307.465 487.23 308.137 486.223 308.637C485.223 309.129 484.059 309.375 482.73 309.375ZM493.852 309V291H496.523V293.812H496.758C497.133 292.852 497.738 292.105 498.574 291.574C499.41 291.035 500.414 290.766 501.586 290.766C502.773 290.766 503.762 291.035 504.551 291.574C505.348 292.105 505.969 292.852 506.414 293.812H506.602C507.063 292.883 507.754 292.145 508.676 291.598C509.598 291.043 510.703 290.766 511.992 290.766C513.602 290.766 514.918 291.27 515.941 292.277C516.965 293.277 517.477 294.836 517.477 296.953V309H514.711V296.953C514.711 295.625 514.348 294.676 513.621 294.105C512.895 293.535 512.039 293.25 511.055 293.25C509.789 293.25 508.809 293.633 508.113 294.398C507.418 295.156 507.07 296.117 507.07 297.281V309H504.258V296.672C504.258 295.648 503.926 294.824 503.262 294.199C502.598 293.566 501.742 293.25 500.695 293.25C499.977 293.25 499.305 293.441 498.68 293.824C498.063 294.207 497.563 294.738 497.18 295.418C496.805 296.09 496.617 296.867 496.617 297.75V309H493.852Z" fill="white"/>
<path d="M544.484 226V223.891L552.406 215.219C553.336 214.203 554.102 213.32 554.703 212.57C555.305 211.812 555.75 211.102 556.039 210.437C556.336 209.766 556.484 209.062 556.484 208.328C556.484 207.484 556.281 206.754 555.875 206.137C555.477 205.52 554.93 205.043 554.234 204.707C553.539 204.371 552.758 204.203 551.891 204.203C550.969 204.203 550.164 204.395 549.477 204.777C548.797 205.152 548.27 205.68 547.895 206.359C547.527 207.039 547.344 207.836 547.344 208.75H544.578C544.578 207.344 544.902 206.109 545.551 205.047C546.199 203.984 547.082 203.156 548.199 202.562C549.324 201.969 550.586 201.672 551.984 201.672C553.391 201.672 554.637 201.969 555.723 202.562C556.809 203.156 557.66 203.957 558.277 204.965C558.895 205.973 559.203 207.094 559.203 208.328C559.203 209.211 559.043 210.074 558.723 210.918C558.41 211.754 557.863 212.687 557.082 213.719C556.309 214.742 555.234 215.992 553.859 217.469L548.469 223.234V223.422H559.625V226H544.484ZM572.293 226.328C570.527 226.328 569.023 225.848 567.781 224.887C566.539 223.918 565.59 222.516 564.934 220.68C564.277 218.836 563.949 216.609 563.949 214C563.949 211.406 564.277 209.191 564.934 207.355C565.598 205.512 566.551 204.105 567.793 203.137C569.043 202.16 570.543 201.672 572.293 201.672C574.043 201.672 575.539 202.16 576.781 203.137C578.031 204.105 578.984 205.512 579.641 207.355C580.305 209.191 580.637 211.406 580.637 214C580.637 216.609 580.309 218.836 579.652 220.68C578.996 222.516 578.047 223.918 576.805 224.887C575.563 225.848 574.059 226.328 572.293 226.328ZM572.293 223.75C574.043 223.75 575.402 222.906 576.371 221.219C577.34 219.531 577.824 217.125 577.824 214C577.824 211.922 577.602 210.152 577.156 208.691C576.719 207.23 576.086 206.117 575.258 205.352C574.438 204.586 573.449 204.203 572.293 204.203C570.559 204.203 569.203 205.059 568.227 206.77C567.25 208.473 566.762 210.883 566.762 214C566.762 216.078 566.98 217.844 567.418 219.297C567.855 220.75 568.484 221.855 569.305 222.613C570.133 223.371 571.129 223.75 572.293 223.75ZM601.73 226.375C600.043 226.375 598.59 225.977 597.371 225.18C596.152 224.383 595.215 223.285 594.559 221.887C593.902 220.488 593.574 218.891 593.574 217.094C593.574 215.266 593.91 213.652 594.582 212.254C595.262 210.848 596.207 209.75 597.418 208.961C598.637 208.164 600.059 207.766 601.684 207.766C602.949 207.766 604.09 208 605.105 208.469C606.121 208.937 606.953 209.594 607.602 210.437C608.25 211.281 608.652 212.266 608.809 213.391H606.043C605.832 212.57 605.363 211.844 604.637 211.211C603.918 210.57 602.949 210.25 601.73 210.25C600.652 210.25 599.707 210.531 598.895 211.094C598.09 211.648 597.461 212.434 597.008 213.449C596.563 214.457 596.34 215.641 596.34 217C596.34 218.391 596.559 219.602 596.996 220.633C597.441 221.664 598.066 222.465 598.871 223.035C599.684 223.605 600.637 223.891 601.73 223.891C602.449 223.891 603.102 223.766 603.688 223.516C604.273 223.266 604.77 222.906 605.176 222.437C605.582 221.969 605.871 221.406 606.043 220.75H608.809C608.652 221.812 608.266 222.77 607.648 223.621C607.039 224.465 606.23 225.137 605.223 225.637C604.223 226.129 603.059 226.375 601.73 226.375ZM612.852 226V208H615.523V210.812H615.758C616.133 209.852 616.738 209.105 617.574 208.574C618.41 208.035 619.414 207.766 620.586 207.766C621.773 207.766 622.762 208.035 623.551 208.574C624.348 209.105 624.969 209.852 625.414 210.812H625.602C626.063 209.883 626.754 209.145 627.676 208.598C628.598 208.043 629.703 207.766 630.992 207.766C632.602 207.766 633.918 208.27 634.941 209.277C635.965 210.277 636.477 211.836 636.477 213.953V226H633.711V213.953C633.711 212.625 633.348 211.676 632.621 211.105C631.895 210.535 631.039 210.25 630.055 210.25C628.789 210.25 627.809 210.633 627.113 211.398C626.418 212.156 626.07 213.117 626.07 214.281V226H623.258V213.672C623.258 212.648 622.926 211.824 622.262 211.199C621.598 210.566 620.742 210.25 619.695 210.25C618.977 210.25 618.305 210.441 617.68 210.824C617.063 211.207 616.563 211.738 616.18 212.418C615.805 213.09 615.617 213.867 615.617 214.75V226H612.852Z" fill="white"/>
<rect x="416" y="151" width="111" height="111" fill="#BE4A0E"/>
<path d="M37.3281 170.547C37.3125 171.531 37.125 172.516 36.7656 173.5C36.4062 174.484 35.8008 175.383 34.9492 176.195C34.0898 177.008 32.9297 177.66 31.4687 178.152C30 178.645 28.1562 178.891 25.9375 178.891C23.8125 178.891 21.9297 178.691 20.2891 178.293C18.6406 177.895 17.2539 177.316 16.1289 176.559C14.9961 175.801 14.1367 174.887 13.5508 173.816C12.9648 172.738 12.6719 171.523 12.6719 170.172C12.6719 168.828 12.9414 167.633 13.4805 166.586C14.0117 165.531 14.7539 164.672 15.707 164.008C16.6602 163.344 17.7578 162.914 19 162.719V165.578C17.9219 165.844 17.0273 166.359 16.3164 167.125C15.6055 167.891 15.25 168.906 15.25 170.172C15.25 172.031 16.0586 173.496 17.6758 174.566C19.293 175.629 21.5625 176.164 24.4844 176.172V175.984C23.8203 175.547 23.2539 175.027 22.7852 174.426C22.3086 173.816 21.9414 173.145 21.6836 172.41C21.4258 171.676 21.2969 170.898 21.2969 170.078C21.2969 168.703 21.6406 167.445 22.3281 166.305C23.0078 165.164 23.9492 164.25 25.1523 163.562C26.3477 162.875 27.7188 162.531 29.2656 162.531C30.75 162.531 32.1094 162.863 33.3437 163.527C34.5703 164.191 35.5469 165.125 36.2734 166.328C36.9922 167.523 37.3438 168.93 37.3281 170.547ZM34.75 170.547C34.75 169.562 34.5039 168.68 34.0117 167.898C33.5195 167.109 32.8594 166.488 32.0312 166.035C31.2031 165.574 30.2812 165.344 29.2656 165.344C28.2734 165.344 27.3711 165.566 26.5586 166.012C25.7383 166.449 25.0859 167.055 24.6016 167.828C24.1172 168.594 23.875 169.469 23.875 170.453C23.875 171.195 24.0234 171.887 24.3203 172.527C24.6094 173.168 25.0078 173.73 25.5156 174.215C26.0234 174.691 26.6055 175.066 27.2617 175.34C27.9102 175.613 28.5937 175.75 29.3125 175.75C30.2656 175.75 31.1562 175.527 31.9844 175.082C32.8125 174.629 33.4805 174.012 33.9883 173.23C34.4961 172.441 34.75 171.547 34.75 170.547ZM37 148.595H19L19 145.923H21.8125V145.688C20.8516 145.313 20.1055 144.708 19.5742 143.872C19.0352 143.036 18.7656 142.032 18.7656 140.86C18.7656 139.673 19.0352 138.685 19.5742 137.896C20.1055 137.099 20.8516 136.478 21.8125 136.032V135.845C20.8828 135.384 20.1445 134.692 19.5977 133.771C19.043 132.849 18.7656 131.743 18.7656 130.454C18.7656 128.845 19.2695 127.528 20.2773 126.505C21.2773 125.481 22.8359 124.97 24.9531 124.97H37V127.735H24.9531C23.625 127.735 22.6758 128.099 22.1055 128.825C21.5352 129.552 21.25 130.407 21.25 131.392C21.25 132.657 21.6328 133.638 22.3984 134.333C23.1562 135.028 24.1172 135.376 25.2812 135.376H37V138.188H24.6719C23.6484 138.188 22.8242 138.521 22.1992 139.185C21.5664 139.849 21.25 140.704 21.25 141.751C21.25 142.47 21.4414 143.142 21.8242 143.767C22.207 144.384 22.7383 144.884 23.418 145.267C24.0898 145.642 24.8672 145.829 25.75 145.829H37V148.595Z" fill="white"/>
<path d="M199.172 330.328C197.563 330.328 196.141 330.043 194.906 329.473C193.68 328.895 192.723 328.102 192.035 327.094C191.348 326.078 191.008 324.922 191.016 323.625C191.008 322.609 191.207 321.672 191.613 320.812C192.02 319.945 192.574 319.223 193.277 318.645C193.988 318.059 194.781 317.687 195.656 317.531V317.391C194.508 317.094 193.594 316.449 192.914 315.457C192.234 314.457 191.898 313.32 191.906 312.047C191.898 310.828 192.207 309.738 192.832 308.777C193.457 307.816 194.316 307.059 195.41 306.504C196.512 305.949 197.766 305.672 199.172 305.672C200.563 305.672 201.805 305.949 202.898 306.504C203.992 307.059 204.852 307.816 205.477 308.777C206.109 309.738 206.43 310.828 206.438 312.047C206.43 313.32 206.082 314.457 205.395 315.457C204.715 316.449 203.813 317.094 202.688 317.391V317.531C203.555 317.687 204.336 318.059 205.031 318.645C205.727 319.223 206.281 319.945 206.695 320.812C207.109 321.672 207.32 322.609 207.328 323.625C207.32 324.922 206.969 326.078 206.273 327.094C205.586 328.102 204.629 328.895 203.402 329.473C202.184 330.043 200.773 330.328 199.172 330.328ZM199.172 327.75C200.258 327.75 201.195 327.574 201.984 327.223C202.773 326.871 203.383 326.375 203.813 325.734C204.242 325.094 204.461 324.344 204.469 323.484C204.461 322.578 204.227 321.777 203.766 321.082C203.305 320.387 202.676 319.84 201.879 319.441C201.09 319.043 200.188 318.844 199.172 318.844C198.148 318.844 197.234 319.043 196.43 319.441C195.633 319.84 195.004 320.387 194.543 321.082C194.09 321.777 193.867 322.578 193.875 323.484C193.867 324.344 194.074 325.094 194.496 325.734C194.926 326.375 195.539 326.871 196.336 327.223C197.133 327.574 198.078 327.75 199.172 327.75ZM199.172 316.359C200.031 316.359 200.793 316.187 201.457 315.844C202.129 315.5 202.656 315.02 203.039 314.402C203.422 313.785 203.617 313.062 203.625 312.234C203.617 311.422 203.426 310.715 203.051 310.113C202.676 309.504 202.156 309.035 201.492 308.707C200.828 308.371 200.055 308.203 199.172 308.203C198.273 308.203 197.488 308.371 196.816 308.707C196.145 309.035 195.625 309.504 195.258 310.113C194.891 310.715 194.711 311.422 194.719 312.234C194.711 313.062 194.895 313.785 195.27 314.402C195.652 315.02 196.18 315.5 196.852 315.844C197.523 316.187 198.297 316.359 199.172 316.359ZM221.147 330V312H223.819V314.812H224.054C224.429 313.852 225.034 313.105 225.87 312.574C226.706 312.035 227.71 311.766 228.882 311.766C230.069 311.766 231.058 312.035 231.847 312.574C232.644 313.105 233.265 313.852 233.71 314.812H233.897C234.358 313.883 235.05 313.145 235.972 312.598C236.894 312.043 237.999 311.766 239.288 311.766C240.897 311.766 242.214 312.27 243.237 313.277C244.261 314.277 244.772 315.836 244.772 317.953V330H242.007V317.953C242.007 316.625 241.644 315.676 240.917 315.105C240.19 314.535 239.335 314.25 238.351 314.25C237.085 314.25 236.104 314.633 235.409 315.398C234.714 316.156 234.366 317.117 234.366 318.281V330H231.554V317.672C231.554 316.648 231.222 315.824 230.558 315.199C229.894 314.566 229.038 314.25 227.991 314.25C227.272 314.25 226.601 314.441 225.976 314.824C225.358 315.207 224.858 315.738 224.476 316.418C224.101 317.09 223.913 317.867 223.913 318.75V330H221.147Z" fill="white"/>
<rect x="467" y="88" width="10" height="10" fill="#BE4A0E"/>
<path d="M422.001 143.051C422.03 143.603 422.5 144.027 423.051 143.999L432.039 143.538C432.591 143.509 433.015 143.039 432.987 142.488C432.959 141.936 432.489 141.512 431.937 141.54L423.947 141.95L423.538 133.961C423.509 133.409 423.039 132.985 422.488 133.013C421.936 133.041 421.512 133.511 421.54 134.063L422.001 143.051ZM460 102L459.258 101.33L422.258 142.33L423 143L423.742 143.67L460.742 102.67L460 102Z" fill="white"/>
<path d="M520.962 143.999C521.514 144.02 521.978 143.59 521.999 143.038L522.341 134.044C522.362 133.493 521.931 133.028 521.379 133.007C520.828 132.986 520.363 133.417 520.342 133.969L520.039 141.963L512.044 141.659C511.493 141.638 511.028 142.069 511.007 142.621C510.986 143.172 511.417 143.637 511.969 143.658L520.962 143.999ZM483 102L482.267 102.68L520.267 143.68L521 143L521.733 142.32L483.733 101.32L483 102Z" fill="white"/>
</svg>
