<svg width="309" height="54" viewBox="0 0 309 54" fill="none" xmlns="http://www.w3.org/2000/svg">
<g clip-path="url(#clip0_74_2038)">
<mask id="mask0_74_2038" style="mask-type:luminance" maskUnits="userSpaceOnUse" x="0" y="0" width="309" height="54">
<path d="M308.04 0H0V54H308.04V0Z" fill="white"/>
</mask>
<g mask="url(#mask0_74_2038)">
<path d="M305.196 2H3.43073C0.0625155 2 0 2.06271 0 5.44118V47.8824C0 51.2608 2.73086 54 6.09907 54H301.904C305.272 54 308.003 51.2608 308.003 47.8824V6.97059C308.003 3.59212 308.564 2 305.196 2Z" fill="url(#paint0_linear_74_2038)"/>
<path d="M301.938 2H6.09976C2.73117 2 0 4.73918 0 8.11765V8.88235C0 5.50388 2.73117 2.76471 6.09976 2.76471H301.938C305.307 2.76471 308.038 5.50388 308.038 8.88235V8.11765C308.038 4.73918 305.307 2 301.938 2Z" fill="url(#paint1_linear_74_2038)"/>
<path d="M301.938 54H6.09976C2.73117 54 0 51.2609 0 47.8824V47.1177C0 50.4961 2.73117 53.2353 6.09976 53.2353H301.938C305.307 53.2353 308.038 50.4961 308.038 47.1177V47.8824C308.038 51.2609 305.307 54 301.938 54Z" fill="url(#paint2_linear_74_2038)"/>
<path d="M293.988 12.1323C293.85 12.1323 293.738 12.0467 293.738 11.9412V2.76469C293.738 2.65916 293.85 2.57352 293.988 2.57352C294.126 2.57352 294.238 2.65916 294.238 2.76469V11.9412C294.238 12.0467 294.126 12.1323 293.988 12.1323Z" fill="#282A36"/>
<path d="M274.986 12.1323C274.848 12.1323 274.736 12.0467 274.736 11.9412V2.76469C274.736 2.65916 274.848 2.57352 274.986 2.57352C275.124 2.57352 275.236 2.65916 275.236 2.76469V11.9412C275.236 12.0467 275.124 12.1323 274.986 12.1323Z" fill="#282A36"/>
<path d="M255.984 12.1323C255.846 12.1323 255.734 12.0467 255.734 11.9412V2.76469C255.734 2.65916 255.846 2.57352 255.984 2.57352C256.122 2.57352 256.234 2.65916 256.234 2.76469V11.9412C256.234 12.0467 256.122 12.1323 255.984 12.1323Z" fill="#282A36"/>
<path d="M236.981 12.1323C236.843 12.1323 236.731 12.0467 236.731 11.9412V2.76469C236.731 2.65916 236.843 2.57352 236.981 2.57352C237.119 2.57352 237.231 2.65916 237.231 2.76469V11.9412C237.231 12.0467 237.119 12.1323 236.981 12.1323Z" fill="#282A36"/>
<path d="M217.979 12.1323C217.841 12.1323 217.729 12.0467 217.729 11.9412V2.76469C217.729 2.65916 217.841 2.57352 217.979 2.57352C218.117 2.57352 218.229 2.65916 218.229 2.76469V11.9412C218.229 12.0467 218.117 12.1323 217.979 12.1323Z" fill="#282A36"/>
<path d="M198.978 12.1323C198.84 12.1323 198.728 12.0467 198.728 11.9412V2.76469C198.728 2.65916 198.84 2.57352 198.978 2.57352C199.116 2.57352 199.228 2.65916 199.228 2.76469V11.9412C199.228 12.0467 199.116 12.1323 198.978 12.1323Z" fill="#282A36"/>
<path d="M179.975 12.1323C179.837 12.1323 179.725 12.0467 179.725 11.9412V2.76469C179.725 2.65916 179.837 2.57352 179.975 2.57352C180.113 2.57352 180.225 2.65916 180.225 2.76469V11.9412C180.225 12.0467 180.113 12.1323 179.975 12.1323Z" fill="#282A36"/>
<path d="M160.973 12.1323C160.835 12.1323 160.723 12.0467 160.723 11.9412V2.76469C160.723 2.65916 160.835 2.57352 160.973 2.57352C161.111 2.57352 161.223 2.65916 161.223 2.76469V11.9412C161.223 12.0467 161.111 12.1323 160.973 12.1323Z" fill="#282A36"/>
<path d="M141.971 12.1323C141.833 12.1323 141.721 12.0467 141.721 11.9412V2.76469C141.721 2.65916 141.833 2.57352 141.971 2.57352C142.109 2.57352 142.221 2.65916 142.221 2.76469V11.9412C142.221 12.0467 142.109 12.1323 141.971 12.1323Z" fill="#282A36"/>
<path d="M122.968 12.1323C122.83 12.1323 122.718 12.0467 122.718 11.9412V2.76469C122.718 2.65916 122.83 2.57352 122.968 2.57352C123.106 2.57352 123.218 2.65916 123.218 2.76469V11.9412C123.218 12.0467 123.106 12.1323 122.968 12.1323Z" fill="#282A36"/>
<path d="M103.966 12.1323C103.828 12.1323 103.716 12.0467 103.716 11.9412V2.76469C103.716 2.65916 103.828 2.57352 103.966 2.57352C104.104 2.57352 104.216 2.65916 104.216 2.76469V11.9412C104.216 12.0467 104.104 12.1323 103.966 12.1323Z" fill="#282A36"/>
<path d="M84.9635 12.1323C84.8255 12.1323 84.7135 12.0467 84.7135 11.9412V2.76469C84.7135 2.65916 84.8255 2.57352 84.9635 2.57352C85.1015 2.57352 85.2135 2.65916 85.2135 2.76469V11.9412C85.2135 12.0467 85.1015 12.1323 84.9635 12.1323Z" fill="#282A36"/>
<path d="M65.9611 12.1323C65.8231 12.1323 65.7111 12.0467 65.7111 11.9412V2.76469C65.7111 2.65916 65.8231 2.57352 65.9611 2.57352C66.0991 2.57352 66.2111 2.65916 66.2111 2.76469V11.9412C66.2111 12.0467 66.0991 12.1323 65.9611 12.1323Z" fill="#282A36"/>
<path d="M46.9588 12.1323C46.8208 12.1323 46.7088 12.0467 46.7088 11.9412V2.76469C46.7088 2.65916 46.8208 2.57352 46.9588 2.57352C47.0968 2.57352 47.2088 2.65916 47.2088 2.76469V11.9412C47.2088 12.0467 47.0968 12.1323 46.9588 12.1323Z" fill="#282A36"/>
<path d="M27.9564 12.1323C27.8184 12.1323 27.7064 12.0467 27.7064 11.9412V2.76469C27.7064 2.65916 27.8184 2.57352 27.9564 2.57352C28.0944 2.57352 28.2064 2.65916 28.2064 2.76469V11.9412C28.2064 12.0467 28.0944 12.1323 27.9564 12.1323Z" fill="#282A36"/>
<path d="M8.9529 12.1323C8.8149 12.1323 8.7029 12.0467 8.7029 11.9412V2.76469C8.7029 2.65916 8.8149 2.57352 8.9529 2.57352C9.0909 2.57352 9.2029 2.65916 9.2029 2.76469V11.9412C9.2029 12.0467 9.0909 12.1323 8.9529 12.1323Z" fill="#282A36"/>
<path d="M10.8543 7.54411C10.7163 7.54411 10.6043 7.45846 10.6043 7.35293V2.76469C10.6043 2.65916 10.7163 2.57352 10.8543 2.57352C10.9923 2.57352 11.1043 2.65916 11.1043 2.76469V7.35293C11.1043 7.45846 10.9923 7.54411 10.8543 7.54411Z" fill="#282A36"/>
<path d="M12.7533 7.54411C12.6153 7.54411 12.5033 7.45846 12.5033 7.35293V2.76469C12.5033 2.65916 12.6153 2.57352 12.7533 2.57352C12.8913 2.57352 13.0033 2.65916 13.0033 2.76469V7.35293C13.0033 7.45846 12.8923 7.54411 12.7533 7.54411Z" fill="#282A36"/>
<path d="M14.6538 7.54411C14.5158 7.54411 14.4038 7.45846 14.4038 7.35293V2.76469C14.4038 2.65916 14.5158 2.57352 14.6538 2.57352C14.7918 2.57352 14.9038 2.65916 14.9038 2.76469V7.35293C14.9038 7.45846 14.7928 7.54411 14.6538 7.54411Z" fill="#282A36"/>
<path d="M16.554 7.54411C16.416 7.54411 16.304 7.45846 16.304 7.35293V2.76469C16.304 2.65916 16.416 2.57352 16.554 2.57352C16.692 2.57352 16.804 2.65916 16.804 2.76469V7.35293C16.804 7.45846 16.692 7.54411 16.554 7.54411Z" fill="#282A36"/>
<path d="M18.4552 12.1323C18.3172 12.1323 18.2052 12.0467 18.2052 11.9412V2.76469C18.2052 2.65916 18.3172 2.57352 18.4552 2.57352C18.5932 2.57352 18.7052 2.65916 18.7052 2.76469V11.9412C18.7052 12.0467 18.5932 12.1323 18.4552 12.1323Z" fill="#282A36"/>
<path d="M20.3555 7.54411C20.2175 7.54411 20.1055 7.45846 20.1055 7.35293V2.76469C20.1055 2.65916 20.2175 2.57352 20.3555 2.57352C20.4935 2.57352 20.6055 2.65916 20.6055 2.76469V7.35293C20.6055 7.45846 20.4935 7.54411 20.3555 7.54411Z" fill="#282A36"/>
<path d="M22.2547 7.54411C22.1167 7.54411 22.0047 7.45846 22.0047 7.35293V2.76469C22.0047 2.65916 22.1167 2.57352 22.2547 2.57352C22.3927 2.57352 22.5047 2.65916 22.5047 2.76469V7.35293C22.5047 7.45846 22.3937 7.54411 22.2547 7.54411Z" fill="#282A36"/>
<path d="M24.1549 7.54411C24.0169 7.54411 23.9049 7.45846 23.9049 7.35293V2.76469C23.9049 2.65916 24.0169 2.57352 24.1549 2.57352C24.2929 2.57352 24.4049 2.65916 24.4049 2.76469V7.35293C24.4049 7.45846 24.2939 7.54411 24.1549 7.54411Z" fill="#282A36"/>
<path d="M26.0552 7.54411C25.9172 7.54411 25.8052 7.45846 25.8052 7.35293V2.76469C25.8052 2.65916 25.9172 2.57352 26.0552 2.57352C26.1932 2.57352 26.3052 2.65916 26.3052 2.76469V7.35293C26.3052 7.45846 26.1932 7.54411 26.0552 7.54411Z" fill="#282A36"/>
<path d="M29.8566 7.54411C29.7186 7.54411 29.6066 7.45846 29.6066 7.35293V2.76469C29.6066 2.65916 29.7186 2.57352 29.8566 2.57352C29.9946 2.57352 30.1066 2.65916 30.1066 2.76469V7.35293C30.1066 7.45846 29.9946 7.54411 29.8566 7.54411Z" fill="#282A36"/>
<path d="M31.7556 7.54411C31.6176 7.54411 31.5056 7.45846 31.5056 7.35293V2.76469C31.5056 2.65916 31.6176 2.57352 31.7556 2.57352C31.8936 2.57352 32.0056 2.65916 32.0056 2.76469V7.35293C32.0056 7.45846 31.8946 7.54411 31.7556 7.54411Z" fill="#282A36"/>
<path d="M33.6561 7.54411C33.5181 7.54411 33.4061 7.45846 33.4061 7.35293V2.76469C33.4061 2.65916 33.5181 2.57352 33.6561 2.57352C33.7941 2.57352 33.9061 2.65916 33.9061 2.76469V7.35293C33.9061 7.45846 33.7951 7.54411 33.6561 7.54411Z" fill="#282A36"/>
<path d="M35.5564 7.54411C35.4184 7.54411 35.3064 7.45846 35.3064 7.35293V2.76469C35.3064 2.65916 35.4184 2.57352 35.5564 2.57352C35.6944 2.57352 35.8064 2.65916 35.8064 2.76469V7.35293C35.8064 7.45846 35.6944 7.54411 35.5564 7.54411Z" fill="#282A36"/>
<path d="M37.4576 12.1323C37.3196 12.1323 37.2076 12.0467 37.2076 11.9412V2.76469C37.2076 2.65916 37.3196 2.57352 37.4576 2.57352C37.5956 2.57352 37.7076 2.65916 37.7076 2.76469V11.9412C37.7076 12.0467 37.5956 12.1323 37.4576 12.1323Z" fill="#282A36"/>
<path d="M39.3578 7.54411C39.2198 7.54411 39.1078 7.45846 39.1078 7.35293V2.76469C39.1078 2.65916 39.2198 2.57352 39.3578 2.57352C39.4958 2.57352 39.6078 2.65916 39.6078 2.76469V7.35293C39.6078 7.45846 39.4958 7.54411 39.3578 7.54411Z" fill="#282A36"/>
<path d="M41.257 7.54411C41.119 7.54411 41.007 7.45846 41.007 7.35293V2.76469C41.007 2.65916 41.119 2.57352 41.257 2.57352C41.395 2.57352 41.507 2.65916 41.507 2.76469V7.35293C41.507 7.45846 41.396 7.54411 41.257 7.54411Z" fill="#282A36"/>
<path d="M43.1573 7.54411C43.0193 7.54411 42.9073 7.45846 42.9073 7.35293V2.76469C42.9073 2.65916 43.0193 2.57352 43.1573 2.57352C43.2953 2.57352 43.4073 2.65916 43.4073 2.76469V7.35293C43.4073 7.45846 43.2953 7.54411 43.1573 7.54411Z" fill="#282A36"/>
<path d="M45.0575 7.54411C44.9195 7.54411 44.8075 7.45846 44.8075 7.35293V2.76469C44.8075 2.65916 44.9195 2.57352 45.0575 2.57352C45.1955 2.57352 45.3075 2.65916 45.3075 2.76469V7.35293C45.3075 7.45846 45.1955 7.54411 45.0575 7.54411Z" fill="#282A36"/>
<path d="M48.859 7.54411C48.721 7.54411 48.609 7.45846 48.609 7.35293V2.76469C48.609 2.65916 48.721 2.57352 48.859 2.57352C48.997 2.57352 49.109 2.65916 49.109 2.76469V7.35293C49.109 7.45846 48.997 7.54411 48.859 7.54411Z" fill="#282A36"/>
<path d="M50.758 7.54411C50.62 7.54411 50.508 7.45846 50.508 7.35293V2.76469C50.508 2.65916 50.62 2.57352 50.758 2.57352C50.896 2.57352 51.008 2.65916 51.008 2.76469V7.35293C51.008 7.45846 50.897 7.54411 50.758 7.54411Z" fill="#282A36"/>
<path d="M52.6585 7.54411C52.5205 7.54411 52.4085 7.45846 52.4085 7.35293V2.76469C52.4085 2.65916 52.5205 2.57352 52.6585 2.57352C52.7965 2.57352 52.9085 2.65916 52.9085 2.76469V7.35293C52.9085 7.45846 52.7965 7.54411 52.6585 7.54411Z" fill="#282A36"/>
<path d="M54.5587 7.54411C54.4207 7.54411 54.3087 7.45846 54.3087 7.35293V2.76469C54.3087 2.65916 54.4207 2.57352 54.5587 2.57352C54.6967 2.57352 54.8087 2.65916 54.8087 2.76469V7.35293C54.8087 7.45846 54.6967 7.54411 54.5587 7.54411Z" fill="#282A36"/>
<path d="M56.4599 12.1323C56.3219 12.1323 56.2099 12.0467 56.2099 11.9412V2.76469C56.2099 2.65916 56.3219 2.57352 56.4599 2.57352C56.5979 2.57352 56.7099 2.65916 56.7099 2.76469V11.9412C56.7099 12.0467 56.5979 12.1323 56.4599 12.1323Z" fill="#282A36"/>
<path d="M58.3602 7.54411C58.2222 7.54411 58.1102 7.45846 58.1102 7.35293V2.76469C58.1102 2.65916 58.2222 2.57352 58.3602 2.57352C58.4982 2.57352 58.6102 2.65916 58.6102 2.76469V7.35293C58.6102 7.45846 58.4982 7.54411 58.3602 7.54411Z" fill="#282A36"/>
<path d="M60.2594 7.54411C60.1214 7.54411 60.0094 7.45846 60.0094 7.35293V2.76469C60.0094 2.65916 60.1214 2.57352 60.2594 2.57352C60.3974 2.57352 60.5094 2.65916 60.5094 2.76469V7.35293C60.5094 7.45846 60.3984 7.54411 60.2594 7.54411Z" fill="#282A36"/>
<path d="M62.1596 7.54411C62.0216 7.54411 61.9096 7.45846 61.9096 7.35293V2.76469C61.9096 2.65916 62.0216 2.57352 62.1596 2.57352C62.2976 2.57352 62.4096 2.65916 62.4096 2.76469V7.35293C62.4096 7.45846 62.2976 7.54411 62.1596 7.54411Z" fill="#282A36"/>
<path d="M64.0599 7.54411C63.9219 7.54411 63.8099 7.45846 63.8099 7.35293V2.76469C63.8099 2.65916 63.9219 2.57352 64.0599 2.57352C64.1979 2.57352 64.3099 2.65916 64.3099 2.76469V7.35293C64.3099 7.45846 64.1979 7.54411 64.0599 7.54411Z" fill="#282A36"/>
<path d="M67.8613 7.54411C67.7233 7.54411 67.6113 7.45846 67.6113 7.35293V2.76469C67.6113 2.65916 67.7233 2.57352 67.8613 2.57352C67.9993 2.57352 68.1113 2.65916 68.1113 2.76469V7.35293C68.1113 7.45846 67.9993 7.54411 67.8613 7.54411Z" fill="#282A36"/>
<path d="M69.7603 7.54411C69.6223 7.54411 69.5103 7.45846 69.5103 7.35293V2.76469C69.5103 2.65916 69.6223 2.57352 69.7603 2.57352C69.8983 2.57352 70.0103 2.65916 70.0103 2.76469V7.35293C70.0103 7.45846 69.8993 7.54411 69.7603 7.54411Z" fill="#282A36"/>
<path d="M71.6608 7.54411C71.5228 7.54411 71.4108 7.45846 71.4108 7.35293V2.76469C71.4108 2.65916 71.5228 2.57352 71.6608 2.57352C71.7988 2.57352 71.9108 2.65916 71.9108 2.76469V7.35293C71.9108 7.45846 71.7988 7.54411 71.6608 7.54411Z" fill="#282A36"/>
<path d="M73.5611 7.54411C73.4231 7.54411 73.3111 7.45846 73.3111 7.35293V2.76469C73.3111 2.65916 73.4231 2.57352 73.5611 2.57352C73.6991 2.57352 73.8111 2.65916 73.8111 2.76469V7.35293C73.8111 7.45846 73.6991 7.54411 73.5611 7.54411Z" fill="#282A36"/>
<path d="M75.4623 12.1323C75.3243 12.1323 75.2123 12.0467 75.2123 11.9412V2.76469C75.2123 2.65916 75.3243 2.57352 75.4623 2.57352C75.6003 2.57352 75.7123 2.65916 75.7123 2.76469V11.9412C75.7123 12.0467 75.6003 12.1323 75.4623 12.1323Z" fill="#282A36"/>
<path d="M77.3625 7.54411C77.2245 7.54411 77.1125 7.45846 77.1125 7.35293V2.76469C77.1125 2.65916 77.2245 2.57352 77.3625 2.57352C77.5005 2.57352 77.6125 2.65916 77.6125 2.76469V7.35293C77.6125 7.45846 77.5005 7.54411 77.3625 7.54411Z" fill="#282A36"/>
<path d="M79.2617 7.54411C79.1237 7.54411 79.0117 7.45846 79.0117 7.35293V2.76469C79.0117 2.65916 79.1237 2.57352 79.2617 2.57352C79.3997 2.57352 79.5117 2.65916 79.5117 2.76469V7.35293C79.5117 7.45846 79.4007 7.54411 79.2617 7.54411Z" fill="#282A36"/>
<path d="M81.162 7.54411C81.024 7.54411 80.912 7.45846 80.912 7.35293V2.76469C80.912 2.65916 81.024 2.57352 81.162 2.57352C81.3 2.57352 81.412 2.65916 81.412 2.76469V7.35293C81.412 7.45846 81.3 7.54411 81.162 7.54411Z" fill="#282A36"/>
<path d="M83.0622 7.54411C82.9242 7.54411 82.8122 7.45846 82.8122 7.35293V2.76469C82.8122 2.65916 82.9242 2.57352 83.0622 2.57352C83.2002 2.57352 83.3122 2.65916 83.3122 2.76469V7.35293C83.3122 7.45846 83.2002 7.54411 83.0622 7.54411Z" fill="#282A36"/>
<path d="M86.8637 7.54411C86.7257 7.54411 86.6137 7.45846 86.6137 7.35293V2.76469C86.6137 2.65916 86.7257 2.57352 86.8637 2.57352C87.0017 2.57352 87.1137 2.65916 87.1137 2.76469V7.35293C87.1137 7.45846 87.0017 7.54411 86.8637 7.54411Z" fill="#282A36"/>
<path d="M88.7627 7.54411C88.6247 7.54411 88.5127 7.45846 88.5127 7.35293V2.76469C88.5127 2.65916 88.6247 2.57352 88.7627 2.57352C88.9007 2.57352 89.0127 2.65916 89.0127 2.76469V7.35293C89.0127 7.45846 88.9017 7.54411 88.7627 7.54411Z" fill="#282A36"/>
<path d="M90.6632 7.54411C90.5252 7.54411 90.4132 7.45846 90.4132 7.35293V2.76469C90.4132 2.65916 90.5252 2.57352 90.6632 2.57352C90.8012 2.57352 90.9132 2.65916 90.9132 2.76469V7.35293C90.9132 7.45846 90.8012 7.54411 90.6632 7.54411Z" fill="#282A36"/>
<path d="M92.5634 7.54411C92.4254 7.54411 92.3134 7.45846 92.3134 7.35293V2.76469C92.3134 2.65916 92.4254 2.57352 92.5634 2.57352C92.7014 2.57352 92.8134 2.65916 92.8134 2.76469V7.35293C92.8134 7.45846 92.7014 7.54411 92.5634 7.54411Z" fill="#282A36"/>
<path d="M94.4646 12.1323C94.3266 12.1323 94.2146 12.0467 94.2146 11.9412V2.76469C94.2146 2.65916 94.3266 2.57352 94.4646 2.57352C94.6026 2.57352 94.7146 2.65916 94.7146 2.76469V11.9412C94.7146 12.0467 94.6026 12.1323 94.4646 12.1323Z" fill="#282A36"/>
<path d="M96.3639 7.54411C96.2259 7.54411 96.1139 7.45846 96.1139 7.35293V2.76469C96.1139 2.65916 96.2259 2.57352 96.3639 2.57352C96.5019 2.57352 96.6139 2.65916 96.6139 2.76469V7.35293C96.6139 7.45846 96.5029 7.54411 96.3639 7.54411Z" fill="#282A36"/>
<path d="M98.2641 7.54411C98.1261 7.54411 98.0141 7.45846 98.0141 7.35293V2.76469C98.0141 2.65916 98.1261 2.57352 98.2641 2.57352C98.4021 2.57352 98.5141 2.65916 98.5141 2.76469V7.35293C98.5141 7.45846 98.4031 7.54411 98.2641 7.54411Z" fill="#282A36"/>
<path d="M100.164 7.54411C100.026 7.54411 99.9144 7.45846 99.9144 7.35293V2.76469C99.9144 2.65916 100.026 2.57352 100.164 2.57352C100.302 2.57352 100.414 2.65916 100.414 2.76469V7.35293C100.414 7.45846 100.302 7.54411 100.164 7.54411Z" fill="#282A36"/>
<path d="M102.065 7.54411C101.927 7.54411 101.815 7.45846 101.815 7.35293V2.76469C101.815 2.65916 101.927 2.57352 102.065 2.57352C102.203 2.57352 102.315 2.65916 102.315 2.76469V7.35293C102.315 7.45846 102.203 7.54411 102.065 7.54411Z" fill="#282A36"/>
<path d="M105.865 7.54411C105.727 7.54411 105.615 7.45846 105.615 7.35293V2.76469C105.615 2.65916 105.727 2.57352 105.865 2.57352C106.003 2.57352 106.115 2.65916 106.115 2.76469V7.35293C106.115 7.45846 106.004 7.54411 105.865 7.54411Z" fill="#282A36"/>
<path d="M107.765 7.54411C107.627 7.54411 107.515 7.45846 107.515 7.35293V2.76469C107.515 2.65916 107.627 2.57352 107.765 2.57352C107.903 2.57352 108.015 2.65916 108.015 2.76469V7.35293C108.015 7.45846 107.904 7.54411 107.765 7.54411Z" fill="#282A36"/>
<path d="M109.665 7.54411C109.527 7.54411 109.415 7.45846 109.415 7.35293V2.76469C109.415 2.65916 109.527 2.57352 109.665 2.57352C109.803 2.57352 109.915 2.65916 109.915 2.76469V7.35293C109.915 7.45846 109.803 7.54411 109.665 7.54411Z" fill="#282A36"/>
<path d="M111.566 7.54411C111.428 7.54411 111.316 7.45846 111.316 7.35293V2.76469C111.316 2.65916 111.428 2.57352 111.566 2.57352C111.704 2.57352 111.816 2.65916 111.816 2.76469V7.35293C111.816 7.45846 111.704 7.54411 111.566 7.54411Z" fill="#282A36"/>
<path d="M113.467 12.1323C113.329 12.1323 113.217 12.0467 113.217 11.9412V2.76469C113.217 2.65916 113.329 2.57352 113.467 2.57352C113.605 2.57352 113.717 2.65916 113.717 2.76469V11.9412C113.717 12.0467 113.605 12.1323 113.467 12.1323Z" fill="#282A36"/>
<path d="M115.366 7.54411C115.228 7.54411 115.116 7.45846 115.116 7.35293V2.76469C115.116 2.65916 115.228 2.57352 115.366 2.57352C115.504 2.57352 115.616 2.65916 115.616 2.76469V7.35293C115.616 7.45846 115.505 7.54411 115.366 7.54411Z" fill="#282A36"/>
<path d="M117.266 7.54411C117.128 7.54411 117.016 7.45846 117.016 7.35293V2.76469C117.016 2.65916 117.128 2.57352 117.266 2.57352C117.404 2.57352 117.516 2.65916 117.516 2.76469V7.35293C117.516 7.45846 117.405 7.54411 117.266 7.54411Z" fill="#282A36"/>
<path d="M119.167 7.54411C119.029 7.54411 118.917 7.45846 118.917 7.35293V2.76469C118.917 2.65916 119.029 2.57352 119.167 2.57352C119.305 2.57352 119.417 2.65916 119.417 2.76469V7.35293C119.417 7.45846 119.305 7.54411 119.167 7.54411Z" fill="#282A36"/>
<path d="M121.067 7.54411C120.929 7.54411 120.817 7.45846 120.817 7.35293V2.76469C120.817 2.65916 120.929 2.57352 121.067 2.57352C121.205 2.57352 121.317 2.65916 121.317 2.76469V7.35293C121.317 7.45846 121.205 7.54411 121.067 7.54411Z" fill="#282A36"/>
<path d="M124.867 7.54411C124.729 7.54411 124.617 7.45846 124.617 7.35293V2.76469C124.617 2.65916 124.729 2.57352 124.867 2.57352C125.005 2.57352 125.117 2.65916 125.117 2.76469V7.35293C125.117 7.45846 125.006 7.54411 124.867 7.54411Z" fill="#282A36"/>
<path d="M126.767 7.54411C126.629 7.54411 126.517 7.45846 126.517 7.35293V2.76469C126.517 2.65916 126.629 2.57352 126.767 2.57352C126.905 2.57352 127.017 2.65916 127.017 2.76469V7.35293C127.017 7.45846 126.906 7.54411 126.767 7.54411Z" fill="#282A36"/>
<path d="M128.668 7.54411C128.53 7.54411 128.418 7.45846 128.418 7.35293V2.76469C128.418 2.65916 128.53 2.57352 128.668 2.57352C128.806 2.57352 128.918 2.65916 128.918 2.76469V7.35293C128.918 7.45846 128.806 7.54411 128.668 7.54411Z" fill="#282A36"/>
<path d="M130.568 7.54411C130.43 7.54411 130.318 7.45846 130.318 7.35293V2.76469C130.318 2.65916 130.43 2.57352 130.568 2.57352C130.706 2.57352 130.818 2.65916 130.818 2.76469V7.35293C130.818 7.45846 130.706 7.54411 130.568 7.54411Z" fill="#282A36"/>
<path d="M132.469 12.1323C132.331 12.1323 132.219 12.0467 132.219 11.9412V2.76469C132.219 2.65916 132.331 2.57352 132.469 2.57352C132.607 2.57352 132.719 2.65916 132.719 2.76469V11.9412C132.719 12.0467 132.607 12.1323 132.469 12.1323Z" fill="#282A36"/>
<path d="M134.369 7.54411C134.231 7.54411 134.119 7.45846 134.119 7.35293V2.76469C134.119 2.65916 134.231 2.57352 134.369 2.57352C134.507 2.57352 134.619 2.65916 134.619 2.76469V7.35293C134.619 7.45846 134.508 7.54411 134.369 7.54411Z" fill="#282A36"/>
<path d="M136.269 7.54411C136.131 7.54411 136.019 7.45846 136.019 7.35293V2.76469C136.019 2.65916 136.131 2.57352 136.269 2.57352C136.407 2.57352 136.519 2.65916 136.519 2.76469V7.35293C136.519 7.45846 136.408 7.54411 136.269 7.54411Z" fill="#282A36"/>
<path d="M138.169 7.54411C138.031 7.54411 137.919 7.45846 137.919 7.35293V2.76469C137.919 2.65916 138.031 2.57352 138.169 2.57352C138.307 2.57352 138.419 2.65916 138.419 2.76469V7.35293C138.419 7.45846 138.307 7.54411 138.169 7.54411Z" fill="#282A36"/>
<path d="M140.069 7.54411C139.931 7.54411 139.819 7.45846 139.819 7.35293V2.76469C139.819 2.65916 139.931 2.57352 140.069 2.57352C140.207 2.57352 140.319 2.65916 140.319 2.76469V7.35293C140.319 7.45846 140.207 7.54411 140.069 7.54411Z" fill="#282A36"/>
<path d="M143.87 7.54411C143.732 7.54411 143.62 7.45846 143.62 7.35293V2.76469C143.62 2.65916 143.732 2.57352 143.87 2.57352C144.008 2.57352 144.12 2.65916 144.12 2.76469V7.35293C144.12 7.45846 144.009 7.54411 143.87 7.54411Z" fill="#282A36"/>
<path d="M145.77 7.54411C145.632 7.54411 145.52 7.45846 145.52 7.35293V2.76469C145.52 2.65916 145.632 2.57352 145.77 2.57352C145.908 2.57352 146.02 2.65916 146.02 2.76469V7.35293C146.02 7.45846 145.909 7.54411 145.77 7.54411Z" fill="#282A36"/>
<path d="M147.67 7.54411C147.532 7.54411 147.42 7.45846 147.42 7.35293V2.76469C147.42 2.65916 147.532 2.57352 147.67 2.57352C147.808 2.57352 147.92 2.65916 147.92 2.76469V7.35293C147.92 7.45846 147.808 7.54411 147.67 7.54411Z" fill="#282A36"/>
<path d="M149.57 7.54411C149.432 7.54411 149.32 7.45846 149.32 7.35293V2.76469C149.32 2.65916 149.432 2.57352 149.57 2.57352C149.708 2.57352 149.82 2.65916 149.82 2.76469V7.35293C149.82 7.45846 149.708 7.54411 149.57 7.54411Z" fill="#282A36"/>
<path d="M151.472 12.1323C151.334 12.1323 151.222 12.0467 151.222 11.9412V2.76469C151.222 2.65916 151.334 2.57352 151.472 2.57352C151.61 2.57352 151.722 2.65916 151.722 2.76469V11.9412C151.722 12.0467 151.61 12.1323 151.472 12.1323Z" fill="#282A36"/>
<path d="M153.371 7.54411C153.233 7.54411 153.121 7.45846 153.121 7.35293V2.76469C153.121 2.65916 153.233 2.57352 153.371 2.57352C153.509 2.57352 153.621 2.65916 153.621 2.76469V7.35293C153.621 7.45846 153.51 7.54411 153.371 7.54411Z" fill="#282A36"/>
<path d="M155.271 7.54411C155.133 7.54411 155.021 7.45846 155.021 7.35293V2.76469C155.021 2.65916 155.133 2.57352 155.271 2.57352C155.409 2.57352 155.521 2.65916 155.521 2.76469V7.35293C155.521 7.45846 155.41 7.54411 155.271 7.54411Z" fill="#282A36"/>
<path d="M157.171 7.54411C157.033 7.54411 156.921 7.45846 156.921 7.35293V2.76469C156.921 2.65916 157.033 2.57352 157.171 2.57352C157.309 2.57352 157.421 2.65916 157.421 2.76469V7.35293C157.421 7.45846 157.309 7.54411 157.171 7.54411Z" fill="#282A36"/>
<path d="M159.072 7.54411C158.934 7.54411 158.822 7.45846 158.822 7.35293V2.76469C158.822 2.65916 158.934 2.57352 159.072 2.57352C159.21 2.57352 159.322 2.65916 159.322 2.76469V7.35293C159.322 7.45846 159.21 7.54411 159.072 7.54411Z" fill="#282A36"/>
<path d="M162.872 7.54411C162.734 7.54411 162.622 7.45846 162.622 7.35293V2.76469C162.622 2.65916 162.734 2.57352 162.872 2.57352C163.01 2.57352 163.122 2.65916 163.122 2.76469V7.35293C163.122 7.45846 163.011 7.54411 162.872 7.54411Z" fill="#282A36"/>
<path d="M164.772 7.54411C164.634 7.54411 164.522 7.45846 164.522 7.35293V2.76469C164.522 2.65916 164.634 2.57352 164.772 2.57352C164.91 2.57352 165.022 2.65916 165.022 2.76469V7.35293C165.022 7.45846 164.911 7.54411 164.772 7.54411Z" fill="#282A36"/>
<path d="M166.673 7.54411C166.535 7.54411 166.423 7.45846 166.423 7.35293V2.76469C166.423 2.65916 166.535 2.57352 166.673 2.57352C166.811 2.57352 166.923 2.65916 166.923 2.76469V7.35293C166.923 7.45846 166.811 7.54411 166.673 7.54411Z" fill="#282A36"/>
<path d="M168.573 7.54411C168.435 7.54411 168.323 7.45846 168.323 7.35293V2.76469C168.323 2.65916 168.435 2.57352 168.573 2.57352C168.711 2.57352 168.823 2.65916 168.823 2.76469V7.35293C168.823 7.45846 168.711 7.54411 168.573 7.54411Z" fill="#282A36"/>
<path d="M170.474 12.1323C170.336 12.1323 170.224 12.0467 170.224 11.9412V2.76469C170.224 2.65916 170.336 2.57352 170.474 2.57352C170.612 2.57352 170.724 2.65916 170.724 2.76469V11.9412C170.724 12.0467 170.612 12.1323 170.474 12.1323Z" fill="#282A36"/>
<path d="M172.373 7.54411C172.235 7.54411 172.123 7.45846 172.123 7.35293V2.76469C172.123 2.65916 172.235 2.57352 172.373 2.57352C172.511 2.57352 172.623 2.65916 172.623 2.76469V7.35293C172.623 7.45846 172.512 7.54411 172.373 7.54411Z" fill="#282A36"/>
<path d="M174.274 7.54411C174.136 7.54411 174.024 7.45846 174.024 7.35293V2.76469C174.024 2.65916 174.136 2.57352 174.274 2.57352C174.412 2.57352 174.524 2.65916 174.524 2.76469V7.35293C174.524 7.45846 174.413 7.54411 174.274 7.54411Z" fill="#282A36"/>
<path d="M176.174 7.54411C176.036 7.54411 175.924 7.45846 175.924 7.35293V2.76469C175.924 2.65916 176.036 2.57352 176.174 2.57352C176.312 2.57352 176.424 2.65916 176.424 2.76469V7.35293C176.424 7.45846 176.312 7.54411 176.174 7.54411Z" fill="#282A36"/>
<path d="M178.074 7.54411C177.936 7.54411 177.824 7.45846 177.824 7.35293V2.76469C177.824 2.65916 177.936 2.57352 178.074 2.57352C178.212 2.57352 178.324 2.65916 178.324 2.76469V7.35293C178.324 7.45846 178.212 7.54411 178.074 7.54411Z" fill="#282A36"/>
<path d="M181.874 7.54411C181.736 7.54411 181.624 7.45846 181.624 7.35293V2.76469C181.624 2.65916 181.736 2.57352 181.874 2.57352C182.012 2.57352 182.124 2.65916 182.124 2.76469V7.35293C182.124 7.45846 182.013 7.54411 181.874 7.54411Z" fill="#282A36"/>
<path d="M183.774 7.54411C183.636 7.54411 183.524 7.45846 183.524 7.35293V2.76469C183.524 2.65916 183.636 2.57352 183.774 2.57352C183.912 2.57352 184.024 2.65916 184.024 2.76469V7.35293C184.024 7.45846 183.913 7.54411 183.774 7.54411Z" fill="#282A36"/>
<path d="M185.675 7.54411C185.537 7.54411 185.425 7.45846 185.425 7.35293V2.76469C185.425 2.65916 185.537 2.57352 185.675 2.57352C185.813 2.57352 185.925 2.65916 185.925 2.76469V7.35293C185.925 7.45846 185.813 7.54411 185.675 7.54411Z" fill="#282A36"/>
<path d="M187.575 7.54411C187.437 7.54411 187.325 7.45846 187.325 7.35293V2.76469C187.325 2.65916 187.437 2.57352 187.575 2.57352C187.713 2.57352 187.825 2.65916 187.825 2.76469V7.35293C187.825 7.45846 187.713 7.54411 187.575 7.54411Z" fill="#282A36"/>
<path d="M189.476 12.1323C189.338 12.1323 189.226 12.0467 189.226 11.9412V2.76469C189.226 2.65916 189.338 2.57352 189.476 2.57352C189.614 2.57352 189.726 2.65916 189.726 2.76469V11.9412C189.726 12.0467 189.614 12.1323 189.476 12.1323Z" fill="#282A36"/>
<path d="M191.376 7.54411C191.238 7.54411 191.126 7.45846 191.126 7.35293V2.76469C191.126 2.65916 191.238 2.57352 191.376 2.57352C191.514 2.57352 191.626 2.65916 191.626 2.76469V7.35293C191.626 7.45846 191.515 7.54411 191.376 7.54411Z" fill="#282A36"/>
<path d="M193.276 7.54411C193.138 7.54411 193.026 7.45846 193.026 7.35293V2.76469C193.026 2.65916 193.138 2.57352 193.276 2.57352C193.414 2.57352 193.526 2.65916 193.526 2.76469V7.35293C193.526 7.45846 193.415 7.54411 193.276 7.54411Z" fill="#282A36"/>
<path d="M195.176 7.54411C195.038 7.54411 194.926 7.45846 194.926 7.35293V2.76469C194.926 2.65916 195.038 2.57352 195.176 2.57352C195.314 2.57352 195.426 2.65916 195.426 2.76469V7.35293C195.426 7.45846 195.314 7.54411 195.176 7.54411Z" fill="#282A36"/>
<path d="M197.076 7.54411C196.938 7.54411 196.826 7.45846 196.826 7.35293V2.76469C196.826 2.65916 196.938 2.57352 197.076 2.57352C197.214 2.57352 197.326 2.65916 197.326 2.76469V7.35293C197.326 7.45846 197.214 7.54411 197.076 7.54411Z" fill="#282A36"/>
<path d="M200.877 7.54411C200.739 7.54411 200.627 7.45846 200.627 7.35293V2.76469C200.627 2.65916 200.739 2.57352 200.877 2.57352C201.015 2.57352 201.127 2.65916 201.127 2.76469V7.35293C201.127 7.45846 201.016 7.54411 200.877 7.54411Z" fill="#282A36"/>
<path d="M202.777 7.54411C202.639 7.54411 202.527 7.45846 202.527 7.35293V2.76469C202.527 2.65916 202.639 2.57352 202.777 2.57352C202.915 2.57352 203.027 2.65916 203.027 2.76469V7.35293C203.027 7.45846 202.916 7.54411 202.777 7.54411Z" fill="#282A36"/>
<path d="M204.677 7.54411C204.539 7.54411 204.427 7.45846 204.427 7.35293V2.76469C204.427 2.65916 204.539 2.57352 204.677 2.57352C204.815 2.57352 204.927 2.65916 204.927 2.76469V7.35293C204.927 7.45846 204.815 7.54411 204.677 7.54411Z" fill="#282A36"/>
<path d="M206.579 7.54411C206.441 7.54411 206.329 7.45846 206.329 7.35293V2.76469C206.329 2.65916 206.441 2.57352 206.579 2.57352C206.717 2.57352 206.829 2.65916 206.829 2.76469V7.35293C206.829 7.45846 206.716 7.54411 206.579 7.54411Z" fill="#282A36"/>
<path d="M208.478 12.1323C208.34 12.1323 208.228 12.0467 208.228 11.9412V2.76469C208.228 2.65916 208.34 2.57352 208.478 2.57352C208.616 2.57352 208.728 2.65916 208.728 2.76469V11.9412C208.728 12.0467 208.616 12.1323 208.478 12.1323Z" fill="#282A36"/>
<path d="M210.378 7.54411C210.24 7.54411 210.128 7.45846 210.128 7.35293V2.76469C210.128 2.65916 210.24 2.57352 210.378 2.57352C210.516 2.57352 210.628 2.65916 210.628 2.76469V7.35293C210.628 7.45846 210.516 7.54411 210.378 7.54411Z" fill="#282A36"/>
<path d="M212.278 7.54411C212.14 7.54411 212.028 7.45846 212.028 7.35293V2.76469C212.028 2.65916 212.14 2.57352 212.278 2.57352C212.416 2.57352 212.528 2.65916 212.528 2.76469V7.35293C212.528 7.45846 212.416 7.54411 212.278 7.54411Z" fill="#282A36"/>
<path d="M214.178 7.54411C214.04 7.54411 213.928 7.45846 213.928 7.35293V2.76469C213.928 2.65916 214.04 2.57352 214.178 2.57352C214.316 2.57352 214.428 2.65916 214.428 2.76469V7.35293C214.428 7.45846 214.316 7.54411 214.178 7.54411Z" fill="#282A36"/>
<path d="M216.08 7.54411C215.942 7.54411 215.83 7.45846 215.83 7.35293V2.76469C215.83 2.65916 215.942 2.57352 216.08 2.57352C216.218 2.57352 216.33 2.65916 216.33 2.76469V7.35293C216.33 7.45846 216.217 7.54411 216.08 7.54411Z" fill="#282A36"/>
<path d="M219.879 7.54411C219.741 7.54411 219.629 7.45846 219.629 7.35293V2.76469C219.629 2.65916 219.741 2.57352 219.879 2.57352C220.017 2.57352 220.129 2.65916 220.129 2.76469V7.35293C220.129 7.45846 220.017 7.54411 219.879 7.54411Z" fill="#282A36"/>
<path d="M221.779 7.54411C221.641 7.54411 221.529 7.45846 221.529 7.35293V2.76469C221.529 2.65916 221.641 2.57352 221.779 2.57352C221.917 2.57352 222.029 2.65916 222.029 2.76469V7.35293C222.029 7.45846 221.917 7.54411 221.779 7.54411Z" fill="#282A36"/>
<path d="M223.68 7.54411C223.542 7.54411 223.43 7.45846 223.43 7.35293V2.76469C223.43 2.65916 223.542 2.57352 223.68 2.57352C223.818 2.57352 223.93 2.65916 223.93 2.76469V7.35293C223.93 7.45846 223.818 7.54411 223.68 7.54411Z" fill="#282A36"/>
<path d="M225.581 7.54411C225.443 7.54411 225.331 7.45846 225.331 7.35293V2.76469C225.331 2.65916 225.443 2.57352 225.581 2.57352C225.719 2.57352 225.831 2.65916 225.831 2.76469V7.35293C225.831 7.45846 225.718 7.54411 225.581 7.54411Z" fill="#282A36"/>
<path d="M227.48 12.1323C227.342 12.1323 227.23 12.0467 227.23 11.9412V2.76469C227.23 2.65916 227.342 2.57352 227.48 2.57352C227.618 2.57352 227.73 2.65916 227.73 2.76469V11.9412C227.73 12.0467 227.618 12.1323 227.48 12.1323Z" fill="#282A36"/>
<path d="M229.38 7.54411C229.242 7.54411 229.13 7.45846 229.13 7.35293V2.76469C229.13 2.65916 229.242 2.57352 229.38 2.57352C229.518 2.57352 229.63 2.65916 229.63 2.76469V7.35293C229.63 7.45846 229.518 7.54411 229.38 7.54411Z" fill="#282A36"/>
<path d="M231.281 7.54411C231.143 7.54411 231.031 7.45846 231.031 7.35293V2.76469C231.031 2.65916 231.143 2.57352 231.281 2.57352C231.419 2.57352 231.531 2.65916 231.531 2.76469V7.35293C231.531 7.45846 231.419 7.54411 231.281 7.54411Z" fill="#282A36"/>
<path d="M233.181 7.54411C233.043 7.54411 232.931 7.45846 232.931 7.35293V2.76469C232.931 2.65916 233.043 2.57352 233.181 2.57352C233.319 2.57352 233.431 2.65916 233.431 2.76469V7.35293C233.431 7.45846 233.319 7.54411 233.181 7.54411Z" fill="#282A36"/>
<path d="M235.082 7.54411C234.944 7.54411 234.832 7.45846 234.832 7.35293V2.76469C234.832 2.65916 234.944 2.57352 235.082 2.57352C235.22 2.57352 235.332 2.65916 235.332 2.76469V7.35293C235.332 7.45846 235.219 7.54411 235.082 7.54411Z" fill="#282A36"/>
<path d="M238.883 7.54411C238.745 7.54411 238.633 7.45846 238.633 7.35293V2.76469C238.633 2.65916 238.745 2.57352 238.883 2.57352C239.021 2.57352 239.133 2.65916 239.133 2.76469V7.35293C239.133 7.45846 239.02 7.54411 238.883 7.54411Z" fill="#282A36"/>
<path d="M240.782 7.54411C240.644 7.54411 240.532 7.45846 240.532 7.35293V2.76469C240.532 2.65916 240.644 2.57352 240.782 2.57352C240.92 2.57352 241.032 2.65916 241.032 2.76469V7.35293C241.032 7.45846 240.92 7.54411 240.782 7.54411Z" fill="#282A36"/>
<path d="M242.682 7.54411C242.544 7.54411 242.432 7.45846 242.432 7.35293V2.76469C242.432 2.65916 242.544 2.57352 242.682 2.57352C242.82 2.57352 242.932 2.65916 242.932 2.76469V7.35293C242.932 7.45846 242.82 7.54411 242.682 7.54411Z" fill="#282A36"/>
<path d="M244.583 7.54411C244.445 7.54411 244.333 7.45846 244.333 7.35293V2.76469C244.333 2.65916 244.445 2.57352 244.583 2.57352C244.721 2.57352 244.833 2.65916 244.833 2.76469V7.35293C244.833 7.45846 244.72 7.54411 244.583 7.54411Z" fill="#282A36"/>
<path d="M246.482 12.1323C246.344 12.1323 246.232 12.0467 246.232 11.9412V2.76469C246.232 2.65916 246.344 2.57352 246.482 2.57352C246.62 2.57352 246.732 2.65916 246.732 2.76469V11.9412C246.732 12.0467 246.62 12.1323 246.482 12.1323Z" fill="#282A36"/>
<path d="M248.383 7.54411C248.245 7.54411 248.133 7.45846 248.133 7.35293V2.76469C248.133 2.65916 248.245 2.57352 248.383 2.57352C248.521 2.57352 248.633 2.65916 248.633 2.76469V7.35293C248.633 7.45846 248.521 7.54411 248.383 7.54411Z" fill="#282A36"/>
<path d="M250.283 7.54411C250.145 7.54411 250.033 7.45846 250.033 7.35293V2.76469C250.033 2.65916 250.145 2.57352 250.283 2.57352C250.421 2.57352 250.533 2.65916 250.533 2.76469V7.35293C250.533 7.45846 250.421 7.54411 250.283 7.54411Z" fill="#282A36"/>
<path d="M252.183 7.54411C252.045 7.54411 251.933 7.45846 251.933 7.35293V2.76469C251.933 2.65916 252.045 2.57352 252.183 2.57352C252.321 2.57352 252.433 2.65916 252.433 2.76469V7.35293C252.433 7.45846 252.321 7.54411 252.183 7.54411Z" fill="#282A36"/>
<path d="M254.084 7.54411C253.946 7.54411 253.834 7.45846 253.834 7.35293V2.76469C253.834 2.65916 253.946 2.57352 254.084 2.57352C254.222 2.57352 254.334 2.65916 254.334 2.76469V7.35293C254.334 7.45846 254.221 7.54411 254.084 7.54411Z" fill="#282A36"/>
<path d="M257.884 7.54411C257.746 7.54411 257.634 7.45846 257.634 7.35293V2.76469C257.634 2.65916 257.746 2.57352 257.884 2.57352C258.022 2.57352 258.134 2.65916 258.134 2.76469V7.35293C258.134 7.45846 258.022 7.54411 257.884 7.54411Z" fill="#282A36"/>
<path d="M259.784 7.54411C259.646 7.54411 259.534 7.45846 259.534 7.35293V2.76469C259.534 2.65916 259.646 2.57352 259.784 2.57352C259.922 2.57352 260.034 2.65916 260.034 2.76469V7.35293C260.034 7.45846 259.922 7.54411 259.784 7.54411Z" fill="#282A36"/>
<path d="M261.684 7.54411C261.546 7.54411 261.434 7.45846 261.434 7.35293V2.76469C261.434 2.65916 261.546 2.57352 261.684 2.57352C261.822 2.57352 261.934 2.65916 261.934 2.76469V7.35293C261.934 7.45846 261.822 7.54411 261.684 7.54411Z" fill="#282A36"/>
<path d="M263.586 7.54411C263.448 7.54411 263.336 7.45846 263.336 7.35293V2.76469C263.336 2.65916 263.448 2.57352 263.586 2.57352C263.724 2.57352 263.836 2.65916 263.836 2.76469V7.35293C263.836 7.45846 263.723 7.54411 263.586 7.54411Z" fill="#282A36"/>
<path d="M265.485 12.1323C265.347 12.1323 265.235 12.0467 265.235 11.9412V2.76469C265.235 2.65916 265.347 2.57352 265.485 2.57352C265.623 2.57352 265.735 2.65916 265.735 2.76469V11.9412C265.735 12.0467 265.623 12.1323 265.485 12.1323Z" fill="#282A36"/>
<path d="M267.385 7.54411C267.247 7.54411 267.135 7.45846 267.135 7.35293V2.76469C267.135 2.65916 267.247 2.57352 267.385 2.57352C267.523 2.57352 267.635 2.65916 267.635 2.76469V7.35293C267.635 7.45846 267.523 7.54411 267.385 7.54411Z" fill="#282A36"/>
<path d="M269.285 7.54411C269.147 7.54411 269.035 7.45846 269.035 7.35293V2.76469C269.035 2.65916 269.147 2.57352 269.285 2.57352C269.423 2.57352 269.535 2.65916 269.535 2.76469V7.35293C269.535 7.45846 269.423 7.54411 269.285 7.54411Z" fill="#282A36"/>
<path d="M271.186 7.54411C271.048 7.54411 270.936 7.45846 270.936 7.35293V2.76469C270.936 2.65916 271.048 2.57352 271.186 2.57352C271.324 2.57352 271.436 2.65916 271.436 2.76469V7.35293C271.436 7.45846 271.324 7.54411 271.186 7.54411Z" fill="#282A36"/>
<path d="M273.087 7.54411C272.949 7.54411 272.837 7.45846 272.837 7.35293V2.76469C272.837 2.65916 272.949 2.57352 273.087 2.57352C273.225 2.57352 273.337 2.65916 273.337 2.76469V7.35293C273.337 7.45846 273.224 7.54411 273.087 7.54411Z" fill="#282A36"/>
<path d="M276.886 7.54411C276.748 7.54411 276.636 7.45846 276.636 7.35293V2.76469C276.636 2.65916 276.748 2.57352 276.886 2.57352C277.024 2.57352 277.136 2.65916 277.136 2.76469V7.35293C277.136 7.45846 277.024 7.54411 276.886 7.54411Z" fill="#282A36"/>
<path d="M278.786 7.54411C278.648 7.54411 278.536 7.45846 278.536 7.35293V2.76469C278.536 2.65916 278.648 2.57352 278.786 2.57352C278.924 2.57352 279.036 2.65916 279.036 2.76469V7.35293C279.036 7.45846 278.924 7.54411 278.786 7.54411Z" fill="#282A36"/>
<path d="M280.687 7.54411C280.549 7.54411 280.437 7.45846 280.437 7.35293V2.76469C280.437 2.65916 280.549 2.57352 280.687 2.57352C280.825 2.57352 280.937 2.65916 280.937 2.76469V7.35293C280.937 7.45846 280.825 7.54411 280.687 7.54411Z" fill="#282A36"/>
<path d="M282.588 7.54411C282.45 7.54411 282.338 7.45846 282.338 7.35293V2.76469C282.338 2.65916 282.45 2.57352 282.588 2.57352C282.726 2.57352 282.838 2.65916 282.838 2.76469V7.35293C282.838 7.45846 282.725 7.54411 282.588 7.54411Z" fill="#282A36"/>
<path d="M284.487 12.1323C284.349 12.1323 284.237 12.0467 284.237 11.9412V2.76469C284.237 2.65916 284.349 2.57352 284.487 2.57352C284.625 2.57352 284.737 2.65916 284.737 2.76469V11.9412C284.737 12.0467 284.625 12.1323 284.487 12.1323Z" fill="#282A36"/>
<path d="M286.387 7.54411C286.249 7.54411 286.137 7.45846 286.137 7.35293V2.76469C286.137 2.65916 286.249 2.57352 286.387 2.57352C286.525 2.57352 286.637 2.65916 286.637 2.76469V7.35293C286.637 7.45846 286.525 7.54411 286.387 7.54411Z" fill="#282A36"/>
<path d="M288.288 7.54411C288.15 7.54411 288.038 7.45846 288.038 7.35293V2.76469C288.038 2.65916 288.15 2.57352 288.288 2.57352C288.426 2.57352 288.538 2.65916 288.538 2.76469V7.35293C288.538 7.45846 288.426 7.54411 288.288 7.54411Z" fill="#282A36"/>
<path d="M290.188 7.54411C290.05 7.54411 289.938 7.45846 289.938 7.35293V2.76469C289.938 2.65916 290.05 2.57352 290.188 2.57352C290.326 2.57352 290.438 2.65916 290.438 2.76469V7.35293C290.438 7.45846 290.326 7.54411 290.188 7.54411Z" fill="#282A36"/>
<path d="M292.089 7.54411C291.951 7.54411 291.839 7.45846 291.839 7.35293V2.76469C291.839 2.65916 291.951 2.57352 292.089 2.57352C292.227 2.57352 292.339 2.65916 292.339 2.76469V7.35293C292.339 7.45846 292.226 7.54411 292.089 7.54411Z" fill="#282A36"/>
<path d="M7.3499 15.53C7.3499 14.7117 7.8799 14.1841 8.9489 14.1841C10.0289 14.1841 10.5579 14.711 10.5579 15.53V18.2883C10.5579 19.1057 10.0289 19.6418 8.9489 19.6418C7.8799 19.6418 7.3499 19.1065 7.3499 18.2883V15.53ZM8.1189 18.3273C8.1189 18.8091 8.3889 19.0996 8.9489 19.0996C9.5189 19.0996 9.7789 18.8091 9.7789 18.3273V15.5002C9.7789 15.0107 9.5189 14.7202 8.9489 14.7202C8.3889 14.7202 8.1189 15.0107 8.1189 15.5002V18.3273Z" fill="#282A36"/>
<path d="M28.0943 15.2089C27.8343 15.3305 27.4943 15.4222 27.1243 15.4383V14.9489C27.8843 14.9259 28.1443 14.6124 28.3243 14.2377H28.8643V19.5883H28.0943V15.2089Z" fill="#282A36"/>
<path d="M48.5696 15.5376C48.5696 17.1496 46.2006 17.7308 46.1906 18.962V19.0453H48.4896V19.5883H45.4216V19.1295C45.4216 17.402 47.7906 17.0663 47.7906 15.5598C47.7906 15.01 47.5506 14.7194 46.9706 14.7194C46.4016 14.7194 46.1516 15.0322 46.1516 15.5063V15.9796H45.4216V15.5445C45.4216 14.727 45.9116 14.1841 46.9906 14.1841C48.0806 14.1849 48.5696 14.7202 48.5696 15.5376Z" fill="#282A36"/>
<path d="M67.531 15.5302V15.6679C67.531 16.2184 67.241 16.6084 66.681 16.769C67.271 16.9373 67.531 17.3418 67.531 17.8771V18.2893C67.531 19.1067 67.031 19.6428 65.952 19.6428C64.883 19.6428 64.383 19.1075 64.383 18.2893V17.9222H65.112V18.3267C65.112 18.8085 65.372 19.0991 65.932 19.0991C66.501 19.0991 66.751 18.8162 66.751 18.274V17.861C66.751 17.3342 66.461 17.081 65.871 17.0665H65.451V16.5312H65.911C66.431 16.5159 66.751 16.2636 66.751 15.7979V15.5531C66.751 15.0026 66.501 14.7204 65.932 14.7204C65.372 14.7204 65.112 15.0186 65.112 15.5004V15.7749H64.383V15.531C64.383 14.7127 64.883 14.1851 65.952 14.1851C67.031 14.1851 67.531 14.712 67.531 15.5302Z" fill="#282A36"/>
<path d="M86.1983 18.5108V19.5883H85.4383V18.5108H83.1793V17.9679L85.3483 14.2384H86.1983V17.9679H86.7583V18.5108H86.1983ZM83.8993 17.9679H85.4383V15.3542L83.8993 17.9679Z" fill="#282A36"/>
<path d="M103.206 16.4171C103.426 16.1265 103.776 15.9736 104.246 15.9736C105.145 15.9736 105.545 16.4783 105.545 17.2422V18.2891C105.545 19.1065 105.035 19.6426 103.966 19.6426C102.897 19.6426 102.397 19.1073 102.397 18.2891V17.9297H103.127V18.3273C103.127 18.8091 103.387 19.0997 103.946 19.0997C104.506 19.0997 104.765 18.8091 104.765 18.3273V17.2881C104.765 16.8071 104.505 16.5165 103.946 16.5165C103.516 16.5165 103.226 16.6993 103.157 17.0893V17.2116H102.428L102.618 14.2384H105.376V14.773H103.317L103.206 16.4171Z" fill="#282A36"/>
<path d="M124.556 15.5226V15.622H123.826V15.4843C123.826 15.0026 123.566 14.7204 122.996 14.7204C122.406 14.7204 122.146 15.011 122.146 15.5837V16.7836C122.337 16.4173 122.716 16.21 123.276 16.21C124.175 16.21 124.575 16.7071 124.575 17.4787V18.2893C124.575 19.1067 124.046 19.6428 122.976 19.6428C121.896 19.6428 121.367 19.1075 121.367 18.2893V15.5608C121.367 14.7127 121.867 14.1851 122.976 14.1851C124.056 14.1851 124.556 14.7043 124.556 15.5226ZM122.147 17.5253V18.3275C122.147 18.8093 122.407 19.0999 122.977 19.0999C123.537 19.0999 123.806 18.8093 123.806 18.3275V17.5253C123.806 17.0436 123.536 16.753 122.977 16.753C122.407 16.753 122.147 17.0436 122.147 17.5253Z" fill="#282A36"/>
<path d="M142.757 14.773H140.378V14.2384H143.546V14.7584L141.747 19.5883H140.968L142.757 14.773Z" fill="#282A36"/>
<path d="M162.614 15.5073V15.6755C162.614 16.2184 162.364 16.6153 161.814 16.7759C162.394 16.951 162.614 17.3716 162.614 17.9069V18.3046C162.614 19.1297 162.054 19.642 160.964 19.642C159.875 19.642 159.316 19.1297 159.316 18.3046V17.9069C159.316 17.3647 159.536 16.9594 160.126 16.7759C159.556 16.6077 159.316 16.2184 159.316 15.6755V15.5073C159.316 14.6822 159.885 14.1851 160.964 14.1851C162.044 14.1851 162.614 14.6822 162.614 15.5073ZM160.085 15.5226V15.7826C160.085 16.3026 160.414 16.532 160.964 16.532C161.514 16.532 161.844 16.3026 161.844 15.7826V15.5226C161.844 14.972 161.514 14.7204 160.964 14.7204C160.415 14.7204 160.085 14.972 160.085 15.5226ZM160.085 17.8381V18.2893C160.085 18.8399 160.404 19.0999 160.964 19.0999C161.524 19.0999 161.834 18.8399 161.844 18.2893V17.8381C161.844 17.3181 161.544 17.0665 160.964 17.0665C160.385 17.0665 160.085 17.3181 160.085 17.8381Z" fill="#282A36"/>
<path d="M181.56 15.5302V18.2579C181.56 19.106 181.06 19.642 179.941 19.642C178.872 19.642 178.362 19.1144 178.362 18.2962V18.1967H179.091V18.3351C179.091 18.8161 179.361 19.0991 179.92 19.0991C180.52 19.0991 180.779 18.8085 180.779 18.2434V17.0436C180.59 17.4099 180.21 17.6087 179.65 17.6087C178.751 17.6087 178.35 17.1193 178.35 16.3484V15.531C178.35 14.7127 178.87 14.1851 179.95 14.1851C181.03 14.1851 181.56 14.712 181.56 15.5302ZM179.122 15.4996V16.3018C179.122 16.7836 179.392 17.0742 179.951 17.0742C180.52 17.0742 180.78 16.7836 180.78 16.3018V15.4996C180.78 15.0102 180.52 14.7273 179.951 14.7273C179.391 14.728 179.122 15.011 179.122 15.4996Z" fill="#282A36"/>
<path d="M197.162 15.2089C196.902 15.3305 196.562 15.4222 196.192 15.4383V14.9489C196.952 14.9259 197.212 14.6124 197.392 14.2377H197.931V19.5883H197.161V15.2089H197.162Z" fill="#282A36"/>
<path d="M199.053 15.53C199.053 14.7117 199.583 14.1841 200.653 14.1841C201.732 14.1841 202.261 14.711 202.261 15.53V18.2883C202.261 19.1057 201.732 19.6418 200.653 19.6418C199.584 19.6418 199.053 19.1065 199.053 18.2883V15.53ZM199.823 18.3273C199.823 18.8091 200.093 19.0996 200.653 19.0996C201.222 19.0996 201.482 18.8091 201.482 18.3273V15.5002C201.482 15.0107 201.222 14.7202 200.653 14.7202C200.093 14.7202 199.823 15.0107 199.823 15.5002V18.3273Z" fill="#282A36"/>
<path d="M216.419 15.2089C216.159 15.3305 215.819 15.4222 215.449 15.4383V14.9489C216.209 14.9259 216.469 14.6124 216.649 14.2377H217.188V19.5883H216.419V15.2089Z" fill="#282A36"/>
<path d="M219.798 15.2089C219.538 15.3305 219.198 15.4222 218.828 15.4383V14.9489C219.588 14.9259 219.848 14.6124 220.028 14.2377H220.567V19.5883H219.797L219.798 15.2089Z" fill="#282A36"/>
<path d="M235.175 15.2089C234.915 15.3305 234.575 15.4222 234.205 15.4383V14.9489C234.965 14.9259 235.225 14.6124 235.405 14.2377H235.944V19.5883H235.174V15.2089H235.175Z" fill="#282A36"/>
<path d="M240.273 15.5376C240.273 17.1496 237.905 17.7308 237.895 18.962V19.0453H240.194V19.5883H237.126V19.1295C237.126 17.402 239.494 17.0663 239.494 15.5598C239.494 15.01 239.255 14.7194 238.675 14.7194C238.106 14.7194 237.856 15.0322 237.856 15.5063V15.9796H237.126V15.5445C237.126 14.727 237.615 14.1841 238.694 14.1841C239.784 14.1849 240.273 14.7202 240.273 15.5376Z" fill="#282A36"/>
<path d="M254.176 15.2089C253.916 15.3305 253.576 15.4222 253.206 15.4383V14.9489C253.966 14.9259 254.226 14.6124 254.406 14.2377H254.945V19.5883H254.175L254.176 15.2089Z" fill="#282A36"/>
<path d="M259.236 15.5302V15.6679C259.236 16.2184 258.946 16.6084 258.386 16.769C258.975 16.9373 259.236 17.3418 259.236 17.8771V18.2893C259.236 19.1067 258.736 19.6428 257.656 19.6428C256.587 19.6428 256.088 19.1075 256.088 18.2893V17.9222H256.817V18.3267C256.817 18.8085 257.077 19.0991 257.636 19.0991C258.205 19.0991 258.455 18.8162 258.455 18.274V17.861C258.455 17.3342 258.165 17.081 257.576 17.0665H257.156V16.5312H257.616C258.136 16.5159 258.455 16.2636 258.455 15.7979V15.5531C258.455 15.0026 258.205 14.7204 257.636 14.7204C257.076 14.7204 256.817 15.0186 256.817 15.5004V15.7749H256.088V15.531C256.088 14.7127 256.587 14.1851 257.656 14.1851C258.736 14.1851 259.236 14.712 259.236 15.5302Z" fill="#282A36"/>
<path d="M273.113 15.2089C272.853 15.3305 272.513 15.4222 272.143 15.4383V14.9489C272.903 14.9259 273.163 14.6124 273.342 14.2377H273.882V19.5883H273.112V15.2089H273.113Z" fill="#282A36"/>
<path d="M277.902 18.5111V19.5886H277.142V18.5111H274.883V17.9682L277.052 14.2387H277.902V17.9682H278.462V18.5111H277.902ZM275.603 17.9682H277.142V15.3544L275.603 17.9682Z" fill="#282A36"/>
<path d="M292.179 15.2089C291.919 15.3305 291.579 15.4222 291.209 15.4383V14.9489C291.969 14.9259 292.229 14.6124 292.409 14.2377H292.948V19.5883H292.178L292.179 15.2089Z" fill="#282A36"/>
<path d="M294.909 16.4173C295.129 16.1267 295.478 15.9738 295.948 15.9738C296.847 15.9738 297.248 16.4785 297.248 17.2424V18.2893C297.248 19.1068 296.738 19.6429 295.669 19.6429C294.6 19.6429 294.1 19.1076 294.1 18.2893V17.9299H294.829V18.3276C294.829 18.8093 295.089 19.0999 295.648 19.0999C296.207 19.0999 296.467 18.8093 296.467 18.3276V17.2883C296.467 16.8073 296.207 16.5167 295.648 16.5167C295.218 16.5167 294.928 16.6995 294.859 17.0895V17.2119H294.13L294.319 14.2387H297.078V14.7732H295.018L294.909 16.4173Z" fill="#282A36"/>
<path d="M298.55 53.4265C298.412 53.4265 298.3 53.3409 298.3 53.2353V44.0589C298.3 43.9533 298.412 43.8677 298.55 43.8677C298.688 43.8677 298.8 43.9533 298.8 44.0589V53.2353C298.8 53.3409 298.687 53.4265 298.55 53.4265Z" fill="#282A36"/>
<path d="M250.283 53.4265C250.145 53.4265 250.033 53.3409 250.033 53.2353V44.0589C250.033 43.9533 250.145 43.8677 250.283 43.8677C250.421 43.8677 250.533 43.9533 250.533 44.0589V53.2353C250.533 53.3409 250.421 53.4265 250.283 53.4265Z" fill="#282A36"/>
<path d="M202.017 53.4265C201.879 53.4265 201.767 53.3409 201.767 53.2353V44.0589C201.767 43.9533 201.879 43.8677 202.017 43.8677C202.155 43.8677 202.267 43.9533 202.267 44.0589V53.2353C202.267 53.3409 202.155 53.4265 202.017 53.4265Z" fill="#282A36"/>
<path d="M153.751 53.4265C153.613 53.4265 153.501 53.3409 153.501 53.2353V44.0589C153.501 43.9533 153.613 43.8677 153.751 43.8677C153.889 43.8677 154.001 43.9533 154.001 44.0589V53.2353C154.001 53.3409 153.89 53.4265 153.751 53.4265Z" fill="#282A36"/>
<path d="M105.485 53.4265C105.347 53.4265 105.235 53.3409 105.235 53.2353V44.0589C105.235 43.9533 105.347 43.8677 105.485 43.8677C105.623 43.8677 105.735 43.9533 105.735 44.0589V53.2353C105.735 53.3409 105.623 53.4265 105.485 53.4265Z" fill="#282A36"/>
<path d="M57.2191 53.4265C57.0811 53.4265 56.9691 53.3409 56.9691 53.2353V44.0589C56.9691 43.9533 57.0811 43.8677 57.2191 43.8677C57.3571 43.8677 57.4691 43.9533 57.4691 44.0589V53.2353C57.4691 53.3409 57.3581 53.4265 57.2191 53.4265Z" fill="#282A36"/>
<path d="M8.95291 53.4265C8.81491 53.4265 8.70291 53.3409 8.70291 53.2353V44.0589C8.70291 43.9533 8.81491 43.8677 8.95291 43.8677C9.09091 43.8677 9.20291 43.9533 9.20291 44.0589V53.2353C9.20291 53.3409 9.09091 53.4265 8.95291 53.4265Z" fill="#282A36"/>
<path d="M54.8058 53.4266C54.6678 53.4266 54.5558 53.3409 54.5558 53.2354V51.706C54.5558 51.6004 54.6678 51.5148 54.8058 51.5148C54.9438 51.5148 55.0558 51.6004 55.0558 51.706V53.2354C55.0558 53.3409 54.9448 53.4266 54.8058 53.4266Z" fill="#282A36"/>
<path d="M52.3925 53.4266C52.2545 53.4266 52.1425 53.3409 52.1425 53.2354V48.6471C52.1425 48.5416 52.2545 48.456 52.3925 48.456C52.5305 48.456 52.6425 48.5416 52.6425 48.6471V53.2354C52.6425 53.3409 52.5305 53.4266 52.3925 53.4266Z" fill="#282A36"/>
<path d="M49.9802 53.4266C49.8422 53.4266 49.7302 53.3409 49.7302 53.2354V51.706C49.7302 51.6004 49.8422 51.5148 49.9802 51.5148C50.1182 51.5148 50.2302 51.6004 50.2302 51.706V53.2354C50.2302 53.3409 50.1182 53.4266 49.9802 53.4266Z" fill="#282A36"/>
<path d="M47.5669 53.4266C47.4289 53.4266 47.3169 53.3409 47.3169 53.2354V48.6471C47.3169 48.5416 47.4289 48.456 47.5669 48.456C47.7049 48.456 47.8169 48.5416 47.8169 48.6471V53.2354C47.8169 53.3409 47.7049 53.4266 47.5669 53.4266Z" fill="#282A36"/>
<path d="M45.1526 53.4266C45.0146 53.4266 44.9026 53.3409 44.9026 53.2354V51.706C44.9026 51.6004 45.0146 51.5148 45.1526 51.5148C45.2906 51.5148 45.4026 51.6004 45.4026 51.706V53.2354C45.4026 53.3409 45.2916 53.4266 45.1526 53.4266Z" fill="#282A36"/>
<path d="M42.7393 53.4266C42.6013 53.4266 42.4893 53.3409 42.4893 53.2354V48.6471C42.4893 48.5416 42.6013 48.456 42.7393 48.456C42.8773 48.456 42.9893 48.5416 42.9893 48.6471V53.2354C42.9893 53.3409 42.8783 53.4266 42.7393 53.4266Z" fill="#282A36"/>
<path d="M40.326 53.4266C40.188 53.4266 40.076 53.3409 40.076 53.2354V51.706C40.076 51.6004 40.188 51.5148 40.326 51.5148C40.464 51.5148 40.576 51.6004 40.576 51.706V53.2354C40.576 53.3409 40.464 53.4266 40.326 53.4266Z" fill="#282A36"/>
<path d="M37.9127 53.4266C37.7747 53.4266 37.6627 53.3409 37.6627 53.2354V48.6471C37.6627 48.5416 37.7747 48.456 37.9127 48.456C38.0507 48.456 38.1627 48.5416 38.1627 48.6471V53.2354C38.1627 53.3409 38.0507 53.4266 37.9127 53.4266Z" fill="#282A36"/>
<path d="M35.5004 53.4266C35.3624 53.4266 35.2504 53.3409 35.2504 53.2354V51.706C35.2504 51.6004 35.3624 51.5148 35.5004 51.5148C35.6384 51.5148 35.7504 51.6004 35.7504 51.706V53.2354C35.7504 53.3409 35.6384 53.4266 35.5004 53.4266Z" fill="#282A36"/>
<path d="M33.0871 53.4265C32.9491 53.4265 32.8371 53.3409 32.8371 53.2354V45.5883C32.8371 45.4828 32.9491 45.3971 33.0871 45.3971C33.2251 45.3971 33.3371 45.4828 33.3371 45.5883V53.2354C33.3371 53.3409 33.2251 53.4265 33.0871 53.4265Z" fill="#282A36"/>
<path d="M30.6728 53.4266C30.5348 53.4266 30.4228 53.3409 30.4228 53.2354V51.706C30.4228 51.6004 30.5348 51.5148 30.6728 51.5148C30.8108 51.5148 30.9228 51.6004 30.9228 51.706V53.2354C30.9228 53.3409 30.8118 53.4266 30.6728 53.4266Z" fill="#282A36"/>
<path d="M28.2595 53.4266C28.1215 53.4266 28.0095 53.3409 28.0095 53.2354V48.6471C28.0095 48.5416 28.1215 48.456 28.2595 48.456C28.3975 48.456 28.5095 48.5416 28.5095 48.6471V53.2354C28.5095 53.3409 28.3985 53.4266 28.2595 53.4266Z" fill="#282A36"/>
<path d="M25.8462 53.4266C25.7082 53.4266 25.5962 53.3409 25.5962 53.2354V51.706C25.5962 51.6004 25.7082 51.5148 25.8462 51.5148C25.9842 51.5148 26.0962 51.6004 26.0962 51.706V53.2354C26.0962 53.3409 25.9842 53.4266 25.8462 53.4266Z" fill="#282A36"/>
<path d="M23.4329 53.4266C23.2949 53.4266 23.1829 53.3409 23.1829 53.2354V48.6471C23.1829 48.5416 23.2949 48.456 23.4329 48.456C23.5709 48.456 23.6829 48.5416 23.6829 48.6471V53.2354C23.6829 53.3409 23.5709 53.4266 23.4329 53.4266Z" fill="#282A36"/>
<path d="M21.0206 53.4266C20.8826 53.4266 20.7706 53.3409 20.7706 53.2354V51.706C20.7706 51.6004 20.8826 51.5148 21.0206 51.5148C21.1586 51.5148 21.2706 51.6004 21.2706 51.706V53.2354C21.2706 53.3409 21.1586 53.4266 21.0206 53.4266Z" fill="#282A36"/>
<path d="M18.6063 53.4266C18.4683 53.4266 18.3563 53.3409 18.3563 53.2354V48.6471C18.3563 48.5416 18.4683 48.456 18.6063 48.456C18.7443 48.456 18.8563 48.5416 18.8563 48.6471V53.2354C18.8563 53.3409 18.7453 53.4266 18.6063 53.4266Z" fill="#282A36"/>
<path d="M16.193 53.4266C16.055 53.4266 15.943 53.3409 15.943 53.2354V51.706C15.943 51.6004 16.055 51.5148 16.193 51.5148C16.331 51.5148 16.443 51.6004 16.443 51.706V53.2354C16.443 53.3409 16.332 53.4266 16.193 53.4266Z" fill="#282A36"/>
<path d="M13.7797 53.4266C13.6417 53.4266 13.5297 53.3409 13.5297 53.2354V48.6471C13.5297 48.5416 13.6417 48.456 13.7797 48.456C13.9177 48.456 14.0297 48.5416 14.0297 48.6471V53.2354C14.0297 53.3409 13.9187 53.4266 13.7797 53.4266Z" fill="#282A36"/>
<path d="M11.3664 53.4266C11.2284 53.4266 11.1164 53.3409 11.1164 53.2354V51.706C11.1164 51.6004 11.2284 51.5148 11.3664 51.5148C11.5044 51.5148 11.6164 51.6004 11.6164 51.706V53.2354C11.6164 53.3409 11.5044 53.4266 11.3664 53.4266Z" fill="#282A36"/>
<path d="M103.073 53.4266C102.935 53.4266 102.823 53.3409 102.823 53.2354V51.706C102.823 51.6004 102.935 51.5148 103.073 51.5148C103.211 51.5148 103.323 51.6004 103.323 51.706V53.2354C103.323 53.3409 103.211 53.4266 103.073 53.4266Z" fill="#282A36"/>
<path d="M100.658 53.4266C100.52 53.4266 100.408 53.3409 100.408 53.2354V48.6471C100.408 48.5416 100.52 48.456 100.658 48.456C100.796 48.456 100.908 48.5416 100.908 48.6471V53.2354C100.908 53.3409 100.797 53.4266 100.658 53.4266Z" fill="#282A36"/>
<path d="M98.2451 53.4266C98.1071 53.4266 97.9951 53.3409 97.9951 53.2354V51.706C97.9951 51.6004 98.1071 51.5148 98.2451 51.5148C98.3831 51.5148 98.4951 51.6004 98.4951 51.706V53.2354C98.4951 53.3409 98.3841 53.4266 98.2451 53.4266Z" fill="#282A36"/>
<path d="M95.8318 53.4266C95.6938 53.4266 95.5818 53.3409 95.5818 53.2354V48.6471C95.5818 48.5416 95.6938 48.456 95.8318 48.456C95.9698 48.456 96.0818 48.5416 96.0818 48.6471V53.2354C96.0818 53.3409 95.9698 53.4266 95.8318 53.4266Z" fill="#282A36"/>
<path d="M93.4185 53.4266C93.2805 53.4266 93.1685 53.3409 93.1685 53.2354V51.706C93.1685 51.6004 93.2805 51.5148 93.4185 51.5148C93.5565 51.5148 93.6685 51.6004 93.6685 51.706V53.2354C93.6685 53.3409 93.5565 53.4266 93.4185 53.4266Z" fill="#282A36"/>
<path d="M91.0063 53.4266C90.8683 53.4266 90.7563 53.3409 90.7563 53.2354V48.6471C90.7563 48.5416 90.8683 48.456 91.0063 48.456C91.1443 48.456 91.2563 48.5416 91.2563 48.6471V53.2354C91.2563 53.3409 91.1443 53.4266 91.0063 53.4266Z" fill="#282A36"/>
<path d="M88.5919 53.4266C88.4539 53.4266 88.3419 53.3409 88.3419 53.2354V51.706C88.3419 51.6004 88.4539 51.5148 88.5919 51.5148C88.7299 51.5148 88.8419 51.6004 88.8419 51.706V53.2354C88.8419 53.3409 88.7309 53.4266 88.5919 53.4266Z" fill="#282A36"/>
<path d="M86.1786 53.4266C86.0406 53.4266 85.9286 53.3409 85.9286 53.2354V48.6471C85.9286 48.5416 86.0406 48.456 86.1786 48.456C86.3166 48.456 86.4286 48.5416 86.4286 48.6471V53.2354C86.4286 53.3409 86.3176 53.4266 86.1786 53.4266Z" fill="#282A36"/>
<path d="M83.7654 53.4266C83.6274 53.4266 83.5154 53.3409 83.5154 53.2354V51.706C83.5154 51.6004 83.6274 51.5148 83.7654 51.5148C83.9034 51.5148 84.0154 51.6004 84.0154 51.706V53.2354C84.0154 53.3409 83.9044 53.4266 83.7654 53.4266Z" fill="#282A36"/>
<path d="M81.3521 53.4265C81.2141 53.4265 81.1021 53.3409 81.1021 53.2354V45.5883C81.1021 45.4828 81.2141 45.3971 81.3521 45.3971C81.4901 45.3971 81.6021 45.4828 81.6021 45.5883V53.2354C81.6021 53.3409 81.4901 53.4265 81.3521 53.4265Z" fill="#282A36"/>
<path d="M78.9388 53.4266C78.8008 53.4266 78.6888 53.3409 78.6888 53.2354V51.706C78.6888 51.6004 78.8008 51.5148 78.9388 51.5148C79.0768 51.5148 79.1888 51.6004 79.1888 51.706V53.2354C79.1888 53.3409 79.0768 53.4266 78.9388 53.4266Z" fill="#282A36"/>
<path d="M76.5265 53.4266C76.3885 53.4266 76.2765 53.3409 76.2765 53.2354V48.6471C76.2765 48.5416 76.3885 48.456 76.5265 48.456C76.6645 48.456 76.7765 48.5416 76.7765 48.6471V53.2354C76.7765 53.3409 76.6645 53.4266 76.5265 53.4266Z" fill="#282A36"/>
<path d="M74.1132 53.4266C73.9752 53.4266 73.8632 53.3409 73.8632 53.2354V51.706C73.8632 51.6004 73.9752 51.5148 74.1132 51.5148C74.2512 51.5148 74.3632 51.6004 74.3632 51.706V53.2354C74.3632 53.3409 74.2512 53.4266 74.1132 53.4266Z" fill="#282A36"/>
<path d="M71.6989 53.4266C71.5609 53.4266 71.4489 53.3409 71.4489 53.2354V48.6471C71.4489 48.5416 71.5609 48.456 71.6989 48.456C71.8369 48.456 71.9489 48.5416 71.9489 48.6471V53.2354C71.9489 53.3409 71.8379 53.4266 71.6989 53.4266Z" fill="#282A36"/>
<path d="M69.2856 53.4266C69.1476 53.4266 69.0356 53.3409 69.0356 53.2354V51.706C69.0356 51.6004 69.1476 51.5148 69.2856 51.5148C69.4236 51.5148 69.5356 51.6004 69.5356 51.706V53.2354C69.5356 53.3409 69.4236 53.4266 69.2856 53.4266Z" fill="#282A36"/>
<path d="M66.8723 53.4266C66.7343 53.4266 66.6223 53.3409 66.6223 53.2354V48.6471C66.6223 48.5416 66.7343 48.456 66.8723 48.456C67.0103 48.456 67.1223 48.5416 67.1223 48.6471V53.2354C67.1223 53.3409 67.0103 53.4266 66.8723 53.4266Z" fill="#282A36"/>
<path d="M64.459 53.4266C64.321 53.4266 64.209 53.3409 64.209 53.2354V51.706C64.209 51.6004 64.321 51.5148 64.459 51.5148C64.597 51.5148 64.709 51.6004 64.709 51.706V53.2354C64.709 53.3409 64.597 53.4266 64.459 53.4266Z" fill="#282A36"/>
<path d="M62.0467 53.4266C61.9087 53.4266 61.7967 53.3409 61.7967 53.2354V48.6471C61.7967 48.5416 61.9087 48.456 62.0467 48.456C62.1847 48.456 62.2967 48.5416 62.2967 48.6471V53.2354C62.2967 53.3409 62.1847 53.4266 62.0467 53.4266Z" fill="#282A36"/>
<path d="M59.6334 53.4266C59.4954 53.4266 59.3834 53.3409 59.3834 53.2354V51.706C59.3834 51.6004 59.4954 51.5148 59.6334 51.5148C59.7714 51.5148 59.8834 51.6004 59.8834 51.706V53.2354C59.8834 53.3409 59.7714 53.4266 59.6334 53.4266Z" fill="#282A36"/>
<path d="M151.338 53.4266C151.2 53.4266 151.088 53.3409 151.088 53.2354V51.706C151.088 51.6004 151.2 51.5148 151.338 51.5148C151.476 51.5148 151.588 51.6004 151.588 51.706V53.2354C151.588 53.3409 151.476 53.4266 151.338 53.4266Z" fill="#282A36"/>
<path d="M148.924 53.4266C148.786 53.4266 148.674 53.3409 148.674 53.2354V48.6471C148.674 48.5416 148.786 48.456 148.924 48.456C149.062 48.456 149.174 48.5416 149.174 48.6471V53.2354C149.174 53.3409 149.062 53.4266 148.924 53.4266Z" fill="#282A36"/>
<path d="M146.511 53.4266C146.373 53.4266 146.261 53.3409 146.261 53.2354V51.706C146.261 51.6004 146.373 51.5148 146.511 51.5148C146.649 51.5148 146.761 51.6004 146.761 51.706V53.2354C146.761 53.3409 146.649 53.4266 146.511 53.4266Z" fill="#282A36"/>
<path d="M144.099 53.4266C143.961 53.4266 143.849 53.3409 143.849 53.2354V48.6471C143.849 48.5416 143.961 48.456 144.099 48.456C144.237 48.456 144.349 48.5416 144.349 48.6471V53.2354C144.349 53.3409 144.237 53.4266 144.099 53.4266Z" fill="#282A36"/>
<path d="M141.685 53.4266C141.547 53.4266 141.435 53.3409 141.435 53.2354V51.706C141.435 51.6004 141.547 51.5148 141.685 51.5148C141.823 51.5148 141.935 51.6004 141.935 51.706V53.2354C141.935 53.3409 141.824 53.4266 141.685 53.4266Z" fill="#282A36"/>
<path d="M139.271 53.4266C139.133 53.4266 139.021 53.3409 139.021 53.2354V48.6471C139.021 48.5416 139.133 48.456 139.271 48.456C139.409 48.456 139.521 48.5416 139.521 48.6471V53.2354C139.521 53.3409 139.41 53.4266 139.271 53.4266Z" fill="#282A36"/>
<path d="M136.858 53.4266C136.72 53.4266 136.608 53.3409 136.608 53.2354V51.706C136.608 51.6004 136.72 51.5148 136.858 51.5148C136.996 51.5148 137.108 51.6004 137.108 51.706V53.2354C137.108 53.3409 136.996 53.4266 136.858 53.4266Z" fill="#282A36"/>
<path d="M134.445 53.4266C134.307 53.4266 134.195 53.3409 134.195 53.2354V48.6471C134.195 48.5416 134.307 48.456 134.445 48.456C134.583 48.456 134.695 48.5416 134.695 48.6471V53.2354C134.695 53.3409 134.583 53.4266 134.445 53.4266Z" fill="#282A36"/>
<path d="M132.032 53.4266C131.894 53.4266 131.782 53.3409 131.782 53.2354V51.706C131.782 51.6004 131.894 51.5148 132.032 51.5148C132.17 51.5148 132.282 51.6004 132.282 51.706V53.2354C132.282 53.3409 132.17 53.4266 132.032 53.4266Z" fill="#282A36"/>
<path d="M129.618 53.4265C129.48 53.4265 129.368 53.3409 129.368 53.2354V45.5883C129.368 45.4828 129.48 45.3971 129.618 45.3971C129.756 45.3971 129.868 45.4828 129.868 45.5883V53.2354C129.868 53.3409 129.757 53.4265 129.618 53.4265Z" fill="#282A36"/>
<path d="M127.205 53.4266C127.067 53.4266 126.955 53.3409 126.955 53.2354V51.706C126.955 51.6004 127.067 51.5148 127.205 51.5148C127.343 51.5148 127.455 51.6004 127.455 51.706V53.2354C127.455 53.3409 127.344 53.4266 127.205 53.4266Z" fill="#282A36"/>
<path d="M124.791 53.4266C124.653 53.4266 124.541 53.3409 124.541 53.2354V48.6471C124.541 48.5416 124.653 48.456 124.791 48.456C124.929 48.456 125.041 48.5416 125.041 48.6471V53.2354C125.041 53.3409 124.93 53.4266 124.791 53.4266Z" fill="#282A36"/>
<path d="M122.378 53.4266C122.24 53.4266 122.128 53.3409 122.128 53.2354V51.706C122.128 51.6004 122.24 51.5148 122.378 51.5148C122.516 51.5148 122.628 51.6004 122.628 51.706V53.2354C122.628 53.3409 122.516 53.4266 122.378 53.4266Z" fill="#282A36"/>
<path d="M119.965 53.4266C119.827 53.4266 119.715 53.3409 119.715 53.2354V48.6471C119.715 48.5416 119.827 48.456 119.965 48.456C120.103 48.456 120.215 48.5416 120.215 48.6471V53.2354C120.215 53.3409 120.103 53.4266 119.965 53.4266Z" fill="#282A36"/>
<path d="M117.553 53.4266C117.415 53.4266 117.303 53.3409 117.303 53.2354V51.706C117.303 51.6004 117.415 51.5148 117.553 51.5148C117.691 51.5148 117.803 51.6004 117.803 51.706V53.2354C117.803 53.3409 117.691 53.4266 117.553 53.4266Z" fill="#282A36"/>
<path d="M115.138 53.4266C115 53.4266 114.888 53.3409 114.888 53.2354V48.6471C114.888 48.5416 115 48.456 115.138 48.456C115.276 48.456 115.388 48.5416 115.388 48.6471V53.2354C115.388 53.3409 115.277 53.4266 115.138 53.4266Z" fill="#282A36"/>
<path d="M112.725 53.4266C112.587 53.4266 112.475 53.3409 112.475 53.2354V51.706C112.475 51.6004 112.587 51.5148 112.725 51.5148C112.863 51.5148 112.975 51.6004 112.975 51.706V53.2354C112.975 53.3409 112.864 53.4266 112.725 53.4266Z" fill="#282A36"/>
<path d="M110.312 53.4266C110.174 53.4266 110.062 53.3409 110.062 53.2354V48.6471C110.062 48.5416 110.174 48.456 110.312 48.456C110.45 48.456 110.562 48.5416 110.562 48.6471V53.2354C110.562 53.3409 110.45 53.4266 110.312 53.4266Z" fill="#282A36"/>
<path d="M107.898 53.4266C107.76 53.4266 107.648 53.3409 107.648 53.2354V51.706C107.648 51.6004 107.76 51.5148 107.898 51.5148C108.036 51.5148 108.148 51.6004 108.148 51.706V53.2354C108.148 53.3409 108.036 53.4266 107.898 53.4266Z" fill="#282A36"/>
<path d="M199.605 53.4266C199.467 53.4266 199.355 53.3409 199.355 53.2354V51.706C199.355 51.6004 199.467 51.5148 199.605 51.5148C199.743 51.5148 199.855 51.6004 199.855 51.706V53.2354C199.855 53.3409 199.743 53.4266 199.605 53.4266Z" fill="#282A36"/>
<path d="M197.19 53.4266C197.052 53.4266 196.94 53.3409 196.94 53.2354V48.6471C196.94 48.5416 197.052 48.456 197.19 48.456C197.328 48.456 197.44 48.5416 197.44 48.6471V53.2354C197.44 53.3409 197.329 53.4266 197.19 53.4266Z" fill="#282A36"/>
<path d="M194.777 53.4266C194.639 53.4266 194.527 53.3409 194.527 53.2354V51.706C194.527 51.6004 194.639 51.5148 194.777 51.5148C194.915 51.5148 195.027 51.6004 195.027 51.706V53.2354C195.027 53.3409 194.916 53.4266 194.777 53.4266Z" fill="#282A36"/>
<path d="M192.364 53.4266C192.226 53.4266 192.114 53.3409 192.114 53.2354V48.6471C192.114 48.5416 192.226 48.456 192.364 48.456C192.502 48.456 192.614 48.5416 192.614 48.6471V53.2354C192.614 53.3409 192.503 53.4266 192.364 53.4266Z" fill="#282A36"/>
<path d="M189.95 53.4266C189.812 53.4266 189.7 53.3409 189.7 53.2354V51.706C189.7 51.6004 189.812 51.5148 189.95 51.5148C190.088 51.5148 190.2 51.6004 190.2 51.706V53.2354C190.2 53.3409 190.088 53.4266 189.95 53.4266Z" fill="#282A36"/>
<path d="M187.537 53.4266C187.399 53.4266 187.287 53.3409 187.287 53.2354V48.6471C187.287 48.5416 187.399 48.456 187.537 48.456C187.675 48.456 187.787 48.5416 187.787 48.6471V53.2354C187.787 53.3409 187.675 53.4266 187.537 53.4266Z" fill="#282A36"/>
<path d="M185.125 53.4266C184.987 53.4266 184.875 53.3409 184.875 53.2354V51.706C184.875 51.6004 184.987 51.5148 185.125 51.5148C185.263 51.5148 185.375 51.6004 185.375 51.706V53.2354C185.375 53.3409 185.263 53.4266 185.125 53.4266Z" fill="#282A36"/>
<path d="M182.711 53.4266C182.573 53.4266 182.461 53.3409 182.461 53.2354V48.6471C182.461 48.5416 182.573 48.456 182.711 48.456C182.849 48.456 182.961 48.5416 182.961 48.6471V53.2354C182.961 53.3409 182.85 53.4266 182.711 53.4266Z" fill="#282A36"/>
<path d="M180.297 53.4266C180.159 53.4266 180.047 53.3409 180.047 53.2354V51.706C180.047 51.6004 180.159 51.5148 180.297 51.5148C180.435 51.5148 180.547 51.6004 180.547 51.706V53.2354C180.547 53.3409 180.436 53.4266 180.297 53.4266Z" fill="#282A36"/>
<path d="M177.884 53.4265C177.746 53.4265 177.634 53.3409 177.634 53.2354V45.5883C177.634 45.4828 177.746 45.3971 177.884 45.3971C178.022 45.3971 178.134 45.4828 178.134 45.5883V53.2354C178.134 53.3409 178.022 53.4265 177.884 53.4265Z" fill="#282A36"/>
<path d="M175.471 53.4266C175.333 53.4266 175.221 53.3409 175.221 53.2354V51.706C175.221 51.6004 175.333 51.5148 175.471 51.5148C175.609 51.5148 175.721 51.6004 175.721 51.706V53.2354C175.721 53.3409 175.609 53.4266 175.471 53.4266Z" fill="#282A36"/>
<path d="M173.058 53.4266C172.92 53.4266 172.808 53.3409 172.808 53.2354V48.6471C172.808 48.5416 172.92 48.456 173.058 48.456C173.196 48.456 173.308 48.5416 173.308 48.6471V53.2354C173.308 53.3409 173.196 53.4266 173.058 53.4266Z" fill="#282A36"/>
<path d="M170.644 53.4266C170.506 53.4266 170.394 53.3409 170.394 53.2354V51.706C170.394 51.6004 170.506 51.5148 170.644 51.5148C170.782 51.5148 170.894 51.6004 170.894 51.706V53.2354C170.894 53.3409 170.783 53.4266 170.644 53.4266Z" fill="#282A36"/>
<path d="M168.231 53.4266C168.093 53.4266 167.981 53.3409 167.981 53.2354V48.6471C167.981 48.5416 168.093 48.456 168.231 48.456C168.369 48.456 168.481 48.5416 168.481 48.6471V53.2354C168.481 53.3409 168.37 53.4266 168.231 53.4266Z" fill="#282A36"/>
<path d="M165.818 53.4266C165.68 53.4266 165.568 53.3409 165.568 53.2354V51.706C165.568 51.6004 165.68 51.5148 165.818 51.5148C165.956 51.5148 166.068 51.6004 166.068 51.706V53.2354C166.068 53.3409 165.957 53.4266 165.818 53.4266Z" fill="#282A36"/>
<path d="M163.404 53.4266C163.266 53.4266 163.154 53.3409 163.154 53.2354V48.6471C163.154 48.5416 163.266 48.456 163.404 48.456C163.542 48.456 163.654 48.5416 163.654 48.6471V53.2354C163.654 53.3409 163.542 53.4266 163.404 53.4266Z" fill="#282A36"/>
<path d="M160.991 53.4266C160.853 53.4266 160.741 53.3409 160.741 53.2354V51.706C160.741 51.6004 160.853 51.5148 160.991 51.5148C161.129 51.5148 161.241 51.6004 161.241 51.706V53.2354C161.241 53.3409 161.129 53.4266 160.991 53.4266Z" fill="#282A36"/>
<path d="M158.579 53.4266C158.441 53.4266 158.329 53.3409 158.329 53.2354V48.6471C158.329 48.5416 158.441 48.456 158.579 48.456C158.717 48.456 158.829 48.5416 158.829 48.6471V53.2354C158.829 53.3409 158.717 53.4266 158.579 53.4266Z" fill="#282A36"/>
<path d="M156.164 53.4266C156.026 53.4266 155.914 53.3409 155.914 53.2354V51.706C155.914 51.6004 156.026 51.5148 156.164 51.5148C156.302 51.5148 156.414 51.6004 156.414 51.706V53.2354C156.414 53.3409 156.303 53.4266 156.164 53.4266Z" fill="#282A36"/>
<path d="M247.871 53.4266C247.733 53.4266 247.621 53.3409 247.621 53.2354V51.706C247.621 51.6004 247.733 51.5148 247.871 51.5148C248.009 51.5148 248.121 51.6004 248.121 51.706V53.2354C248.121 53.3409 248.008 53.4266 247.871 53.4266Z" fill="#282A36"/>
<path d="M245.457 53.4266C245.319 53.4266 245.207 53.3409 245.207 53.2354V48.6471C245.207 48.5416 245.319 48.456 245.457 48.456C245.595 48.456 245.707 48.5416 245.707 48.6471V53.2354C245.707 53.3409 245.594 53.4266 245.457 53.4266Z" fill="#282A36"/>
<path d="M243.044 53.4266C242.906 53.4266 242.794 53.3409 242.794 53.2354V51.706C242.794 51.6004 242.906 51.5148 243.044 51.5148C243.182 51.5148 243.294 51.6004 243.294 51.706V53.2354C243.294 53.3409 243.181 53.4266 243.044 53.4266Z" fill="#282A36"/>
<path d="M240.631 53.4266C240.493 53.4266 240.381 53.3409 240.381 53.2354V48.6471C240.381 48.5416 240.493 48.456 240.631 48.456C240.769 48.456 240.881 48.5416 240.881 48.6471V53.2354C240.881 53.3409 240.768 53.4266 240.631 53.4266Z" fill="#282A36"/>
<path d="M238.217 53.4266C238.079 53.4266 237.967 53.3409 237.967 53.2354V51.706C237.967 51.6004 238.079 51.5148 238.217 51.5148C238.355 51.5148 238.467 51.6004 238.467 51.706V53.2354C238.467 53.3409 238.354 53.4266 238.217 53.4266Z" fill="#282A36"/>
<path d="M235.803 53.4266C235.665 53.4266 235.553 53.3409 235.553 53.2354V48.6471C235.553 48.5416 235.665 48.456 235.803 48.456C235.941 48.456 236.053 48.5416 236.053 48.6471V53.2354C236.053 53.3409 235.941 53.4266 235.803 53.4266Z" fill="#282A36"/>
<path d="M233.39 53.4266C233.252 53.4266 233.14 53.3409 233.14 53.2354V51.706C233.14 51.6004 233.252 51.5148 233.39 51.5148C233.528 51.5148 233.64 51.6004 233.64 51.706V53.2354C233.64 53.3409 233.528 53.4266 233.39 53.4266Z" fill="#282A36"/>
<path d="M230.977 53.4266C230.839 53.4266 230.727 53.3409 230.727 53.2354V48.6471C230.727 48.5416 230.839 48.456 230.977 48.456C231.115 48.456 231.227 48.5416 231.227 48.6471V53.2354C231.227 53.3409 231.115 53.4266 230.977 53.4266Z" fill="#282A36"/>
<path d="M228.563 53.4266C228.425 53.4266 228.313 53.3409 228.313 53.2354V51.706C228.313 51.6004 228.425 51.5148 228.563 51.5148C228.701 51.5148 228.813 51.6004 228.813 51.706V53.2354C228.813 53.3409 228.701 53.4266 228.563 53.4266Z" fill="#282A36"/>
<path d="M226.15 53.4265C226.012 53.4265 225.9 53.3409 225.9 53.2354V45.5883C225.9 45.4828 226.012 45.3971 226.15 45.3971C226.288 45.3971 226.4 45.4828 226.4 45.5883V53.2354C226.4 53.3409 226.288 53.4265 226.15 53.4265Z" fill="#282A36"/>
<path d="M223.737 53.4266C223.599 53.4266 223.487 53.3409 223.487 53.2354V51.706C223.487 51.6004 223.599 51.5148 223.737 51.5148C223.875 51.5148 223.987 51.6004 223.987 51.706V53.2354C223.987 53.3409 223.875 53.4266 223.737 53.4266Z" fill="#282A36"/>
<path d="M221.324 53.4266C221.186 53.4266 221.074 53.3409 221.074 53.2354V48.6471C221.074 48.5416 221.186 48.456 221.324 48.456C221.462 48.456 221.574 48.5416 221.574 48.6471V53.2354C221.574 53.3409 221.462 53.4266 221.324 53.4266Z" fill="#282A36"/>
<path d="M218.911 53.4266C218.773 53.4266 218.661 53.3409 218.661 53.2354V51.706C218.661 51.6004 218.773 51.5148 218.911 51.5148C219.049 51.5148 219.161 51.6004 219.161 51.706V53.2354C219.161 53.3409 219.048 53.4266 218.911 53.4266Z" fill="#282A36"/>
<path d="M216.498 53.4266C216.36 53.4266 216.248 53.3409 216.248 53.2354V48.6471C216.248 48.5416 216.36 48.456 216.498 48.456C216.636 48.456 216.748 48.5416 216.748 48.6471V53.2354C216.748 53.3409 216.635 53.4266 216.498 53.4266Z" fill="#282A36"/>
<path d="M214.084 53.4266C213.946 53.4266 213.834 53.3409 213.834 53.2354V51.706C213.834 51.6004 213.946 51.5148 214.084 51.5148C214.222 51.5148 214.334 51.6004 214.334 51.706V53.2354C214.334 53.3409 214.221 53.4266 214.084 53.4266Z" fill="#282A36"/>
<path d="M211.671 53.4266C211.533 53.4266 211.421 53.3409 211.421 53.2354V48.6471C211.421 48.5416 211.533 48.456 211.671 48.456C211.809 48.456 211.921 48.5416 211.921 48.6471V53.2354C211.921 53.3409 211.808 53.4266 211.671 53.4266Z" fill="#282A36"/>
<path d="M209.257 53.4266C209.119 53.4266 209.007 53.3409 209.007 53.2354V51.706C209.007 51.6004 209.119 51.5148 209.257 51.5148C209.395 51.5148 209.507 51.6004 209.507 51.706V53.2354C209.507 53.3409 209.395 53.4266 209.257 53.4266Z" fill="#282A36"/>
<path d="M206.844 53.4266C206.706 53.4266 206.594 53.3409 206.594 53.2354V48.6471C206.594 48.5416 206.706 48.456 206.844 48.456C206.982 48.456 207.094 48.5416 207.094 48.6471V53.2354C207.094 53.3409 206.982 53.4266 206.844 53.4266Z" fill="#282A36"/>
<path d="M204.43 53.4266C204.292 53.4266 204.18 53.3409 204.18 53.2354V51.706C204.18 51.6004 204.292 51.5148 204.43 51.5148C204.568 51.5148 204.68 51.6004 204.68 51.706V53.2354C204.68 53.3409 204.568 53.4266 204.43 53.4266Z" fill="#282A36"/>
<path d="M296.137 53.4266C295.999 53.4266 295.887 53.3409 295.887 53.2354V51.706C295.887 51.6004 295.999 51.5148 296.137 51.5148C296.275 51.5148 296.387 51.6004 296.387 51.706V53.2354C296.387 53.3409 296.274 53.4266 296.137 53.4266Z" fill="#282A36"/>
<path d="M293.722 53.4266C293.584 53.4266 293.472 53.3409 293.472 53.2354V48.6471C293.472 48.5416 293.584 48.456 293.722 48.456C293.86 48.456 293.972 48.5416 293.972 48.6471V53.2354C293.972 53.3409 293.86 53.4266 293.722 53.4266Z" fill="#282A36"/>
<path d="M291.309 53.4266C291.171 53.4266 291.059 53.3409 291.059 53.2354V51.706C291.059 51.6004 291.171 51.5148 291.309 51.5148C291.447 51.5148 291.559 51.6004 291.559 51.706V53.2354C291.559 53.3409 291.447 53.4266 291.309 53.4266Z" fill="#282A36"/>
<path d="M288.896 53.4266C288.758 53.4266 288.646 53.3409 288.646 53.2354V48.6471C288.646 48.5416 288.758 48.456 288.896 48.456C289.034 48.456 289.146 48.5416 289.146 48.6471V53.2354C289.146 53.3409 289.034 53.4266 288.896 53.4266Z" fill="#282A36"/>
<path d="M286.482 53.4266C286.344 53.4266 286.232 53.3409 286.232 53.2354V51.706C286.232 51.6004 286.344 51.5148 286.482 51.5148C286.62 51.5148 286.732 51.6004 286.732 51.706V53.2354C286.732 53.3409 286.62 53.4266 286.482 53.4266Z" fill="#282A36"/>
<path d="M284.069 53.4266C283.931 53.4266 283.819 53.3409 283.819 53.2354V48.6471C283.819 48.5416 283.931 48.456 284.069 48.456C284.207 48.456 284.319 48.5416 284.319 48.6471V53.2354C284.319 53.3409 284.207 53.4266 284.069 53.4266Z" fill="#282A36"/>
<path d="M281.656 53.4266C281.518 53.4266 281.406 53.3409 281.406 53.2354V51.706C281.406 51.6004 281.518 51.5148 281.656 51.5148C281.794 51.5148 281.906 51.6004 281.906 51.706V53.2354C281.906 53.3409 281.794 53.4266 281.656 53.4266Z" fill="#282A36"/>
<path d="M279.243 53.4266C279.105 53.4266 278.993 53.3409 278.993 53.2354V48.6471C278.993 48.5416 279.105 48.456 279.243 48.456C279.381 48.456 279.493 48.5416 279.493 48.6471V53.2354C279.493 53.3409 279.381 53.4266 279.243 53.4266Z" fill="#282A36"/>
<path d="M276.829 53.4266C276.691 53.4266 276.579 53.3409 276.579 53.2354V51.706C276.579 51.6004 276.691 51.5148 276.829 51.5148C276.967 51.5148 277.079 51.6004 277.079 51.706V53.2354C277.079 53.3409 276.967 53.4266 276.829 53.4266Z" fill="#282A36"/>
<path d="M274.417 53.4265C274.279 53.4265 274.167 53.3409 274.167 53.2354V45.5883C274.167 45.4828 274.279 45.3971 274.417 45.3971C274.555 45.3971 274.667 45.4828 274.667 45.5883V53.2354C274.667 53.3409 274.554 53.4265 274.417 53.4265Z" fill="#282A36"/>
<path d="M272.004 53.4266C271.866 53.4266 271.754 53.3409 271.754 53.2354V51.706C271.754 51.6004 271.866 51.5148 272.004 51.5148C272.142 51.5148 272.254 51.6004 272.254 51.706V53.2354C272.254 53.3409 272.141 53.4266 272.004 53.4266Z" fill="#282A36"/>
<path d="M269.59 53.4266C269.452 53.4266 269.34 53.3409 269.34 53.2354V48.6471C269.34 48.5416 269.452 48.456 269.59 48.456C269.728 48.456 269.84 48.5416 269.84 48.6471V53.2354C269.84 53.3409 269.727 53.4266 269.59 53.4266Z" fill="#282A36"/>
<path d="M267.177 53.4266C267.039 53.4266 266.927 53.3409 266.927 53.2354V51.706C266.927 51.6004 267.039 51.5148 267.177 51.5148C267.315 51.5148 267.427 51.6004 267.427 51.706V53.2354C267.427 53.3409 267.314 53.4266 267.177 53.4266Z" fill="#282A36"/>
<path d="M264.763 53.4266C264.625 53.4266 264.513 53.3409 264.513 53.2354V48.6471C264.513 48.5416 264.625 48.456 264.763 48.456C264.901 48.456 265.013 48.5416 265.013 48.6471V53.2354C265.013 53.3409 264.901 53.4266 264.763 53.4266Z" fill="#282A36"/>
<path d="M262.349 53.4266C262.211 53.4266 262.099 53.3409 262.099 53.2354V51.706C262.099 51.6004 262.211 51.5148 262.349 51.5148C262.487 51.5148 262.599 51.6004 262.599 51.706V53.2354C262.599 53.3409 262.487 53.4266 262.349 53.4266Z" fill="#282A36"/>
<path d="M259.936 53.4266C259.798 53.4266 259.686 53.3409 259.686 53.2354V48.6471C259.686 48.5416 259.798 48.456 259.936 48.456C260.074 48.456 260.186 48.5416 260.186 48.6471V53.2354C260.186 53.3409 260.074 53.4266 259.936 53.4266Z" fill="#282A36"/>
<path d="M257.523 53.4266C257.385 53.4266 257.273 53.3409 257.273 53.2354V51.706C257.273 51.6004 257.385 51.5148 257.523 51.5148C257.661 51.5148 257.773 51.6004 257.773 51.706V53.2354C257.773 53.3409 257.661 53.4266 257.523 53.4266Z" fill="#282A36"/>
<path d="M255.11 53.4266C254.972 53.4266 254.86 53.3409 254.86 53.2354V48.6471C254.86 48.5416 254.972 48.456 255.11 48.456C255.248 48.456 255.36 48.5416 255.36 48.6471V53.2354C255.36 53.3409 255.248 53.4266 255.11 53.4266Z" fill="#282A36"/>
<path d="M252.696 53.4266C252.558 53.4266 252.446 53.3409 252.446 53.2354V51.706C252.446 51.6004 252.558 51.5148 252.696 51.5148C252.834 51.5148 252.946 51.6004 252.946 51.706V53.2354C252.946 53.3409 252.834 53.4266 252.696 53.4266Z" fill="#282A36"/>
<path d="M56.8369 37.3852C56.5769 37.5068 56.2369 37.5986 55.8669 37.6146V37.1252C56.6269 37.1023 56.8869 36.7887 57.0669 36.414H57.6069V41.7647H56.8369V37.3852Z" fill="#282A36"/>
<path d="M107.098 37.7141C107.098 39.3261 104.729 39.9073 104.719 41.1384V41.2218H107.018V41.7647H103.95V41.3059C103.95 39.5784 106.319 39.2427 106.319 37.7363C106.319 37.1864 106.079 36.8958 105.499 36.8958C104.93 36.8958 104.68 37.2086 104.68 37.6827V38.1561H103.951V37.721C103.951 36.9035 104.441 36.3606 105.52 36.3606C106.608 36.3613 107.098 36.8966 107.098 37.7141Z" fill="#282A36"/>
<path d="M155.325 37.7067V37.8443C155.325 38.3949 155.035 38.7849 154.475 38.9455C155.064 39.1137 155.325 39.5182 155.325 40.0535V40.4657C155.325 41.2832 154.825 41.8193 153.745 41.8193C152.676 41.8193 152.176 41.284 152.176 40.4657V40.0987H152.905V40.5032C152.905 40.985 153.165 41.2755 153.725 41.2755C154.294 41.2755 154.544 40.9926 154.544 40.4504V40.0375C154.544 39.5106 154.254 39.2575 153.665 39.243H153.245V38.7077H153.705C154.225 38.6924 154.544 38.44 154.544 37.9743V37.7296C154.544 37.179 154.294 36.8968 153.725 36.8968C153.165 36.8968 152.905 37.1951 152.905 37.6768V37.9514H152.176V37.7074C152.176 36.8892 152.675 36.3615 153.745 36.3615C154.825 36.3615 155.325 36.8884 155.325 37.7067Z" fill="#282A36"/>
<path d="M203.255 40.6873V41.7647H202.495V40.6873H200.236V40.1443L202.405 36.4149H203.255V40.1443H203.814V40.6873H203.255ZM200.957 40.1443H202.496V37.5306L200.957 40.1443Z" fill="#282A36"/>
<path d="M249.527 38.5935C249.748 38.3029 250.097 38.15 250.567 38.15C251.466 38.15 251.866 38.6547 251.866 39.4186V40.4655C251.866 41.283 251.356 41.819 250.287 41.819C249.218 41.819 248.718 41.2837 248.718 40.4655V40.1061H249.448V40.5038C249.448 40.9855 249.708 41.2761 250.267 41.2761C250.827 41.2761 251.086 40.9855 251.086 40.5038V39.4645C251.086 38.9835 250.826 38.6929 250.267 38.6929C249.837 38.6929 249.547 38.8757 249.477 39.2657V39.388H248.748L248.938 36.4149H251.696V36.9494H249.637L249.527 38.5935Z" fill="#282A36"/>
<path d="M300.142 37.699V37.7984H299.413V37.6608C299.413 37.179 299.153 36.8968 298.584 36.8968C297.994 36.8968 297.734 37.1874 297.734 37.7602V38.96C297.923 38.5937 298.303 38.3865 298.863 38.3865C299.762 38.3865 300.163 38.8835 300.163 39.6551V40.4657C300.163 41.2832 299.633 41.8193 298.563 41.8193C297.484 41.8193 296.954 41.284 296.954 40.4657V37.7373C296.954 36.8892 297.454 36.3615 298.563 36.3615C299.642 36.3615 300.142 36.8808 300.142 37.699ZM297.734 39.7018V40.504C297.734 40.9857 297.994 41.2763 298.563 41.2763C299.123 41.2763 299.393 40.9857 299.393 40.504V39.7018C299.393 39.22 299.123 38.9294 298.563 38.9294C297.994 38.9294 297.734 39.22 297.734 39.7018Z" fill="#282A36"/>
<path d="M7.3479 37.7064C7.3479 36.8882 7.8779 36.3606 8.9469 36.3606C10.0269 36.3606 10.5559 36.8874 10.5559 37.7064V40.4647C10.5559 41.2822 10.0269 41.8183 8.9469 41.8183C7.8779 41.8183 7.3479 41.283 7.3479 40.4647V37.7064ZM8.1179 40.5037C8.1179 40.9855 8.3879 41.2761 8.9479 41.2761C9.5179 41.2761 9.7779 40.9855 9.7779 40.5037V37.6766C9.7779 37.1872 9.5179 36.8966 8.9479 36.8966C8.3879 36.8966 8.1179 37.1872 8.1179 37.6766V40.5037Z" fill="#282A36"/>
</g>
<path d="M15.8409 25.0639C15.5057 25.0639 15.2173 24.9929 14.9759 24.8509C14.7358 24.7074 14.5511 24.5085 14.4219 24.2543C14.294 24 14.2301 23.7074 14.2301 23.3764C14.2301 23.0412 14.2947 22.7472 14.424 22.4943C14.5547 22.2401 14.7401 22.0419 14.9801 21.8999C15.2202 21.7564 15.5057 21.6847 15.8366 21.6847C16.1222 21.6847 16.3722 21.7365 16.5866 21.8402C16.8011 21.9439 16.9709 22.0895 17.0959 22.277C17.2209 22.4645 17.2898 22.6847 17.3026 22.9375H16.446C16.4219 22.7741 16.358 22.6428 16.2543 22.5433C16.152 22.4425 16.0178 22.392 15.8516 22.392C15.7109 22.392 15.5881 22.4304 15.483 22.5071C15.3793 22.5824 15.2983 22.6925 15.2401 22.8374C15.1818 22.9822 15.1527 23.1577 15.1527 23.3636C15.1527 23.5724 15.1811 23.75 15.2379 23.8963C15.2962 24.0426 15.3778 24.1541 15.483 24.2308C15.5881 24.3075 15.7109 24.3459 15.8516 24.3459C15.9553 24.3459 16.0483 24.3246 16.1307 24.282C16.2145 24.2393 16.2834 24.1776 16.3374 24.0966C16.3928 24.0142 16.429 23.9155 16.446 23.8004H17.3026C17.2884 24.0504 17.2202 24.2706 17.098 24.4609C16.9773 24.6499 16.8104 24.7976 16.5973 24.9041C16.3842 25.0107 16.1321 25.0639 15.8409 25.0639ZM17.8837 25V21.7273H18.7488V22.3047H18.7871C18.8553 22.1129 18.9689 21.9616 19.128 21.8509C19.2871 21.7401 19.4775 21.6847 19.699 21.6847C19.9235 21.6847 20.1145 21.7408 20.2722 21.853C20.4299 21.9638 20.535 22.1143 20.5875 22.3047H20.6216C20.6884 22.1172 20.8091 21.9673 20.9838 21.8551C21.16 21.7415 21.3681 21.6847 21.6081 21.6847C21.9135 21.6847 22.1614 21.782 22.3517 21.9766C22.5435 22.1697 22.6394 22.4439 22.6394 22.799V25H21.7338V22.978C21.7338 22.7962 21.6855 22.6598 21.589 22.5689C21.4924 22.478 21.3716 22.4325 21.2267 22.4325C21.062 22.4325 20.9334 22.4851 20.8411 22.5902C20.7488 22.6939 20.7026 22.831 20.7026 23.0014V25H19.8226V22.9588C19.8226 22.7983 19.7765 22.6705 19.6841 22.5753C19.5932 22.4801 19.4732 22.4325 19.324 22.4325C19.2232 22.4325 19.1323 22.4581 19.0513 22.5092C18.9718 22.5589 18.9086 22.6293 18.8617 22.7202C18.8148 22.8097 18.7914 22.9148 18.7914 23.0355V25H17.8837Z" fill="#037E47"/>
</g>
<defs>
<linearGradient id="paint0_linear_74_2038" x1="154.002" y1="54" x2="154.002" y2="2" gradientUnits="userSpaceOnUse">
<stop stop-color="#F1E9DA"/>
<stop offset="0.0164" stop-color="#F6EFE2"/>
<stop offset="0.0478" stop-color="#FBF5EA"/>
<stop offset="0.1" stop-color="#FCF7ED"/>
<stop offset="0.5" stop-color="#F1E9DA"/>
<stop offset="0.7089" stop-color="#F2EBDD"/>
<stop offset="0.8344" stop-color="#F7F1E5"/>
<stop offset="0.9" stop-color="#FCF7ED"/>
<stop offset="0.9522" stop-color="#FBF5EA"/>
<stop offset="0.9836" stop-color="#F6EFE2"/>
<stop offset="1" stop-color="#F1E9DA"/>
</linearGradient>
<linearGradient id="paint1_linear_74_2038" x1="154.019" y1="2" x2="154.019" y2="8.88235" gradientUnits="userSpaceOnUse">
<stop stop-color="#FCF7ED"/>
<stop offset="0.4265" stop-color="#F6F0E3"/>
<stop offset="1" stop-color="#F1E9DA"/>
</linearGradient>
<linearGradient id="paint2_linear_74_2038" x1="154.019" y1="54" x2="154.019" y2="47.1177" gradientUnits="userSpaceOnUse">
<stop stop-color="#FCF7ED"/>
<stop offset="0.4265" stop-color="#F6F0E3"/>
<stop offset="1" stop-color="#F1E9DA"/>
</linearGradient>
<clipPath id="clip0_74_2038">
<rect width="309" height="54" fill="white"/>
</clipPath>
</defs>
</svg>
