<svg width="294" height="188" viewBox="0 0 294 188" fill="none" xmlns="http://www.w3.org/2000/svg">
<g clip-path="url(#clip0_41_2)">
<rect x="38" y="13" width="218" height="161" rx="9" fill="url(#paint0_linear_41_2)" fill-opacity="0.3" stroke="white" stroke-width="2"/>
<line opacity="0.16" x1="52.5" y1="174.003" x2="52.5" y2="14" stroke="white"/>
<line opacity="0.16" x1="112.5" y1="174.003" x2="112.5" y2="14" stroke="white"/>
<line opacity="0.16" x1="172.5" y1="174.003" x2="172.5" y2="14" stroke="white"/>
<line opacity="0.16" x1="232.5" y1="174.003" x2="232.5" y2="14" stroke="white"/>
<line opacity="0.16" x1="82.5" y1="174.003" x2="82.5" y2="14" stroke="white"/>
<line opacity="0.16" x1="142.5" y1="174.003" x2="142.5" y2="14" stroke="white"/>
<line opacity="0.16" x1="202.5" y1="174.003" x2="202.5" y2="14" stroke="white"/>
<line opacity="0.16" x1="67.5" y1="174.003" x2="67.5" y2="14" stroke="white"/>
<line opacity="0.16" x1="127.5" y1="174.003" x2="127.5" y2="14" stroke="white"/>
<line opacity="0.16" x1="187.5" y1="174.003" x2="187.5" y2="14" stroke="white"/>
<line opacity="0.16" x1="247.5" y1="174.003" x2="247.5" y2="14" stroke="white"/>
<line opacity="0.16" x1="97.5" y1="174.003" x2="97.5" y2="14" stroke="white"/>
<line opacity="0.16" x1="157.5" y1="174.003" x2="157.5" y2="14" stroke="white"/>
<line opacity="0.16" x1="217.5" y1="174.003" x2="217.5" y2="14" stroke="white"/>
<line opacity="0.16" x1="38" y1="19.5" x2="257" y2="19.5" stroke="white"/>
<line opacity="0.16" x1="38" y1="79.5" x2="257" y2="79.5" stroke="white"/>
<line opacity="0.16" x1="38" y1="139.5" x2="257" y2="139.5" stroke="white"/>
<line opacity="0.16" x1="38" y1="49.5" x2="257" y2="49.5" stroke="white"/>
<line opacity="0.16" x1="38" y1="109.5" x2="257" y2="109.5" stroke="white"/>
<line opacity="0.16" x1="37" y1="169.5" x2="256" y2="169.5" stroke="white"/>
<line opacity="0.16" x1="38" y1="34.5" x2="257" y2="34.5" stroke="white"/>
<line opacity="0.16" x1="38" y1="94.5" x2="257" y2="94.5" stroke="white"/>
<line opacity="0.16" x1="37" y1="154.5" x2="256" y2="154.5" stroke="white"/>
<line opacity="0.16" x1="38" y1="64.5" x2="257" y2="64.5" stroke="white"/>
<line opacity="0.16" x1="38" y1="124.5" x2="257" y2="124.5" stroke="white"/>
<line x1="65.0783" y1="143.732" x2="201.078" y2="37.8165" stroke="white" stroke-width="3"/>
<circle cx="198" cy="40" r="5" fill="#B99400"/>
<circle cx="198" cy="40" r="2" fill="white"/>
<circle cx="66" cy="143" r="5" fill="#B99400"/>
<circle cx="66" cy="143" r="2" fill="white"/>
<path d="M228.739 20.202L64.8631 147.822C63.0339 149.246 63.0243 149.304 64.3329 150.984L80.7718 172.093C82.0804 173.774 84.6244 173.981 86.4535 172.557L247.093 47.4576C248.922 46.0332 249.344 43.5159 248.035 41.8355L232.189 21.4871C230.88 19.8067 230.568 18.7776 228.739 20.202ZM82.7142 158.361C81.3422 159.429 79.4345 159.274 78.4529 158.013C77.4713 156.753 77.7878 154.865 79.1599 153.796C80.5319 152.728 82.4396 152.884 83.4212 154.144C84.4027 155.404 84.0863 157.292 82.7142 158.361Z" fill="url(#paint1_linear_41_2)"/>
<path d="M83.0113 158.74C84.3835 157.672 84.7001 155.784 83.7185 154.524C83.6687 154.46 83.6164 154.398 83.5617 154.34C84.3688 155.594 84.0173 157.346 82.7151 158.36C81.4129 159.374 79.6278 159.286 78.6103 158.196C78.6534 158.263 78.7 158.329 78.7497 158.393C79.7313 159.654 81.6391 159.809 83.0113 158.74Z" fill="url(#paint2_linear_41_2)"/>
<path d="M78.8646 153.415C80.2368 152.347 82.1445 152.502 83.1261 153.763C83.1759 153.827 83.2225 153.892 83.2655 153.96C82.2481 152.87 80.463 152.782 79.1607 153.796C77.8585 154.81 77.507 156.562 78.3141 157.816C78.2595 157.757 78.2071 157.696 78.1573 157.632C77.1757 156.372 77.4923 154.484 78.8646 153.415Z" fill="url(#paint3_linear_41_2)"/>
<path d="M226.97 21.5797L66.3125 146.693C64.4832 148.118 64.061 150.635 65.3696 152.316L65.6658 152.696C64.3572 151.016 64.7794 148.498 66.6087 147.074L227.266 21.96C229.096 20.5354 231.64 20.7428 232.948 22.4231L232.652 22.0428C231.344 20.3624 228.799 20.1551 226.97 21.5797Z" fill="url(#paint4_linear_41_2)"/>
<path d="M247.111 47.4431L86.4539 172.557C84.6246 173.981 82.0804 173.774 80.7718 172.093L80.4756 171.713C81.7842 173.393 84.3284 173.601 86.1577 172.176L246.815 47.0627C248.645 45.6381 249.067 43.1207 247.758 41.4403L248.054 41.8207C249.363 43.501 248.941 46.0185 247.111 47.4431Z" fill="url(#paint5_linear_41_2)"/>
<path d="M226.577 29.9815C226.502 30.0398 226.408 30.0446 226.367 29.9921L222.813 25.428C222.772 25.3755 222.8 25.2855 222.875 25.2272C222.95 25.1688 223.044 25.164 223.085 25.2165L226.639 29.7806C226.68 29.8331 226.652 29.9231 226.577 29.9815Z" fill="#282A36"/>
<path d="M216.258 38.0177C216.183 38.0761 216.089 38.0808 216.048 38.0284L212.494 33.4642C212.453 33.4117 212.481 33.3218 212.555 33.2634C212.63 33.2051 212.724 33.2003 212.765 33.2528L216.32 37.8169C216.36 37.8694 216.333 37.9594 216.258 38.0177Z" fill="#282A36"/>
<path d="M205.939 46.0541C205.864 46.1125 205.77 46.1172 205.729 46.0647L202.174 41.5006C202.133 41.4481 202.161 41.3582 202.236 41.2998C202.311 41.2414 202.405 41.2367 202.446 41.2891L206 45.8533C206.041 45.9058 206.013 45.9957 205.939 46.0541Z" fill="#282A36"/>
<path d="M195.619 54.0903C195.544 54.1487 195.45 54.1535 195.409 54.101L191.855 49.5369C191.814 49.4844 191.842 49.3944 191.917 49.336C191.992 49.2777 192.086 49.2729 192.127 49.3254L195.681 53.8895C195.722 53.942 195.694 54.032 195.619 54.0903Z" fill="#282A36"/>
<path d="M185.3 62.1267C185.225 62.1851 185.131 62.1899 185.09 62.1374L181.536 57.5732C181.495 57.5207 181.522 57.4308 181.597 57.3724C181.672 57.3141 181.766 57.3093 181.807 57.3618L185.362 61.9259C185.402 61.9784 185.375 62.0684 185.3 62.1267Z" fill="#282A36"/>
<path d="M174.981 70.1626C174.906 70.221 174.812 70.2257 174.771 70.1733L171.217 65.6091C171.176 65.5566 171.204 65.4667 171.278 65.4083C171.353 65.3499 171.447 65.3452 171.488 65.3977L175.043 69.9618C175.084 70.0143 175.056 70.1043 174.981 70.1626Z" fill="#282A36"/>
<path d="M164.662 78.1989C164.587 78.2572 164.493 78.262 164.452 78.2095L160.897 73.6454C160.857 73.5929 160.884 73.5029 160.959 73.4446C161.034 73.3862 161.128 73.3814 161.169 73.4339L164.723 77.9981C164.764 78.0505 164.737 78.1405 164.662 78.1989Z" fill="#282A36"/>
<path d="M154.342 86.2352C154.267 86.2936 154.173 86.2984 154.132 86.2459L150.578 81.6818C150.537 81.6293 150.565 81.5393 150.64 81.4809C150.715 81.4226 150.809 81.4178 150.85 81.4703L154.404 86.0344C154.445 86.0869 154.417 86.1769 154.342 86.2352Z" fill="#282A36"/>
<path d="M144.023 94.2715C143.948 94.3299 143.854 94.3346 143.813 94.2821L140.259 89.718C140.218 89.6655 140.245 89.5756 140.32 89.5172C140.395 89.4588 140.489 89.4541 140.53 89.5066L144.085 94.0707C144.125 94.1232 144.098 94.2131 144.023 94.2715Z" fill="#282A36"/>
<path d="M133.703 102.308C133.629 102.366 133.535 102.371 133.494 102.318L129.939 97.7543C129.898 97.7018 129.926 97.6118 130.001 97.5535C130.076 97.4951 130.17 97.4903 130.211 97.5428L133.765 102.107C133.806 102.159 133.778 102.249 133.703 102.308Z" fill="#282A36"/>
<path d="M123.384 110.344C123.309 110.402 123.215 110.407 123.174 110.355L119.62 105.791C119.579 105.738 119.607 105.648 119.682 105.59C119.757 105.531 119.851 105.527 119.891 105.579L123.446 110.143C123.487 110.196 123.459 110.286 123.384 110.344Z" fill="#282A36"/>
<path d="M113.065 118.38C112.99 118.439 112.896 118.444 112.855 118.391L109.301 113.827C109.26 113.774 109.287 113.684 109.362 113.626C109.437 113.568 109.531 113.563 109.572 113.615L113.126 118.18C113.167 118.232 113.14 118.322 113.065 118.38Z" fill="#282A36"/>
<path d="M102.745 126.417C102.67 126.475 102.576 126.48 102.535 126.427L98.9811 121.863C98.9403 121.811 98.9679 121.721 99.0429 121.662C99.1178 121.604 99.2118 121.599 99.2527 121.652L102.807 126.216C102.848 126.268 102.82 126.358 102.745 126.417Z" fill="#282A36"/>
<path d="M92.4259 134.453C92.351 134.511 92.257 134.516 92.2161 134.464L88.6618 129.9C88.6209 129.847 88.6485 129.757 88.7235 129.699C88.7984 129.64 88.8924 129.636 88.9333 129.688L92.4876 134.252C92.5285 134.305 92.5009 134.395 92.4259 134.453Z" fill="#282A36"/>
<path d="M82.1065 142.489C82.0316 142.548 81.9376 142.553 81.8967 142.5L78.3424 137.936C78.3015 137.883 78.3291 137.793 78.4041 137.735C78.479 137.677 78.573 137.672 78.6139 137.724L82.1683 142.289C82.2091 142.341 82.1815 142.431 82.1065 142.489Z" fill="#282A36"/>
<path d="M71.7865 150.526C71.7116 150.585 71.6176 150.589 71.5767 150.537L68.0224 145.973C67.9815 145.92 68.0091 145.83 68.0841 145.772C68.159 145.713 68.253 145.709 68.2939 145.761L71.8483 150.325C71.8891 150.378 71.8615 150.468 71.7865 150.526Z" fill="#282A36"/>
<path d="M71.0419 147.44C70.967 147.498 70.873 147.503 70.8321 147.451L69.0549 145.169C69.0141 145.116 69.0417 145.026 69.1167 144.968C69.1916 144.909 69.2856 144.905 69.3265 144.957L71.1037 147.239C71.1445 147.292 71.1169 147.382 71.0419 147.44Z" fill="#282A36"/>
<path d="M72.0732 146.637C71.9983 146.695 71.9043 146.7 71.8634 146.648L70.0862 144.365C70.0453 144.313 70.073 144.223 70.1479 144.165C70.2229 144.106 70.3169 144.102 70.3577 144.154L72.1349 146.436C72.1758 146.489 72.1487 146.578 72.0732 146.637Z" fill="#282A36"/>
<path d="M73.1053 145.833C73.0303 145.892 72.9363 145.896 72.8955 145.844L71.1183 143.562C71.0774 143.509 71.1051 143.419 71.18 143.361C71.2549 143.303 71.3489 143.298 71.3898 143.35L73.167 145.632C73.2079 145.685 73.1808 145.774 73.1053 145.833Z" fill="#282A36"/>
<path d="M74.1372 145.029C74.0623 145.088 73.9683 145.093 73.9274 145.04L72.1502 142.758C72.1093 142.706 72.137 142.616 72.2119 142.557C72.2869 142.499 72.3809 142.494 72.4218 142.547L74.1989 144.829C74.2398 144.881 74.2122 144.971 74.1372 145.029Z" fill="#282A36"/>
<path d="M76.9469 146.507C76.8719 146.566 76.7779 146.571 76.7371 146.518L73.1827 141.954C73.1418 141.901 73.1695 141.812 73.2444 141.753C73.3194 141.695 73.4134 141.69 73.4542 141.743L77.0086 146.307C77.0495 146.359 77.0218 146.449 76.9469 146.507Z" fill="#282A36"/>
<path d="M76.2016 143.422C76.1267 143.48 76.0327 143.485 75.9918 143.432L74.2146 141.15C74.1738 141.098 74.2014 141.008 74.2763 140.95C74.3513 140.891 74.4453 140.886 74.4862 140.939L76.2633 143.221C76.3042 143.273 76.2766 143.363 76.2016 143.422Z" fill="#282A36"/>
<path d="M77.233 142.619C77.1581 142.677 77.0641 142.682 77.0232 142.629L75.246 140.347C75.2052 140.295 75.2328 140.205 75.3077 140.146C75.3827 140.088 75.4767 140.083 75.5176 140.136L77.2947 142.418C77.3356 142.47 77.3085 142.56 77.233 142.619Z" fill="#282A36"/>
<path d="M78.265 141.815C78.19 141.873 78.096 141.878 78.0551 141.826L76.278 139.544C76.2371 139.491 76.2647 139.401 76.3397 139.343C76.4146 139.284 76.5086 139.28 76.5495 139.332L78.3267 141.614C78.3676 141.667 78.3404 141.756 78.265 141.815Z" fill="#282A36"/>
<path d="M79.2969 141.011C79.222 141.07 79.128 141.075 79.0871 141.022L77.3099 138.74C77.269 138.687 77.2967 138.598 77.3716 138.539C77.4466 138.481 77.5406 138.476 77.5814 138.529L79.3586 140.811C79.3995 140.863 79.3718 140.953 79.2969 141.011Z" fill="#282A36"/>
<path d="M81.3613 139.404C81.2864 139.462 81.1924 139.467 81.1515 139.414L79.3743 137.132C79.3335 137.08 79.3611 136.99 79.436 136.932C79.511 136.873 79.605 136.868 79.6459 136.921L81.423 139.203C81.4639 139.255 81.4363 139.345 81.3613 139.404Z" fill="#282A36"/>
<path d="M82.3926 138.601C82.3176 138.659 82.2236 138.664 82.1828 138.611L80.4056 136.329C80.3647 136.277 80.3924 136.187 80.4673 136.128C80.5422 136.07 80.6362 136.065 80.6771 136.118L82.4543 138.4C82.4952 138.452 82.4681 138.542 82.3926 138.601Z" fill="#282A36"/>
<path d="M83.4246 137.797C83.3497 137.855 83.2557 137.86 83.2148 137.808L81.4377 135.526C81.3968 135.473 81.4244 135.383 81.4994 135.325C81.5743 135.266 81.6683 135.262 81.7092 135.314L83.4864 137.596C83.5272 137.649 83.5001 137.738 83.4246 137.797Z" fill="#282A36"/>
<path d="M84.4566 136.993C84.3816 137.052 84.2876 137.056 84.2468 137.004L82.4696 134.722C82.4287 134.669 82.4564 134.579 82.5313 134.521C82.6062 134.463 82.7002 134.458 82.7411 134.51L84.5183 136.793C84.5592 136.845 84.5315 136.935 84.4566 136.993Z" fill="#282A36"/>
<path d="M87.2662 138.471C87.1913 138.53 87.0973 138.534 87.0564 138.482L83.5021 133.918C83.4612 133.865 83.4888 133.775 83.5638 133.717C83.6387 133.659 83.7327 133.654 83.7736 133.706L87.328 138.271C87.3688 138.323 87.3412 138.413 87.2662 138.471Z" fill="#282A36"/>
<path d="M86.521 135.386C86.4461 135.444 86.3521 135.449 86.3112 135.396L84.534 133.114C84.4931 133.062 84.5208 132.972 84.5957 132.913C84.6707 132.855 84.7647 132.85 84.8055 132.903L86.5827 135.185C86.6236 135.237 86.5959 135.327 86.521 135.386Z" fill="#282A36"/>
<path d="M87.5524 134.582C87.4774 134.641 87.3835 134.646 87.3426 134.593L85.5654 132.311C85.5245 132.259 85.5522 132.169 85.6271 132.11C85.7021 132.052 85.7961 132.047 85.8369 132.1L87.6141 134.382C87.655 134.434 87.6279 134.524 87.5524 134.582Z" fill="#282A36"/>
<path d="M88.5843 133.779C88.5094 133.837 88.4154 133.842 88.3745 133.789L86.5973 131.507C86.5565 131.455 86.5841 131.365 86.6591 131.307C86.734 131.248 86.828 131.243 86.8689 131.296L88.6461 133.578C88.6869 133.63 88.6593 133.72 88.5843 133.779Z" fill="#282A36"/>
<path d="M89.6163 132.975C89.5413 133.034 89.4473 133.038 89.4065 132.986L87.6293 130.704C87.5884 130.651 87.6161 130.561 87.691 130.503C87.7659 130.445 87.8599 130.44 87.9008 130.492L89.678 132.774C89.7189 132.827 89.6912 132.917 89.6163 132.975Z" fill="#282A36"/>
<path d="M91.6807 131.367C91.6058 131.426 91.5118 131.43 91.4709 131.378L89.6937 129.096C89.6528 129.043 89.6805 128.953 89.7554 128.895C89.8304 128.837 89.9244 128.832 89.9652 128.884L91.7424 131.167C91.7833 131.219 91.7556 131.309 91.6807 131.367Z" fill="#282A36"/>
<path d="M92.712 130.564C92.637 130.623 92.543 130.627 92.5022 130.575L90.725 128.293C90.6841 128.24 90.7117 128.15 90.7867 128.092C90.8616 128.034 90.9556 128.029 90.9965 128.081L92.7737 130.363C92.8146 130.416 92.7875 130.505 92.712 130.564Z" fill="#282A36"/>
<path d="M93.744 129.761C93.6691 129.819 93.5751 129.824 93.5342 129.771L91.757 127.489C91.7162 127.437 91.7438 127.347 91.8188 127.288C91.8937 127.23 91.9877 127.225 92.0286 127.278L93.8058 129.56C93.8466 129.612 93.819 129.702 93.744 129.761Z" fill="#282A36"/>
<path d="M94.776 128.957C94.701 129.015 94.607 129.02 94.5661 128.968L92.789 126.686C92.7481 126.633 92.7757 126.543 92.8507 126.485C92.9256 126.426 93.0196 126.422 93.0605 126.474L94.8377 128.756C94.8786 128.809 94.8509 128.899 94.776 128.957Z" fill="#282A36"/>
<path d="M97.5856 130.435C97.5107 130.493 97.4167 130.498 97.3758 130.446L93.8215 125.881C93.7806 125.829 93.8082 125.739 93.8832 125.681C93.9581 125.622 94.0521 125.618 94.093 125.67L97.6473 130.234C97.6882 130.287 97.6606 130.377 97.5856 130.435Z" fill="#282A36"/>
<path d="M96.8404 127.349C96.7654 127.408 96.6714 127.412 96.6306 127.36L94.8534 125.078C94.8125 125.025 94.8402 124.935 94.9151 124.877C94.99 124.819 95.084 124.814 95.1249 124.866L96.9021 127.148C96.943 127.201 96.9153 127.291 96.8404 127.349Z" fill="#282A36"/>
<path d="M97.8718 126.546C97.7968 126.604 97.7028 126.609 97.662 126.557L95.8848 124.275C95.8439 124.222 95.8716 124.132 95.9465 124.074C96.0215 124.015 96.1154 124.011 96.1563 124.063L97.9335 126.345C97.9744 126.398 97.9473 126.487 97.8718 126.546Z" fill="#282A36"/>
<path d="M98.9037 125.742C98.8288 125.801 98.7348 125.805 98.6939 125.753L96.9167 123.471C96.8759 123.418 96.9035 123.328 96.9784 123.27C97.0534 123.212 97.1474 123.207 97.1883 123.259L98.9654 125.542C99.0063 125.594 98.9787 125.684 98.9037 125.742Z" fill="#282A36"/>
<path d="M99.9357 124.939C99.8607 124.997 99.7667 125.002 99.7258 124.949L97.9487 122.667C97.9078 122.615 97.9354 122.525 98.0104 122.467C98.0853 122.408 98.1793 122.403 98.2202 122.456L99.9974 124.738C100.038 124.79 100.011 124.88 99.9357 124.939Z" fill="#282A36"/>
<path d="M102 123.331C101.925 123.389 101.831 123.394 101.79 123.342L100.013 121.06C99.9722 121.007 99.9998 120.917 100.075 120.859C100.15 120.801 100.244 120.796 100.285 120.848L102.062 123.13C102.103 123.183 102.075 123.273 102 123.331Z" fill="#282A36"/>
<path d="M103.031 122.528C102.956 122.586 102.862 122.591 102.822 122.539L101.044 120.257C101.003 120.204 101.031 120.114 101.106 120.056C101.181 119.997 101.275 119.993 101.316 120.045L103.093 122.327C103.134 122.38 103.107 122.469 103.031 122.528Z" fill="#282A36"/>
<path d="M104.063 121.724C103.988 121.783 103.894 121.787 103.854 121.735L102.076 119.453C102.036 119.4 102.063 119.31 102.138 119.252C102.213 119.194 102.307 119.189 102.348 119.241L104.125 121.523C104.166 121.576 104.138 121.666 104.063 121.724Z" fill="#282A36"/>
<path d="M105.095 120.921C105.02 120.979 104.926 120.984 104.886 120.931L103.108 118.649C103.067 118.597 103.095 118.507 103.17 118.448C103.245 118.39 103.339 118.385 103.38 118.438L105.157 120.72C105.198 120.772 105.17 120.862 105.095 120.921Z" fill="#282A36"/>
<path d="M107.905 122.399C107.83 122.457 107.736 122.462 107.695 122.409L104.141 117.845C104.1 117.793 104.128 117.703 104.203 117.644C104.277 117.586 104.371 117.581 104.412 117.634L107.967 122.198C108.008 122.25 107.98 122.34 107.905 122.399Z" fill="#282A36"/>
<path d="M107.16 119.313C107.085 119.371 106.991 119.376 106.95 119.324L105.173 117.041C105.132 116.989 105.16 116.899 105.234 116.841C105.309 116.782 105.403 116.778 105.444 116.83L107.221 119.112C107.262 119.165 107.235 119.255 107.16 119.313Z" fill="#282A36"/>
<path d="M108.191 118.51C108.116 118.568 108.022 118.573 107.981 118.52L106.204 116.238C106.163 116.186 106.191 116.096 106.266 116.037C106.341 115.979 106.435 115.974 106.476 116.027L108.253 118.309C108.294 118.361 108.267 118.451 108.191 118.51Z" fill="#282A36"/>
<path d="M109.223 117.706C109.148 117.764 109.054 117.769 109.013 117.717L107.236 115.435C107.195 115.382 107.223 115.292 107.298 115.234C107.373 115.176 107.467 115.171 107.508 115.223L109.285 117.505C109.326 117.558 109.298 117.648 109.223 117.706Z" fill="#282A36"/>
<path d="M110.255 116.903C110.18 116.961 110.086 116.966 110.045 116.913L108.268 114.631C108.227 114.579 108.255 114.489 108.33 114.43C108.405 114.372 108.499 114.367 108.54 114.42L110.317 116.702C110.358 116.754 110.33 116.844 110.255 116.903Z" fill="#282A36"/>
<path d="M112.319 115.295C112.245 115.353 112.151 115.358 112.11 115.305L110.332 113.023C110.292 112.971 110.319 112.881 110.394 112.822C110.469 112.764 110.563 112.759 110.604 112.812L112.381 115.094C112.422 115.146 112.394 115.236 112.319 115.295Z" fill="#282A36"/>
<path d="M113.351 114.492C113.276 114.55 113.182 114.555 113.141 114.502L111.364 112.22C111.323 112.168 111.35 112.078 111.425 112.019C111.5 111.961 111.594 111.956 111.635 112.009L113.412 114.291C113.453 114.343 113.426 114.433 113.351 114.492Z" fill="#282A36"/>
<path d="M114.383 113.688C114.308 113.746 114.214 113.751 114.173 113.699L112.396 111.416C112.355 111.364 112.383 111.274 112.458 111.216C112.532 111.157 112.626 111.153 112.667 111.205L114.444 113.487C114.485 113.54 114.458 113.63 114.383 113.688Z" fill="#282A36"/>
<path d="M115.415 112.884C115.34 112.943 115.246 112.947 115.205 112.895L113.428 110.613C113.387 110.56 113.414 110.47 113.489 110.412C113.564 110.354 113.658 110.349 113.699 110.401L115.476 112.684C115.517 112.736 115.49 112.826 115.415 112.884Z" fill="#282A36"/>
<path d="M118.224 114.362C118.149 114.421 118.055 114.425 118.015 114.373L114.46 109.809C114.419 109.756 114.447 109.666 114.522 109.608C114.597 109.55 114.691 109.545 114.732 109.597L118.286 114.162C118.327 114.214 118.299 114.304 118.224 114.362Z" fill="#282A36"/>
<path d="M117.479 111.277C117.404 111.335 117.31 111.34 117.269 111.288L115.492 109.006C115.451 108.953 115.478 108.863 115.553 108.805C115.628 108.746 115.722 108.742 115.763 108.794L117.54 111.076C117.581 111.129 117.554 111.218 117.479 111.277Z" fill="#282A36"/>
<path d="M118.511 110.473C118.436 110.532 118.342 110.537 118.301 110.484L116.524 108.202C116.483 108.15 116.51 108.06 116.585 108.001C116.66 107.943 116.754 107.938 116.795 107.991L118.572 110.273C118.613 110.325 118.586 110.415 118.511 110.473Z" fill="#282A36"/>
<path d="M119.542 109.67C119.468 109.728 119.374 109.733 119.333 109.68L117.555 107.398C117.515 107.346 117.542 107.256 117.617 107.197C117.692 107.139 117.786 107.134 117.827 107.187L119.604 109.469C119.645 109.521 119.617 109.611 119.542 109.67Z" fill="#282A36"/>
<path d="M120.574 108.866C120.499 108.925 120.405 108.929 120.365 108.877L118.587 106.595C118.547 106.542 118.574 106.452 118.649 106.394C118.724 106.336 118.818 106.331 118.859 106.383L120.636 108.665C120.677 108.718 120.649 108.808 120.574 108.866Z" fill="#282A36"/>
<path d="M122.638 107.259C122.563 107.317 122.469 107.322 122.428 107.269L120.651 104.987C120.61 104.935 120.638 104.845 120.713 104.787C120.788 104.728 120.882 104.723 120.923 104.776L122.7 107.058C122.741 107.111 122.714 107.2 122.638 107.259Z" fill="#282A36"/>
<path d="M123.67 106.455C123.595 106.514 123.501 106.519 123.46 106.466L121.683 104.184C121.642 104.131 121.67 104.042 121.745 103.983C121.82 103.925 121.914 103.92 121.955 103.972L123.732 106.255C123.773 106.307 123.746 106.397 123.67 106.455Z" fill="#282A36"/>
<path d="M124.702 105.652C124.627 105.71 124.533 105.715 124.492 105.662L122.715 103.38C122.674 103.328 122.702 103.238 122.777 103.179C122.852 103.121 122.946 103.116 122.987 103.169L124.764 105.451C124.805 105.503 124.777 105.593 124.702 105.652Z" fill="#282A36"/>
<path d="M125.734 104.848C125.659 104.906 125.565 104.911 125.524 104.859L123.747 102.577C123.706 102.524 123.734 102.434 123.809 102.376C123.884 102.317 123.978 102.313 124.019 102.365L125.796 104.647C125.837 104.7 125.809 104.79 125.734 104.848Z" fill="#282A36"/>
<path d="M128.544 106.326C128.469 106.384 128.375 106.389 128.334 106.337L124.78 101.772C124.739 101.72 124.766 101.63 124.841 101.572C124.916 101.513 125.01 101.509 125.051 101.561L128.605 106.125C128.646 106.178 128.619 106.268 128.544 106.326Z" fill="#282A36"/>
<path d="M127.798 103.241C127.723 103.299 127.629 103.304 127.588 103.251L125.811 100.969C125.77 100.917 125.798 100.827 125.873 100.769C125.948 100.71 126.042 100.705 126.083 100.758L127.86 103.04C127.901 103.092 127.873 103.182 127.798 103.241Z" fill="#282A36"/>
<path d="M128.83 102.437C128.755 102.495 128.661 102.5 128.62 102.448L126.843 100.166C126.802 100.113 126.83 100.023 126.905 99.9648C126.98 99.9065 127.074 99.9017 127.114 99.9542L128.892 102.236C128.933 102.289 128.905 102.378 128.83 102.437Z" fill="#282A36"/>
<path d="M129.862 101.633C129.787 101.692 129.693 101.697 129.652 101.644L127.875 99.3621C127.834 99.3096 127.862 99.2196 127.937 99.1612C128.012 99.1029 128.105 99.0981 128.146 99.1506L129.924 101.433C129.964 101.485 129.937 101.575 129.862 101.633Z" fill="#282A36"/>
<path d="M130.894 100.83C130.819 100.888 130.725 100.893 130.684 100.84L128.907 98.5583C128.866 98.5059 128.894 98.4159 128.969 98.3575C129.043 98.2992 129.137 98.2944 129.178 98.3469L130.955 100.629C130.996 100.681 130.969 100.771 130.894 100.83Z" fill="#282A36"/>
<path d="M132.958 99.2226C132.883 99.281 132.789 99.2857 132.748 99.2332L130.971 96.9512C130.93 96.8987 130.957 96.8087 131.032 96.7504C131.107 96.692 131.201 96.6872 131.242 96.7397L133.019 99.0218C133.06 99.0743 133.033 99.1638 132.958 99.2226Z" fill="#282A36"/>
<path d="M133.989 98.419C133.915 98.4774 133.821 98.4821 133.78 98.4296L132.002 96.1476C131.962 96.0951 131.989 96.0051 132.064 95.9468C132.139 95.8884 132.233 95.8836 132.274 95.9361L134.051 98.2182C134.092 98.2707 134.065 98.3602 133.989 98.419Z" fill="#282A36"/>
<path d="M135.022 97.6153C134.947 97.6737 134.853 97.6784 134.812 97.6259L133.035 95.3439C132.994 95.2914 133.021 95.2014 133.096 95.1431C133.171 95.0847 133.265 95.0799 133.306 95.1324L135.083 97.4145C135.124 97.467 135.096 97.5569 135.022 97.6153Z" fill="#282A36"/>
<path d="M136.053 96.8117C135.979 96.8701 135.885 96.8748 135.844 96.8223L134.066 94.5403C134.026 94.4878 134.053 94.3978 134.128 94.3395C134.203 94.2811 134.297 94.2763 134.338 94.3288L136.115 96.6109C136.156 96.6634 136.128 96.7533 136.053 96.8117Z" fill="#282A36"/>
<path d="M138.863 98.2897C138.788 98.3481 138.694 98.3528 138.653 98.3003L135.099 93.7362C135.058 93.6837 135.086 93.5937 135.161 93.5354C135.236 93.477 135.33 93.4723 135.37 93.5247L138.925 98.0889C138.966 98.1414 138.938 98.2313 138.863 98.2897Z" fill="#282A36"/>
<path d="M138.117 95.2044C138.042 95.2628 137.948 95.2675 137.908 95.215L136.13 92.933C136.089 92.8805 136.117 92.7905 136.192 92.7322C136.267 92.6738 136.361 92.669 136.402 92.7215L138.179 95.0036C138.22 95.0561 138.193 95.1456 138.117 95.2044Z" fill="#282A36"/>
<path d="M139.149 94.4008C139.074 94.4592 138.98 94.4639 138.939 94.4115L137.162 92.1294C137.121 92.0769 137.149 91.9869 137.224 91.9286C137.299 91.8702 137.393 91.8654 137.434 91.9179L139.211 94.2C139.252 94.2525 139.225 94.342 139.149 94.4008Z" fill="#282A36"/>
<path d="M140.181 93.5972C140.106 93.6556 140.012 93.6604 139.971 93.6079L138.194 91.3258C138.153 91.2733 138.181 91.1833 138.256 91.125C138.331 91.0666 138.425 91.0619 138.466 91.1143L140.243 93.3964C140.284 93.4489 140.256 93.5389 140.181 93.5972Z" fill="#282A36"/>
<path d="M141.213 92.7935C141.138 92.8519 141.044 92.8566 141.003 92.8042L139.226 90.5221C139.185 90.4696 139.213 90.3796 139.288 90.3213C139.363 90.2629 139.457 90.2581 139.498 90.3106L141.275 92.5927C141.316 92.6452 141.288 92.7352 141.213 92.7935Z" fill="#282A36"/>
<path d="M143.277 91.1862C143.202 91.2446 143.108 91.2493 143.067 91.1969L141.29 88.9148C141.249 88.8623 141.277 88.7723 141.352 88.714C141.427 88.6556 141.521 88.6508 141.562 88.7033L143.339 90.9854C143.38 91.0379 143.353 91.1274 143.277 91.1862Z" fill="#282A36"/>
<path d="M144.309 90.3826C144.234 90.441 144.14 90.4458 144.099 90.3933L142.322 88.1112C142.281 88.0587 142.309 87.9687 142.384 87.9104C142.459 87.852 142.553 87.8473 142.593 87.8997L144.371 90.1818C144.411 90.2343 144.384 90.3238 144.309 90.3826Z" fill="#282A36"/>
<path d="M145.341 89.5789C145.266 89.6373 145.172 89.642 145.131 89.5896L143.354 87.3075C143.313 87.255 143.341 87.165 143.416 87.1067C143.491 87.0483 143.585 87.0435 143.625 87.096L145.403 89.3781C145.444 89.4306 145.416 89.5206 145.341 89.5789Z" fill="#282A36"/>
<path d="M146.373 88.7753C146.298 88.8337 146.204 88.8385 146.163 88.786L144.386 86.5039C144.345 86.4514 144.373 86.3614 144.448 86.3031C144.523 86.2447 144.617 86.24 144.657 86.2924L146.435 88.5745C146.475 88.627 146.448 88.717 146.373 88.7753Z" fill="#282A36"/>
<path d="M149.183 90.2533C149.108 90.3117 149.014 90.3164 148.973 90.264L145.418 85.6998C145.377 85.6473 145.405 85.5574 145.48 85.499C145.555 85.4406 145.649 85.4359 145.69 85.4884L149.244 90.0525C149.285 90.105 149.257 90.195 149.183 90.2533Z" fill="#282A36"/>
<path d="M148.437 87.168C148.362 87.2264 148.268 87.2312 148.227 87.1787L146.45 84.8966C146.409 84.8441 146.437 84.7541 146.511 84.6958C146.586 84.6374 146.68 84.6327 146.721 84.6851L148.498 86.9672C148.539 87.0197 148.512 87.1092 148.437 87.168Z" fill="#282A36"/>
<path d="M149.469 86.3644C149.394 86.4228 149.3 86.4276 149.259 86.3751L147.482 84.093C147.441 84.0405 147.468 83.9506 147.543 83.8922C147.618 83.8338 147.712 83.8291 147.753 83.8816L149.53 86.1636C149.571 86.2161 149.544 86.3057 149.469 86.3644Z" fill="#282A36"/>
<path d="M150.501 85.5608C150.426 85.6192 150.332 85.624 150.291 85.5715L148.514 83.2894C148.473 83.2369 148.5 83.147 148.575 83.0886C148.65 83.0302 148.744 83.0255 148.785 83.078L150.562 85.36C150.603 85.4125 150.576 85.5025 150.501 85.5608Z" fill="#282A36"/>
<path d="M151.533 84.7571C151.458 84.8155 151.364 84.8203 151.323 84.7678L149.546 82.4857C149.505 82.4332 149.532 82.3433 149.607 82.2849C149.682 82.2265 149.776 82.2218 149.817 82.2743L151.594 84.5563C151.635 84.6088 151.607 84.6988 151.533 84.7571Z" fill="#282A36"/>
<path d="M153.596 83.15C153.521 83.2083 153.427 83.2131 153.387 83.1606L151.609 80.8785C151.569 80.826 151.596 80.7361 151.671 80.6777C151.746 80.6194 151.84 80.6146 151.881 80.6671L153.658 82.9491C153.699 83.0016 153.672 83.0912 153.596 83.15Z" fill="#282A36"/>
<path d="M154.628 82.3465C154.553 82.4049 154.459 82.4096 154.418 82.3571L152.641 80.0751C152.6 80.0226 152.628 79.9326 152.703 79.8743C152.778 79.8159 152.872 79.8111 152.913 79.8636L154.69 82.1457C154.731 82.1982 154.704 82.2877 154.628 82.3465Z" fill="#282A36"/>
<path d="M155.66 81.5428C155.585 81.6011 155.491 81.6059 155.45 81.5534L153.673 79.2714C153.632 79.2189 153.66 79.1289 153.735 79.0705C153.81 79.0122 153.904 79.0074 153.945 79.0599L155.722 81.342C155.763 81.3945 155.735 81.4844 155.66 81.5428Z" fill="#282A36"/>
<path d="M156.692 80.7391C156.617 80.7974 156.523 80.8022 156.482 80.7497L154.705 78.4676C154.664 78.4152 154.692 78.3252 154.767 78.2668C154.842 78.2085 154.936 78.2037 154.977 78.2562L156.754 80.5383C156.795 80.5907 156.767 80.6807 156.692 80.7391Z" fill="#282A36"/>
<path d="M159.502 82.2171C159.427 82.2754 159.333 82.2802 159.292 82.2277L155.738 77.6636C155.697 77.6111 155.724 77.5211 155.799 77.4628C155.874 77.4044 155.968 77.3996 156.009 77.4521L159.564 82.0162C159.604 82.0687 159.577 82.1587 159.502 82.2171Z" fill="#282A36"/>
<path d="M158.756 79.1319C158.681 79.1903 158.587 79.195 158.546 79.1425L156.769 76.8605C156.728 76.808 156.756 76.718 156.831 76.6597C156.906 76.6013 157 76.5965 157.041 76.649L158.818 78.9311C158.859 78.9836 158.832 79.0731 158.756 79.1319Z" fill="#282A36"/>
<path d="M159.788 78.3282C159.713 78.3865 159.619 78.3913 159.578 78.3388L157.801 76.0568C157.76 76.0043 157.788 75.9143 157.863 75.8559C157.938 75.7976 158.032 75.7928 158.073 75.8453L159.85 78.1274C159.891 78.1799 159.864 78.2694 159.788 78.3282Z" fill="#282A36"/>
<path d="M160.82 77.5246C160.745 77.583 160.651 77.5877 160.61 77.5352L158.833 75.2532C158.792 75.2007 158.82 75.1107 158.895 75.0524C158.97 74.994 159.064 74.9892 159.105 75.0417L160.882 77.3238C160.923 77.3763 160.895 77.4662 160.82 77.5246Z" fill="#282A36"/>
<path d="M161.852 76.7209C161.777 76.7792 161.683 76.784 161.642 76.7315L159.865 74.4495C159.824 74.397 159.852 74.307 159.927 74.2486C160.002 74.1903 160.096 74.1855 160.136 74.238L161.914 76.5201C161.955 76.5726 161.927 76.6625 161.852 76.7209Z" fill="#282A36"/>
<path d="M163.916 75.1137C163.841 75.1721 163.747 75.1768 163.706 75.1243L161.929 72.8423C161.888 72.7898 161.916 72.6998 161.991 72.6415C162.065 72.5831 162.159 72.5783 162.2 72.6308L163.978 74.9129C164.018 74.9654 163.991 75.0549 163.916 75.1137Z" fill="#282A36"/>
<path d="M164.948 74.3101C164.873 74.3685 164.779 74.3732 164.738 74.3208L162.961 72.0387C162.92 71.9862 162.947 71.8962 163.022 71.8379C163.097 71.7795 163.191 71.7747 163.232 71.8272L165.009 74.1093C165.05 74.1618 165.023 74.2513 164.948 74.3101Z" fill="#282A36"/>
<path d="M165.98 73.5064C165.905 73.5648 165.811 73.5695 165.77 73.517L163.993 71.235C163.952 71.1825 163.979 71.0925 164.054 71.0342C164.129 70.9758 164.223 70.971 164.264 71.0235L166.041 73.3056C166.082 73.3581 166.055 73.448 165.98 73.5064Z" fill="#282A36"/>
<path d="M167.012 72.7028C166.937 72.7612 166.843 72.7659 166.802 72.7135L165.025 70.4314C164.984 70.3789 165.011 70.2889 165.086 70.2306C165.161 70.1722 165.255 70.1674 165.296 70.2199L167.073 72.502C167.114 72.5545 167.087 72.6445 167.012 72.7028Z" fill="#282A36"/>
<path d="M169.821 74.1808C169.746 74.2392 169.652 74.2439 169.611 74.1914L166.057 69.6273C166.016 69.5748 166.044 69.4849 166.119 69.4265C166.194 69.3681 166.288 69.3634 166.329 69.4159L169.883 73.98C169.924 74.0325 169.896 74.1224 169.821 74.1808Z" fill="#282A36"/>
<path d="M169.075 71.0955C169.001 71.1539 168.907 71.1586 168.866 71.1062L167.088 68.8241C167.048 68.7716 167.075 68.6816 167.15 68.6233C167.225 68.5649 167.319 68.5601 167.36 68.6126L169.137 70.8947C169.178 70.9472 169.151 71.0367 169.075 71.0955Z" fill="#282A36"/>
<path d="M170.107 70.2919C170.032 70.3503 169.938 70.3551 169.898 70.3026L168.12 68.0205C168.08 67.968 168.107 67.878 168.182 67.8197C168.257 67.7613 168.351 67.7566 168.392 67.809L170.169 70.0911C170.21 70.1436 170.183 70.2331 170.107 70.2919Z" fill="#282A36"/>
<path d="M171.139 69.4883C171.064 69.5467 170.97 69.5515 170.93 69.499L169.152 67.2169C169.111 67.1644 169.139 67.0745 169.214 67.0161C169.289 66.9577 169.383 66.953 169.424 67.0055L171.201 69.2875C171.242 69.34 171.214 69.43 171.139 69.4883Z" fill="#282A36"/>
<path d="M172.171 68.6846C172.096 68.743 172.002 68.7478 171.961 68.6953L170.184 66.4132C170.143 66.3607 170.171 66.2707 170.246 66.2124C170.321 66.154 170.415 66.1493 170.456 66.2017L172.233 68.4838C172.274 68.5363 172.246 68.6263 172.171 68.6846Z" fill="#282A36"/>
<path d="M174.235 67.0773C174.16 67.1357 174.066 67.1405 174.025 67.088L172.248 64.8059C172.207 64.7534 172.235 64.6634 172.31 64.6051C172.385 64.5467 172.479 64.542 172.52 64.5944L174.297 66.8765C174.338 66.929 174.311 67.0185 174.235 67.0773Z" fill="#282A36"/>
<path d="M175.267 66.2737C175.192 66.3321 175.098 66.3369 175.057 66.2844L173.28 64.0023C173.239 63.9498 173.267 63.8599 173.342 63.8015C173.417 63.7431 173.511 63.7384 173.552 63.7909L175.329 66.0729C175.37 66.1254 175.342 66.215 175.267 66.2737Z" fill="#282A36"/>
<path d="M176.299 65.47C176.224 65.5284 176.13 65.5332 176.089 65.4807L174.312 63.1986C174.271 63.1461 174.299 63.0561 174.374 62.9978C174.449 62.9394 174.543 62.9347 174.584 62.9871L176.361 65.2692C176.402 65.3217 176.374 65.4117 176.299 65.47Z" fill="#282A36"/>
<path d="M177.332 64.6661C177.257 64.7244 177.163 64.7292 177.122 64.6767L175.345 62.3946C175.304 62.3422 175.331 62.2522 175.406 62.1938C175.481 62.1355 175.575 62.1307 175.616 62.1832L177.393 64.4653C177.434 64.5177 177.406 64.6081 177.332 64.6661Z" fill="#282A36"/>
<path d="M180.14 66.1449C180.065 66.2033 179.971 66.208 179.93 66.1556L176.376 61.5914C176.335 61.5389 176.363 61.449 176.438 61.3906C176.513 61.3322 176.607 61.3275 176.647 61.38L180.202 65.9441C180.243 65.9966 180.215 66.0866 180.14 66.1449Z" fill="#282A36"/>
<path d="M179.395 63.0591C179.32 63.1175 179.226 63.1223 179.185 63.0698L177.408 60.7877C177.367 60.7352 177.395 60.6453 177.47 60.5869C177.545 60.5285 177.639 60.5238 177.679 60.5763L179.457 62.8583C179.497 62.9108 179.47 63.0008 179.395 63.0591Z" fill="#282A36"/>
<path d="M180.427 62.2555C180.352 62.3139 180.258 62.3187 180.217 62.2662L178.44 59.9841C178.399 59.9316 178.427 59.8417 178.502 59.7833C178.576 59.7249 178.67 59.7202 178.711 59.7727L180.489 62.0547C180.529 62.1072 180.502 62.1972 180.427 62.2555Z" fill="#282A36"/>
<path d="M181.459 61.452C181.384 61.5103 181.29 61.5151 181.249 61.4626L179.472 59.1805C179.431 59.128 179.459 59.0381 179.533 58.9797C179.608 58.9214 179.702 58.9166 179.743 58.9691L181.52 61.2511C181.561 61.3036 181.534 61.3936 181.459 61.452Z" fill="#282A36"/>
<path d="M182.491 60.6479C182.416 60.7062 182.322 60.711 182.281 60.6585L180.504 58.3765C180.463 58.324 180.491 58.234 180.566 58.1756C180.641 58.1173 180.735 58.1125 180.776 58.165L182.553 60.4471C182.594 60.4996 182.566 60.5899 182.491 60.6479Z" fill="#282A36"/>
<path d="M184.555 59.0411C184.48 59.0994 184.386 59.1042 184.345 59.0517L182.568 56.7696C182.527 56.7172 182.554 56.6272 182.629 56.5688C182.704 56.5105 182.798 56.5057 182.839 56.5582L184.616 58.8403C184.657 58.8927 184.629 58.9827 184.555 59.0411Z" fill="#282A36"/>
<path d="M185.586 58.2376C185.511 58.296 185.417 58.3007 185.377 58.2482L183.599 55.9662C183.558 55.9137 183.586 55.8237 183.661 55.7654C183.736 55.707 183.83 55.7022 183.871 55.7547L185.648 58.0368C185.689 58.0893 185.661 58.1792 185.586 58.2376Z" fill="#282A36"/>
<path d="M186.618 57.4339C186.543 57.4923 186.449 57.497 186.409 57.4445L184.631 55.1625C184.591 55.11 184.618 55.02 184.693 54.9617C184.768 54.9033 184.862 54.8985 184.903 54.951L186.68 57.2331C186.721 57.2856 186.693 57.3755 186.618 57.4339Z" fill="#282A36"/>
<path d="M187.651 56.6298C187.576 56.6882 187.482 56.6929 187.441 56.6405L185.664 54.3584C185.623 54.3059 185.651 54.2159 185.726 54.1576C185.801 54.0992 185.895 54.0944 185.935 54.1469L187.713 56.429C187.753 56.4815 187.725 56.5719 187.651 56.6298Z" fill="#282A36"/>
<path d="M190.459 58.1087C190.385 58.167 190.291 58.1718 190.25 58.1193L186.695 53.5552C186.654 53.5027 186.682 53.4127 186.757 53.3544C186.832 53.296 186.926 53.2912 186.967 53.3437L190.521 57.9078C190.562 57.9603 190.534 58.0503 190.459 58.1087Z" fill="#282A36"/>
<path d="M189.714 55.0229C189.639 55.0812 189.545 55.086 189.504 55.0335L187.727 52.7515C187.686 52.699 187.714 52.609 187.789 52.5506C187.864 52.4923 187.958 52.4875 187.999 52.54L189.776 54.8221C189.817 54.8746 189.789 54.9645 189.714 55.0229Z" fill="#282A36"/>
<path d="M190.746 54.2193C190.671 54.2777 190.577 54.2824 190.536 54.2299L188.759 51.9479C188.718 51.8954 188.746 51.8054 188.821 51.7471C188.896 51.6887 188.99 51.6839 189.031 51.7364L190.808 54.0185C190.849 54.071 190.821 54.1609 190.746 54.2193Z" fill="#282A36"/>
<path d="M191.778 53.4157C191.703 53.4741 191.609 53.4788 191.568 53.4263L189.791 51.1443C189.75 51.0918 189.778 51.0018 189.853 50.9435C189.928 50.8851 190.022 50.8803 190.063 50.9328L191.84 53.2149C191.881 53.2674 191.853 53.3573 191.778 53.4157Z" fill="#282A36"/>
<path d="M192.811 52.6116C192.736 52.67 192.642 52.6748 192.601 52.6223L190.824 50.3402C190.783 50.2877 190.81 50.1978 190.885 50.1394C190.96 50.081 191.054 50.0763 191.095 50.1287L192.872 52.4108C192.913 52.4633 192.885 52.5537 192.811 52.6116Z" fill="#282A36"/>
<path d="M194.874 51.0043C194.8 51.0627 194.706 51.0675 194.665 51.015L192.887 48.7329C192.847 48.6804 192.874 48.5905 192.949 48.5321C193.024 48.4737 193.118 48.469 193.159 48.5214L194.936 50.8035C194.977 50.856 194.949 50.9464 194.874 51.0043Z" fill="#282A36"/>
<path d="M195.906 50.2012C195.831 50.2596 195.737 50.2644 195.696 50.2119L193.919 47.9298C193.878 47.8773 193.906 47.7874 193.98 47.729C194.055 47.6706 194.149 47.6659 194.19 47.7183L195.967 50.0004C196.008 50.0529 195.981 50.1429 195.906 50.2012Z" fill="#282A36"/>
<path d="M196.938 49.3974C196.863 49.4558 196.769 49.4605 196.728 49.408L194.951 47.126C194.91 47.0735 194.938 46.9835 195.013 46.9252C195.087 46.8668 195.181 46.862 195.222 46.9145L197 49.1966C197.04 49.2491 197.013 49.339 196.938 49.3974Z" fill="#282A36"/>
<path d="M197.97 48.5934C197.895 48.6518 197.801 48.6566 197.76 48.6041L195.983 46.322C195.942 46.2695 195.97 46.1796 196.045 46.1212C196.12 46.0628 196.214 46.0581 196.255 46.1106L198.032 48.3926C198.073 48.4451 198.045 48.5355 197.97 48.5934Z" fill="#282A36"/>
<path d="M200.779 50.0723C200.704 50.1306 200.61 50.1354 200.569 50.0829L197.015 45.5188C196.974 45.4663 197.001 45.3763 197.076 45.318C197.151 45.2596 197.245 45.2548 197.286 45.3073L200.841 49.8715C200.881 49.924 200.854 50.0139 200.779 50.0723Z" fill="#282A36"/>
<path d="M200.034 46.9866C199.959 47.045 199.865 47.0498 199.824 46.9973L198.047 44.7152C198.006 44.6627 198.033 44.5728 198.108 44.5144C198.183 44.456 198.277 44.4513 198.318 44.5037L200.095 46.7858C200.136 46.8383 200.109 46.9283 200.034 46.9866Z" fill="#282A36"/>
<path d="M201.066 46.1829C200.991 46.2413 200.897 46.246 200.856 46.1936L199.079 43.9115C199.038 43.859 199.065 43.769 199.14 43.7107C199.215 43.6523 199.309 43.6475 199.35 43.7L201.127 45.9821C201.168 46.0346 201.141 46.1246 201.066 46.1829Z" fill="#282A36"/>
<path d="M202.097 45.3793C202.023 45.4377 201.929 45.4425 201.888 45.39L200.111 43.1079C200.07 43.0554 200.097 42.9655 200.172 42.9071C200.247 42.8487 200.341 42.844 200.382 42.8964L202.159 45.1785C202.2 45.231 202.172 45.321 202.097 45.3793Z" fill="#282A36"/>
<path d="M203.13 44.5753C203.055 44.6336 202.961 44.6384 202.92 44.5859L201.143 42.3038C201.102 42.2513 201.13 42.1614 201.205 42.103C201.28 42.0447 201.374 42.0399 201.415 42.0924L203.192 44.3744C203.233 44.4269 203.204 44.5173 203.13 44.5753Z" fill="#282A36"/>
<path d="M205.193 42.9684C205.118 43.0268 205.024 43.0316 204.983 42.9791L203.206 40.697C203.165 40.6445 203.193 40.5546 203.268 40.4962C203.343 40.4378 203.437 40.4331 203.478 40.4856L205.255 42.7676C205.296 42.8201 205.268 42.9101 205.193 42.9684Z" fill="#282A36"/>
<path d="M206.225 42.165C206.15 42.2233 206.056 42.2281 206.015 42.1756L204.238 39.8935C204.197 39.8411 204.225 39.7511 204.3 39.6927C204.375 39.6344 204.469 39.6296 204.51 39.6821L206.287 41.9642C206.328 42.0166 206.3 42.1066 206.225 42.165Z" fill="#282A36"/>
<path d="M207.257 41.3613C207.182 41.4196 207.088 41.4244 207.047 41.3719L205.27 39.0898C205.229 39.0373 205.257 38.9474 205.332 38.889C205.407 38.8307 205.501 38.8259 205.542 38.8784L207.319 41.1604C207.36 41.2129 207.332 41.3029 207.257 41.3613Z" fill="#282A36"/>
<path d="M208.29 40.5571C208.215 40.6154 208.121 40.6202 208.08 40.5677L206.303 38.2856C206.262 38.2332 206.289 38.1432 206.364 38.0848C206.439 38.0265 206.533 38.0217 206.574 38.0742L208.351 40.3562C208.392 40.4087 208.364 40.4991 208.29 40.5571Z" fill="#282A36"/>
<path d="M211.098 42.036C211.023 42.0944 210.929 42.0992 210.888 42.0467L207.334 37.4825C207.293 37.43 207.321 37.3401 207.396 37.2817C207.471 37.2234 207.565 37.2186 207.606 37.2711L211.16 41.8352C211.201 41.8877 211.173 41.9777 211.098 42.036Z" fill="#282A36"/>
<path d="M210.353 38.9503C210.278 39.0086 210.184 39.0134 210.143 38.9609L208.366 36.6788C208.325 36.6263 208.353 36.5364 208.428 36.478C208.503 36.4197 208.597 36.4149 208.638 36.4674L210.415 38.7494C210.456 38.8019 210.428 38.8919 210.353 38.9503Z" fill="#282A36"/>
<path d="M211.385 38.1467C211.31 38.205 211.216 38.2098 211.175 38.1573L209.398 35.8752C209.357 35.8227 209.385 35.7328 209.46 35.6744C209.535 35.6161 209.629 35.6113 209.669 35.6638L211.447 37.9458C211.488 37.9983 211.46 38.0883 211.385 38.1467Z" fill="#282A36"/>
<path d="M212.417 37.3431C212.342 37.4014 212.248 37.4062 212.207 37.3537L210.43 35.0716C210.389 35.0192 210.417 34.9292 210.492 34.8708C210.567 34.8125 210.661 34.8077 210.701 34.8602L212.479 37.1423C212.519 37.1947 212.492 37.2847 212.417 37.3431Z" fill="#282A36"/>
<path d="M213.449 36.539C213.374 36.5974 213.28 36.6021 213.24 36.5496L211.462 34.2676C211.421 34.2151 211.449 34.1251 211.524 34.0668C211.599 34.0084 211.693 34.0036 211.734 34.0561L213.511 36.3382C213.552 36.3907 213.524 36.4811 213.449 36.539Z" fill="#282A36"/>
<path d="M215.513 34.9322C215.438 34.9905 215.344 34.9953 215.303 34.9428L213.526 32.6608C213.485 32.6083 213.512 32.5183 213.587 32.4599C213.662 32.4016 213.756 32.3968 213.797 32.4493L215.574 34.7314C215.615 34.7839 215.588 34.8738 215.513 34.9322Z" fill="#282A36"/>
<path d="M216.545 34.1285C216.47 34.1868 216.376 34.1916 216.335 34.1391L214.558 31.857C214.517 31.8046 214.544 31.7146 214.619 31.6562C214.694 31.5979 214.788 31.5931 214.829 31.6456L216.606 33.9277C216.647 33.9801 216.62 34.0701 216.545 34.1285Z" fill="#282A36"/>
<path d="M217.577 33.3249C217.502 33.3832 217.408 33.388 217.367 33.3355L215.59 31.0535C215.549 31.001 215.576 30.911 215.651 30.8526C215.726 30.7943 215.82 30.7895 215.861 30.842L217.638 33.1241C217.679 33.1766 217.652 33.2665 217.577 33.3249Z" fill="#282A36"/>
<path d="M218.609 32.5208C218.534 32.5792 218.44 32.5839 218.399 32.5314L216.622 30.2494C216.581 30.1969 216.609 30.1069 216.684 30.0486C216.759 29.9902 216.853 29.9854 216.894 30.0379L218.671 32.32C218.712 32.3725 218.683 32.4629 218.609 32.5208Z" fill="#282A36"/>
<path d="M221.418 33.9997C221.343 34.058 221.249 34.0628 221.208 34.0103L217.653 29.4462C217.613 29.3937 217.64 29.3037 217.715 29.2453C217.79 29.187 217.884 29.1822 217.925 29.2347L221.479 33.7988C221.52 33.8513 221.493 33.9413 221.418 33.9997Z" fill="#282A36"/>
<path d="M220.672 30.914C220.597 30.9724 220.503 30.9771 220.463 30.9246L218.685 28.6426C218.645 28.5901 218.672 28.5001 218.747 28.4418C218.822 28.3834 218.916 28.3786 218.957 28.4311L220.734 30.7132C220.775 30.7657 220.747 30.8556 220.672 30.914Z" fill="#282A36"/>
<path d="M221.704 30.1104C221.629 30.1688 221.535 30.1735 221.495 30.121L219.717 27.839C219.676 27.7865 219.704 27.6965 219.779 27.6382C219.854 27.5798 219.948 27.575 219.989 27.6275L221.766 29.9096C221.807 29.9621 221.779 30.052 221.704 30.1104Z" fill="#282A36"/>
<path d="M222.736 29.3067C222.661 29.3651 222.567 29.3698 222.526 29.3173L220.749 27.0353C220.708 26.9828 220.736 26.8928 220.811 26.8345C220.886 26.7761 220.98 26.7713 221.021 26.8238L222.798 29.1059C222.839 29.1584 222.811 29.2483 222.736 29.3067Z" fill="#282A36"/>
<path d="M223.769 28.5027C223.694 28.5611 223.6 28.5659 223.559 28.5134L221.782 26.2313C221.741 26.1788 221.769 26.0889 221.843 26.0305C221.918 25.9721 222.012 25.9674 222.053 26.0199L223.83 28.3019C223.871 28.3544 223.843 28.4448 223.769 28.5027Z" fill="#282A36"/>
<path d="M72.232 152.894C71.9151 152.487 71.9986 152 72.5791 151.548C73.1656 151.092 73.6569 151.13 73.9742 151.537L75.0425 152.909C75.3592 153.316 75.2795 153.806 74.693 154.263C74.1125 154.715 73.6173 154.673 73.3004 154.266L72.232 152.894ZM73.7331 153.96C73.9197 154.2 74.1789 154.23 74.483 153.993C74.7926 153.752 74.8212 153.498 74.6346 153.258L73.5396 151.852C73.35 151.608 73.0963 151.574 72.7867 151.815C72.4826 152.052 72.4485 152.31 72.6381 152.554L73.7331 153.96Z" fill="#282A36"/>
<path d="M83.3731 143.961C83.279 144.132 83.1299 144.321 82.9352 144.485L82.7456 144.242C83.1495 143.909 83.1692 143.643 83.1218 143.381L83.4151 143.152L85.4876 145.814L85.0694 146.139L83.3731 143.961Z" fill="#282A36"/>
<path d="M94.6197 135.465C95.2441 136.267 94.1827 137.558 94.6541 138.175L94.6864 138.216L95.9349 137.244L96.1452 137.514L94.4791 138.811L94.3014 138.583C93.6323 137.724 94.7887 136.555 94.2052 135.806C93.9923 135.532 93.7494 135.489 93.4344 135.735C93.1254 135.975 93.1108 136.237 93.2944 136.472L93.4778 136.708L93.0813 137.017L92.9128 136.8C92.5962 136.394 92.652 135.916 93.2379 135.46C93.8302 134.999 94.3031 135.059 94.6197 135.465Z" fill="#282A36"/>
<path d="M104.914 127.443L104.967 127.511C105.181 127.785 105.174 128.102 104.932 128.418C105.318 128.252 105.616 128.344 105.823 128.61L105.983 128.815C106.299 129.222 106.235 129.7 105.649 130.156C105.069 130.608 104.59 130.553 104.273 130.146L104.131 129.964L104.527 129.655L104.683 129.857C104.87 130.096 105.124 130.131 105.428 129.894C105.737 129.653 105.763 129.407 105.553 129.137L105.393 128.932C105.189 128.67 104.934 128.667 104.608 128.909L104.379 129.086L104.172 128.82L104.422 128.626C104.698 128.398 104.774 128.137 104.594 127.906L104.499 127.784C104.286 127.51 104.041 127.475 103.732 127.716C103.428 127.953 103.402 128.211 103.589 128.451L103.695 128.587L103.299 128.896L103.205 128.774C102.888 128.367 102.955 127.894 103.535 127.441C104.121 126.985 104.597 127.036 104.914 127.443Z" fill="#282A36"/>
<path d="M116.206 121.031L116.623 121.566L116.21 121.888L115.793 121.352L114.566 122.307L114.356 122.037L114.089 119.265L114.551 118.906L115.996 120.761L116.3 120.524L116.51 120.794L116.206 121.031ZM114.747 121.733L115.583 121.082L114.57 119.782L114.747 121.733Z" fill="#282A36"/>
<path d="M124.631 112.797C124.638 112.559 124.769 112.335 125.024 112.136C125.512 111.756 125.925 111.838 126.221 112.218L126.626 112.739C126.943 113.145 126.874 113.627 126.293 114.08C125.712 114.532 125.234 114.477 124.917 114.07L124.777 113.891L125.174 113.582L125.328 113.78C125.514 114.02 125.768 114.054 126.072 113.818C126.376 113.581 126.404 113.327 126.217 113.087L125.815 112.571C125.629 112.331 125.375 112.297 125.071 112.533C124.838 112.715 124.751 112.929 124.865 113.152L124.912 113.213L124.516 113.521L123.468 111.962L124.965 110.795L125.173 111.061L124.054 111.932L124.631 112.797Z" fill="#282A36"/>
<path d="M135.879 103.322L135.917 103.372L135.521 103.681L135.468 103.612C135.281 103.373 135.031 103.342 134.721 103.583C134.401 103.833 134.372 104.087 134.594 104.372L135.059 104.969C135.02 104.706 135.146 104.443 135.45 104.206C135.938 103.825 136.348 103.904 136.647 104.287L136.961 104.69C137.277 105.097 137.198 105.587 136.617 106.04C136.03 106.497 135.536 106.454 135.219 106.047L134.162 104.69C133.833 104.268 133.901 103.794 134.503 103.325C135.089 102.869 135.562 102.915 135.879 103.322ZM135.346 105.337L135.657 105.736C135.844 105.976 136.097 106.011 136.407 105.769C136.711 105.533 136.745 105.274 136.558 105.035L136.247 104.636C136.061 104.396 135.802 104.366 135.498 104.602C135.188 104.843 135.16 105.098 135.346 105.337Z" fill="#282A36"/>
<path d="M145.473 95.2521L144.181 96.2582L143.974 95.9923L145.694 94.6525L145.896 94.9112L146.79 98.0742L146.367 98.4037L145.473 95.2521Z" fill="#282A36"/>
<path d="M156.54 87.2198L156.606 87.3034C156.816 87.5735 156.834 87.8766 156.597 88.1891C156.98 88.0309 157.263 88.147 157.47 88.4133L157.624 88.6111C157.944 89.0215 157.838 89.5131 157.246 89.9741C156.655 90.4346 156.153 90.4162 155.833 90.0058L155.679 89.808C155.469 89.5384 155.431 89.2438 155.681 88.903C155.306 89.0603 155.025 88.9682 154.815 88.6982L154.749 88.6145C154.43 88.2041 154.546 87.7163 155.132 87.26C155.719 86.8032 156.221 86.8094 156.54 87.2198ZM155.173 88.2969L155.274 88.4262C155.475 88.6849 155.743 88.6598 156.041 88.4272C156.34 88.1946 156.43 87.941 156.229 87.6823L156.128 87.553C155.915 87.2792 155.638 87.2936 155.34 87.5262C155.042 87.7584 154.96 88.0231 155.173 88.2969ZM156.07 89.4486L156.245 89.673C156.458 89.9468 156.732 89.9413 157.036 89.7044C157.34 89.4676 157.408 89.2072 157.2 88.9291L157.025 88.7047C156.824 88.4461 156.563 88.4478 156.248 88.6931C155.934 88.938 155.868 89.19 156.07 89.4486Z" fill="#282A36"/>
<path d="M166.838 79.2186L167.895 80.5753C168.223 80.9971 168.159 81.4752 167.552 81.9484C166.971 82.4005 166.49 82.3537 166.173 81.9468L166.134 81.8973L166.53 81.589L166.584 81.6579C166.77 81.8971 167.026 81.9236 167.33 81.6872C167.656 81.4335 167.684 81.1794 167.465 80.8983L167 80.3016C167.04 80.5637 166.91 80.8233 166.606 81.0601C166.118 81.4403 165.711 81.3665 165.412 80.9831L165.095 80.5765C164.778 80.1695 164.856 79.6872 165.443 79.2305C166.03 78.7737 166.521 78.8116 166.838 79.2186ZM165.503 80.2344L165.813 80.6334C166 80.873 166.259 80.9034 166.563 80.667C166.872 80.4263 166.9 80.1718 166.714 79.9322L166.403 79.5333C166.213 79.2898 165.963 79.2591 165.654 79.4997C165.35 79.7369 165.313 79.9914 165.503 80.2344Z" fill="#282A36"/>
<path d="M175.187 72.4604C175.093 72.6308 174.944 72.8203 174.749 72.9847L174.559 72.7413C174.963 72.4085 174.983 72.1426 174.936 71.8801L175.228 71.6521L177.301 74.3134L176.883 74.639L175.186 72.4608L175.187 72.4604Z" fill="#282A36"/>
<path d="M176.338 71.8206C176.021 71.4137 176.104 70.9271 176.685 70.4746C177.271 70.0183 177.763 70.0566 178.08 70.4639L179.148 71.8358C179.465 72.2424 179.385 72.7328 178.799 73.1891C178.219 73.6412 177.723 73.5995 177.406 73.1925L176.338 71.8206ZM177.839 72.8863C178.026 73.1259 178.285 73.1563 178.589 72.9194C178.898 72.6788 178.927 72.4243 178.74 72.1847L177.645 70.7786C177.456 70.5351 177.202 70.5006 176.893 70.7412C176.589 70.978 176.555 71.2367 176.744 71.4802L177.839 72.8863Z" fill="#282A36"/>
<path d="M185.644 64.3166C185.55 64.487 185.401 64.6765 185.206 64.8409L185.017 64.5975C185.42 64.2647 185.44 63.9988 185.393 63.7363L185.686 63.5083L187.758 66.1696L187.34 66.4948L185.644 64.3166Z" fill="#282A36"/>
<path d="M187.479 62.8874C187.385 63.0578 187.236 63.2473 187.041 63.4117L186.852 63.1683C187.256 62.8355 187.275 62.5696 187.228 62.3071L187.521 62.0791L189.593 64.7404L189.175 65.066L187.479 62.8874Z" fill="#282A36"/>
<path d="M195.83 56.3843C195.736 56.5548 195.587 56.7442 195.392 56.9087L195.202 56.6653C195.606 56.3324 195.626 56.0665 195.579 55.804L195.871 55.5761L197.944 58.2373L197.526 58.563L195.829 56.3848L195.83 56.3843Z" fill="#282A36"/>
<path d="M198.726 54.3917C199.35 55.1935 198.289 56.484 198.761 57.1006L198.793 57.1421L200.042 56.1698L200.252 56.4398L198.586 57.7373L198.408 57.5091C197.739 56.6499 198.895 55.4815 198.311 54.7322C198.099 54.4587 197.856 54.4153 197.541 54.6606C197.232 54.9012 197.218 55.1625 197.401 55.3983L197.585 55.6338L197.188 55.9425L197.02 55.7261C196.703 55.3195 196.758 54.8426 197.344 54.3863C197.936 53.9257 198.409 53.9852 198.726 54.3917Z" fill="#282A36"/>
<path d="M206.149 48.3485C206.055 48.5189 205.906 48.7083 205.711 48.8728L205.521 48.6294C205.925 48.2965 205.945 48.0306 205.897 47.7681L206.19 47.5402L208.263 50.2015L207.844 50.5271L206.149 48.3485Z" fill="#282A36"/>
<path d="M209.021 46.3686L209.074 46.437C209.287 46.7109 209.281 47.0275 209.039 47.3442C209.424 47.1788 209.722 47.2696 209.93 47.5359L210.089 47.7409C210.406 48.1475 210.342 48.6255 209.756 49.0823C209.175 49.5344 208.697 49.4792 208.38 49.0722L208.238 48.8896L208.634 48.5813L208.79 48.7825C208.977 49.0221 209.231 49.0567 209.534 48.8203C209.843 48.5797 209.869 48.3332 209.659 48.0636L209.499 47.8582C209.295 47.5961 209.04 47.5929 208.714 47.8347L208.486 48.0124L208.279 47.7461L208.529 47.5516C208.805 47.3241 208.881 47.0636 208.7 46.832L208.605 46.7103C208.392 46.4364 208.147 46.4018 207.838 46.6425C207.534 46.8793 207.509 47.1372 207.695 47.3768L207.802 47.5133L207.406 47.8216L207.311 47.7003C206.995 47.2933 207.061 46.8199 207.642 46.3678C208.228 45.911 208.704 45.9616 209.021 46.3686Z" fill="#282A36"/>
<path d="M216.432 40.3402C216.338 40.5106 216.189 40.7 215.994 40.8645L215.805 40.6211C216.209 40.2882 216.228 40.0223 216.18 39.7603L216.474 39.5319L218.546 42.1932L218.128 42.5188L216.432 40.3406L216.432 40.3402Z" fill="#282A36"/>
<path d="M220.312 39.9571L220.73 40.493L220.317 40.8144L219.899 40.2785L218.673 41.2339L218.462 40.9638L218.196 38.1916L218.657 37.8321L220.102 39.6871L220.406 39.4502L220.616 39.7203L220.312 39.9571ZM218.853 40.6593L219.689 40.0085L218.677 38.7085L218.853 40.6593Z" fill="#282A36"/>
<path d="M226.786 32.2767C226.692 32.4471 226.543 32.6365 226.348 32.801L226.159 32.5576C226.563 32.2248 226.582 31.9589 226.535 31.6964L226.828 31.4684L228.9 34.1297L228.482 34.4553L226.786 32.2771L226.786 32.2767Z" fill="#282A36"/>
<path d="M228.737 31.723C228.744 31.4855 228.874 31.2618 229.13 31.063C229.618 30.6828 230.031 30.7643 230.327 31.1442L230.732 31.6649C231.049 32.0715 230.98 32.5538 230.399 33.0059C229.819 33.458 229.34 33.4032 229.023 32.9963L228.884 32.8175L229.28 32.5092L229.434 32.707C229.62 32.9466 229.874 32.9812 230.178 32.7447C230.481 32.5083 230.51 32.2539 230.323 32.0142L229.921 31.4974C229.734 31.2581 229.481 31.2235 229.177 31.4599C228.944 31.6418 228.857 31.8553 228.97 32.0785L229.018 32.1394L228.622 32.4477L227.573 30.889L229.071 29.7221L229.278 29.988L228.16 30.8592L228.737 31.723Z" fill="#282A36"/>
<path d="M245.049 48.5907C244.974 48.6491 244.88 48.6538 244.839 48.6014L241.285 44.0372C241.244 43.9847 241.272 43.8948 241.347 43.8364C241.422 43.778 241.516 43.7733 241.557 43.8258L245.111 48.3899C245.152 48.4424 245.124 48.5328 245.049 48.5907Z" fill="#282A36"/>
<path d="M218.837 69.0034C218.762 69.0618 218.668 69.0666 218.628 69.0141L215.073 64.4499C215.032 64.3975 215.06 64.3075 215.135 64.2491C215.21 64.1908 215.304 64.186 215.345 64.2385L218.899 68.8026C218.94 68.8551 218.912 68.9451 218.837 69.0034Z" fill="#282A36"/>
<path d="M192.626 89.4157C192.551 89.474 192.457 89.4788 192.416 89.4263L188.862 84.8622C188.821 84.8097 188.849 84.7197 188.924 84.6614C188.999 84.603 189.093 84.5982 189.134 84.6507L192.688 89.2149C192.729 89.2673 192.701 89.3573 192.626 89.4157Z" fill="#282A36"/>
<path d="M166.415 109.828C166.34 109.886 166.246 109.891 166.205 109.839L162.651 105.274C162.61 105.222 162.638 105.132 162.712 105.074C162.787 105.015 162.881 105.01 162.922 105.063L166.477 109.627C166.518 109.68 166.49 109.769 166.415 109.828Z" fill="#282A36"/>
<path d="M140.204 130.24C140.129 130.298 140.035 130.303 139.994 130.251L136.44 125.687C136.399 125.634 136.426 125.544 136.501 125.486C136.576 125.427 136.67 125.423 136.711 125.475L140.265 130.039C140.306 130.092 140.279 130.182 140.204 130.24Z" fill="#282A36"/>
<path d="M113.992 150.652C113.918 150.711 113.824 150.715 113.783 150.663L110.228 146.099C110.187 146.046 110.215 145.956 110.29 145.898C110.365 145.84 110.459 145.835 110.5 145.887L114.054 150.451C114.095 150.504 114.068 150.593 113.992 150.652Z" fill="#282A36"/>
<path d="M87.7812 171.065C87.7062 171.123 87.6122 171.128 87.5714 171.075L84.017 166.511C83.9761 166.459 84.0038 166.369 84.0787 166.31C84.1537 166.252 84.2477 166.247 84.2885 166.3L87.8429 170.864C87.8838 170.916 87.8561 171.006 87.7812 171.065Z" fill="#282A36"/>
<path d="M112.682 151.673C112.607 151.731 112.513 151.736 112.472 151.684L111.88 150.923C111.839 150.87 111.867 150.78 111.941 150.722C112.016 150.664 112.11 150.659 112.151 150.711L112.744 151.472C112.785 151.525 112.757 151.614 112.682 151.673Z" fill="#282A36"/>
<path d="M111.371 152.694C111.296 152.752 111.202 152.757 111.162 152.704L109.384 150.422C109.344 150.37 109.371 150.28 109.446 150.221C109.521 150.163 109.615 150.158 109.656 150.211L111.433 152.493C111.474 152.545 111.446 152.635 111.371 152.694Z" fill="#282A36"/>
<path d="M110.061 153.714C109.986 153.772 109.892 153.777 109.852 153.724L109.259 152.964C109.218 152.911 109.246 152.821 109.321 152.763C109.396 152.704 109.49 152.7 109.531 152.752L110.123 153.513C110.164 153.565 110.136 153.655 110.061 153.714Z" fill="#282A36"/>
<path d="M108.751 154.734C108.676 154.793 108.582 154.797 108.541 154.745L106.764 152.463C106.723 152.41 106.751 152.32 106.826 152.262C106.9 152.204 106.994 152.199 107.035 152.251L108.813 154.533C108.853 154.586 108.826 154.676 108.751 154.734Z" fill="#282A36"/>
<path d="M107.44 155.755C107.365 155.814 107.271 155.818 107.23 155.766L106.638 155.005C106.597 154.953 106.624 154.863 106.699 154.804C106.774 154.746 106.868 154.741 106.909 154.794L107.501 155.554C107.542 155.607 107.515 155.697 107.44 155.755Z" fill="#282A36"/>
<path d="M106.129 156.776C106.054 156.834 105.96 156.839 105.919 156.787L104.142 154.505C104.101 154.452 104.129 154.362 104.204 154.304C104.279 154.245 104.373 154.241 104.414 154.293L106.191 156.575C106.232 156.628 106.205 156.717 106.129 156.776Z" fill="#282A36"/>
<path d="M104.819 157.797C104.744 157.855 104.65 157.86 104.609 157.807L104.016 157.047C103.976 156.994 104.003 156.904 104.078 156.846C104.153 156.787 104.247 156.783 104.288 156.835L104.88 157.596C104.921 157.648 104.894 157.738 104.819 157.797Z" fill="#282A36"/>
<path d="M103.508 158.817C103.433 158.876 103.339 158.88 103.298 158.828L101.521 156.546C101.48 156.493 101.508 156.403 101.583 156.345C101.658 156.287 101.752 156.282 101.793 156.334L103.57 158.616C103.611 158.669 103.583 158.759 103.508 158.817Z" fill="#282A36"/>
<path d="M102.198 159.837C102.123 159.896 102.029 159.9 101.988 159.848L101.396 159.087C101.355 159.035 101.383 158.945 101.458 158.886C101.532 158.828 101.626 158.823 101.667 158.876L102.26 159.637C102.301 159.689 102.273 159.779 102.198 159.837Z" fill="#282A36"/>
<path d="M100.887 160.858C100.813 160.916 100.719 160.921 100.678 160.869L97.7157 157.065C97.6748 157.013 97.7024 156.923 97.7774 156.864C97.8523 156.806 97.9463 156.801 97.9872 156.854L100.949 160.657C100.99 160.71 100.962 160.8 100.887 160.858Z" fill="#282A36"/>
<path d="M99.5764 161.879C99.5014 161.937 99.4074 161.942 99.3665 161.89L98.7742 161.129C98.7333 161.076 98.7609 160.986 98.8359 160.928C98.9108 160.87 99.0048 160.865 99.0457 160.917L99.6381 161.678C99.679 161.731 99.6518 161.82 99.5764 161.879Z" fill="#282A36"/>
<path d="M98.2658 162.9C98.1908 162.958 98.0968 162.963 98.056 162.91L96.2788 160.628C96.2379 160.576 96.2656 160.486 96.3405 160.427C96.4154 160.369 96.5094 160.364 96.5503 160.417L98.3275 162.699C98.3684 162.751 98.3413 162.841 98.2658 162.9Z" fill="#282A36"/>
<path d="M96.9552 163.92C96.8803 163.979 96.7863 163.983 96.7454 163.931L96.153 163.17C96.1122 163.118 96.1398 163.028 96.2147 162.969C96.2897 162.911 96.3837 162.906 96.4246 162.959L97.017 163.719C97.0578 163.772 97.0302 163.862 96.9552 163.92Z" fill="#282A36"/>
<path d="M95.6447 164.941C95.5697 164.999 95.4757 165.004 95.4348 164.951L93.6577 162.669C93.6168 162.617 93.6444 162.527 93.7194 162.469C93.7943 162.41 93.8883 162.405 93.9292 162.458L95.7064 164.74C95.7473 164.793 95.7196 164.882 95.6447 164.941Z" fill="#282A36"/>
<path d="M94.3347 165.961C94.2597 166.019 94.1657 166.024 94.1248 165.972L93.5325 165.211C93.4916 165.158 93.5192 165.068 93.5942 165.01C93.6691 164.952 93.7631 164.947 93.804 164.999L94.3964 165.76C94.4373 165.813 94.4096 165.903 94.3347 165.961Z" fill="#282A36"/>
<path d="M93.0236 166.982C92.9486 167.04 92.8546 167.045 92.8137 166.993L91.0366 164.711C90.9957 164.658 91.0233 164.568 91.0983 164.51C91.1732 164.451 91.2672 164.447 91.3081 164.499L93.0853 166.781C93.1261 166.834 93.099 166.923 93.0236 166.982Z" fill="#282A36"/>
<path d="M91.713 168.003C91.638 168.061 91.544 168.066 91.5032 168.013L90.9108 167.253C90.8699 167.2 90.8976 167.11 90.9725 167.052C91.0474 166.993 91.1414 166.989 91.1823 167.041L91.7747 167.802C91.8156 167.854 91.7885 167.944 91.713 168.003Z" fill="#282A36"/>
<path d="M90.4024 169.023C90.3275 169.082 90.2335 169.086 90.1926 169.034L88.4154 166.752C88.3745 166.699 88.4022 166.609 88.4771 166.551C88.5521 166.493 88.6461 166.488 88.6869 166.54L90.4641 168.822C90.505 168.875 90.4779 168.964 90.4024 169.023Z" fill="#282A36"/>
<path d="M89.0919 170.044C89.0169 170.102 88.9229 170.107 88.882 170.055L88.2897 169.294C88.2488 169.241 88.2764 169.151 88.3514 169.093C88.4263 169.035 88.5203 169.03 88.5612 169.082L89.1536 169.843C89.1945 169.896 89.1668 169.986 89.0919 170.044Z" fill="#282A36"/>
<path d="M138.894 131.26C138.819 131.319 138.725 131.323 138.684 131.271L138.092 130.51C138.051 130.458 138.078 130.368 138.153 130.309C138.228 130.251 138.322 130.246 138.363 130.299L138.955 131.059C138.996 131.112 138.969 131.202 138.894 131.26Z" fill="#282A36"/>
<path d="M137.583 132.281C137.508 132.34 137.414 132.344 137.373 132.292L135.596 130.01C135.555 129.957 135.582 129.867 135.657 129.809C135.732 129.751 135.826 129.746 135.867 129.798L137.644 132.08C137.685 132.133 137.658 132.223 137.583 132.281Z" fill="#282A36"/>
<path d="M136.272 133.302C136.197 133.36 136.103 133.365 136.062 133.313L135.47 132.552C135.429 132.499 135.457 132.409 135.532 132.351C135.607 132.293 135.701 132.288 135.741 132.34L136.334 133.101C136.375 133.154 136.348 133.243 136.272 133.302Z" fill="#282A36"/>
<path d="M134.961 134.323C134.887 134.381 134.793 134.386 134.752 134.333L132.975 132.051C132.934 131.999 132.961 131.909 133.036 131.85C133.111 131.792 133.205 131.787 133.246 131.84L135.023 134.122C135.064 134.174 135.036 134.264 134.961 134.323Z" fill="#282A36"/>
<path d="M133.651 135.343C133.576 135.402 133.482 135.406 133.441 135.354L132.849 134.593C132.808 134.541 132.836 134.451 132.91 134.392C132.985 134.334 133.079 134.329 133.12 134.382L133.713 135.142C133.754 135.195 133.726 135.285 133.651 135.343Z" fill="#282A36"/>
<path d="M132.341 136.363C132.266 136.422 132.172 136.426 132.131 136.374L130.354 134.092C130.313 134.039 130.341 133.949 130.416 133.891C130.491 133.833 130.585 133.828 130.625 133.88L132.403 136.163C132.444 136.215 132.416 136.305 132.341 136.363Z" fill="#282A36"/>
<path d="M131.03 137.384C130.955 137.443 130.861 137.448 130.82 137.395L130.228 136.634C130.187 136.582 130.214 136.492 130.289 136.434C130.364 136.375 130.458 136.37 130.499 136.423L131.092 137.184C131.132 137.236 131.105 137.326 131.03 137.384Z" fill="#282A36"/>
<path d="M129.719 138.405C129.644 138.463 129.55 138.468 129.509 138.416L127.732 136.134C127.691 136.081 127.719 135.991 127.794 135.933C127.869 135.874 127.963 135.87 128.004 135.922L129.781 138.204C129.822 138.257 129.795 138.346 129.719 138.405Z" fill="#282A36"/>
<path d="M128.409 139.426C128.334 139.484 128.24 139.489 128.199 139.436L127.606 138.676C127.566 138.623 127.593 138.533 127.668 138.475C127.743 138.416 127.837 138.412 127.878 138.464L128.47 139.225C128.511 139.277 128.484 139.367 128.409 139.426Z" fill="#282A36"/>
<path d="M127.098 140.446C127.023 140.505 126.929 140.509 126.888 140.457L123.926 136.653C123.885 136.601 123.913 136.511 123.988 136.453C124.063 136.394 124.157 136.389 124.198 136.442L127.16 140.245C127.201 140.298 127.173 140.388 127.098 140.446Z" fill="#282A36"/>
<path d="M125.788 141.467C125.713 141.525 125.619 141.53 125.578 141.477L124.985 140.717C124.944 140.664 124.972 140.574 125.047 140.516C125.122 140.458 125.216 140.453 125.257 140.505L125.849 141.266C125.89 141.319 125.863 141.408 125.788 141.467Z" fill="#282A36"/>
<path d="M124.478 142.487C124.403 142.545 124.309 142.55 124.268 142.498L122.491 140.216C122.45 140.163 122.477 140.073 122.552 140.015C122.627 139.956 122.721 139.952 122.762 140.004L124.539 142.286C124.58 142.339 124.552 142.429 124.478 142.487Z" fill="#282A36"/>
<path d="M123.167 143.508C123.092 143.566 122.998 143.571 122.957 143.518L122.365 142.758C122.324 142.705 122.352 142.615 122.426 142.557C122.501 142.498 122.595 142.494 122.636 142.546L123.229 143.307C123.27 143.359 123.242 143.449 123.167 143.508Z" fill="#282A36"/>
<path d="M121.856 144.529C121.781 144.587 121.687 144.592 121.646 144.539L119.869 142.257C119.828 142.205 119.856 142.115 119.931 142.056C120.006 141.998 120.1 141.993 120.14 142.046L121.918 144.328C121.958 144.38 121.931 144.47 121.856 144.529Z" fill="#282A36"/>
<path d="M120.545 145.549C120.47 145.608 120.376 145.612 120.336 145.56L119.743 144.799C119.702 144.747 119.73 144.657 119.805 144.598C119.88 144.54 119.974 144.535 120.015 144.588L120.607 145.348C120.648 145.401 120.62 145.491 120.545 145.549Z" fill="#282A36"/>
<path d="M119.235 146.57C119.16 146.628 119.066 146.633 119.025 146.581L117.248 144.298C117.207 144.246 117.235 144.156 117.309 144.098C117.384 144.039 117.478 144.035 117.519 144.087L119.296 146.369C119.337 146.422 119.31 146.512 119.235 146.57Z" fill="#282A36"/>
<path d="M117.924 147.59C117.849 147.649 117.755 147.654 117.714 147.601L117.122 146.84C117.081 146.788 117.109 146.698 117.184 146.64C117.259 146.581 117.353 146.577 117.394 146.629L117.986 147.39C118.027 147.442 117.999 147.532 117.924 147.59Z" fill="#282A36"/>
<path d="M116.614 148.611C116.539 148.669 116.445 148.674 116.404 148.621L114.627 146.339C114.586 146.287 114.614 146.197 114.689 146.138C114.764 146.08 114.858 146.075 114.899 146.128L116.676 148.41C116.717 148.462 116.689 148.552 116.614 148.611Z" fill="#282A36"/>
<path d="M115.304 149.631C115.229 149.69 115.135 149.694 115.094 149.642L114.501 148.881C114.461 148.829 114.488 148.739 114.563 148.68C114.638 148.622 114.732 148.617 114.773 148.67L115.365 149.43C115.406 149.483 115.379 149.573 115.304 149.631Z" fill="#282A36"/>
<path d="M165.104 110.848C165.029 110.907 164.935 110.912 164.895 110.859L164.302 110.098C164.261 110.046 164.289 109.956 164.364 109.898C164.439 109.839 164.533 109.834 164.574 109.887L165.166 110.648C165.207 110.7 165.179 110.79 165.104 110.848Z" fill="#282A36"/>
<path d="M163.794 111.869C163.719 111.927 163.625 111.932 163.584 111.88L161.807 109.598C161.766 109.545 161.794 109.455 161.869 109.397C161.944 109.338 162.037 109.334 162.078 109.386L163.856 111.668C163.896 111.721 163.869 111.811 163.794 111.869Z" fill="#282A36"/>
<path d="M162.483 112.89C162.408 112.948 162.314 112.953 162.273 112.9L161.681 112.14C161.64 112.087 161.668 111.997 161.743 111.939C161.818 111.88 161.912 111.876 161.953 111.928L162.545 112.689C162.586 112.741 162.558 112.831 162.483 112.89Z" fill="#282A36"/>
<path d="M161.173 113.91C161.098 113.968 161.004 113.973 160.963 113.92L159.186 111.638C159.145 111.586 159.173 111.496 159.248 111.438C159.323 111.379 159.417 111.374 159.458 111.427L161.235 113.709C161.276 113.762 161.248 113.851 161.173 113.91Z" fill="#282A36"/>
<path d="M159.862 114.931C159.787 114.989 159.693 114.994 159.652 114.941L159.06 114.181C159.019 114.128 159.047 114.038 159.122 113.98C159.197 113.922 159.291 113.917 159.331 113.969L159.924 114.73C159.965 114.783 159.938 114.872 159.862 114.931Z" fill="#282A36"/>
<path d="M158.552 115.951C158.477 116.01 158.383 116.015 158.342 115.962L156.565 113.68C156.524 113.628 156.551 113.538 156.626 113.479C156.701 113.421 156.795 113.416 156.836 113.469L158.613 115.751C158.654 115.803 158.627 115.893 158.552 115.951Z" fill="#282A36"/>
<path d="M157.241 116.972C157.166 117.03 157.072 117.035 157.031 116.983L156.439 116.222C156.398 116.17 156.426 116.08 156.501 116.021C156.575 115.963 156.669 115.958 156.71 116.011L157.303 116.771C157.344 116.824 157.316 116.914 157.241 116.972Z" fill="#282A36"/>
<path d="M155.93 117.993C155.856 118.051 155.762 118.056 155.721 118.003L153.943 115.721C153.903 115.669 153.93 115.579 154.005 115.52C154.08 115.462 154.174 115.457 154.215 115.51L155.992 117.792C156.033 117.844 156.005 117.934 155.93 117.993Z" fill="#282A36"/>
<path d="M154.62 119.013C154.546 119.071 154.452 119.076 154.411 119.023L153.818 118.263C153.777 118.21 153.805 118.12 153.88 118.062C153.955 118.004 154.049 117.999 154.09 118.051L154.682 118.812C154.723 118.865 154.695 118.954 154.62 119.013Z" fill="#282A36"/>
<path d="M153.309 120.034C153.234 120.092 153.14 120.097 153.1 120.045L150.138 116.241C150.097 116.189 150.124 116.099 150.199 116.04C150.274 115.982 150.368 115.977 150.409 116.03L153.371 119.833C153.412 119.886 153.385 119.975 153.309 120.034Z" fill="#282A36"/>
<path d="M151.999 121.055C151.924 121.113 151.83 121.118 151.789 121.065L151.197 120.305C151.156 120.252 151.183 120.162 151.258 120.104C151.333 120.045 151.427 120.041 151.468 120.093L152.06 120.854C152.101 120.906 152.074 120.996 151.999 121.055Z" fill="#282A36"/>
<path d="M150.688 122.075C150.613 122.133 150.519 122.138 150.478 122.086L148.701 119.804C148.66 119.751 148.688 119.661 148.763 119.603C148.838 119.545 148.932 119.54 148.973 119.592L150.75 121.874C150.791 121.927 150.764 122.016 150.688 122.075Z" fill="#282A36"/>
<path d="M149.378 123.096C149.303 123.154 149.209 123.159 149.168 123.106L148.575 122.346C148.535 122.293 148.562 122.203 148.637 122.145C148.712 122.087 148.806 122.082 148.847 122.134L149.439 122.895C149.48 122.947 149.453 123.037 149.378 123.096Z" fill="#282A36"/>
<path d="M148.067 124.116C147.992 124.175 147.898 124.18 147.857 124.127L146.08 121.845C146.039 121.792 146.067 121.703 146.142 121.644C146.217 121.586 146.311 121.581 146.352 121.634L148.129 123.916C148.17 123.968 148.142 124.058 148.067 124.116Z" fill="#282A36"/>
<path d="M146.757 125.137C146.682 125.195 146.588 125.2 146.547 125.147L145.955 124.386C145.914 124.334 145.942 124.244 146.017 124.186C146.092 124.127 146.186 124.123 146.226 124.175L146.819 124.936C146.86 124.988 146.832 125.078 146.757 125.137Z" fill="#282A36"/>
<path d="M145.446 126.158C145.371 126.216 145.277 126.221 145.236 126.168L143.459 123.886C143.418 123.834 143.446 123.744 143.521 123.685C143.596 123.627 143.69 123.622 143.731 123.675L145.508 125.957C145.549 126.009 145.521 126.099 145.446 126.158Z" fill="#282A36"/>
<path d="M144.135 127.178C144.06 127.237 143.966 127.241 143.926 127.189L143.333 126.428C143.292 126.376 143.32 126.286 143.395 126.227C143.47 126.169 143.564 126.164 143.605 126.217L144.197 126.977C144.238 127.03 144.211 127.119 144.135 127.178Z" fill="#282A36"/>
<path d="M142.825 128.199C142.75 128.257 142.656 128.262 142.615 128.209L140.838 125.927C140.797 125.875 140.825 125.785 140.9 125.727C140.975 125.668 141.069 125.663 141.109 125.716L142.887 127.998C142.927 128.05 142.9 128.14 142.825 128.199Z" fill="#282A36"/>
<path d="M141.514 129.219C141.439 129.278 141.345 129.283 141.304 129.23L140.712 128.469C140.671 128.417 140.699 128.327 140.774 128.269C140.849 128.21 140.943 128.205 140.984 128.258L141.576 129.019C141.617 129.071 141.589 129.161 141.514 129.219Z" fill="#282A36"/>
<path d="M191.316 90.4358C191.241 90.4942 191.147 90.499 191.106 90.4465L190.514 89.6858C190.473 89.6333 190.501 89.5433 190.576 89.485C190.651 89.4266 190.745 89.4218 190.785 89.4743L191.378 90.235C191.419 90.2875 191.391 90.3775 191.316 90.4358Z" fill="#282A36"/>
<path d="M190.005 91.4568C189.93 91.5152 189.836 91.52 189.795 91.4675L188.018 89.1854C187.977 89.1329 188.005 89.043 188.08 88.9846C188.155 88.9262 188.249 88.9215 188.29 88.974L190.067 91.256C190.108 91.3085 190.081 91.3981 190.005 91.4568Z" fill="#282A36"/>
<path d="M188.695 92.4775C188.62 92.5358 188.526 92.5406 188.485 92.4881L187.892 91.7274C187.851 91.6749 187.879 91.585 187.954 91.5266C188.029 91.4682 188.123 91.4635 188.164 91.516L188.756 92.2766C188.797 92.3291 188.77 92.4187 188.695 92.4775Z" fill="#282A36"/>
<path d="M187.384 93.4981C187.309 93.5565 187.215 93.5612 187.174 93.5087L185.397 91.2267C185.356 91.1742 185.384 91.0842 185.459 91.0259C185.534 90.9675 185.628 90.9627 185.668 91.0152L187.446 93.2973C187.487 93.3498 187.459 93.4393 187.384 93.4981Z" fill="#282A36"/>
<path d="M186.073 94.5187C185.998 94.5771 185.904 94.5818 185.864 94.5294L185.271 93.7687C185.23 93.7162 185.258 93.6262 185.333 93.5679C185.408 93.5095 185.502 93.5047 185.543 93.5572L186.135 94.3179C186.176 94.3704 186.148 94.4604 186.073 94.5187Z" fill="#282A36"/>
<path d="M184.763 95.5392C184.688 95.5976 184.594 95.6024 184.553 95.5499L182.776 93.2678C182.735 93.2153 182.763 93.1254 182.838 93.067C182.912 93.0086 183.006 93.0039 183.047 93.0564L184.825 95.3384C184.865 95.3909 184.838 95.4809 184.763 95.5392Z" fill="#282A36"/>
<path d="M183.453 96.5595C183.378 96.6179 183.284 96.6226 183.243 96.5701L182.651 95.8094C182.61 95.757 182.637 95.667 182.712 95.6086C182.787 95.5503 182.881 95.5455 182.922 95.598L183.514 96.3587C183.555 96.4112 183.528 96.5011 183.453 96.5595Z" fill="#282A36"/>
<path d="M182.142 97.5805C182.067 97.6389 181.973 97.6436 181.932 97.5911L180.155 95.3091C180.114 95.2566 180.141 95.1666 180.216 95.1083C180.291 95.0499 180.385 95.0451 180.426 95.0976L182.203 97.3797C182.244 97.4322 182.217 97.5217 182.142 97.5805Z" fill="#282A36"/>
<path d="M180.831 98.6011C180.756 98.6595 180.662 98.6642 180.621 98.6118L180.029 97.8511C179.988 97.7986 180.016 97.7086 180.091 97.6503C180.166 97.5919 180.26 97.5871 180.3 97.6396L180.893 98.4003C180.934 98.4528 180.907 98.5423 180.831 98.6011Z" fill="#282A36"/>
<path d="M179.521 99.6217C179.446 99.68 179.352 99.6848 179.311 99.6323L176.349 95.8289C176.308 95.7764 176.336 95.6864 176.41 95.628C176.485 95.5697 176.579 95.5649 176.62 95.6174L179.582 99.4208C179.623 99.4733 179.595 99.5633 179.521 99.6217Z" fill="#282A36"/>
<path d="M178.21 100.642C178.135 100.701 178.041 100.706 178 100.653L177.408 99.8923C177.367 99.8398 177.395 99.7499 177.47 99.6915C177.544 99.6332 177.638 99.6284 177.679 99.6809L178.272 100.442C178.313 100.494 178.285 100.584 178.21 100.642Z" fill="#282A36"/>
<path d="M176.9 101.663C176.825 101.721 176.731 101.726 176.69 101.673L174.913 99.3911C174.872 99.3386 174.9 99.2487 174.975 99.1903C175.05 99.1319 175.144 99.1272 175.185 99.1797L176.962 101.462C177.003 101.514 176.975 101.604 176.9 101.663Z" fill="#282A36"/>
<path d="M175.589 102.684C175.514 102.742 175.42 102.747 175.379 102.694L174.787 101.934C174.746 101.881 174.773 101.791 174.848 101.733C174.923 101.674 175.017 101.67 175.058 101.722L175.651 102.483C175.691 102.535 175.664 102.625 175.589 102.684Z" fill="#282A36"/>
<path d="M174.278 103.704C174.203 103.763 174.109 103.767 174.068 103.715L172.291 101.433C172.25 101.38 172.278 101.29 172.353 101.232C172.428 101.174 172.522 101.169 172.563 101.221L174.34 103.503C174.381 103.556 174.354 103.645 174.278 103.704Z" fill="#282A36"/>
<path d="M172.968 104.725C172.893 104.783 172.799 104.788 172.758 104.735L172.166 103.975C172.125 103.922 172.152 103.832 172.227 103.774C172.302 103.716 172.396 103.711 172.437 103.763L173.029 104.524C173.07 104.576 173.043 104.666 172.968 104.725Z" fill="#282A36"/>
<path d="M171.657 105.745C171.582 105.804 171.488 105.809 171.447 105.756L169.67 103.474C169.629 103.422 169.657 103.332 169.732 103.273C169.807 103.215 169.901 103.21 169.942 103.263L171.719 105.545C171.76 105.597 171.732 105.687 171.657 105.745Z" fill="#282A36"/>
<path d="M170.347 106.766C170.272 106.824 170.178 106.829 170.137 106.777L169.544 106.016C169.504 105.963 169.531 105.874 169.606 105.815C169.681 105.757 169.775 105.752 169.816 105.805L170.408 106.565C170.449 106.618 170.422 106.708 170.347 106.766Z" fill="#282A36"/>
<path d="M169.037 107.786C168.962 107.845 168.868 107.849 168.827 107.797L167.05 105.515C167.009 105.462 167.036 105.372 167.111 105.314C167.186 105.256 167.28 105.251 167.321 105.303L169.098 107.585C169.139 107.638 169.112 107.728 169.037 107.786Z" fill="#282A36"/>
<path d="M167.726 108.807C167.651 108.866 167.557 108.87 167.516 108.818L166.923 108.057C166.882 108.005 166.91 107.915 166.985 107.856C167.06 107.798 167.154 107.793 167.195 107.846L167.787 108.606C167.828 108.659 167.801 108.749 167.726 108.807Z" fill="#282A36"/>
<path d="M217.527 70.0237C217.452 70.0821 217.358 70.0869 217.318 70.0344L216.725 69.2737C216.684 69.2212 216.712 69.1312 216.787 69.0729C216.862 69.0145 216.956 69.0097 216.997 69.0622L217.589 69.8229C217.63 69.8754 217.602 69.9658 217.527 70.0237Z" fill="#282A36"/>
<path d="M216.217 71.0442C216.142 71.1026 216.048 71.1074 216.007 71.0549L214.23 68.7728C214.189 68.7203 214.217 68.6304 214.292 68.572C214.366 68.5136 214.46 68.5089 214.501 68.5614L216.279 70.8434C216.319 70.8959 216.291 70.9863 216.217 71.0442Z" fill="#282A36"/>
<path d="M214.906 72.0649C214.831 72.1232 214.737 72.128 214.696 72.0755L214.104 71.3148C214.063 71.2623 214.091 71.1724 214.166 71.114C214.241 71.0556 214.335 71.0509 214.376 71.1034L214.968 71.864C215.009 71.9165 214.981 72.0069 214.906 72.0649Z" fill="#282A36"/>
<path d="M213.596 73.0855C213.521 73.1439 213.427 73.1486 213.386 73.0961L211.609 70.8141C211.568 70.7616 211.595 70.6716 211.67 70.6133C211.745 70.5549 211.839 70.5501 211.88 70.6026L213.657 72.8847C213.698 72.9372 213.67 73.0276 213.596 73.0855Z" fill="#282A36"/>
<path d="M212.285 74.1061C212.21 74.1645 212.116 74.1692 212.075 74.1168L211.483 73.3561C211.442 73.3036 211.47 73.2136 211.545 73.1553C211.62 73.0969 211.714 73.0921 211.754 73.1446L212.347 73.9053C212.388 73.9578 212.36 74.0482 212.285 74.1061Z" fill="#282A36"/>
<path d="M210.974 75.1271C210.899 75.1855 210.805 75.1903 210.764 75.1378L208.987 72.8557C208.946 72.8032 208.974 72.7133 209.049 72.6549C209.124 72.5965 209.218 72.5918 209.259 72.6443L211.036 74.9263C211.077 74.9788 211.049 75.0688 210.974 75.1271Z" fill="#282A36"/>
<path d="M209.663 76.1477C209.589 76.2061 209.495 76.2109 209.454 76.1584L208.861 75.3977C208.82 75.3452 208.848 75.2552 208.923 75.1969C208.998 75.1385 209.092 75.1338 209.133 75.1862L209.725 75.9469C209.766 75.9994 209.738 76.0894 209.663 76.1477Z" fill="#282A36"/>
<path d="M208.353 77.1684C208.278 77.2268 208.184 77.2315 208.143 77.179L206.366 74.897C206.325 74.8445 206.353 74.7545 206.428 74.6962C206.503 74.6378 206.597 74.633 206.637 74.6855L208.415 76.9676C208.455 77.0201 208.428 77.11 208.353 77.1684Z" fill="#282A36"/>
<path d="M207.042 78.189C206.967 78.2474 206.873 78.2521 206.833 78.1996L206.24 77.439C206.199 77.3865 206.227 77.2965 206.302 77.2381C206.377 77.1798 206.471 77.175 206.512 77.2275L207.104 77.9882C207.145 78.0407 207.117 78.1306 207.042 78.189Z" fill="#282A36"/>
<path d="M205.732 79.2095C205.657 79.2679 205.563 79.2727 205.522 79.2202L202.56 75.4167C202.519 75.3643 202.547 75.2743 202.622 75.2159C202.697 75.1576 202.791 75.1528 202.832 75.2053L205.793 79.0087C205.834 79.0612 205.807 79.1512 205.732 79.2095Z" fill="#282A36"/>
<path d="M204.421 80.2303C204.346 80.2886 204.252 80.2934 204.211 80.2409L203.619 79.4802C203.578 79.4277 203.606 79.3378 203.681 79.2794C203.756 79.221 203.85 79.2163 203.891 79.2688L204.483 80.0295C204.524 80.0819 204.496 80.1719 204.421 80.2303Z" fill="#282A36"/>
<path d="M203.111 81.2504C203.036 81.3088 202.942 81.3136 202.901 81.2611L201.124 78.979C201.083 78.9265 201.111 78.8365 201.186 78.7782C201.261 78.7198 201.355 78.7151 201.396 78.7675L203.173 81.0496C203.214 81.1021 203.186 81.1921 203.111 81.2504Z" fill="#282A36"/>
<path d="M201.801 82.271C201.726 82.3294 201.632 82.3342 201.591 82.2817L200.998 81.521C200.958 81.4685 200.985 81.3785 201.06 81.3202C201.135 81.2618 201.229 81.257 201.27 81.3095L201.862 82.0702C201.903 82.1227 201.875 82.2131 201.801 82.271Z" fill="#282A36"/>
<path d="M200.49 83.2917C200.415 83.35 200.321 83.3548 200.28 83.3023L198.503 81.0203C198.462 80.9678 198.49 80.8778 198.565 80.8194C198.64 80.7611 198.734 80.7563 198.775 80.8088L200.552 83.0909C200.593 83.1434 200.564 83.2337 200.49 83.2917Z" fill="#282A36"/>
<path d="M199.18 84.3122C199.105 84.3705 199.011 84.3753 198.97 84.3228L198.377 83.5621C198.336 83.5096 198.364 83.4197 198.439 83.3613C198.514 83.303 198.608 83.2982 198.649 83.3507L199.241 84.1114C199.282 84.1638 199.254 84.2542 199.18 84.3122Z" fill="#282A36"/>
<path d="M197.869 85.3328C197.794 85.3912 197.7 85.3959 197.659 85.3435L195.882 83.0614C195.841 83.0089 195.869 82.9189 195.944 82.8606C196.019 82.8022 196.113 82.7975 196.153 82.8499L197.931 85.132C197.972 85.1845 197.943 85.2749 197.869 85.3328Z" fill="#282A36"/>
<path d="M196.558 86.3538C196.483 86.4122 196.389 86.4169 196.348 86.3644L195.756 85.6038C195.715 85.5513 195.742 85.4613 195.817 85.4029C195.892 85.3446 195.986 85.3398 196.027 85.3923L196.62 86.153C196.66 86.2055 196.633 86.2954 196.558 86.3538Z" fill="#282A36"/>
<path d="M195.247 87.3744C195.172 87.4328 195.078 87.4376 195.037 87.3851L193.26 85.103C193.219 85.0505 193.247 84.9606 193.322 84.9022C193.397 84.8438 193.491 84.8391 193.532 84.8916L195.309 87.1736C195.35 87.2261 195.322 87.3161 195.247 87.3744Z" fill="#282A36"/>
<path d="M193.937 88.3951C193.862 88.4534 193.768 88.4582 193.727 88.4057L193.135 87.645C193.094 87.5925 193.121 87.5026 193.196 87.4442C193.271 87.3858 193.365 87.3811 193.406 87.4336L193.998 88.1942C194.039 88.2467 194.012 88.3367 193.937 88.3951Z" fill="#282A36"/>
<path d="M243.739 49.6115C243.664 49.6699 243.57 49.6746 243.529 49.6221L242.936 48.8614C242.896 48.809 242.923 48.719 242.998 48.6606C243.073 48.6023 243.167 48.5975 243.208 48.65L243.8 49.4107C243.841 49.4632 243.813 49.5536 243.739 49.6115Z" fill="#282A36"/>
<path d="M242.427 50.6325C242.353 50.6909 242.259 50.6956 242.218 50.6431L240.44 48.3611C240.4 48.3086 240.427 48.2186 240.502 48.1603C240.577 48.1019 240.671 48.0971 240.712 48.1496L242.489 50.4317C242.53 50.4842 242.502 50.5741 242.427 50.6325Z" fill="#282A36"/>
<path d="M241.117 51.653C241.042 51.7114 240.948 51.7161 240.907 51.6636L240.315 50.9029C240.274 50.8505 240.302 50.7605 240.376 50.7021C240.451 50.6438 240.545 50.639 240.586 50.6915L241.179 51.4522C241.22 51.5047 241.192 51.5946 241.117 51.653Z" fill="#282A36"/>
<path d="M239.806 52.6736C239.731 52.732 239.637 52.7368 239.597 52.6843L237.819 50.4022C237.778 50.3497 237.806 50.2598 237.881 50.2014C237.956 50.143 238.05 50.1383 238.091 50.1908L239.868 52.4728C239.909 52.5253 239.881 52.6153 239.806 52.6736Z" fill="#282A36"/>
<path d="M238.496 53.6943C238.421 53.7526 238.327 53.7574 238.286 53.7049L237.694 52.9442C237.653 52.8917 237.68 52.8018 237.755 52.7434C237.83 52.685 237.924 52.6803 237.965 52.7328L238.558 53.4934C238.598 53.5459 238.571 53.6359 238.496 53.6943Z" fill="#282A36"/>
<path d="M237.185 54.7149C237.11 54.7733 237.016 54.778 236.975 54.7255L235.198 52.4435C235.157 52.391 235.185 52.301 235.26 52.2427C235.335 52.1843 235.429 52.1795 235.47 52.232L237.247 54.5141C237.288 54.5666 237.26 54.6565 237.185 54.7149Z" fill="#282A36"/>
<path d="M235.875 55.7355C235.8 55.7939 235.706 55.7986 235.665 55.7462L235.072 54.9855C235.032 54.933 235.059 54.843 235.134 54.7847C235.209 54.7263 235.303 54.7215 235.344 54.774L235.936 55.5347C235.977 55.5872 235.95 55.6772 235.875 55.7355Z" fill="#282A36"/>
<path d="M234.564 56.7562C234.489 56.8145 234.395 56.8193 234.354 56.7668L232.577 54.4847C232.536 54.4322 232.564 54.3423 232.639 54.2839C232.714 54.2256 232.808 54.2208 232.849 54.2733L234.626 56.5553C234.667 56.6078 234.639 56.6978 234.564 56.7562Z" fill="#282A36"/>
<path d="M233.254 57.7768C233.179 57.8351 233.085 57.8399 233.044 57.7874L232.451 57.0267C232.41 56.9742 232.438 56.8843 232.513 56.8259C232.588 56.7676 232.682 56.7628 232.723 56.8153L233.315 57.576C233.356 57.6284 233.329 57.7184 233.254 57.7768Z" fill="#282A36"/>
<path d="M231.944 58.7969C231.869 58.8553 231.775 58.8601 231.734 58.8076L228.772 55.0041C228.731 54.9517 228.759 54.8617 228.833 54.8033C228.908 54.745 229.002 54.7402 229.043 54.7927L232.005 58.5961C232.046 58.6486 232.018 58.739 231.944 58.7969Z" fill="#282A36"/>
<path d="M230.633 59.8175C230.558 59.8759 230.464 59.8807 230.423 59.8282L229.831 59.0675C229.79 59.015 229.818 58.925 229.892 58.8667C229.967 58.8083 230.061 58.8036 230.102 58.856L230.695 59.6167C230.736 59.6692 230.707 59.7596 230.633 59.8175Z" fill="#282A36"/>
<path d="M229.322 60.8382C229.247 60.8966 229.153 60.9013 229.113 60.8488L227.335 58.5668C227.295 58.5143 227.322 58.4243 227.397 58.366C227.472 58.3076 227.566 58.3028 227.607 58.3553L229.384 60.6374C229.425 60.6899 229.397 60.7803 229.322 60.8382Z" fill="#282A36"/>
<path d="M228.012 61.8588C227.937 61.9172 227.843 61.9219 227.802 61.8694L227.21 61.1088C227.169 61.0563 227.196 60.9663 227.271 60.9079C227.346 60.8496 227.44 60.8448 227.481 60.8973L228.074 61.658C228.114 61.7105 228.086 61.8009 228.012 61.8588Z" fill="#282A36"/>
<path d="M226.701 62.8798C226.626 62.9382 226.532 62.9429 226.491 62.8905L224.714 60.6084C224.673 60.5559 224.701 60.4659 224.775 60.4076C224.85 60.3492 224.944 60.3444 224.985 60.3969L226.762 62.679C226.803 62.7315 226.776 62.8215 226.701 62.8798Z" fill="#282A36"/>
<path d="M225.39 63.9004C225.315 63.9588 225.221 63.9636 225.18 63.9111L224.588 63.1504C224.547 63.0979 224.575 63.0079 224.65 62.9496C224.725 62.8912 224.819 62.8864 224.86 62.9389L225.452 63.6996C225.493 63.7521 225.465 63.8421 225.39 63.9004Z" fill="#282A36"/>
<path d="M224.08 64.9211C224.005 64.9794 223.911 64.9842 223.87 64.9317L222.093 62.6497C222.052 62.5972 222.079 62.5072 222.154 62.4488C222.229 62.3905 222.323 62.3857 222.364 62.4382L224.141 64.7203C224.182 64.7727 224.155 64.8627 224.08 64.9211Z" fill="#282A36"/>
<path d="M222.769 65.9416C222.694 65.9999 222.6 66.0047 222.559 65.9522L221.967 65.1915C221.926 65.139 221.954 65.0491 222.029 64.9907C222.104 64.9323 222.198 64.9276 222.238 64.9801L222.831 65.7408C222.872 65.7932 222.844 65.8832 222.769 65.9416Z" fill="#282A36"/>
<path d="M221.459 66.9622C221.384 67.0206 221.29 67.0253 221.249 66.9729L219.472 64.6908C219.431 64.6383 219.458 64.5483 219.533 64.49C219.608 64.4316 219.702 64.4268 219.743 64.4793L221.52 66.7614C221.561 66.8139 221.533 66.9039 221.459 66.9622Z" fill="#282A36"/>
<path d="M220.148 67.9828C220.073 68.0412 219.979 68.046 219.938 67.9935L219.346 67.2328C219.305 67.1803 219.333 67.0903 219.407 67.032C219.482 66.9736 219.576 66.9688 219.617 67.0213L220.21 67.782C220.251 67.8345 220.223 67.9245 220.148 67.9828Z" fill="#282A36"/>
<path d="M107.572 142.836C107.478 143.006 107.328 143.195 107.134 143.36L106.944 143.116C107.348 142.784 107.368 142.518 107.32 142.255L107.614 142.027L109.686 144.688L109.268 145.014L107.572 142.836Z" fill="#282A36"/>
<path d="M134.994 121.743C135.618 122.545 134.557 123.836 135.028 124.452L135.06 124.494L136.309 123.522L136.519 123.792L134.853 125.089L134.675 124.861C134.006 124.002 135.163 122.833 134.579 122.084C134.366 121.81 134.123 121.767 133.808 122.012C133.499 122.253 133.485 122.514 133.668 122.75L133.852 122.986L133.456 123.294L133.287 123.077C132.971 122.671 133.026 122.194 133.612 121.737C134.204 121.278 134.677 121.337 134.994 121.743Z" fill="#282A36"/>
<path d="M161.181 101.344L161.234 101.412C161.447 101.686 161.441 102.003 161.199 102.319C161.584 102.154 161.882 102.245 162.09 102.511L162.249 102.716C162.566 103.122 162.502 103.601 161.916 104.057C161.335 104.509 160.856 104.455 160.539 104.048L160.397 103.865L160.793 103.557L160.95 103.758C161.136 103.998 161.39 104.032 161.694 103.795C162.003 103.555 162.029 103.308 161.819 103.039L161.659 102.833C161.455 102.571 161.2 102.568 160.874 102.81L160.646 102.987L160.439 102.721L160.689 102.527C160.965 102.299 161.041 102.039 160.86 101.807L160.766 101.685C160.552 101.411 160.307 101.377 159.998 101.618C159.694 101.854 159.668 102.113 159.855 102.352L159.961 102.489L159.565 102.797L159.471 102.676C159.154 102.269 159.221 101.795 159.802 101.343C160.388 100.886 160.864 100.937 161.181 101.344Z" fill="#282A36"/>
<path d="M188.364 82.5561L188.781 83.092L188.369 83.4134L187.951 82.8775L186.725 83.8329L186.514 83.5628L186.248 80.7906L186.709 80.4311L188.154 82.2861L188.457 82.0497L188.668 82.3197L188.364 82.5561ZM186.906 83.2579L187.742 82.6071L186.729 81.307L186.906 83.2579Z" fill="#282A36"/>
<path d="M212.681 61.9457C212.689 61.7077 212.819 61.484 213.074 61.2853C213.563 60.9051 213.975 60.9869 214.271 61.3669L214.677 61.8876C214.993 62.2942 214.924 62.7765 214.343 63.2286C213.763 63.6807 213.284 63.6259 212.967 63.2189L212.828 63.0401L213.224 62.7314L213.378 62.9292C213.565 63.1688 213.819 63.2034 214.122 62.967C214.426 62.7302 214.455 62.4761 214.268 62.2365L213.865 61.7196C213.679 61.4804 213.425 61.4458 213.122 61.6822C212.888 61.864 212.802 62.0776 212.915 62.3012L212.962 62.362L212.566 62.6703L211.518 61.1112L213.015 59.9448L213.222 60.2107L212.104 61.0814L212.681 61.9457Z" fill="#282A36"/>
<path d="M239.822 40.0952L239.86 40.1446L239.464 40.4529L239.411 40.3845C239.224 40.1448 238.974 40.1145 238.665 40.3551C238.345 40.6046 238.316 40.8591 238.538 41.144L239.003 41.7407C238.963 41.4786 239.089 41.2148 239.393 40.978C239.882 40.5978 240.292 40.6754 240.591 41.0592L240.905 41.4624C241.221 41.869 241.141 42.3597 240.56 42.8123C239.974 43.2686 239.479 43.2265 239.162 42.8195L238.105 41.4624C237.777 41.0406 237.844 40.5667 238.446 40.0977C239.032 39.6414 239.505 39.6882 239.822 40.0952ZM239.29 42.1097L239.601 42.5087C239.787 42.7483 240.041 42.7828 240.35 42.5422C240.654 42.3054 240.688 42.0467 240.501 41.8071L240.191 41.4081C240.004 41.1685 239.745 41.1381 239.441 41.3749C239.132 41.6156 239.103 41.8701 239.29 42.1097Z" fill="#282A36"/>
<path d="M80.8206 163.925C80.5037 163.518 80.5872 163.031 81.1677 162.579C81.7542 162.122 82.2456 162.161 82.5628 162.568L83.6312 163.94C83.9478 164.346 83.8682 164.837 83.2816 165.294C82.7011 165.746 82.206 165.704 81.889 165.297L80.8206 163.925ZM82.3223 164.99C82.5089 165.23 82.7681 165.26 83.0722 165.023C83.3817 164.782 83.4104 164.528 83.2238 164.288L82.1287 162.882C81.9392 162.639 81.6854 162.604 81.3759 162.845C81.0718 163.082 81.0377 163.341 81.2272 163.584L82.3223 164.99Z" fill="#282A36"/>
</g>
<defs>
<linearGradient id="paint0_linear_41_2" x1="147" y1="12" x2="147" y2="175" gradientUnits="userSpaceOnUse">
<stop stop-color="#D9D9D9"/>
<stop offset="0.533654" stop-color="#A3A3A3"/>
<stop offset="1" stop-color="#737373"/>
</linearGradient>
<linearGradient id="paint1_linear_41_2" x1="166.773" y1="110.007" x2="146.632" y2="84.1438" gradientUnits="userSpaceOnUse">
<stop stop-color="#F1E9DA"/>
<stop offset="0.0164" stop-color="#F6EFE2"/>
<stop offset="0.0478" stop-color="#FBF5EA"/>
<stop offset="0.1" stop-color="#FCF7ED"/>
<stop offset="0.5" stop-color="#F1E9DA"/>
<stop offset="0.7089" stop-color="#F2EBDD"/>
<stop offset="0.8344" stop-color="#F7F1E5"/>
<stop offset="0.9" stop-color="#FCF7ED"/>
<stop offset="0.9522" stop-color="#FBF5EA"/>
<stop offset="0.9836" stop-color="#F6EFE2"/>
<stop offset="1" stop-color="#F1E9DA"/>
</linearGradient>
<linearGradient id="paint2_linear_41_2" x1="83.0113" y1="158.74" x2="81.086" y2="156.268" gradientUnits="userSpaceOnUse">
<stop stop-color="#FCF7ED"/>
<stop offset="0.4265" stop-color="#F6F0E3"/>
<stop offset="1" stop-color="#F1E9DA"/>
</linearGradient>
<linearGradient id="paint3_linear_41_2" x1="78.8646" y1="153.415" x2="80.7898" y2="155.888" gradientUnits="userSpaceOnUse">
<stop stop-color="#FCF7ED"/>
<stop offset="0.4265" stop-color="#F6F0E3"/>
<stop offset="1" stop-color="#F1E9DA"/>
</linearGradient>
<linearGradient id="paint4_linear_41_2" x1="146.641" y1="84.1364" x2="149.307" y2="87.5595" gradientUnits="userSpaceOnUse">
<stop stop-color="#FCF7ED"/>
<stop offset="0.4265" stop-color="#F6F0E3"/>
<stop offset="1" stop-color="#F1E9DA"/>
</linearGradient>
<linearGradient id="paint5_linear_41_2" x1="166.783" y1="110" x2="164.117" y2="106.577" gradientUnits="userSpaceOnUse">
<stop stop-color="#FCF7ED"/>
<stop offset="0.4265" stop-color="#F6F0E3"/>
<stop offset="1" stop-color="#F1E9DA"/>
</linearGradient>
<clipPath id="clip0_41_2">
<rect width="294" height="188" fill="white"/>
</clipPath>
</defs>
</svg>
