<svg width="332" height="313" viewBox="0 0 332 313" fill="none" xmlns="http://www.w3.org/2000/svg">
<rect class="rectangle" x="29.5" y="144.5" width="273" height="152" fill="#D9D9D9" fill-opacity="0.01" stroke="white"/>
<rect class="rectangle" x="58.5" y="183.5" width="49" height="113" fill="#D9D9D9" fill-opacity="0.01" stroke="white"/>
<path class="square" d="M226.5 190.5V229.5H187.5V190.5H226.5Z" fill="#D9D9D9" fill-opacity="0.01" stroke="white"/>
<path class="square" d="M226.5 233.5V272.5H187.5V233.5H226.5Z" fill="#D9D9D9" fill-opacity="0.01" stroke="white"/>
<path class="square" d="M269.5 190.5V229.5H230.5V190.5H269.5Z" fill="#D9D9D9" fill-opacity="0.01" stroke="white"/>
<path class="square" d="M269.5 233.5V272.5H230.5V233.5H269.5Z" fill="#D9D9D9" fill-opacity="0.01" stroke="white"/>
<path class="triangle" d="M118.353 143.5H30.6475L74.5 37.3086L118.353 143.5Z" fill="#D9D9D9" fill-opacity="0.01" stroke="white"/>
<path class="triangle" d="M76.6475 36.5L164.353 36.5L120.5 142.691L76.6475 36.5Z" fill="#D9D9D9" fill-opacity="0.01" stroke="white"/>
<path class="triangle" d="M168.647 36.5L256.353 36.5L212.5 142.691L168.647 36.5Z" fill="#D9D9D9" fill-opacity="0.01" stroke="white"/>
<path class="triangle" d="M210.353 143.5H122.647L166.5 37.3086L210.353 143.5Z" fill="#D9D9D9" fill-opacity="0.01" stroke="white"/>
<path class="triangle" d="M302.353 143.5H214.647L258.5 37.3086L302.353 143.5Z" fill="#D9D9D9" fill-opacity="0.01" stroke="white"/>
<circle class="circle" cx="74.5" cy="108.5" r="16" fill="#D9D9D9" fill-opacity="0.01" stroke="white"/>
<circle class="circle" cx="166.5" cy="108.5" r="16" fill="#D9D9D9" fill-opacity="0.01" stroke="white"/>
<circle class="circle" cx="258.5" cy="108.5" r="16" fill="#D9D9D9" fill-opacity="0.01" stroke="white"/>
</svg>
