<svg width="952" height="591" viewBox="0 0 952 591" fill="none" xmlns="http://www.w3.org/2000/svg">
<mask id="path-1-inside-1_79_69" fill="white">
<path d="M165 64H817V373H165V64Z"/>
</mask>
<path d="M165 64H817V373H165V64Z" fill="#5FD7FF"/>
<path d="M165 64V54H155V64H165ZM817 64H827V54H817V64ZM817 373V383H827V373H817ZM165 373H155V383H165V373ZM165 64V74H817V64V54H165V64ZM817 64H807V373H817H827V64H817ZM817 373V363H165V373V383H817V373ZM165 373H175V64H165H155V373H165Z" fill="white" mask="url(#path-1-inside-1_79_69)"/>
<path d="M423.912 429.543V425.92L439.892 400.636H442.52V406.247H440.744L428.67 425.352V425.636H450.19V429.543H423.912ZM441.028 437V428.442V426.755V400.636H445.219V437H441.028ZM468.208 437.497C466.125 437.497 464.248 437.083 462.579 436.254C460.91 435.426 459.573 434.289 458.567 432.845C457.56 431.401 457.01 429.756 456.915 427.909H461.177C461.342 429.554 462.088 430.916 463.414 431.993C464.751 433.058 466.349 433.591 468.208 433.591C469.699 433.591 471.025 433.242 472.185 432.543C473.357 431.845 474.274 430.886 474.937 429.667C475.612 428.436 475.949 427.045 475.949 425.494C475.949 423.908 475.6 422.494 474.902 421.251C474.215 419.996 473.268 419.008 472.061 418.286C470.854 417.563 469.474 417.196 467.924 417.185C466.811 417.173 465.669 417.344 464.497 417.7C463.325 418.043 462.36 418.487 461.603 419.031L457.483 418.534L459.685 400.636H478.577V404.543H463.378L462.1 415.267H462.313C463.059 414.675 463.994 414.184 465.118 413.793C466.243 413.403 467.415 413.207 468.634 413.207C470.859 413.207 472.842 413.74 474.582 414.805C476.334 415.859 477.707 417.303 478.702 419.138C479.708 420.973 480.211 423.068 480.211 425.423C480.211 427.743 479.69 429.815 478.648 431.638C477.618 433.449 476.198 434.881 474.387 435.935C472.576 436.976 470.516 437.497 468.208 437.497ZM512.477 437.568C509.92 437.568 507.719 436.964 505.872 435.757C504.026 434.55 502.605 432.887 501.611 430.768C500.616 428.649 500.119 426.228 500.119 423.506C500.119 420.736 500.628 418.291 501.646 416.173C502.676 414.042 504.108 412.379 505.943 411.183C507.79 409.976 509.944 409.372 512.406 409.372C514.324 409.372 516.052 409.727 517.591 410.438C519.13 411.148 520.39 412.142 521.373 413.42C522.355 414.699 522.965 416.19 523.202 417.895H519.011C518.692 416.652 517.982 415.551 516.881 414.592C515.792 413.622 514.324 413.136 512.477 413.136C510.844 413.136 509.411 413.562 508.18 414.415C506.961 415.255 506.008 416.445 505.322 417.984C504.647 419.511 504.31 421.304 504.31 423.364C504.31 425.471 504.641 427.305 505.304 428.868C505.979 430.43 506.926 431.644 508.145 432.508C509.376 433.372 510.82 433.804 512.477 433.804C513.566 433.804 514.555 433.615 515.442 433.236C516.33 432.857 517.082 432.312 517.697 431.602C518.313 430.892 518.751 430.04 519.011 429.045H523.202C522.965 430.655 522.379 432.105 521.444 433.396C520.521 434.674 519.295 435.692 517.768 436.45C516.253 437.195 514.49 437.568 512.477 437.568ZM529.327 437V409.727H533.376V413.989H533.731C534.299 412.533 535.216 411.402 536.483 410.597C537.75 409.781 539.271 409.372 541.046 409.372C542.845 409.372 544.343 409.781 545.538 410.597C546.746 411.402 547.687 412.533 548.362 413.989H548.646C549.344 412.58 550.392 411.461 551.788 410.633C553.185 409.792 554.86 409.372 556.813 409.372C559.252 409.372 561.246 410.136 562.797 411.663C564.348 413.178 565.123 415.539 565.123 418.747V437H560.933V418.747C560.933 416.735 560.382 415.297 559.281 414.433C558.18 413.568 556.884 413.136 555.393 413.136C553.475 413.136 551.99 413.716 550.936 414.876C549.883 416.025 549.356 417.481 549.356 419.244V437H545.094V418.321C545.094 416.77 544.591 415.522 543.585 414.575C542.579 413.616 541.283 413.136 539.697 413.136C538.608 413.136 537.59 413.426 536.643 414.006C535.708 414.586 534.95 415.391 534.37 416.421C533.802 417.439 533.518 418.617 533.518 419.955V437H529.327Z" fill="white"/>
<path d="M124.304 219.773V219.56C124.328 217.299 124.564 215.5 125.014 214.162C125.464 212.824 126.103 211.741 126.932 210.913C127.76 210.084 128.755 209.321 129.915 208.622C130.613 208.196 131.241 207.693 131.797 207.113C132.353 206.521 132.791 205.84 133.111 205.071C133.442 204.302 133.608 203.449 133.608 202.514C133.608 201.354 133.336 200.348 132.791 199.496C132.247 198.643 131.519 197.987 130.607 197.525C129.696 197.063 128.684 196.832 127.571 196.832C126.6 196.832 125.665 197.034 124.766 197.436C123.866 197.839 123.114 198.472 122.511 199.336C121.907 200.2 121.558 201.33 121.463 202.727H116.989C117.083 200.715 117.604 198.993 118.551 197.56C119.51 196.128 120.771 195.033 122.333 194.276C123.907 193.518 125.653 193.139 127.571 193.139C129.654 193.139 131.465 193.554 133.004 194.382C134.555 195.211 135.75 196.347 136.591 197.791C137.443 199.235 137.869 200.881 137.869 202.727C137.869 204.029 137.668 205.207 137.266 206.261C136.875 207.314 136.307 208.255 135.561 209.084C134.827 209.912 133.939 210.646 132.898 211.286C131.856 211.937 131.022 212.623 130.394 213.345C129.767 214.055 129.311 214.902 129.027 215.884C128.743 216.867 128.589 218.092 128.565 219.56V219.773H124.304ZM126.577 230.284C125.701 230.284 124.949 229.97 124.322 229.343C123.694 228.716 123.381 227.964 123.381 227.088C123.381 226.212 123.694 225.46 124.322 224.833C124.949 224.206 125.701 223.892 126.577 223.892C127.453 223.892 128.204 224.206 128.832 224.833C129.459 225.46 129.773 226.212 129.773 227.088C129.773 227.668 129.625 228.201 129.329 228.686C129.045 229.171 128.66 229.562 128.175 229.858C127.701 230.142 127.169 230.284 126.577 230.284Z" fill="#F8B32A"/>
<path d="M121.895 388H117.278L130.631 351.636H135.176L148.528 388H143.912L133.045 357.389H132.761L121.895 388ZM123.599 373.795H142.207V377.702H123.599V373.795Z" fill="white"/>
<path d="M836.403 388V351.636H849.116C851.65 351.636 853.739 352.074 855.384 352.95C857.03 353.814 858.255 354.98 859.06 356.448C859.865 357.904 860.267 359.52 860.267 361.295C860.267 362.858 859.989 364.148 859.433 365.166C858.888 366.184 858.166 366.989 857.266 367.581C856.379 368.173 855.414 368.611 854.372 368.895V369.25C855.485 369.321 856.603 369.712 857.728 370.422C858.853 371.132 859.794 372.15 860.551 373.476C861.309 374.802 861.688 376.423 861.688 378.341C861.688 380.164 861.273 381.803 860.445 383.259C859.616 384.715 858.308 385.869 856.521 386.722C854.733 387.574 852.407 388 849.543 388H836.403ZM840.807 384.094H849.543C852.419 384.094 854.461 383.537 855.668 382.425C856.888 381.3 857.497 379.939 857.497 378.341C857.497 377.11 857.183 375.973 856.556 374.932C855.929 373.878 855.035 373.038 853.875 372.411C852.715 371.771 851.342 371.452 849.756 371.452H840.807V384.094ZM840.807 367.616H848.974C850.3 367.616 851.496 367.356 852.561 366.835C853.638 366.314 854.491 365.58 855.118 364.634C855.757 363.687 856.077 362.574 856.077 361.295C856.077 359.697 855.52 358.342 854.408 357.229C853.295 356.105 851.531 355.543 849.116 355.543H840.807V367.616Z" fill="white"/>
<path d="M865.665 57H861.261C861.001 55.7334 860.545 54.6207 859.894 53.6619C859.255 52.7031 858.474 51.8982 857.55 51.2472C856.639 50.5843 855.627 50.0871 854.514 49.7557C853.402 49.4242 852.241 49.2585 851.034 49.2585C848.832 49.2585 846.838 49.8149 845.05 50.9276C843.275 52.0402 841.86 53.6797 840.807 55.8459C839.765 58.0121 839.244 60.6695 839.244 63.8182C839.244 66.9669 839.765 69.6243 840.807 71.7905C841.86 73.9567 843.275 75.5961 845.05 76.7088C846.838 77.8215 848.832 78.3778 851.034 78.3778C852.241 78.3778 853.402 78.2121 854.514 77.8807C855.627 77.5492 856.639 77.058 857.55 76.407C858.474 75.7441 859.255 74.9332 859.894 73.9744C860.545 73.0038 861.001 71.8911 861.261 70.6364H865.665C865.333 72.4948 864.73 74.1579 863.854 75.6257C862.978 77.0935 861.889 78.3423 860.587 79.3722C859.285 80.3902 857.823 81.1655 856.201 81.6982C854.591 82.2308 852.869 82.4972 851.034 82.4972C847.933 82.4972 845.175 81.7396 842.76 80.2244C840.345 78.7093 838.445 76.5549 837.06 73.7614C835.675 70.9678 834.983 67.6534 834.983 63.8182C834.983 59.983 835.675 56.6686 837.06 53.875C838.445 51.0814 840.345 48.9271 842.76 47.4119C845.175 45.8968 847.933 45.1392 851.034 45.1392C852.869 45.1392 854.591 45.4055 856.201 45.9382C857.823 46.4709 859.285 47.2521 860.587 48.282C861.889 49.3 862.978 50.5428 863.854 52.0107C864.73 53.4666 865.333 55.1297 865.665 57Z" fill="white"/>
<path d="M131.625 82H120.403V45.6364H132.122C135.65 45.6364 138.668 46.3643 141.178 47.8203C143.687 49.2644 145.611 51.3419 146.948 54.0526C148.286 56.7514 148.955 59.983 148.955 63.7472C148.955 67.535 148.28 70.7962 146.93 73.5305C145.581 76.2531 143.616 78.3482 141.036 79.8161C138.455 81.272 135.318 82 131.625 82ZM124.807 78.0938H131.341C134.348 78.0938 136.839 77.5137 138.816 76.3537C140.793 75.1937 142.267 73.5424 143.237 71.3999C144.208 69.2573 144.693 66.7064 144.693 63.7472C144.693 60.8116 144.214 58.2843 143.255 56.1655C142.296 54.0348 140.864 52.4013 138.958 51.2649C137.052 50.1167 134.679 49.5426 131.838 49.5426H124.807V78.0938Z" fill="white"/>
<path d="M269.403 548V511.636H281.69C284.543 511.636 286.875 512.151 288.686 513.181C290.509 514.199 291.858 515.578 292.734 517.318C293.61 519.058 294.048 521 294.048 523.142C294.048 525.285 293.61 527.232 292.734 528.984C291.87 530.736 290.533 532.132 288.722 533.174C286.911 534.204 284.59 534.719 281.761 534.719H272.955V530.812H281.619C283.572 530.812 285.141 530.475 286.325 529.8C287.508 529.126 288.366 528.214 288.899 527.066C289.444 525.906 289.716 524.598 289.716 523.142C289.716 521.686 289.444 520.384 288.899 519.236C288.366 518.088 287.502 517.188 286.307 516.537C285.111 515.874 283.525 515.543 281.548 515.543H273.807V548H269.403ZM311.715 548.568C309.087 548.568 306.821 547.988 304.915 546.828C303.021 545.656 301.559 544.023 300.529 541.928C299.511 539.821 299.002 537.37 299.002 534.577C299.002 531.783 299.511 529.321 300.529 527.19C301.559 525.048 302.991 523.379 304.826 522.183C306.673 520.976 308.827 520.372 311.289 520.372C312.71 520.372 314.112 520.609 315.497 521.082C316.882 521.556 318.143 522.325 319.279 523.391C320.415 524.444 321.321 525.841 321.996 527.581C322.67 529.321 323.008 531.464 323.008 534.009V535.784H301.985V532.162H318.746C318.746 530.623 318.439 529.25 317.823 528.043C317.219 526.835 316.355 525.882 315.231 525.184C314.118 524.486 312.804 524.136 311.289 524.136C309.62 524.136 308.176 524.551 306.957 525.379C305.749 526.196 304.82 527.261 304.169 528.575C303.518 529.889 303.192 531.298 303.192 532.801V535.216C303.192 537.276 303.548 539.022 304.258 540.454C304.98 541.874 305.98 542.957 307.259 543.703C308.537 544.437 310.022 544.804 311.715 544.804C312.816 544.804 313.81 544.65 314.698 544.342C315.598 544.023 316.373 543.549 317.024 542.922C317.675 542.283 318.178 541.49 318.533 540.543L322.582 541.679C322.156 543.052 321.439 544.259 320.433 545.301C319.427 546.331 318.184 547.136 316.705 547.716C315.225 548.284 313.562 548.568 311.715 548.568ZM329.382 548V520.727H333.43V524.847H333.714C334.212 523.497 335.111 522.402 336.413 521.562C337.715 520.721 339.183 520.301 340.817 520.301C341.125 520.301 341.509 520.307 341.971 520.319C342.433 520.331 342.782 520.348 343.018 520.372V524.634C342.876 524.598 342.551 524.545 342.042 524.474C341.545 524.391 341.018 524.349 340.462 524.349C339.136 524.349 337.952 524.628 336.911 525.184C335.881 525.728 335.064 526.486 334.46 527.457C333.868 528.415 333.572 529.51 333.572 530.741V548H329.382ZM347.986 548V520.727H352.176V548H347.986ZM350.116 516.182C349.3 516.182 348.595 515.904 348.003 515.347C347.423 514.791 347.133 514.122 347.133 513.341C347.133 512.56 347.423 511.891 348.003 511.335C348.595 510.778 349.3 510.5 350.116 510.5C350.933 510.5 351.631 510.778 352.211 511.335C352.803 511.891 353.099 512.56 353.099 513.341C353.099 514.122 352.803 514.791 352.211 515.347C351.631 515.904 350.933 516.182 350.116 516.182ZM359.851 548V520.727H363.899V524.989H364.254C364.822 523.533 365.74 522.402 367.006 521.597C368.273 520.781 369.794 520.372 371.57 520.372C373.369 520.372 374.866 520.781 376.062 521.597C377.269 522.402 378.21 523.533 378.885 524.989H379.169C379.867 523.58 380.915 522.461 382.312 521.633C383.709 520.792 385.384 520.372 387.337 520.372C389.775 520.372 391.77 521.136 393.32 522.663C394.871 524.178 395.646 526.539 395.646 529.747V548H391.456V529.747C391.456 527.735 390.906 526.297 389.805 525.433C388.704 524.568 387.408 524.136 385.916 524.136C383.999 524.136 382.513 524.716 381.46 525.876C380.406 527.025 379.879 528.481 379.879 530.244V548H375.618V529.321C375.618 527.77 375.115 526.522 374.109 525.575C373.103 524.616 371.806 524.136 370.22 524.136C369.131 524.136 368.113 524.426 367.166 525.006C366.231 525.586 365.473 526.391 364.893 527.421C364.325 528.439 364.041 529.617 364.041 530.955V548H359.851ZM414.743 548.568C412.115 548.568 409.848 547.988 407.942 546.828C406.048 545.656 404.586 544.023 403.556 541.928C402.538 539.821 402.029 537.37 402.029 534.577C402.029 531.783 402.538 529.321 403.556 527.19C404.586 525.048 406.019 523.379 407.853 522.183C409.7 520.976 411.854 520.372 414.316 520.372C415.737 520.372 417.14 520.609 418.525 521.082C419.909 521.556 421.17 522.325 422.306 523.391C423.443 524.444 424.348 525.841 425.023 527.581C425.698 529.321 426.035 531.464 426.035 534.009V535.784H405.012V532.162H421.774C421.774 530.623 421.466 529.25 420.85 528.043C420.247 526.835 419.383 525.882 418.258 525.184C417.145 524.486 415.832 524.136 414.316 524.136C412.647 524.136 411.203 524.551 409.984 525.379C408.777 526.196 407.847 527.261 407.196 528.575C406.545 529.889 406.22 531.298 406.22 532.801V535.216C406.22 537.276 406.575 539.022 407.285 540.454C408.007 541.874 409.007 542.957 410.286 543.703C411.564 544.437 413.05 544.804 414.743 544.804C415.843 544.804 416.838 544.65 417.725 544.342C418.625 544.023 419.4 543.549 420.051 542.922C420.703 542.283 421.206 541.49 421.561 540.543L425.609 541.679C425.183 543.052 424.467 544.259 423.461 545.301C422.454 546.331 421.212 547.136 419.732 547.716C418.252 548.284 416.589 548.568 414.743 548.568ZM444.27 520.727V524.278H430.137V520.727H444.27ZM434.256 514.193H438.446V540.188C438.446 541.371 438.618 542.259 438.961 542.851C439.316 543.431 439.766 543.821 440.311 544.023C440.867 544.212 441.453 544.307 442.069 544.307C442.53 544.307 442.909 544.283 443.205 544.236C443.501 544.177 443.738 544.129 443.915 544.094L444.767 547.858C444.483 547.964 444.087 548.071 443.578 548.178C443.069 548.296 442.424 548.355 441.642 548.355C440.459 548.355 439.299 548.101 438.162 547.592C437.038 547.083 436.103 546.307 435.357 545.266C434.623 544.224 434.256 542.91 434.256 541.324V514.193ZM461.715 548.568C459.087 548.568 456.821 547.988 454.915 546.828C453.021 545.656 451.559 544.023 450.529 541.928C449.511 539.821 449.002 537.37 449.002 534.577C449.002 531.783 449.511 529.321 450.529 527.19C451.559 525.048 452.991 523.379 454.826 522.183C456.673 520.976 458.827 520.372 461.289 520.372C462.71 520.372 464.112 520.609 465.497 521.082C466.882 521.556 468.143 522.325 469.279 523.391C470.415 524.444 471.321 525.841 471.996 527.581C472.67 529.321 473.008 531.464 473.008 534.009V535.784H451.985V532.162H468.746C468.746 530.623 468.439 529.25 467.823 528.043C467.219 526.835 466.355 525.882 465.231 525.184C464.118 524.486 462.804 524.136 461.289 524.136C459.62 524.136 458.176 524.551 456.957 525.379C455.749 526.196 454.82 527.261 454.169 528.575C453.518 529.889 453.192 531.298 453.192 532.801V535.216C453.192 537.276 453.548 539.022 454.258 540.454C454.98 541.874 455.98 542.957 457.259 543.703C458.537 544.437 460.022 544.804 461.715 544.804C462.816 544.804 463.81 544.65 464.698 544.342C465.598 544.023 466.373 543.549 467.024 542.922C467.675 542.283 468.178 541.49 468.533 540.543L472.582 541.679C472.156 543.052 471.439 544.259 470.433 545.301C469.427 546.331 468.184 547.136 466.705 547.716C465.225 548.284 463.562 548.568 461.715 548.568ZM479.382 548V520.727H483.43V524.847H483.714C484.212 523.497 485.111 522.402 486.413 521.562C487.715 520.721 489.183 520.301 490.817 520.301C491.125 520.301 491.509 520.307 491.971 520.319C492.433 520.331 492.782 520.348 493.018 520.372V524.634C492.876 524.598 492.551 524.545 492.042 524.474C491.545 524.391 491.018 524.349 490.462 524.349C489.136 524.349 487.952 524.628 486.911 525.184C485.881 525.728 485.064 526.486 484.46 527.457C483.868 528.415 483.572 529.51 483.572 530.741V548H479.382ZM513.753 526.48V522.645H535.628V526.48H513.753ZM513.753 536.991V533.156H535.628V536.991H513.753ZM571.783 511.636V548H567.379V516.253H567.166L558.288 522.148V517.673L567.379 511.636H571.783ZM582.241 548V544.804L594.244 531.665C595.652 530.126 596.812 528.788 597.724 527.652C598.635 526.504 599.31 525.427 599.748 524.42C600.198 523.402 600.423 522.337 600.423 521.224C600.423 519.946 600.115 518.839 599.499 517.904C598.896 516.969 598.067 516.247 597.013 515.738C595.96 515.229 594.776 514.974 593.462 514.974C592.066 514.974 590.846 515.264 589.805 515.844C588.775 516.413 587.976 517.212 587.408 518.241C586.851 519.271 586.573 520.479 586.573 521.864H582.383C582.383 519.733 582.874 517.863 583.857 516.253C584.839 514.643 586.177 513.388 587.869 512.489C589.574 511.589 591.486 511.139 593.604 511.139C595.735 511.139 597.623 511.589 599.268 512.489C600.914 513.388 602.204 514.602 603.139 516.129C604.074 517.656 604.542 519.354 604.542 521.224C604.542 522.562 604.299 523.87 603.814 525.148C603.34 526.415 602.512 527.83 601.328 529.392C600.156 530.943 598.529 532.837 596.445 535.074L588.278 543.81V544.094H605.181V548H582.241ZM624.375 548.497C621.7 548.497 619.421 547.769 617.539 546.313C615.657 544.845 614.219 542.721 613.224 539.939C612.23 537.145 611.733 533.772 611.733 529.818C611.733 525.888 612.23 522.532 613.224 519.751C614.231 516.957 615.675 514.826 617.557 513.359C619.451 511.879 621.723 511.139 624.375 511.139C627.027 511.139 629.293 511.879 631.175 513.359C633.069 514.826 634.513 516.957 635.508 519.751C636.514 522.532 637.017 525.888 637.017 529.818C637.017 533.772 636.52 537.145 635.526 539.939C634.531 542.721 633.093 544.845 631.211 546.313C629.329 547.769 627.05 548.497 624.375 548.497ZM624.375 544.591C627.027 544.591 629.086 543.312 630.554 540.756C632.022 538.199 632.756 534.553 632.756 529.818C632.756 526.67 632.418 523.988 631.744 521.775C631.081 519.561 630.122 517.875 628.867 516.714C627.624 515.554 626.127 514.974 624.375 514.974C621.747 514.974 619.693 516.271 618.214 518.863C616.734 521.443 615.994 525.095 615.994 529.818C615.994 532.967 616.326 535.642 616.989 537.844C617.652 540.045 618.604 541.72 619.847 542.869C621.102 544.017 622.611 544.591 624.375 544.591ZM668.977 548.568C666.42 548.568 664.219 547.964 662.372 546.757C660.526 545.55 659.105 543.887 658.111 541.768C657.116 539.649 656.619 537.228 656.619 534.506C656.619 531.736 657.128 529.291 658.146 527.173C659.176 525.042 660.608 523.379 662.443 522.183C664.29 520.976 666.444 520.372 668.906 520.372C670.824 520.372 672.552 520.727 674.091 521.438C675.63 522.148 676.89 523.142 677.873 524.42C678.855 525.699 679.465 527.19 679.702 528.895H675.511C675.192 527.652 674.482 526.551 673.381 525.592C672.292 524.622 670.824 524.136 668.977 524.136C667.344 524.136 665.911 524.562 664.68 525.415C663.461 526.255 662.508 527.445 661.822 528.984C661.147 530.511 660.81 532.304 660.81 534.364C660.81 536.471 661.141 538.305 661.804 539.868C662.479 541.43 663.426 542.644 664.645 543.508C665.876 544.372 667.32 544.804 668.977 544.804C670.066 544.804 671.055 544.615 671.942 544.236C672.83 543.857 673.582 543.312 674.197 542.602C674.813 541.892 675.251 541.04 675.511 540.045H679.702C679.465 541.655 678.879 543.105 677.944 544.396C677.021 545.674 675.795 546.692 674.268 547.45C672.753 548.195 670.99 548.568 668.977 548.568ZM685.827 548V520.727H689.876V524.989H690.231C690.799 523.533 691.716 522.402 692.983 521.597C694.25 520.781 695.771 520.372 697.546 520.372C699.345 520.372 700.843 520.781 702.038 521.597C703.246 522.402 704.187 523.533 704.862 524.989H705.146C705.844 523.58 706.892 522.461 708.288 521.633C709.685 520.792 711.36 520.372 713.313 520.372C715.752 520.372 717.746 521.136 719.297 522.663C720.848 524.178 721.623 526.539 721.623 529.747V548H717.433V529.747C717.433 527.735 716.882 526.297 715.781 525.433C714.68 524.568 713.384 524.136 711.893 524.136C709.975 524.136 708.49 524.716 707.436 525.876C706.383 527.025 705.856 528.481 705.856 530.244V548H701.594V529.321C701.594 527.77 701.091 526.522 700.085 525.575C699.079 524.616 697.783 524.136 696.197 524.136C695.108 524.136 694.09 524.426 693.143 525.006C692.208 525.586 691.45 526.391 690.87 527.421C690.302 528.439 690.018 529.617 690.018 530.955V548H685.827Z" fill="white"/>
<line x1="171" y1="373.019" x2="170" y2="64.0196" stroke="#F8B32A" stroke-width="12"/>
</svg>
