<svg width="1405" height="464" viewBox="0 0 1405 464" fill="none" xmlns="http://www.w3.org/2000/svg">
<mask id="path-1-inside-1_109_226" fill="white">
<path d="M165 64H817V373H165V64Z"/>
</mask>
<path d="M165 64H817V373H165V64Z" fill="#5FD7FF"/>
<path d="M165 64V54H155V64H165ZM817 64H827V54H817V64ZM817 373V383H827V373H817ZM165 373H155V383H165V373ZM165 64V74H817V64V54H165V64ZM817 64H807V373H817H827V64H817ZM817 373V363H165V373V383H817V373ZM165 373H175V64H165H155V373H165Z" fill="white" mask="url(#path-1-inside-1_109_226)"/>
<path d="M423.912 429.543V425.92L439.892 400.636H442.52V406.247H440.744L428.67 425.352V425.636H450.19V429.543H423.912ZM441.028 437V428.442V426.755V400.636H445.219V437H441.028ZM468.208 437.497C466.125 437.497 464.248 437.083 462.579 436.254C460.91 435.426 459.573 434.289 458.567 432.845C457.56 431.401 457.01 429.756 456.915 427.909H461.177C461.342 429.554 462.088 430.916 463.414 431.993C464.751 433.058 466.349 433.591 468.208 433.591C469.699 433.591 471.025 433.242 472.185 432.543C473.357 431.845 474.274 430.886 474.937 429.667C475.612 428.436 475.949 427.045 475.949 425.494C475.949 423.908 475.6 422.494 474.902 421.251C474.215 419.996 473.268 419.008 472.061 418.286C470.854 417.563 469.474 417.196 467.924 417.185C466.811 417.173 465.669 417.344 464.497 417.7C463.325 418.043 462.36 418.487 461.603 419.031L457.483 418.534L459.685 400.636H478.577V404.543H463.378L462.1 415.267H462.313C463.059 414.675 463.994 414.184 465.118 413.793C466.243 413.403 467.415 413.207 468.634 413.207C470.859 413.207 472.842 413.74 474.582 414.805C476.334 415.859 477.707 417.303 478.702 419.138C479.708 420.973 480.211 423.068 480.211 425.423C480.211 427.743 479.69 429.815 478.648 431.638C477.618 433.449 476.198 434.881 474.387 435.935C472.576 436.976 470.516 437.497 468.208 437.497ZM512.477 437.568C509.92 437.568 507.719 436.964 505.872 435.757C504.026 434.55 502.605 432.887 501.611 430.768C500.616 428.649 500.119 426.228 500.119 423.506C500.119 420.736 500.628 418.291 501.646 416.173C502.676 414.042 504.108 412.379 505.943 411.183C507.79 409.976 509.944 409.372 512.406 409.372C514.324 409.372 516.052 409.727 517.591 410.438C519.13 411.148 520.39 412.142 521.373 413.42C522.355 414.699 522.965 416.19 523.202 417.895H519.011C518.692 416.652 517.982 415.551 516.881 414.592C515.792 413.622 514.324 413.136 512.477 413.136C510.844 413.136 509.411 413.562 508.18 414.415C506.961 415.255 506.008 416.445 505.322 417.984C504.647 419.511 504.31 421.304 504.31 423.364C504.31 425.471 504.641 427.305 505.304 428.868C505.979 430.43 506.926 431.644 508.145 432.508C509.376 433.372 510.82 433.804 512.477 433.804C513.566 433.804 514.555 433.615 515.442 433.236C516.33 432.857 517.082 432.312 517.697 431.602C518.313 430.892 518.751 430.04 519.011 429.045H523.202C522.965 430.655 522.379 432.105 521.444 433.396C520.521 434.674 519.295 435.692 517.768 436.45C516.253 437.195 514.49 437.568 512.477 437.568ZM529.327 437V409.727H533.376V413.989H533.731C534.299 412.533 535.216 411.402 536.483 410.597C537.75 409.781 539.271 409.372 541.046 409.372C542.845 409.372 544.343 409.781 545.538 410.597C546.746 411.402 547.687 412.533 548.362 413.989H548.646C549.344 412.58 550.392 411.461 551.788 410.633C553.185 409.792 554.86 409.372 556.813 409.372C559.252 409.372 561.246 410.136 562.797 411.663C564.348 413.178 565.123 415.539 565.123 418.747V437H560.933V418.747C560.933 416.735 560.382 415.297 559.281 414.433C558.18 413.568 556.884 413.136 555.393 413.136C553.475 413.136 551.99 413.716 550.936 414.876C549.883 416.025 549.356 417.481 549.356 419.244V437H545.094V418.321C545.094 416.77 544.591 415.522 543.585 414.575C542.579 413.616 541.283 413.136 539.697 413.136C538.608 413.136 537.59 413.426 536.643 414.006C535.708 414.586 534.95 415.391 534.37 416.421C533.802 417.439 533.518 418.617 533.518 419.955V437H529.327Z" fill="white"/>
<path d="M29.5483 200.636V237H25.1449V205.253H24.9318L16.054 211.148V206.673L25.1449 200.636H29.5483ZM51.37 237.497C49.2867 237.497 47.4105 237.083 45.7415 236.254C44.0724 235.426 42.7348 234.289 41.7287 232.845C40.7225 231.401 40.1721 229.756 40.0774 227.909H44.3388C44.5045 229.554 45.2502 230.916 46.576 231.993C47.9136 233.058 49.5116 233.591 51.37 233.591C52.8615 233.591 54.1873 233.242 55.3473 232.543C56.5192 231.845 57.4366 230.886 58.0994 229.667C58.7741 228.436 59.1115 227.045 59.1115 225.494C59.1115 223.908 58.7623 222.494 58.0639 221.251C57.3774 219.996 56.4304 219.008 55.223 218.286C54.0156 217.563 52.6366 217.196 51.0859 217.185C49.9732 217.173 48.831 217.344 47.6591 217.7C46.4872 218.043 45.5225 218.487 44.7649 219.031L40.6456 218.534L42.8473 200.636H61.7393V204.543H46.5405L45.2621 215.267H45.4751C46.2209 214.675 47.156 214.184 48.2805 213.793C49.4051 213.403 50.5769 213.207 51.7962 213.207C54.0215 213.207 56.0043 213.74 57.7443 214.805C59.4962 215.859 60.8693 217.303 61.8636 219.138C62.8698 220.973 63.3729 223.068 63.3729 225.423C63.3729 227.743 62.852 229.815 61.8104 231.638C60.7805 233.449 59.3601 234.881 57.549 235.935C55.7379 236.976 53.6783 237.497 51.37 237.497ZM95.6394 237.568C93.0826 237.568 90.8809 236.964 89.0343 235.757C87.1877 234.55 85.7672 232.887 84.7729 230.768C83.7786 228.649 83.2814 226.228 83.2814 223.506C83.2814 220.736 83.7904 218.291 84.8084 216.173C85.8382 214.042 87.2705 212.379 89.1053 211.183C90.9519 209.976 93.1062 209.372 95.5684 209.372C97.486 209.372 99.2142 209.727 100.753 210.438C102.292 211.148 103.552 212.142 104.535 213.42C105.517 214.699 106.127 216.19 106.364 217.895H102.173C101.854 216.652 101.144 215.551 100.043 214.592C98.9538 213.622 97.486 213.136 95.6394 213.136C94.0059 213.136 92.5736 213.562 91.3425 214.415C90.1233 215.255 89.1704 216.445 88.4838 217.984C87.8091 219.511 87.4718 221.304 87.4718 223.364C87.4718 225.471 87.8032 227.305 88.4661 228.868C89.1408 230.43 90.0878 231.644 91.307 232.508C92.5381 233.372 93.9822 233.804 95.6394 233.804C96.7284 233.804 97.7168 233.615 98.6046 233.236C99.4924 232.857 100.244 232.312 100.86 231.602C101.475 230.892 101.913 230.04 102.173 229.045H106.364C106.127 230.655 105.541 232.105 104.606 233.396C103.683 234.674 102.458 235.692 100.931 236.45C99.4154 237.195 97.6517 237.568 95.6394 237.568ZM112.49 237V209.727H116.538V213.989H116.893C117.461 212.533 118.378 211.402 119.645 210.597C120.912 209.781 122.433 209.372 124.208 209.372C126.008 209.372 127.505 209.781 128.7 210.597C129.908 211.402 130.849 212.533 131.524 213.989H131.808C132.506 212.58 133.554 211.461 134.95 210.633C136.347 209.792 138.022 209.372 139.975 209.372C142.414 209.372 144.408 210.136 145.959 211.663C147.51 213.178 148.285 215.539 148.285 218.747V237H144.095V218.747C144.095 216.735 143.544 215.297 142.443 214.433C141.343 213.568 140.046 213.136 138.555 213.136C136.637 213.136 135.152 213.716 134.098 214.876C133.045 216.025 132.518 217.481 132.518 219.244V237H128.257V218.321C128.257 216.77 127.753 215.522 126.747 214.575C125.741 213.616 124.445 213.136 122.859 213.136C121.77 213.136 120.752 213.426 119.805 214.006C118.87 214.586 118.112 215.391 117.532 216.421C116.964 217.439 116.68 218.617 116.68 219.955V237H112.49Z" fill="#00FF99"/>
<path d="M121.895 388H117.278L130.631 351.636H135.176L148.528 388H143.912L133.045 357.389H132.761L121.895 388ZM123.599 373.795H142.207V377.702H123.599V373.795Z" fill="white"/>
<path d="M836.403 388V351.636H849.116C851.65 351.636 853.739 352.074 855.384 352.95C857.03 353.814 858.255 354.98 859.06 356.448C859.865 357.904 860.267 359.52 860.267 361.295C860.267 362.858 859.989 364.148 859.433 365.166C858.888 366.184 858.166 366.989 857.266 367.581C856.379 368.173 855.414 368.611 854.372 368.895V369.25C855.485 369.321 856.603 369.712 857.728 370.422C858.853 371.132 859.794 372.15 860.551 373.476C861.309 374.802 861.688 376.423 861.688 378.341C861.688 380.164 861.273 381.803 860.445 383.259C859.616 384.715 858.308 385.869 856.521 386.722C854.733 387.574 852.407 388 849.543 388H836.403ZM840.807 384.094H849.543C852.419 384.094 854.461 383.537 855.668 382.425C856.888 381.3 857.497 379.939 857.497 378.341C857.497 377.11 857.183 375.973 856.556 374.932C855.929 373.878 855.035 373.038 853.875 372.411C852.715 371.771 851.342 371.452 849.756 371.452H840.807V384.094ZM840.807 367.616H848.974C850.3 367.616 851.496 367.356 852.561 366.835C853.638 366.314 854.491 365.58 855.118 364.634C855.757 363.687 856.077 362.574 856.077 361.295C856.077 359.697 855.52 358.342 854.408 357.229C853.295 356.105 851.531 355.543 849.116 355.543H840.807V367.616Z" fill="white"/>
<path d="M865.665 57H861.261C861.001 55.7334 860.545 54.6207 859.894 53.6619C859.255 52.7031 858.474 51.8982 857.55 51.2472C856.639 50.5843 855.627 50.0871 854.514 49.7557C853.402 49.4242 852.241 49.2585 851.034 49.2585C848.832 49.2585 846.838 49.8149 845.05 50.9276C843.275 52.0402 841.86 53.6797 840.807 55.8459C839.765 58.0121 839.244 60.6695 839.244 63.8182C839.244 66.9669 839.765 69.6243 840.807 71.7905C841.86 73.9567 843.275 75.5961 845.05 76.7088C846.838 77.8215 848.832 78.3778 851.034 78.3778C852.241 78.3778 853.402 78.2121 854.514 77.8807C855.627 77.5492 856.639 77.058 857.55 76.407C858.474 75.7441 859.255 74.9332 859.894 73.9744C860.545 73.0038 861.001 71.8911 861.261 70.6364H865.665C865.333 72.4948 864.73 74.1579 863.854 75.6257C862.978 77.0935 861.889 78.3423 860.587 79.3722C859.285 80.3902 857.823 81.1655 856.201 81.6982C854.591 82.2308 852.869 82.4972 851.034 82.4972C847.933 82.4972 845.175 81.7396 842.76 80.2244C840.345 78.7093 838.445 76.5549 837.06 73.7614C835.675 70.9678 834.983 67.6534 834.983 63.8182C834.983 59.983 835.675 56.6686 837.06 53.875C838.445 51.0814 840.345 48.9271 842.76 47.4119C845.175 45.8968 847.933 45.1392 851.034 45.1392C852.869 45.1392 854.591 45.4055 856.201 45.9382C857.823 46.4709 859.285 47.2521 860.587 48.282C861.889 49.3 862.978 50.5428 863.854 52.0107C864.73 53.4666 865.333 55.1297 865.665 57Z" fill="white"/>
<path d="M131.625 82H120.403V45.6364H132.122C135.65 45.6364 138.668 46.3643 141.178 47.8203C143.687 49.2644 145.611 51.3419 146.948 54.0526C148.286 56.7514 148.955 59.983 148.955 63.7472C148.955 67.535 148.28 70.7962 146.93 73.5305C145.581 76.2531 143.616 78.3482 141.036 79.8161C138.455 81.272 135.318 82 131.625 82ZM124.807 78.0938H131.341C134.348 78.0938 136.839 77.5137 138.816 76.3537C140.793 75.1937 142.267 73.5424 143.237 71.3999C144.208 69.2573 144.693 66.7064 144.693 63.7472C144.693 60.8116 144.214 58.2843 143.255 56.1655C142.296 54.0348 140.864 52.4013 138.958 51.2649C137.052 50.1167 134.679 49.5426 131.838 49.5426H124.807V78.0938Z" fill="white"/>
<path d="M873.403 219V182.636H877.807V200.676H878.233L894.568 182.636H900.321L885.051 199.043L900.321 219H894.994L882.352 202.097L877.807 207.21V219H873.403ZM914.885 219.568C912.257 219.568 909.99 218.988 908.085 217.828C906.191 216.656 904.729 215.023 903.699 212.928C902.681 210.821 902.172 208.37 902.172 205.577C902.172 202.783 902.681 200.321 903.699 198.19C904.729 196.048 906.161 194.379 907.996 193.183C909.843 191.976 911.997 191.372 914.459 191.372C915.879 191.372 917.282 191.609 918.667 192.082C920.052 192.556 921.313 193.325 922.449 194.391C923.585 195.444 924.491 196.841 925.166 198.581C925.84 200.321 926.178 202.464 926.178 205.009V206.784H905.155V203.162H921.916C921.916 201.623 921.609 200.25 920.993 199.043C920.389 197.835 919.525 196.882 918.401 196.184C917.288 195.486 915.974 195.136 914.459 195.136C912.79 195.136 911.346 195.551 910.127 196.379C908.919 197.196 907.99 198.261 907.339 199.575C906.688 200.889 906.362 202.298 906.362 203.801V206.216C906.362 208.276 906.718 210.022 907.428 211.454C908.15 212.874 909.15 213.957 910.428 214.703C911.707 215.437 913.192 215.804 914.885 215.804C915.986 215.804 916.98 215.65 917.868 215.342C918.768 215.023 919.543 214.549 920.194 213.922C920.845 213.283 921.348 212.49 921.703 211.543L925.752 212.679C925.325 214.052 924.609 215.259 923.603 216.301C922.597 217.331 921.354 218.136 919.874 218.716C918.395 219.284 916.732 219.568 914.885 219.568ZM936.742 182.636V219H932.552V182.636H936.742ZM944.417 219V191.727H948.608V219H944.417ZM946.548 187.182C945.731 187.182 945.027 186.904 944.435 186.347C943.855 185.791 943.565 185.122 943.565 184.341C943.565 183.56 943.855 182.891 944.435 182.335C945.027 181.778 945.731 181.5 946.548 181.5C947.365 181.5 948.063 181.778 948.643 182.335C949.235 182.891 949.531 183.56 949.531 184.341C949.531 185.122 949.235 185.791 948.643 186.347C948.063 186.904 947.365 187.182 946.548 187.182ZM960.473 182.636V219H956.282V182.636H960.473ZM968.148 219V191.727H972.338V219H968.148ZM970.278 187.182C969.462 187.182 968.757 186.904 968.165 186.347C967.585 185.791 967.295 185.122 967.295 184.341C967.295 183.56 967.585 182.891 968.165 182.335C968.757 181.778 969.462 181.5 970.278 181.5C971.095 181.5 971.794 181.778 972.374 182.335C972.965 182.891 973.261 183.56 973.261 184.341C973.261 185.122 972.965 185.791 972.374 186.347C971.794 186.904 971.095 187.182 970.278 187.182ZM984.203 202.594V219H980.013V191.727H984.061V195.989H984.416C985.056 194.604 986.026 193.491 987.328 192.651C988.63 191.798 990.311 191.372 992.371 191.372C994.218 191.372 995.833 191.751 997.218 192.509C998.603 193.254 999.68 194.391 1000.45 195.918C1001.22 197.433 1001.6 199.35 1001.6 201.67V219H997.414V201.955C997.414 199.812 996.857 198.143 995.744 196.947C994.632 195.74 993.105 195.136 991.164 195.136C989.826 195.136 988.63 195.426 987.577 196.006C986.535 196.586 985.713 197.433 985.109 198.545C984.505 199.658 984.203 201.008 984.203 202.594ZM1020.27 229.795C1018.25 229.795 1016.51 229.535 1015.05 229.014C1013.59 228.505 1012.38 227.83 1011.41 226.99C1010.45 226.161 1009.69 225.274 1009.12 224.327L1012.46 221.983C1012.84 222.48 1013.32 223.048 1013.9 223.688C1014.48 224.339 1015.27 224.901 1016.27 225.374C1017.29 225.86 1018.62 226.102 1020.27 226.102C1022.47 226.102 1024.29 225.57 1025.72 224.504C1027.15 223.439 1027.87 221.77 1027.87 219.497V213.957H1027.51C1027.21 214.455 1026.77 215.07 1026.2 215.804C1025.64 216.526 1024.84 217.171 1023.79 217.739C1022.74 218.296 1021.33 218.574 1019.56 218.574C1017.36 218.574 1015.38 218.053 1013.63 217.011C1011.89 215.97 1010.51 214.455 1009.49 212.466C1008.49 210.477 1007.98 208.062 1007.98 205.222C1007.98 202.428 1008.47 199.996 1009.46 197.924C1010.44 195.841 1011.81 194.231 1013.56 193.094C1015.31 191.946 1017.33 191.372 1019.63 191.372C1021.41 191.372 1022.81 191.668 1023.86 192.26C1024.91 192.84 1025.71 193.503 1026.27 194.249C1026.84 194.982 1027.28 195.586 1027.58 196.06H1028.01V191.727H1032.06V219.781C1032.06 222.125 1031.53 224.031 1030.46 225.499C1029.41 226.978 1027.99 228.061 1026.2 228.748C1024.42 229.446 1022.45 229.795 1020.27 229.795ZM1020.13 214.81C1021.81 214.81 1023.23 214.425 1024.39 213.656C1025.55 212.886 1026.43 211.779 1027.03 210.335C1027.64 208.891 1027.94 207.163 1027.94 205.151C1027.94 203.186 1027.64 201.451 1027.05 199.948C1026.46 198.445 1025.58 197.267 1024.42 196.415C1023.26 195.562 1021.83 195.136 1020.13 195.136C1018.35 195.136 1016.87 195.586 1015.69 196.486C1014.52 197.385 1013.63 198.593 1013.04 200.108C1012.46 201.623 1012.17 203.304 1012.17 205.151C1012.17 207.045 1012.47 208.719 1013.06 210.175C1013.66 211.62 1014.55 212.756 1015.72 213.585C1016.91 214.401 1018.38 214.81 1020.13 214.81ZM1055.5 197.48V193.645H1077.37V197.48H1055.5ZM1055.5 207.991V204.156H1077.37V207.991H1055.5ZM1113.53 182.636V219H1109.12V187.253H1108.91L1100.03 193.148V188.673L1109.12 182.636H1113.53ZM1123.98 219V215.804L1135.99 202.665C1137.4 201.126 1138.56 199.788 1139.47 198.652C1140.38 197.504 1141.05 196.427 1141.49 195.42C1141.94 194.402 1142.17 193.337 1142.17 192.224C1142.17 190.946 1141.86 189.839 1141.24 188.904C1140.64 187.969 1139.81 187.247 1138.76 186.738C1137.7 186.229 1136.52 185.974 1135.21 185.974C1133.81 185.974 1132.59 186.264 1131.55 186.844C1130.52 187.413 1129.72 188.212 1129.15 189.241C1128.6 190.271 1128.32 191.479 1128.32 192.864H1124.13C1124.13 190.733 1124.62 188.863 1125.6 187.253C1126.58 185.643 1127.92 184.388 1129.61 183.489C1131.32 182.589 1133.23 182.139 1135.35 182.139C1137.48 182.139 1139.37 182.589 1141.01 183.489C1142.66 184.388 1143.95 185.602 1144.88 187.129C1145.82 188.656 1146.29 190.354 1146.29 192.224C1146.29 193.562 1146.04 194.87 1145.56 196.148C1145.08 197.415 1144.26 198.83 1143.07 200.392C1141.9 201.943 1140.27 203.837 1138.19 206.074L1130.02 214.81V215.094H1146.93V219H1123.98ZM1166.12 219.497C1163.44 219.497 1161.17 218.769 1159.28 217.313C1157.4 215.845 1155.96 213.721 1154.97 210.939C1153.97 208.145 1153.48 204.772 1153.48 200.818C1153.48 196.888 1153.97 193.532 1154.97 190.751C1155.97 187.957 1157.42 185.826 1159.3 184.359C1161.19 182.879 1163.47 182.139 1166.12 182.139C1168.77 182.139 1171.04 182.879 1172.92 184.359C1174.81 185.826 1176.26 187.957 1177.25 190.751C1178.26 193.532 1178.76 196.888 1178.76 200.818C1178.76 204.772 1178.26 208.145 1177.27 210.939C1176.28 213.721 1174.84 215.845 1172.96 217.313C1171.07 218.769 1168.79 219.497 1166.12 219.497ZM1166.12 215.591C1168.77 215.591 1170.83 214.312 1172.3 211.756C1173.77 209.199 1174.5 205.553 1174.5 200.818C1174.5 197.67 1174.16 194.988 1173.49 192.775C1172.82 190.561 1171.87 188.875 1170.61 187.714C1169.37 186.554 1167.87 185.974 1166.12 185.974C1163.49 185.974 1161.44 187.271 1159.96 189.863C1158.48 192.443 1157.74 196.095 1157.74 200.818C1157.74 203.967 1158.07 206.642 1158.73 208.844C1159.4 211.045 1160.35 212.72 1161.59 213.869C1162.85 215.017 1164.36 215.591 1166.12 215.591ZM1210.72 219.568C1208.16 219.568 1205.96 218.964 1204.12 217.757C1202.27 216.55 1200.85 214.887 1199.85 212.768C1198.86 210.649 1198.36 208.228 1198.36 205.506C1198.36 202.736 1198.87 200.291 1199.89 198.173C1200.92 196.042 1202.35 194.379 1204.19 193.183C1206.03 191.976 1208.19 191.372 1210.65 191.372C1212.57 191.372 1214.3 191.727 1215.84 192.438C1217.37 193.148 1218.63 194.142 1219.62 195.42C1220.6 196.699 1221.21 198.19 1221.45 199.895H1217.26C1216.94 198.652 1216.23 197.551 1215.12 196.592C1214.04 195.622 1212.57 195.136 1210.72 195.136C1209.09 195.136 1207.66 195.562 1206.42 196.415C1205.21 197.255 1204.25 198.445 1203.57 199.984C1202.89 201.511 1202.55 203.304 1202.55 205.364C1202.55 207.471 1202.89 209.305 1203.55 210.868C1204.22 212.43 1205.17 213.644 1206.39 214.508C1207.62 215.372 1209.06 215.804 1210.72 215.804C1211.81 215.804 1212.8 215.615 1213.69 215.236C1214.57 214.857 1215.33 214.312 1215.94 213.602C1216.56 212.892 1217 212.04 1217.26 211.045H1221.45C1221.21 212.655 1220.62 214.105 1219.69 215.396C1218.76 216.674 1217.54 217.692 1216.01 218.45C1214.5 219.195 1212.73 219.568 1210.72 219.568ZM1227.57 219V191.727H1231.62V195.989H1231.97C1232.54 194.533 1233.46 193.402 1234.73 192.597C1235.99 191.781 1237.51 191.372 1239.29 191.372C1241.09 191.372 1242.59 191.781 1243.78 192.597C1244.99 193.402 1245.93 194.533 1246.61 195.989H1246.89C1247.59 194.58 1248.64 193.461 1250.03 192.633C1251.43 191.792 1253.1 191.372 1255.06 191.372C1257.5 191.372 1259.49 192.136 1261.04 193.663C1262.59 195.178 1263.37 197.539 1263.37 200.747V219H1259.18V200.747C1259.18 198.735 1258.63 197.297 1257.53 196.433C1256.42 195.568 1255.13 195.136 1253.64 195.136C1251.72 195.136 1250.23 195.716 1249.18 196.876C1248.13 198.025 1247.6 199.481 1247.6 201.244V219H1243.34V200.321C1243.34 198.77 1242.84 197.522 1241.83 196.575C1240.82 195.616 1239.53 195.136 1237.94 195.136C1236.85 195.136 1235.83 195.426 1234.89 196.006C1233.95 196.586 1233.19 197.391 1232.61 198.421C1232.05 199.439 1231.76 200.617 1231.76 201.955V219H1227.57Z" fill="white"/>
<line x1="171" y1="373.019" x2="170" y2="64.0196" stroke="#00FF99" stroke-width="12"/>
</svg>
