<svg width="1405" height="464" viewBox="0 0 1405 464" fill="none" xmlns="http://www.w3.org/2000/svg">
<mask id="path-1-inside-1_79_89" fill="white">
<path d="M165 64H817V373H165V64Z"/>
</mask>
<path d="M165 64H817V373H165V64Z" fill="#5FD7FF"/>
<path d="M165 64V54H155V64H165ZM817 64H827V54H817V64ZM817 373V383H827V373H817ZM165 373H155V383H165V373ZM165 64V74H817V64V54H165V64ZM817 64H807V373H817H827V64H817ZM817 373V363H165V373V383H817V373ZM165 373H175V64H165H155V373H165Z" fill="white" mask="url(#path-1-inside-1_79_89)"/>
<path d="M423.912 429.543V425.92L439.892 400.636H442.52V406.247H440.744L428.67 425.352V425.636H450.19V429.543H423.912ZM441.028 437V428.442V426.755V400.636H445.219V437H441.028ZM468.208 437.497C466.125 437.497 464.248 437.083 462.579 436.254C460.91 435.426 459.573 434.289 458.567 432.845C457.56 431.401 457.01 429.756 456.915 427.909H461.177C461.342 429.554 462.088 430.916 463.414 431.993C464.751 433.058 466.349 433.591 468.208 433.591C469.699 433.591 471.025 433.242 472.185 432.543C473.357 431.845 474.274 430.886 474.937 429.667C475.612 428.436 475.949 427.045 475.949 425.494C475.949 423.908 475.6 422.494 474.902 421.251C474.215 419.996 473.268 419.008 472.061 418.286C470.854 417.563 469.474 417.196 467.924 417.185C466.811 417.173 465.669 417.344 464.497 417.7C463.325 418.043 462.36 418.487 461.603 419.031L457.483 418.534L459.685 400.636H478.577V404.543H463.378L462.1 415.267H462.313C463.059 414.675 463.994 414.184 465.118 413.793C466.243 413.403 467.415 413.207 468.634 413.207C470.859 413.207 472.842 413.74 474.582 414.805C476.334 415.859 477.707 417.303 478.702 419.138C479.708 420.973 480.211 423.068 480.211 425.423C480.211 427.743 479.69 429.815 478.648 431.638C477.618 433.449 476.198 434.881 474.387 435.935C472.576 436.976 470.516 437.497 468.208 437.497ZM512.477 437.568C509.92 437.568 507.719 436.964 505.872 435.757C504.026 434.55 502.605 432.887 501.611 430.768C500.616 428.649 500.119 426.228 500.119 423.506C500.119 420.736 500.628 418.291 501.646 416.173C502.676 414.042 504.108 412.379 505.943 411.183C507.79 409.976 509.944 409.372 512.406 409.372C514.324 409.372 516.052 409.727 517.591 410.438C519.13 411.148 520.39 412.142 521.373 413.42C522.355 414.699 522.965 416.19 523.202 417.895H519.011C518.692 416.652 517.982 415.551 516.881 414.592C515.792 413.622 514.324 413.136 512.477 413.136C510.844 413.136 509.411 413.562 508.18 414.415C506.961 415.255 506.008 416.445 505.322 417.984C504.647 419.511 504.31 421.304 504.31 423.364C504.31 425.471 504.641 427.305 505.304 428.868C505.979 430.43 506.926 431.644 508.145 432.508C509.376 433.372 510.82 433.804 512.477 433.804C513.566 433.804 514.555 433.615 515.442 433.236C516.33 432.857 517.082 432.312 517.697 431.602C518.313 430.892 518.751 430.04 519.011 429.045H523.202C522.965 430.655 522.379 432.105 521.444 433.396C520.521 434.674 519.295 435.692 517.768 436.45C516.253 437.195 514.49 437.568 512.477 437.568ZM529.327 437V409.727H533.376V413.989H533.731C534.299 412.533 535.216 411.402 536.483 410.597C537.75 409.781 539.271 409.372 541.046 409.372C542.845 409.372 544.343 409.781 545.538 410.597C546.746 411.402 547.687 412.533 548.362 413.989H548.646C549.344 412.58 550.392 411.461 551.788 410.633C553.185 409.792 554.86 409.372 556.813 409.372C559.252 409.372 561.246 410.136 562.797 411.663C564.348 413.178 565.123 415.539 565.123 418.747V437H560.933V418.747C560.933 416.735 560.382 415.297 559.281 414.433C558.18 413.568 556.884 413.136 555.393 413.136C553.475 413.136 551.99 413.716 550.936 414.876C549.883 416.025 549.356 417.481 549.356 419.244V437H545.094V418.321C545.094 416.77 544.591 415.522 543.585 414.575C542.579 413.616 541.283 413.136 539.697 413.136C538.608 413.136 537.59 413.426 536.643 414.006C535.708 414.586 534.95 415.391 534.37 416.421C533.802 417.439 533.518 418.617 533.518 419.955V437H529.327Z" fill="white"/>
<path d="M29.5483 200.636V237H25.1449V205.253H24.9318L16.054 211.148V206.673L25.1449 200.636H29.5483ZM51.37 237.497C49.2867 237.497 47.4105 237.083 45.7415 236.254C44.0724 235.426 42.7348 234.289 41.7287 232.845C40.7225 231.401 40.1721 229.756 40.0774 227.909H44.3388C44.5045 229.554 45.2502 230.916 46.576 231.993C47.9136 233.058 49.5116 233.591 51.37 233.591C52.8615 233.591 54.1873 233.242 55.3473 232.543C56.5192 231.845 57.4366 230.886 58.0994 229.667C58.7741 228.436 59.1115 227.045 59.1115 225.494C59.1115 223.908 58.7623 222.494 58.0639 221.251C57.3774 219.996 56.4304 219.008 55.223 218.286C54.0156 217.563 52.6366 217.196 51.0859 217.185C49.9732 217.173 48.831 217.344 47.6591 217.7C46.4872 218.043 45.5225 218.487 44.7649 219.031L40.6456 218.534L42.8473 200.636H61.7393V204.543H46.5405L45.2621 215.267H45.4751C46.2209 214.675 47.156 214.184 48.2805 213.793C49.4051 213.403 50.5769 213.207 51.7962 213.207C54.0215 213.207 56.0043 213.74 57.7443 214.805C59.4962 215.859 60.8693 217.303 61.8636 219.138C62.8698 220.973 63.3729 223.068 63.3729 225.423C63.3729 227.743 62.852 229.815 61.8104 231.638C60.7805 233.449 59.3601 234.881 57.549 235.935C55.7379 236.976 53.6783 237.497 51.37 237.497ZM95.6394 237.568C93.0826 237.568 90.8809 236.964 89.0343 235.757C87.1877 234.55 85.7672 232.887 84.7729 230.768C83.7786 228.649 83.2814 226.228 83.2814 223.506C83.2814 220.736 83.7904 218.291 84.8084 216.173C85.8382 214.042 87.2705 212.379 89.1053 211.183C90.9519 209.976 93.1062 209.372 95.5684 209.372C97.486 209.372 99.2142 209.727 100.753 210.438C102.292 211.148 103.552 212.142 104.535 213.42C105.517 214.699 106.127 216.19 106.364 217.895H102.173C101.854 216.652 101.144 215.551 100.043 214.592C98.9538 213.622 97.486 213.136 95.6394 213.136C94.0059 213.136 92.5736 213.562 91.3425 214.415C90.1233 215.255 89.1704 216.445 88.4838 217.984C87.8091 219.511 87.4718 221.304 87.4718 223.364C87.4718 225.471 87.8032 227.305 88.4661 228.868C89.1408 230.43 90.0878 231.644 91.307 232.508C92.5381 233.372 93.9822 233.804 95.6394 233.804C96.7284 233.804 97.7168 233.615 98.6046 233.236C99.4924 232.857 100.244 232.312 100.86 231.602C101.475 230.892 101.913 230.04 102.173 229.045H106.364C106.127 230.655 105.541 232.105 104.606 233.396C103.683 234.674 102.458 235.692 100.931 236.45C99.4154 237.195 97.6517 237.568 95.6394 237.568ZM112.49 237V209.727H116.538V213.989H116.893C117.461 212.533 118.378 211.402 119.645 210.597C120.912 209.781 122.433 209.372 124.208 209.372C126.008 209.372 127.505 209.781 128.7 210.597C129.908 211.402 130.849 212.533 131.524 213.989H131.808C132.506 212.58 133.554 211.461 134.95 210.633C136.347 209.792 138.022 209.372 139.975 209.372C142.414 209.372 144.408 210.136 145.959 211.663C147.51 213.178 148.285 215.539 148.285 218.747V237H144.095V218.747C144.095 216.735 143.544 215.297 142.443 214.433C141.343 213.568 140.046 213.136 138.555 213.136C136.637 213.136 135.152 213.716 134.098 214.876C133.045 216.025 132.518 217.481 132.518 219.244V237H128.257V218.321C128.257 216.77 127.753 215.522 126.747 214.575C125.741 213.616 124.445 213.136 122.859 213.136C121.77 213.136 120.752 213.426 119.805 214.006C118.87 214.586 118.112 215.391 117.532 216.421C116.964 217.439 116.68 218.617 116.68 219.955V237H112.49Z" fill="#00FF99"/>
<path d="M121.895 388H117.278L130.631 351.636H135.176L148.528 388H143.912L133.045 357.389H132.761L121.895 388ZM123.599 373.795H142.207V377.702H123.599V373.795Z" fill="white"/>
<path d="M836.403 388V351.636H849.116C851.65 351.636 853.739 352.074 855.384 352.95C857.03 353.814 858.255 354.98 859.06 356.448C859.865 357.904 860.267 359.52 860.267 361.295C860.267 362.858 859.989 364.148 859.433 365.166C858.888 366.184 858.166 366.989 857.266 367.581C856.379 368.173 855.414 368.611 854.372 368.895V369.25C855.485 369.321 856.603 369.712 857.728 370.422C858.853 371.132 859.794 372.15 860.551 373.476C861.309 374.802 861.688 376.423 861.688 378.341C861.688 380.164 861.273 381.803 860.445 383.259C859.616 384.715 858.308 385.869 856.521 386.722C854.733 387.574 852.407 388 849.543 388H836.403ZM840.807 384.094H849.543C852.419 384.094 854.461 383.537 855.668 382.425C856.888 381.3 857.497 379.939 857.497 378.341C857.497 377.11 857.183 375.973 856.556 374.932C855.929 373.878 855.035 373.038 853.875 372.411C852.715 371.771 851.342 371.452 849.756 371.452H840.807V384.094ZM840.807 367.616H848.974C850.3 367.616 851.496 367.356 852.561 366.835C853.638 366.314 854.491 365.58 855.118 364.634C855.757 363.687 856.077 362.574 856.077 361.295C856.077 359.697 855.52 358.342 854.408 357.229C853.295 356.105 851.531 355.543 849.116 355.543H840.807V367.616Z" fill="white"/>
<path d="M865.665 57H861.261C861.001 55.7334 860.545 54.6207 859.894 53.6619C859.255 52.7031 858.474 51.8982 857.55 51.2472C856.639 50.5843 855.627 50.0871 854.514 49.7557C853.402 49.4242 852.241 49.2585 851.034 49.2585C848.832 49.2585 846.838 49.8149 845.05 50.9276C843.275 52.0402 841.86 53.6797 840.807 55.8459C839.765 58.0121 839.244 60.6695 839.244 63.8182C839.244 66.9669 839.765 69.6243 840.807 71.7905C841.86 73.9567 843.275 75.5961 845.05 76.7088C846.838 77.8215 848.832 78.3778 851.034 78.3778C852.241 78.3778 853.402 78.2121 854.514 77.8807C855.627 77.5492 856.639 77.058 857.55 76.407C858.474 75.7441 859.255 74.9332 859.894 73.9744C860.545 73.0038 861.001 71.8911 861.261 70.6364H865.665C865.333 72.4948 864.73 74.1579 863.854 75.6257C862.978 77.0935 861.889 78.3423 860.587 79.3722C859.285 80.3902 857.823 81.1655 856.201 81.6982C854.591 82.2308 852.869 82.4972 851.034 82.4972C847.933 82.4972 845.175 81.7396 842.76 80.2244C840.345 78.7093 838.445 76.5549 837.06 73.7614C835.675 70.9678 834.983 67.6534 834.983 63.8182C834.983 59.983 835.675 56.6686 837.06 53.875C838.445 51.0814 840.345 48.9271 842.76 47.4119C845.175 45.8968 847.933 45.1392 851.034 45.1392C852.869 45.1392 854.591 45.4055 856.201 45.9382C857.823 46.4709 859.285 47.2521 860.587 48.282C861.889 49.3 862.978 50.5428 863.854 52.0107C864.73 53.4666 865.333 55.1297 865.665 57Z" fill="white"/>
<path d="M131.625 82H120.403V45.6364H132.122C135.65 45.6364 138.668 46.3643 141.178 47.8203C143.687 49.2644 145.611 51.3419 146.948 54.0526C148.286 56.7514 148.955 59.983 148.955 63.7472C148.955 67.535 148.28 70.7962 146.93 73.5305C145.581 76.2531 143.616 78.3482 141.036 79.8161C138.455 81.272 135.318 82 131.625 82ZM124.807 78.0938H131.341C134.348 78.0938 136.839 77.5137 138.816 76.3537C140.793 75.1937 142.267 73.5424 143.237 71.3999C144.208 69.2573 144.693 66.7064 144.693 63.7472C144.693 60.8116 144.214 58.2843 143.255 56.1655C142.296 54.0348 140.864 52.4013 138.958 51.2649C137.052 50.1167 134.679 49.5426 131.838 49.5426H124.807V78.0938Z" fill="white"/>
<path d="M873.403 219V182.636H885.69C888.543 182.636 890.875 183.151 892.686 184.181C894.509 185.199 895.858 186.578 896.734 188.318C897.61 190.058 898.048 192 898.048 194.142C898.048 196.285 897.61 198.232 896.734 199.984C895.87 201.736 894.533 203.132 892.722 204.174C890.911 205.204 888.59 205.719 885.761 205.719H876.955V201.812H885.619C887.572 201.812 889.141 201.475 890.325 200.8C891.508 200.126 892.366 199.214 892.899 198.066C893.444 196.906 893.716 195.598 893.716 194.142C893.716 192.686 893.444 191.384 892.899 190.236C892.366 189.088 891.502 188.188 890.307 187.537C889.111 186.874 887.525 186.543 885.548 186.543H877.807V219H873.403ZM915.715 219.568C913.087 219.568 910.821 218.988 908.915 217.828C907.021 216.656 905.559 215.023 904.529 212.928C903.511 210.821 903.002 208.37 903.002 205.577C903.002 202.783 903.511 200.321 904.529 198.19C905.559 196.048 906.991 194.379 908.826 193.183C910.673 191.976 912.827 191.372 915.289 191.372C916.71 191.372 918.112 191.609 919.497 192.082C920.882 192.556 922.143 193.325 923.279 194.391C924.415 195.444 925.321 196.841 925.996 198.581C926.67 200.321 927.008 202.464 927.008 205.009V206.784H905.985V203.162H922.746C922.746 201.623 922.439 200.25 921.823 199.043C921.219 197.835 920.355 196.882 919.231 196.184C918.118 195.486 916.804 195.136 915.289 195.136C913.62 195.136 912.176 195.551 910.957 196.379C909.749 197.196 908.82 198.261 908.169 199.575C907.518 200.889 907.192 202.298 907.192 203.801V206.216C907.192 208.276 907.548 210.022 908.258 211.454C908.98 212.874 909.98 213.957 911.259 214.703C912.537 215.437 914.022 215.804 915.715 215.804C916.816 215.804 917.81 215.65 918.698 215.342C919.598 215.023 920.373 214.549 921.024 213.922C921.675 213.283 922.178 212.49 922.533 211.543L926.582 212.679C926.156 214.052 925.439 215.259 924.433 216.301C923.427 217.331 922.184 218.136 920.705 218.716C919.225 219.284 917.562 219.568 915.715 219.568ZM933.382 219V191.727H937.43V195.847H937.714C938.212 194.497 939.111 193.402 940.413 192.562C941.715 191.721 943.183 191.301 944.817 191.301C945.125 191.301 945.509 191.307 945.971 191.319C946.433 191.331 946.782 191.348 947.018 191.372V195.634C946.876 195.598 946.551 195.545 946.042 195.474C945.545 195.391 945.018 195.349 944.462 195.349C943.136 195.349 941.952 195.628 940.911 196.184C939.881 196.728 939.064 197.486 938.46 198.457C937.868 199.415 937.572 200.51 937.572 201.741V219H933.382ZM951.986 219V191.727H956.176V219H951.986ZM954.116 187.182C953.3 187.182 952.595 186.904 952.003 186.347C951.423 185.791 951.133 185.122 951.133 184.341C951.133 183.56 951.423 182.891 952.003 182.335C952.595 181.778 953.3 181.5 954.116 181.5C954.933 181.5 955.631 181.778 956.211 182.335C956.803 182.891 957.099 183.56 957.099 184.341C957.099 185.122 956.803 185.791 956.211 186.347C955.631 186.904 954.933 187.182 954.116 187.182ZM963.851 219V191.727H967.899V195.989H968.254C968.822 194.533 969.74 193.402 971.006 192.597C972.273 191.781 973.794 191.372 975.57 191.372C977.369 191.372 978.866 191.781 980.062 192.597C981.269 193.402 982.21 194.533 982.885 195.989H983.169C983.867 194.58 984.915 193.461 986.312 192.633C987.709 191.792 989.384 191.372 991.337 191.372C993.775 191.372 995.77 192.136 997.32 193.663C998.871 195.178 999.646 197.539 999.646 200.747V219H995.456V200.747C995.456 198.735 994.906 197.297 993.805 196.433C992.704 195.568 991.408 195.136 989.916 195.136C987.999 195.136 986.513 195.716 985.46 196.876C984.406 198.025 983.879 199.481 983.879 201.244V219H979.618V200.321C979.618 198.77 979.115 197.522 978.109 196.575C977.103 195.616 975.806 195.136 974.22 195.136C973.131 195.136 972.113 195.426 971.166 196.006C970.231 196.586 969.473 197.391 968.893 198.421C968.325 199.439 968.041 200.617 968.041 201.955V219H963.851ZM1018.74 219.568C1016.11 219.568 1013.85 218.988 1011.94 217.828C1010.05 216.656 1008.59 215.023 1007.56 212.928C1006.54 210.821 1006.03 208.37 1006.03 205.577C1006.03 202.783 1006.54 200.321 1007.56 198.19C1008.59 196.048 1010.02 194.379 1011.85 193.183C1013.7 191.976 1015.85 191.372 1018.32 191.372C1019.74 191.372 1021.14 191.609 1022.52 192.082C1023.91 192.556 1025.17 193.325 1026.31 194.391C1027.44 195.444 1028.35 196.841 1029.02 198.581C1029.7 200.321 1030.04 202.464 1030.04 205.009V206.784H1009.01V203.162H1025.77C1025.77 201.623 1025.47 200.25 1024.85 199.043C1024.25 197.835 1023.38 196.882 1022.26 196.184C1021.15 195.486 1019.83 195.136 1018.32 195.136C1016.65 195.136 1015.2 195.551 1013.98 196.379C1012.78 197.196 1011.85 198.261 1011.2 199.575C1010.55 200.889 1010.22 202.298 1010.22 203.801V206.216C1010.22 208.276 1010.57 210.022 1011.29 211.454C1012.01 212.874 1013.01 213.957 1014.29 214.703C1015.56 215.437 1017.05 215.804 1018.74 215.804C1019.84 215.804 1020.84 215.65 1021.73 215.342C1022.63 215.023 1023.4 214.549 1024.05 213.922C1024.7 213.283 1025.21 212.49 1025.56 211.543L1029.61 212.679C1029.18 214.052 1028.47 215.259 1027.46 216.301C1026.45 217.331 1025.21 218.136 1023.73 218.716C1022.25 219.284 1020.59 219.568 1018.74 219.568ZM1048.27 191.727V195.278H1034.14V191.727H1048.27ZM1038.26 185.193H1042.45V211.188C1042.45 212.371 1042.62 213.259 1042.96 213.851C1043.32 214.431 1043.77 214.821 1044.31 215.023C1044.87 215.212 1045.45 215.307 1046.07 215.307C1046.53 215.307 1046.91 215.283 1047.2 215.236C1047.5 215.177 1047.74 215.129 1047.92 215.094L1048.77 218.858C1048.48 218.964 1048.09 219.071 1047.58 219.178C1047.07 219.296 1046.42 219.355 1045.64 219.355C1044.46 219.355 1043.3 219.101 1042.16 218.592C1041.04 218.083 1040.1 217.307 1039.36 216.266C1038.62 215.224 1038.26 213.91 1038.26 212.324V185.193ZM1065.72 219.568C1063.09 219.568 1060.82 218.988 1058.91 217.828C1057.02 216.656 1055.56 215.023 1054.53 212.928C1053.51 210.821 1053 208.37 1053 205.577C1053 202.783 1053.51 200.321 1054.53 198.19C1055.56 196.048 1056.99 194.379 1058.83 193.183C1060.67 191.976 1062.83 191.372 1065.29 191.372C1066.71 191.372 1068.11 191.609 1069.5 192.082C1070.88 192.556 1072.14 193.325 1073.28 194.391C1074.42 195.444 1075.32 196.841 1076 198.581C1076.67 200.321 1077.01 202.464 1077.01 205.009V206.784H1055.99V203.162H1072.75C1072.75 201.623 1072.44 200.25 1071.82 199.043C1071.22 197.835 1070.36 196.882 1069.23 196.184C1068.12 195.486 1066.8 195.136 1065.29 195.136C1063.62 195.136 1062.18 195.551 1060.96 196.379C1059.75 197.196 1058.82 198.261 1058.17 199.575C1057.52 200.889 1057.19 202.298 1057.19 203.801V206.216C1057.19 208.276 1057.55 210.022 1058.26 211.454C1058.98 212.874 1059.98 213.957 1061.26 214.703C1062.54 215.437 1064.02 215.804 1065.72 215.804C1066.82 215.804 1067.81 215.65 1068.7 215.342C1069.6 215.023 1070.37 214.549 1071.02 213.922C1071.68 213.283 1072.18 212.49 1072.53 211.543L1076.58 212.679C1076.16 214.052 1075.44 215.259 1074.43 216.301C1073.43 217.331 1072.18 218.136 1070.7 218.716C1069.22 219.284 1067.56 219.568 1065.72 219.568ZM1083.38 219V191.727H1087.43V195.847H1087.71C1088.21 194.497 1089.11 193.402 1090.41 192.562C1091.72 191.721 1093.18 191.301 1094.82 191.301C1095.12 191.301 1095.51 191.307 1095.97 191.319C1096.43 191.331 1096.78 191.348 1097.02 191.372V195.634C1096.88 195.598 1096.55 195.545 1096.04 195.474C1095.54 195.391 1095.02 195.349 1094.46 195.349C1093.14 195.349 1091.95 195.628 1090.91 196.184C1089.88 196.728 1089.06 197.486 1088.46 198.457C1087.87 199.415 1087.57 200.51 1087.57 201.741V219H1083.38ZM1117.75 197.48V193.645H1139.63V197.48H1117.75ZM1117.75 207.991V204.156H1139.63V207.991H1117.75ZM1175.78 182.636V219H1171.38V187.253H1171.17L1162.29 193.148V188.673L1171.38 182.636H1175.78ZM1186.24 219V215.804L1198.24 202.665C1199.65 201.126 1200.81 199.788 1201.72 198.652C1202.64 197.504 1203.31 196.427 1203.75 195.42C1204.2 194.402 1204.42 193.337 1204.42 192.224C1204.42 190.946 1204.11 189.839 1203.5 188.904C1202.9 187.969 1202.07 187.247 1201.01 186.738C1199.96 186.229 1198.78 185.974 1197.46 185.974C1196.07 185.974 1194.85 186.264 1193.8 186.844C1192.77 187.413 1191.98 188.212 1191.41 189.241C1190.85 190.271 1190.57 191.479 1190.57 192.864H1186.38C1186.38 190.733 1186.87 188.863 1187.86 187.253C1188.84 185.643 1190.18 184.388 1191.87 183.489C1193.57 182.589 1195.49 182.139 1197.6 182.139C1199.74 182.139 1201.62 182.589 1203.27 183.489C1204.91 184.388 1206.2 185.602 1207.14 187.129C1208.07 188.656 1208.54 190.354 1208.54 192.224C1208.54 193.562 1208.3 194.87 1207.81 196.148C1207.34 197.415 1206.51 198.83 1205.33 200.392C1204.16 201.943 1202.53 203.837 1200.45 206.074L1192.28 214.81V215.094H1209.18V219H1186.24ZM1228.38 219.497C1225.7 219.497 1223.42 218.769 1221.54 217.313C1219.66 215.845 1218.22 213.721 1217.22 210.939C1216.23 208.145 1215.73 204.772 1215.73 200.818C1215.73 196.888 1216.23 193.532 1217.22 190.751C1218.23 187.957 1219.67 185.826 1221.56 184.359C1223.45 182.879 1225.72 182.139 1228.38 182.139C1231.03 182.139 1233.29 182.879 1235.18 184.359C1237.07 185.826 1238.51 187.957 1239.51 190.751C1240.51 193.532 1241.02 196.888 1241.02 200.818C1241.02 204.772 1240.52 208.145 1239.53 210.939C1238.53 213.721 1237.09 215.845 1235.21 217.313C1233.33 218.769 1231.05 219.497 1228.38 219.497ZM1228.38 215.591C1231.03 215.591 1233.09 214.312 1234.55 211.756C1236.02 209.199 1236.76 205.553 1236.76 200.818C1236.76 197.67 1236.42 194.988 1235.74 192.775C1235.08 190.561 1234.12 188.875 1232.87 187.714C1231.62 186.554 1230.13 185.974 1228.38 185.974C1225.75 185.974 1223.69 187.271 1222.21 189.863C1220.73 192.443 1219.99 196.095 1219.99 200.818C1219.99 203.967 1220.33 206.642 1220.99 208.844C1221.65 211.045 1222.6 212.72 1223.85 213.869C1225.1 215.017 1226.61 215.591 1228.38 215.591ZM1272.98 219.568C1270.42 219.568 1268.22 218.964 1266.37 217.757C1264.53 216.55 1263.11 214.887 1262.11 212.768C1261.12 210.649 1260.62 208.228 1260.62 205.506C1260.62 202.736 1261.13 200.291 1262.15 198.173C1263.18 196.042 1264.61 194.379 1266.44 193.183C1268.29 191.976 1270.44 191.372 1272.91 191.372C1274.82 191.372 1276.55 191.727 1278.09 192.438C1279.63 193.148 1280.89 194.142 1281.87 195.42C1282.86 196.699 1283.46 198.19 1283.7 199.895H1279.51C1279.19 198.652 1278.48 197.551 1277.38 196.592C1276.29 195.622 1274.82 195.136 1272.98 195.136C1271.34 195.136 1269.91 195.562 1268.68 196.415C1267.46 197.255 1266.51 198.445 1265.82 199.984C1265.15 201.511 1264.81 203.304 1264.81 205.364C1264.81 207.471 1265.14 209.305 1265.8 210.868C1266.48 212.43 1267.43 213.644 1268.64 214.508C1269.88 215.372 1271.32 215.804 1272.98 215.804C1274.07 215.804 1275.05 215.615 1275.94 215.236C1276.83 214.857 1277.58 214.312 1278.2 213.602C1278.81 212.892 1279.25 212.04 1279.51 211.045H1283.7C1283.46 212.655 1282.88 214.105 1281.94 215.396C1281.02 216.674 1279.8 217.692 1278.27 218.45C1276.75 219.195 1274.99 219.568 1272.98 219.568ZM1289.83 219V191.727H1293.88V195.989H1294.23C1294.8 194.533 1295.72 193.402 1296.98 192.597C1298.25 191.781 1299.77 191.372 1301.55 191.372C1303.35 191.372 1304.84 191.781 1306.04 192.597C1307.25 193.402 1308.19 194.533 1308.86 195.989H1309.15C1309.84 194.58 1310.89 193.461 1312.29 192.633C1313.69 191.792 1315.36 191.372 1317.31 191.372C1319.75 191.372 1321.75 192.136 1323.3 193.663C1324.85 195.178 1325.62 197.539 1325.62 200.747V219H1321.43V200.747C1321.43 198.735 1320.88 197.297 1319.78 196.433C1318.68 195.568 1317.38 195.136 1315.89 195.136C1313.98 195.136 1312.49 195.716 1311.44 196.876C1310.38 198.025 1309.86 199.481 1309.86 201.244V219H1305.59V200.321C1305.59 198.77 1305.09 197.522 1304.09 196.575C1303.08 195.616 1301.78 195.136 1300.2 195.136C1299.11 195.136 1298.09 195.426 1297.14 196.006C1296.21 196.586 1295.45 197.391 1294.87 198.421C1294.3 199.439 1294.02 200.617 1294.02 201.955V219H1289.83Z" fill="white"/>
<line x1="171" y1="373.019" x2="170" y2="64.0196" stroke="#00FF99" stroke-width="12"/>
</svg>
