<svg width="952" height="591" viewBox="0 0 952 591" fill="none" xmlns="http://www.w3.org/2000/svg">
<mask id="path-1-inside-1_109_197" fill="white">
<path d="M165 64H817V373H165V64Z"/>
</mask>
<path d="M165 64H817V373H165V64Z" fill="#5FD7FF"/>
<path d="M165 64V54H155V64H165ZM817 64H827V54H817V64ZM817 373V383H827V373H817ZM165 373H155V383H165V373ZM165 64V74H817V64V54H165V64ZM817 64H807V373H817H827V64H817ZM817 373V363H165V373V383H817V373ZM165 373H175V64H165H155V373H165Z" fill="white" mask="url(#path-1-inside-1_109_197)"/>
<path d="M423.912 429.543V425.92L439.892 400.636H442.52V406.247H440.744L428.67 425.352V425.636H450.19V429.543H423.912ZM441.028 437V428.442V426.755V400.636H445.219V437H441.028ZM468.208 437.497C466.125 437.497 464.248 437.083 462.579 436.254C460.91 435.426 459.573 434.289 458.567 432.845C457.56 431.401 457.01 429.756 456.915 427.909H461.177C461.342 429.554 462.088 430.916 463.414 431.993C464.751 433.058 466.349 433.591 468.208 433.591C469.699 433.591 471.025 433.242 472.185 432.543C473.357 431.845 474.274 430.886 474.937 429.667C475.612 428.436 475.949 427.045 475.949 425.494C475.949 423.908 475.6 422.494 474.902 421.251C474.215 419.996 473.268 419.008 472.061 418.286C470.854 417.563 469.474 417.196 467.924 417.185C466.811 417.173 465.669 417.344 464.497 417.7C463.325 418.043 462.36 418.487 461.603 419.031L457.483 418.534L459.685 400.636H478.577V404.543H463.378L462.1 415.267H462.313C463.059 414.675 463.994 414.184 465.118 413.793C466.243 413.403 467.415 413.207 468.634 413.207C470.859 413.207 472.842 413.74 474.582 414.805C476.334 415.859 477.707 417.303 478.702 419.138C479.708 420.973 480.211 423.068 480.211 425.423C480.211 427.743 479.69 429.815 478.648 431.638C477.618 433.449 476.198 434.881 474.387 435.935C472.576 436.976 470.516 437.497 468.208 437.497ZM512.477 437.568C509.92 437.568 507.719 436.964 505.872 435.757C504.026 434.55 502.605 432.887 501.611 430.768C500.616 428.649 500.119 426.228 500.119 423.506C500.119 420.736 500.628 418.291 501.646 416.173C502.676 414.042 504.108 412.379 505.943 411.183C507.79 409.976 509.944 409.372 512.406 409.372C514.324 409.372 516.052 409.727 517.591 410.438C519.13 411.148 520.39 412.142 521.373 413.42C522.355 414.699 522.965 416.19 523.202 417.895H519.011C518.692 416.652 517.982 415.551 516.881 414.592C515.792 413.622 514.324 413.136 512.477 413.136C510.844 413.136 509.411 413.562 508.18 414.415C506.961 415.255 506.008 416.445 505.322 417.984C504.647 419.511 504.31 421.304 504.31 423.364C504.31 425.471 504.641 427.305 505.304 428.868C505.979 430.43 506.926 431.644 508.145 432.508C509.376 433.372 510.82 433.804 512.477 433.804C513.566 433.804 514.555 433.615 515.442 433.236C516.33 432.857 517.082 432.312 517.697 431.602C518.313 430.892 518.751 430.04 519.011 429.045H523.202C522.965 430.655 522.379 432.105 521.444 433.396C520.521 434.674 519.295 435.692 517.768 436.45C516.253 437.195 514.49 437.568 512.477 437.568ZM529.327 437V409.727H533.376V413.989H533.731C534.299 412.533 535.216 411.402 536.483 410.597C537.75 409.781 539.271 409.372 541.046 409.372C542.845 409.372 544.343 409.781 545.538 410.597C546.746 411.402 547.687 412.533 548.362 413.989H548.646C549.344 412.58 550.392 411.461 551.788 410.633C553.185 409.792 554.86 409.372 556.813 409.372C559.252 409.372 561.246 410.136 562.797 411.663C564.348 413.178 565.123 415.539 565.123 418.747V437H560.933V418.747C560.933 416.735 560.382 415.297 559.281 414.433C558.18 413.568 556.884 413.136 555.393 413.136C553.475 413.136 551.99 413.716 550.936 414.876C549.883 416.025 549.356 417.481 549.356 419.244V437H545.094V418.321C545.094 416.77 544.591 415.522 543.585 414.575C542.579 413.616 541.283 413.136 539.697 413.136C538.608 413.136 537.59 413.426 536.643 414.006C535.708 414.586 534.95 415.391 534.37 416.421C533.802 417.439 533.518 418.617 533.518 419.955V437H529.327Z" fill="#F8B32A"/>
<path d="M121.895 388H117.278L130.631 351.636H135.176L148.528 388H143.912L133.045 357.389H132.761L121.895 388ZM123.599 373.795H142.207V377.702H123.599V373.795Z" fill="white"/>
<path d="M836.403 388V351.636H849.116C851.65 351.636 853.739 352.074 855.384 352.95C857.03 353.814 858.255 354.98 859.06 356.448C859.865 357.904 860.267 359.52 860.267 361.295C860.267 362.858 859.989 364.148 859.433 365.166C858.888 366.184 858.166 366.989 857.266 367.581C856.379 368.173 855.414 368.611 854.372 368.895V369.25C855.485 369.321 856.603 369.712 857.728 370.422C858.853 371.132 859.794 372.15 860.551 373.476C861.309 374.802 861.688 376.423 861.688 378.341C861.688 380.164 861.273 381.803 860.445 383.259C859.616 384.715 858.308 385.869 856.521 386.722C854.733 387.574 852.407 388 849.543 388H836.403ZM840.807 384.094H849.543C852.419 384.094 854.461 383.537 855.668 382.425C856.888 381.3 857.497 379.939 857.497 378.341C857.497 377.11 857.183 375.973 856.556 374.932C855.929 373.878 855.035 373.038 853.875 372.411C852.715 371.771 851.342 371.452 849.756 371.452H840.807V384.094ZM840.807 367.616H848.974C850.3 367.616 851.496 367.356 852.561 366.835C853.638 366.314 854.491 365.58 855.118 364.634C855.757 363.687 856.077 362.574 856.077 361.295C856.077 359.697 855.52 358.342 854.408 357.229C853.295 356.105 851.531 355.543 849.116 355.543H840.807V367.616Z" fill="white"/>
<path d="M865.665 57H861.261C861.001 55.7334 860.545 54.6207 859.894 53.6619C859.255 52.7031 858.474 51.8982 857.55 51.2472C856.639 50.5843 855.627 50.0871 854.514 49.7557C853.402 49.4242 852.241 49.2585 851.034 49.2585C848.832 49.2585 846.838 49.8149 845.05 50.9276C843.275 52.0402 841.86 53.6797 840.807 55.8459C839.765 58.0121 839.244 60.6695 839.244 63.8182C839.244 66.9669 839.765 69.6243 840.807 71.7905C841.86 73.9567 843.275 75.5961 845.05 76.7088C846.838 77.8215 848.832 78.3778 851.034 78.3778C852.241 78.3778 853.402 78.2121 854.514 77.8807C855.627 77.5492 856.639 77.058 857.55 76.407C858.474 75.7441 859.255 74.9332 859.894 73.9744C860.545 73.0038 861.001 71.8911 861.261 70.6364H865.665C865.333 72.4948 864.73 74.1579 863.854 75.6257C862.978 77.0935 861.889 78.3423 860.587 79.3722C859.285 80.3902 857.823 81.1655 856.201 81.6982C854.591 82.2308 852.869 82.4972 851.034 82.4972C847.933 82.4972 845.175 81.7396 842.76 80.2244C840.345 78.7093 838.445 76.5549 837.06 73.7614C835.675 70.9678 834.983 67.6534 834.983 63.8182C834.983 59.983 835.675 56.6686 837.06 53.875C838.445 51.0814 840.345 48.9271 842.76 47.4119C845.175 45.8968 847.933 45.1392 851.034 45.1392C852.869 45.1392 854.591 45.4055 856.201 45.9382C857.823 46.4709 859.285 47.2521 860.587 48.282C861.889 49.3 862.978 50.5428 863.854 52.0107C864.73 53.4666 865.333 55.1297 865.665 57Z" fill="white"/>
<path d="M131.625 82H120.403V45.6364H132.122C135.65 45.6364 138.668 46.3643 141.178 47.8203C143.687 49.2644 145.611 51.3419 146.948 54.0526C148.286 56.7514 148.955 59.983 148.955 63.7472C148.955 67.535 148.28 70.7962 146.93 73.5305C145.581 76.2531 143.616 78.3482 141.036 79.8161C138.455 81.272 135.318 82 131.625 82ZM124.807 78.0938H131.341C134.348 78.0938 136.839 77.5137 138.816 76.3537C140.793 75.1937 142.267 73.5424 143.237 71.3999C144.208 69.2573 144.693 66.7064 144.693 63.7472C144.693 60.8116 144.214 58.2843 143.255 56.1655C142.296 54.0348 140.864 52.4013 138.958 51.2649C137.052 50.1167 134.679 49.5426 131.838 49.5426H124.807V78.0938Z" fill="white"/>
<path d="M269.403 548V511.636H273.807V529.676H274.233L290.568 511.636H296.321L281.051 528.043L296.321 548H290.994L278.352 531.097L273.807 536.21V548H269.403ZM310.885 548.568C308.257 548.568 305.99 547.988 304.085 546.828C302.191 545.656 300.729 544.023 299.699 541.928C298.681 539.821 298.172 537.37 298.172 534.577C298.172 531.783 298.681 529.321 299.699 527.19C300.729 525.048 302.161 523.379 303.996 522.183C305.843 520.976 307.997 520.372 310.459 520.372C311.879 520.372 313.282 520.609 314.667 521.082C316.052 521.556 317.313 522.325 318.449 523.391C319.585 524.444 320.491 525.841 321.166 527.581C321.84 529.321 322.178 531.464 322.178 534.009V535.784H301.155V532.162H317.916C317.916 530.623 317.609 529.25 316.993 528.043C316.389 526.835 315.525 525.882 314.401 525.184C313.288 524.486 311.974 524.136 310.459 524.136C308.79 524.136 307.346 524.551 306.127 525.379C304.919 526.196 303.99 527.261 303.339 528.575C302.688 529.889 302.362 531.298 302.362 532.801V535.216C302.362 537.276 302.718 539.022 303.428 540.454C304.15 541.874 305.15 542.957 306.428 543.703C307.707 544.437 309.192 544.804 310.885 544.804C311.986 544.804 312.98 544.65 313.868 544.342C314.768 544.023 315.543 543.549 316.194 542.922C316.845 542.283 317.348 541.49 317.703 540.543L321.752 541.679C321.325 543.052 320.609 544.259 319.603 545.301C318.597 546.331 317.354 547.136 315.874 547.716C314.395 548.284 312.732 548.568 310.885 548.568ZM332.742 511.636V548H328.552V511.636H332.742ZM340.417 548V520.727H344.608V548H340.417ZM342.548 516.182C341.731 516.182 341.027 515.904 340.435 515.347C339.855 514.791 339.565 514.122 339.565 513.341C339.565 512.56 339.855 511.891 340.435 511.335C341.027 510.778 341.731 510.5 342.548 510.5C343.365 510.5 344.063 510.778 344.643 511.335C345.235 511.891 345.531 512.56 345.531 513.341C345.531 514.122 345.235 514.791 344.643 515.347C344.063 515.904 343.365 516.182 342.548 516.182ZM356.473 511.636V548H352.282V511.636H356.473ZM364.148 548V520.727H368.338V548H364.148ZM366.278 516.182C365.462 516.182 364.757 515.904 364.165 515.347C363.585 514.791 363.295 514.122 363.295 513.341C363.295 512.56 363.585 511.891 364.165 511.335C364.757 510.778 365.462 510.5 366.278 510.5C367.095 510.5 367.794 510.778 368.374 511.335C368.965 511.891 369.261 512.56 369.261 513.341C369.261 514.122 368.965 514.791 368.374 515.347C367.794 515.904 367.095 516.182 366.278 516.182ZM380.203 531.594V548H376.013V520.727H380.061V524.989H380.416C381.056 523.604 382.026 522.491 383.328 521.651C384.63 520.798 386.311 520.372 388.371 520.372C390.218 520.372 391.833 520.751 393.218 521.509C394.603 522.254 395.68 523.391 396.45 524.918C397.219 526.433 397.604 528.35 397.604 530.67V548H393.414V530.955C393.414 528.812 392.857 527.143 391.744 525.947C390.632 524.74 389.105 524.136 387.164 524.136C385.826 524.136 384.63 524.426 383.577 525.006C382.535 525.586 381.713 526.433 381.109 527.545C380.505 528.658 380.203 530.008 380.203 531.594ZM416.27 558.795C414.245 558.795 412.505 558.535 411.049 558.014C409.593 557.505 408.38 556.83 407.409 555.99C406.451 555.161 405.687 554.274 405.119 553.327L408.457 550.983C408.836 551.48 409.315 552.048 409.895 552.688C410.475 553.339 411.268 553.901 412.275 554.374C413.292 554.86 414.624 555.102 416.27 555.102C418.471 555.102 420.288 554.57 421.721 553.504C423.153 552.439 423.869 550.77 423.869 548.497V542.957H423.514C423.206 543.455 422.768 544.07 422.2 544.804C421.644 545.526 420.839 546.171 419.785 546.739C418.743 547.296 417.335 547.574 415.559 547.574C413.358 547.574 411.381 547.053 409.629 546.011C407.889 544.97 406.51 543.455 405.492 541.466C404.486 539.477 403.983 537.062 403.983 534.222C403.983 531.428 404.474 528.996 405.456 526.924C406.439 524.841 407.806 523.231 409.558 522.094C411.31 520.946 413.334 520.372 415.63 520.372C417.406 520.372 418.815 520.668 419.856 521.26C420.91 521.84 421.715 522.503 422.271 523.249C422.839 523.982 423.277 524.586 423.585 525.06H424.011V520.727H428.059V548.781C428.059 551.125 427.527 553.031 426.461 554.499C425.408 555.978 423.987 557.061 422.2 557.748C420.424 558.446 418.448 558.795 416.27 558.795ZM416.127 543.81C417.808 543.81 419.229 543.425 420.389 542.656C421.549 541.886 422.431 540.779 423.034 539.335C423.638 537.891 423.94 536.163 423.94 534.151C423.94 532.186 423.644 530.451 423.052 528.948C422.46 527.445 421.584 526.267 420.424 525.415C419.264 524.562 417.832 524.136 416.127 524.136C414.352 524.136 412.872 524.586 411.689 525.486C410.517 526.385 409.635 527.593 409.043 529.108C408.463 530.623 408.173 532.304 408.173 534.151C408.173 536.045 408.469 537.719 409.061 539.175C409.664 540.62 410.552 541.756 411.724 542.585C412.908 543.401 414.376 543.81 416.127 543.81ZM451.497 526.48V522.645H473.372V526.48H451.497ZM451.497 536.991V533.156H473.372V536.991H451.497ZM509.527 511.636V548H505.123V516.253H504.91L496.032 522.148V517.673L505.123 511.636H509.527ZM519.985 548V544.804L531.988 531.665C533.396 530.126 534.556 528.788 535.468 527.652C536.379 526.504 537.054 525.427 537.492 524.42C537.942 523.402 538.167 522.337 538.167 521.224C538.167 519.946 537.859 518.839 537.243 517.904C536.64 516.969 535.811 516.247 534.758 515.738C533.704 515.229 532.52 514.974 531.206 514.974C529.81 514.974 528.59 515.264 527.549 515.844C526.519 516.413 525.72 517.212 525.152 518.241C524.595 519.271 524.317 520.479 524.317 521.864H520.127C520.127 519.733 520.618 517.863 521.601 516.253C522.583 514.643 523.921 513.388 525.613 512.489C527.318 511.589 529.23 511.139 531.349 511.139C533.479 511.139 535.367 511.589 537.013 512.489C538.658 513.388 539.948 514.602 540.883 516.129C541.818 517.656 542.286 519.354 542.286 521.224C542.286 522.562 542.043 523.87 541.558 525.148C541.085 526.415 540.256 527.83 539.072 529.392C537.9 530.943 536.273 532.837 534.189 535.074L526.022 543.81V544.094H542.925V548H519.985ZM562.119 548.497C559.444 548.497 557.165 547.769 555.283 546.313C553.401 544.845 551.963 542.721 550.969 539.939C549.974 537.145 549.477 533.772 549.477 529.818C549.477 525.888 549.974 522.532 550.969 519.751C551.975 516.957 553.419 514.826 555.301 513.359C557.195 511.879 559.468 511.139 562.119 511.139C564.771 511.139 567.037 511.879 568.92 513.359C570.814 514.826 572.258 516.957 573.252 519.751C574.258 522.532 574.761 525.888 574.761 529.818C574.761 533.772 574.264 537.145 573.27 539.939C572.275 542.721 570.837 544.845 568.955 546.313C567.073 547.769 564.794 548.497 562.119 548.497ZM562.119 544.591C564.771 544.591 566.83 543.312 568.298 540.756C569.766 538.199 570.5 534.553 570.5 529.818C570.5 526.67 570.162 523.988 569.488 521.775C568.825 519.561 567.866 517.875 566.611 516.714C565.368 515.554 563.871 514.974 562.119 514.974C559.491 514.974 557.438 516.271 555.958 518.863C554.478 521.443 553.738 525.095 553.738 529.818C553.738 532.967 554.07 535.642 554.733 537.844C555.396 540.045 556.349 541.72 557.591 542.869C558.846 544.017 560.355 544.591 562.119 544.591ZM606.721 548.568C604.165 548.568 601.963 547.964 600.116 546.757C598.27 545.55 596.849 543.887 595.855 541.768C594.861 539.649 594.363 537.228 594.363 534.506C594.363 531.736 594.872 529.291 595.89 527.173C596.92 525.042 598.353 523.379 600.187 522.183C602.034 520.976 604.188 520.372 606.65 520.372C608.568 520.372 610.296 520.727 611.835 521.438C613.374 522.148 614.635 523.142 615.617 524.42C616.599 525.699 617.209 527.19 617.446 528.895H613.256C612.936 527.652 612.226 526.551 611.125 525.592C610.036 524.622 608.568 524.136 606.721 524.136C605.088 524.136 603.656 524.562 602.425 525.415C601.205 526.255 600.252 527.445 599.566 528.984C598.891 530.511 598.554 532.304 598.554 534.364C598.554 536.471 598.885 538.305 599.548 539.868C600.223 541.43 601.17 542.644 602.389 543.508C603.62 544.372 605.064 544.804 606.721 544.804C607.81 544.804 608.799 544.615 609.687 544.236C610.574 543.857 611.326 543.312 611.942 542.602C612.557 541.892 612.995 541.04 613.256 540.045H617.446C617.209 541.655 616.623 543.105 615.688 544.396C614.765 545.674 613.54 546.692 612.013 547.45C610.497 548.195 608.734 548.568 606.721 548.568ZM623.572 548V520.727H627.62V524.989H627.975C628.543 523.533 629.461 522.402 630.727 521.597C631.994 520.781 633.515 520.372 635.29 520.372C637.09 520.372 638.587 520.781 639.782 521.597C640.99 522.402 641.931 523.533 642.606 524.989H642.89C643.588 523.58 644.636 522.461 646.032 521.633C647.429 520.792 649.104 520.372 651.057 520.372C653.496 520.372 655.49 521.136 657.041 522.663C658.592 524.178 659.367 526.539 659.367 529.747V548H655.177V529.747C655.177 527.735 654.626 526.297 653.525 525.433C652.425 524.568 651.128 524.136 649.637 524.136C647.719 524.136 646.234 524.716 645.18 525.876C644.127 527.025 643.6 528.481 643.6 530.244V548H639.339V529.321C639.339 527.77 638.836 526.522 637.829 525.575C636.823 524.616 635.527 524.136 633.941 524.136C632.852 524.136 631.834 524.426 630.887 525.006C629.952 525.586 629.194 526.391 628.614 527.421C628.046 528.439 627.762 529.617 627.762 530.955V548H623.572Z" fill="white"/>
<line x1="164.986" y1="368.5" x2="816.989" y2="367" stroke="#F8B32A" stroke-width="12"/>
</svg>
