<svg width="952" height="591" viewBox="0 0 952 591" fill="none" xmlns="http://www.w3.org/2000/svg">
<mask id="path-1-inside-1_79_161" fill="white">
<path d="M165 64H817V373H165V64Z"/>
</mask>
<path d="M165 64H817V373H165V64Z" fill="#5FD7FF"/>
<path d="M165 64V54H155V64H165ZM817 64H827V54H817V64ZM817 373V383H827V373H817ZM165 373H155V383H165V373ZM165 64V74H817V64V54H165V64ZM817 64H807V373H817H827V64H817ZM817 373V363H165V373V383H817V373ZM165 373H175V64H165H155V373H165Z" fill="white" mask="url(#path-1-inside-1_79_161)"/>
<path d="M121.895 388H117.278L130.631 351.636H135.176L148.528 388H143.912L133.045 357.389H132.761L121.895 388ZM123.599 373.795H142.207V377.702H123.599V373.795Z" fill="white"/>
<path d="M836.403 388V351.636H849.116C851.65 351.636 853.739 352.074 855.384 352.95C857.03 353.814 858.255 354.98 859.06 356.448C859.865 357.904 860.267 359.52 860.267 361.295C860.267 362.858 859.989 364.148 859.433 365.166C858.888 366.184 858.166 366.989 857.266 367.581C856.379 368.173 855.414 368.611 854.372 368.895V369.25C855.485 369.321 856.603 369.712 857.728 370.422C858.853 371.132 859.794 372.15 860.551 373.476C861.309 374.802 861.688 376.423 861.688 378.341C861.688 380.164 861.273 381.803 860.445 383.259C859.616 384.715 858.308 385.869 856.521 386.722C854.733 387.574 852.407 388 849.543 388H836.403ZM840.807 384.094H849.543C852.419 384.094 854.461 383.537 855.668 382.425C856.888 381.3 857.497 379.939 857.497 378.341C857.497 377.11 857.183 375.973 856.556 374.932C855.929 373.878 855.035 373.038 853.875 372.411C852.715 371.771 851.342 371.452 849.756 371.452H840.807V384.094ZM840.807 367.616H848.974C850.3 367.616 851.496 367.356 852.561 366.835C853.638 366.314 854.491 365.58 855.118 364.634C855.757 363.687 856.077 362.574 856.077 361.295C856.077 359.697 855.52 358.342 854.408 357.229C853.295 356.105 851.531 355.543 849.116 355.543H840.807V367.616Z" fill="white"/>
<path d="M865.665 57H861.261C861.001 55.7334 860.545 54.6207 859.894 53.6619C859.255 52.7031 858.474 51.8982 857.55 51.2472C856.639 50.5843 855.627 50.0871 854.514 49.7557C853.402 49.4242 852.241 49.2585 851.034 49.2585C848.832 49.2585 846.838 49.8149 845.05 50.9276C843.275 52.0402 841.86 53.6797 840.807 55.8459C839.765 58.0121 839.244 60.6695 839.244 63.8182C839.244 66.9669 839.765 69.6243 840.807 71.7905C841.86 73.9567 843.275 75.5961 845.05 76.7088C846.838 77.8215 848.832 78.3778 851.034 78.3778C852.241 78.3778 853.402 78.2121 854.514 77.8807C855.627 77.5492 856.639 77.058 857.55 76.407C858.474 75.7441 859.255 74.9332 859.894 73.9744C860.545 73.0038 861.001 71.8911 861.261 70.6364H865.665C865.333 72.4948 864.73 74.1579 863.854 75.6257C862.978 77.0935 861.889 78.3423 860.587 79.3722C859.285 80.3902 857.823 81.1655 856.201 81.6982C854.591 82.2308 852.869 82.4972 851.034 82.4972C847.933 82.4972 845.175 81.7396 842.76 80.2244C840.345 78.7093 838.445 76.5549 837.06 73.7614C835.675 70.9678 834.983 67.6534 834.983 63.8182C834.983 59.983 835.675 56.6686 837.06 53.875C838.445 51.0814 840.345 48.9271 842.76 47.4119C845.175 45.8968 847.933 45.1392 851.034 45.1392C852.869 45.1392 854.591 45.4055 856.201 45.9382C857.823 46.4709 859.285 47.2521 860.587 48.282C861.889 49.3 862.978 50.5428 863.854 52.0107C864.73 53.4666 865.333 55.1297 865.665 57Z" fill="white"/>
<path d="M131.625 82H120.403V45.6364H132.122C135.65 45.6364 138.668 46.3643 141.178 47.8203C143.687 49.2644 145.611 51.3419 146.948 54.0526C148.286 56.7514 148.955 59.983 148.955 63.7472C148.955 67.535 148.28 70.7962 146.93 73.5305C145.581 76.2531 143.616 78.3482 141.036 79.8161C138.455 81.272 135.318 82 131.625 82ZM124.807 78.0938H131.341C134.348 78.0938 136.839 77.5137 138.816 76.3537C140.793 75.1937 142.267 73.5424 143.237 71.3999C144.208 69.2573 144.693 66.7064 144.693 63.7472C144.693 60.8116 144.214 58.2843 143.255 56.1655C142.296 54.0348 140.864 52.4013 138.958 51.2649C137.052 50.1167 134.679 49.5426 131.838 49.5426H124.807V78.0938Z" fill="white"/>
</svg>
