<svg width="730" height="511" viewBox="0 0 730 511" fill="none" xmlns="http://www.w3.org/2000/svg">
<mask id="path-1-inside-1_79_170" fill="white">
<path d="M203 61H512V370H203V61Z"/>
</mask>
<path d="M203 61H512V370H203V61Z" fill="#5FD7FF"/>
<path d="M203 61V51H193V61H203ZM512 61H522V51H512V61ZM512 370V380H522V370H512ZM203 370H193V380H203V370ZM203 61V71H512V61V51H203V61ZM512 61H502V370H512H522V61H512ZM512 370V360H203V370V380H512V370ZM203 370H213V61H203H193V370H203Z" fill="white" mask="url(#path-1-inside-1_79_170)"/>
<path d="M151.895 385H147.278L160.631 348.636H165.176L178.528 385H173.912L163.045 354.389H162.761L151.895 385ZM153.599 370.795H172.207V374.702H153.599V370.795Z" fill="white"/>
<path d="M532.403 385V348.636H545.116C547.65 348.636 549.739 349.074 551.384 349.95C553.03 350.814 554.255 351.98 555.06 353.448C555.865 354.904 556.267 356.52 556.267 358.295C556.267 359.858 555.989 361.148 555.433 362.166C554.888 363.184 554.166 363.989 553.266 364.581C552.379 365.173 551.414 365.611 550.372 365.895V366.25C551.485 366.321 552.603 366.712 553.728 367.422C554.853 368.132 555.794 369.15 556.551 370.476C557.309 371.802 557.688 373.423 557.688 375.341C557.688 377.164 557.273 378.803 556.445 380.259C555.616 381.715 554.308 382.869 552.521 383.722C550.733 384.574 548.407 385 545.543 385H532.403ZM536.807 381.094H545.543C548.419 381.094 550.461 380.537 551.668 379.425C552.888 378.3 553.497 376.939 553.497 375.341C553.497 374.11 553.183 372.973 552.556 371.932C551.929 370.878 551.035 370.038 549.875 369.411C548.715 368.771 547.342 368.452 545.756 368.452H536.807V381.094ZM536.807 364.616H544.974C546.3 364.616 547.496 364.356 548.561 363.835C549.638 363.314 550.491 362.58 551.118 361.634C551.757 360.687 552.077 359.574 552.077 358.295C552.077 356.697 551.52 355.342 550.408 354.229C549.295 353.105 547.531 352.543 545.116 352.543H536.807V364.616Z" fill="white"/>
<path d="M561.665 54H557.261C557.001 52.7334 556.545 51.6207 555.894 50.6619C555.255 49.7031 554.474 48.8982 553.55 48.2472C552.639 47.5843 551.627 47.0871 550.514 46.7557C549.402 46.4242 548.241 46.2585 547.034 46.2585C544.832 46.2585 542.838 46.8149 541.05 47.9276C539.275 49.0402 537.86 50.6797 536.807 52.8459C535.765 55.0121 535.244 57.6695 535.244 60.8182C535.244 63.9669 535.765 66.6243 536.807 68.7905C537.86 70.9567 539.275 72.5961 541.05 73.7088C542.838 74.8215 544.832 75.3778 547.034 75.3778C548.241 75.3778 549.402 75.2121 550.514 74.8807C551.627 74.5492 552.639 74.058 553.55 73.407C554.474 72.7441 555.255 71.9332 555.894 70.9744C556.545 70.0038 557.001 68.8911 557.261 67.6364H561.665C561.333 69.4948 560.73 71.1579 559.854 72.6257C558.978 74.0935 557.889 75.3423 556.587 76.3722C555.285 77.3902 553.823 78.1655 552.201 78.6982C550.591 79.2308 548.869 79.4972 547.034 79.4972C543.933 79.4972 541.175 78.7396 538.76 77.2244C536.345 75.7093 534.445 73.5549 533.06 70.7614C531.675 67.9678 530.983 64.6534 530.983 60.8182C530.983 56.983 531.675 53.6686 533.06 50.875C534.445 48.0814 536.345 45.9271 538.76 44.4119C541.175 42.8968 543.933 42.1392 547.034 42.1392C548.869 42.1392 550.591 42.4055 552.201 42.9382C553.823 43.4709 555.285 44.2521 556.587 45.282C557.889 46.3 558.978 47.5428 559.854 49.0107C560.73 50.4666 561.333 52.1297 561.665 54Z" fill="white"/>
<path d="M166.625 79H155.403V42.6364H167.122C170.65 42.6364 173.668 43.3643 176.178 44.8203C178.687 46.2644 180.611 48.3419 181.948 51.0526C183.286 53.7514 183.955 56.983 183.955 60.7472C183.955 64.535 183.28 67.7962 181.93 70.5305C180.581 73.2531 178.616 75.3482 176.036 76.8161C173.455 78.272 170.318 79 166.625 79ZM159.807 75.0938H166.341C169.348 75.0938 171.839 74.5137 173.816 73.3537C175.793 72.1937 177.267 70.5424 178.237 68.3999C179.208 66.2573 179.693 63.7064 179.693 60.7472C179.693 57.8116 179.214 55.2843 178.255 53.1655C177.296 51.0348 175.864 49.4013 173.958 48.2649C172.052 47.1167 169.679 46.5426 166.838 46.5426H159.807V75.0938Z" fill="white"/>
</svg>
