<svg width="1053" height="427" viewBox="0 0 1053 427" fill="none" xmlns="http://www.w3.org/2000/svg">
<mask id="path-1-inside-1_79_151" fill="white">
<path d="M203 61H512V370H203V61Z"/>
</mask>
<path d="M203 61H512V370H203V61Z" fill="#5FD7FF"/>
<path d="M203 61V51H193V61H203ZM512 61H522V51H512V61ZM512 370V380H522V370H512ZM203 370H193V380H203V370ZM203 61V71H512V61V51H203V61ZM512 61H502V370H512H522V61H512ZM512 370V360H203V370V380H512V370ZM203 370H213V61H203H193V370H203Z" fill="white" mask="url(#path-1-inside-1_79_151)"/>
<path d="M46.7642 232V228.804L58.767 215.665C60.1757 214.126 61.3357 212.788 62.2472 211.652C63.1586 210.504 63.8333 209.427 64.2713 208.42C64.7211 207.402 64.946 206.337 64.946 205.224C64.946 203.946 64.6383 202.839 64.0227 201.904C63.419 200.969 62.5904 200.247 61.5369 199.738C60.4834 199.229 59.2997 198.974 57.9858 198.974C56.589 198.974 55.3698 199.264 54.3281 199.844C53.2983 200.413 52.4993 201.212 51.9311 202.241C51.3748 203.271 51.0966 204.479 51.0966 205.864H46.9062C46.9062 203.733 47.3975 201.863 48.38 200.253C49.3625 198.643 50.7 197.388 52.3928 196.489C54.0973 195.589 56.009 195.139 58.1278 195.139C60.2585 195.139 62.1465 195.589 63.7919 196.489C65.4373 197.388 66.7275 198.602 67.6626 200.129C68.5978 201.656 69.0653 203.354 69.0653 205.224C69.0653 206.562 68.8227 207.87 68.3374 209.148C67.8639 210.415 67.0353 211.83 65.8516 213.392C64.6797 214.943 63.0521 216.837 60.9688 219.074L52.8011 227.81V228.094H69.7045V232H46.7642ZM89.3246 232.497C86.9808 232.497 84.8916 232.095 83.0568 231.29C81.2339 230.485 79.7839 229.366 78.7067 227.934C77.6413 226.49 77.0613 224.815 76.9666 222.909H81.4411C81.5357 224.081 81.9382 225.093 82.6484 225.945C83.3587 226.786 84.2879 227.437 85.4361 227.898C86.5843 228.36 87.8568 228.591 89.2536 228.591C90.8161 228.591 92.201 228.319 93.4084 227.774C94.6158 227.23 95.5627 226.472 96.2493 225.501C96.9358 224.531 97.2791 223.406 97.2791 222.128C97.2791 220.79 96.9477 219.612 96.2848 218.594C95.6219 217.565 94.6513 216.76 93.3729 216.18C92.0945 215.6 90.532 215.31 88.6854 215.31H85.7734V211.403H88.6854C90.1295 211.403 91.3961 211.143 92.4851 210.622C93.5859 210.101 94.4441 209.367 95.0597 208.42C95.687 207.473 96.0007 206.361 96.0007 205.082C96.0007 203.851 95.7285 202.78 95.1839 201.869C94.6394 200.957 93.87 200.247 92.8757 199.738C91.8932 199.229 90.7332 198.974 89.3956 198.974C88.1409 198.974 86.9572 199.205 85.8445 199.667C84.7436 200.117 83.844 200.774 83.1456 201.638C82.4472 202.49 82.0684 203.52 82.0092 204.727H77.7479C77.8189 202.821 78.393 201.152 79.4702 199.72C80.5473 198.276 81.956 197.152 83.696 196.347C85.4479 195.542 87.3714 195.139 89.4666 195.139C91.7157 195.139 93.6451 195.595 95.255 196.506C96.8648 197.406 98.1018 198.596 98.9659 200.075C99.83 201.555 100.262 203.153 100.262 204.869C100.262 206.917 99.7235 208.663 98.6463 210.107C97.581 211.551 96.1309 212.552 94.2962 213.108V213.392C96.5926 213.771 98.3859 214.747 99.6761 216.322C100.966 217.884 101.612 219.82 101.612 222.128C101.612 224.105 101.073 225.88 99.9957 227.455C98.9304 229.017 97.4744 230.248 95.6278 231.148C93.7813 232.047 91.6802 232.497 89.3246 232.497ZM134.087 232.568C131.53 232.568 129.328 231.964 127.482 230.757C125.635 229.55 124.214 227.887 123.22 225.768C122.226 223.649 121.729 221.228 121.729 218.506C121.729 215.736 122.238 213.291 123.256 211.173C124.286 209.042 125.718 207.379 127.553 206.183C129.399 204.976 131.554 204.372 134.016 204.372C135.933 204.372 137.661 204.727 139.2 205.438C140.739 206.148 142 207.142 142.982 208.42C143.965 209.699 144.574 211.19 144.811 212.895H140.621C140.301 211.652 139.591 210.551 138.49 209.592C137.401 208.622 135.933 208.136 134.087 208.136C132.453 208.136 131.021 208.562 129.79 209.415C128.571 210.255 127.618 211.445 126.931 212.984C126.256 214.511 125.919 216.304 125.919 218.364C125.919 220.471 126.25 222.305 126.913 223.868C127.588 225.43 128.535 226.644 129.754 227.508C130.985 228.372 132.429 228.804 134.087 228.804C135.176 228.804 136.164 228.615 137.052 228.236C137.94 227.857 138.691 227.312 139.307 226.602C139.922 225.892 140.36 225.04 140.621 224.045H144.811C144.574 225.655 143.988 227.105 143.053 228.396C142.13 229.674 140.905 230.692 139.378 231.45C137.863 232.195 136.099 232.568 134.087 232.568ZM150.937 232V204.727H154.985V208.989H155.34C155.908 207.533 156.826 206.402 158.092 205.597C159.359 204.781 160.88 204.372 162.656 204.372C164.455 204.372 165.952 204.781 167.148 205.597C168.355 206.402 169.296 207.533 169.971 208.989H170.255C170.953 207.58 172.001 206.461 173.398 205.633C174.795 204.792 176.469 204.372 178.423 204.372C180.861 204.372 182.856 205.136 184.406 206.663C185.957 208.178 186.732 210.539 186.732 213.747V232H182.542V213.747C182.542 211.735 181.991 210.297 180.891 209.433C179.79 208.568 178.494 208.136 177.002 208.136C175.085 208.136 173.599 208.716 172.545 209.876C171.492 211.025 170.965 212.481 170.965 214.244V232H166.704V213.321C166.704 211.77 166.201 210.522 165.195 209.575C164.188 208.616 162.892 208.136 161.306 208.136C160.217 208.136 159.199 208.426 158.252 209.006C157.317 209.586 156.559 210.391 155.979 211.421C155.411 212.439 155.127 213.617 155.127 214.955V232H150.937Z" fill="#24F0BF"/>
<path d="M151.895 385H147.278L160.631 348.636H165.176L178.528 385H173.912L163.045 354.389H162.761L151.895 385ZM153.599 370.795H172.207V374.702H153.599V370.795Z" fill="white"/>
<path d="M532.403 385V348.636H545.116C547.65 348.636 549.739 349.074 551.384 349.95C553.03 350.814 554.255 351.98 555.06 353.448C555.865 354.904 556.267 356.52 556.267 358.295C556.267 359.858 555.989 361.148 555.433 362.166C554.888 363.184 554.166 363.989 553.266 364.581C552.379 365.173 551.414 365.611 550.372 365.895V366.25C551.485 366.321 552.603 366.712 553.728 367.422C554.853 368.132 555.794 369.15 556.551 370.476C557.309 371.802 557.688 373.423 557.688 375.341C557.688 377.164 557.273 378.803 556.445 380.259C555.616 381.715 554.308 382.869 552.521 383.722C550.733 384.574 548.407 385 545.543 385H532.403ZM536.807 381.094H545.543C548.419 381.094 550.461 380.537 551.668 379.425C552.888 378.3 553.497 376.939 553.497 375.341C553.497 374.11 553.183 372.973 552.556 371.932C551.929 370.878 551.035 370.038 549.875 369.411C548.715 368.771 547.342 368.452 545.756 368.452H536.807V381.094ZM536.807 364.616H544.974C546.3 364.616 547.496 364.356 548.561 363.835C549.638 363.314 550.491 362.58 551.118 361.634C551.757 360.687 552.077 359.574 552.077 358.295C552.077 356.697 551.52 355.342 550.408 354.229C549.295 353.105 547.531 352.543 545.116 352.543H536.807V364.616Z" fill="white"/>
<path d="M561.665 54H557.261C557.001 52.7334 556.545 51.6207 555.894 50.6619C555.255 49.7031 554.474 48.8982 553.55 48.2472C552.639 47.5843 551.627 47.0871 550.514 46.7557C549.402 46.4242 548.241 46.2585 547.034 46.2585C544.832 46.2585 542.838 46.8149 541.05 47.9276C539.275 49.0402 537.86 50.6797 536.807 52.8459C535.765 55.0121 535.244 57.6695 535.244 60.8182C535.244 63.9669 535.765 66.6243 536.807 68.7905C537.86 70.9567 539.275 72.5961 541.05 73.7088C542.838 74.8215 544.832 75.3778 547.034 75.3778C548.241 75.3778 549.402 75.2121 550.514 74.8807C551.627 74.5492 552.639 74.058 553.55 73.407C554.474 72.7441 555.255 71.9332 555.894 70.9744C556.545 70.0038 557.001 68.8911 557.261 67.6364H561.665C561.333 69.4948 560.73 71.1579 559.854 72.6257C558.978 74.0935 557.889 75.3423 556.587 76.3722C555.285 77.3902 553.823 78.1655 552.201 78.6982C550.591 79.2308 548.869 79.4972 547.034 79.4972C543.933 79.4972 541.175 78.7396 538.76 77.2244C536.345 75.7093 534.445 73.5549 533.06 70.7614C531.675 67.9678 530.983 64.6534 530.983 60.8182C530.983 56.983 531.675 53.6686 533.06 50.875C534.445 48.0814 536.345 45.9271 538.76 44.4119C541.175 42.8968 543.933 42.1392 547.034 42.1392C548.869 42.1392 550.591 42.4055 552.201 42.9382C553.823 43.4709 555.285 44.2521 556.587 45.282C557.889 46.3 558.978 47.5428 559.854 49.0107C560.73 50.4666 561.333 52.1297 561.665 54Z" fill="white"/>
<path d="M166.625 79H155.403V42.6364H167.122C170.65 42.6364 173.668 43.3643 176.178 44.8203C178.687 46.2644 180.611 48.3419 181.948 51.0526C183.286 53.7514 183.955 56.983 183.955 60.7472C183.955 64.535 183.28 67.7962 181.93 70.5305C180.581 73.2531 178.616 75.3482 176.036 76.8161C173.455 78.272 170.318 79 166.625 79ZM159.807 75.0938H166.341C169.348 75.0938 171.839 74.5137 173.816 73.3537C175.793 72.1937 177.267 70.5424 178.237 68.3999C179.208 66.2573 179.693 63.7064 179.693 60.7472C179.693 57.8116 179.214 55.2843 178.255 53.1655C177.296 51.0348 175.864 49.4013 173.958 48.2649C172.052 47.1167 169.679 46.5426 166.838 46.5426H159.807V75.0938Z" fill="white"/>
<path d="M550.403 234V197.636H562.69C565.543 197.636 567.875 198.151 569.686 199.181C571.509 200.199 572.858 201.578 573.734 203.318C574.61 205.058 575.048 207 575.048 209.142C575.048 211.285 574.61 213.232 573.734 214.984C572.87 216.736 571.533 218.132 569.722 219.174C567.911 220.204 565.59 220.719 562.761 220.719H553.955V216.812H562.619C564.572 216.812 566.141 216.475 567.325 215.8C568.508 215.126 569.366 214.214 569.899 213.066C570.444 211.906 570.716 210.598 570.716 209.142C570.716 207.686 570.444 206.384 569.899 205.236C569.366 204.088 568.502 203.188 567.307 202.537C566.111 201.874 564.525 201.543 562.548 201.543H554.807V234H550.403ZM592.715 234.568C590.087 234.568 587.821 233.988 585.915 232.828C584.021 231.656 582.559 230.023 581.529 227.928C580.511 225.821 580.002 223.37 580.002 220.577C580.002 217.783 580.511 215.321 581.529 213.19C582.559 211.048 583.991 209.379 585.826 208.183C587.673 206.976 589.827 206.372 592.289 206.372C593.71 206.372 595.112 206.609 596.497 207.082C597.882 207.556 599.143 208.325 600.279 209.391C601.415 210.444 602.321 211.841 602.996 213.581C603.67 215.321 604.008 217.464 604.008 220.009V221.784H582.985V218.162H599.746C599.746 216.623 599.439 215.25 598.823 214.043C598.219 212.835 597.355 211.882 596.231 211.184C595.118 210.486 593.804 210.136 592.289 210.136C590.62 210.136 589.176 210.551 587.957 211.379C586.749 212.196 585.82 213.261 585.169 214.575C584.518 215.889 584.192 217.298 584.192 218.801V221.216C584.192 223.276 584.548 225.022 585.258 226.454C585.98 227.874 586.98 228.957 588.259 229.703C589.537 230.437 591.022 230.804 592.715 230.804C593.816 230.804 594.81 230.65 595.698 230.342C596.598 230.023 597.373 229.549 598.024 228.922C598.675 228.283 599.178 227.49 599.533 226.543L603.582 227.679C603.156 229.052 602.439 230.259 601.433 231.301C600.427 232.331 599.184 233.136 597.705 233.716C596.225 234.284 594.562 234.568 592.715 234.568ZM610.382 234V206.727H614.43V210.847H614.714C615.212 209.497 616.111 208.402 617.413 207.562C618.715 206.721 620.183 206.301 621.817 206.301C622.125 206.301 622.509 206.307 622.971 206.319C623.433 206.331 623.782 206.348 624.018 206.372V210.634C623.876 210.598 623.551 210.545 623.042 210.474C622.545 210.391 622.018 210.349 621.462 210.349C620.136 210.349 618.952 210.628 617.911 211.184C616.881 211.728 616.064 212.486 615.46 213.457C614.868 214.415 614.572 215.51 614.572 216.741V234H610.382ZM628.986 234V206.727H633.176V234H628.986ZM631.116 202.182C630.3 202.182 629.595 201.904 629.003 201.347C628.423 200.791 628.133 200.122 628.133 199.341C628.133 198.56 628.423 197.891 629.003 197.335C629.595 196.778 630.3 196.5 631.116 196.5C631.933 196.5 632.631 196.778 633.211 197.335C633.803 197.891 634.099 198.56 634.099 199.341C634.099 200.122 633.803 200.791 633.211 201.347C632.631 201.904 631.933 202.182 631.116 202.182ZM640.851 234V206.727H644.899V210.989H645.254C645.822 209.533 646.74 208.402 648.006 207.597C649.273 206.781 650.794 206.372 652.57 206.372C654.369 206.372 655.866 206.781 657.062 207.597C658.269 208.402 659.21 209.533 659.885 210.989H660.169C660.867 209.58 661.915 208.461 663.312 207.633C664.709 206.792 666.384 206.372 668.337 206.372C670.775 206.372 672.77 207.136 674.32 208.663C675.871 210.178 676.646 212.539 676.646 215.747V234H672.456V215.747C672.456 213.735 671.906 212.297 670.805 211.433C669.704 210.568 668.408 210.136 666.916 210.136C664.999 210.136 663.513 210.716 662.46 211.876C661.406 213.025 660.879 214.481 660.879 216.244V234H656.618V215.321C656.618 213.77 656.115 212.522 655.109 211.575C654.103 210.616 652.806 210.136 651.22 210.136C650.131 210.136 649.113 210.426 648.166 211.006C647.231 211.586 646.473 212.391 645.893 213.421C645.325 214.439 645.041 215.617 645.041 216.955V234H640.851ZM695.743 234.568C693.115 234.568 690.848 233.988 688.942 232.828C687.048 231.656 685.586 230.023 684.556 227.928C683.538 225.821 683.029 223.37 683.029 220.577C683.029 217.783 683.538 215.321 684.556 213.19C685.586 211.048 687.019 209.379 688.853 208.183C690.7 206.976 692.854 206.372 695.316 206.372C696.737 206.372 698.14 206.609 699.525 207.082C700.909 207.556 702.17 208.325 703.306 209.391C704.443 210.444 705.348 211.841 706.023 213.581C706.698 215.321 707.035 217.464 707.035 220.009V221.784H686.012V218.162H702.774C702.774 216.623 702.466 215.25 701.85 214.043C701.247 212.835 700.383 211.882 699.258 211.184C698.145 210.486 696.832 210.136 695.316 210.136C693.647 210.136 692.203 210.551 690.984 211.379C689.777 212.196 688.847 213.261 688.196 214.575C687.545 215.889 687.22 217.298 687.22 218.801V221.216C687.22 223.276 687.575 225.022 688.285 226.454C689.007 227.874 690.007 228.957 691.286 229.703C692.564 230.437 694.05 230.804 695.743 230.804C696.843 230.804 697.838 230.65 698.725 230.342C699.625 230.023 700.4 229.549 701.051 228.922C701.703 228.283 702.206 227.49 702.561 226.543L706.609 227.679C706.183 229.052 705.467 230.259 704.461 231.301C703.454 232.331 702.212 233.136 700.732 233.716C699.252 234.284 697.589 234.568 695.743 234.568ZM725.27 206.727V210.278H711.137V206.727H725.27ZM715.256 200.193H719.446V226.188C719.446 227.371 719.618 228.259 719.961 228.851C720.316 229.431 720.766 229.821 721.311 230.023C721.867 230.212 722.453 230.307 723.069 230.307C723.53 230.307 723.909 230.283 724.205 230.236C724.501 230.177 724.738 230.129 724.915 230.094L725.767 233.858C725.483 233.964 725.087 234.071 724.578 234.178C724.069 234.296 723.424 234.355 722.642 234.355C721.459 234.355 720.299 234.101 719.162 233.592C718.038 233.083 717.103 232.307 716.357 231.266C715.623 230.224 715.256 228.91 715.256 227.324V200.193ZM742.715 234.568C740.087 234.568 737.821 233.988 735.915 232.828C734.021 231.656 732.559 230.023 731.529 227.928C730.511 225.821 730.002 223.37 730.002 220.577C730.002 217.783 730.511 215.321 731.529 213.19C732.559 211.048 733.991 209.379 735.826 208.183C737.673 206.976 739.827 206.372 742.289 206.372C743.71 206.372 745.112 206.609 746.497 207.082C747.882 207.556 749.143 208.325 750.279 209.391C751.415 210.444 752.321 211.841 752.996 213.581C753.67 215.321 754.008 217.464 754.008 220.009V221.784H732.985V218.162H749.746C749.746 216.623 749.439 215.25 748.823 214.043C748.219 212.835 747.355 211.882 746.231 211.184C745.118 210.486 743.804 210.136 742.289 210.136C740.62 210.136 739.176 210.551 737.957 211.379C736.749 212.196 735.82 213.261 735.169 214.575C734.518 215.889 734.192 217.298 734.192 218.801V221.216C734.192 223.276 734.548 225.022 735.258 226.454C735.98 227.874 736.98 228.957 738.259 229.703C739.537 230.437 741.022 230.804 742.715 230.804C743.816 230.804 744.81 230.65 745.698 230.342C746.598 230.023 747.373 229.549 748.024 228.922C748.675 228.283 749.178 227.49 749.533 226.543L753.582 227.679C753.156 229.052 752.439 230.259 751.433 231.301C750.427 232.331 749.184 233.136 747.705 233.716C746.225 234.284 744.562 234.568 742.715 234.568ZM760.382 234V206.727H764.43V210.847H764.714C765.212 209.497 766.111 208.402 767.413 207.562C768.715 206.721 770.183 206.301 771.817 206.301C772.125 206.301 772.509 206.307 772.971 206.319C773.433 206.331 773.782 206.348 774.018 206.372V210.634C773.876 210.598 773.551 210.545 773.042 210.474C772.545 210.391 772.018 210.349 771.462 210.349C770.136 210.349 768.952 210.628 767.911 211.184C766.881 211.728 766.064 212.486 765.46 213.457C764.868 214.415 764.572 215.51 764.572 216.741V234H760.382ZM794.753 212.48V208.645H816.628V212.48H794.753ZM794.753 222.991V219.156H816.628V222.991H794.753ZM851.575 197.139C853.067 197.151 854.558 197.435 856.05 197.991C857.541 198.548 858.902 199.471 860.134 200.761C861.365 202.04 862.353 203.786 863.099 205.999C863.844 208.213 864.217 210.989 864.217 214.327C864.217 217.558 863.91 220.429 863.294 222.938C862.69 225.436 861.814 227.543 860.666 229.259C859.53 230.976 858.145 232.278 856.511 233.165C854.89 234.053 853.055 234.497 851.007 234.497C848.971 234.497 847.154 234.095 845.556 233.29C843.97 232.473 842.668 231.343 841.65 229.898C840.644 228.442 839.999 226.756 839.714 224.838H844.047C844.438 226.507 845.213 227.886 846.373 228.975C847.545 230.052 849.089 230.591 851.007 230.591C853.813 230.591 856.026 229.366 857.648 226.915C859.281 224.465 860.098 221.003 860.098 216.528H859.814C859.151 217.523 858.364 218.381 857.452 219.103C856.541 219.825 855.529 220.381 854.416 220.772C853.304 221.163 852.12 221.358 850.865 221.358C848.782 221.358 846.87 220.843 845.13 219.813C843.402 218.772 842.017 217.345 840.975 215.534C839.945 213.711 839.43 211.628 839.43 209.284C839.43 207.059 839.928 205.023 840.922 203.176C841.928 201.318 843.337 199.838 845.148 198.737C846.971 197.636 849.113 197.104 851.575 197.139ZM851.575 201.045C850.084 201.045 848.74 201.418 847.545 202.164C846.361 202.898 845.42 203.892 844.722 205.147C844.035 206.39 843.692 207.769 843.692 209.284C843.692 210.799 844.023 212.178 844.686 213.421C845.361 214.652 846.278 215.635 847.438 216.369C848.61 217.091 849.942 217.452 851.433 217.452C852.558 217.452 853.605 217.233 854.576 216.795C855.547 216.345 856.393 215.735 857.115 214.966C857.849 214.185 858.423 213.303 858.837 212.32C859.252 211.326 859.459 210.29 859.459 209.213C859.459 207.793 859.116 206.461 858.429 205.218C857.754 203.975 856.819 202.969 855.624 202.2C854.44 201.43 853.09 201.045 851.575 201.045ZM871.2 234V230.804L883.203 217.665C884.611 216.126 885.771 214.788 886.683 213.652C887.594 212.504 888.269 211.427 888.707 210.42C889.157 209.402 889.382 208.337 889.382 207.224C889.382 205.946 889.074 204.839 888.458 203.904C887.855 202.969 887.026 202.247 885.972 201.738C884.919 201.229 883.735 200.974 882.421 200.974C881.025 200.974 879.805 201.264 878.764 201.844C877.734 202.413 876.935 203.212 876.367 204.241C875.81 205.271 875.532 206.479 875.532 207.864H871.342C871.342 205.733 871.833 203.863 872.816 202.253C873.798 200.643 875.136 199.388 876.828 198.489C878.533 197.589 880.445 197.139 882.563 197.139C884.694 197.139 886.582 197.589 888.227 198.489C889.873 199.388 891.163 200.602 892.098 202.129C893.033 203.656 893.501 205.354 893.501 207.224C893.501 208.562 893.258 209.87 892.773 211.148C892.299 212.415 891.471 213.83 890.287 215.392C889.115 216.943 887.488 218.837 885.404 221.074L877.237 229.81V230.094H894.14V234H871.2ZM926.686 234.568C924.129 234.568 921.928 233.964 920.081 232.757C918.235 231.55 916.814 229.887 915.82 227.768C914.825 225.649 914.328 223.228 914.328 220.506C914.328 217.736 914.837 215.291 915.855 213.173C916.885 211.042 918.317 209.379 920.152 208.183C921.999 206.976 924.153 206.372 926.615 206.372C928.533 206.372 930.261 206.727 931.8 207.438C933.339 208.148 934.599 209.142 935.582 210.42C936.564 211.699 937.174 213.19 937.411 214.895H933.22C932.901 213.652 932.191 212.551 931.09 211.592C930.001 210.622 928.533 210.136 926.686 210.136C925.053 210.136 923.62 210.562 922.389 211.415C921.17 212.255 920.217 213.445 919.531 214.984C918.856 216.511 918.519 218.304 918.519 220.364C918.519 222.471 918.85 224.305 919.513 225.868C920.188 227.43 921.135 228.644 922.354 229.508C923.585 230.372 925.029 230.804 926.686 230.804C927.775 230.804 928.764 230.615 929.651 230.236C930.539 229.857 931.291 229.312 931.906 228.602C932.522 227.892 932.96 227.04 933.22 226.045H937.411C937.174 227.655 936.588 229.105 935.653 230.396C934.73 231.674 933.504 232.692 931.977 233.45C930.462 234.195 928.699 234.568 926.686 234.568ZM943.536 234V206.727H947.585V210.989H947.94C948.508 209.533 949.425 208.402 950.692 207.597C951.959 206.781 953.48 206.372 955.255 206.372C957.054 206.372 958.552 206.781 959.747 207.597C960.955 208.402 961.896 209.533 962.57 210.989H962.855C963.553 209.58 964.601 208.461 965.997 207.633C967.394 206.792 969.069 206.372 971.022 206.372C973.461 206.372 975.455 207.136 977.006 208.663C978.557 210.178 979.332 212.539 979.332 215.747V234H975.142V215.747C975.142 213.735 974.591 212.297 973.49 211.433C972.389 210.568 971.093 210.136 969.602 210.136C967.684 210.136 966.199 210.716 965.145 211.876C964.092 213.025 963.565 214.481 963.565 216.244V234H959.303V215.321C959.303 213.77 958.8 212.522 957.794 211.575C956.788 210.616 955.492 210.136 953.906 210.136C952.817 210.136 951.799 210.426 950.852 211.006C949.917 211.586 949.159 212.391 948.579 213.421C948.011 214.439 947.727 215.617 947.727 216.955V234H943.536Z" fill="white"/>
<line x1="208" y1="370.019" x2="207" y2="61.0196" stroke="#24F0BF" stroke-width="12"/>
</svg>
