<svg width="730" height="511" viewBox="0 0 730 511" fill="none" xmlns="http://www.w3.org/2000/svg">
<mask id="path-1-inside-1_109_288" fill="white">
<path d="M203 61H512V370H203V61Z"/>
</mask>
<path d="M203 61H512V370H203V61Z" fill="#5FD7FF"/>
<path d="M203 61V51H193V61H203ZM512 61H522V51H512V61ZM512 370V380H522V370H512ZM203 370H193V380H203V370ZM203 61V71H512V61V51H203V61ZM512 61H502V370H512H522V61H512ZM512 370V360H203V370V380H512V370ZM203 370H213V61H203H193V370H203Z" fill="#FFB84D" mask="url(#path-1-inside-1_109_288)"/>
<path d="M151.895 385H147.278L160.631 348.636H165.176L178.528 385H173.912L163.045 354.389H162.761L151.895 385ZM153.599 370.795H172.207V374.702H153.599V370.795Z" fill="white"/>
<path d="M532.403 385V348.636H545.116C547.65 348.636 549.739 349.074 551.384 349.95C553.03 350.814 554.255 351.98 555.06 353.448C555.865 354.904 556.267 356.52 556.267 358.295C556.267 359.858 555.989 361.148 555.433 362.166C554.888 363.184 554.166 363.989 553.266 364.581C552.379 365.173 551.414 365.611 550.372 365.895V366.25C551.485 366.321 552.603 366.712 553.728 367.422C554.853 368.132 555.794 369.15 556.551 370.476C557.309 371.802 557.688 373.423 557.688 375.341C557.688 377.164 557.273 378.803 556.445 380.259C555.616 381.715 554.308 382.869 552.521 383.722C550.733 384.574 548.407 385 545.543 385H532.403ZM536.807 381.094H545.543C548.419 381.094 550.461 380.537 551.668 379.425C552.888 378.3 553.497 376.939 553.497 375.341C553.497 374.11 553.183 372.973 552.556 371.932C551.929 370.878 551.035 370.038 549.875 369.411C548.715 368.771 547.342 368.452 545.756 368.452H536.807V381.094ZM536.807 364.616H544.974C546.3 364.616 547.496 364.356 548.561 363.835C549.638 363.314 550.491 362.58 551.118 361.634C551.757 360.687 552.077 359.574 552.077 358.295C552.077 356.697 551.52 355.342 550.408 354.229C549.295 353.105 547.531 352.543 545.116 352.543H536.807V364.616Z" fill="white"/>
<path d="M561.665 54H557.261C557.001 52.7334 556.545 51.6207 555.894 50.6619C555.255 49.7031 554.474 48.8982 553.55 48.2472C552.639 47.5843 551.627 47.0871 550.514 46.7557C549.402 46.4242 548.241 46.2585 547.034 46.2585C544.832 46.2585 542.838 46.8149 541.05 47.9276C539.275 49.0402 537.86 50.6797 536.807 52.8459C535.765 55.0121 535.244 57.6695 535.244 60.8182C535.244 63.9669 535.765 66.6243 536.807 68.7905C537.86 70.9567 539.275 72.5961 541.05 73.7088C542.838 74.8215 544.832 75.3778 547.034 75.3778C548.241 75.3778 549.402 75.2121 550.514 74.8807C551.627 74.5492 552.639 74.058 553.55 73.407C554.474 72.7441 555.255 71.9332 555.894 70.9744C556.545 70.0038 557.001 68.8911 557.261 67.6364H561.665C561.333 69.4948 560.73 71.1579 559.854 72.6257C558.978 74.0935 557.889 75.3423 556.587 76.3722C555.285 77.3902 553.823 78.1655 552.201 78.6982C550.591 79.2308 548.869 79.4972 547.034 79.4972C543.933 79.4972 541.175 78.7396 538.76 77.2244C536.345 75.7093 534.445 73.5549 533.06 70.7614C531.675 67.9678 530.983 64.6534 530.983 60.8182C530.983 56.983 531.675 53.6686 533.06 50.875C534.445 48.0814 536.345 45.9271 538.76 44.4119C541.175 42.8968 543.933 42.1392 547.034 42.1392C548.869 42.1392 550.591 42.4055 552.201 42.9382C553.823 43.4709 555.285 44.2521 556.587 45.282C557.889 46.3 558.978 47.5428 559.854 49.0107C560.73 50.4666 561.333 52.1297 561.665 54Z" fill="white"/>
<path d="M166.625 79H155.403V42.6364H167.122C170.65 42.6364 173.668 43.3643 176.178 44.8203C178.687 46.2644 180.611 48.3419 181.948 51.0526C183.286 53.7514 183.955 56.983 183.955 60.7472C183.955 64.535 183.28 67.7962 181.93 70.5305C180.581 73.2531 178.616 75.3482 176.036 76.8161C173.455 78.272 170.318 79 166.625 79ZM159.807 75.0938H166.341C169.348 75.0938 171.839 74.5137 173.816 73.3537C175.793 72.1937 177.267 70.5424 178.237 68.3999C179.208 66.2573 179.693 63.7064 179.693 60.7472C179.693 57.8116 179.214 55.2843 178.255 53.1655C177.296 51.0348 175.864 49.4013 173.958 48.2649C172.052 47.1167 169.679 46.5426 166.838 46.5426H159.807V75.0938Z" fill="white"/>
<path d="M150.403 470V433.636H154.807V451.676H155.233L171.568 433.636H177.321L162.051 450.043L177.321 470H171.994L159.352 453.097L154.807 458.21V470H150.403ZM191.885 470.568C189.257 470.568 186.99 469.988 185.085 468.828C183.191 467.656 181.729 466.023 180.699 463.928C179.681 461.821 179.172 459.37 179.172 456.577C179.172 453.783 179.681 451.321 180.699 449.19C181.729 447.048 183.161 445.379 184.996 444.183C186.843 442.976 188.997 442.372 191.459 442.372C192.879 442.372 194.282 442.609 195.667 443.082C197.052 443.556 198.313 444.325 199.449 445.391C200.585 446.444 201.491 447.841 202.166 449.581C202.84 451.321 203.178 453.464 203.178 456.009V457.784H182.155V454.162H198.916C198.916 452.623 198.609 451.25 197.993 450.043C197.389 448.835 196.525 447.882 195.401 447.184C194.288 446.486 192.974 446.136 191.459 446.136C189.79 446.136 188.346 446.551 187.127 447.379C185.919 448.196 184.99 449.261 184.339 450.575C183.688 451.889 183.362 453.298 183.362 454.801V457.216C183.362 459.276 183.718 461.022 184.428 462.454C185.15 463.874 186.15 464.957 187.428 465.703C188.707 466.437 190.192 466.804 191.885 466.804C192.986 466.804 193.98 466.65 194.868 466.342C195.768 466.023 196.543 465.549 197.194 464.922C197.845 464.283 198.348 463.49 198.703 462.543L202.752 463.679C202.325 465.052 201.609 466.259 200.603 467.301C199.597 468.331 198.354 469.136 196.874 469.716C195.395 470.284 193.732 470.568 191.885 470.568ZM213.742 433.636V470H209.552V433.636H213.742ZM221.417 470V442.727H225.608V470H221.417ZM223.548 438.182C222.731 438.182 222.027 437.904 221.435 437.347C220.855 436.791 220.565 436.122 220.565 435.341C220.565 434.56 220.855 433.891 221.435 433.335C222.027 432.778 222.731 432.5 223.548 432.5C224.365 432.5 225.063 432.778 225.643 433.335C226.235 433.891 226.531 434.56 226.531 435.341C226.531 436.122 226.235 436.791 225.643 437.347C225.063 437.904 224.365 438.182 223.548 438.182ZM237.473 433.636V470H233.282V433.636H237.473ZM245.148 470V442.727H249.338V470H245.148ZM247.278 438.182C246.462 438.182 245.757 437.904 245.165 437.347C244.585 436.791 244.295 436.122 244.295 435.341C244.295 434.56 244.585 433.891 245.165 433.335C245.757 432.778 246.462 432.5 247.278 432.5C248.095 432.5 248.794 432.778 249.374 433.335C249.965 433.891 250.261 434.56 250.261 435.341C250.261 436.122 249.965 436.791 249.374 437.347C248.794 437.904 248.095 438.182 247.278 438.182ZM261.203 453.594V470H257.013V442.727H261.061V446.989H261.416C262.056 445.604 263.026 444.491 264.328 443.651C265.63 442.798 267.311 442.372 269.371 442.372C271.218 442.372 272.833 442.751 274.218 443.509C275.603 444.254 276.68 445.391 277.45 446.918C278.219 448.433 278.604 450.35 278.604 452.67V470H274.414V452.955C274.414 450.812 273.857 449.143 272.744 447.947C271.632 446.74 270.105 446.136 268.164 446.136C266.826 446.136 265.63 446.426 264.577 447.006C263.535 447.586 262.713 448.433 262.109 449.545C261.505 450.658 261.203 452.008 261.203 453.594ZM297.27 480.795C295.245 480.795 293.505 480.535 292.049 480.014C290.593 479.505 289.38 478.83 288.409 477.99C287.451 477.161 286.687 476.274 286.119 475.327L289.457 472.983C289.836 473.48 290.315 474.048 290.895 474.688C291.475 475.339 292.268 475.901 293.275 476.374C294.292 476.86 295.624 477.102 297.27 477.102C299.471 477.102 301.288 476.57 302.721 475.504C304.153 474.439 304.869 472.77 304.869 470.497V464.957H304.514C304.206 465.455 303.768 466.07 303.2 466.804C302.644 467.526 301.839 468.171 300.785 468.739C299.743 469.296 298.335 469.574 296.559 469.574C294.358 469.574 292.381 469.053 290.629 468.011C288.889 466.97 287.51 465.455 286.492 463.466C285.486 461.477 284.983 459.062 284.983 456.222C284.983 453.428 285.474 450.996 286.456 448.924C287.439 446.841 288.806 445.231 290.558 444.094C292.31 442.946 294.334 442.372 296.63 442.372C298.406 442.372 299.815 442.668 300.856 443.26C301.91 443.84 302.715 444.503 303.271 445.249C303.839 445.982 304.277 446.586 304.585 447.06H305.011V442.727H309.059V470.781C309.059 473.125 308.527 475.031 307.461 476.499C306.408 477.978 304.987 479.061 303.2 479.748C301.424 480.446 299.448 480.795 297.27 480.795ZM297.127 465.81C298.808 465.81 300.229 465.425 301.389 464.656C302.549 463.886 303.431 462.779 304.034 461.335C304.638 459.891 304.94 458.163 304.94 456.151C304.94 454.186 304.644 452.451 304.052 450.948C303.46 449.445 302.584 448.267 301.424 447.415C300.264 446.562 298.832 446.136 297.127 446.136C295.352 446.136 293.872 446.586 292.689 447.486C291.517 448.385 290.635 449.593 290.043 451.108C289.463 452.623 289.173 454.304 289.173 456.151C289.173 458.045 289.469 459.719 290.061 461.175C290.664 462.62 291.552 463.756 292.724 464.585C293.908 465.401 295.376 465.81 297.127 465.81ZM332.497 448.48V444.645H354.372V448.48H332.497ZM332.497 458.991V455.156H354.372V458.991H332.497ZM389.319 433.139C390.811 433.151 392.302 433.435 393.794 433.991C395.285 434.548 396.647 435.471 397.878 436.761C399.109 438.04 400.097 439.786 400.843 441.999C401.589 444.213 401.961 446.989 401.961 450.327C401.961 453.558 401.654 456.429 401.038 458.938C400.434 461.436 399.559 463.543 398.41 465.259C397.274 466.976 395.889 468.278 394.256 469.165C392.634 470.053 390.799 470.497 388.751 470.497C386.715 470.497 384.898 470.095 383.3 469.29C381.714 468.473 380.412 467.343 379.394 465.898C378.388 464.442 377.743 462.756 377.459 460.838H381.791C382.182 462.507 382.957 463.886 384.117 464.975C385.289 466.052 386.834 466.591 388.751 466.591C391.557 466.591 393.77 465.366 395.392 462.915C397.025 460.465 397.842 457.003 397.842 452.528H397.558C396.895 453.523 396.108 454.381 395.197 455.103C394.285 455.825 393.273 456.381 392.16 456.772C391.048 457.163 389.864 457.358 388.609 457.358C386.526 457.358 384.614 456.843 382.874 455.813C381.146 454.772 379.761 453.345 378.719 451.534C377.689 449.711 377.175 447.628 377.175 445.284C377.175 443.059 377.672 441.023 378.666 439.176C379.672 437.318 381.081 435.838 382.892 434.737C384.715 433.636 386.857 433.104 389.319 433.139ZM389.319 437.045C387.828 437.045 386.484 437.418 385.289 438.164C384.105 438.898 383.164 439.892 382.466 441.147C381.779 442.39 381.436 443.769 381.436 445.284C381.436 446.799 381.767 448.178 382.43 449.421C383.105 450.652 384.022 451.635 385.182 452.369C386.354 453.091 387.686 453.452 389.177 453.452C390.302 453.452 391.349 453.233 392.32 452.795C393.291 452.345 394.137 451.735 394.859 450.966C395.593 450.185 396.167 449.303 396.581 448.32C396.996 447.326 397.203 446.29 397.203 445.213C397.203 443.793 396.86 442.461 396.173 441.218C395.498 439.975 394.563 438.969 393.368 438.2C392.184 437.43 390.835 437.045 389.319 437.045ZM408.944 470V466.804L420.947 453.665C422.355 452.126 423.515 450.788 424.427 449.652C425.338 448.504 426.013 447.427 426.451 446.42C426.901 445.402 427.126 444.337 427.126 443.224C427.126 441.946 426.818 440.839 426.202 439.904C425.599 438.969 424.77 438.247 423.717 437.738C422.663 437.229 421.479 436.974 420.165 436.974C418.769 436.974 417.549 437.264 416.508 437.844C415.478 438.413 414.679 439.212 414.111 440.241C413.554 441.271 413.276 442.479 413.276 443.864H409.086C409.086 441.733 409.577 439.863 410.56 438.253C411.542 436.643 412.88 435.388 414.572 434.489C416.277 433.589 418.189 433.139 420.308 433.139C422.438 433.139 424.326 433.589 425.972 434.489C427.617 435.388 428.907 436.602 429.842 438.129C430.777 439.656 431.245 441.354 431.245 443.224C431.245 444.562 431.002 445.87 430.517 447.148C430.044 448.415 429.215 449.83 428.031 451.392C426.859 452.943 425.232 454.837 423.148 457.074L414.981 465.81V466.094H431.884V470H408.944ZM464.43 470.568C461.874 470.568 459.672 469.964 457.825 468.757C455.979 467.55 454.558 465.887 453.564 463.768C452.57 461.649 452.072 459.228 452.072 456.506C452.072 453.736 452.581 451.291 453.599 449.173C454.629 447.042 456.062 445.379 457.896 444.183C459.743 442.976 461.897 442.372 464.359 442.372C466.277 442.372 468.005 442.727 469.544 443.438C471.083 444.148 472.344 445.142 473.326 446.42C474.308 447.699 474.918 449.19 475.155 450.895H470.964C470.645 449.652 469.935 448.551 468.834 447.592C467.745 446.622 466.277 446.136 464.43 446.136C462.797 446.136 461.365 446.562 460.134 447.415C458.914 448.255 457.961 449.445 457.275 450.984C456.6 452.511 456.263 454.304 456.263 456.364C456.263 458.471 456.594 460.305 457.257 461.868C457.932 463.43 458.879 464.644 460.098 465.508C461.329 466.372 462.773 466.804 464.43 466.804C465.519 466.804 466.508 466.615 467.396 466.236C468.283 465.857 469.035 465.312 469.651 464.602C470.266 463.892 470.704 463.04 470.964 462.045H475.155C474.918 463.655 474.332 465.105 473.397 466.396C472.474 467.674 471.249 468.692 469.722 469.45C468.206 470.195 466.443 470.568 464.43 470.568ZM481.281 470V442.727H485.329V446.989H485.684C486.252 445.533 487.17 444.402 488.436 443.597C489.703 442.781 491.224 442.372 492.999 442.372C494.799 442.372 496.296 442.781 497.491 443.597C498.699 444.402 499.64 445.533 500.315 446.989H500.599C501.297 445.58 502.345 444.461 503.741 443.633C505.138 442.792 506.813 442.372 508.766 442.372C511.205 442.372 513.199 443.136 514.75 444.663C516.301 446.178 517.076 448.539 517.076 451.747V470H512.886V451.747C512.886 449.735 512.335 448.297 511.234 447.433C510.134 446.568 508.837 446.136 507.346 446.136C505.428 446.136 503.943 446.716 502.889 447.876C501.836 449.025 501.309 450.481 501.309 452.244V470H497.048V451.321C497.048 449.77 496.545 448.522 495.538 447.575C494.532 446.616 493.236 446.136 491.65 446.136C490.561 446.136 489.543 446.426 488.596 447.006C487.661 447.586 486.903 448.391 486.323 449.421C485.755 450.439 485.471 451.617 485.471 452.955V470H481.281Z" fill="#FFB84D"/>
</svg>
