<svg width="730" height="511" viewBox="0 0 730 511" fill="none" xmlns="http://www.w3.org/2000/svg">
<mask id="path-1-inside-1_79_132" fill="white">
<path d="M203 61H512V370H203V61Z"/>
</mask>
<path d="M203 61H512V370H203V61Z" fill="#5FD7FF"/>
<path d="M203 61V51H193V61H203ZM512 61H522V51H512V61ZM512 370V380H522V370H512ZM203 370H193V380H203V370ZM203 61V71H512V61V51H203V61ZM512 61H502V370H512H522V61H512ZM512 370V360H203V370V380H512V370ZM203 370H213V61H203H193V370H203Z" fill="white" mask="url(#path-1-inside-1_79_132)"/>
<path d="M171.304 213.773V213.56C171.328 211.299 171.564 209.5 172.014 208.162C172.464 206.824 173.103 205.741 173.932 204.913C174.76 204.084 175.755 203.321 176.915 202.622C177.613 202.196 178.241 201.693 178.797 201.113C179.353 200.521 179.791 199.84 180.111 199.071C180.442 198.302 180.608 197.449 180.608 196.514C180.608 195.354 180.336 194.348 179.791 193.496C179.247 192.643 178.519 191.987 177.607 191.525C176.696 191.063 175.684 190.832 174.571 190.832C173.6 190.832 172.665 191.034 171.766 191.436C170.866 191.839 170.114 192.472 169.511 193.336C168.907 194.2 168.558 195.33 168.463 196.727H163.989C164.083 194.715 164.604 192.993 165.551 191.56C166.51 190.128 167.771 189.033 169.333 188.276C170.907 187.518 172.653 187.139 174.571 187.139C176.654 187.139 178.465 187.554 180.004 188.382C181.555 189.211 182.75 190.347 183.591 191.791C184.443 193.235 184.869 194.881 184.869 196.727C184.869 198.029 184.668 199.207 184.266 200.261C183.875 201.314 183.307 202.255 182.561 203.084C181.827 203.912 180.939 204.646 179.898 205.286C178.856 205.937 178.022 206.623 177.394 207.345C176.767 208.055 176.311 208.902 176.027 209.884C175.743 210.867 175.589 212.092 175.565 213.56V213.773H171.304ZM173.577 224.284C172.701 224.284 171.949 223.97 171.322 223.343C170.694 222.716 170.381 221.964 170.381 221.088C170.381 220.212 170.694 219.46 171.322 218.833C171.949 218.206 172.701 217.892 173.577 217.892C174.453 217.892 175.204 218.206 175.832 218.833C176.459 219.46 176.773 220.212 176.773 221.088C176.773 221.668 176.625 222.201 176.329 222.686C176.045 223.171 175.66 223.562 175.175 223.858C174.701 224.142 174.169 224.284 173.577 224.284Z" fill="#F8B32A"/>
<path d="M151.895 385H147.278L160.631 348.636H165.176L178.528 385H173.912L163.045 354.389H162.761L151.895 385ZM153.599 370.795H172.207V374.702H153.599V370.795Z" fill="white"/>
<path d="M532.403 385V348.636H545.116C547.65 348.636 549.739 349.074 551.384 349.95C553.03 350.814 554.255 351.98 555.06 353.448C555.865 354.904 556.267 356.52 556.267 358.295C556.267 359.858 555.989 361.148 555.433 362.166C554.888 363.184 554.166 363.989 553.266 364.581C552.379 365.173 551.414 365.611 550.372 365.895V366.25C551.485 366.321 552.603 366.712 553.728 367.422C554.853 368.132 555.794 369.15 556.551 370.476C557.309 371.802 557.688 373.423 557.688 375.341C557.688 377.164 557.273 378.803 556.445 380.259C555.616 381.715 554.308 382.869 552.521 383.722C550.733 384.574 548.407 385 545.543 385H532.403ZM536.807 381.094H545.543C548.419 381.094 550.461 380.537 551.668 379.425C552.888 378.3 553.497 376.939 553.497 375.341C553.497 374.11 553.183 372.973 552.556 371.932C551.929 370.878 551.035 370.038 549.875 369.411C548.715 368.771 547.342 368.452 545.756 368.452H536.807V381.094ZM536.807 364.616H544.974C546.3 364.616 547.496 364.356 548.561 363.835C549.638 363.314 550.491 362.58 551.118 361.634C551.757 360.687 552.077 359.574 552.077 358.295C552.077 356.697 551.52 355.342 550.408 354.229C549.295 353.105 547.531 352.543 545.116 352.543H536.807V364.616Z" fill="white"/>
<path d="M561.665 54H557.261C557.001 52.7334 556.545 51.6207 555.894 50.6619C555.255 49.7031 554.474 48.8982 553.55 48.2472C552.639 47.5843 551.627 47.0871 550.514 46.7557C549.402 46.4242 548.241 46.2585 547.034 46.2585C544.832 46.2585 542.838 46.8149 541.05 47.9276C539.275 49.0402 537.86 50.6797 536.807 52.8459C535.765 55.0121 535.244 57.6695 535.244 60.8182C535.244 63.9669 535.765 66.6243 536.807 68.7905C537.86 70.9567 539.275 72.5961 541.05 73.7088C542.838 74.8215 544.832 75.3778 547.034 75.3778C548.241 75.3778 549.402 75.2121 550.514 74.8807C551.627 74.5492 552.639 74.058 553.55 73.407C554.474 72.7441 555.255 71.9332 555.894 70.9744C556.545 70.0038 557.001 68.8911 557.261 67.6364H561.665C561.333 69.4948 560.73 71.1579 559.854 72.6257C558.978 74.0935 557.889 75.3423 556.587 76.3722C555.285 77.3902 553.823 78.1655 552.201 78.6982C550.591 79.2308 548.869 79.4972 547.034 79.4972C543.933 79.4972 541.175 78.7396 538.76 77.2244C536.345 75.7093 534.445 73.5549 533.06 70.7614C531.675 67.9678 530.983 64.6534 530.983 60.8182C530.983 56.983 531.675 53.6686 533.06 50.875C534.445 48.0814 536.345 45.9271 538.76 44.4119C541.175 42.8968 543.933 42.1392 547.034 42.1392C548.869 42.1392 550.591 42.4055 552.201 42.9382C553.823 43.4709 555.285 44.2521 556.587 45.282C557.889 46.3 558.978 47.5428 559.854 49.0107C560.73 50.4666 561.333 52.1297 561.665 54Z" fill="white"/>
<path d="M166.625 79H155.403V42.6364H167.122C170.65 42.6364 173.668 43.3643 176.178 44.8203C178.687 46.2644 180.611 48.3419 181.948 51.0526C183.286 53.7514 183.955 56.983 183.955 60.7472C183.955 64.535 183.28 67.7962 181.93 70.5305C180.581 73.2531 178.616 75.3482 176.036 76.8161C173.455 78.272 170.318 79 166.625 79ZM159.807 75.0938H166.341C169.348 75.0938 171.839 74.5137 173.816 73.3537C175.793 72.1937 177.267 70.5424 178.237 68.3999C179.208 66.2573 179.693 63.7064 179.693 60.7472C179.693 57.8116 179.214 55.2843 178.255 53.1655C177.296 51.0348 175.864 49.4013 173.958 48.2649C172.052 47.1167 169.679 46.5426 166.838 46.5426H159.807V75.0938Z" fill="white"/>
<path d="M150.403 470V433.636H162.69C165.543 433.636 167.875 434.151 169.686 435.181C171.509 436.199 172.858 437.578 173.734 439.318C174.61 441.058 175.048 443 175.048 445.142C175.048 447.285 174.61 449.232 173.734 450.984C172.87 452.736 171.533 454.132 169.722 455.174C167.911 456.204 165.59 456.719 162.761 456.719H153.955V452.812H162.619C164.572 452.812 166.141 452.475 167.325 451.8C168.508 451.126 169.366 450.214 169.899 449.066C170.444 447.906 170.716 446.598 170.716 445.142C170.716 443.686 170.444 442.384 169.899 441.236C169.366 440.088 168.502 439.188 167.307 438.537C166.111 437.874 164.525 437.543 162.548 437.543H154.807V470H150.403ZM192.715 470.568C190.087 470.568 187.821 469.988 185.915 468.828C184.021 467.656 182.559 466.023 181.529 463.928C180.511 461.821 180.002 459.37 180.002 456.577C180.002 453.783 180.511 451.321 181.529 449.19C182.559 447.048 183.991 445.379 185.826 444.183C187.673 442.976 189.827 442.372 192.289 442.372C193.71 442.372 195.112 442.609 196.497 443.082C197.882 443.556 199.143 444.325 200.279 445.391C201.415 446.444 202.321 447.841 202.996 449.581C203.67 451.321 204.008 453.464 204.008 456.009V457.784H182.985V454.162H199.746C199.746 452.623 199.439 451.25 198.823 450.043C198.219 448.835 197.355 447.882 196.231 447.184C195.118 446.486 193.804 446.136 192.289 446.136C190.62 446.136 189.176 446.551 187.957 447.379C186.749 448.196 185.82 449.261 185.169 450.575C184.518 451.889 184.192 453.298 184.192 454.801V457.216C184.192 459.276 184.548 461.022 185.258 462.454C185.98 463.874 186.98 464.957 188.259 465.703C189.537 466.437 191.022 466.804 192.715 466.804C193.816 466.804 194.81 466.65 195.698 466.342C196.598 466.023 197.373 465.549 198.024 464.922C198.675 464.283 199.178 463.49 199.533 462.543L203.582 463.679C203.156 465.052 202.439 466.259 201.433 467.301C200.427 468.331 199.184 469.136 197.705 469.716C196.225 470.284 194.562 470.568 192.715 470.568ZM210.382 470V442.727H214.43V446.847H214.714C215.212 445.497 216.111 444.402 217.413 443.562C218.715 442.721 220.183 442.301 221.817 442.301C222.125 442.301 222.509 442.307 222.971 442.319C223.433 442.331 223.782 442.348 224.018 442.372V446.634C223.876 446.598 223.551 446.545 223.042 446.474C222.545 446.391 222.018 446.349 221.462 446.349C220.136 446.349 218.952 446.628 217.911 447.184C216.881 447.728 216.064 448.486 215.46 449.457C214.868 450.415 214.572 451.51 214.572 452.741V470H210.382ZM228.986 470V442.727H233.176V470H228.986ZM231.116 438.182C230.3 438.182 229.595 437.904 229.003 437.347C228.423 436.791 228.133 436.122 228.133 435.341C228.133 434.56 228.423 433.891 229.003 433.335C229.595 432.778 230.3 432.5 231.116 432.5C231.933 432.5 232.631 432.778 233.211 433.335C233.803 433.891 234.099 434.56 234.099 435.341C234.099 436.122 233.803 436.791 233.211 437.347C232.631 437.904 231.933 438.182 231.116 438.182ZM240.851 470V442.727H244.899V446.989H245.254C245.822 445.533 246.74 444.402 248.006 443.597C249.273 442.781 250.794 442.372 252.57 442.372C254.369 442.372 255.866 442.781 257.062 443.597C258.269 444.402 259.21 445.533 259.885 446.989H260.169C260.867 445.58 261.915 444.461 263.312 443.633C264.709 442.792 266.384 442.372 268.337 442.372C270.775 442.372 272.77 443.136 274.32 444.663C275.871 446.178 276.646 448.539 276.646 451.747V470H272.456V451.747C272.456 449.735 271.906 448.297 270.805 447.433C269.704 446.568 268.408 446.136 266.916 446.136C264.999 446.136 263.513 446.716 262.46 447.876C261.406 449.025 260.879 450.481 260.879 452.244V470H256.618V451.321C256.618 449.77 256.115 448.522 255.109 447.575C254.103 446.616 252.806 446.136 251.22 446.136C250.131 446.136 249.113 446.426 248.166 447.006C247.231 447.586 246.473 448.391 245.893 449.421C245.325 450.439 245.041 451.617 245.041 452.955V470H240.851ZM295.743 470.568C293.115 470.568 290.848 469.988 288.942 468.828C287.048 467.656 285.586 466.023 284.556 463.928C283.538 461.821 283.029 459.37 283.029 456.577C283.029 453.783 283.538 451.321 284.556 449.19C285.586 447.048 287.019 445.379 288.853 444.183C290.7 442.976 292.854 442.372 295.316 442.372C296.737 442.372 298.14 442.609 299.525 443.082C300.909 443.556 302.17 444.325 303.306 445.391C304.443 446.444 305.348 447.841 306.023 449.581C306.698 451.321 307.035 453.464 307.035 456.009V457.784H286.012V454.162H302.774C302.774 452.623 302.466 451.25 301.85 450.043C301.247 448.835 300.383 447.882 299.258 447.184C298.145 446.486 296.832 446.136 295.316 446.136C293.647 446.136 292.203 446.551 290.984 447.379C289.777 448.196 288.847 449.261 288.196 450.575C287.545 451.889 287.22 453.298 287.22 454.801V457.216C287.22 459.276 287.575 461.022 288.285 462.454C289.007 463.874 290.007 464.957 291.286 465.703C292.564 466.437 294.05 466.804 295.743 466.804C296.843 466.804 297.838 466.65 298.725 466.342C299.625 466.023 300.4 465.549 301.051 464.922C301.703 464.283 302.206 463.49 302.561 462.543L306.609 463.679C306.183 465.052 305.467 466.259 304.461 467.301C303.454 468.331 302.212 469.136 300.732 469.716C299.252 470.284 297.589 470.568 295.743 470.568ZM325.27 442.727V446.278H311.137V442.727H325.27ZM315.256 436.193H319.446V462.188C319.446 463.371 319.618 464.259 319.961 464.851C320.316 465.431 320.766 465.821 321.311 466.023C321.867 466.212 322.453 466.307 323.069 466.307C323.53 466.307 323.909 466.283 324.205 466.236C324.501 466.177 324.738 466.129 324.915 466.094L325.767 469.858C325.483 469.964 325.087 470.071 324.578 470.178C324.069 470.296 323.424 470.355 322.642 470.355C321.459 470.355 320.299 470.101 319.162 469.592C318.038 469.083 317.103 468.307 316.357 467.266C315.623 466.224 315.256 464.91 315.256 463.324V436.193ZM342.715 470.568C340.087 470.568 337.821 469.988 335.915 468.828C334.021 467.656 332.559 466.023 331.529 463.928C330.511 461.821 330.002 459.37 330.002 456.577C330.002 453.783 330.511 451.321 331.529 449.19C332.559 447.048 333.991 445.379 335.826 444.183C337.673 442.976 339.827 442.372 342.289 442.372C343.71 442.372 345.112 442.609 346.497 443.082C347.882 443.556 349.143 444.325 350.279 445.391C351.415 446.444 352.321 447.841 352.996 449.581C353.67 451.321 354.008 453.464 354.008 456.009V457.784H332.985V454.162H349.746C349.746 452.623 349.439 451.25 348.823 450.043C348.219 448.835 347.355 447.882 346.231 447.184C345.118 446.486 343.804 446.136 342.289 446.136C340.62 446.136 339.176 446.551 337.957 447.379C336.749 448.196 335.82 449.261 335.169 450.575C334.518 451.889 334.192 453.298 334.192 454.801V457.216C334.192 459.276 334.548 461.022 335.258 462.454C335.98 463.874 336.98 464.957 338.259 465.703C339.537 466.437 341.022 466.804 342.715 466.804C343.816 466.804 344.81 466.65 345.698 466.342C346.598 466.023 347.373 465.549 348.024 464.922C348.675 464.283 349.178 463.49 349.533 462.543L353.582 463.679C353.156 465.052 352.439 466.259 351.433 467.301C350.427 468.331 349.184 469.136 347.705 469.716C346.225 470.284 344.562 470.568 342.715 470.568ZM360.382 470V442.727H364.43V446.847H364.714C365.212 445.497 366.111 444.402 367.413 443.562C368.715 442.721 370.183 442.301 371.817 442.301C372.125 442.301 372.509 442.307 372.971 442.319C373.433 442.331 373.782 442.348 374.018 442.372V446.634C373.876 446.598 373.551 446.545 373.042 446.474C372.545 446.391 372.018 446.349 371.462 446.349C370.136 446.349 368.952 446.628 367.911 447.184C366.881 447.728 366.064 448.486 365.46 449.457C364.868 450.415 364.572 451.51 364.572 452.741V470H360.382ZM394.753 448.48V444.645H416.628V448.48H394.753ZM394.753 458.991V455.156H416.628V458.991H394.753ZM451.575 433.139C453.067 433.151 454.558 433.435 456.05 433.991C457.541 434.548 458.902 435.471 460.134 436.761C461.365 438.04 462.353 439.786 463.099 441.999C463.844 444.213 464.217 446.989 464.217 450.327C464.217 453.558 463.91 456.429 463.294 458.938C462.69 461.436 461.814 463.543 460.666 465.259C459.53 466.976 458.145 468.278 456.511 469.165C454.89 470.053 453.055 470.497 451.007 470.497C448.971 470.497 447.154 470.095 445.556 469.29C443.97 468.473 442.668 467.343 441.65 465.898C440.644 464.442 439.999 462.756 439.714 460.838H444.047C444.438 462.507 445.213 463.886 446.373 464.975C447.545 466.052 449.089 466.591 451.007 466.591C453.813 466.591 456.026 465.366 457.648 462.915C459.281 460.465 460.098 457.003 460.098 452.528H459.814C459.151 453.523 458.364 454.381 457.452 455.103C456.541 455.825 455.529 456.381 454.416 456.772C453.304 457.163 452.12 457.358 450.865 457.358C448.782 457.358 446.87 456.843 445.13 455.813C443.402 454.772 442.017 453.345 440.975 451.534C439.945 449.711 439.43 447.628 439.43 445.284C439.43 443.059 439.928 441.023 440.922 439.176C441.928 437.318 443.337 435.838 445.148 434.737C446.971 433.636 449.113 433.104 451.575 433.139ZM451.575 437.045C450.084 437.045 448.74 437.418 447.545 438.164C446.361 438.898 445.42 439.892 444.722 441.147C444.035 442.39 443.692 443.769 443.692 445.284C443.692 446.799 444.023 448.178 444.686 449.421C445.361 450.652 446.278 451.635 447.438 452.369C448.61 453.091 449.942 453.452 451.433 453.452C452.558 453.452 453.605 453.233 454.576 452.795C455.547 452.345 456.393 451.735 457.115 450.966C457.849 450.185 458.423 449.303 458.837 448.32C459.252 447.326 459.459 446.29 459.459 445.213C459.459 443.793 459.116 442.461 458.429 441.218C457.754 439.975 456.819 438.969 455.624 438.2C454.44 437.43 453.09 437.045 451.575 437.045ZM471.2 470V466.804L483.203 453.665C484.611 452.126 485.771 450.788 486.683 449.652C487.594 448.504 488.269 447.427 488.707 446.42C489.157 445.402 489.382 444.337 489.382 443.224C489.382 441.946 489.074 440.839 488.458 439.904C487.855 438.969 487.026 438.247 485.972 437.738C484.919 437.229 483.735 436.974 482.421 436.974C481.025 436.974 479.805 437.264 478.764 437.844C477.734 438.413 476.935 439.212 476.367 440.241C475.81 441.271 475.532 442.479 475.532 443.864H471.342C471.342 441.733 471.833 439.863 472.816 438.253C473.798 436.643 475.136 435.388 476.828 434.489C478.533 433.589 480.445 433.139 482.563 433.139C484.694 433.139 486.582 433.589 488.227 434.489C489.873 435.388 491.163 436.602 492.098 438.129C493.033 439.656 493.501 441.354 493.501 443.224C493.501 444.562 493.258 445.87 492.773 447.148C492.299 448.415 491.471 449.83 490.287 451.392C489.115 452.943 487.488 454.837 485.404 457.074L477.237 465.81V466.094H494.14V470H471.2ZM526.686 470.568C524.129 470.568 521.928 469.964 520.081 468.757C518.235 467.55 516.814 465.887 515.82 463.768C514.825 461.649 514.328 459.228 514.328 456.506C514.328 453.736 514.837 451.291 515.855 449.173C516.885 447.042 518.317 445.379 520.152 444.183C521.999 442.976 524.153 442.372 526.615 442.372C528.533 442.372 530.261 442.727 531.8 443.438C533.339 444.148 534.599 445.142 535.582 446.42C536.564 447.699 537.174 449.19 537.411 450.895H533.22C532.901 449.652 532.191 448.551 531.09 447.592C530.001 446.622 528.533 446.136 526.686 446.136C525.053 446.136 523.62 446.562 522.389 447.415C521.17 448.255 520.217 449.445 519.531 450.984C518.856 452.511 518.519 454.304 518.519 456.364C518.519 458.471 518.85 460.305 519.513 461.868C520.188 463.43 521.135 464.644 522.354 465.508C523.585 466.372 525.029 466.804 526.686 466.804C527.775 466.804 528.764 466.615 529.651 466.236C530.539 465.857 531.291 465.312 531.906 464.602C532.522 463.892 532.96 463.04 533.22 462.045H537.411C537.174 463.655 536.588 465.105 535.653 466.396C534.73 467.674 533.504 468.692 531.977 469.45C530.462 470.195 528.699 470.568 526.686 470.568ZM543.536 470V442.727H547.585V446.989H547.94C548.508 445.533 549.425 444.402 550.692 443.597C551.959 442.781 553.48 442.372 555.255 442.372C557.054 442.372 558.552 442.781 559.747 443.597C560.955 444.402 561.896 445.533 562.57 446.989H562.855C563.553 445.58 564.601 444.461 565.997 443.633C567.394 442.792 569.069 442.372 571.022 442.372C573.461 442.372 575.455 443.136 577.006 444.663C578.557 446.178 579.332 448.539 579.332 451.747V470H575.142V451.747C575.142 449.735 574.591 448.297 573.49 447.433C572.389 446.568 571.093 446.136 569.602 446.136C567.684 446.136 566.199 446.716 565.145 447.876C564.092 449.025 563.565 450.481 563.565 452.244V470H559.303V451.321C559.303 449.77 558.8 448.522 557.794 447.575C556.788 446.616 555.492 446.136 553.906 446.136C552.817 446.136 551.799 446.426 550.852 447.006C549.917 447.586 549.159 448.391 548.579 449.421C548.011 450.439 547.727 451.617 547.727 452.955V470H543.536Z" fill="white"/>
<line x1="208" y1="370.019" x2="207" y2="61.0196" stroke="#F8B32A" stroke-width="12"/>
</svg>
