<svg width="1053" height="427" viewBox="0 0 1053 427" fill="none" xmlns="http://www.w3.org/2000/svg">
<mask id="path-1-inside-1_109_270" fill="white">
<path d="M203 61H512V370H203V61Z"/>
</mask>
<path d="M203 61H512V370H203V61Z" fill="#5FD7FF"/>
<path d="M203 61V51H193V61H203ZM512 61H522V51H512V61ZM512 370V380H522V370H512ZM203 370H193V380H203V370ZM203 61V71H512V61V51H203V61ZM512 61H502V370H512H522V61H512ZM512 370V360H203V370V380H512V370ZM203 370H213V61H203H193V370H203Z" fill="white" mask="url(#path-1-inside-1_109_270)"/>
<path d="M171.304 213.773V213.56C171.328 211.299 171.564 209.5 172.014 208.162C172.464 206.824 173.103 205.741 173.932 204.913C174.76 204.084 175.755 203.321 176.915 202.622C177.613 202.196 178.241 201.693 178.797 201.113C179.353 200.521 179.791 199.84 180.111 199.071C180.442 198.302 180.608 197.449 180.608 196.514C180.608 195.354 180.336 194.348 179.791 193.496C179.247 192.643 178.519 191.987 177.607 191.525C176.696 191.063 175.684 190.832 174.571 190.832C173.6 190.832 172.665 191.034 171.766 191.436C170.866 191.839 170.114 192.472 169.511 193.336C168.907 194.2 168.558 195.33 168.463 196.727H163.989C164.083 194.715 164.604 192.993 165.551 191.56C166.51 190.128 167.771 189.033 169.333 188.276C170.907 187.518 172.653 187.139 174.571 187.139C176.654 187.139 178.465 187.554 180.004 188.382C181.555 189.211 182.75 190.347 183.591 191.791C184.443 193.235 184.869 194.881 184.869 196.727C184.869 198.029 184.668 199.207 184.266 200.261C183.875 201.314 183.307 202.255 182.561 203.084C181.827 203.912 180.939 204.646 179.898 205.286C178.856 205.937 178.022 206.623 177.394 207.345C176.767 208.055 176.311 208.902 176.027 209.884C175.743 210.867 175.589 212.092 175.565 213.56V213.773H171.304ZM173.577 224.284C172.701 224.284 171.949 223.97 171.322 223.343C170.694 222.716 170.381 221.964 170.381 221.088C170.381 220.212 170.694 219.46 171.322 218.833C171.949 218.206 172.701 217.892 173.577 217.892C174.453 217.892 175.204 218.206 175.832 218.833C176.459 219.46 176.773 220.212 176.773 221.088C176.773 221.668 176.625 222.201 176.329 222.686C176.045 223.171 175.66 223.562 175.175 223.858C174.701 224.142 174.169 224.284 173.577 224.284Z" fill="#F8B32A"/>
<path d="M151.895 385H147.278L160.631 348.636H165.176L178.528 385H173.912L163.045 354.389H162.761L151.895 385ZM153.599 370.795H172.207V374.702H153.599V370.795Z" fill="white"/>
<path d="M532.403 385V348.636H545.116C547.65 348.636 549.739 349.074 551.384 349.95C553.03 350.814 554.255 351.98 555.06 353.448C555.865 354.904 556.267 356.52 556.267 358.295C556.267 359.858 555.989 361.148 555.433 362.166C554.888 363.184 554.166 363.989 553.266 364.581C552.379 365.173 551.414 365.611 550.372 365.895V366.25C551.485 366.321 552.603 366.712 553.728 367.422C554.853 368.132 555.794 369.15 556.551 370.476C557.309 371.802 557.688 373.423 557.688 375.341C557.688 377.164 557.273 378.803 556.445 380.259C555.616 381.715 554.308 382.869 552.521 383.722C550.733 384.574 548.407 385 545.543 385H532.403ZM536.807 381.094H545.543C548.419 381.094 550.461 380.537 551.668 379.425C552.888 378.3 553.497 376.939 553.497 375.341C553.497 374.11 553.183 372.973 552.556 371.932C551.929 370.878 551.035 370.038 549.875 369.411C548.715 368.771 547.342 368.452 545.756 368.452H536.807V381.094ZM536.807 364.616H544.974C546.3 364.616 547.496 364.356 548.561 363.835C549.638 363.314 550.491 362.58 551.118 361.634C551.757 360.687 552.077 359.574 552.077 358.295C552.077 356.697 551.52 355.342 550.408 354.229C549.295 353.105 547.531 352.543 545.116 352.543H536.807V364.616Z" fill="white"/>
<path d="M561.665 54H557.261C557.001 52.7334 556.545 51.6207 555.894 50.6619C555.255 49.7031 554.474 48.8982 553.55 48.2472C552.639 47.5843 551.627 47.0871 550.514 46.7557C549.402 46.4242 548.241 46.2585 547.034 46.2585C544.832 46.2585 542.838 46.8149 541.05 47.9276C539.275 49.0402 537.86 50.6797 536.807 52.8459C535.765 55.0121 535.244 57.6695 535.244 60.8182C535.244 63.9669 535.765 66.6243 536.807 68.7905C537.86 70.9567 539.275 72.5961 541.05 73.7088C542.838 74.8215 544.832 75.3778 547.034 75.3778C548.241 75.3778 549.402 75.2121 550.514 74.8807C551.627 74.5492 552.639 74.058 553.55 73.407C554.474 72.7441 555.255 71.9332 555.894 70.9744C556.545 70.0038 557.001 68.8911 557.261 67.6364H561.665C561.333 69.4948 560.73 71.1579 559.854 72.6257C558.978 74.0935 557.889 75.3423 556.587 76.3722C555.285 77.3902 553.823 78.1655 552.201 78.6982C550.591 79.2308 548.869 79.4972 547.034 79.4972C543.933 79.4972 541.175 78.7396 538.76 77.2244C536.345 75.7093 534.445 73.5549 533.06 70.7614C531.675 67.9678 530.983 64.6534 530.983 60.8182C530.983 56.983 531.675 53.6686 533.06 50.875C534.445 48.0814 536.345 45.9271 538.76 44.4119C541.175 42.8968 543.933 42.1392 547.034 42.1392C548.869 42.1392 550.591 42.4055 552.201 42.9382C553.823 43.4709 555.285 44.2521 556.587 45.282C557.889 46.3 558.978 47.5428 559.854 49.0107C560.73 50.4666 561.333 52.1297 561.665 54Z" fill="white"/>
<path d="M166.625 79H155.403V42.6364H167.122C170.65 42.6364 173.668 43.3643 176.178 44.8203C178.687 46.2644 180.611 48.3419 181.948 51.0526C183.286 53.7514 183.955 56.983 183.955 60.7472C183.955 64.535 183.28 67.7962 181.93 70.5305C180.581 73.2531 178.616 75.3482 176.036 76.8161C173.455 78.272 170.318 79 166.625 79ZM159.807 75.0938H166.341C169.348 75.0938 171.839 74.5137 173.816 73.3537C175.793 72.1937 177.267 70.5424 178.237 68.3999C179.208 66.2573 179.693 63.7064 179.693 60.7472C179.693 57.8116 179.214 55.2843 178.255 53.1655C177.296 51.0348 175.864 49.4013 173.958 48.2649C172.052 47.1167 169.679 46.5426 166.838 46.5426H159.807V75.0938Z" fill="white"/>
<path d="M550.403 234V197.636H554.807V215.676H555.233L571.568 197.636H577.321L562.051 214.043L577.321 234H571.994L559.352 217.097L554.807 222.21V234H550.403ZM591.885 234.568C589.257 234.568 586.99 233.988 585.085 232.828C583.191 231.656 581.729 230.023 580.699 227.928C579.681 225.821 579.172 223.37 579.172 220.577C579.172 217.783 579.681 215.321 580.699 213.19C581.729 211.048 583.161 209.379 584.996 208.183C586.843 206.976 588.997 206.372 591.459 206.372C592.879 206.372 594.282 206.609 595.667 207.082C597.052 207.556 598.313 208.325 599.449 209.391C600.585 210.444 601.491 211.841 602.166 213.581C602.84 215.321 603.178 217.464 603.178 220.009V221.784H582.155V218.162H598.916C598.916 216.623 598.609 215.25 597.993 214.043C597.389 212.835 596.525 211.882 595.401 211.184C594.288 210.486 592.974 210.136 591.459 210.136C589.79 210.136 588.346 210.551 587.127 211.379C585.919 212.196 584.99 213.261 584.339 214.575C583.688 215.889 583.362 217.298 583.362 218.801V221.216C583.362 223.276 583.718 225.022 584.428 226.454C585.15 227.874 586.15 228.957 587.428 229.703C588.707 230.437 590.192 230.804 591.885 230.804C592.986 230.804 593.98 230.65 594.868 230.342C595.768 230.023 596.543 229.549 597.194 228.922C597.845 228.283 598.348 227.49 598.703 226.543L602.752 227.679C602.325 229.052 601.609 230.259 600.603 231.301C599.597 232.331 598.354 233.136 596.874 233.716C595.395 234.284 593.732 234.568 591.885 234.568ZM613.742 197.636V234H609.552V197.636H613.742ZM621.417 234V206.727H625.608V234H621.417ZM623.548 202.182C622.731 202.182 622.027 201.904 621.435 201.347C620.855 200.791 620.565 200.122 620.565 199.341C620.565 198.56 620.855 197.891 621.435 197.335C622.027 196.778 622.731 196.5 623.548 196.5C624.365 196.5 625.063 196.778 625.643 197.335C626.235 197.891 626.531 198.56 626.531 199.341C626.531 200.122 626.235 200.791 625.643 201.347C625.063 201.904 624.365 202.182 623.548 202.182ZM637.473 197.636V234H633.282V197.636H637.473ZM645.148 234V206.727H649.338V234H645.148ZM647.278 202.182C646.462 202.182 645.757 201.904 645.165 201.347C644.585 200.791 644.295 200.122 644.295 199.341C644.295 198.56 644.585 197.891 645.165 197.335C645.757 196.778 646.462 196.5 647.278 196.5C648.095 196.5 648.794 196.778 649.374 197.335C649.965 197.891 650.261 198.56 650.261 199.341C650.261 200.122 649.965 200.791 649.374 201.347C648.794 201.904 648.095 202.182 647.278 202.182ZM661.203 217.594V234H657.013V206.727H661.061V210.989H661.416C662.056 209.604 663.026 208.491 664.328 207.651C665.63 206.798 667.311 206.372 669.371 206.372C671.218 206.372 672.833 206.751 674.218 207.509C675.603 208.254 676.68 209.391 677.45 210.918C678.219 212.433 678.604 214.35 678.604 216.67V234H674.414V216.955C674.414 214.812 673.857 213.143 672.744 211.947C671.632 210.74 670.105 210.136 668.164 210.136C666.826 210.136 665.63 210.426 664.577 211.006C663.535 211.586 662.713 212.433 662.109 213.545C661.505 214.658 661.203 216.008 661.203 217.594ZM697.27 244.795C695.245 244.795 693.505 244.535 692.049 244.014C690.593 243.505 689.38 242.83 688.409 241.99C687.451 241.161 686.687 240.274 686.119 239.327L689.457 236.983C689.836 237.48 690.315 238.048 690.895 238.688C691.475 239.339 692.268 239.901 693.275 240.374C694.292 240.86 695.624 241.102 697.27 241.102C699.471 241.102 701.288 240.57 702.721 239.504C704.153 238.439 704.869 236.77 704.869 234.497V228.957H704.514C704.206 229.455 703.768 230.07 703.2 230.804C702.644 231.526 701.839 232.171 700.785 232.739C699.743 233.296 698.335 233.574 696.559 233.574C694.358 233.574 692.381 233.053 690.629 232.011C688.889 230.97 687.51 229.455 686.492 227.466C685.486 225.477 684.983 223.062 684.983 220.222C684.983 217.428 685.474 214.996 686.456 212.924C687.439 210.841 688.806 209.231 690.558 208.094C692.31 206.946 694.334 206.372 696.63 206.372C698.406 206.372 699.815 206.668 700.856 207.26C701.91 207.84 702.715 208.503 703.271 209.249C703.839 209.982 704.277 210.586 704.585 211.06H705.011V206.727H709.059V234.781C709.059 237.125 708.527 239.031 707.461 240.499C706.408 241.978 704.987 243.061 703.2 243.748C701.424 244.446 699.448 244.795 697.27 244.795ZM697.127 229.81C698.808 229.81 700.229 229.425 701.389 228.656C702.549 227.886 703.431 226.779 704.034 225.335C704.638 223.891 704.94 222.163 704.94 220.151C704.94 218.186 704.644 216.451 704.052 214.948C703.46 213.445 702.584 212.267 701.424 211.415C700.264 210.562 698.832 210.136 697.127 210.136C695.352 210.136 693.872 210.586 692.689 211.486C691.517 212.385 690.635 213.593 690.043 215.108C689.463 216.623 689.173 218.304 689.173 220.151C689.173 222.045 689.469 223.719 690.061 225.175C690.664 226.62 691.552 227.756 692.724 228.585C693.908 229.401 695.376 229.81 697.127 229.81ZM732.497 212.48V208.645H754.372V212.48H732.497ZM732.497 222.991V219.156H754.372V222.991H732.497ZM789.319 197.139C790.811 197.151 792.302 197.435 793.794 197.991C795.285 198.548 796.647 199.471 797.878 200.761C799.109 202.04 800.097 203.786 800.843 205.999C801.589 208.213 801.961 210.989 801.961 214.327C801.961 217.558 801.654 220.429 801.038 222.938C800.434 225.436 799.559 227.543 798.41 229.259C797.274 230.976 795.889 232.278 794.256 233.165C792.634 234.053 790.799 234.497 788.751 234.497C786.715 234.497 784.898 234.095 783.3 233.29C781.714 232.473 780.412 231.343 779.394 229.898C778.388 228.442 777.743 226.756 777.459 224.838H781.791C782.182 226.507 782.957 227.886 784.117 228.975C785.289 230.052 786.834 230.591 788.751 230.591C791.557 230.591 793.77 229.366 795.392 226.915C797.025 224.465 797.842 221.003 797.842 216.528H797.558C796.895 217.523 796.108 218.381 795.197 219.103C794.285 219.825 793.273 220.381 792.16 220.772C791.048 221.163 789.864 221.358 788.609 221.358C786.526 221.358 784.614 220.843 782.874 219.813C781.146 218.772 779.761 217.345 778.719 215.534C777.689 213.711 777.175 211.628 777.175 209.284C777.175 207.059 777.672 205.023 778.666 203.176C779.672 201.318 781.081 199.838 782.892 198.737C784.715 197.636 786.857 197.104 789.319 197.139ZM789.319 201.045C787.828 201.045 786.484 201.418 785.289 202.164C784.105 202.898 783.164 203.892 782.466 205.147C781.779 206.39 781.436 207.769 781.436 209.284C781.436 210.799 781.767 212.178 782.43 213.421C783.105 214.652 784.022 215.635 785.182 216.369C786.354 217.091 787.686 217.452 789.177 217.452C790.302 217.452 791.349 217.233 792.32 216.795C793.291 216.345 794.137 215.735 794.859 214.966C795.593 214.185 796.167 213.303 796.581 212.32C796.996 211.326 797.203 210.29 797.203 209.213C797.203 207.793 796.86 206.461 796.173 205.218C795.498 203.975 794.563 202.969 793.368 202.2C792.184 201.43 790.835 201.045 789.319 201.045ZM808.944 234V230.804L820.947 217.665C822.355 216.126 823.515 214.788 824.427 213.652C825.338 212.504 826.013 211.427 826.451 210.42C826.901 209.402 827.126 208.337 827.126 207.224C827.126 205.946 826.818 204.839 826.202 203.904C825.599 202.969 824.77 202.247 823.717 201.738C822.663 201.229 821.479 200.974 820.165 200.974C818.769 200.974 817.549 201.264 816.508 201.844C815.478 202.413 814.679 203.212 814.111 204.241C813.554 205.271 813.276 206.479 813.276 207.864H809.086C809.086 205.733 809.577 203.863 810.56 202.253C811.542 200.643 812.88 199.388 814.572 198.489C816.277 197.589 818.189 197.139 820.308 197.139C822.438 197.139 824.326 197.589 825.972 198.489C827.617 199.388 828.907 200.602 829.842 202.129C830.777 203.656 831.245 205.354 831.245 207.224C831.245 208.562 831.002 209.87 830.517 211.148C830.044 212.415 829.215 213.83 828.031 215.392C826.859 216.943 825.232 218.837 823.148 221.074L814.981 229.81V230.094H831.884V234H808.944ZM864.43 234.568C861.874 234.568 859.672 233.964 857.825 232.757C855.979 231.55 854.558 229.887 853.564 227.768C852.57 225.649 852.072 223.228 852.072 220.506C852.072 217.736 852.581 215.291 853.599 213.173C854.629 211.042 856.062 209.379 857.896 208.183C859.743 206.976 861.897 206.372 864.359 206.372C866.277 206.372 868.005 206.727 869.544 207.438C871.083 208.148 872.344 209.142 873.326 210.42C874.308 211.699 874.918 213.19 875.155 214.895H870.964C870.645 213.652 869.935 212.551 868.834 211.592C867.745 210.622 866.277 210.136 864.43 210.136C862.797 210.136 861.365 210.562 860.134 211.415C858.914 212.255 857.961 213.445 857.275 214.984C856.6 216.511 856.263 218.304 856.263 220.364C856.263 222.471 856.594 224.305 857.257 225.868C857.932 227.43 858.879 228.644 860.098 229.508C861.329 230.372 862.773 230.804 864.43 230.804C865.519 230.804 866.508 230.615 867.396 230.236C868.283 229.857 869.035 229.312 869.651 228.602C870.266 227.892 870.704 227.04 870.964 226.045H875.155C874.918 227.655 874.332 229.105 873.397 230.396C872.474 231.674 871.249 232.692 869.722 233.45C868.206 234.195 866.443 234.568 864.43 234.568ZM881.281 234V206.727H885.329V210.989H885.684C886.252 209.533 887.17 208.402 888.436 207.597C889.703 206.781 891.224 206.372 892.999 206.372C894.799 206.372 896.296 206.781 897.491 207.597C898.699 208.402 899.64 209.533 900.315 210.989H900.599C901.297 209.58 902.345 208.461 903.741 207.633C905.138 206.792 906.813 206.372 908.766 206.372C911.205 206.372 913.199 207.136 914.75 208.663C916.301 210.178 917.076 212.539 917.076 215.747V234H912.886V215.747C912.886 213.735 912.335 212.297 911.234 211.433C910.134 210.568 908.837 210.136 907.346 210.136C905.428 210.136 903.943 210.716 902.889 211.876C901.836 213.025 901.309 214.481 901.309 216.244V234H897.048V215.321C897.048 213.77 896.545 212.522 895.538 211.575C894.532 210.616 893.236 210.136 891.65 210.136C890.561 210.136 889.543 210.426 888.596 211.006C887.661 211.586 886.903 212.391 886.323 213.421C885.755 214.439 885.471 215.617 885.471 216.955V234H881.281Z" fill="white"/>
<line x1="208" y1="370.019" x2="207" y2="61.0196" stroke="#F8B32A" stroke-width="12"/>
</svg>
