<svg width="705" height="433" viewBox="0 0 705 433" fill="none" xmlns="http://www.w3.org/2000/svg">
<mask id="path-1-inside-1_109_295" fill="white">
<path d="M200 64H509V373H200V64Z"/>
</mask>
<path d="M200 64H509V373H200V64Z" fill="#5FD7FF"/>
<path d="M200 64V54H190V64H200ZM509 64H519V54H509V64ZM509 373V383H519V373H509ZM200 373H190V383H200V373ZM200 64V74H509V64V54H200V64ZM509 64H499V373H509H519V64H509ZM509 373V363H200V373V383H509V373ZM200 373H210V64H200H190V373H200Z" fill="white" mask="url(#path-1-inside-1_109_295)"/>
<path d="M148.895 388H144.278L157.631 351.636H162.176L175.528 388H170.912L160.045 357.389H159.761L148.895 388ZM150.599 373.795H169.207V377.702H150.599V373.795Z" fill="white"/>
<path d="M529.403 388V351.636H542.116C544.65 351.636 546.739 352.074 548.384 352.95C550.03 353.814 551.255 354.98 552.06 356.448C552.865 357.904 553.267 359.52 553.267 361.295C553.267 362.858 552.989 364.148 552.433 365.166C551.888 366.184 551.166 366.989 550.266 367.581C549.379 368.173 548.414 368.611 547.372 368.895V369.25C548.485 369.321 549.603 369.712 550.728 370.422C551.853 371.132 552.794 372.15 553.551 373.476C554.309 374.802 554.688 376.423 554.688 378.341C554.688 380.164 554.273 381.803 553.445 383.259C552.616 384.715 551.308 385.869 549.521 386.722C547.733 387.574 545.407 388 542.543 388H529.403ZM533.807 384.094H542.543C545.419 384.094 547.461 383.537 548.668 382.425C549.888 381.3 550.497 379.939 550.497 378.341C550.497 377.11 550.183 375.973 549.556 374.932C548.929 373.878 548.035 373.038 546.875 372.411C545.715 371.771 544.342 371.452 542.756 371.452H533.807V384.094ZM533.807 367.616H541.974C543.3 367.616 544.496 367.356 545.561 366.835C546.638 366.314 547.491 365.58 548.118 364.634C548.757 363.687 549.077 362.574 549.077 361.295C549.077 359.697 548.52 358.342 547.408 357.229C546.295 356.105 544.531 355.543 542.116 355.543H533.807V367.616Z" fill="white"/>
<path d="M558.665 57H554.261C554.001 55.7334 553.545 54.6207 552.894 53.6619C552.255 52.7031 551.474 51.8982 550.55 51.2472C549.639 50.5843 548.627 50.0871 547.514 49.7557C546.402 49.4242 545.241 49.2585 544.034 49.2585C541.832 49.2585 539.838 49.8149 538.05 50.9276C536.275 52.0402 534.86 53.6797 533.807 55.8459C532.765 58.0121 532.244 60.6695 532.244 63.8182C532.244 66.9669 532.765 69.6243 533.807 71.7905C534.86 73.9567 536.275 75.5961 538.05 76.7088C539.838 77.8215 541.832 78.3778 544.034 78.3778C545.241 78.3778 546.402 78.2121 547.514 77.8807C548.627 77.5492 549.639 77.058 550.55 76.407C551.474 75.7441 552.255 74.9332 552.894 73.9744C553.545 73.0038 554.001 71.8911 554.261 70.6364H558.665C558.333 72.4948 557.73 74.1579 556.854 75.6257C555.978 77.0935 554.889 78.3423 553.587 79.3722C552.285 80.3902 550.823 81.1655 549.201 81.6982C547.591 82.2308 545.869 82.4972 544.034 82.4972C540.933 82.4972 538.175 81.7396 535.76 80.2244C533.345 78.7093 531.445 76.5549 530.06 73.7614C528.675 70.9678 527.983 67.6534 527.983 63.8182C527.983 59.983 528.675 56.6686 530.06 53.875C531.445 51.0814 533.345 48.9271 535.76 47.4119C538.175 45.8968 540.933 45.1392 544.034 45.1392C545.869 45.1392 547.591 45.4055 549.201 45.9382C550.823 46.4709 552.285 47.2521 553.587 48.282C554.889 49.3 555.978 50.5428 556.854 52.0107C557.73 53.4666 558.333 55.1297 558.665 57Z" fill="white"/>
<path d="M163.625 82H152.403V45.6364H164.122C167.65 45.6364 170.668 46.3643 173.178 47.8203C175.687 49.2644 177.611 51.3419 178.948 54.0526C180.286 56.7514 180.955 59.983 180.955 63.7472C180.955 67.535 180.28 70.7962 178.93 73.5305C177.581 76.2531 175.616 78.3482 173.036 79.8161C170.455 81.272 167.318 82 163.625 82ZM156.807 78.0938H163.341C166.348 78.0938 168.839 77.5137 170.816 76.3537C172.793 75.1937 174.267 73.5424 175.237 71.3999C176.208 69.2573 176.693 66.7064 176.693 63.7472C176.693 60.8116 176.214 58.2843 175.255 56.1655C174.296 54.0348 172.864 52.4013 170.958 51.2649C169.052 50.1167 166.679 49.5426 163.838 49.5426H156.807V78.0938Z" fill="white"/>
</svg>
