<svg width="210" height="35" viewBox="0 0 210 35" fill="none" xmlns="http://www.w3.org/2000/svg">
<path d="M208.062 0H2.33885C0.042619 0 0 0.0422088 0 2.31618V30.8824C0 33.1563 1.86172 35 4.15794 35H205.818C208.114 35 209.976 33.1563 209.976 30.8824V3.34559C209.976 1.07162 210.359 0 208.062 0Z" fill="url(#paint0_linear_75_311)"/>
<path d="M205.841 0H4.15841C1.86193 0 0 1.99 0 4.44445V5C0 2.54555 1.86193 0.555559 4.15841 0.555559H205.841C208.138 0.555559 210 2.54555 210 5V4.44445C210 1.99 208.138 0 205.841 0Z" fill="url(#paint1_linear_75_311)"/>
<path d="M205.841 35H4.15841C1.86193 35 0 33.01 0 30.5556V30C0 32.4544 1.86193 34.4444 4.15841 34.4444H205.841C208.138 34.4444 210 32.4544 210 30V30.5556C210 33.01 208.138 35 205.841 35Z" fill="url(#paint2_linear_75_311)"/>
<path d="M198.978 10.1323C198.84 10.1323 198.728 10.0467 198.728 9.9412V0.764687C198.728 0.659157 198.84 0.573517 198.978 0.573517C199.116 0.573517 199.228 0.659157 199.228 0.764687V9.9412C199.228 10.0467 199.116 10.1323 198.978 10.1323Z" fill="#282A36"/>
<path d="M179.975 10.1323C179.837 10.1323 179.725 10.0467 179.725 9.9412V0.764687C179.725 0.659157 179.837 0.573517 179.975 0.573517C180.113 0.573517 180.225 0.659157 180.225 0.764687V9.9412C180.225 10.0467 180.113 10.1323 179.975 10.1323Z" fill="#282A36"/>
<path d="M160.973 10.1323C160.835 10.1323 160.723 10.0467 160.723 9.9412V0.764687C160.723 0.659157 160.835 0.573517 160.973 0.573517C161.111 0.573517 161.223 0.659157 161.223 0.764687V9.9412C161.223 10.0467 161.111 10.1323 160.973 10.1323Z" fill="#282A36"/>
<path d="M141.971 10.1323C141.833 10.1323 141.721 10.0467 141.721 9.9412V0.764687C141.721 0.659157 141.833 0.573517 141.971 0.573517C142.109 0.573517 142.221 0.659157 142.221 0.764687V9.9412C142.221 10.0467 142.109 10.1323 141.971 10.1323Z" fill="#282A36"/>
<path d="M122.968 10.1323C122.83 10.1323 122.718 10.0467 122.718 9.9412V0.764687C122.718 0.659157 122.83 0.573517 122.968 0.573517C123.106 0.573517 123.218 0.659157 123.218 0.764687V9.9412C123.218 10.0467 123.106 10.1323 122.968 10.1323Z" fill="#282A36"/>
<path d="M103.966 10.1323C103.828 10.1323 103.716 10.0467 103.716 9.9412V0.764687C103.716 0.659157 103.828 0.573517 103.966 0.573517C104.104 0.573517 104.216 0.659157 104.216 0.764687V9.9412C104.216 10.0467 104.104 10.1323 103.966 10.1323Z" fill="#282A36"/>
<path d="M84.9635 10.1323C84.8255 10.1323 84.7135 10.0467 84.7135 9.9412V0.764687C84.7135 0.659157 84.8255 0.573517 84.9635 0.573517C85.1015 0.573517 85.2135 0.659157 85.2135 0.764687V9.9412C85.2135 10.0467 85.1015 10.1323 84.9635 10.1323Z" fill="#282A36"/>
<path d="M65.9611 10.1323C65.8231 10.1323 65.7111 10.0467 65.7111 9.9412V0.764687C65.7111 0.659157 65.8231 0.573517 65.9611 0.573517C66.0991 0.573517 66.2111 0.659157 66.2111 0.764687V9.9412C66.2111 10.0467 66.0991 10.1323 65.9611 10.1323Z" fill="#282A36"/>
<path d="M46.9588 10.1323C46.8208 10.1323 46.7088 10.0467 46.7088 9.9412V0.764687C46.7088 0.659157 46.8208 0.573517 46.9588 0.573517C47.0968 0.573517 47.2088 0.659157 47.2088 0.764687V9.9412C47.2088 10.0467 47.0968 10.1323 46.9588 10.1323Z" fill="#282A36"/>
<path d="M27.9564 10.1323C27.8184 10.1323 27.7064 10.0467 27.7064 9.9412V0.764687C27.7064 0.659157 27.8184 0.573517 27.9564 0.573517C28.0944 0.573517 28.2064 0.659157 28.2064 0.764687V9.9412C28.2064 10.0467 28.0944 10.1323 27.9564 10.1323Z" fill="#282A36"/>
<path d="M8.95288 10.1323C8.81488 10.1323 8.70288 10.0467 8.70288 9.9412V0.764687C8.70288 0.659157 8.81488 0.573517 8.95288 0.573517C9.09088 0.573517 9.20288 0.659157 9.20288 0.764687V9.9412C9.20288 10.0467 9.09088 10.1323 8.95288 10.1323Z" fill="#282A36"/>
<path d="M10.8543 5.54411C10.7163 5.54411 10.6043 5.45846 10.6043 5.35293V0.764687C10.6043 0.659157 10.7163 0.573517 10.8543 0.573517C10.9923 0.573517 11.1043 0.659157 11.1043 0.764687V5.35293C11.1043 5.45846 10.9923 5.54411 10.8543 5.54411Z" fill="#282A36"/>
<path d="M12.7533 5.54411C12.6153 5.54411 12.5033 5.45846 12.5033 5.35293V0.764687C12.5033 0.659157 12.6153 0.573517 12.7533 0.573517C12.8913 0.573517 13.0033 0.659157 13.0033 0.764687V5.35293C13.0033 5.45846 12.8923 5.54411 12.7533 5.54411Z" fill="#282A36"/>
<path d="M14.6538 5.54411C14.5158 5.54411 14.4038 5.45846 14.4038 5.35293V0.764687C14.4038 0.659157 14.5158 0.573517 14.6538 0.573517C14.7918 0.573517 14.9038 0.659157 14.9038 0.764687V5.35293C14.9038 5.45846 14.7928 5.54411 14.6538 5.54411Z" fill="#282A36"/>
<path d="M16.554 5.54411C16.416 5.54411 16.304 5.45846 16.304 5.35293V0.764687C16.304 0.659157 16.416 0.573517 16.554 0.573517C16.692 0.573517 16.804 0.659157 16.804 0.764687V5.35293C16.804 5.45846 16.692 5.54411 16.554 5.54411Z" fill="#282A36"/>
<path d="M18.4552 10.1323C18.3172 10.1323 18.2052 10.0467 18.2052 9.9412V0.764687C18.2052 0.659157 18.3172 0.573517 18.4552 0.573517C18.5932 0.573517 18.7052 0.659157 18.7052 0.764687V9.9412C18.7052 10.0467 18.5932 10.1323 18.4552 10.1323Z" fill="#282A36"/>
<path d="M20.3555 5.54411C20.2175 5.54411 20.1055 5.45846 20.1055 5.35293V0.764687C20.1055 0.659157 20.2175 0.573517 20.3555 0.573517C20.4935 0.573517 20.6055 0.659157 20.6055 0.764687V5.35293C20.6055 5.45846 20.4935 5.54411 20.3555 5.54411Z" fill="#282A36"/>
<path d="M22.2547 5.54411C22.1167 5.54411 22.0047 5.45846 22.0047 5.35293V0.764687C22.0047 0.659157 22.1167 0.573517 22.2547 0.573517C22.3927 0.573517 22.5047 0.659157 22.5047 0.764687V5.35293C22.5047 5.45846 22.3937 5.54411 22.2547 5.54411Z" fill="#282A36"/>
<path d="M24.1549 5.54411C24.0169 5.54411 23.9049 5.45846 23.9049 5.35293V0.764687C23.9049 0.659157 24.0169 0.573517 24.1549 0.573517C24.2929 0.573517 24.4049 0.659157 24.4049 0.764687V5.35293C24.4049 5.45846 24.2939 5.54411 24.1549 5.54411Z" fill="#282A36"/>
<path d="M26.0552 5.54411C25.9172 5.54411 25.8052 5.45846 25.8052 5.35293V0.764687C25.8052 0.659157 25.9172 0.573517 26.0552 0.573517C26.1932 0.573517 26.3052 0.659157 26.3052 0.764687V5.35293C26.3052 5.45846 26.1932 5.54411 26.0552 5.54411Z" fill="#282A36"/>
<path d="M29.8566 5.54411C29.7186 5.54411 29.6066 5.45846 29.6066 5.35293V0.764687C29.6066 0.659157 29.7186 0.573517 29.8566 0.573517C29.9946 0.573517 30.1066 0.659157 30.1066 0.764687V5.35293C30.1066 5.45846 29.9946 5.54411 29.8566 5.54411Z" fill="#282A36"/>
<path d="M31.7556 5.54411C31.6176 5.54411 31.5056 5.45846 31.5056 5.35293V0.764687C31.5056 0.659157 31.6176 0.573517 31.7556 0.573517C31.8936 0.573517 32.0056 0.659157 32.0056 0.764687V5.35293C32.0056 5.45846 31.8946 5.54411 31.7556 5.54411Z" fill="#282A36"/>
<path d="M33.6561 5.54411C33.5181 5.54411 33.4061 5.45846 33.4061 5.35293V0.764687C33.4061 0.659157 33.5181 0.573517 33.6561 0.573517C33.7941 0.573517 33.9061 0.659157 33.9061 0.764687V5.35293C33.9061 5.45846 33.7951 5.54411 33.6561 5.54411Z" fill="#282A36"/>
<path d="M35.5564 5.54411C35.4184 5.54411 35.3064 5.45846 35.3064 5.35293V0.764687C35.3064 0.659157 35.4184 0.573517 35.5564 0.573517C35.6944 0.573517 35.8064 0.659157 35.8064 0.764687V5.35293C35.8064 5.45846 35.6944 5.54411 35.5564 5.54411Z" fill="#282A36"/>
<path d="M37.4576 10.1323C37.3196 10.1323 37.2076 10.0467 37.2076 9.9412V0.764687C37.2076 0.659157 37.3196 0.573517 37.4576 0.573517C37.5956 0.573517 37.7076 0.659157 37.7076 0.764687V9.9412C37.7076 10.0467 37.5956 10.1323 37.4576 10.1323Z" fill="#282A36"/>
<path d="M39.3578 5.54411C39.2198 5.54411 39.1078 5.45846 39.1078 5.35293V0.764687C39.1078 0.659157 39.2198 0.573517 39.3578 0.573517C39.4958 0.573517 39.6078 0.659157 39.6078 0.764687V5.35293C39.6078 5.45846 39.4958 5.54411 39.3578 5.54411Z" fill="#282A36"/>
<path d="M41.257 5.54411C41.119 5.54411 41.007 5.45846 41.007 5.35293V0.764687C41.007 0.659157 41.119 0.573517 41.257 0.573517C41.395 0.573517 41.507 0.659157 41.507 0.764687V5.35293C41.507 5.45846 41.396 5.54411 41.257 5.54411Z" fill="#282A36"/>
<path d="M43.1573 5.54411C43.0193 5.54411 42.9073 5.45846 42.9073 5.35293V0.764687C42.9073 0.659157 43.0193 0.573517 43.1573 0.573517C43.2953 0.573517 43.4073 0.659157 43.4073 0.764687V5.35293C43.4073 5.45846 43.2953 5.54411 43.1573 5.54411Z" fill="#282A36"/>
<path d="M45.0575 5.54411C44.9195 5.54411 44.8075 5.45846 44.8075 5.35293V0.764687C44.8075 0.659157 44.9195 0.573517 45.0575 0.573517C45.1955 0.573517 45.3075 0.659157 45.3075 0.764687V5.35293C45.3075 5.45846 45.1955 5.54411 45.0575 5.54411Z" fill="#282A36"/>
<path d="M48.859 5.54411C48.721 5.54411 48.609 5.45846 48.609 5.35293V0.764687C48.609 0.659157 48.721 0.573517 48.859 0.573517C48.997 0.573517 49.109 0.659157 49.109 0.764687V5.35293C49.109 5.45846 48.997 5.54411 48.859 5.54411Z" fill="#282A36"/>
<path d="M50.758 5.54411C50.62 5.54411 50.508 5.45846 50.508 5.35293V0.764687C50.508 0.659157 50.62 0.573517 50.758 0.573517C50.896 0.573517 51.008 0.659157 51.008 0.764687V5.35293C51.008 5.45846 50.897 5.54411 50.758 5.54411Z" fill="#282A36"/>
<path d="M52.6585 5.54411C52.5205 5.54411 52.4085 5.45846 52.4085 5.35293V0.764687C52.4085 0.659157 52.5205 0.573517 52.6585 0.573517C52.7965 0.573517 52.9085 0.659157 52.9085 0.764687V5.35293C52.9085 5.45846 52.7965 5.54411 52.6585 5.54411Z" fill="#282A36"/>
<path d="M54.5587 5.54411C54.4207 5.54411 54.3087 5.45846 54.3087 5.35293V0.764687C54.3087 0.659157 54.4207 0.573517 54.5587 0.573517C54.6967 0.573517 54.8087 0.659157 54.8087 0.764687V5.35293C54.8087 5.45846 54.6967 5.54411 54.5587 5.54411Z" fill="#282A36"/>
<path d="M56.4599 10.1323C56.3219 10.1323 56.2099 10.0467 56.2099 9.9412V0.764687C56.2099 0.659157 56.3219 0.573517 56.4599 0.573517C56.5979 0.573517 56.7099 0.659157 56.7099 0.764687V9.9412C56.7099 10.0467 56.5979 10.1323 56.4599 10.1323Z" fill="#282A36"/>
<path d="M58.3602 5.54411C58.2222 5.54411 58.1102 5.45846 58.1102 5.35293V0.764687C58.1102 0.659157 58.2222 0.573517 58.3602 0.573517C58.4982 0.573517 58.6102 0.659157 58.6102 0.764687V5.35293C58.6102 5.45846 58.4982 5.54411 58.3602 5.54411Z" fill="#282A36"/>
<path d="M60.2594 5.54411C60.1214 5.54411 60.0094 5.45846 60.0094 5.35293V0.764687C60.0094 0.659157 60.1214 0.573517 60.2594 0.573517C60.3974 0.573517 60.5094 0.659157 60.5094 0.764687V5.35293C60.5094 5.45846 60.3984 5.54411 60.2594 5.54411Z" fill="#282A36"/>
<path d="M62.1596 5.54411C62.0216 5.54411 61.9096 5.45846 61.9096 5.35293V0.764687C61.9096 0.659157 62.0216 0.573517 62.1596 0.573517C62.2976 0.573517 62.4096 0.659157 62.4096 0.764687V5.35293C62.4096 5.45846 62.2976 5.54411 62.1596 5.54411Z" fill="#282A36"/>
<path d="M64.0599 5.54411C63.9219 5.54411 63.8099 5.45846 63.8099 5.35293V0.764687C63.8099 0.659157 63.9219 0.573517 64.0599 0.573517C64.1979 0.573517 64.3099 0.659157 64.3099 0.764687V5.35293C64.3099 5.45846 64.1979 5.54411 64.0599 5.54411Z" fill="#282A36"/>
<path d="M67.8613 5.54411C67.7233 5.54411 67.6113 5.45846 67.6113 5.35293V0.764687C67.6113 0.659157 67.7233 0.573517 67.8613 0.573517C67.9993 0.573517 68.1113 0.659157 68.1113 0.764687V5.35293C68.1113 5.45846 67.9993 5.54411 67.8613 5.54411Z" fill="#282A36"/>
<path d="M69.7603 5.54411C69.6223 5.54411 69.5103 5.45846 69.5103 5.35293V0.764687C69.5103 0.659157 69.6223 0.573517 69.7603 0.573517C69.8983 0.573517 70.0103 0.659157 70.0103 0.764687V5.35293C70.0103 5.45846 69.8993 5.54411 69.7603 5.54411Z" fill="#282A36"/>
<path d="M71.6608 5.54411C71.5228 5.54411 71.4108 5.45846 71.4108 5.35293V0.764687C71.4108 0.659157 71.5228 0.573517 71.6608 0.573517C71.7988 0.573517 71.9108 0.659157 71.9108 0.764687V5.35293C71.9108 5.45846 71.7988 5.54411 71.6608 5.54411Z" fill="#282A36"/>
<path d="M73.5611 5.54411C73.4231 5.54411 73.3111 5.45846 73.3111 5.35293V0.764687C73.3111 0.659157 73.4231 0.573517 73.5611 0.573517C73.6991 0.573517 73.8111 0.659157 73.8111 0.764687V5.35293C73.8111 5.45846 73.6991 5.54411 73.5611 5.54411Z" fill="#282A36"/>
<path d="M75.4623 10.1323C75.3243 10.1323 75.2123 10.0467 75.2123 9.9412V0.764687C75.2123 0.659157 75.3243 0.573517 75.4623 0.573517C75.6003 0.573517 75.7123 0.659157 75.7123 0.764687V9.9412C75.7123 10.0467 75.6003 10.1323 75.4623 10.1323Z" fill="#282A36"/>
<path d="M77.3625 5.54411C77.2245 5.54411 77.1125 5.45846 77.1125 5.35293V0.764687C77.1125 0.659157 77.2245 0.573517 77.3625 0.573517C77.5005 0.573517 77.6125 0.659157 77.6125 0.764687V5.35293C77.6125 5.45846 77.5005 5.54411 77.3625 5.54411Z" fill="#282A36"/>
<path d="M79.2617 5.54411C79.1237 5.54411 79.0117 5.45846 79.0117 5.35293V0.764687C79.0117 0.659157 79.1237 0.573517 79.2617 0.573517C79.3997 0.573517 79.5117 0.659157 79.5117 0.764687V5.35293C79.5117 5.45846 79.4007 5.54411 79.2617 5.54411Z" fill="#282A36"/>
<path d="M81.162 5.54411C81.024 5.54411 80.912 5.45846 80.912 5.35293V0.764687C80.912 0.659157 81.024 0.573517 81.162 0.573517C81.3 0.573517 81.412 0.659157 81.412 0.764687V5.35293C81.412 5.45846 81.3 5.54411 81.162 5.54411Z" fill="#282A36"/>
<path d="M83.0622 5.54411C82.9242 5.54411 82.8122 5.45846 82.8122 5.35293V0.764687C82.8122 0.659157 82.9242 0.573517 83.0622 0.573517C83.2002 0.573517 83.3122 0.659157 83.3122 0.764687V5.35293C83.3122 5.45846 83.2002 5.54411 83.0622 5.54411Z" fill="#282A36"/>
<path d="M86.8637 5.54411C86.7257 5.54411 86.6137 5.45846 86.6137 5.35293V0.764687C86.6137 0.659157 86.7257 0.573517 86.8637 0.573517C87.0017 0.573517 87.1137 0.659157 87.1137 0.764687V5.35293C87.1137 5.45846 87.0017 5.54411 86.8637 5.54411Z" fill="#282A36"/>
<path d="M88.7627 5.54411C88.6247 5.54411 88.5127 5.45846 88.5127 5.35293V0.764687C88.5127 0.659157 88.6247 0.573517 88.7627 0.573517C88.9007 0.573517 89.0127 0.659157 89.0127 0.764687V5.35293C89.0127 5.45846 88.9017 5.54411 88.7627 5.54411Z" fill="#282A36"/>
<path d="M90.6632 5.54411C90.5252 5.54411 90.4132 5.45846 90.4132 5.35293V0.764687C90.4132 0.659157 90.5252 0.573517 90.6632 0.573517C90.8012 0.573517 90.9132 0.659157 90.9132 0.764687V5.35293C90.9132 5.45846 90.8012 5.54411 90.6632 5.54411Z" fill="#282A36"/>
<path d="M92.5634 5.54411C92.4254 5.54411 92.3134 5.45846 92.3134 5.35293V0.764687C92.3134 0.659157 92.4254 0.573517 92.5634 0.573517C92.7014 0.573517 92.8134 0.659157 92.8134 0.764687V5.35293C92.8134 5.45846 92.7014 5.54411 92.5634 5.54411Z" fill="#282A36"/>
<path d="M94.4646 10.1323C94.3266 10.1323 94.2146 10.0467 94.2146 9.9412V0.764687C94.2146 0.659157 94.3266 0.573517 94.4646 0.573517C94.6026 0.573517 94.7146 0.659157 94.7146 0.764687V9.9412C94.7146 10.0467 94.6026 10.1323 94.4646 10.1323Z" fill="#282A36"/>
<path d="M96.3639 5.54411C96.2259 5.54411 96.1139 5.45846 96.1139 5.35293V0.764687C96.1139 0.659157 96.2259 0.573517 96.3639 0.573517C96.5019 0.573517 96.6139 0.659157 96.6139 0.764687V5.35293C96.6139 5.45846 96.5029 5.54411 96.3639 5.54411Z" fill="#282A36"/>
<path d="M98.2641 5.54411C98.1261 5.54411 98.0141 5.45846 98.0141 5.35293V0.764687C98.0141 0.659157 98.1261 0.573517 98.2641 0.573517C98.4021 0.573517 98.5141 0.659157 98.5141 0.764687V5.35293C98.5141 5.45846 98.4031 5.54411 98.2641 5.54411Z" fill="#282A36"/>
<path d="M100.164 5.54411C100.026 5.54411 99.9144 5.45846 99.9144 5.35293V0.764687C99.9144 0.659157 100.026 0.573517 100.164 0.573517C100.302 0.573517 100.414 0.659157 100.414 0.764687V5.35293C100.414 5.45846 100.302 5.54411 100.164 5.54411Z" fill="#282A36"/>
<path d="M102.065 5.54411C101.927 5.54411 101.815 5.45846 101.815 5.35293V0.764687C101.815 0.659157 101.927 0.573517 102.065 0.573517C102.203 0.573517 102.315 0.659157 102.315 0.764687V5.35293C102.315 5.45846 102.203 5.54411 102.065 5.54411Z" fill="#282A36"/>
<path d="M105.865 5.54411C105.727 5.54411 105.615 5.45846 105.615 5.35293V0.764687C105.615 0.659157 105.727 0.573517 105.865 0.573517C106.003 0.573517 106.115 0.659157 106.115 0.764687V5.35293C106.115 5.45846 106.004 5.54411 105.865 5.54411Z" fill="#282A36"/>
<path d="M107.765 5.54411C107.627 5.54411 107.515 5.45846 107.515 5.35293V0.764687C107.515 0.659157 107.627 0.573517 107.765 0.573517C107.903 0.573517 108.015 0.659157 108.015 0.764687V5.35293C108.015 5.45846 107.904 5.54411 107.765 5.54411Z" fill="#282A36"/>
<path d="M109.665 5.54411C109.527 5.54411 109.415 5.45846 109.415 5.35293V0.764687C109.415 0.659157 109.527 0.573517 109.665 0.573517C109.803 0.573517 109.915 0.659157 109.915 0.764687V5.35293C109.915 5.45846 109.803 5.54411 109.665 5.54411Z" fill="#282A36"/>
<path d="M111.566 5.54411C111.428 5.54411 111.316 5.45846 111.316 5.35293V0.764687C111.316 0.659157 111.428 0.573517 111.566 0.573517C111.704 0.573517 111.816 0.659157 111.816 0.764687V5.35293C111.816 5.45846 111.704 5.54411 111.566 5.54411Z" fill="#282A36"/>
<path d="M113.467 10.1323C113.329 10.1323 113.217 10.0467 113.217 9.9412V0.764687C113.217 0.659157 113.329 0.573517 113.467 0.573517C113.605 0.573517 113.717 0.659157 113.717 0.764687V9.9412C113.717 10.0467 113.605 10.1323 113.467 10.1323Z" fill="#282A36"/>
<path d="M115.366 5.54411C115.228 5.54411 115.116 5.45846 115.116 5.35293V0.764687C115.116 0.659157 115.228 0.573517 115.366 0.573517C115.504 0.573517 115.616 0.659157 115.616 0.764687V5.35293C115.616 5.45846 115.505 5.54411 115.366 5.54411Z" fill="#282A36"/>
<path d="M117.266 5.54411C117.128 5.54411 117.016 5.45846 117.016 5.35293V0.764687C117.016 0.659157 117.128 0.573517 117.266 0.573517C117.404 0.573517 117.516 0.659157 117.516 0.764687V5.35293C117.516 5.45846 117.405 5.54411 117.266 5.54411Z" fill="#282A36"/>
<path d="M119.167 5.54411C119.029 5.54411 118.917 5.45846 118.917 5.35293V0.764687C118.917 0.659157 119.029 0.573517 119.167 0.573517C119.305 0.573517 119.417 0.659157 119.417 0.764687V5.35293C119.417 5.45846 119.305 5.54411 119.167 5.54411Z" fill="#282A36"/>
<path d="M121.067 5.54411C120.929 5.54411 120.817 5.45846 120.817 5.35293V0.764687C120.817 0.659157 120.929 0.573517 121.067 0.573517C121.205 0.573517 121.317 0.659157 121.317 0.764687V5.35293C121.317 5.45846 121.205 5.54411 121.067 5.54411Z" fill="#282A36"/>
<path d="M124.867 5.54411C124.729 5.54411 124.617 5.45846 124.617 5.35293V0.764687C124.617 0.659157 124.729 0.573517 124.867 0.573517C125.005 0.573517 125.117 0.659157 125.117 0.764687V5.35293C125.117 5.45846 125.006 5.54411 124.867 5.54411Z" fill="#282A36"/>
<path d="M126.767 5.54411C126.629 5.54411 126.517 5.45846 126.517 5.35293V0.764687C126.517 0.659157 126.629 0.573517 126.767 0.573517C126.905 0.573517 127.017 0.659157 127.017 0.764687V5.35293C127.017 5.45846 126.906 5.54411 126.767 5.54411Z" fill="#282A36"/>
<path d="M128.668 5.54411C128.53 5.54411 128.418 5.45846 128.418 5.35293V0.764687C128.418 0.659157 128.53 0.573517 128.668 0.573517C128.806 0.573517 128.918 0.659157 128.918 0.764687V5.35293C128.918 5.45846 128.806 5.54411 128.668 5.54411Z" fill="#282A36"/>
<path d="M130.568 5.54411C130.43 5.54411 130.318 5.45846 130.318 5.35293V0.764687C130.318 0.659157 130.43 0.573517 130.568 0.573517C130.706 0.573517 130.818 0.659157 130.818 0.764687V5.35293C130.818 5.45846 130.706 5.54411 130.568 5.54411Z" fill="#282A36"/>
<path d="M132.469 10.1323C132.331 10.1323 132.219 10.0467 132.219 9.9412V0.764687C132.219 0.659157 132.331 0.573517 132.469 0.573517C132.607 0.573517 132.719 0.659157 132.719 0.764687V9.9412C132.719 10.0467 132.607 10.1323 132.469 10.1323Z" fill="#282A36"/>
<path d="M134.369 5.54411C134.231 5.54411 134.119 5.45846 134.119 5.35293V0.764687C134.119 0.659157 134.231 0.573517 134.369 0.573517C134.507 0.573517 134.619 0.659157 134.619 0.764687V5.35293C134.619 5.45846 134.508 5.54411 134.369 5.54411Z" fill="#282A36"/>
<path d="M136.269 5.54411C136.131 5.54411 136.019 5.45846 136.019 5.35293V0.764687C136.019 0.659157 136.131 0.573517 136.269 0.573517C136.407 0.573517 136.519 0.659157 136.519 0.764687V5.35293C136.519 5.45846 136.408 5.54411 136.269 5.54411Z" fill="#282A36"/>
<path d="M138.169 5.54411C138.031 5.54411 137.919 5.45846 137.919 5.35293V0.764687C137.919 0.659157 138.031 0.573517 138.169 0.573517C138.307 0.573517 138.419 0.659157 138.419 0.764687V5.35293C138.419 5.45846 138.307 5.54411 138.169 5.54411Z" fill="#282A36"/>
<path d="M140.069 5.54411C139.931 5.54411 139.819 5.45846 139.819 5.35293V0.764687C139.819 0.659157 139.931 0.573517 140.069 0.573517C140.207 0.573517 140.319 0.659157 140.319 0.764687V5.35293C140.319 5.45846 140.207 5.54411 140.069 5.54411Z" fill="#282A36"/>
<path d="M143.87 5.54411C143.732 5.54411 143.62 5.45846 143.62 5.35293V0.764687C143.62 0.659157 143.732 0.573517 143.87 0.573517C144.008 0.573517 144.12 0.659157 144.12 0.764687V5.35293C144.12 5.45846 144.009 5.54411 143.87 5.54411Z" fill="#282A36"/>
<path d="M145.77 5.54411C145.632 5.54411 145.52 5.45846 145.52 5.35293V0.764687C145.52 0.659157 145.632 0.573517 145.77 0.573517C145.908 0.573517 146.02 0.659157 146.02 0.764687V5.35293C146.02 5.45846 145.909 5.54411 145.77 5.54411Z" fill="#282A36"/>
<path d="M147.67 5.54411C147.532 5.54411 147.42 5.45846 147.42 5.35293V0.764687C147.42 0.659157 147.532 0.573517 147.67 0.573517C147.808 0.573517 147.92 0.659157 147.92 0.764687V5.35293C147.92 5.45846 147.808 5.54411 147.67 5.54411Z" fill="#282A36"/>
<path d="M149.57 5.54411C149.432 5.54411 149.32 5.45846 149.32 5.35293V0.764687C149.32 0.659157 149.432 0.573517 149.57 0.573517C149.708 0.573517 149.82 0.659157 149.82 0.764687V5.35293C149.82 5.45846 149.708 5.54411 149.57 5.54411Z" fill="#282A36"/>
<path d="M151.472 10.1323C151.334 10.1323 151.222 10.0467 151.222 9.9412V0.764687C151.222 0.659157 151.334 0.573517 151.472 0.573517C151.61 0.573517 151.722 0.659157 151.722 0.764687V9.9412C151.722 10.0467 151.61 10.1323 151.472 10.1323Z" fill="#282A36"/>
<path d="M153.371 5.54411C153.233 5.54411 153.121 5.45846 153.121 5.35293V0.764687C153.121 0.659157 153.233 0.573517 153.371 0.573517C153.509 0.573517 153.621 0.659157 153.621 0.764687V5.35293C153.621 5.45846 153.51 5.54411 153.371 5.54411Z" fill="#282A36"/>
<path d="M155.271 5.54411C155.133 5.54411 155.021 5.45846 155.021 5.35293V0.764687C155.021 0.659157 155.133 0.573517 155.271 0.573517C155.409 0.573517 155.521 0.659157 155.521 0.764687V5.35293C155.521 5.45846 155.41 5.54411 155.271 5.54411Z" fill="#282A36"/>
<path d="M157.171 5.54411C157.033 5.54411 156.921 5.45846 156.921 5.35293V0.764687C156.921 0.659157 157.033 0.573517 157.171 0.573517C157.309 0.573517 157.421 0.659157 157.421 0.764687V5.35293C157.421 5.45846 157.309 5.54411 157.171 5.54411Z" fill="#282A36"/>
<path d="M159.072 5.54411C158.934 5.54411 158.822 5.45846 158.822 5.35293V0.764687C158.822 0.659157 158.934 0.573517 159.072 0.573517C159.21 0.573517 159.322 0.659157 159.322 0.764687V5.35293C159.322 5.45846 159.21 5.54411 159.072 5.54411Z" fill="#282A36"/>
<path d="M162.872 5.54411C162.734 5.54411 162.622 5.45846 162.622 5.35293V0.764687C162.622 0.659157 162.734 0.573517 162.872 0.573517C163.01 0.573517 163.122 0.659157 163.122 0.764687V5.35293C163.122 5.45846 163.011 5.54411 162.872 5.54411Z" fill="#282A36"/>
<path d="M164.772 5.54411C164.634 5.54411 164.522 5.45846 164.522 5.35293V0.764687C164.522 0.659157 164.634 0.573517 164.772 0.573517C164.91 0.573517 165.022 0.659157 165.022 0.764687V5.35293C165.022 5.45846 164.911 5.54411 164.772 5.54411Z" fill="#282A36"/>
<path d="M166.673 5.54411C166.535 5.54411 166.423 5.45846 166.423 5.35293V0.764687C166.423 0.659157 166.535 0.573517 166.673 0.573517C166.811 0.573517 166.923 0.659157 166.923 0.764687V5.35293C166.923 5.45846 166.811 5.54411 166.673 5.54411Z" fill="#282A36"/>
<path d="M168.573 5.54411C168.435 5.54411 168.323 5.45846 168.323 5.35293V0.764687C168.323 0.659157 168.435 0.573517 168.573 0.573517C168.711 0.573517 168.823 0.659157 168.823 0.764687V5.35293C168.823 5.45846 168.711 5.54411 168.573 5.54411Z" fill="#282A36"/>
<path d="M170.474 10.1323C170.336 10.1323 170.224 10.0467 170.224 9.9412V0.764687C170.224 0.659157 170.336 0.573517 170.474 0.573517C170.612 0.573517 170.724 0.659157 170.724 0.764687V9.9412C170.724 10.0467 170.612 10.1323 170.474 10.1323Z" fill="#282A36"/>
<path d="M172.373 5.54411C172.235 5.54411 172.123 5.45846 172.123 5.35293V0.764687C172.123 0.659157 172.235 0.573517 172.373 0.573517C172.511 0.573517 172.623 0.659157 172.623 0.764687V5.35293C172.623 5.45846 172.512 5.54411 172.373 5.54411Z" fill="#282A36"/>
<path d="M174.274 5.54411C174.136 5.54411 174.024 5.45846 174.024 5.35293V0.764687C174.024 0.659157 174.136 0.573517 174.274 0.573517C174.412 0.573517 174.524 0.659157 174.524 0.764687V5.35293C174.524 5.45846 174.413 5.54411 174.274 5.54411Z" fill="#282A36"/>
<path d="M176.174 5.54411C176.036 5.54411 175.924 5.45846 175.924 5.35293V0.764687C175.924 0.659157 176.036 0.573517 176.174 0.573517C176.312 0.573517 176.424 0.659157 176.424 0.764687V5.35293C176.424 5.45846 176.312 5.54411 176.174 5.54411Z" fill="#282A36"/>
<path d="M178.074 5.54411C177.936 5.54411 177.824 5.45846 177.824 5.35293V0.764687C177.824 0.659157 177.936 0.573517 178.074 0.573517C178.212 0.573517 178.324 0.659157 178.324 0.764687V5.35293C178.324 5.45846 178.212 5.54411 178.074 5.54411Z" fill="#282A36"/>
<path d="M181.874 5.54411C181.736 5.54411 181.624 5.45846 181.624 5.35293V0.764687C181.624 0.659157 181.736 0.573517 181.874 0.573517C182.012 0.573517 182.124 0.659157 182.124 0.764687V5.35293C182.124 5.45846 182.013 5.54411 181.874 5.54411Z" fill="#282A36"/>
<path d="M183.774 5.54411C183.636 5.54411 183.524 5.45846 183.524 5.35293V0.764687C183.524 0.659157 183.636 0.573517 183.774 0.573517C183.912 0.573517 184.024 0.659157 184.024 0.764687V5.35293C184.024 5.45846 183.913 5.54411 183.774 5.54411Z" fill="#282A36"/>
<path d="M185.675 5.54411C185.537 5.54411 185.425 5.45846 185.425 5.35293V0.764687C185.425 0.659157 185.537 0.573517 185.675 0.573517C185.813 0.573517 185.925 0.659157 185.925 0.764687V5.35293C185.925 5.45846 185.813 5.54411 185.675 5.54411Z" fill="#282A36"/>
<path d="M187.575 5.54411C187.437 5.54411 187.325 5.45846 187.325 5.35293V0.764687C187.325 0.659157 187.437 0.573517 187.575 0.573517C187.713 0.573517 187.825 0.659157 187.825 0.764687V5.35293C187.825 5.45846 187.713 5.54411 187.575 5.54411Z" fill="#282A36"/>
<path d="M189.476 10.1323C189.338 10.1323 189.226 10.0467 189.226 9.9412V0.764687C189.226 0.659157 189.338 0.573517 189.476 0.573517C189.614 0.573517 189.726 0.659157 189.726 0.764687V9.9412C189.726 10.0467 189.614 10.1323 189.476 10.1323Z" fill="#282A36"/>
<path d="M191.376 5.54411C191.238 5.54411 191.126 5.45846 191.126 5.35293V0.764687C191.126 0.659157 191.238 0.573517 191.376 0.573517C191.514 0.573517 191.626 0.659157 191.626 0.764687V5.35293C191.626 5.45846 191.515 5.54411 191.376 5.54411Z" fill="#282A36"/>
<path d="M193.276 5.54411C193.138 5.54411 193.026 5.45846 193.026 5.35293V0.764687C193.026 0.659157 193.138 0.573517 193.276 0.573517C193.414 0.573517 193.526 0.659157 193.526 0.764687V5.35293C193.526 5.45846 193.415 5.54411 193.276 5.54411Z" fill="#282A36"/>
<path d="M195.176 5.54411C195.038 5.54411 194.926 5.45846 194.926 5.35293V0.764687C194.926 0.659157 195.038 0.573517 195.176 0.573517C195.314 0.573517 195.426 0.659157 195.426 0.764687V5.35293C195.426 5.45846 195.314 5.54411 195.176 5.54411Z" fill="#282A36"/>
<path d="M197.076 5.54411C196.938 5.54411 196.826 5.45846 196.826 5.35293V0.764687C196.826 0.659157 196.938 0.573517 197.076 0.573517C197.214 0.573517 197.326 0.659157 197.326 0.764687V5.35293C197.326 5.45846 197.214 5.54411 197.076 5.54411Z" fill="#282A36"/>
<path d="M7.34991 13.53C7.34991 12.7117 7.87991 12.1841 8.94892 12.1841C10.0289 12.1841 10.5579 12.711 10.5579 13.53V16.2883C10.5579 17.1057 10.0289 17.6418 8.94892 17.6418C7.87991 17.6418 7.34991 17.1065 7.34991 16.2883V13.53ZM8.11892 16.3273C8.11892 16.8091 8.38892 17.0996 8.94892 17.0996C9.51891 17.0996 9.77891 16.8091 9.77891 16.3273V13.5002C9.77891 13.0107 9.51891 12.7202 8.94892 12.7202C8.38892 12.7202 8.11892 13.0107 8.11892 13.5002V16.3273Z" fill="#282A36"/>
<path d="M28.0943 13.2089C27.8343 13.3305 27.4943 13.4222 27.1243 13.4383V12.9489C27.8843 12.9259 28.1443 12.6124 28.3243 12.2377H28.8643V17.5883H28.0943V13.2089Z" fill="#282A36"/>
<path d="M48.5696 13.5376C48.5696 15.1496 46.2006 15.7308 46.1906 16.962V17.0453H48.4896V17.5883H45.4216V17.1295C45.4216 15.402 47.7906 15.0663 47.7906 13.5598C47.7906 13.01 47.5506 12.7194 46.9706 12.7194C46.4016 12.7194 46.1516 13.0322 46.1516 13.5063V13.9796H45.4216V13.5445C45.4216 12.727 45.9116 12.1841 46.9906 12.1841C48.0806 12.1849 48.5696 12.7202 48.5696 13.5376Z" fill="#282A36"/>
<path d="M67.531 13.5302V13.6679C67.531 14.2184 67.241 14.6084 66.681 14.769C67.271 14.9373 67.531 15.3418 67.531 15.8771V16.2893C67.531 17.1067 67.031 17.6428 65.952 17.6428C64.883 17.6428 64.383 17.1075 64.383 16.2893V15.9222H65.112V16.3267C65.112 16.8085 65.372 17.0991 65.932 17.0991C66.501 17.0991 66.751 16.8162 66.751 16.274V15.861C66.751 15.3342 66.461 15.081 65.871 15.0665H65.451V14.5312H65.911C66.431 14.5159 66.751 14.2636 66.751 13.7979V13.5531C66.751 13.0026 66.501 12.7204 65.932 12.7204C65.372 12.7204 65.112 13.0186 65.112 13.5004V13.7749H64.383V13.531C64.383 12.7127 64.883 12.1851 65.952 12.1851C67.031 12.1851 67.531 12.712 67.531 13.5302Z" fill="#282A36"/>
<path d="M86.1983 16.5108V17.5883H85.4383V16.5108H83.1793V15.9679L85.3483 12.2384H86.1983V15.9679H86.7583V16.5108H86.1983ZM83.8993 15.9679H85.4383V13.3542L83.8993 15.9679Z" fill="#282A36"/>
<path d="M103.206 14.4171C103.426 14.1265 103.776 13.9736 104.246 13.9736C105.145 13.9736 105.545 14.4783 105.545 15.2422V16.2891C105.545 17.1065 105.035 17.6426 103.966 17.6426C102.897 17.6426 102.397 17.1073 102.397 16.2891V15.9297H103.127V16.3273C103.127 16.8091 103.387 17.0997 103.946 17.0997C104.506 17.0997 104.765 16.8091 104.765 16.3273V15.2881C104.765 14.8071 104.505 14.5165 103.946 14.5165C103.516 14.5165 103.226 14.6993 103.157 15.0893V15.2116H102.428L102.618 12.2384H105.376V12.773H103.317L103.206 14.4171Z" fill="#282A36"/>
<path d="M124.556 13.5226V13.622H123.826V13.4843C123.826 13.0026 123.566 12.7204 122.996 12.7204C122.406 12.7204 122.146 13.011 122.146 13.5837V14.7836C122.337 14.4173 122.716 14.21 123.276 14.21C124.175 14.21 124.575 14.7071 124.575 15.4787V16.2893C124.575 17.1067 124.046 17.6428 122.976 17.6428C121.896 17.6428 121.367 17.1075 121.367 16.2893V13.5608C121.367 12.7127 121.867 12.1851 122.976 12.1851C124.056 12.1851 124.556 12.7043 124.556 13.5226ZM122.147 15.5253V16.3275C122.147 16.8093 122.407 17.0999 122.977 17.0999C123.537 17.0999 123.806 16.8093 123.806 16.3275V15.5253C123.806 15.0436 123.536 14.753 122.977 14.753C122.407 14.753 122.147 15.0436 122.147 15.5253Z" fill="#282A36"/>
<path d="M142.757 12.773H140.378V12.2384H143.546V12.7584L141.747 17.5883H140.968L142.757 12.773Z" fill="#282A36"/>
<path d="M162.614 13.5073V13.6755C162.614 14.2184 162.364 14.6153 161.814 14.7759C162.394 14.951 162.614 15.3716 162.614 15.9069V16.3046C162.614 17.1297 162.054 17.642 160.964 17.642C159.875 17.642 159.316 17.1297 159.316 16.3046V15.9069C159.316 15.3647 159.536 14.9594 160.126 14.7759C159.556 14.6077 159.316 14.2184 159.316 13.6755V13.5073C159.316 12.6822 159.885 12.1851 160.964 12.1851C162.044 12.1851 162.614 12.6822 162.614 13.5073ZM160.085 13.5226V13.7826C160.085 14.3026 160.414 14.532 160.964 14.532C161.514 14.532 161.844 14.3026 161.844 13.7826V13.5226C161.844 12.972 161.514 12.7204 160.964 12.7204C160.415 12.7204 160.085 12.972 160.085 13.5226ZM160.085 15.8381V16.2893C160.085 16.8399 160.404 17.0999 160.964 17.0999C161.524 17.0999 161.834 16.8399 161.844 16.2893V15.8381C161.844 15.3181 161.544 15.0665 160.964 15.0665C160.385 15.0665 160.085 15.3181 160.085 15.8381Z" fill="#282A36"/>
<path d="M181.56 13.5302V16.2579C181.56 17.106 181.06 17.642 179.941 17.642C178.872 17.642 178.362 17.1144 178.362 16.2962V16.1967H179.091V16.3351C179.091 16.8161 179.361 17.0991 179.92 17.0991C180.52 17.0991 180.779 16.8085 180.779 16.2434V15.0436C180.59 15.4099 180.21 15.6087 179.65 15.6087C178.751 15.6087 178.35 15.1193 178.35 14.3484V13.531C178.35 12.7127 178.87 12.1851 179.95 12.1851C181.03 12.1851 181.56 12.712 181.56 13.5302ZM179.122 13.4996V14.3018C179.122 14.7836 179.392 15.0742 179.951 15.0742C180.52 15.0742 180.78 14.7836 180.78 14.3018V13.4996C180.78 13.0102 180.52 12.7273 179.951 12.7273C179.391 12.728 179.122 13.011 179.122 13.4996Z" fill="#282A36"/>
<path d="M197.162 13.2089C196.902 13.3305 196.562 13.4222 196.192 13.4383V12.9489C196.952 12.9259 197.212 12.6124 197.392 12.2377H197.931V17.5883H197.161V13.2089H197.162Z" fill="#282A36"/>
<path d="M199.053 13.53C199.053 12.7117 199.583 12.1841 200.653 12.1841C201.732 12.1841 202.261 12.711 202.261 13.53V16.2883C202.261 17.1057 201.732 17.6418 200.653 17.6418C199.584 17.6418 199.053 17.1065 199.053 16.2883V13.53ZM199.823 16.3273C199.823 16.8091 200.093 17.0996 200.653 17.0996C201.222 17.0996 201.482 16.8091 201.482 16.3273V13.5002C201.482 13.0107 201.222 12.7202 200.653 12.7202C200.093 12.7202 199.823 13.0107 199.823 13.5002V16.3273Z" fill="#282A36"/>
<defs>
<linearGradient id="paint0_linear_75_311" x1="104.988" y1="35" x2="104.988" y2="0" gradientUnits="userSpaceOnUse">
<stop stop-color="#F1E9DA"/>
<stop offset="0.0164" stop-color="#F6EFE2"/>
<stop offset="0.0478" stop-color="#FBF5EA"/>
<stop offset="0.1" stop-color="#FCF7ED"/>
<stop offset="0.5" stop-color="#F1E9DA"/>
<stop offset="0.7089" stop-color="#F2EBDD"/>
<stop offset="0.8344" stop-color="#F7F1E5"/>
<stop offset="0.9" stop-color="#FCF7ED"/>
<stop offset="0.9522" stop-color="#FBF5EA"/>
<stop offset="0.9836" stop-color="#F6EFE2"/>
<stop offset="1" stop-color="#F1E9DA"/>
</linearGradient>
<linearGradient id="paint1_linear_75_311" x1="105" y1="0" x2="105" y2="5" gradientUnits="userSpaceOnUse">
<stop stop-color="#FCF7ED"/>
<stop offset="0.4265" stop-color="#F6F0E3"/>
<stop offset="1" stop-color="#F1E9DA"/>
</linearGradient>
<linearGradient id="paint2_linear_75_311" x1="105" y1="35" x2="105" y2="30" gradientUnits="userSpaceOnUse">
<stop stop-color="#FCF7ED"/>
<stop offset="0.4265" stop-color="#F6F0E3"/>
<stop offset="1" stop-color="#F1E9DA"/>
</linearGradient>
</defs>
</svg>
