<svg width="1001" height="914" viewBox="0 0 1001 914" fill="none" xmlns="http://www.w3.org/2000/svg">
<style>
@keyframes botAnim {
  from {
    transform: translateY(0px);

  }

  to {
    transform: translateY(80px);
  }
}

.bot-anim {
  transform-box: fill-box;
  transform-origin: center;
  animation: botAnim 2s ease-in-out 1 forwards;
}

@keyframes leftAnim {
  from {
    transform:translateX(0px) translateY(0px);

  }

  to {
    transform:translateX(-70px) translateY(-28px);
  }
}

.left-anim {
  transform-box: fill-box;
  transform-origin: center;
  transform:translateX(-70px) translateY(-28px);
}

@keyframes rightAnim {
  from {
    transform:translateX(0px) translateY(0px);

  }

  to {
    transform:translateX(70px) translateY(-28px);
  }
}

.right-anim {
  transform-box: fill-box;
  transform-origin: center;
  transform:translateX(70px) translateY(-28px);
}
</style>
<g clip-path="url(#clip0_65_21)">
<path  d="M500 87L759.808 708.75H240.192L500 87Z" fill="#5FD7FF"/>
<path class="bot-anim" d="M424.764 764V760.804L436.767 747.665C438.176 746.126 439.336 744.788 440.247 743.652C441.159 742.504 441.833 741.427 442.271 740.42C442.721 739.402 442.946 738.337 442.946 737.224C442.946 735.946 442.638 734.839 442.023 733.904C441.419 732.969 440.59 732.247 439.537 731.738C438.483 731.229 437.3 730.974 435.986 730.974C434.589 730.974 433.37 731.264 432.328 731.844C431.298 732.413 430.499 733.212 429.931 734.241C429.375 735.271 429.097 736.479 429.097 737.864H424.906C424.906 735.733 425.397 733.863 426.38 732.253C427.362 730.643 428.7 729.388 430.393 728.489C432.097 727.589 434.009 727.139 436.128 727.139C438.259 727.139 440.147 727.589 441.792 728.489C443.437 729.388 444.728 730.602 445.663 732.129C446.598 733.656 447.065 735.354 447.065 737.224C447.065 738.562 446.823 739.87 446.337 741.148C445.864 742.415 445.035 743.83 443.852 745.392C442.68 746.943 441.052 748.837 438.969 751.074L430.801 759.81V760.094H447.705V764H424.764ZM466.898 764.497C464.223 764.497 461.945 763.769 460.062 762.313C458.18 760.845 456.742 758.721 455.748 755.939C454.754 753.145 454.256 749.772 454.256 745.818C454.256 741.888 454.754 738.532 455.748 735.751C456.754 732.957 458.198 730.826 460.08 729.359C461.974 727.879 464.247 727.139 466.898 727.139C469.55 727.139 471.817 727.879 473.699 729.359C475.593 730.826 477.037 732.957 478.031 735.751C479.037 738.532 479.54 741.888 479.54 745.818C479.54 749.772 479.043 753.145 478.049 755.939C477.055 758.721 475.616 760.845 473.734 762.313C471.852 763.769 469.574 764.497 466.898 764.497ZM466.898 760.591C469.55 760.591 471.61 759.312 473.077 756.756C474.545 754.199 475.279 750.553 475.279 745.818C475.279 742.67 474.942 739.988 474.267 737.775C473.604 735.561 472.645 733.875 471.391 732.714C470.148 731.554 468.65 730.974 466.898 730.974C464.271 730.974 462.217 732.271 460.737 734.863C459.258 737.443 458.518 741.095 458.518 745.818C458.518 748.967 458.849 751.642 459.512 753.844C460.175 756.045 461.128 757.72 462.371 758.869C463.625 760.017 465.135 760.591 466.898 760.591ZM511.501 764.568C508.944 764.568 506.742 763.964 504.896 762.757C503.049 761.55 501.629 759.887 500.634 757.768C499.64 755.649 499.143 753.228 499.143 750.506C499.143 747.736 499.652 745.291 500.67 743.173C501.7 741.042 503.132 739.379 504.967 738.183C506.813 736.976 508.968 736.372 511.43 736.372C513.347 736.372 515.076 736.727 516.614 737.438C518.153 738.148 519.414 739.142 520.396 740.42C521.379 741.699 521.988 743.19 522.225 744.895H518.035C517.715 743.652 517.005 742.551 515.904 741.592C514.815 740.622 513.347 740.136 511.501 740.136C509.867 740.136 508.435 740.562 507.204 741.415C505.985 742.255 505.032 743.445 504.345 744.984C503.67 746.511 503.333 748.304 503.333 750.364C503.333 752.471 503.665 754.305 504.327 755.868C505.002 757.43 505.949 758.644 507.168 759.508C508.399 760.372 509.844 760.804 511.501 760.804C512.59 760.804 513.578 760.615 514.466 760.236C515.354 759.857 516.105 759.312 516.721 758.602C517.336 757.892 517.774 757.04 518.035 756.045H522.225C521.988 757.655 521.402 759.105 520.467 760.396C519.544 761.674 518.319 762.692 516.792 763.45C515.277 764.195 513.513 764.568 511.501 764.568ZM528.351 764V736.727H532.399V740.989H532.754C533.322 739.533 534.24 738.402 535.506 737.597C536.773 736.781 538.294 736.372 540.07 736.372C541.869 736.372 543.366 736.781 544.562 737.597C545.769 738.402 546.71 739.533 547.385 740.989H547.669C548.367 739.58 549.415 738.461 550.812 737.633C552.209 736.792 553.884 736.372 555.837 736.372C558.275 736.372 560.27 737.136 561.82 738.663C563.371 740.178 564.146 742.539 564.146 745.747V764H559.956V745.747C559.956 743.735 559.406 742.297 558.305 741.433C557.204 740.568 555.908 740.136 554.416 740.136C552.499 740.136 551.013 740.716 549.96 741.876C548.906 743.025 548.379 744.481 548.379 746.244V764H544.118V745.321C544.118 743.77 543.615 742.522 542.609 741.575C541.603 740.616 540.306 740.136 538.72 740.136C537.631 740.136 536.613 740.426 535.666 741.006C534.731 741.586 533.973 742.391 533.393 743.421C532.825 744.439 532.541 745.617 532.541 746.955V764H528.351Z" fill="white"/>
<path class="right-anim" d="M643.764 336V332.804L655.767 319.665C657.176 318.126 658.336 316.788 659.247 315.652C660.159 314.504 660.833 313.427 661.271 312.42C661.721 311.402 661.946 310.337 661.946 309.224C661.946 307.946 661.638 306.839 661.023 305.904C660.419 304.969 659.59 304.247 658.537 303.738C657.483 303.229 656.3 302.974 654.986 302.974C653.589 302.974 652.37 303.264 651.328 303.844C650.298 304.413 649.499 305.212 648.931 306.241C648.375 307.271 648.097 308.479 648.097 309.864H643.906C643.906 307.733 644.397 305.863 645.38 304.253C646.362 302.643 647.7 301.388 649.393 300.489C651.097 299.589 653.009 299.139 655.128 299.139C657.259 299.139 659.147 299.589 660.792 300.489C662.437 301.388 663.728 302.602 664.663 304.129C665.598 305.656 666.065 307.354 666.065 309.224C666.065 310.562 665.823 311.87 665.337 313.148C664.864 314.415 664.035 315.83 662.852 317.392C661.68 318.943 660.052 320.837 657.969 323.074L649.801 331.81V332.094H666.705V336H643.764ZM685.401 336.497C683.318 336.497 681.442 336.083 679.773 335.254C678.104 334.426 676.766 333.289 675.76 331.845C674.754 330.401 674.203 328.756 674.109 326.909H678.37C678.536 328.554 679.281 329.916 680.607 330.993C681.945 332.058 683.543 332.591 685.401 332.591C686.893 332.591 688.219 332.242 689.379 331.543C690.55 330.845 691.468 329.886 692.131 328.667C692.805 327.436 693.143 326.045 693.143 324.494C693.143 322.908 692.794 321.494 692.095 320.251C691.409 318.996 690.462 318.008 689.254 317.286C688.047 316.563 686.668 316.196 685.117 316.185C684.004 316.173 682.862 316.344 681.69 316.7C680.518 317.043 679.554 317.487 678.796 318.031L674.677 317.534L676.879 299.636H695.771V303.543H680.572L679.293 314.267H679.506C680.252 313.675 681.187 313.184 682.312 312.793C683.436 312.403 684.608 312.207 685.827 312.207C688.053 312.207 690.036 312.74 691.776 313.805C693.527 314.859 694.901 316.303 695.895 318.138C696.901 319.973 697.404 322.068 697.404 324.423C697.404 326.743 696.883 328.815 695.842 330.638C694.812 332.449 693.391 333.881 691.58 334.935C689.769 335.976 687.71 336.497 685.401 336.497ZM729.671 336.568C727.114 336.568 724.912 335.964 723.066 334.757C721.219 333.55 719.798 331.887 718.804 329.768C717.81 327.649 717.313 325.228 717.313 322.506C717.313 319.736 717.822 317.291 718.84 315.173C719.869 313.042 721.302 311.379 723.137 310.183C724.983 308.976 727.137 308.372 729.6 308.372C731.517 308.372 733.245 308.727 734.784 309.438C736.323 310.148 737.584 311.142 738.566 312.42C739.549 313.699 740.158 315.19 740.395 316.895H736.205C735.885 315.652 735.175 314.551 734.074 313.592C732.985 312.622 731.517 312.136 729.671 312.136C728.037 312.136 726.605 312.562 725.374 313.415C724.155 314.255 723.202 315.445 722.515 316.984C721.84 318.511 721.503 320.304 721.503 322.364C721.503 324.471 721.834 326.305 722.497 327.868C723.172 329.43 724.119 330.644 725.338 331.508C726.569 332.372 728.013 332.804 729.671 332.804C730.76 332.804 731.748 332.615 732.636 332.236C733.524 331.857 734.275 331.312 734.891 330.602C735.506 329.892 735.944 329.04 736.205 328.045H740.395C740.158 329.655 739.572 331.105 738.637 332.396C737.714 333.674 736.489 334.692 734.962 335.45C733.447 336.195 731.683 336.568 729.671 336.568ZM746.521 336V308.727H750.569V312.989H750.924C751.492 311.533 752.41 310.402 753.676 309.597C754.943 308.781 756.464 308.372 758.24 308.372C760.039 308.372 761.536 308.781 762.732 309.597C763.939 310.402 764.88 311.533 765.555 312.989H765.839C766.537 311.58 767.585 310.461 768.982 309.633C770.378 308.792 772.053 308.372 774.007 308.372C776.445 308.372 778.44 309.136 779.99 310.663C781.541 312.178 782.316 314.539 782.316 317.747V336H778.126V317.747C778.126 315.735 777.575 314.297 776.475 313.433C775.374 312.568 774.078 312.136 772.586 312.136C770.669 312.136 769.183 312.716 768.129 313.876C767.076 315.025 766.549 316.481 766.549 318.244V336H762.288V317.321C762.288 315.77 761.785 314.522 760.779 313.575C759.772 312.616 758.476 312.136 756.89 312.136C755.801 312.136 754.783 312.426 753.836 313.006C752.901 313.586 752.143 314.391 751.563 315.421C750.995 316.439 750.711 317.617 750.711 318.955V336H746.521Z" fill="white"/>
<line x1="240.762" y1="707.157" x2="497.157" y2="90.2378" stroke="#FFFFFF" stroke-width="12" stroke-linecap="round"/>
<line x1="498.861" y1="90.1953" x2="759.195" y2="707.139" stroke="#FFFFFF" stroke-width="12" stroke-linecap="round"/>
<line  x1="242" y1="709" x2="760" y2="709" stroke="#FFFFFF" stroke-width="12" stroke-linecap="round"/>
<line class="left-anim" x1="240.762" y1="707.157" x2="497.157" y2="90.2378" stroke="#FFFFFF" stroke-width="12" stroke-linecap="round"/>
<line class="right-anim" x1="498.861" y1="90.1953" x2="759.195" y2="707.139" stroke="#FFFFFF" stroke-width="12" stroke-linecap="round"/>
<line class="bot-anim" x1="242" y1="709" x2="760" y2="709" stroke="#FFFFFF" stroke-width="12" stroke-linecap="round"/>
<line x1="606.671" y1="406.903" x2="647.195" y2="385.576" stroke="white" stroke-width="10"/>
<line x1="346.823" y1="391.755" x2="388.752" y2="410.164" stroke="white" stroke-width="10"/>
</g>
<defs>
<clipPath id="clip0_65_21">
<rect width="1001" height="914" fill="white"/>
</clipPath>
</defs>
</svg>
