<svg width="2375" height="1753" viewBox="0 0 2375 1753" fill="none" xmlns="http://www.w3.org/2000/svg">
<style>

.pulse-rect {
  
  animation: rectPulse 2s ease-in-out infinite;
}
@keyframes rectPulse {
  0% {
    opacity: 0.3;
    filter: drop-shadow(0 0 0 rgba(255, 0, 183, 0));
  }

  50% {
    opacity: 0.7;
    filter:
      drop-shadow(0 0 12px rgba(255, 0, 183, 0.8))
      drop-shadow(0 0 24px rgba(255, 0, 183, 0.6));
  }

  100% {
    opacity: 0.3;
    filter: drop-shadow(0 0 0 rgba(255, 0, 183, 0));
  }
}

</style>
<path d="M1427.46 1474.25H620.003L1427.46 925.554V1474.25Z" fill="#58D98B" fill-opacity="0.2" stroke="#5EB2E7" stroke-width="8"/>
<rect class="pulse-rect" x="67.5569" y="664.346" width="977.767" height="977" transform="rotate(-34.2144 67.5569 664.346)" fill="#4A283B" fill-opacity="0.7" stroke="#EF6AA9" stroke-width="8"/>
<rect opacity="0.2" x="1429" y="922" width="552" height="552" fill="#F4B75D" fill-opacity="0.4" stroke="#FFB84D" stroke-width="8"/>
<path opacity="0.2" d="M2058.24 921.757C2055.9 919.414 2052.1 919.414 2049.76 921.757L2011.57 959.941C2009.23 962.284 2009.23 966.083 2011.57 968.426C2013.92 970.77 2017.72 970.77 2020.06 968.426L2054 934.485L2087.94 968.426C2090.28 970.77 2094.08 970.77 2096.43 968.426C2098.77 966.083 2098.77 962.284 2096.43 959.941L2058.24 921.757ZM2049.76 1482.24C2052.1 1484.59 2055.9 1484.59 2058.24 1482.24L2096.43 1444.06C2098.77 1441.72 2098.77 1437.92 2096.43 1435.57C2094.08 1433.23 2090.28 1433.23 2087.94 1435.57L2054 1469.51L2020.06 1435.57C2017.72 1433.23 2013.92 1433.23 2011.57 1435.57C2009.23 1437.92 2009.23 1441.72 2011.57 1444.06L2049.76 1482.24ZM2054 926H2048V1478H2054H2060V926H2054Z" fill="white"/>
<path opacity="0.2" d="M614.75 1528.26C612.406 1530.6 612.406 1534.4 614.75 1536.74L652.933 1574.93C655.276 1577.27 659.075 1577.27 661.419 1574.93C663.762 1572.58 663.762 1568.78 661.419 1566.44L627.477 1532.5L661.419 1498.56C663.762 1496.22 663.762 1492.42 661.419 1490.07C659.075 1487.73 655.276 1487.73 652.933 1490.07L614.75 1528.26ZM1435.25 1536.74C1437.59 1534.4 1437.59 1530.6 1435.25 1528.26L1397.07 1490.07C1394.72 1487.73 1390.92 1487.73 1388.58 1490.07C1386.24 1492.42 1386.24 1496.22 1388.58 1498.56L1422.52 1532.5L1388.58 1566.44C1386.24 1568.78 1386.24 1572.58 1388.58 1574.93C1390.92 1577.27 1394.72 1577.27 1397.07 1574.93L1435.25 1536.74ZM618.992 1532.5V1538.5H1431.01V1532.5V1526.5H618.992V1532.5Z" fill="white"/>
<rect x="1366" y="1413" width="59" height="58" fill="#D9D9D9"/>
<path opacity="0.2" d="M2132.8 1241L2165.33 1176.65V1176.09H2127.83V1168.27H2174.42V1176.51L2142.03 1241H2132.8ZM2238.08 1242.14C2232.97 1242.14 2228.57 1240.93 2224.87 1238.51C2221.18 1236.1 2218.34 1232.77 2216.35 1228.54C2214.36 1224.3 2213.37 1219.46 2213.37 1214.01C2213.37 1208.47 2214.39 1203.58 2216.42 1199.35C2218.48 1195.08 2221.35 1191.76 2225.02 1189.37C2228.71 1186.95 2233.02 1185.74 2237.94 1185.74C2241.78 1185.74 2245.23 1186.45 2248.31 1187.88C2251.39 1189.3 2253.91 1191.28 2255.87 1193.84C2257.84 1196.4 2259.06 1199.38 2259.53 1202.79H2251.15C2250.51 1200.3 2249.09 1198.1 2246.89 1196.18C2244.71 1194.24 2241.78 1193.27 2238.08 1193.27C2234.82 1193.27 2231.95 1194.12 2229.49 1195.83C2227.05 1197.51 2225.15 1199.89 2223.77 1202.97C2222.42 1206.02 2221.75 1209.61 2221.75 1213.73C2221.75 1217.94 2222.41 1221.61 2223.74 1224.74C2225.09 1227.86 2226.98 1230.29 2229.42 1232.02C2231.88 1233.74 2234.77 1234.61 2238.08 1234.61C2240.26 1234.61 2242.24 1234.23 2244.01 1233.47C2245.79 1232.71 2247.29 1231.62 2248.52 1230.2C2249.75 1228.78 2250.63 1227.08 2251.15 1225.09H2259.53C2259.06 1228.31 2257.89 1231.21 2256.02 1233.79C2254.17 1236.35 2251.72 1238.38 2248.67 1239.9C2245.64 1241.39 2242.11 1242.14 2238.08 1242.14ZM2271.78 1241V1186.45H2279.88V1194.98H2280.59C2281.73 1192.07 2283.56 1189.8 2286.09 1188.19C2288.63 1186.56 2291.67 1185.74 2295.22 1185.74C2298.82 1185.74 2301.81 1186.56 2304.21 1188.19C2306.62 1189.8 2308.5 1192.07 2309.85 1194.98H2310.42C2311.82 1192.16 2313.91 1189.92 2316.71 1188.27C2319.5 1186.58 2322.85 1185.74 2326.76 1185.74C2331.63 1185.74 2335.62 1187.27 2338.72 1190.33C2341.82 1193.36 2343.37 1198.08 2343.37 1204.49V1241H2334.99V1204.49C2334.99 1200.47 2333.89 1197.59 2331.69 1195.87C2329.49 1194.14 2326.9 1193.27 2323.91 1193.27C2320.08 1193.27 2317.11 1194.43 2315 1196.75C2312.89 1199.05 2311.84 1201.96 2311.84 1205.49V1241H2303.32V1203.64C2303.32 1200.54 2302.31 1198.04 2300.3 1196.15C2298.29 1194.23 2295.69 1193.27 2292.52 1193.27C2290.34 1193.27 2288.31 1193.85 2286.41 1195.01C2284.54 1196.17 2283.03 1197.78 2281.87 1199.84C2280.73 1201.88 2280.16 1204.23 2280.16 1206.91V1241H2271.78Z" fill="white"/>
<path opacity="0.2" d="M1057.72 1645.28C1054.27 1645.28 1051.13 1644.63 1048.31 1643.33C1045.49 1642 1043.26 1640.09 1041.6 1637.61C1039.94 1635.1 1039.11 1632.07 1039.11 1628.52C1039.11 1625.39 1039.73 1622.86 1040.96 1620.92C1042.19 1618.95 1043.84 1617.41 1045.9 1616.3C1047.96 1615.19 1050.23 1614.36 1052.71 1613.82C1055.22 1613.25 1057.75 1612.8 1060.28 1612.47C1063.59 1612.04 1066.28 1611.72 1068.34 1611.51C1070.42 1611.27 1071.94 1610.88 1072.88 1610.34C1073.86 1609.79 1074.34 1608.84 1074.34 1607.49V1607.21C1074.34 1603.71 1073.38 1600.98 1071.46 1599.04C1069.57 1597.1 1066.69 1596.13 1062.84 1596.13C1058.83 1596.13 1055.7 1597.01 1053.42 1598.76C1051.15 1600.51 1049.55 1602.38 1048.63 1604.37L1040.68 1601.53C1042.1 1598.21 1043.99 1595.63 1046.36 1593.79C1048.75 1591.92 1051.35 1590.61 1054.17 1589.88C1057.01 1589.12 1059.8 1588.74 1062.55 1588.74C1064.3 1588.74 1066.32 1588.96 1068.59 1589.38C1070.88 1589.79 1073.1 1590.63 1075.23 1591.9C1077.38 1593.18 1079.17 1595.11 1080.59 1597.69C1082.01 1600.27 1082.72 1603.73 1082.72 1608.06V1644H1074.34V1636.61H1073.91C1073.35 1637.8 1072.4 1639.06 1071.07 1640.41C1069.75 1641.76 1067.98 1642.91 1065.78 1643.86C1063.58 1644.8 1060.89 1645.28 1057.72 1645.28ZM1059 1637.75C1062.31 1637.75 1065.11 1637.1 1067.38 1635.8C1069.68 1634.49 1071.41 1632.81 1072.57 1630.75C1073.75 1628.69 1074.34 1626.53 1074.34 1624.26V1616.59C1073.99 1617.01 1073.2 1617.4 1072 1617.76C1070.81 1618.09 1069.44 1618.38 1067.88 1618.64C1066.34 1618.88 1064.84 1619.09 1063.37 1619.28C1061.92 1619.45 1060.75 1619.59 1059.85 1619.71C1057.67 1619.99 1055.64 1620.46 1053.74 1621.1C1051.87 1621.71 1050.36 1622.65 1049.2 1623.9C1048.06 1625.13 1047.49 1626.81 1047.49 1628.94C1047.49 1631.86 1048.57 1634.06 1050.73 1635.55C1052.9 1637.02 1055.66 1637.75 1059 1637.75Z" fill="white"/>
<path d="M533.971 1507H519.141L541.737 1441.55H559.571L582.135 1507H567.305L550.91 1456.5H550.398L533.971 1507ZM533.044 1481.27H568.072V1492.07H533.044V1481.27Z" fill="white"/>
<path d="M1480.44 834.461H1466.44C1466.19 832.65 1465.66 831.041 1464.88 829.635C1464.09 828.207 1463.08 826.993 1461.84 825.991C1460.6 824.99 1459.18 824.223 1457.56 823.69C1455.96 823.158 1454.22 822.891 1452.35 822.891C1448.96 822.891 1446.01 823.733 1443.5 825.416C1440.98 827.078 1439.03 829.507 1437.65 832.703C1436.26 835.878 1435.57 839.734 1435.57 844.273C1435.57 848.939 1436.26 852.859 1437.65 856.034C1439.05 859.209 1441.01 861.606 1443.53 863.225C1446.04 864.844 1448.95 865.654 1452.25 865.654C1454.11 865.654 1455.82 865.409 1457.4 864.919C1459 864.429 1460.41 863.715 1461.65 862.778C1462.88 861.819 1463.91 860.658 1464.72 859.294C1465.55 857.93 1466.12 856.375 1466.44 854.628L1480.44 854.692C1480.08 857.696 1479.17 860.594 1477.72 863.385C1476.3 866.155 1474.37 868.637 1471.94 870.832C1469.53 873.005 1466.66 874.731 1463.31 876.009C1459.99 877.266 1456.23 877.895 1452.03 877.895C1446.19 877.895 1440.97 876.574 1436.37 873.932C1431.79 871.29 1428.16 867.465 1425.5 862.458C1422.86 857.451 1421.54 851.389 1421.54 844.273C1421.54 837.135 1422.88 831.062 1425.57 826.055C1428.25 821.048 1431.89 817.234 1436.5 814.614C1441.1 811.972 1446.28 810.651 1452.03 810.651C1455.82 810.651 1459.34 811.183 1462.58 812.249C1465.84 813.314 1468.72 814.869 1471.24 816.915C1473.75 818.939 1475.8 821.421 1477.37 824.362C1478.97 827.302 1479.99 830.668 1480.44 834.461Z" fill="white"/>
<path d="M1456.69 1599V1533.55H1482.9C1487.71 1533.55 1491.73 1534.26 1494.95 1535.69C1498.16 1537.11 1500.58 1539.1 1502.2 1541.63C1503.82 1544.15 1504.63 1547.04 1504.63 1550.32C1504.63 1552.88 1504.12 1555.13 1503.1 1557.07C1502.07 1558.99 1500.67 1560.56 1498.88 1561.8C1497.11 1563.01 1495.08 1563.88 1492.8 1564.39V1565.03C1495.3 1565.13 1497.63 1565.84 1499.8 1567.14C1502 1568.44 1503.78 1570.26 1505.14 1572.6C1506.5 1574.92 1507.19 1577.69 1507.19 1580.91C1507.19 1584.38 1506.32 1587.48 1504.6 1590.21C1502.89 1592.92 1500.37 1595.06 1497.02 1596.63C1493.68 1598.21 1489.55 1599 1484.65 1599H1456.69ZM1470.53 1587.69H1481.81C1485.67 1587.69 1488.48 1586.95 1490.25 1585.48C1492.02 1583.99 1492.9 1582.01 1492.9 1579.54C1492.9 1577.73 1492.46 1576.13 1491.59 1574.74C1490.72 1573.36 1489.47 1572.27 1487.85 1571.48C1486.25 1570.69 1484.35 1570.3 1482.13 1570.3H1470.53V1587.69ZM1470.53 1560.94H1480.79C1482.68 1560.94 1484.37 1560.61 1485.84 1559.94C1487.33 1559.26 1488.5 1558.3 1489.35 1557.07C1490.23 1555.83 1490.66 1554.35 1490.66 1552.63C1490.66 1550.26 1489.82 1548.35 1488.14 1546.9C1486.48 1545.46 1484.11 1544.73 1481.04 1544.73H1470.53V1560.94Z" fill="white"/>
<line x1="620" y1="1473" x2="1421" y2="1473" stroke="#5EB2E7" stroke-width="12" stroke-linecap="round"/>
<line x1="615.869" y1="1471.78" x2="1421.28" y2="926.131" stroke="#EF6AA9" stroke-width="14" stroke-linecap="round"/>
<line x1="1429" y1="1472" x2="1429" y2="925" stroke="#FFB84D" stroke-width="14" stroke-linecap="round"/>
</svg>
