<svg width="2375" height="1753" viewBox="0 0 2375 1753" fill="none" xmlns="http://www.w3.org/2000/svg">
<path d="M1427.46 1474.25H620.003L1427.46 925.554V1474.25Z" fill="#58D98B" fill-opacity="0.2" stroke="#5EB2E7" stroke-width="8"/>
<rect x="67.5569" y="664.346" width="977.767" height="977" transform="rotate(-34.2144 67.5569 664.346)" fill="#4A283B" fill-opacity="0.7" stroke="#EF6AA9" stroke-width="8"/>
<path d="M372.148 814H361.068L393.114 726.727H404.023L436.068 814H424.989L398.909 740.534H398.227L372.148 814ZM376.239 779.909H420.898V789.284H376.239V779.909ZM515.788 754H505.219C504.594 750.96 503.501 748.29 501.938 745.989C500.404 743.688 498.529 741.756 496.313 740.193C494.126 738.602 491.697 737.409 489.026 736.614C486.356 735.818 483.572 735.42 480.674 735.42C475.39 735.42 470.603 736.756 466.313 739.426C462.052 742.097 458.657 746.031 456.129 751.23C453.629 756.429 452.379 762.807 452.379 770.364C452.379 777.92 453.629 784.298 456.129 789.497C458.657 794.696 462.052 798.631 466.313 801.301C470.603 803.972 475.39 805.307 480.674 805.307C483.572 805.307 486.356 804.909 489.026 804.114C491.697 803.318 494.126 802.139 496.313 800.577C498.529 798.986 500.404 797.04 501.938 794.739C503.501 792.409 504.594 789.739 505.219 786.727H515.788C514.992 791.187 513.543 795.179 511.441 798.702C509.339 802.224 506.725 805.222 503.6 807.693C500.475 810.136 496.967 811.997 493.075 813.276C489.211 814.554 485.077 815.193 480.674 815.193C473.231 815.193 466.612 813.375 460.816 809.739C455.021 806.102 450.461 800.932 447.137 794.227C443.813 787.523 442.151 779.568 442.151 770.364C442.151 761.159 443.813 753.205 447.137 746.5C450.461 739.795 455.021 734.625 460.816 730.989C466.612 727.352 473.231 725.534 480.674 725.534C485.077 725.534 489.211 726.173 493.075 727.452C496.967 728.73 500.475 730.605 503.6 733.077C506.725 735.52 509.339 738.503 511.441 742.026C513.543 745.52 514.992 749.511 515.788 754ZM527.538 770.364V760.946L548.291 744.369C549.882 743.062 551.26 741.884 552.425 740.832C553.589 739.781 554.499 738.716 555.152 737.636C555.805 736.557 556.132 735.364 556.132 734.057C556.132 732.011 555.294 730.435 553.618 729.327C551.942 728.219 549.911 727.665 547.524 727.665C544.967 727.665 542.908 728.29 541.345 729.54C539.811 730.761 539.044 732.537 539.044 734.866H526.473C526.473 729.412 528.462 725.136 532.439 722.04C536.416 718.915 541.501 717.352 547.695 717.352C551.928 717.352 555.607 718.091 558.732 719.568C561.857 721.017 564.271 722.991 565.976 725.491C567.709 727.991 568.575 730.79 568.575 733.886C568.575 736.386 568.05 738.716 566.999 740.875C565.976 743.006 564.385 745.108 562.226 747.182C560.095 749.227 557.339 751.372 553.959 753.616L546.374 759.241V759.71H569.172V770.364H527.538ZM612.265 772.494V757.366H671.114V772.494H612.265ZM612.265 800.79V785.662H671.114V800.79H612.265ZM754.765 815.193C749.14 815.193 744.126 814.227 739.722 812.295C735.347 810.364 731.867 807.679 729.282 804.241C726.725 800.776 725.333 796.756 725.106 792.182H735.844C736.072 794.994 737.038 797.423 738.742 799.469C740.447 801.486 742.677 803.048 745.433 804.156C748.188 805.264 751.242 805.818 754.594 805.818C758.344 805.818 761.668 805.165 764.566 803.858C767.464 802.551 769.737 800.733 771.384 798.403C773.032 796.074 773.856 793.375 773.856 790.307C773.856 787.097 773.06 784.27 771.469 781.827C769.879 779.355 767.549 777.423 764.481 776.031C761.413 774.639 757.663 773.943 753.231 773.943H746.242V764.568H753.231C756.697 764.568 759.737 763.943 762.35 762.693C764.992 761.443 767.052 759.682 768.529 757.409C770.035 755.136 770.788 752.466 770.788 749.398C770.788 746.443 770.134 743.872 768.827 741.685C767.521 739.497 765.674 737.793 763.288 736.571C760.93 735.349 758.146 734.739 754.935 734.739C751.924 734.739 749.083 735.293 746.413 736.401C743.771 737.48 741.612 739.057 739.935 741.131C738.259 743.176 737.35 745.648 737.208 748.545H726.981C727.151 743.972 728.529 739.966 731.114 736.528C733.7 733.062 737.08 730.364 741.256 728.432C745.461 726.5 750.077 725.534 755.106 725.534C760.504 725.534 765.134 726.628 768.998 728.815C772.862 730.974 775.83 733.83 777.904 737.381C779.978 740.932 781.015 744.767 781.015 748.886C781.015 753.801 779.722 757.991 777.137 761.457C774.58 764.923 771.1 767.324 766.697 768.659V769.341C772.208 770.25 776.512 772.594 779.609 776.372C782.705 780.122 784.254 784.767 784.254 790.307C784.254 795.051 782.961 799.312 780.376 803.091C777.819 806.841 774.325 809.795 769.893 811.955C765.461 814.114 760.418 815.193 754.765 815.193ZM831.171 815.193C825.546 815.193 820.532 814.227 816.129 812.295C811.754 810.364 808.273 807.679 805.688 804.241C803.131 800.776 801.739 796.756 801.512 792.182H812.251C812.478 794.994 813.444 797.423 815.148 799.469C816.853 801.486 819.083 803.048 821.839 804.156C824.594 805.264 827.648 805.818 831.001 805.818C834.751 805.818 838.075 805.165 840.972 803.858C843.87 802.551 846.143 800.733 847.79 798.403C849.438 796.074 850.262 793.375 850.262 790.307C850.262 787.097 849.467 784.27 847.876 781.827C846.285 779.355 843.955 777.423 840.887 776.031C837.819 774.639 834.069 773.943 829.637 773.943H822.648V764.568H829.637C833.103 764.568 836.143 763.943 838.756 762.693C841.398 761.443 843.458 759.682 844.935 757.409C846.441 755.136 847.194 752.466 847.194 749.398C847.194 746.443 846.54 743.872 845.234 741.685C843.927 739.497 842.08 737.793 839.694 736.571C837.336 735.349 834.552 734.739 831.342 734.739C828.33 734.739 825.489 735.293 822.819 736.401C820.177 737.48 818.018 739.057 816.342 741.131C814.665 743.176 813.756 745.648 813.614 748.545H803.387C803.558 743.972 804.935 739.966 807.521 736.528C810.106 733.062 813.487 730.364 817.663 728.432C821.867 726.5 826.484 725.534 831.512 725.534C836.91 725.534 841.54 726.628 845.404 728.815C849.268 730.974 852.237 733.83 854.31 737.381C856.384 740.932 857.421 744.767 857.421 748.886C857.421 753.801 856.129 757.991 853.543 761.457C850.987 764.923 847.506 767.324 843.103 768.659V769.341C848.614 770.25 852.918 772.594 856.015 776.372C859.112 780.122 860.66 784.767 860.66 790.307C860.66 795.051 859.367 799.312 856.782 803.091C854.225 806.841 850.731 809.795 846.299 811.955C841.867 814.114 836.825 815.193 831.171 815.193ZM906.043 815.193C900.191 815.193 895.021 814.156 890.532 812.082C886.072 809.98 882.592 807.097 880.092 803.432C877.592 799.739 876.356 795.534 876.384 790.818C876.356 787.125 877.08 783.716 878.558 780.591C880.035 777.437 882.052 774.81 884.609 772.707C887.194 770.577 890.077 769.227 893.259 768.659V768.148C889.083 767.068 885.759 764.724 883.288 761.116C880.816 757.48 879.594 753.347 879.623 748.716C879.594 744.284 880.717 740.321 882.989 736.827C885.262 733.332 888.387 730.577 892.364 728.56C896.37 726.543 900.93 725.534 906.043 725.534C911.1 725.534 915.617 726.543 919.594 728.56C923.572 730.577 926.697 733.332 928.969 736.827C931.271 740.321 932.435 744.284 932.464 748.716C932.435 753.347 931.171 757.48 928.671 761.116C926.2 764.724 922.918 767.068 918.827 768.148V768.659C921.981 769.227 924.822 770.577 927.35 772.707C929.879 774.81 931.896 777.437 933.401 780.591C934.907 783.716 935.674 787.125 935.702 790.818C935.674 795.534 934.396 799.739 931.867 803.432C929.367 807.097 925.887 809.98 921.427 812.082C916.995 814.156 911.867 815.193 906.043 815.193ZM906.043 805.818C909.992 805.818 913.401 805.179 916.271 803.901C919.14 802.622 921.356 800.818 922.918 798.489C924.481 796.159 925.276 793.432 925.305 790.307C925.276 787.011 924.424 784.099 922.748 781.571C921.072 779.043 918.785 777.054 915.887 775.605C913.018 774.156 909.737 773.432 906.043 773.432C902.322 773.432 898.998 774.156 896.072 775.605C893.174 777.054 890.887 779.043 889.211 781.571C887.563 784.099 886.754 787.011 886.782 790.307C886.754 793.432 887.506 796.159 889.04 798.489C890.603 800.818 892.833 802.622 895.731 803.901C898.629 805.179 902.066 805.818 906.043 805.818ZM906.043 764.398C909.168 764.398 911.938 763.773 914.353 762.523C916.796 761.273 918.714 759.526 920.106 757.281C921.498 755.037 922.208 752.409 922.237 749.398C922.208 746.443 921.512 743.872 920.148 741.685C918.785 739.469 916.896 737.764 914.481 736.571C912.066 735.349 909.254 734.739 906.043 734.739C902.776 734.739 899.921 735.349 897.478 736.571C895.035 737.764 893.146 739.469 891.81 741.685C890.475 743.872 889.822 746.443 889.85 749.398C889.822 752.409 890.489 755.037 891.853 757.281C893.245 759.526 895.163 761.273 897.606 762.523C900.049 763.773 902.862 764.398 906.043 764.398ZM1012.55 815.364C1006.41 815.364 1001.13 813.915 996.693 811.017C992.261 808.119 988.852 804.128 986.466 799.043C984.08 793.957 982.886 788.148 982.886 781.614C982.886 774.966 984.108 769.099 986.551 764.014C989.023 758.901 992.46 754.909 996.864 752.04C1001.3 749.142 1006.47 747.693 1012.38 747.693C1016.98 747.693 1021.12 748.545 1024.82 750.25C1028.51 751.955 1031.54 754.341 1033.89 757.409C1036.25 760.477 1037.72 764.057 1038.28 768.148H1028.23C1027.46 765.165 1025.76 762.523 1023.11 760.222C1020.5 757.892 1016.98 756.727 1012.55 756.727C1008.63 756.727 1005.19 757.75 1002.23 759.795C999.307 761.812 997.02 764.668 995.372 768.361C993.753 772.026 992.943 776.33 992.943 781.273C992.943 786.33 993.739 790.733 995.33 794.483C996.949 798.233 999.222 801.145 1002.15 803.219C1005.1 805.293 1008.57 806.33 1012.55 806.33C1015.16 806.33 1017.53 805.875 1019.66 804.966C1021.79 804.057 1023.6 802.75 1025.07 801.045C1026.55 799.341 1027.6 797.295 1028.23 794.909H1038.28C1037.72 798.773 1036.31 802.253 1034.07 805.349C1031.85 808.418 1028.91 810.861 1025.24 812.679C1021.61 814.469 1017.38 815.364 1012.55 815.364ZM1052.99 814V748.545H1062.7V758.773H1063.55C1064.92 755.278 1067.12 752.565 1070.16 750.634C1073.2 748.673 1076.85 747.693 1081.11 747.693C1085.43 747.693 1089.02 748.673 1091.89 750.634C1094.79 752.565 1097.05 755.278 1098.67 758.773H1099.35C1101.03 755.392 1103.54 752.707 1106.89 750.719C1110.24 748.702 1114.26 747.693 1118.95 747.693C1124.8 747.693 1129.59 749.526 1133.31 753.19C1137.03 756.827 1138.89 762.494 1138.89 770.193V814H1128.84V770.193C1128.84 765.364 1127.52 761.912 1124.88 759.838C1122.23 757.764 1119.12 756.727 1115.54 756.727C1110.94 756.727 1107.38 758.119 1104.85 760.903C1102.32 763.659 1101.05 767.153 1101.05 771.386V814H1090.83V769.17C1090.83 765.449 1089.62 762.452 1087.2 760.179C1084.79 757.878 1081.68 756.727 1077.87 756.727C1075.26 756.727 1072.82 757.423 1070.54 758.815C1068.3 760.207 1066.48 762.139 1065.09 764.611C1063.72 767.054 1063.04 769.881 1063.04 773.091V814H1052.99ZM1153.32 770.364V760.946L1174.07 744.369C1175.66 743.062 1177.04 741.884 1178.21 740.832C1179.37 739.781 1180.28 738.716 1180.93 737.636C1181.59 736.557 1181.91 735.364 1181.91 734.057C1181.91 732.011 1181.08 730.435 1179.4 729.327C1177.72 728.219 1175.69 727.665 1173.31 727.665C1170.75 727.665 1168.69 728.29 1167.13 729.54C1165.59 730.761 1164.83 732.537 1164.83 734.866H1152.25C1152.25 729.412 1154.24 725.136 1158.22 722.04C1162.2 718.915 1167.28 717.352 1173.48 717.352C1177.71 717.352 1181.39 718.091 1184.51 719.568C1187.64 721.017 1190.05 722.991 1191.76 725.491C1193.49 727.991 1194.36 730.79 1194.36 733.886C1194.36 736.386 1193.83 738.716 1192.78 740.875C1191.76 743.006 1190.17 745.108 1188.01 747.182C1185.88 749.227 1183.12 751.372 1179.74 753.616L1172.15 759.241V759.71H1194.95V770.364H1153.32Z" fill="white"/>
<path d="M1515.24 918.757C1512.9 916.414 1509.1 916.414 1506.76 918.757L1468.57 956.941C1466.23 959.284 1466.23 963.083 1468.57 965.426C1470.92 967.77 1474.72 967.77 1477.06 965.426L1511 931.485L1544.94 965.426C1547.28 967.77 1551.08 967.77 1553.43 965.426C1555.77 963.083 1555.77 959.284 1553.43 956.941L1515.24 918.757ZM1506.76 1479.24C1509.1 1481.59 1512.9 1481.59 1515.24 1479.24L1553.43 1441.06C1555.77 1438.72 1555.77 1434.92 1553.43 1432.57C1551.08 1430.23 1547.28 1430.23 1544.94 1432.57L1511 1466.51L1477.06 1432.57C1474.72 1430.23 1470.92 1430.23 1468.57 1432.57C1466.23 1434.92 1466.23 1438.72 1468.57 1441.06L1506.76 1479.24ZM1511 923H1505V1475H1511H1517V923H1511Z" fill="white"/>
<path d="M614.75 1528.26C612.406 1530.6 612.406 1534.4 614.75 1536.74L652.933 1574.93C655.276 1577.27 659.075 1577.27 661.419 1574.93C663.762 1572.58 663.762 1568.78 661.419 1566.44L627.477 1532.5L661.419 1498.56C663.762 1496.22 663.762 1492.42 661.419 1490.07C659.075 1487.73 655.276 1487.73 652.933 1490.07L614.75 1528.26ZM1435.25 1536.74C1437.59 1534.4 1437.59 1530.6 1435.25 1528.26L1397.07 1490.07C1394.72 1487.73 1390.92 1487.73 1388.58 1490.07C1386.24 1492.42 1386.24 1496.22 1388.58 1498.56L1422.52 1532.5L1388.58 1566.44C1386.24 1568.78 1386.24 1572.58 1388.58 1574.93C1390.92 1577.27 1394.72 1577.27 1397.07 1574.93L1435.25 1536.74ZM618.992 1532.5V1538.5H1431.01V1532.5V1526.5H618.992V1532.5Z" fill="white"/>
<rect x="1366" y="1413" width="59" height="58" fill="#D9D9D9"/>
<path d="M1570.8 1241L1603.33 1176.65V1176.09H1565.83V1168.27H1612.42V1176.51L1580.03 1241H1570.8ZM1676.08 1242.14C1670.97 1242.14 1666.57 1240.93 1662.87 1238.51C1659.18 1236.1 1656.34 1232.77 1654.35 1228.54C1652.36 1224.3 1651.37 1219.46 1651.37 1214.01C1651.37 1208.47 1652.39 1203.58 1654.42 1199.35C1656.48 1195.08 1659.35 1191.76 1663.02 1189.37C1666.71 1186.95 1671.02 1185.74 1675.94 1185.74C1679.78 1185.74 1683.23 1186.45 1686.31 1187.88C1689.39 1189.3 1691.91 1191.28 1693.87 1193.84C1695.84 1196.4 1697.06 1199.38 1697.53 1202.79H1689.15C1688.51 1200.3 1687.09 1198.1 1684.89 1196.18C1682.71 1194.24 1679.78 1193.27 1676.08 1193.27C1672.82 1193.27 1669.95 1194.12 1667.49 1195.83C1665.05 1197.51 1663.15 1199.89 1661.77 1202.97C1660.42 1206.02 1659.75 1209.61 1659.75 1213.73C1659.75 1217.94 1660.41 1221.61 1661.74 1224.74C1663.09 1227.86 1664.98 1230.29 1667.42 1232.02C1669.88 1233.74 1672.77 1234.61 1676.08 1234.61C1678.26 1234.61 1680.24 1234.23 1682.01 1233.47C1683.79 1232.71 1685.29 1231.62 1686.52 1230.2C1687.75 1228.78 1688.63 1227.08 1689.15 1225.09H1697.53C1697.06 1228.31 1695.89 1231.21 1694.02 1233.79C1692.17 1236.35 1689.72 1238.38 1686.67 1239.9C1683.64 1241.39 1680.11 1242.14 1676.08 1242.14ZM1709.78 1241V1186.45H1717.88V1194.98H1718.59C1719.73 1192.07 1721.56 1189.8 1724.09 1188.19C1726.63 1186.56 1729.67 1185.74 1733.22 1185.74C1736.82 1185.74 1739.81 1186.56 1742.21 1188.19C1744.62 1189.8 1746.5 1192.07 1747.85 1194.98H1748.42C1749.82 1192.16 1751.91 1189.92 1754.71 1188.27C1757.5 1186.58 1760.85 1185.74 1764.76 1185.74C1769.63 1185.74 1773.62 1187.27 1776.72 1190.33C1779.82 1193.36 1781.37 1198.08 1781.37 1204.49V1241H1772.99V1204.49C1772.99 1200.47 1771.89 1197.59 1769.69 1195.87C1767.49 1194.14 1764.9 1193.27 1761.91 1193.27C1758.08 1193.27 1755.11 1194.43 1753 1196.75C1750.89 1199.05 1749.84 1201.96 1749.84 1205.49V1241H1741.32V1203.64C1741.32 1200.54 1740.31 1198.04 1738.3 1196.15C1736.29 1194.23 1733.69 1193.27 1730.52 1193.27C1728.34 1193.27 1726.31 1193.85 1724.41 1195.01C1722.54 1196.17 1721.03 1197.78 1719.87 1199.84C1718.73 1201.88 1718.16 1204.23 1718.16 1206.91V1241H1709.78Z" fill="#FFB84D"/>
<path d="M849.591 1658.03C846.111 1658.03 843.009 1657.43 840.287 1656.22C837.564 1654.99 835.41 1653.18 833.824 1650.79C832.261 1648.37 831.48 1645.36 831.48 1641.77C831.48 1638.74 832.036 1636.19 833.149 1634.13C834.262 1632.07 835.777 1630.41 837.695 1629.16C839.612 1627.9 841.79 1626.96 844.229 1626.32C846.691 1625.68 849.271 1625.23 851.97 1624.97C855.143 1624.64 857.699 1624.33 859.641 1624.05C861.582 1623.74 862.991 1623.29 863.866 1622.7C864.742 1622.1 865.18 1621.23 865.18 1620.07V1619.86C865.18 1617.61 864.47 1615.87 863.05 1614.63C861.653 1613.4 859.664 1612.79 857.084 1612.79C854.361 1612.79 852.195 1613.39 850.585 1614.6C848.975 1615.78 847.91 1617.27 847.389 1619.07L833.398 1617.94C834.108 1614.62 835.505 1611.76 837.588 1609.34C839.671 1606.91 842.358 1605.04 845.649 1603.73C848.964 1602.41 852.799 1601.74 857.155 1601.74C860.185 1601.74 863.085 1602.1 865.855 1602.81C868.649 1603.52 871.123 1604.62 873.277 1606.11C875.455 1607.6 877.171 1609.52 878.426 1611.87C879.681 1614.19 880.308 1616.97 880.308 1620.21V1657H865.962V1649.44H865.536C864.66 1651.14 863.488 1652.64 862.02 1653.95C860.552 1655.22 858.788 1656.23 856.729 1656.96C854.669 1657.67 852.29 1658.03 849.591 1658.03ZM853.923 1647.59C856.149 1647.59 858.114 1647.15 859.818 1646.28C861.523 1645.38 862.86 1644.17 863.831 1642.65C864.802 1641.14 865.287 1639.42 865.287 1637.5V1631.72C864.813 1632.02 864.162 1632.31 863.334 1632.57C862.529 1632.8 861.617 1633.03 860.599 1633.24C859.581 1633.43 858.563 1633.61 857.545 1633.78C856.527 1633.92 855.604 1634.05 854.776 1634.17C853 1634.43 851.449 1634.84 850.124 1635.41C848.798 1635.98 847.768 1636.75 847.034 1637.72C846.3 1638.66 845.933 1639.85 845.933 1641.27C845.933 1643.33 846.679 1644.9 848.17 1645.99C849.686 1647.06 851.603 1647.59 853.923 1647.59ZM918.598 1615.17V1602.53H967.64V1615.17H918.598ZM918.598 1638.75V1626.11H967.64V1638.75H918.598ZM1037.8 1584.27V1657H1022.42V1598.87H1022L1005.34 1609.31V1595.67L1023.35 1584.27H1037.8ZM1057.96 1657L1088.11 1597.34V1596.84H1052.99V1584.27H1104.02V1597.02L1073.84 1657H1057.96ZM1162.49 1658.07C1156.9 1658.07 1152.1 1656.88 1148.07 1654.51C1144.07 1652.12 1140.99 1648.81 1138.84 1644.57C1136.71 1640.33 1135.64 1635.46 1135.64 1629.94C1135.64 1624.35 1136.72 1619.45 1138.88 1615.24C1141.05 1611 1144.14 1607.7 1148.14 1605.33C1152.14 1602.94 1156.9 1601.74 1162.42 1601.74C1167.18 1601.74 1171.34 1602.61 1174.92 1604.34C1178.49 1606.06 1181.32 1608.49 1183.41 1611.62C1185.49 1614.74 1186.64 1618.41 1186.85 1622.62H1172.58C1172.17 1619.9 1171.11 1617.71 1169.38 1616.06C1167.68 1614.37 1165.44 1613.53 1162.67 1613.53C1160.32 1613.53 1158.28 1614.17 1156.52 1615.45C1154.8 1616.71 1153.45 1618.54 1152.48 1620.96C1151.51 1623.37 1151.02 1626.29 1151.02 1629.73C1151.02 1633.21 1151.49 1636.17 1152.44 1638.61C1153.41 1641.04 1154.77 1642.9 1156.52 1644.18C1158.28 1645.46 1160.32 1646.1 1162.67 1646.1C1164.4 1646.1 1165.95 1645.74 1167.32 1645.03C1168.72 1644.32 1169.86 1643.29 1170.76 1641.94C1171.69 1640.57 1172.29 1638.92 1172.58 1637.01H1186.85C1186.61 1641.17 1185.48 1644.84 1183.44 1648.02C1181.43 1651.16 1178.65 1653.63 1175.1 1655.4C1171.55 1657.18 1167.34 1658.07 1162.49 1658.07ZM1196.54 1657V1602.45H1210.95V1612.08H1211.59C1212.73 1608.88 1214.62 1606.36 1217.28 1604.51C1219.93 1602.67 1223.1 1601.74 1226.79 1601.74C1230.53 1601.74 1233.72 1602.68 1236.35 1604.55C1238.97 1606.4 1240.72 1608.91 1241.6 1612.08H1242.17C1243.28 1608.95 1245.29 1606.46 1248.21 1604.59C1251.14 1602.69 1254.61 1601.74 1258.61 1601.74C1263.7 1601.74 1267.83 1603.37 1271 1606.61C1274.2 1609.83 1275.8 1614.4 1275.8 1620.32V1657H1260.71V1623.3C1260.71 1620.27 1259.9 1618 1258.29 1616.48C1256.68 1614.97 1254.67 1614.21 1252.25 1614.21C1249.51 1614.21 1247.37 1615.08 1245.83 1616.84C1244.29 1618.56 1243.52 1620.85 1243.52 1623.69V1657H1228.85V1622.98C1228.85 1620.3 1228.08 1618.17 1226.54 1616.59C1225.03 1615 1223.03 1614.21 1220.54 1614.21C1218.86 1614.21 1217.35 1614.63 1216 1615.49C1214.67 1616.32 1213.62 1617.49 1212.84 1619C1212.06 1620.49 1211.66 1622.25 1211.66 1624.26V1657H1196.54Z" fill="#5EB2E7"/>
<path d="M533.971 1507H519.141L541.737 1441.55H559.571L582.135 1507H567.305L550.91 1456.5H550.398L533.971 1507ZM533.044 1481.27H568.072V1492.07H533.044V1481.27Z" fill="white"/>
<path d="M1480.44 834.461H1466.44C1466.19 832.65 1465.66 831.041 1464.88 829.635C1464.09 828.207 1463.08 826.993 1461.84 825.991C1460.6 824.99 1459.18 824.223 1457.56 823.69C1455.96 823.158 1454.22 822.891 1452.35 822.891C1448.96 822.891 1446.01 823.733 1443.5 825.416C1440.98 827.078 1439.03 829.507 1437.65 832.703C1436.26 835.878 1435.57 839.734 1435.57 844.273C1435.57 848.939 1436.26 852.859 1437.65 856.034C1439.05 859.209 1441.01 861.606 1443.53 863.225C1446.04 864.844 1448.95 865.654 1452.25 865.654C1454.11 865.654 1455.82 865.409 1457.4 864.919C1459 864.429 1460.41 863.715 1461.65 862.778C1462.88 861.819 1463.91 860.658 1464.72 859.294C1465.55 857.93 1466.12 856.375 1466.44 854.628L1480.44 854.692C1480.08 857.696 1479.17 860.594 1477.72 863.385C1476.3 866.155 1474.37 868.637 1471.94 870.832C1469.53 873.005 1466.66 874.731 1463.31 876.009C1459.99 877.266 1456.23 877.895 1452.03 877.895C1446.19 877.895 1440.97 876.574 1436.37 873.932C1431.79 871.29 1428.16 867.465 1425.5 862.458C1422.86 857.451 1421.54 851.389 1421.54 844.273C1421.54 837.135 1422.88 831.062 1425.57 826.055C1428.25 821.048 1431.89 817.234 1436.5 814.614C1441.1 811.972 1446.28 810.651 1452.03 810.651C1455.82 810.651 1459.34 811.183 1462.58 812.249C1465.84 813.314 1468.72 814.869 1471.24 816.915C1473.75 818.939 1475.8 821.421 1477.37 824.362C1478.97 827.302 1479.99 830.668 1480.44 834.461Z" fill="white"/>
<path d="M1456.69 1599V1533.55H1482.9C1487.71 1533.55 1491.73 1534.26 1494.95 1535.69C1498.16 1537.11 1500.58 1539.1 1502.2 1541.63C1503.82 1544.15 1504.63 1547.04 1504.63 1550.32C1504.63 1552.88 1504.12 1555.13 1503.1 1557.07C1502.07 1558.99 1500.67 1560.56 1498.88 1561.8C1497.11 1563.01 1495.08 1563.88 1492.8 1564.39V1565.03C1495.3 1565.13 1497.63 1565.84 1499.8 1567.14C1502 1568.44 1503.78 1570.26 1505.14 1572.6C1506.5 1574.92 1507.19 1577.69 1507.19 1580.91C1507.19 1584.38 1506.32 1587.48 1504.6 1590.21C1502.89 1592.92 1500.37 1595.06 1497.02 1596.63C1493.68 1598.21 1489.55 1599 1484.65 1599H1456.69ZM1470.53 1587.69H1481.81C1485.67 1587.69 1488.48 1586.95 1490.25 1585.48C1492.02 1583.99 1492.9 1582.01 1492.9 1579.54C1492.9 1577.73 1492.46 1576.13 1491.59 1574.74C1490.72 1573.36 1489.47 1572.27 1487.85 1571.48C1486.25 1570.69 1484.35 1570.3 1482.13 1570.3H1470.53V1587.69ZM1470.53 1560.94H1480.79C1482.68 1560.94 1484.37 1560.61 1485.84 1559.94C1487.33 1559.26 1488.5 1558.3 1489.35 1557.07C1490.23 1555.83 1490.66 1554.35 1490.66 1552.63C1490.66 1550.26 1489.82 1548.35 1488.14 1546.9C1486.48 1545.46 1484.11 1544.73 1481.04 1544.73H1470.53V1560.94Z" fill="white"/>
<line x1="620" y1="1473" x2="1421" y2="1473" stroke="#5EB2E7" stroke-width="12" stroke-linecap="round"/>
<line x1="615.869" y1="1471.78" x2="1421.28" y2="926.131" stroke="#EF6AA9" stroke-width="14" stroke-linecap="round"/>
<g filter="url(#filter0_d_39_298)">
<line x1="1429" y1="1472" x2="1429" y2="925" stroke="#FFB84D" stroke-width="14" stroke-linecap="round"/>
</g>
<defs>
<filter id="filter0_d_39_298" x="1418" y="918" width="22" height="569" filterUnits="userSpaceOnUse" color-interpolation-filters="sRGB">
<feFlood flood-opacity="0" result="BackgroundImageFix"/>
<feColorMatrix in="SourceAlpha" type="matrix" values="0 0 0 0 0 0 0 0 0 0 0 0 0 0 0 0 0 0 127 0" result="hardAlpha"/>
<feOffset dy="4"/>
<feGaussianBlur stdDeviation="2"/>
<feComposite in2="hardAlpha" operator="out"/>
<feColorMatrix type="matrix" values="0 0 0 0 0 0 0 0 0 0 0 0 0 0 0 0 0 0 0.25 0"/>
<feBlend mode="normal" in2="BackgroundImageFix" result="effect1_dropShadow_39_298"/>
<feBlend mode="normal" in="SourceGraphic" in2="effect1_dropShadow_39_298" result="shape"/>
</filter>
</defs>
</svg>
