<svg width="2375" height="1753" viewBox="0 0 2375 1753" fill="none" xmlns="http://www.w3.org/2000/svg">
<style>
.pulse-rect {
  animation: rectPulse 2s ease-in-out infinite;
}

@keyframes rectPulse {
  0% {
    width: 552px;
    <!-- x: 1429px; -->
  }

  50% {
    width: 0px;
    <!-- x: 1705px;   /* 1429 + (552 / 2) */ -->
  }

  100% {
    width: 552px;
    <!-- x: 1429px; -->
  }
}

.moveLeft {
  transform-box: fill-box;
  transform-origin: center;
  animation: moveLeft 2s ease-in-out infinite;
}

@keyframes moveLeft {
  
  0% {
    transform: translateX(0px);
    <!-- x: 1429px; -->
  }

  50% {
    transform: translateX(-552px);
    <!-- x: 1705px;   /* 1429 + (552 / 2) */ -->
  }

  100% {
    transform: translateX(0px);
    <!-- x: 1429px; -->
  }
}

</style>
<path d="M1427.46 1474.25H620.003L1427.46 925.554V1474.25Z" fill="#58D98B" fill-opacity="0.2" stroke="#5EB2E7" stroke-width="8"/>
<rect opacity="0.3" x="67.5569" y="664.346" width="977.767" height="977" transform="rotate(-34.2144 67.5569 664.346)" fill="#4A283B" fill-opacity="0.7" stroke="#EF6AA9" stroke-width="8"/>
<rect class="pulse-rect" x="1429" y="922" width="552" height="552" fill="#F4B75D" fill-opacity="0.4" stroke="#FFB84D" stroke-width="8"/>
<path d="M2058.24 921.757C2055.9 919.414 2052.1 919.414 2049.76 921.757L2011.57 959.941C2009.23 962.284 2009.23 966.083 2011.57 968.426C2013.92 970.77 2017.72 970.77 2020.06 968.426L2054 934.485L2087.94 968.426C2090.28 970.77 2094.08 970.77 2096.43 968.426C2098.77 966.083 2098.77 962.284 2096.43 959.941L2058.24 921.757ZM2049.76 1482.24C2052.1 1484.59 2055.9 1484.59 2058.24 1482.24L2096.43 1444.06C2098.77 1441.72 2098.77 1437.92 2096.43 1435.57C2094.08 1433.23 2090.28 1433.23 2087.94 1435.57L2054 1469.51L2020.06 1435.57C2017.72 1433.23 2013.92 1433.23 2011.57 1435.57C2009.23 1437.92 2009.23 1441.72 2011.57 1444.06L2049.76 1482.24ZM2054 926H2048V1478H2054H2060V926H2054Z" class="moveLeft" fill="#ffffff"/>
<path d="M614.75 1528.26C612.407 1530.6 612.407 1534.4 614.75 1536.74L652.933 1574.93C655.277 1577.27 659.076 1577.27 661.419 1574.93C663.762 1572.58 663.762 1568.78 661.419 1566.44L627.478 1532.5L661.419 1498.56C663.762 1496.22 663.762 1492.42 661.419 1490.07C659.076 1487.73 655.277 1487.73 652.933 1490.07L614.75 1528.26ZM1435.25 1536.74C1437.59 1534.4 1437.59 1530.6 1435.25 1528.26L1397.07 1490.07C1394.72 1487.73 1390.92 1487.73 1388.58 1490.07C1386.24 1492.42 1386.24 1496.22 1388.58 1498.56L1422.52 1532.5L1388.58 1566.44C1386.24 1568.78 1386.24 1572.58 1388.58 1574.93C1390.92 1577.27 1394.72 1577.27 1397.07 1574.93L1435.25 1536.74ZM618.992 1532.5V1538.5H1431.01V1532.5V1526.5H618.992V1532.5Z" fill="white"/>
<rect x="1366" y="1413" width="59" height="58" fill="#D9D9D9"/>
<path d="M2132.8 1241L2165.33 1176.65V1176.09H2127.83V1168.27H2174.42V1176.51L2142.03 1241H2132.8ZM2238.08 1242.14C2232.97 1242.14 2228.57 1240.93 2224.87 1238.51C2221.18 1236.1 2218.34 1232.77 2216.35 1228.54C2214.36 1224.3 2213.37 1219.46 2213.37 1214.01C2213.37 1208.47 2214.39 1203.58 2216.42 1199.35C2218.48 1195.08 2221.35 1191.76 2225.02 1189.37C2228.71 1186.95 2233.02 1185.74 2237.94 1185.74C2241.78 1185.74 2245.23 1186.45 2248.31 1187.88C2251.39 1189.3 2253.91 1191.28 2255.87 1193.84C2257.84 1196.4 2259.06 1199.38 2259.53 1202.79H2251.15C2250.51 1200.3 2249.09 1198.1 2246.89 1196.18C2244.71 1194.24 2241.78 1193.27 2238.08 1193.27C2234.82 1193.27 2231.95 1194.12 2229.49 1195.83C2227.05 1197.51 2225.15 1199.89 2223.77 1202.97C2222.42 1206.02 2221.75 1209.61 2221.75 1213.73C2221.75 1217.94 2222.41 1221.61 2223.74 1224.74C2225.09 1227.86 2226.98 1230.29 2229.42 1232.02C2231.88 1233.74 2234.77 1234.61 2238.08 1234.61C2240.26 1234.61 2242.24 1234.23 2244.01 1233.47C2245.79 1232.71 2247.29 1231.62 2248.52 1230.2C2249.75 1228.78 2250.63 1227.08 2251.15 1225.09H2259.53C2259.06 1228.31 2257.89 1231.21 2256.02 1233.79C2254.17 1236.35 2251.72 1238.38 2248.67 1239.9C2245.64 1241.39 2242.11 1242.14 2238.08 1242.14ZM2271.78 1241V1186.45H2279.88V1194.98H2280.59C2281.73 1192.07 2283.56 1189.8 2286.09 1188.19C2288.63 1186.56 2291.67 1185.74 2295.22 1185.74C2298.82 1185.74 2301.81 1186.56 2304.21 1188.19C2306.62 1189.8 2308.5 1192.07 2309.85 1194.98H2310.42C2311.82 1192.16 2313.91 1189.92 2316.71 1188.27C2319.5 1186.58 2322.85 1185.74 2326.76 1185.74C2331.63 1185.74 2335.62 1187.27 2338.72 1190.33C2341.82 1193.36 2343.37 1198.08 2343.37 1204.49V1241H2334.99V1204.49C2334.99 1200.47 2333.89 1197.59 2331.69 1195.87C2329.49 1194.14 2326.9 1193.27 2323.91 1193.27C2320.08 1193.27 2317.11 1194.43 2315 1196.75C2312.89 1199.05 2311.84 1201.96 2311.84 1205.49V1241H2303.32V1203.64C2303.32 1200.54 2302.31 1198.04 2300.3 1196.15C2298.29 1194.23 2295.69 1193.27 2292.52 1193.27C2290.34 1193.27 2288.31 1193.85 2286.41 1195.01C2284.54 1196.17 2283.03 1197.78 2281.87 1199.84C2280.73 1201.88 2280.16 1204.23 2280.16 1206.91V1241H2271.78Z" class="moveLeft" fill="#FFB84D"/>
<path d="M963.722 1636.28C960.265 1636.28 957.128 1635.63 954.311 1634.33C951.494 1633 949.257 1631.09 947.599 1628.61C945.942 1626.1 945.114 1623.07 945.114 1619.52C945.114 1616.39 945.729 1613.86 946.96 1611.92C948.191 1609.95 949.837 1608.41 951.896 1607.3C953.956 1606.19 956.229 1605.36 958.714 1604.82C961.224 1604.25 963.745 1603.8 966.278 1603.47C969.593 1603.04 972.28 1602.72 974.339 1602.51C976.423 1602.27 977.938 1601.88 978.885 1601.34C979.856 1600.79 980.341 1599.84 980.341 1598.49V1598.21C980.341 1594.71 979.382 1591.98 977.464 1590.04C975.571 1588.1 972.694 1587.13 968.835 1587.13C964.834 1587.13 961.697 1588.01 959.425 1589.76C957.152 1591.51 955.554 1593.38 954.631 1595.37L946.676 1592.53C948.097 1589.21 949.991 1586.63 952.358 1584.79C954.749 1582.92 957.353 1581.61 960.17 1580.88C963.011 1580.12 965.805 1579.74 968.551 1579.74C970.303 1579.74 972.315 1579.96 974.588 1580.38C976.884 1580.79 979.098 1581.63 981.229 1582.9C983.383 1584.18 985.17 1586.11 986.591 1588.69C988.011 1591.27 988.722 1594.73 988.722 1599.06V1635H980.341V1627.61H979.915C979.347 1628.8 978.4 1630.06 977.074 1631.41C975.748 1632.76 973.984 1633.91 971.783 1634.86C969.581 1635.8 966.894 1636.28 963.722 1636.28ZM965 1628.75C968.314 1628.75 971.108 1628.1 973.381 1626.8C975.677 1625.49 977.405 1623.81 978.565 1621.75C979.749 1619.69 980.341 1617.53 980.341 1615.26V1607.59C979.986 1608.01 979.205 1608.4 977.997 1608.76C976.813 1609.09 975.44 1609.38 973.878 1609.64C972.339 1609.88 970.836 1610.09 969.368 1610.28C967.924 1610.45 966.752 1610.59 965.852 1610.71C963.674 1610.99 961.638 1611.46 959.744 1612.1C957.874 1612.71 956.359 1613.65 955.199 1614.9C954.063 1616.13 953.494 1617.81 953.494 1619.94C953.494 1622.86 954.571 1625.06 956.726 1626.55C958.904 1628.02 961.662 1628.75 965 1628.75ZM1035.55 1591.96V1584.29H1079.3V1591.96H1035.55ZM1035.55 1612.98V1605.31H1079.3V1612.98H1035.55ZM1137.12 1614.55V1614.12C1137.17 1609.6 1137.64 1606 1138.54 1603.32C1139.44 1600.65 1140.72 1598.48 1142.38 1596.83C1144.04 1595.17 1146.03 1593.64 1148.35 1592.24C1149.74 1591.39 1151 1590.39 1152.11 1589.23C1153.22 1588.04 1154.1 1586.68 1154.74 1585.14C1155.4 1583.6 1155.73 1581.9 1155.73 1580.03C1155.73 1577.71 1155.19 1575.7 1154.1 1573.99C1153.01 1572.29 1151.55 1570.97 1149.73 1570.05C1147.91 1569.13 1145.88 1568.66 1143.66 1568.66C1141.72 1568.66 1139.85 1569.07 1138.05 1569.87C1136.25 1570.68 1134.74 1571.94 1133.54 1573.67C1132.33 1575.4 1131.63 1577.66 1131.44 1580.45H1122.49C1122.68 1576.43 1123.72 1572.99 1125.62 1570.12C1127.54 1567.26 1130.06 1565.07 1133.18 1563.55C1136.33 1562.04 1139.82 1561.28 1143.66 1561.28C1147.82 1561.28 1151.45 1562.11 1154.52 1563.76C1157.63 1565.42 1160.02 1567.69 1161.7 1570.58C1163.4 1573.47 1164.25 1576.76 1164.25 1580.45C1164.25 1583.06 1163.85 1585.41 1163.05 1587.52C1162.27 1589.63 1161.13 1591.51 1159.64 1593.17C1158.17 1594.82 1156.39 1596.29 1154.31 1597.57C1152.23 1598.87 1150.56 1600.25 1149.3 1601.69C1148.05 1603.11 1147.14 1604.8 1146.57 1606.77C1146 1608.73 1145.69 1611.18 1145.65 1614.12V1614.55H1137.12ZM1141.67 1635.57C1139.92 1635.57 1138.41 1634.94 1137.16 1633.69C1135.9 1632.43 1135.28 1630.93 1135.28 1629.18C1135.28 1627.42 1135.9 1625.92 1137.16 1624.67C1138.41 1623.41 1139.92 1622.78 1141.67 1622.78C1143.42 1622.78 1144.92 1623.41 1146.18 1624.67C1147.43 1625.92 1148.06 1627.42 1148.06 1629.18C1148.06 1630.34 1147.77 1631.4 1147.17 1632.37C1146.61 1633.34 1145.84 1634.12 1144.87 1634.72C1143.92 1635.28 1142.85 1635.57 1141.67 1635.57Z" fill="#5EB2E7"/>
<path d="M533.971 1507H519.141L541.737 1441.55H559.571L582.135 1507H567.305L550.91 1456.5H550.398L533.971 1507ZM533.044 1481.27H568.072V1492.07H533.044V1481.27Z" fill="white"/>
<path d="M1480.44 834.461H1466.44C1466.19 832.65 1465.66 831.041 1464.88 829.635C1464.09 828.207 1463.08 826.993 1461.84 825.991C1460.6 824.99 1459.18 824.223 1457.56 823.69C1455.96 823.158 1454.22 822.891 1452.35 822.891C1448.96 822.891 1446.01 823.733 1443.5 825.416C1440.98 827.078 1439.03 829.507 1437.65 832.703C1436.26 835.878 1435.57 839.734 1435.57 844.273C1435.57 848.939 1436.26 852.859 1437.65 856.034C1439.05 859.209 1441.01 861.606 1443.53 863.225C1446.04 864.844 1448.95 865.654 1452.25 865.654C1454.11 865.654 1455.82 865.409 1457.4 864.919C1459 864.429 1460.41 863.715 1461.65 862.778C1462.88 861.819 1463.91 860.658 1464.72 859.294C1465.55 857.93 1466.12 856.375 1466.44 854.628L1480.44 854.692C1480.08 857.696 1479.17 860.594 1477.72 863.385C1476.3 866.155 1474.37 868.637 1471.94 870.832C1469.53 873.005 1466.66 874.731 1463.31 876.009C1459.99 877.266 1456.23 877.895 1452.03 877.895C1446.19 877.895 1440.97 876.574 1436.37 873.932C1431.79 871.29 1428.16 867.465 1425.5 862.458C1422.86 857.451 1421.54 851.389 1421.54 844.273C1421.54 837.135 1422.88 831.062 1425.57 826.055C1428.25 821.048 1431.89 817.234 1436.5 814.614C1441.1 811.972 1446.28 810.651 1452.03 810.651C1455.82 810.651 1459.34 811.183 1462.58 812.249C1465.84 813.314 1468.72 814.869 1471.24 816.915C1473.75 818.939 1475.8 821.421 1477.37 824.362C1478.97 827.302 1479.99 830.668 1480.44 834.461Z" fill="white"/>
<path d="M1456.69 1599V1533.55H1482.9C1487.71 1533.55 1491.73 1534.26 1494.95 1535.69C1498.16 1537.11 1500.58 1539.1 1502.2 1541.63C1503.82 1544.15 1504.63 1547.04 1504.63 1550.32C1504.63 1552.88 1504.12 1555.13 1503.1 1557.07C1502.07 1558.99 1500.67 1560.56 1498.88 1561.8C1497.11 1563.01 1495.08 1563.88 1492.8 1564.39V1565.03C1495.3 1565.13 1497.63 1565.84 1499.8 1567.14C1502 1568.44 1503.78 1570.26 1505.14 1572.6C1506.5 1574.92 1507.19 1577.69 1507.19 1580.91C1507.19 1584.38 1506.32 1587.48 1504.6 1590.21C1502.89 1592.92 1500.37 1595.06 1497.02 1596.63C1493.68 1598.21 1489.55 1599 1484.65 1599H1456.69ZM1470.53 1587.69H1481.81C1485.67 1587.69 1488.48 1586.95 1490.25 1585.48C1492.02 1583.99 1492.9 1582.01 1492.9 1579.54C1492.9 1577.73 1492.46 1576.13 1491.59 1574.74C1490.72 1573.36 1489.47 1572.27 1487.85 1571.48C1486.25 1570.69 1484.35 1570.3 1482.13 1570.3H1470.53V1587.69ZM1470.53 1560.94H1480.79C1482.68 1560.94 1484.37 1560.61 1485.84 1559.94C1487.33 1559.26 1488.5 1558.3 1489.35 1557.07C1490.23 1555.83 1490.66 1554.35 1490.66 1552.63C1490.66 1550.26 1489.82 1548.35 1488.14 1546.9C1486.48 1545.46 1484.11 1544.73 1481.04 1544.73H1470.53V1560.94Z" fill="white"/>
<line x1="620" y1="1473" x2="1421" y2="1473" stroke="#5EB2E7" stroke-width="12" stroke-linecap="round"/>
<line x1="615.869" y1="1471.78" x2="1421.28" y2="926.131" stroke="#EF6AA9" stroke-width="14" stroke-linecap="round"/>
<g filter="url(#filter0_d_53_368)">
<line x1="1429" y1="1472" x2="1429" y2="925" stroke="#FFB84D" stroke-width="14" stroke-linecap="round"/>
</g>
<defs>
<filter id="filter0_d_53_368" x="1418" y="918" width="22" height="569" filterUnits="userSpaceOnUse" color-interpolation-filters="sRGB">
<feFlood flood-opacity="0" result="BackgroundImageFix"/>
<feColorMatrix in="SourceAlpha" type="matrix" values="0 0 0 0 0 0 0 0 0 0 0 0 0 0 0 0 0 0 127 0" result="hardAlpha"/>
<feOffset dy="4"/>
<feGaussianBlur stdDeviation="2"/>
<feComposite in2="hardAlpha" operator="out"/>
<feColorMatrix type="matrix" values="0 0 0 0 0 0 0 0 0 0 0 0 0 0 0 0 0 0 0.25 0"/>
<feBlend mode="normal" in2="BackgroundImageFix" result="effect1_dropShadow_53_368"/>
<feBlend mode="normal" in="SourceGraphic" in2="effect1_dropShadow_53_368" result="shape"/>
</filter>
</defs>
</svg>
