<svg width="405" height="68" viewBox="0 0 405 68" fill="none" xmlns="http://www.w3.org/2000/svg">
<path d="M400.318 0H4.5C0.0819998 0 0 0.0819998 0 4.5V60C0 64.418 3.582 68 8 68H396C400.418 68 404 64.418 404 60V6.5C404 2.082 404.736 0 400.318 0ZM19 40C15.686 40 13 37.314 13 34C13 30.686 15.686 28 19 28C22.314 28 25 30.686 25 34C25 37.314 22.314 40 19 40Z" fill="url(#paint0_linear_16_3)"/>
<path d="M19 41C22.314 41 25 38.314 25 35C25 34.832 24.993 34.665 24.979 34.5C24.725 37.58 22.145 40 19 40C15.855 40 13.275 37.58 13.021 34.5C13.007 34.665 13 34.832 13 35C13 38.314 15.686 41 19 41Z" fill="url(#paint1_linear_16_3)"/>
<path d="M19 27C22.314 27 25 29.686 25 33C25 33.168 24.993 33.335 24.979 33.5C24.725 30.42 22.145 28 19 28C15.855 28 13.275 30.42 13.021 33.5C13.007 33.335 13 33.168 13 33C13 29.686 15.686 27 19 27Z" fill="url(#paint2_linear_16_3)"/>
<path d="M396 0H8C3.582 0 0 3.582 0 8V9C0 4.582 3.582 1 8 1H396C400.418 1 404 4.582 404 9V8C404 3.582 400.418 0 396 0Z" fill="url(#paint3_linear_16_3)"/>
<path d="M396 68H8C3.582 68 0 64.418 0 60V59C0 63.418 3.582 67 8 67H396C400.418 67 404 63.418 404 59V60C404 64.418 400.418 68 396 68Z" fill="url(#paint4_linear_16_3)"/>
<path d="M369.952 13.25C369.814 13.25 369.702 13.138 369.702 13V1C369.702 0.862 369.814 0.75 369.952 0.75C370.09 0.75 370.202 0.862 370.202 1V13C370.202 13.138 370.09 13.25 369.952 13.25Z" fill="#282A36"/>
<path d="M350.952 13.25C350.814 13.25 350.702 13.138 350.702 13V1C350.702 0.862 350.814 0.75 350.952 0.75C351.09 0.75 351.202 0.862 351.202 1V13C351.202 13.138 351.09 13.25 350.952 13.25Z" fill="#282A36"/>
<path d="M388.952 13.25C388.814 13.25 388.702 13.138 388.702 13V1C388.702 0.862 388.814 0.75 388.952 0.75C389.09 0.75 389.202 0.862 389.202 1V13C389.202 13.138 389.09 13.25 388.952 13.25Z" fill="#282A36"/>
<path d="M331.952 13.25C331.814 13.25 331.702 13.138 331.702 13V1C331.702 0.862 331.814 0.75 331.952 0.75C332.09 0.75 332.202 0.862 332.202 1V13C332.202 13.138 332.09 13.25 331.952 13.25Z" fill="#282A36"/>
<path d="M312.952 13.25C312.814 13.25 312.702 13.138 312.702 13V1C312.702 0.862 312.814 0.75 312.952 0.75C313.09 0.75 313.202 0.862 313.202 1V13C313.202 13.138 313.09 13.25 312.952 13.25Z" fill="#282A36"/>
<path d="M293.952 13.25C293.814 13.25 293.702 13.138 293.702 13V1C293.702 0.862 293.814 0.75 293.952 0.75C294.09 0.75 294.202 0.862 294.202 1V13C294.202 13.138 294.09 13.25 293.952 13.25Z" fill="#282A36"/>
<path d="M274.952 13.25C274.814 13.25 274.702 13.138 274.702 13V1C274.702 0.862 274.814 0.75 274.952 0.75C275.09 0.75 275.202 0.862 275.202 1V13C275.202 13.138 275.09 13.25 274.952 13.25Z" fill="#282A36"/>
<path d="M255.952 13.25C255.814 13.25 255.702 13.138 255.702 13V1C255.702 0.862 255.814 0.75 255.952 0.75C256.09 0.75 256.202 0.862 256.202 1V13C256.202 13.138 256.09 13.25 255.952 13.25Z" fill="#282A36"/>
<path d="M236.952 13.25C236.814 13.25 236.702 13.138 236.702 13V1C236.702 0.862 236.814 0.75 236.952 0.75C237.09 0.75 237.202 0.862 237.202 1V13C237.202 13.138 237.09 13.25 236.952 13.25Z" fill="#282A36"/>
<path d="M217.952 13.25C217.814 13.25 217.702 13.138 217.702 13V1C217.702 0.862 217.814 0.75 217.952 0.75C218.09 0.75 218.202 0.862 218.202 1V13C218.202 13.138 218.09 13.25 217.952 13.25Z" fill="#282A36"/>
<path d="M198.953 13.25C198.815 13.25 198.703 13.138 198.703 13V1C198.703 0.862 198.815 0.75 198.953 0.75C199.091 0.75 199.203 0.862 199.203 1V13C199.203 13.138 199.091 13.25 198.953 13.25Z" fill="#282A36"/>
<path d="M179.953 13.25C179.815 13.25 179.703 13.138 179.703 13V1C179.703 0.862 179.815 0.75 179.953 0.75C180.091 0.75 180.203 0.862 180.203 1V13C180.203 13.138 180.091 13.25 179.953 13.25Z" fill="#282A36"/>
<path d="M160.953 13.25C160.815 13.25 160.703 13.138 160.703 13V1C160.703 0.862 160.815 0.75 160.953 0.75C161.091 0.75 161.203 0.862 161.203 1V13C161.203 13.138 161.091 13.25 160.953 13.25Z" fill="#282A36"/>
<path d="M141.953 13.25C141.815 13.25 141.703 13.138 141.703 13V1C141.703 0.862 141.815 0.75 141.953 0.75C142.091 0.75 142.203 0.862 142.203 1V13C142.203 13.138 142.091 13.25 141.953 13.25Z" fill="#282A36"/>
<path d="M122.953 13.25C122.815 13.25 122.703 13.138 122.703 13V1C122.703 0.862 122.815 0.75 122.953 0.75C123.091 0.75 123.203 0.862 123.203 1V13C123.203 13.138 123.091 13.25 122.953 13.25Z" fill="#282A36"/>
<path d="M103.953 13.25C103.815 13.25 103.703 13.138 103.703 13V1C103.703 0.862 103.815 0.75 103.953 0.75C104.091 0.75 104.203 0.862 104.203 1V13C104.203 13.138 104.091 13.25 103.953 13.25Z" fill="#282A36"/>
<path d="M84.953 13.25C84.815 13.25 84.703 13.138 84.703 13V1C84.703 0.862 84.815 0.75 84.953 0.75C85.091 0.75 85.203 0.862 85.203 1V13C85.203 13.138 85.091 13.25 84.953 13.25Z" fill="#282A36"/>
<path d="M65.953 13.25C65.815 13.25 65.703 13.138 65.703 13V1C65.703 0.862 65.815 0.75 65.953 0.75C66.091 0.75 66.203 0.862 66.203 1V13C66.203 13.138 66.091 13.25 65.953 13.25Z" fill="#282A36"/>
<path d="M46.953 13.25C46.815 13.25 46.703 13.138 46.703 13V1C46.703 0.862 46.815 0.75 46.953 0.75C47.091 0.75 47.203 0.862 47.203 1V13C47.203 13.138 47.091 13.25 46.953 13.25Z" fill="#282A36"/>
<path d="M27.953 13.25C27.815 13.25 27.703 13.138 27.703 13V1C27.703 0.862 27.815 0.75 27.953 0.75C28.091 0.75 28.203 0.862 28.203 1V13C28.203 13.138 28.091 13.25 27.953 13.25Z" fill="#282A36"/>
<path d="M8.952 13.25C8.814 13.25 8.702 13.138 8.702 13V1C8.702 0.862 8.814 0.75 8.952 0.75C9.09 0.75 9.202 0.862 9.202 1V13C9.202 13.138 9.09 13.25 8.952 13.25Z" fill="#282A36"/>
<path d="M10.853 7.25C10.715 7.25 10.603 7.138 10.603 7V1C10.603 0.862 10.715 0.75 10.853 0.75C10.991 0.75 11.103 0.862 11.103 1V7C11.103 7.138 10.991 7.25 10.853 7.25Z" fill="#282A36"/>
<path d="M12.752 7.25C12.614 7.25 12.502 7.138 12.502 7V1C12.502 0.862 12.614 0.75 12.752 0.75C12.89 0.75 13.002 0.862 13.002 1V7C13.002 7.138 12.891 7.25 12.752 7.25Z" fill="#282A36"/>
<path d="M14.652 7.25C14.514 7.25 14.402 7.138 14.402 7V1C14.402 0.862 14.514 0.75 14.652 0.75C14.79 0.75 14.902 0.862 14.902 1V7C14.902 7.138 14.791 7.25 14.652 7.25Z" fill="#282A36"/>
<path d="M16.552 7.25C16.414 7.25 16.302 7.138 16.302 7V1C16.302 0.862 16.414 0.75 16.552 0.75C16.69 0.75 16.802 0.862 16.802 1V7C16.802 7.138 16.69 7.25 16.552 7.25Z" fill="#282A36"/>
<path d="M18.453 13.25C18.315 13.25 18.203 13.138 18.203 13V1C18.203 0.862 18.315 0.75 18.453 0.75C18.591 0.75 18.703 0.862 18.703 1V13C18.703 13.138 18.591 13.25 18.453 13.25Z" fill="#282A36"/>
<path d="M20.353 7.25C20.215 7.25 20.103 7.138 20.103 7V1C20.103 0.862 20.215 0.75 20.353 0.75C20.491 0.75 20.603 0.862 20.603 1V7C20.603 7.138 20.491 7.25 20.353 7.25Z" fill="#282A36"/>
<path d="M22.252 7.25C22.114 7.25 22.002 7.138 22.002 7V1C22.002 0.862 22.114 0.75 22.252 0.75C22.39 0.75 22.502 0.862 22.502 1V7C22.502 7.138 22.391 7.25 22.252 7.25Z" fill="#282A36"/>
<path d="M24.152 7.25C24.014 7.25 23.902 7.138 23.902 7V1C23.902 0.862 24.014 0.75 24.152 0.75C24.29 0.75 24.402 0.862 24.402 1V7C24.402 7.138 24.291 7.25 24.152 7.25Z" fill="#282A36"/>
<path d="M26.052 7.25C25.914 7.25 25.802 7.138 25.802 7V1C25.802 0.862 25.914 0.75 26.052 0.75C26.19 0.75 26.302 0.862 26.302 1V7C26.302 7.138 26.19 7.25 26.052 7.25Z" fill="#282A36"/>
<path d="M29.853 7.25C29.715 7.25 29.603 7.138 29.603 7V1C29.603 0.862 29.715 0.75 29.853 0.75C29.991 0.75 30.103 0.862 30.103 1V7C30.103 7.138 29.991 7.25 29.853 7.25Z" fill="#282A36"/>
<path d="M31.752 7.25C31.614 7.25 31.502 7.138 31.502 7V1C31.502 0.862 31.614 0.75 31.752 0.75C31.89 0.75 32.002 0.862 32.002 1V7C32.002 7.138 31.891 7.25 31.752 7.25Z" fill="#282A36"/>
<path d="M33.652 7.25C33.514 7.25 33.402 7.138 33.402 7V1C33.402 0.862 33.514 0.75 33.652 0.75C33.79 0.75 33.902 0.862 33.902 1V7C33.902 7.138 33.791 7.25 33.652 7.25Z" fill="#282A36"/>
<path d="M35.552 7.25C35.414 7.25 35.302 7.138 35.302 7V1C35.302 0.862 35.414 0.75 35.552 0.75C35.69 0.75 35.802 0.862 35.802 1V7C35.802 7.138 35.69 7.25 35.552 7.25Z" fill="#282A36"/>
<path d="M37.453 13.25C37.315 13.25 37.203 13.138 37.203 13V1C37.203 0.862 37.315 0.75 37.453 0.75C37.591 0.75 37.703 0.862 37.703 1V13C37.703 13.138 37.591 13.25 37.453 13.25Z" fill="#282A36"/>
<path d="M39.353 7.25C39.215 7.25 39.103 7.138 39.103 7V1C39.103 0.862 39.215 0.75 39.353 0.75C39.491 0.75 39.603 0.862 39.603 1V7C39.603 7.138 39.491 7.25 39.353 7.25Z" fill="#282A36"/>
<path d="M41.252 7.25C41.114 7.25 41.002 7.138 41.002 7V1C41.002 0.862 41.114 0.75 41.252 0.75C41.39 0.75 41.502 0.862 41.502 1V7C41.502 7.138 41.391 7.25 41.252 7.25Z" fill="#282A36"/>
<path d="M43.152 7.25C43.014 7.25 42.902 7.138 42.902 7V1C42.902 0.862 43.014 0.75 43.152 0.75C43.29 0.75 43.402 0.862 43.402 1V7C43.402 7.138 43.29 7.25 43.152 7.25Z" fill="#282A36"/>
<path d="M45.052 7.25C44.914 7.25 44.802 7.138 44.802 7V1C44.802 0.862 44.914 0.75 45.052 0.75C45.19 0.75 45.302 0.862 45.302 1V7C45.302 7.138 45.19 7.25 45.052 7.25Z" fill="#282A36"/>
<path d="M48.853 7.25C48.715 7.25 48.603 7.138 48.603 7V1C48.603 0.862 48.715 0.75 48.853 0.75C48.991 0.75 49.103 0.862 49.103 1V7C49.103 7.138 48.991 7.25 48.853 7.25Z" fill="#282A36"/>
<path d="M50.752 7.25C50.614 7.25 50.502 7.138 50.502 7V1C50.502 0.862 50.614 0.75 50.752 0.75C50.89 0.75 51.002 0.862 51.002 1V7C51.002 7.138 50.891 7.25 50.752 7.25Z" fill="#282A36"/>
<path d="M52.652 7.25C52.514 7.25 52.402 7.138 52.402 7V1C52.402 0.862 52.514 0.75 52.652 0.75C52.79 0.75 52.902 0.862 52.902 1V7C52.902 7.138 52.79 7.25 52.652 7.25Z" fill="#282A36"/>
<path d="M54.552 7.25C54.414 7.25 54.302 7.138 54.302 7V1C54.302 0.862 54.414 0.75 54.552 0.75C54.69 0.75 54.802 0.862 54.802 1V7C54.802 7.138 54.69 7.25 54.552 7.25Z" fill="#282A36"/>
<path d="M56.453 13.25C56.315 13.25 56.203 13.138 56.203 13V1C56.203 0.862 56.315 0.75 56.453 0.75C56.591 0.75 56.703 0.862 56.703 1V13C56.703 13.138 56.591 13.25 56.453 13.25Z" fill="#282A36"/>
<path d="M58.353 7.25C58.215 7.25 58.103 7.138 58.103 7V1C58.103 0.862 58.215 0.75 58.353 0.75C58.491 0.75 58.603 0.862 58.603 1V7C58.603 7.138 58.491 7.25 58.353 7.25Z" fill="#282A36"/>
<path d="M60.252 7.25C60.114 7.25 60.002 7.138 60.002 7V1C60.002 0.862 60.114 0.75 60.252 0.75C60.39 0.75 60.502 0.862 60.502 1V7C60.502 7.138 60.391 7.25 60.252 7.25Z" fill="#282A36"/>
<path d="M62.152 7.25C62.014 7.25 61.902 7.138 61.902 7V1C61.902 0.862 62.014 0.75 62.152 0.75C62.29 0.75 62.402 0.862 62.402 1V7C62.402 7.138 62.29 7.25 62.152 7.25Z" fill="#282A36"/>
<path d="M64.052 7.25C63.914 7.25 63.802 7.138 63.802 7V1C63.802 0.862 63.914 0.75 64.052 0.75C64.19 0.75 64.302 0.862 64.302 1V7C64.302 7.138 64.19 7.25 64.052 7.25Z" fill="#282A36"/>
<path d="M67.853 7.25C67.715 7.25 67.603 7.138 67.603 7V1C67.603 0.862 67.715 0.75 67.853 0.75C67.991 0.75 68.103 0.862 68.103 1V7C68.103 7.138 67.991 7.25 67.853 7.25Z" fill="#282A36"/>
<path d="M69.752 7.25C69.614 7.25 69.502 7.138 69.502 7V1C69.502 0.862 69.614 0.75 69.752 0.75C69.89 0.75 70.002 0.862 70.002 1V7C70.002 7.138 69.891 7.25 69.752 7.25Z" fill="#282A36"/>
<path d="M71.652 7.25C71.514 7.25 71.402 7.138 71.402 7V1C71.402 0.862 71.514 0.75 71.652 0.75C71.79 0.75 71.902 0.862 71.902 1V7C71.902 7.138 71.79 7.25 71.652 7.25Z" fill="#282A36"/>
<path d="M73.552 7.25C73.414 7.25 73.302 7.138 73.302 7V1C73.302 0.862 73.414 0.75 73.552 0.75C73.69 0.75 73.802 0.862 73.802 1V7C73.802 7.138 73.69 7.25 73.552 7.25Z" fill="#282A36"/>
<path d="M75.453 13.25C75.315 13.25 75.203 13.138 75.203 13V1C75.203 0.862 75.315 0.75 75.453 0.75C75.591 0.75 75.703 0.862 75.703 1V13C75.703 13.138 75.591 13.25 75.453 13.25Z" fill="#282A36"/>
<path d="M77.353 7.25C77.215 7.25 77.103 7.138 77.103 7V1C77.103 0.862 77.215 0.75 77.353 0.75C77.491 0.75 77.603 0.862 77.603 1V7C77.603 7.138 77.491 7.25 77.353 7.25Z" fill="#282A36"/>
<path d="M79.252 7.25C79.114 7.25 79.002 7.138 79.002 7V1C79.002 0.862 79.114 0.75 79.252 0.75C79.39 0.75 79.502 0.862 79.502 1V7C79.502 7.138 79.391 7.25 79.252 7.25Z" fill="#282A36"/>
<path d="M81.152 7.25C81.014 7.25 80.902 7.138 80.902 7V1C80.902 0.862 81.014 0.75 81.152 0.75C81.29 0.75 81.402 0.862 81.402 1V7C81.402 7.138 81.29 7.25 81.152 7.25Z" fill="#282A36"/>
<path d="M83.052 7.25C82.914 7.25 82.802 7.138 82.802 7V1C82.802 0.862 82.914 0.75 83.052 0.75C83.19 0.75 83.302 0.862 83.302 1V7C83.302 7.138 83.19 7.25 83.052 7.25Z" fill="#282A36"/>
<path d="M86.853 7.25C86.715 7.25 86.603 7.138 86.603 7V1C86.603 0.862 86.715 0.75 86.853 0.75C86.991 0.75 87.103 0.862 87.103 1V7C87.103 7.138 86.991 7.25 86.853 7.25Z" fill="#282A36"/>
<path d="M88.752 7.25C88.614 7.25 88.502 7.138 88.502 7V1C88.502 0.862 88.614 0.75 88.752 0.75C88.89 0.75 89.002 0.862 89.002 1V7C89.002 7.138 88.891 7.25 88.752 7.25Z" fill="#282A36"/>
<path d="M90.652 7.25C90.514 7.25 90.402 7.138 90.402 7V1C90.402 0.862 90.514 0.75 90.652 0.75C90.79 0.75 90.902 0.862 90.902 1V7C90.902 7.138 90.79 7.25 90.652 7.25Z" fill="#282A36"/>
<path d="M92.552 7.25C92.414 7.25 92.302 7.138 92.302 7V1C92.302 0.862 92.414 0.75 92.552 0.75C92.69 0.75 92.802 0.862 92.802 1V7C92.802 7.138 92.69 7.25 92.552 7.25Z" fill="#282A36"/>
<path d="M94.453 13.25C94.315 13.25 94.203 13.138 94.203 13V1C94.203 0.862 94.315 0.75 94.453 0.75C94.591 0.75 94.703 0.862 94.703 1V13C94.703 13.138 94.591 13.25 94.453 13.25Z" fill="#282A36"/>
<path d="M96.352 7.25C96.214 7.25 96.102 7.138 96.102 7V1C96.102 0.862 96.214 0.75 96.352 0.75C96.49 0.75 96.602 0.862 96.602 1V7C96.602 7.138 96.491 7.25 96.352 7.25Z" fill="#282A36"/>
<path d="M98.252 7.25C98.114 7.25 98.002 7.138 98.002 7V1C98.002 0.862 98.114 0.75 98.252 0.75C98.39 0.75 98.502 0.862 98.502 1V7C98.502 7.138 98.391 7.25 98.252 7.25Z" fill="#282A36"/>
<path d="M100.152 7.25C100.014 7.25 99.902 7.138 99.902 7V1C99.902 0.862 100.014 0.75 100.152 0.75C100.29 0.75 100.402 0.862 100.402 1V7C100.402 7.138 100.29 7.25 100.152 7.25Z" fill="#282A36"/>
<path d="M102.052 7.25C101.914 7.25 101.802 7.138 101.802 7V1C101.802 0.862 101.914 0.75 102.052 0.75C102.19 0.75 102.302 0.862 102.302 1V7C102.302 7.138 102.19 7.25 102.052 7.25Z" fill="#282A36"/>
<path d="M105.852 7.25C105.714 7.25 105.602 7.138 105.602 7V1C105.602 0.862 105.714 0.75 105.852 0.75C105.99 0.75 106.102 0.862 106.102 1V7C106.102 7.138 105.991 7.25 105.852 7.25Z" fill="#282A36"/>
<path d="M107.752 7.25C107.614 7.25 107.502 7.138 107.502 7V1C107.502 0.862 107.614 0.75 107.752 0.75C107.89 0.75 108.002 0.862 108.002 1V7C108.002 7.138 107.891 7.25 107.752 7.25Z" fill="#282A36"/>
<path d="M109.652 7.25C109.514 7.25 109.402 7.138 109.402 7V1C109.402 0.862 109.514 0.75 109.652 0.75C109.79 0.75 109.902 0.862 109.902 1V7C109.902 7.138 109.79 7.25 109.652 7.25Z" fill="#282A36"/>
<path d="M111.552 7.25C111.414 7.25 111.302 7.138 111.302 7V1C111.302 0.862 111.414 0.75 111.552 0.75C111.69 0.75 111.802 0.862 111.802 1V7C111.802 7.138 111.69 7.25 111.552 7.25Z" fill="#282A36"/>
<path d="M113.453 13.25C113.315 13.25 113.203 13.138 113.203 13V1C113.203 0.862 113.315 0.75 113.453 0.75C113.591 0.75 113.703 0.862 113.703 1V13C113.703 13.138 113.591 13.25 113.453 13.25Z" fill="#282A36"/>
<path d="M115.352 7.25C115.214 7.25 115.102 7.138 115.102 7V1C115.102 0.862 115.214 0.75 115.352 0.75C115.49 0.75 115.602 0.862 115.602 1V7C115.602 7.138 115.491 7.25 115.352 7.25Z" fill="#282A36"/>
<path d="M117.252 7.25C117.114 7.25 117.002 7.138 117.002 7V1C117.002 0.862 117.114 0.75 117.252 0.75C117.39 0.75 117.502 0.862 117.502 1V7C117.502 7.138 117.391 7.25 117.252 7.25Z" fill="#282A36"/>
<path d="M119.152 7.25C119.014 7.25 118.902 7.138 118.902 7V1C118.902 0.862 119.014 0.75 119.152 0.75C119.29 0.75 119.402 0.862 119.402 1V7C119.402 7.138 119.29 7.25 119.152 7.25Z" fill="#282A36"/>
<path d="M121.052 7.25C120.914 7.25 120.802 7.138 120.802 7V1C120.802 0.862 120.914 0.75 121.052 0.75C121.19 0.75 121.302 0.862 121.302 1V7C121.302 7.138 121.19 7.25 121.052 7.25Z" fill="#282A36"/>
<path d="M124.852 7.25C124.714 7.25 124.602 7.138 124.602 7V1C124.602 0.862 124.714 0.75 124.852 0.75C124.99 0.75 125.102 0.862 125.102 1V7C125.102 7.138 124.991 7.25 124.852 7.25Z" fill="#282A36"/>
<path d="M126.752 7.25C126.614 7.25 126.502 7.138 126.502 7V1C126.502 0.862 126.614 0.75 126.752 0.75C126.89 0.75 127.002 0.862 127.002 1V7C127.002 7.138 126.891 7.25 126.752 7.25Z" fill="#282A36"/>
<path d="M128.652 7.25C128.514 7.25 128.402 7.138 128.402 7V1C128.402 0.862 128.514 0.75 128.652 0.75C128.79 0.75 128.902 0.862 128.902 1V7C128.902 7.138 128.79 7.25 128.652 7.25Z" fill="#282A36"/>
<path d="M130.552 7.25C130.414 7.25 130.302 7.138 130.302 7V1C130.302 0.862 130.414 0.75 130.552 0.75C130.69 0.75 130.802 0.862 130.802 1V7C130.802 7.138 130.69 7.25 130.552 7.25Z" fill="#282A36"/>
<path d="M132.453 13.25C132.315 13.25 132.203 13.138 132.203 13V1C132.203 0.862 132.315 0.75 132.453 0.75C132.591 0.75 132.703 0.862 132.703 1V13C132.703 13.138 132.591 13.25 132.453 13.25Z" fill="#282A36"/>
<path d="M134.352 7.25C134.214 7.25 134.102 7.138 134.102 7V1C134.102 0.862 134.214 0.75 134.352 0.75C134.49 0.75 134.602 0.862 134.602 1V7C134.602 7.138 134.491 7.25 134.352 7.25Z" fill="#282A36"/>
<path d="M136.252 7.25C136.114 7.25 136.002 7.138 136.002 7V1C136.002 0.862 136.114 0.75 136.252 0.75C136.39 0.75 136.502 0.862 136.502 1V7C136.502 7.138 136.391 7.25 136.252 7.25Z" fill="#282A36"/>
<path d="M138.152 7.25C138.014 7.25 137.902 7.138 137.902 7V1C137.902 0.862 138.014 0.75 138.152 0.75C138.29 0.75 138.402 0.862 138.402 1V7C138.402 7.138 138.29 7.25 138.152 7.25Z" fill="#282A36"/>
<path d="M140.052 7.25C139.914 7.25 139.802 7.138 139.802 7V1C139.802 0.862 139.914 0.75 140.052 0.75C140.19 0.75 140.302 0.862 140.302 1V7C140.302 7.138 140.19 7.25 140.052 7.25Z" fill="#282A36"/>
<path d="M143.852 7.25C143.714 7.25 143.602 7.138 143.602 7V1C143.602 0.862 143.714 0.75 143.852 0.75C143.99 0.75 144.102 0.862 144.102 1V7C144.102 7.138 143.991 7.25 143.852 7.25Z" fill="#282A36"/>
<path d="M145.752 7.25C145.614 7.25 145.502 7.138 145.502 7V1C145.502 0.862 145.614 0.75 145.752 0.75C145.89 0.75 146.002 0.862 146.002 1V7C146.002 7.138 145.891 7.25 145.752 7.25Z" fill="#282A36"/>
<path d="M147.652 7.25C147.514 7.25 147.402 7.138 147.402 7V1C147.402 0.862 147.514 0.75 147.652 0.75C147.79 0.75 147.902 0.862 147.902 1V7C147.902 7.138 147.79 7.25 147.652 7.25Z" fill="#282A36"/>
<path d="M149.552 7.25C149.414 7.25 149.302 7.138 149.302 7V1C149.302 0.862 149.414 0.75 149.552 0.75C149.69 0.75 149.802 0.862 149.802 1V7C149.802 7.138 149.69 7.25 149.552 7.25Z" fill="#282A36"/>
<path d="M151.453 13.25C151.315 13.25 151.203 13.138 151.203 13V1C151.203 0.862 151.315 0.75 151.453 0.75C151.591 0.75 151.703 0.862 151.703 1V13C151.703 13.138 151.591 13.25 151.453 13.25Z" fill="#282A36"/>
<path d="M153.352 7.25C153.214 7.25 153.102 7.138 153.102 7V1C153.102 0.862 153.214 0.75 153.352 0.75C153.49 0.75 153.602 0.862 153.602 1V7C153.602 7.138 153.491 7.25 153.352 7.25Z" fill="#282A36"/>
<path d="M155.252 7.25C155.114 7.25 155.002 7.138 155.002 7V1C155.002 0.862 155.114 0.75 155.252 0.75C155.39 0.75 155.502 0.862 155.502 1V7C155.502 7.138 155.391 7.25 155.252 7.25Z" fill="#282A36"/>
<path d="M157.152 7.25C157.014 7.25 156.902 7.138 156.902 7V1C156.902 0.862 157.014 0.75 157.152 0.75C157.29 0.75 157.402 0.862 157.402 1V7C157.402 7.138 157.29 7.25 157.152 7.25Z" fill="#282A36"/>
<path d="M159.052 7.25C158.914 7.25 158.802 7.138 158.802 7V1C158.802 0.862 158.914 0.75 159.052 0.75C159.19 0.75 159.302 0.862 159.302 1V7C159.302 7.138 159.19 7.25 159.052 7.25Z" fill="#282A36"/>
<path d="M162.852 7.25C162.714 7.25 162.602 7.138 162.602 7V1C162.602 0.862 162.714 0.75 162.852 0.75C162.99 0.75 163.102 0.862 163.102 1V7C163.102 7.138 162.991 7.25 162.852 7.25Z" fill="#282A36"/>
<path d="M164.752 7.25C164.614 7.25 164.502 7.138 164.502 7V1C164.502 0.862 164.614 0.75 164.752 0.75C164.89 0.75 165.002 0.862 165.002 1V7C165.002 7.138 164.891 7.25 164.752 7.25Z" fill="#282A36"/>
<path d="M166.652 7.25C166.514 7.25 166.402 7.138 166.402 7V1C166.402 0.862 166.514 0.75 166.652 0.75C166.79 0.75 166.902 0.862 166.902 1V7C166.902 7.138 166.79 7.25 166.652 7.25Z" fill="#282A36"/>
<path d="M168.552 7.25C168.414 7.25 168.302 7.138 168.302 7V1C168.302 0.862 168.414 0.75 168.552 0.75C168.69 0.75 168.802 0.862 168.802 1V7C168.802 7.138 168.69 7.25 168.552 7.25Z" fill="#282A36"/>
<path d="M170.453 13.25C170.315 13.25 170.203 13.138 170.203 13V1C170.203 0.862 170.315 0.75 170.453 0.75C170.591 0.75 170.703 0.862 170.703 1V13C170.703 13.138 170.591 13.25 170.453 13.25Z" fill="#282A36"/>
<path d="M172.352 7.25C172.214 7.25 172.102 7.138 172.102 7V1C172.102 0.862 172.214 0.75 172.352 0.75C172.49 0.75 172.602 0.862 172.602 1V7C172.602 7.138 172.491 7.25 172.352 7.25Z" fill="#282A36"/>
<path d="M174.252 7.25C174.114 7.25 174.002 7.138 174.002 7V1C174.002 0.862 174.114 0.75 174.252 0.75C174.39 0.75 174.502 0.862 174.502 1V7C174.502 7.138 174.391 7.25 174.252 7.25Z" fill="#282A36"/>
<path d="M176.152 7.25C176.014 7.25 175.902 7.138 175.902 7V1C175.902 0.862 176.014 0.75 176.152 0.75C176.29 0.75 176.402 0.862 176.402 1V7C176.402 7.138 176.29 7.25 176.152 7.25Z" fill="#282A36"/>
<path d="M178.052 7.25C177.914 7.25 177.802 7.138 177.802 7V1C177.802 0.862 177.914 0.75 178.052 0.75C178.19 0.75 178.302 0.862 178.302 1V7C178.302 7.138 178.19 7.25 178.052 7.25Z" fill="#282A36"/>
<path d="M181.852 7.25C181.714 7.25 181.602 7.138 181.602 7V1C181.602 0.862 181.714 0.75 181.852 0.75C181.99 0.75 182.102 0.862 182.102 1V7C182.102 7.138 181.991 7.25 181.852 7.25Z" fill="#282A36"/>
<path d="M183.752 7.25C183.614 7.25 183.502 7.138 183.502 7V1C183.502 0.862 183.614 0.75 183.752 0.75C183.89 0.75 184.002 0.862 184.002 1V7C184.002 7.138 183.891 7.25 183.752 7.25Z" fill="#282A36"/>
<path d="M185.652 7.25C185.514 7.25 185.402 7.138 185.402 7V1C185.402 0.862 185.514 0.75 185.652 0.75C185.79 0.75 185.902 0.862 185.902 1V7C185.902 7.138 185.79 7.25 185.652 7.25Z" fill="#282A36"/>
<path d="M187.552 7.25C187.414 7.25 187.302 7.138 187.302 7V1C187.302 0.862 187.414 0.75 187.552 0.75C187.69 0.75 187.802 0.862 187.802 1V7C187.802 7.138 187.69 7.25 187.552 7.25Z" fill="#282A36"/>
<path d="M189.453 13.25C189.315 13.25 189.203 13.138 189.203 13V1C189.203 0.862 189.315 0.75 189.453 0.75C189.591 0.75 189.703 0.862 189.703 1V13C189.703 13.138 189.591 13.25 189.453 13.25Z" fill="#282A36"/>
<path d="M191.352 7.25C191.214 7.25 191.102 7.138 191.102 7V1C191.102 0.862 191.214 0.75 191.352 0.75C191.49 0.75 191.602 0.862 191.602 1V7C191.602 7.138 191.491 7.25 191.352 7.25Z" fill="#282A36"/>
<path d="M193.252 7.25C193.114 7.25 193.002 7.138 193.002 7V1C193.002 0.862 193.114 0.75 193.252 0.75C193.39 0.75 193.502 0.862 193.502 1V7C193.502 7.138 193.391 7.25 193.252 7.25Z" fill="#282A36"/>
<path d="M195.152 7.25C195.014 7.25 194.902 7.138 194.902 7V1C194.902 0.862 195.014 0.75 195.152 0.75C195.29 0.75 195.402 0.862 195.402 1V7C195.402 7.138 195.29 7.25 195.152 7.25Z" fill="#282A36"/>
<path d="M197.052 7.25C196.914 7.25 196.802 7.138 196.802 7V1C196.802 0.862 196.914 0.75 197.052 0.75C197.19 0.75 197.302 0.862 197.302 1V7C197.302 7.138 197.19 7.25 197.052 7.25Z" fill="#282A36"/>
<path d="M200.852 7.25C200.714 7.25 200.602 7.138 200.602 7V1C200.602 0.862 200.714 0.75 200.852 0.75C200.99 0.75 201.102 0.862 201.102 1V7C201.102 7.138 200.991 7.25 200.852 7.25Z" fill="#282A36"/>
<path d="M202.752 7.25C202.614 7.25 202.502 7.138 202.502 7V1C202.502 0.862 202.614 0.75 202.752 0.75C202.89 0.75 203.002 0.862 203.002 1V7C203.002 7.138 202.891 7.25 202.752 7.25Z" fill="#282A36"/>
<path d="M204.652 7.25C204.514 7.25 204.402 7.138 204.402 7V1C204.402 0.862 204.514 0.75 204.652 0.75C204.79 0.75 204.902 0.862 204.902 1V7C204.902 7.138 204.79 7.25 204.652 7.25Z" fill="#282A36"/>
<path d="M206.553 7.25C206.415 7.25 206.303 7.138 206.303 7V1C206.303 0.862 206.415 0.75 206.553 0.75C206.691 0.75 206.803 0.862 206.803 1V7C206.803 7.138 206.69 7.25 206.553 7.25Z" fill="#282A36"/>
<path d="M208.452 13.25C208.314 13.25 208.202 13.138 208.202 13V1C208.202 0.862 208.314 0.75 208.452 0.75C208.59 0.75 208.702 0.862 208.702 1V13C208.702 13.138 208.59 13.25 208.452 13.25Z" fill="#282A36"/>
<path d="M210.352 7.25C210.214 7.25 210.102 7.138 210.102 7V1C210.102 0.862 210.214 0.75 210.352 0.75C210.49 0.75 210.602 0.862 210.602 1V7C210.602 7.138 210.49 7.25 210.352 7.25Z" fill="#282A36"/>
<path d="M212.252 7.25C212.114 7.25 212.002 7.138 212.002 7V1C212.002 0.862 212.114 0.75 212.252 0.75C212.39 0.75 212.502 0.862 212.502 1V7C212.502 7.138 212.39 7.25 212.252 7.25Z" fill="#282A36"/>
<path d="M214.152 7.25C214.014 7.25 213.902 7.138 213.902 7V1C213.902 0.862 214.014 0.75 214.152 0.75C214.29 0.75 214.402 0.862 214.402 1V7C214.402 7.138 214.29 7.25 214.152 7.25Z" fill="#282A36"/>
<path d="M216.053 7.25C215.915 7.25 215.803 7.138 215.803 7V1C215.803 0.862 215.915 0.75 216.053 0.75C216.191 0.75 216.303 0.862 216.303 1V7C216.303 7.138 216.19 7.25 216.053 7.25Z" fill="#282A36"/>
<path d="M219.852 7.25C219.714 7.25 219.602 7.138 219.602 7V1C219.602 0.862 219.714 0.75 219.852 0.75C219.99 0.75 220.102 0.862 220.102 1V7C220.102 7.138 219.99 7.25 219.852 7.25Z" fill="#282A36"/>
<path d="M221.752 7.25C221.614 7.25 221.502 7.138 221.502 7V1C221.502 0.862 221.614 0.75 221.752 0.75C221.89 0.75 222.002 0.862 222.002 1V7C222.002 7.138 221.89 7.25 221.752 7.25Z" fill="#282A36"/>
<path d="M223.652 7.25C223.514 7.25 223.402 7.138 223.402 7V1C223.402 0.862 223.514 0.75 223.652 0.75C223.79 0.75 223.902 0.862 223.902 1V7C223.902 7.138 223.79 7.25 223.652 7.25Z" fill="#282A36"/>
<path d="M225.553 7.25C225.415 7.25 225.303 7.138 225.303 7V1C225.303 0.862 225.415 0.75 225.553 0.75C225.691 0.75 225.803 0.862 225.803 1V7C225.803 7.138 225.69 7.25 225.553 7.25Z" fill="#282A36"/>
<path d="M227.452 13.25C227.314 13.25 227.202 13.138 227.202 13V1C227.202 0.862 227.314 0.75 227.452 0.75C227.59 0.75 227.702 0.862 227.702 1V13C227.702 13.138 227.59 13.25 227.452 13.25Z" fill="#282A36"/>
<path d="M229.352 7.25C229.214 7.25 229.102 7.138 229.102 7V1C229.102 0.862 229.214 0.75 229.352 0.75C229.49 0.75 229.602 0.862 229.602 1V7C229.602 7.138 229.49 7.25 229.352 7.25Z" fill="#282A36"/>
<path d="M231.252 7.25C231.114 7.25 231.002 7.138 231.002 7V1C231.002 0.862 231.114 0.75 231.252 0.75C231.39 0.75 231.502 0.862 231.502 1V7C231.502 7.138 231.39 7.25 231.252 7.25Z" fill="#282A36"/>
<path d="M233.152 7.25C233.014 7.25 232.902 7.138 232.902 7V1C232.902 0.862 233.014 0.75 233.152 0.75C233.29 0.75 233.402 0.862 233.402 1V7C233.402 7.138 233.29 7.25 233.152 7.25Z" fill="#282A36"/>
<path d="M235.053 7.25C234.915 7.25 234.803 7.138 234.803 7V1C234.803 0.862 234.915 0.75 235.053 0.75C235.191 0.75 235.303 0.862 235.303 1V7C235.303 7.138 235.19 7.25 235.053 7.25Z" fill="#282A36"/>
<path d="M238.853 7.25C238.715 7.25 238.603 7.138 238.603 7V1C238.603 0.862 238.715 0.75 238.853 0.75C238.991 0.75 239.103 0.862 239.103 1V7C239.103 7.138 238.99 7.25 238.853 7.25Z" fill="#282A36"/>
<path d="M240.752 7.25C240.614 7.25 240.502 7.138 240.502 7V1C240.502 0.862 240.614 0.75 240.752 0.75C240.89 0.75 241.002 0.862 241.002 1V7C241.002 7.138 240.89 7.25 240.752 7.25Z" fill="#282A36"/>
<path d="M242.652 7.25C242.514 7.25 242.402 7.138 242.402 7V1C242.402 0.862 242.514 0.75 242.652 0.75C242.79 0.75 242.902 0.862 242.902 1V7C242.902 7.138 242.79 7.25 242.652 7.25Z" fill="#282A36"/>
<path d="M244.553 7.25C244.415 7.25 244.303 7.138 244.303 7V1C244.303 0.862 244.415 0.75 244.553 0.75C244.691 0.75 244.803 0.862 244.803 1V7C244.803 7.138 244.69 7.25 244.553 7.25Z" fill="#282A36"/>
<path d="M246.452 13.25C246.314 13.25 246.202 13.138 246.202 13V1C246.202 0.862 246.314 0.75 246.452 0.75C246.59 0.75 246.702 0.862 246.702 1V13C246.702 13.138 246.59 13.25 246.452 13.25Z" fill="#282A36"/>
<path d="M248.352 7.25C248.214 7.25 248.102 7.138 248.102 7V1C248.102 0.862 248.214 0.75 248.352 0.75C248.49 0.75 248.602 0.862 248.602 1V7C248.602 7.138 248.49 7.25 248.352 7.25Z" fill="#282A36"/>
<path d="M250.252 7.25C250.114 7.25 250.002 7.138 250.002 7V1C250.002 0.862 250.114 0.75 250.252 0.75C250.39 0.75 250.502 0.862 250.502 1V7C250.502 7.138 250.39 7.25 250.252 7.25Z" fill="#282A36"/>
<path d="M252.152 7.25C252.014 7.25 251.902 7.138 251.902 7V1C251.902 0.862 252.014 0.75 252.152 0.75C252.29 0.75 252.402 0.862 252.402 1V7C252.402 7.138 252.29 7.25 252.152 7.25Z" fill="#282A36"/>
<path d="M254.053 7.25C253.915 7.25 253.803 7.138 253.803 7V1C253.803 0.862 253.915 0.75 254.053 0.75C254.191 0.75 254.303 0.862 254.303 1V7C254.303 7.138 254.19 7.25 254.053 7.25Z" fill="#282A36"/>
<path d="M257.852 7.25C257.714 7.25 257.602 7.138 257.602 7V1C257.602 0.862 257.714 0.75 257.852 0.75C257.99 0.75 258.102 0.862 258.102 1V7C258.102 7.138 257.99 7.25 257.852 7.25Z" fill="#282A36"/>
<path d="M259.752 7.25C259.614 7.25 259.502 7.138 259.502 7V1C259.502 0.862 259.614 0.75 259.752 0.75C259.89 0.75 260.002 0.862 260.002 1V7C260.002 7.138 259.89 7.25 259.752 7.25Z" fill="#282A36"/>
<path d="M261.652 7.25C261.514 7.25 261.402 7.138 261.402 7V1C261.402 0.862 261.514 0.75 261.652 0.75C261.79 0.75 261.902 0.862 261.902 1V7C261.902 7.138 261.79 7.25 261.652 7.25Z" fill="#282A36"/>
<path d="M263.553 7.25C263.415 7.25 263.303 7.138 263.303 7V1C263.303 0.862 263.415 0.75 263.553 0.75C263.691 0.75 263.803 0.862 263.803 1V7C263.803 7.138 263.69 7.25 263.553 7.25Z" fill="#282A36"/>
<path d="M265.452 13.25C265.314 13.25 265.202 13.138 265.202 13V1C265.202 0.862 265.314 0.75 265.452 0.75C265.59 0.75 265.702 0.862 265.702 1V13C265.702 13.138 265.59 13.25 265.452 13.25Z" fill="#282A36"/>
<path d="M267.352 7.25C267.214 7.25 267.102 7.138 267.102 7V1C267.102 0.862 267.214 0.75 267.352 0.75C267.49 0.75 267.602 0.862 267.602 1V7C267.602 7.138 267.49 7.25 267.352 7.25Z" fill="#282A36"/>
<path d="M269.252 7.25C269.114 7.25 269.002 7.138 269.002 7V1C269.002 0.862 269.114 0.75 269.252 0.75C269.39 0.75 269.502 0.862 269.502 1V7C269.502 7.138 269.39 7.25 269.252 7.25Z" fill="#282A36"/>
<path d="M271.152 7.25C271.014 7.25 270.902 7.138 270.902 7V1C270.902 0.862 271.014 0.75 271.152 0.75C271.29 0.75 271.402 0.862 271.402 1V7C271.402 7.138 271.29 7.25 271.152 7.25Z" fill="#282A36"/>
<path d="M273.053 7.25C272.915 7.25 272.803 7.138 272.803 7V1C272.803 0.862 272.915 0.75 273.053 0.75C273.191 0.75 273.303 0.862 273.303 1V7C273.303 7.138 273.19 7.25 273.053 7.25Z" fill="#282A36"/>
<path d="M276.852 7.25C276.714 7.25 276.602 7.138 276.602 7V1C276.602 0.862 276.714 0.75 276.852 0.75C276.99 0.75 277.102 0.862 277.102 1V7C277.102 7.138 276.99 7.25 276.852 7.25Z" fill="#282A36"/>
<path d="M278.752 7.25C278.614 7.25 278.502 7.138 278.502 7V1C278.502 0.862 278.614 0.75 278.752 0.75C278.89 0.75 279.002 0.862 279.002 1V7C279.002 7.138 278.89 7.25 278.752 7.25Z" fill="#282A36"/>
<path d="M280.652 7.25C280.514 7.25 280.402 7.138 280.402 7V1C280.402 0.862 280.514 0.75 280.652 0.75C280.79 0.75 280.902 0.862 280.902 1V7C280.902 7.138 280.79 7.25 280.652 7.25Z" fill="#282A36"/>
<path d="M282.553 7.25C282.415 7.25 282.303 7.138 282.303 7V1C282.303 0.862 282.415 0.75 282.553 0.75C282.691 0.75 282.803 0.862 282.803 1V7C282.803 7.138 282.69 7.25 282.553 7.25Z" fill="#282A36"/>
<path d="M284.452 13.25C284.314 13.25 284.202 13.138 284.202 13V1C284.202 0.862 284.314 0.75 284.452 0.75C284.59 0.75 284.702 0.862 284.702 1V13C284.702 13.138 284.59 13.25 284.452 13.25Z" fill="#282A36"/>
<path d="M286.352 7.25C286.214 7.25 286.102 7.138 286.102 7V1C286.102 0.862 286.214 0.75 286.352 0.75C286.49 0.75 286.602 0.862 286.602 1V7C286.602 7.138 286.49 7.25 286.352 7.25Z" fill="#282A36"/>
<path d="M288.252 7.25C288.114 7.25 288.002 7.138 288.002 7V1C288.002 0.862 288.114 0.75 288.252 0.75C288.39 0.75 288.502 0.862 288.502 1V7C288.502 7.138 288.39 7.25 288.252 7.25Z" fill="#282A36"/>
<path d="M290.152 7.25C290.014 7.25 289.902 7.138 289.902 7V1C289.902 0.862 290.014 0.75 290.152 0.75C290.29 0.75 290.402 0.862 290.402 1V7C290.402 7.138 290.29 7.25 290.152 7.25Z" fill="#282A36"/>
<path d="M292.053 7.25C291.915 7.25 291.803 7.138 291.803 7V1C291.803 0.862 291.915 0.75 292.053 0.75C292.191 0.75 292.303 0.862 292.303 1V7C292.303 7.138 292.19 7.25 292.053 7.25Z" fill="#282A36"/>
<path d="M295.852 7.25C295.714 7.25 295.602 7.138 295.602 7V1C295.602 0.862 295.714 0.75 295.852 0.75C295.99 0.75 296.102 0.862 296.102 1V7C296.102 7.138 295.99 7.25 295.852 7.25Z" fill="#282A36"/>
<path d="M297.752 7.25C297.614 7.25 297.502 7.138 297.502 7V1C297.502 0.862 297.614 0.75 297.752 0.75C297.89 0.75 298.002 0.862 298.002 1V7C298.002 7.138 297.89 7.25 297.752 7.25Z" fill="#282A36"/>
<path d="M299.652 7.25C299.514 7.25 299.402 7.138 299.402 7V1C299.402 0.862 299.514 0.75 299.652 0.75C299.79 0.75 299.902 0.862 299.902 1V7C299.902 7.138 299.79 7.25 299.652 7.25Z" fill="#282A36"/>
<path d="M301.553 7.25C301.415 7.25 301.303 7.138 301.303 7V1C301.303 0.862 301.415 0.75 301.553 0.75C301.691 0.75 301.803 0.862 301.803 1V7C301.803 7.138 301.69 7.25 301.553 7.25Z" fill="#282A36"/>
<path d="M303.452 13.25C303.314 13.25 303.202 13.138 303.202 13V1C303.202 0.862 303.314 0.75 303.452 0.75C303.59 0.75 303.702 0.862 303.702 1V13C303.702 13.138 303.59 13.25 303.452 13.25Z" fill="#282A36"/>
<path d="M305.352 7.25C305.214 7.25 305.102 7.138 305.102 7V1C305.102 0.862 305.214 0.75 305.352 0.75C305.49 0.75 305.602 0.862 305.602 1V7C305.602 7.138 305.49 7.25 305.352 7.25Z" fill="#282A36"/>
<path d="M307.252 7.25C307.114 7.25 307.002 7.138 307.002 7V1C307.002 0.862 307.114 0.75 307.252 0.75C307.39 0.75 307.502 0.862 307.502 1V7C307.502 7.138 307.39 7.25 307.252 7.25Z" fill="#282A36"/>
<path d="M309.152 7.25C309.014 7.25 308.902 7.138 308.902 7V1C308.902 0.862 309.014 0.75 309.152 0.75C309.29 0.75 309.402 0.862 309.402 1V7C309.402 7.138 309.29 7.25 309.152 7.25Z" fill="#282A36"/>
<path d="M311.053 7.25C310.915 7.25 310.803 7.138 310.803 7V1C310.803 0.862 310.915 0.75 311.053 0.75C311.191 0.75 311.303 0.862 311.303 1V7C311.303 7.138 311.19 7.25 311.053 7.25Z" fill="#282A36"/>
<path d="M314.852 7.25C314.714 7.25 314.602 7.138 314.602 7V1C314.602 0.862 314.714 0.75 314.852 0.75C314.99 0.75 315.102 0.862 315.102 1V7C315.102 7.138 314.99 7.25 314.852 7.25Z" fill="#282A36"/>
<path d="M316.752 7.25C316.614 7.25 316.502 7.138 316.502 7V1C316.502 0.862 316.614 0.75 316.752 0.75C316.89 0.75 317.002 0.862 317.002 1V7C317.002 7.138 316.89 7.25 316.752 7.25Z" fill="#282A36"/>
<path d="M318.652 7.25C318.514 7.25 318.402 7.138 318.402 7V1C318.402 0.862 318.514 0.75 318.652 0.75C318.79 0.75 318.902 0.862 318.902 1V7C318.902 7.138 318.79 7.25 318.652 7.25Z" fill="#282A36"/>
<path d="M320.553 7.25C320.415 7.25 320.303 7.138 320.303 7V1C320.303 0.862 320.415 0.75 320.553 0.75C320.691 0.75 320.803 0.862 320.803 1V7C320.803 7.138 320.69 7.25 320.553 7.25Z" fill="#282A36"/>
<path d="M322.452 13.25C322.314 13.25 322.202 13.138 322.202 13V1C322.202 0.862 322.314 0.75 322.452 0.75C322.59 0.75 322.702 0.862 322.702 1V13C322.702 13.138 322.59 13.25 322.452 13.25Z" fill="#282A36"/>
<path d="M324.352 7.25C324.214 7.25 324.102 7.138 324.102 7V1C324.102 0.862 324.214 0.75 324.352 0.75C324.49 0.75 324.602 0.862 324.602 1V7C324.602 7.138 324.49 7.25 324.352 7.25Z" fill="#282A36"/>
<path d="M326.252 7.25C326.114 7.25 326.002 7.138 326.002 7V1C326.002 0.862 326.114 0.75 326.252 0.75C326.39 0.75 326.502 0.862 326.502 1V7C326.502 7.138 326.39 7.25 326.252 7.25Z" fill="#282A36"/>
<path d="M328.152 7.25C328.014 7.25 327.902 7.138 327.902 7V1C327.902 0.862 328.014 0.75 328.152 0.75C328.29 0.75 328.402 0.862 328.402 1V7C328.402 7.138 328.29 7.25 328.152 7.25Z" fill="#282A36"/>
<path d="M330.053 7.25C329.915 7.25 329.803 7.138 329.803 7V1C329.803 0.862 329.915 0.75 330.053 0.75C330.191 0.75 330.303 0.862 330.303 1V7C330.303 7.138 330.19 7.25 330.053 7.25Z" fill="#282A36"/>
<path d="M333.852 7.25C333.714 7.25 333.602 7.138 333.602 7V1C333.602 0.862 333.714 0.75 333.852 0.75C333.99 0.75 334.102 0.862 334.102 1V7C334.102 7.138 333.99 7.25 333.852 7.25Z" fill="#282A36"/>
<path d="M335.752 7.25C335.614 7.25 335.502 7.138 335.502 7V1C335.502 0.862 335.614 0.75 335.752 0.75C335.89 0.75 336.002 0.862 336.002 1V7C336.002 7.138 335.89 7.25 335.752 7.25Z" fill="#282A36"/>
<path d="M337.652 7.25C337.514 7.25 337.402 7.138 337.402 7V1C337.402 0.862 337.514 0.75 337.652 0.75C337.79 0.75 337.902 0.862 337.902 1V7C337.902 7.138 337.79 7.25 337.652 7.25Z" fill="#282A36"/>
<path d="M339.553 7.25C339.415 7.25 339.303 7.138 339.303 7V1C339.303 0.862 339.415 0.75 339.553 0.75C339.691 0.75 339.803 0.862 339.803 1V7C339.803 7.138 339.69 7.25 339.553 7.25Z" fill="#282A36"/>
<path d="M341.452 13.25C341.314 13.25 341.202 13.138 341.202 13V1C341.202 0.862 341.314 0.75 341.452 0.75C341.59 0.75 341.702 0.862 341.702 1V13C341.702 13.138 341.59 13.25 341.452 13.25Z" fill="#282A36"/>
<path d="M343.352 7.25C343.214 7.25 343.102 7.138 343.102 7V1C343.102 0.862 343.214 0.75 343.352 0.75C343.49 0.75 343.602 0.862 343.602 1V7C343.602 7.138 343.49 7.25 343.352 7.25Z" fill="#282A36"/>
<path d="M345.252 7.25C345.114 7.25 345.002 7.138 345.002 7V1C345.002 0.862 345.114 0.75 345.252 0.75C345.39 0.75 345.502 0.862 345.502 1V7C345.502 7.138 345.39 7.25 345.252 7.25Z" fill="#282A36"/>
<path d="M347.152 7.25C347.014 7.25 346.902 7.138 346.902 7V1C346.902 0.862 347.014 0.75 347.152 0.75C347.29 0.75 347.402 0.862 347.402 1V7C347.402 7.138 347.29 7.25 347.152 7.25Z" fill="#282A36"/>
<path d="M349.053 7.25C348.915 7.25 348.803 7.138 348.803 7V1C348.803 0.862 348.915 0.75 349.053 0.75C349.191 0.75 349.303 0.862 349.303 1V7C349.303 7.138 349.19 7.25 349.053 7.25Z" fill="#282A36"/>
<path d="M352.852 7.25C352.714 7.25 352.602 7.138 352.602 7V1C352.602 0.862 352.714 0.75 352.852 0.75C352.99 0.75 353.102 0.862 353.102 1V7C353.102 7.138 352.99 7.25 352.852 7.25Z" fill="#282A36"/>
<path d="M354.752 7.25C354.614 7.25 354.502 7.138 354.502 7V1C354.502 0.862 354.614 0.75 354.752 0.75C354.89 0.75 355.002 0.862 355.002 1V7C355.002 7.138 354.89 7.25 354.752 7.25Z" fill="#282A36"/>
<path d="M356.652 7.25C356.514 7.25 356.402 7.138 356.402 7V1C356.402 0.862 356.514 0.75 356.652 0.75C356.79 0.75 356.902 0.862 356.902 1V7C356.902 7.138 356.79 7.25 356.652 7.25Z" fill="#282A36"/>
<path d="M358.553 7.25C358.415 7.25 358.303 7.138 358.303 7V1C358.303 0.862 358.415 0.75 358.553 0.75C358.691 0.75 358.803 0.862 358.803 1V7C358.803 7.138 358.69 7.25 358.553 7.25Z" fill="#282A36"/>
<path d="M360.452 13.25C360.314 13.25 360.202 13.138 360.202 13V1C360.202 0.862 360.314 0.75 360.452 0.75C360.59 0.75 360.702 0.862 360.702 1V13C360.702 13.138 360.59 13.25 360.452 13.25Z" fill="#282A36"/>
<path d="M362.352 7.25C362.214 7.25 362.102 7.138 362.102 7V1C362.102 0.862 362.214 0.75 362.352 0.75C362.49 0.75 362.602 0.862 362.602 1V7C362.602 7.138 362.49 7.25 362.352 7.25Z" fill="#282A36"/>
<path d="M364.252 7.25C364.114 7.25 364.002 7.138 364.002 7V1C364.002 0.862 364.114 0.75 364.252 0.75C364.39 0.75 364.502 0.862 364.502 1V7C364.502 7.138 364.39 7.25 364.252 7.25Z" fill="#282A36"/>
<path d="M366.152 7.25C366.014 7.25 365.902 7.138 365.902 7V1C365.902 0.862 366.014 0.75 366.152 0.75C366.29 0.75 366.402 0.862 366.402 1V7C366.402 7.138 366.29 7.25 366.152 7.25Z" fill="#282A36"/>
<path d="M368.053 7.25C367.915 7.25 367.803 7.138 367.803 7V1C367.803 0.862 367.915 0.75 368.053 0.75C368.191 0.75 368.303 0.862 368.303 1V7C368.303 7.138 368.19 7.25 368.053 7.25Z" fill="#282A36"/>
<path d="M371.852 7.25C371.714 7.25 371.602 7.138 371.602 7V1C371.602 0.862 371.714 0.75 371.852 0.75C371.99 0.75 372.102 0.862 372.102 1V7C372.102 7.138 371.99 7.25 371.852 7.25Z" fill="#282A36"/>
<path d="M373.752 7.25C373.614 7.25 373.502 7.138 373.502 7V1C373.502 0.862 373.614 0.75 373.752 0.75C373.89 0.75 374.002 0.862 374.002 1V7C374.002 7.138 373.89 7.25 373.752 7.25Z" fill="#282A36"/>
<path d="M375.652 7.25C375.514 7.25 375.402 7.138 375.402 7V1C375.402 0.862 375.514 0.75 375.652 0.75C375.79 0.75 375.902 0.862 375.902 1V7C375.902 7.138 375.79 7.25 375.652 7.25Z" fill="#282A36"/>
<path d="M377.553 7.25C377.415 7.25 377.303 7.138 377.303 7V1C377.303 0.862 377.415 0.75 377.553 0.75C377.691 0.75 377.803 0.862 377.803 1V7C377.803 7.138 377.69 7.25 377.553 7.25Z" fill="#282A36"/>
<path d="M379.452 13.25C379.314 13.25 379.202 13.138 379.202 13V1C379.202 0.862 379.314 0.75 379.452 0.75C379.59 0.75 379.702 0.862 379.702 1V13C379.702 13.138 379.59 13.25 379.452 13.25Z" fill="#282A36"/>
<path d="M381.352 7.25C381.214 7.25 381.102 7.138 381.102 7V1C381.102 0.862 381.214 0.75 381.352 0.75C381.49 0.75 381.602 0.862 381.602 1V7C381.602 7.138 381.49 7.25 381.352 7.25Z" fill="#282A36"/>
<path d="M383.252 7.25C383.114 7.25 383.002 7.138 383.002 7V1C383.002 0.862 383.114 0.75 383.252 0.75C383.39 0.75 383.502 0.862 383.502 1V7C383.502 7.138 383.39 7.25 383.252 7.25Z" fill="#282A36"/>
<path d="M385.152 7.25C385.014 7.25 384.902 7.138 384.902 7V1C384.902 0.862 385.014 0.75 385.152 0.75C385.29 0.75 385.402 0.862 385.402 1V7C385.402 7.138 385.29 7.25 385.152 7.25Z" fill="#282A36"/>
<path d="M387.053 7.25C386.915 7.25 386.803 7.138 386.803 7V1C386.803 0.862 386.915 0.75 387.053 0.75C387.191 0.75 387.303 0.862 387.303 1V7C387.303 7.138 387.19 7.25 387.053 7.25Z" fill="#282A36"/>
<path d="M7.349 17.693C7.349 16.623 7.879 15.933 8.948 15.933C10.028 15.933 10.557 16.622 10.557 17.693V21.3C10.557 22.369 10.028 23.07 8.948 23.07C7.879 23.07 7.349 22.37 7.349 21.3V17.693ZM8.118 21.351C8.118 21.981 8.388 22.361 8.948 22.361C9.518 22.361 9.778 21.981 9.778 21.351V17.654C9.778 17.014 9.518 16.634 8.948 16.634C8.388 16.634 8.118 17.014 8.118 17.654V21.351Z" fill="#282A36"/>
<path d="M28.091 17.273C27.831 17.432 27.491 17.552 27.121 17.573V16.933C27.881 16.903 28.141 16.493 28.321 16.003H28.861V23H28.091V17.273Z" fill="#282A36"/>
<path d="M48.564 17.703C48.564 19.811 46.195 20.571 46.185 22.181V22.29H48.484V23H45.416V22.4C45.416 20.141 47.785 19.702 47.785 17.732C47.785 17.013 47.545 16.633 46.965 16.633C46.396 16.633 46.146 17.042 46.146 17.662V18.281H45.416V17.712C45.416 16.643 45.906 15.933 46.985 15.933C48.075 15.934 48.564 16.634 48.564 17.703Z" fill="#282A36"/>
<path d="M67.523 17.693V17.873C67.523 18.593 67.233 19.103 66.673 19.313C67.263 19.533 67.523 20.062 67.523 20.762V21.301C67.523 22.37 67.023 23.071 65.944 23.071C64.875 23.071 64.375 22.371 64.375 21.301V20.821H65.104V21.35C65.104 21.98 65.364 22.36 65.924 22.36C66.493 22.36 66.743 21.99 66.743 21.281V20.741C66.743 20.052 66.453 19.721 65.863 19.702H65.443V19.002H65.903C66.423 18.982 66.743 18.652 66.743 18.043V17.723C66.743 17.003 66.493 16.634 65.924 16.634C65.364 16.634 65.104 17.024 65.104 17.654V18.013H64.375V17.694C64.375 16.624 64.875 15.934 65.944 15.934C67.023 15.934 67.523 16.623 67.523 17.693Z" fill="#282A36"/>
<path d="M86.188 21.591V23H85.428V21.591H83.169V20.881L85.338 16.004H86.188V20.881H86.748V21.591H86.188ZM83.889 20.881H85.428V17.463L83.889 20.881Z" fill="#282A36"/>
<path d="M103.193 18.853C103.413 18.473 103.763 18.273 104.233 18.273C105.132 18.273 105.532 18.933 105.532 19.932V21.301C105.532 22.37 105.022 23.071 103.953 23.071C102.884 23.071 102.384 22.371 102.384 21.301V20.831H103.114V21.351C103.114 21.981 103.374 22.361 103.933 22.361C104.493 22.361 104.752 21.981 104.752 21.351V19.992C104.752 19.363 104.492 18.983 103.933 18.983C103.503 18.983 103.213 19.222 103.144 19.732V19.892H102.415L102.605 16.004H105.363V16.703H103.304L103.193 18.853Z" fill="#282A36"/>
<path d="M124.541 17.683V17.813H123.811V17.633C123.811 17.003 123.551 16.634 122.981 16.634C122.391 16.634 122.131 17.014 122.131 17.763V19.332C122.322 18.853 122.701 18.582 123.261 18.582C124.16 18.582 124.56 19.232 124.56 20.241V21.301C124.56 22.37 124.031 23.071 122.961 23.071C121.881 23.071 121.352 22.371 121.352 21.301V17.733C121.352 16.624 121.852 15.934 122.961 15.934C124.041 15.934 124.541 16.613 124.541 17.683ZM122.132 20.302V21.351C122.132 21.981 122.392 22.361 122.962 22.361C123.522 22.361 123.791 21.981 123.791 21.351V20.302C123.791 19.672 123.521 19.292 122.962 19.292C122.392 19.292 122.132 19.672 122.132 20.302Z" fill="#282A36"/>
<path d="M142.74 16.703H140.361V16.004H143.529V16.684L141.73 23H140.951L142.74 16.703Z" fill="#282A36"/>
<path d="M162.594 17.663V17.883C162.594 18.593 162.344 19.112 161.794 19.322C162.374 19.551 162.594 20.101 162.594 20.801V21.321C162.594 22.4 162.034 23.07 160.944 23.07C159.855 23.07 159.296 22.4 159.296 21.321V20.801C159.296 20.092 159.516 19.562 160.106 19.322C159.536 19.102 159.296 18.593 159.296 17.883V17.663C159.296 16.584 159.865 15.934 160.944 15.934C162.024 15.934 162.594 16.584 162.594 17.663ZM160.065 17.683V18.023C160.065 18.703 160.394 19.003 160.944 19.003C161.494 19.003 161.824 18.703 161.824 18.023V17.683C161.824 16.963 161.494 16.634 160.944 16.634C160.395 16.634 160.065 16.963 160.065 17.683ZM160.065 20.711V21.301C160.065 22.021 160.384 22.361 160.944 22.361C161.504 22.361 161.814 22.021 161.824 21.301V20.711C161.824 20.031 161.524 19.702 160.944 19.702C160.365 19.702 160.065 20.031 160.065 20.711Z" fill="#282A36"/>
<path d="M181.538 17.693V21.26C181.538 22.369 181.038 23.07 179.919 23.07C178.85 23.07 178.34 22.38 178.34 21.31V21.18H179.069V21.361C179.069 21.99 179.339 22.36 179.898 22.36C180.498 22.36 180.757 21.98 180.757 21.241V19.672C180.568 20.151 180.188 20.411 179.628 20.411C178.729 20.411 178.328 19.771 178.328 18.763V17.694C178.328 16.624 178.848 15.934 179.928 15.934C181.008 15.934 181.538 16.623 181.538 17.693ZM179.1 17.653V18.702C179.1 19.332 179.37 19.712 179.929 19.712C180.498 19.712 180.758 19.332 180.758 18.702V17.653C180.758 17.013 180.498 16.643 179.929 16.643C179.369 16.644 179.1 17.014 179.1 17.653Z" fill="#282A36"/>
<path d="M197.138 17.273C196.878 17.432 196.538 17.552 196.168 17.573V16.933C196.928 16.903 197.188 16.493 197.368 16.003H197.907V23H197.137V17.273H197.138Z" fill="#282A36"/>
<path d="M199.028 17.693C199.028 16.623 199.558 15.933 200.628 15.933C201.707 15.933 202.236 16.622 202.236 17.693V21.3C202.236 22.369 201.707 23.07 200.628 23.07C199.559 23.07 199.028 22.37 199.028 21.3V17.693ZM199.798 21.351C199.798 21.981 200.068 22.361 200.628 22.361C201.197 22.361 201.457 21.981 201.457 21.351V17.654C201.457 17.014 201.197 16.634 200.628 16.634C200.068 16.634 199.798 17.014 199.798 17.654V21.351Z" fill="#282A36"/>
<path d="M216.392 17.273C216.132 17.432 215.792 17.552 215.422 17.573V16.933C216.182 16.903 216.442 16.493 216.622 16.003H217.161V23H216.392V17.273Z" fill="#282A36"/>
<path d="M219.771 17.273C219.511 17.432 219.171 17.552 218.801 17.573V16.933C219.561 16.903 219.821 16.493 220.001 16.003H220.54V23H219.77L219.771 17.273Z" fill="#282A36"/>
<path d="M235.146 17.273C234.886 17.432 234.546 17.552 234.176 17.573V16.933C234.936 16.903 235.196 16.493 235.376 16.003H235.915V23H235.145V17.273H235.146Z" fill="#282A36"/>
<path d="M240.244 17.703C240.244 19.811 237.876 20.571 237.866 22.181V22.29H240.165V23H237.097V22.4C237.097 20.141 239.465 19.702 239.465 17.732C239.465 17.013 239.226 16.633 238.646 16.633C238.077 16.633 237.827 17.042 237.827 17.662V18.281H237.097V17.712C237.097 16.643 237.586 15.933 238.665 15.933C239.755 15.934 240.244 16.634 240.244 17.703Z" fill="#282A36"/>
<path d="M254.145 17.273C253.885 17.432 253.545 17.552 253.175 17.573V16.933C253.935 16.903 254.195 16.493 254.375 16.003H254.914V23H254.144L254.145 17.273Z" fill="#282A36"/>
<path d="M259.204 17.693V17.873C259.204 18.593 258.914 19.103 258.354 19.313C258.943 19.533 259.204 20.062 259.204 20.762V21.301C259.204 22.37 258.704 23.071 257.624 23.071C256.555 23.071 256.056 22.371 256.056 21.301V20.821H256.785V21.35C256.785 21.98 257.045 22.36 257.604 22.36C258.173 22.36 258.423 21.99 258.423 21.281V20.741C258.423 20.052 258.133 19.721 257.544 19.702H257.124V19.002H257.584C258.104 18.982 258.423 18.652 258.423 18.043V17.723C258.423 17.003 258.173 16.634 257.604 16.634C257.044 16.634 256.785 17.024 256.785 17.654V18.013H256.056V17.694C256.056 16.624 256.555 15.934 257.624 15.934C258.704 15.934 259.204 16.623 259.204 17.693Z" fill="#282A36"/>
<path d="M273.079 17.273C272.819 17.432 272.479 17.552 272.109 17.573V16.933C272.869 16.903 273.129 16.493 273.308 16.003H273.848V23H273.078V17.273H273.079Z" fill="#282A36"/>
<path d="M277.868 21.591V23H277.108V21.591H274.849V20.881L277.018 16.004H277.868V20.881H278.428V21.591H277.868ZM275.569 20.881H277.108V17.463L275.569 20.881Z" fill="#282A36"/>
<path d="M292.143 17.273C291.883 17.432 291.543 17.552 291.173 17.573V16.933C291.933 16.903 292.193 16.493 292.373 16.003H292.912V23H292.142V17.273H292.143Z" fill="#282A36"/>
<path d="M294.873 18.853C295.093 18.473 295.442 18.273 295.912 18.273C296.811 18.273 297.212 18.933 297.212 19.932V21.301C297.212 22.37 296.702 23.071 295.633 23.071C294.564 23.071 294.064 22.371 294.064 21.301V20.831H294.793V21.351C294.793 21.981 295.053 22.361 295.612 22.361C296.171 22.361 296.431 21.981 296.431 21.351V19.992C296.431 19.363 296.171 18.983 295.612 18.983C295.182 18.983 294.892 19.222 294.823 19.732V19.892H294.094L294.283 16.004H297.042V16.703H294.982L294.873 18.853Z" fill="#282A36"/>
<path d="M311.132 17.273C310.872 17.432 310.532 17.552 310.162 17.573V16.933C310.922 16.903 311.182 16.493 311.362 16.003H311.901V23H311.131L311.132 17.273Z" fill="#282A36"/>
<path d="M316.221 17.683V17.813H315.491V17.633C315.491 17.003 315.231 16.634 314.662 16.634C314.072 16.634 313.812 17.014 313.812 17.763V19.332C314.002 18.853 314.381 18.582 314.941 18.582C315.84 18.582 316.241 19.232 316.241 20.241V21.301C316.241 22.37 315.711 23.071 314.641 23.071C313.562 23.071 313.032 22.371 313.032 21.301V17.733C313.032 16.624 313.532 15.934 314.641 15.934C315.722 15.934 316.221 16.613 316.221 17.683ZM313.813 20.302V21.351C313.813 21.981 314.073 22.361 314.642 22.361C315.202 22.361 315.472 21.981 315.472 21.351V20.302C315.472 19.672 315.202 19.292 314.642 19.292C314.072 19.292 313.813 19.672 313.813 20.302Z" fill="#282A36"/>
<path d="M330.141 17.273C329.881 17.432 329.541 17.552 329.171 17.573V16.933C329.931 16.903 330.191 16.493 330.371 16.003H330.91V23H330.14L330.141 17.273Z" fill="#282A36"/>
<path d="M334.42 16.703H332.041V16.004H335.21V16.684L333.411 23H332.631L334.42 16.703Z" fill="#282A36"/>
<path d="M349.115 17.273C348.855 17.432 348.515 17.552 348.145 17.573V16.933C348.905 16.903 349.165 16.493 349.344 16.003H349.884V23H349.114L349.115 17.273Z" fill="#282A36"/>
<path d="M354.273 17.663V17.883C354.273 18.593 354.024 19.112 353.474 19.322C354.053 19.551 354.273 20.101 354.273 20.801V21.321C354.273 22.4 353.714 23.07 352.625 23.07C351.535 23.07 350.976 22.4 350.976 21.321V20.801C350.976 20.092 351.196 19.562 351.786 19.322C351.217 19.102 350.976 18.593 350.976 17.883V17.663C350.976 16.584 351.545 15.934 352.625 15.934C353.704 15.934 354.273 16.584 354.273 17.663ZM351.745 17.683V18.023C351.745 18.703 352.075 19.003 352.625 19.003C353.175 19.003 353.504 18.703 353.504 18.023V17.683C353.504 16.963 353.175 16.634 352.625 16.634C352.075 16.634 351.745 16.963 351.745 17.683ZM351.745 20.711V21.301C351.745 22.021 352.065 22.361 352.625 22.361C353.185 22.361 353.494 22.021 353.504 21.301V20.711C353.504 20.031 353.204 19.702 352.625 19.702C352.045 19.702 351.745 20.031 351.745 20.711Z" fill="#282A36"/>
<path d="M368.129 17.273C367.869 17.432 367.529 17.552 367.159 17.573V16.933C367.919 16.903 368.179 16.493 368.359 16.003H368.898V23H368.128V17.273H368.129Z" fill="#282A36"/>
<path d="M373.218 17.693V21.26C373.218 22.369 372.719 23.07 371.599 23.07C370.53 23.07 370.02 22.38 370.02 21.31V21.18H370.749V21.361C370.749 21.99 371.02 22.36 371.579 22.36C372.179 22.36 372.438 21.98 372.438 21.241V19.672C372.248 20.151 371.869 20.411 371.308 20.411C370.409 20.411 370.009 19.771 370.009 18.763V17.694C370.009 16.624 370.529 15.934 371.608 15.934C372.688 15.934 373.218 16.623 373.218 17.693ZM370.779 17.653V18.702C370.779 19.332 371.049 19.712 371.608 19.712C372.178 19.712 372.438 19.332 372.438 18.702V17.653C372.438 17.013 372.178 16.643 371.608 16.643C371.049 16.644 370.779 17.014 370.779 17.653Z" fill="#282A36"/>
<path d="M388.602 17.703C388.602 19.811 386.234 20.571 386.224 22.181V22.29H388.523V23H385.455V22.4C385.455 20.141 387.823 19.702 387.823 17.732C387.823 17.013 387.584 16.633 387.004 16.633C386.435 16.633 386.185 17.042 386.185 17.662V18.281H385.456V17.712C385.456 16.643 385.945 15.933 387.024 15.933C388.112 15.934 388.602 16.634 388.602 17.703Z" fill="#282A36"/>
<path d="M389.264 17.693C389.264 16.623 389.794 15.933 390.864 15.933C391.943 15.933 392.472 16.622 392.472 17.693V21.3C392.472 22.369 391.943 23.07 390.864 23.07C389.795 23.07 389.264 22.37 389.264 21.3V17.693ZM390.033 21.351C390.033 21.981 390.303 22.361 390.863 22.361C391.432 22.361 391.692 21.981 391.692 21.351V17.654C391.692 17.014 391.432 16.634 390.863 16.634C390.303 16.634 390.033 17.014 390.033 17.654V21.351Z" fill="#282A36"/>
<path d="M395.032 67.25C394.894 67.25 394.782 67.138 394.782 67V55C394.782 54.862 394.894 54.75 395.032 54.75C395.17 54.75 395.282 54.862 395.282 55V67C395.282 67.138 395.17 67.25 395.032 67.25Z" fill="#282A36"/>
<path d="M346.772 67.25C346.634 67.25 346.522 67.138 346.522 67V55C346.522 54.862 346.634 54.75 346.772 54.75C346.91 54.75 347.022 54.862 347.022 55V67C347.022 67.138 346.91 67.25 346.772 67.25Z" fill="#282A36"/>
<path d="M298.513 67.25C298.375 67.25 298.263 67.138 298.263 67V55C298.263 54.862 298.375 54.75 298.513 54.75C298.651 54.75 298.763 54.862 298.763 55V67C298.763 67.138 298.65 67.25 298.513 67.25Z" fill="#282A36"/>
<path d="M250.252 67.25C250.114 67.25 250.002 67.138 250.002 67V55C250.002 54.862 250.114 54.75 250.252 54.75C250.39 54.75 250.502 54.862 250.502 55V67C250.502 67.138 250.39 67.25 250.252 67.25Z" fill="#282A36"/>
<path d="M201.992 67.25C201.854 67.25 201.742 67.138 201.742 67V55C201.742 54.862 201.854 54.75 201.992 54.75C202.13 54.75 202.242 54.862 202.242 55V67C202.242 67.138 202.13 67.25 201.992 67.25Z" fill="#282A36"/>
<path d="M153.732 67.25C153.594 67.25 153.482 67.138 153.482 67V55C153.482 54.862 153.594 54.75 153.732 54.75C153.87 54.75 153.982 54.862 153.982 55V67C153.982 67.138 153.871 67.25 153.732 67.25Z" fill="#282A36"/>
<path d="M105.472 67.25C105.334 67.25 105.222 67.138 105.222 67V55C105.222 54.862 105.334 54.75 105.472 54.75C105.61 54.75 105.722 54.862 105.722 55V67C105.722 67.138 105.61 67.25 105.472 67.25Z" fill="#282A36"/>
<path d="M57.212 67.25C57.074 67.25 56.962 67.138 56.962 67V55C56.962 54.862 57.074 54.75 57.212 54.75C57.35 54.75 57.462 54.862 57.462 55V67C57.462 67.138 57.351 67.25 57.212 67.25Z" fill="#282A36"/>
<path d="M8.952 67.25C8.814 67.25 8.702 67.138 8.702 67V55C8.702 54.862 8.814 54.75 8.952 54.75C9.09 54.75 9.202 54.862 9.202 55V67C9.202 67.138 9.09 67.25 8.952 67.25Z" fill="#282A36"/>
<path d="M54.799 67.25C54.661 67.25 54.549 67.138 54.549 67V65C54.549 64.862 54.661 64.75 54.799 64.75C54.937 64.75 55.049 64.862 55.049 65V67C55.049 67.138 54.938 67.25 54.799 67.25Z" fill="#282A36"/>
<path d="M52.386 67.25C52.248 67.25 52.136 67.138 52.136 67V61C52.136 60.862 52.248 60.75 52.386 60.75C52.524 60.75 52.636 60.862 52.636 61V67C52.636 67.138 52.524 67.25 52.386 67.25Z" fill="#282A36"/>
<path d="M49.974 67.25C49.836 67.25 49.724 67.138 49.724 67V65C49.724 64.862 49.836 64.75 49.974 64.75C50.112 64.75 50.224 64.862 50.224 65V67C50.224 67.138 50.112 67.25 49.974 67.25Z" fill="#282A36"/>
<path d="M47.561 67.25C47.423 67.25 47.311 67.138 47.311 67V61C47.311 60.862 47.423 60.75 47.561 60.75C47.699 60.75 47.811 60.862 47.811 61V67C47.811 67.138 47.699 67.25 47.561 67.25Z" fill="#282A36"/>
<path d="M45.147 67.25C45.009 67.25 44.897 67.138 44.897 67V65C44.897 64.862 45.009 64.75 45.147 64.75C45.285 64.75 45.397 64.862 45.397 65V67C45.397 67.138 45.286 67.25 45.147 67.25Z" fill="#282A36"/>
<path d="M42.734 67.25C42.596 67.25 42.484 67.138 42.484 67V61C42.484 60.862 42.596 60.75 42.734 60.75C42.872 60.75 42.984 60.862 42.984 61V67C42.984 67.138 42.873 67.25 42.734 67.25Z" fill="#282A36"/>
<path d="M40.321 67.25C40.183 67.25 40.071 67.138 40.071 67V65C40.071 64.862 40.183 64.75 40.321 64.75C40.459 64.75 40.571 64.862 40.571 65V67C40.571 67.138 40.459 67.25 40.321 67.25Z" fill="#282A36"/>
<path d="M37.908 67.25C37.77 67.25 37.658 67.138 37.658 67V61C37.658 60.862 37.77 60.75 37.908 60.75C38.046 60.75 38.158 60.862 38.158 61V67C38.158 67.138 38.046 67.25 37.908 67.25Z" fill="#282A36"/>
<path d="M35.496 67.25C35.358 67.25 35.246 67.138 35.246 67V65C35.246 64.862 35.358 64.75 35.496 64.75C35.634 64.75 35.746 64.862 35.746 65V67C35.746 67.138 35.634 67.25 35.496 67.25Z" fill="#282A36"/>
<path d="M33.083 67.25C32.945 67.25 32.833 67.138 32.833 67V57C32.833 56.862 32.945 56.75 33.083 56.75C33.221 56.75 33.333 56.862 33.333 57V67C33.333 67.138 33.221 67.25 33.083 67.25Z" fill="#282A36"/>
<path d="M30.669 67.25C30.531 67.25 30.419 67.138 30.419 67V65C30.419 64.862 30.531 64.75 30.669 64.75C30.807 64.75 30.919 64.862 30.919 65V67C30.919 67.138 30.808 67.25 30.669 67.25Z" fill="#282A36"/>
<path d="M28.256 67.25C28.118 67.25 28.006 67.138 28.006 67V61C28.006 60.862 28.118 60.75 28.256 60.75C28.394 60.75 28.506 60.862 28.506 61V67C28.506 67.138 28.395 67.25 28.256 67.25Z" fill="#282A36"/>
<path d="M25.843 67.25C25.705 67.25 25.593 67.138 25.593 67V65C25.593 64.862 25.705 64.75 25.843 64.75C25.981 64.75 26.093 64.862 26.093 65V67C26.093 67.138 25.981 67.25 25.843 67.25Z" fill="#282A36"/>
<path d="M23.43 67.25C23.292 67.25 23.18 67.138 23.18 67V61C23.18 60.862 23.292 60.75 23.43 60.75C23.568 60.75 23.68 60.862 23.68 61V67C23.68 67.138 23.568 67.25 23.43 67.25Z" fill="#282A36"/>
<path d="M21.018 67.25C20.88 67.25 20.768 67.138 20.768 67V65C20.768 64.862 20.88 64.75 21.018 64.75C21.156 64.75 21.268 64.862 21.268 65V67C21.268 67.138 21.156 67.25 21.018 67.25Z" fill="#282A36"/>
<path d="M18.604 67.25C18.466 67.25 18.354 67.138 18.354 67V61C18.354 60.862 18.466 60.75 18.604 60.75C18.742 60.75 18.854 60.862 18.854 61V67C18.854 67.138 18.743 67.25 18.604 67.25Z" fill="#282A36"/>
<path d="M16.191 67.25C16.053 67.25 15.941 67.138 15.941 67V65C15.941 64.862 16.053 64.75 16.191 64.75C16.329 64.75 16.441 64.862 16.441 65V67C16.441 67.138 16.33 67.25 16.191 67.25Z" fill="#282A36"/>
<path d="M13.778 67.25C13.64 67.25 13.528 67.138 13.528 67V61C13.528 60.862 13.64 60.75 13.778 60.75C13.916 60.75 14.028 60.862 14.028 61V67C14.028 67.138 13.917 67.25 13.778 67.25Z" fill="#282A36"/>
<path d="M11.365 67.25C11.227 67.25 11.115 67.138 11.115 67V65C11.115 64.862 11.227 64.75 11.365 64.75C11.503 64.75 11.615 64.862 11.615 65V67C11.615 67.138 11.503 67.25 11.365 67.25Z" fill="#282A36"/>
<path d="M103.06 67.25C102.922 67.25 102.81 67.138 102.81 67V65C102.81 64.862 102.922 64.75 103.06 64.75C103.198 64.75 103.31 64.862 103.31 65V67C103.31 67.138 103.198 67.25 103.06 67.25Z" fill="#282A36"/>
<path d="M100.646 67.25C100.508 67.25 100.396 67.138 100.396 67V61C100.396 60.862 100.508 60.75 100.646 60.75C100.784 60.75 100.896 60.862 100.896 61V67C100.896 67.138 100.785 67.25 100.646 67.25Z" fill="#282A36"/>
<path d="M98.233 67.25C98.095 67.25 97.983 67.138 97.983 67V65C97.983 64.862 98.095 64.75 98.233 64.75C98.371 64.75 98.483 64.862 98.483 65V67C98.483 67.138 98.372 67.25 98.233 67.25Z" fill="#282A36"/>
<path d="M95.82 67.25C95.682 67.25 95.57 67.138 95.57 67V61C95.57 60.862 95.682 60.75 95.82 60.75C95.958 60.75 96.07 60.862 96.07 61V67C96.07 67.138 95.958 67.25 95.82 67.25Z" fill="#282A36"/>
<path d="M93.407 67.25C93.269 67.25 93.157 67.138 93.157 67V65C93.157 64.862 93.269 64.75 93.407 64.75C93.545 64.75 93.657 64.862 93.657 65V67C93.657 67.138 93.545 67.25 93.407 67.25Z" fill="#282A36"/>
<path d="M90.995 67.25C90.857 67.25 90.745 67.138 90.745 67V61C90.745 60.862 90.857 60.75 90.995 60.75C91.133 60.75 91.245 60.862 91.245 61V67C91.245 67.138 91.133 67.25 90.995 67.25Z" fill="#282A36"/>
<path d="M88.581 67.25C88.443 67.25 88.331 67.138 88.331 67V65C88.331 64.862 88.443 64.75 88.581 64.75C88.719 64.75 88.831 64.862 88.831 65V67C88.831 67.138 88.72 67.25 88.581 67.25Z" fill="#282A36"/>
<path d="M86.168 67.25C86.03 67.25 85.918 67.138 85.918 67V61C85.918 60.862 86.03 60.75 86.168 60.75C86.306 60.75 86.418 60.862 86.418 61V67C86.418 67.138 86.307 67.25 86.168 67.25Z" fill="#282A36"/>
<path d="M83.755 67.25C83.617 67.25 83.505 67.138 83.505 67V65C83.505 64.862 83.617 64.75 83.755 64.75C83.893 64.75 84.005 64.862 84.005 65V67C84.005 67.138 83.894 67.25 83.755 67.25Z" fill="#282A36"/>
<path d="M81.342 67.25C81.204 67.25 81.092 67.138 81.092 67V57C81.092 56.862 81.204 56.75 81.342 56.75C81.48 56.75 81.592 56.862 81.592 57V67C81.592 67.138 81.48 67.25 81.342 67.25Z" fill="#282A36"/>
<path d="M78.929 67.25C78.791 67.25 78.679 67.138 78.679 67V65C78.679 64.862 78.791 64.75 78.929 64.75C79.067 64.75 79.179 64.862 79.179 65V67C79.179 67.138 79.067 67.25 78.929 67.25Z" fill="#282A36"/>
<path d="M76.517 67.25C76.379 67.25 76.267 67.138 76.267 67V61C76.267 60.862 76.379 60.75 76.517 60.75C76.655 60.75 76.767 60.862 76.767 61V67C76.767 67.138 76.655 67.25 76.517 67.25Z" fill="#282A36"/>
<path d="M74.104 67.25C73.966 67.25 73.854 67.138 73.854 67V65C73.854 64.862 73.966 64.75 74.104 64.75C74.242 64.75 74.354 64.862 74.354 65V67C74.354 67.138 74.242 67.25 74.104 67.25Z" fill="#282A36"/>
<path d="M71.69 67.25C71.552 67.25 71.44 67.138 71.44 67V61C71.44 60.862 71.552 60.75 71.69 60.75C71.828 60.75 71.94 60.862 71.94 61V67C71.94 67.138 71.829 67.25 71.69 67.25Z" fill="#282A36"/>
<path d="M69.277 67.25C69.139 67.25 69.027 67.138 69.027 67V65C69.027 64.862 69.139 64.75 69.277 64.75C69.415 64.75 69.527 64.862 69.527 65V67C69.527 67.138 69.415 67.25 69.277 67.25Z" fill="#282A36"/>
<path d="M66.864 67.25C66.726 67.25 66.614 67.138 66.614 67V61C66.614 60.862 66.726 60.75 66.864 60.75C67.002 60.75 67.114 60.862 67.114 61V67C67.114 67.138 67.002 67.25 66.864 67.25Z" fill="#282A36"/>
<path d="M64.451 67.25C64.313 67.25 64.201 67.138 64.201 67V65C64.201 64.862 64.313 64.75 64.451 64.75C64.589 64.75 64.701 64.862 64.701 65V67C64.701 67.138 64.589 67.25 64.451 67.25Z" fill="#282A36"/>
<path d="M62.039 67.25C61.901 67.25 61.789 67.138 61.789 67V61C61.789 60.862 61.901 60.75 62.039 60.75C62.177 60.75 62.289 60.862 62.289 61V67C62.289 67.138 62.177 67.25 62.039 67.25Z" fill="#282A36"/>
<path d="M59.626 67.25C59.488 67.25 59.376 67.138 59.376 67V65C59.376 64.862 59.488 64.75 59.626 64.75C59.764 64.75 59.876 64.862 59.876 65V67C59.876 67.138 59.764 67.25 59.626 67.25Z" fill="#282A36"/>
<path d="M151.319 67.25C151.181 67.25 151.069 67.138 151.069 67V65C151.069 64.862 151.181 64.75 151.319 64.75C151.457 64.75 151.569 64.862 151.569 65V67C151.569 67.138 151.457 67.25 151.319 67.25Z" fill="#282A36"/>
<path d="M148.906 67.25C148.768 67.25 148.656 67.138 148.656 67V61C148.656 60.862 148.768 60.75 148.906 60.75C149.044 60.75 149.156 60.862 149.156 61V67C149.156 67.138 149.044 67.25 148.906 67.25Z" fill="#282A36"/>
<path d="M146.493 67.25C146.355 67.25 146.243 67.138 146.243 67V65C146.243 64.862 146.355 64.75 146.493 64.75C146.631 64.75 146.743 64.862 146.743 65V67C146.743 67.138 146.631 67.25 146.493 67.25Z" fill="#282A36"/>
<path d="M144.081 67.25C143.943 67.25 143.831 67.138 143.831 67V61C143.831 60.862 143.943 60.75 144.081 60.75C144.219 60.75 144.331 60.862 144.331 61V67C144.331 67.138 144.219 67.25 144.081 67.25Z" fill="#282A36"/>
<path d="M141.667 67.25C141.529 67.25 141.417 67.138 141.417 67V65C141.417 64.862 141.529 64.75 141.667 64.75C141.805 64.75 141.917 64.862 141.917 65V67C141.917 67.138 141.806 67.25 141.667 67.25Z" fill="#282A36"/>
<path d="M139.254 67.25C139.116 67.25 139.004 67.138 139.004 67V61C139.004 60.862 139.116 60.75 139.254 60.75C139.392 60.75 139.504 60.862 139.504 61V67C139.504 67.138 139.393 67.25 139.254 67.25Z" fill="#282A36"/>
<path d="M136.841 67.25C136.703 67.25 136.591 67.138 136.591 67V65C136.591 64.862 136.703 64.75 136.841 64.75C136.979 64.75 137.091 64.862 137.091 65V67C137.091 67.138 136.979 67.25 136.841 67.25Z" fill="#282A36"/>
<path d="M134.428 67.25C134.29 67.25 134.178 67.138 134.178 67V61C134.178 60.862 134.29 60.75 134.428 60.75C134.566 60.75 134.678 60.862 134.678 61V67C134.678 67.138 134.566 67.25 134.428 67.25Z" fill="#282A36"/>
<path d="M132.016 67.25C131.878 67.25 131.766 67.138 131.766 67V65C131.766 64.862 131.878 64.75 132.016 64.75C132.154 64.75 132.266 64.862 132.266 65V67C132.266 67.138 132.154 67.25 132.016 67.25Z" fill="#282A36"/>
<path d="M129.602 67.25C129.464 67.25 129.352 67.138 129.352 67V57C129.352 56.862 129.464 56.75 129.602 56.75C129.74 56.75 129.852 56.862 129.852 57V67C129.852 67.138 129.741 67.25 129.602 67.25Z" fill="#282A36"/>
<path d="M127.189 67.25C127.051 67.25 126.939 67.138 126.939 67V65C126.939 64.862 127.051 64.75 127.189 64.75C127.327 64.75 127.439 64.862 127.439 65V67C127.439 67.138 127.328 67.25 127.189 67.25Z" fill="#282A36"/>
<path d="M124.776 67.25C124.638 67.25 124.526 67.138 124.526 67V61C124.526 60.862 124.638 60.75 124.776 60.75C124.914 60.75 125.026 60.862 125.026 61V67C125.026 67.138 124.915 67.25 124.776 67.25Z" fill="#282A36"/>
<path d="M122.363 67.25C122.225 67.25 122.113 67.138 122.113 67V65C122.113 64.862 122.225 64.75 122.363 64.75C122.501 64.75 122.613 64.862 122.613 65V67C122.613 67.138 122.501 67.25 122.363 67.25Z" fill="#282A36"/>
<path d="M119.95 67.25C119.812 67.25 119.7 67.138 119.7 67V61C119.7 60.862 119.812 60.75 119.95 60.75C120.088 60.75 120.2 60.862 120.2 61V67C120.2 67.138 120.088 67.25 119.95 67.25Z" fill="#282A36"/>
<path d="M117.538 67.25C117.4 67.25 117.288 67.138 117.288 67V65C117.288 64.862 117.4 64.75 117.538 64.75C117.676 64.75 117.788 64.862 117.788 65V67C117.788 67.138 117.676 67.25 117.538 67.25Z" fill="#282A36"/>
<path d="M115.124 67.25C114.986 67.25 114.874 67.138 114.874 67V61C114.874 60.862 114.986 60.75 115.124 60.75C115.262 60.75 115.374 60.862 115.374 61V67C115.374 67.138 115.263 67.25 115.124 67.25Z" fill="#282A36"/>
<path d="M112.711 67.25C112.573 67.25 112.461 67.138 112.461 67V65C112.461 64.862 112.573 64.75 112.711 64.75C112.849 64.75 112.961 64.862 112.961 65V67C112.961 67.138 112.85 67.25 112.711 67.25Z" fill="#282A36"/>
<path d="M110.298 67.25C110.16 67.25 110.048 67.138 110.048 67V61C110.048 60.862 110.16 60.75 110.298 60.75C110.436 60.75 110.548 60.862 110.548 61V67C110.548 67.138 110.436 67.25 110.298 67.25Z" fill="#282A36"/>
<path d="M107.885 67.25C107.747 67.25 107.635 67.138 107.635 67V65C107.635 64.862 107.747 64.75 107.885 64.75C108.023 64.75 108.135 64.862 108.135 65V67C108.135 67.138 108.023 67.25 107.885 67.25Z" fill="#282A36"/>
<path d="M199.58 67.25C199.442 67.25 199.33 67.138 199.33 67V65C199.33 64.862 199.442 64.75 199.58 64.75C199.718 64.75 199.83 64.862 199.83 65V67C199.83 67.138 199.718 67.25 199.58 67.25Z" fill="#282A36"/>
<path d="M197.166 67.25C197.028 67.25 196.916 67.138 196.916 67V61C196.916 60.862 197.028 60.75 197.166 60.75C197.304 60.75 197.416 60.862 197.416 61V67C197.416 67.138 197.305 67.25 197.166 67.25Z" fill="#282A36"/>
<path d="M194.753 67.25C194.615 67.25 194.503 67.138 194.503 67V65C194.503 64.862 194.615 64.75 194.753 64.75C194.891 64.75 195.003 64.862 195.003 65V67C195.003 67.138 194.892 67.25 194.753 67.25Z" fill="#282A36"/>
<path d="M192.34 67.25C192.202 67.25 192.09 67.138 192.09 67V61C192.09 60.862 192.202 60.75 192.34 60.75C192.478 60.75 192.59 60.862 192.59 61V67C192.59 67.138 192.479 67.25 192.34 67.25Z" fill="#282A36"/>
<path d="M189.927 67.25C189.789 67.25 189.677 67.138 189.677 67V65C189.677 64.862 189.789 64.75 189.927 64.75C190.065 64.75 190.177 64.862 190.177 65V67C190.177 67.138 190.065 67.25 189.927 67.25Z" fill="#282A36"/>
<path d="M187.514 67.25C187.376 67.25 187.264 67.138 187.264 67V61C187.264 60.862 187.376 60.75 187.514 60.75C187.652 60.75 187.764 60.862 187.764 61V67C187.764 67.138 187.652 67.25 187.514 67.25Z" fill="#282A36"/>
<path d="M185.102 67.25C184.964 67.25 184.852 67.138 184.852 67V65C184.852 64.862 184.964 64.75 185.102 64.75C185.24 64.75 185.352 64.862 185.352 65V67C185.352 67.138 185.24 67.25 185.102 67.25Z" fill="#282A36"/>
<path d="M182.688 67.25C182.55 67.25 182.438 67.138 182.438 67V61C182.438 60.862 182.55 60.75 182.688 60.75C182.826 60.75 182.938 60.862 182.938 61V67C182.938 67.138 182.827 67.25 182.688 67.25Z" fill="#282A36"/>
<path d="M180.275 67.25C180.137 67.25 180.025 67.138 180.025 67V65C180.025 64.862 180.137 64.75 180.275 64.75C180.413 64.75 180.525 64.862 180.525 65V67C180.525 67.138 180.414 67.25 180.275 67.25Z" fill="#282A36"/>
<path d="M177.862 67.25C177.724 67.25 177.612 67.138 177.612 67V57C177.612 56.862 177.724 56.75 177.862 56.75C178 56.75 178.112 56.862 178.112 57V67C178.112 67.138 178 67.25 177.862 67.25Z" fill="#282A36"/>
<path d="M175.449 67.25C175.311 67.25 175.199 67.138 175.199 67V65C175.199 64.862 175.311 64.75 175.449 64.75C175.587 64.75 175.699 64.862 175.699 65V67C175.699 67.138 175.587 67.25 175.449 67.25Z" fill="#282A36"/>
<path d="M173.037 67.25C172.899 67.25 172.787 67.138 172.787 67V61C172.787 60.862 172.899 60.75 173.037 60.75C173.175 60.75 173.287 60.862 173.287 61V67C173.287 67.138 173.175 67.25 173.037 67.25Z" fill="#282A36"/>
<path d="M170.623 67.25C170.485 67.25 170.373 67.138 170.373 67V65C170.373 64.862 170.485 64.75 170.623 64.75C170.761 64.75 170.873 64.862 170.873 65V67C170.873 67.138 170.762 67.25 170.623 67.25Z" fill="#282A36"/>
<path d="M168.21 67.25C168.072 67.25 167.96 67.138 167.96 67V61C167.96 60.862 168.072 60.75 168.21 60.75C168.348 60.75 168.46 60.862 168.46 61V67C168.46 67.138 168.349 67.25 168.21 67.25Z" fill="#282A36"/>
<path d="M165.797 67.25C165.659 67.25 165.547 67.138 165.547 67V65C165.547 64.862 165.659 64.75 165.797 64.75C165.935 64.75 166.047 64.862 166.047 65V67C166.047 67.138 165.936 67.25 165.797 67.25Z" fill="#282A36"/>
<path d="M163.384 67.25C163.246 67.25 163.134 67.138 163.134 67V61C163.134 60.862 163.246 60.75 163.384 60.75C163.522 60.75 163.634 60.862 163.634 61V67C163.634 67.138 163.522 67.25 163.384 67.25Z" fill="#282A36"/>
<path d="M160.971 67.25C160.833 67.25 160.721 67.138 160.721 67V65C160.721 64.862 160.833 64.75 160.971 64.75C161.109 64.75 161.221 64.862 161.221 65V67C161.221 67.138 161.109 67.25 160.971 67.25Z" fill="#282A36"/>
<path d="M158.559 67.25C158.421 67.25 158.309 67.138 158.309 67V61C158.309 60.862 158.421 60.75 158.559 60.75C158.697 60.75 158.809 60.862 158.809 61V67C158.809 67.138 158.697 67.25 158.559 67.25Z" fill="#282A36"/>
<path d="M156.145 67.25C156.007 67.25 155.895 67.138 155.895 67V65C155.895 64.862 156.007 64.75 156.145 64.75C156.283 64.75 156.395 64.862 156.395 65V67C156.395 67.138 156.284 67.25 156.145 67.25Z" fill="#282A36"/>
<path d="M247.84 67.25C247.702 67.25 247.59 67.138 247.59 67V65C247.59 64.862 247.702 64.75 247.84 64.75C247.978 64.75 248.09 64.862 248.09 65V67C248.09 67.138 247.977 67.25 247.84 67.25Z" fill="#282A36"/>
<path d="M245.427 67.25C245.289 67.25 245.177 67.138 245.177 67V61C245.177 60.862 245.289 60.75 245.427 60.75C245.565 60.75 245.677 60.862 245.677 61V67C245.677 67.138 245.564 67.25 245.427 67.25Z" fill="#282A36"/>
<path d="M243.014 67.25C242.876 67.25 242.764 67.138 242.764 67V65C242.764 64.862 242.876 64.75 243.014 64.75C243.152 64.75 243.264 64.862 243.264 65V67C243.264 67.138 243.151 67.25 243.014 67.25Z" fill="#282A36"/>
<path d="M240.601 67.25C240.463 67.25 240.351 67.138 240.351 67V61C240.351 60.862 240.463 60.75 240.601 60.75C240.739 60.75 240.851 60.862 240.851 61V67C240.851 67.138 240.738 67.25 240.601 67.25Z" fill="#282A36"/>
<path d="M238.188 67.25C238.05 67.25 237.938 67.138 237.938 67V65C237.938 64.862 238.05 64.75 238.188 64.75C238.326 64.75 238.438 64.862 238.438 65V67C238.438 67.138 238.325 67.25 238.188 67.25Z" fill="#282A36"/>
<path d="M235.774 67.25C235.636 67.25 235.524 67.138 235.524 67V61C235.524 60.862 235.636 60.75 235.774 60.75C235.912 60.75 236.024 60.862 236.024 61V67C236.024 67.138 235.912 67.25 235.774 67.25Z" fill="#282A36"/>
<path d="M233.361 67.25C233.223 67.25 233.111 67.138 233.111 67V65C233.111 64.862 233.223 64.75 233.361 64.75C233.499 64.75 233.611 64.862 233.611 65V67C233.611 67.138 233.499 67.25 233.361 67.25Z" fill="#282A36"/>
<path d="M230.948 67.25C230.81 67.25 230.698 67.138 230.698 67V61C230.698 60.862 230.81 60.75 230.948 60.75C231.086 60.75 231.198 60.862 231.198 61V67C231.198 67.138 231.086 67.25 230.948 67.25Z" fill="#282A36"/>
<path d="M228.535 67.25C228.397 67.25 228.285 67.138 228.285 67V65C228.285 64.862 228.397 64.75 228.535 64.75C228.673 64.75 228.785 64.862 228.785 65V67C228.785 67.138 228.673 67.25 228.535 67.25Z" fill="#282A36"/>
<path d="M226.122 67.25C225.984 67.25 225.872 67.138 225.872 67V57C225.872 56.862 225.984 56.75 226.122 56.75C226.26 56.75 226.372 56.862 226.372 57V67C226.372 67.138 226.26 67.25 226.122 67.25Z" fill="#282A36"/>
<path d="M223.709 67.25C223.571 67.25 223.459 67.138 223.459 67V65C223.459 64.862 223.571 64.75 223.709 64.75C223.847 64.75 223.959 64.862 223.959 65V67C223.959 67.138 223.847 67.25 223.709 67.25Z" fill="#282A36"/>
<path d="M221.297 67.25C221.159 67.25 221.047 67.138 221.047 67V61C221.047 60.862 221.159 60.75 221.297 60.75C221.435 60.75 221.547 60.862 221.547 61V67C221.547 67.138 221.435 67.25 221.297 67.25Z" fill="#282A36"/>
<path d="M218.884 67.25C218.746 67.25 218.634 67.138 218.634 67V65C218.634 64.862 218.746 64.75 218.884 64.75C219.022 64.75 219.134 64.862 219.134 65V67C219.134 67.138 219.021 67.25 218.884 67.25Z" fill="#282A36"/>
<path d="M216.471 67.25C216.333 67.25 216.221 67.138 216.221 67V61C216.221 60.862 216.333 60.75 216.471 60.75C216.609 60.75 216.721 60.862 216.721 61V67C216.721 67.138 216.608 67.25 216.471 67.25Z" fill="#282A36"/>
<path d="M214.058 67.25C213.92 67.25 213.808 67.138 213.808 67V65C213.808 64.862 213.92 64.75 214.058 64.75C214.196 64.75 214.308 64.862 214.308 65V67C214.308 67.138 214.195 67.25 214.058 67.25Z" fill="#282A36"/>
<path d="M211.645 67.25C211.507 67.25 211.395 67.138 211.395 67V61C211.395 60.862 211.507 60.75 211.645 60.75C211.783 60.75 211.895 60.862 211.895 61V67C211.895 67.138 211.782 67.25 211.645 67.25Z" fill="#282A36"/>
<path d="M209.231 67.25C209.093 67.25 208.981 67.138 208.981 67V65C208.981 64.862 209.093 64.75 209.231 64.75C209.369 64.75 209.481 64.862 209.481 65V67C209.481 67.138 209.369 67.25 209.231 67.25Z" fill="#282A36"/>
<path d="M206.818 67.25C206.68 67.25 206.568 67.138 206.568 67V61C206.568 60.862 206.68 60.75 206.818 60.75C206.956 60.75 207.068 60.862 207.068 61V67C207.068 67.138 206.956 67.25 206.818 67.25Z" fill="#282A36"/>
<path d="M204.405 67.25C204.267 67.25 204.155 67.138 204.155 67V65C204.155 64.862 204.267 64.75 204.405 64.75C204.543 64.75 204.655 64.862 204.655 65V67C204.655 67.138 204.543 67.25 204.405 67.25Z" fill="#282A36"/>
<path d="M296.1 67.25C295.962 67.25 295.85 67.138 295.85 67V65C295.85 64.862 295.962 64.75 296.1 64.75C296.238 64.75 296.35 64.862 296.35 65V67C296.35 67.138 296.237 67.25 296.1 67.25Z" fill="#282A36"/>
<path d="M293.686 67.25C293.548 67.25 293.436 67.138 293.436 67V61C293.436 60.862 293.548 60.75 293.686 60.75C293.824 60.75 293.936 60.862 293.936 61V67C293.936 67.138 293.824 67.25 293.686 67.25Z" fill="#282A36"/>
<path d="M291.273 67.25C291.135 67.25 291.023 67.138 291.023 67V65C291.023 64.862 291.135 64.75 291.273 64.75C291.411 64.75 291.523 64.862 291.523 65V67C291.523 67.138 291.411 67.25 291.273 67.25Z" fill="#282A36"/>
<path d="M288.86 67.25C288.722 67.25 288.61 67.138 288.61 67V61C288.61 60.862 288.722 60.75 288.86 60.75C288.998 60.75 289.11 60.862 289.11 61V67C289.11 67.138 288.998 67.25 288.86 67.25Z" fill="#282A36"/>
<path d="M286.447 67.25C286.309 67.25 286.197 67.138 286.197 67V65C286.197 64.862 286.309 64.75 286.447 64.75C286.585 64.75 286.697 64.862 286.697 65V67C286.697 67.138 286.585 67.25 286.447 67.25Z" fill="#282A36"/>
<path d="M284.034 67.25C283.896 67.25 283.784 67.138 283.784 67V61C283.784 60.862 283.896 60.75 284.034 60.75C284.172 60.75 284.284 60.862 284.284 61V67C284.284 67.138 284.172 67.25 284.034 67.25Z" fill="#282A36"/>
<path d="M281.621 67.25C281.483 67.25 281.371 67.138 281.371 67V65C281.371 64.862 281.483 64.75 281.621 64.75C281.759 64.75 281.871 64.862 281.871 65V67C281.871 67.138 281.759 67.25 281.621 67.25Z" fill="#282A36"/>
<path d="M279.208 67.25C279.07 67.25 278.958 67.138 278.958 67V61C278.958 60.862 279.07 60.75 279.208 60.75C279.346 60.75 279.458 60.862 279.458 61V67C279.458 67.138 279.346 67.25 279.208 67.25Z" fill="#282A36"/>
<path d="M276.795 67.25C276.657 67.25 276.545 67.138 276.545 67V65C276.545 64.862 276.657 64.75 276.795 64.75C276.933 64.75 277.045 64.862 277.045 65V67C277.045 67.138 276.933 67.25 276.795 67.25Z" fill="#282A36"/>
<path d="M274.383 67.25C274.245 67.25 274.133 67.138 274.133 67V57C274.133 56.862 274.245 56.75 274.383 56.75C274.521 56.75 274.633 56.862 274.633 57V67C274.633 67.138 274.52 67.25 274.383 67.25Z" fill="#282A36"/>
<path d="M271.97 67.25C271.832 67.25 271.72 67.138 271.72 67V65C271.72 64.862 271.832 64.75 271.97 64.75C272.108 64.75 272.22 64.862 272.22 65V67C272.22 67.138 272.107 67.25 271.97 67.25Z" fill="#282A36"/>
<path d="M269.557 67.25C269.419 67.25 269.307 67.138 269.307 67V61C269.307 60.862 269.419 60.75 269.557 60.75C269.695 60.75 269.807 60.862 269.807 61V67C269.807 67.138 269.694 67.25 269.557 67.25Z" fill="#282A36"/>
<path d="M267.144 67.25C267.006 67.25 266.894 67.138 266.894 67V65C266.894 64.862 267.006 64.75 267.144 64.75C267.282 64.75 267.394 64.862 267.394 65V67C267.394 67.138 267.281 67.25 267.144 67.25Z" fill="#282A36"/>
<path d="M264.73 67.25C264.592 67.25 264.48 67.138 264.48 67V61C264.48 60.862 264.592 60.75 264.73 60.75C264.868 60.75 264.98 60.862 264.98 61V67C264.98 67.138 264.868 67.25 264.73 67.25Z" fill="#282A36"/>
<path d="M262.317 67.25C262.179 67.25 262.067 67.138 262.067 67V65C262.067 64.862 262.179 64.75 262.317 64.75C262.455 64.75 262.567 64.862 262.567 65V67C262.567 67.138 262.455 67.25 262.317 67.25Z" fill="#282A36"/>
<path d="M259.904 67.25C259.766 67.25 259.654 67.138 259.654 67V61C259.654 60.862 259.766 60.75 259.904 60.75C260.042 60.75 260.154 60.862 260.154 61V67C260.154 67.138 260.042 67.25 259.904 67.25Z" fill="#282A36"/>
<path d="M257.491 67.25C257.353 67.25 257.241 67.138 257.241 67V65C257.241 64.862 257.353 64.75 257.491 64.75C257.629 64.75 257.741 64.862 257.741 65V67C257.741 67.138 257.629 67.25 257.491 67.25Z" fill="#282A36"/>
<path d="M255.078 67.25C254.94 67.25 254.828 67.138 254.828 67V61C254.828 60.862 254.94 60.75 255.078 60.75C255.216 60.75 255.328 60.862 255.328 61V67C255.328 67.138 255.216 67.25 255.078 67.25Z" fill="#282A36"/>
<path d="M252.665 67.25C252.527 67.25 252.415 67.138 252.415 67V65C252.415 64.862 252.527 64.75 252.665 64.75C252.803 64.75 252.915 64.862 252.915 65V67C252.915 67.138 252.803 67.25 252.665 67.25Z" fill="#282A36"/>
<path d="M344.359 67.25C344.221 67.25 344.109 67.138 344.109 67V65C344.109 64.862 344.221 64.75 344.359 64.75C344.497 64.75 344.609 64.862 344.609 65V67C344.609 67.138 344.497 67.25 344.359 67.25Z" fill="#282A36"/>
<path d="M341.946 67.25C341.808 67.25 341.696 67.138 341.696 67V61C341.696 60.862 341.808 60.75 341.946 60.75C342.084 60.75 342.196 60.862 342.196 61V67C342.196 67.138 342.084 67.25 341.946 67.25Z" fill="#282A36"/>
<path d="M339.533 67.25C339.395 67.25 339.283 67.138 339.283 67V65C339.283 64.862 339.395 64.75 339.533 64.75C339.671 64.75 339.783 64.862 339.783 65V67C339.783 67.138 339.671 67.25 339.533 67.25Z" fill="#282A36"/>
<path d="M337.12 67.25C336.982 67.25 336.87 67.138 336.87 67V61C336.87 60.862 336.982 60.75 337.12 60.75C337.258 60.75 337.37 60.862 337.37 61V67C337.37 67.138 337.258 67.25 337.12 67.25Z" fill="#282A36"/>
<path d="M334.707 67.25C334.569 67.25 334.457 67.138 334.457 67V65C334.457 64.862 334.569 64.75 334.707 64.75C334.845 64.75 334.957 64.862 334.957 65V67C334.957 67.138 334.845 67.25 334.707 67.25Z" fill="#282A36"/>
<path d="M332.294 67.25C332.156 67.25 332.044 67.138 332.044 67V61C332.044 60.862 332.156 60.75 332.294 60.75C332.432 60.75 332.544 60.862 332.544 61V67C332.544 67.138 332.432 67.25 332.294 67.25Z" fill="#282A36"/>
<path d="M329.882 67.25C329.744 67.25 329.632 67.138 329.632 67V65C329.632 64.862 329.744 64.75 329.882 64.75C330.02 64.75 330.132 64.862 330.132 65V67C330.132 67.138 330.02 67.25 329.882 67.25Z" fill="#282A36"/>
<path d="M327.469 67.25C327.331 67.25 327.219 67.138 327.219 67V61C327.219 60.862 327.331 60.75 327.469 60.75C327.607 60.75 327.719 60.862 327.719 61V67C327.719 67.138 327.606 67.25 327.469 67.25Z" fill="#282A36"/>
<path d="M325.056 67.25C324.918 67.25 324.806 67.138 324.806 67V65C324.806 64.862 324.918 64.75 325.056 64.75C325.194 64.75 325.306 64.862 325.306 65V67C325.306 67.138 325.193 67.25 325.056 67.25Z" fill="#282A36"/>
<path d="M322.643 67.25C322.505 67.25 322.393 67.138 322.393 67V57C322.393 56.862 322.505 56.75 322.643 56.75C322.781 56.75 322.893 56.862 322.893 57V67C322.893 67.138 322.78 67.25 322.643 67.25Z" fill="#282A36"/>
<path d="M320.229 67.25C320.091 67.25 319.979 67.138 319.979 67V65C319.979 64.862 320.091 64.75 320.229 64.75C320.367 64.75 320.479 64.862 320.479 65V67C320.479 67.138 320.367 67.25 320.229 67.25Z" fill="#282A36"/>
<path d="M317.816 67.25C317.678 67.25 317.566 67.138 317.566 67V61C317.566 60.862 317.678 60.75 317.816 60.75C317.954 60.75 318.066 60.862 318.066 61V67C318.066 67.138 317.954 67.25 317.816 67.25Z" fill="#282A36"/>
<path d="M315.403 67.25C315.265 67.25 315.153 67.138 315.153 67V65C315.153 64.862 315.265 64.75 315.403 64.75C315.541 64.75 315.653 64.862 315.653 65V67C315.653 67.138 315.541 67.25 315.403 67.25Z" fill="#282A36"/>
<path d="M312.99 67.25C312.852 67.25 312.74 67.138 312.74 67V61C312.74 60.862 312.852 60.75 312.99 60.75C313.128 60.75 313.24 60.862 313.24 61V67C313.24 67.138 313.128 67.25 312.99 67.25Z" fill="#282A36"/>
<path d="M310.577 67.25C310.439 67.25 310.327 67.138 310.327 67V65C310.327 64.862 310.439 64.75 310.577 64.75C310.715 64.75 310.827 64.862 310.827 65V67C310.827 67.138 310.715 67.25 310.577 67.25Z" fill="#282A36"/>
<path d="M308.164 67.25C308.026 67.25 307.914 67.138 307.914 67V61C307.914 60.862 308.026 60.75 308.164 60.75C308.302 60.75 308.414 60.862 308.414 61V67C308.414 67.138 308.302 67.25 308.164 67.25Z" fill="#282A36"/>
<path d="M305.751 67.25C305.613 67.25 305.501 67.138 305.501 67V65C305.501 64.862 305.613 64.75 305.751 64.75C305.889 64.75 306.001 64.862 306.001 65V67C306.001 67.138 305.889 67.25 305.751 67.25Z" fill="#282A36"/>
<path d="M303.339 67.25C303.201 67.25 303.089 67.138 303.089 67V61C303.089 60.862 303.201 60.75 303.339 60.75C303.477 60.75 303.589 60.862 303.589 61V67C303.589 67.138 303.477 67.25 303.339 67.25Z" fill="#282A36"/>
<path d="M300.926 67.25C300.788 67.25 300.676 67.138 300.676 67V65C300.676 64.862 300.788 64.75 300.926 64.75C301.064 64.75 301.176 64.862 301.176 65V67C301.176 67.138 301.063 67.25 300.926 67.25Z" fill="#282A36"/>
<path d="M392.619 67.25C392.481 67.25 392.369 67.138 392.369 67V65C392.369 64.862 392.481 64.75 392.619 64.75C392.757 64.75 392.869 64.862 392.869 65V67C392.869 67.138 392.757 67.25 392.619 67.25Z" fill="#282A36"/>
<path d="M390.206 67.25C390.068 67.25 389.956 67.138 389.956 67V61C389.956 60.862 390.068 60.75 390.206 60.75C390.344 60.75 390.456 60.862 390.456 61V67C390.456 67.138 390.344 67.25 390.206 67.25Z" fill="#282A36"/>
<path d="M387.793 67.25C387.655 67.25 387.543 67.138 387.543 67V65C387.543 64.862 387.655 64.75 387.793 64.75C387.931 64.75 388.043 64.862 388.043 65V67C388.043 67.138 387.931 67.25 387.793 67.25Z" fill="#282A36"/>
<path d="M385.381 67.25C385.243 67.25 385.131 67.138 385.131 67V61C385.131 60.862 385.243 60.75 385.381 60.75C385.519 60.75 385.631 60.862 385.631 61V67C385.631 67.138 385.519 67.25 385.381 67.25Z" fill="#282A36"/>
<path d="M382.968 67.25C382.83 67.25 382.718 67.138 382.718 67V65C382.718 64.862 382.83 64.75 382.968 64.75C383.106 64.75 383.218 64.862 383.218 65V67C383.218 67.138 383.105 67.25 382.968 67.25Z" fill="#282A36"/>
<path d="M380.555 67.25C380.417 67.25 380.305 67.138 380.305 67V61C380.305 60.862 380.417 60.75 380.555 60.75C380.693 60.75 380.805 60.862 380.805 61V67C380.805 67.138 380.692 67.25 380.555 67.25Z" fill="#282A36"/>
<path d="M378.142 67.25C378.004 67.25 377.892 67.138 377.892 67V65C377.892 64.862 378.004 64.75 378.142 64.75C378.28 64.75 378.392 64.862 378.392 65V67C378.392 67.138 378.279 67.25 378.142 67.25Z" fill="#282A36"/>
<path d="M375.728 67.25C375.59 67.25 375.478 67.138 375.478 67V61C375.478 60.862 375.59 60.75 375.728 60.75C375.866 60.75 375.978 60.862 375.978 61V67C375.978 67.138 375.866 67.25 375.728 67.25Z" fill="#282A36"/>
<path d="M373.315 67.25C373.177 67.25 373.065 67.138 373.065 67V65C373.065 64.862 373.177 64.75 373.315 64.75C373.453 64.75 373.565 64.862 373.565 65V67C373.565 67.138 373.453 67.25 373.315 67.25Z" fill="#282A36"/>
<path d="M370.902 67.25C370.764 67.25 370.652 67.138 370.652 67V57C370.652 56.862 370.764 56.75 370.902 56.75C371.04 56.75 371.152 56.862 371.152 57V67C371.152 67.138 371.04 67.25 370.902 67.25Z" fill="#282A36"/>
<path d="M368.489 67.25C368.351 67.25 368.239 67.138 368.239 67V65C368.239 64.862 368.351 64.75 368.489 64.75C368.627 64.75 368.739 64.862 368.739 65V67C368.739 67.138 368.627 67.25 368.489 67.25Z" fill="#282A36"/>
<path d="M366.076 67.25C365.938 67.25 365.826 67.138 365.826 67V61C365.826 60.862 365.938 60.75 366.076 60.75C366.214 60.75 366.326 60.862 366.326 61V67C366.326 67.138 366.214 67.25 366.076 67.25Z" fill="#282A36"/>
<path d="M363.663 67.25C363.525 67.25 363.413 67.138 363.413 67V65C363.413 64.862 363.525 64.75 363.663 64.75C363.801 64.75 363.913 64.862 363.913 65V67C363.913 67.138 363.801 67.25 363.663 67.25Z" fill="#282A36"/>
<path d="M361.25 67.25C361.112 67.25 361 67.138 361 67V61C361 60.862 361.112 60.75 361.25 60.75C361.388 60.75 361.5 60.862 361.5 61V67C361.5 67.138 361.388 67.25 361.25 67.25Z" fill="#282A36"/>
<path d="M358.837 67.25C358.699 67.25 358.587 67.138 358.587 67V65C358.587 64.862 358.699 64.75 358.837 64.75C358.975 64.75 359.087 64.862 359.087 65V67C359.087 67.138 358.975 67.25 358.837 67.25Z" fill="#282A36"/>
<path d="M356.425 67.25C356.287 67.25 356.175 67.138 356.175 67V61C356.175 60.862 356.287 60.75 356.425 60.75C356.563 60.75 356.675 60.862 356.675 61V67C356.675 67.138 356.563 67.25 356.425 67.25Z" fill="#282A36"/>
<path d="M354.012 67.25C353.874 67.25 353.762 67.138 353.762 67V65C353.762 64.862 353.874 64.75 354.012 64.75C354.15 64.75 354.262 64.862 354.262 65V67C354.262 67.138 354.149 67.25 354.012 67.25Z" fill="#282A36"/>
<path d="M351.599 67.25C351.461 67.25 351.349 67.138 351.349 67V61C351.349 60.862 351.461 60.75 351.599 60.75C351.737 60.75 351.849 60.862 351.849 61V67C351.849 67.138 351.736 67.25 351.599 67.25Z" fill="#282A36"/>
<path d="M349.185 67.25C349.047 67.25 348.935 67.138 348.935 67V65C348.935 64.862 349.047 64.75 349.185 64.75C349.323 64.75 349.435 64.862 349.435 65V67C349.435 67.138 349.323 67.25 349.185 67.25Z" fill="#282A36"/>
<path d="M21.327 45.004V52H20.548V45.004H21.327Z" fill="#282A36"/>
<path d="M23.817 52H23.117V45.004H24.107L25.726 50.062V45.004H26.415V52H25.605L23.816 46.343L23.817 52Z" fill="#282A36"/>
<path d="M31.306 46.693V47.322H30.566V46.653C30.566 46.023 30.316 45.643 29.746 45.643C29.186 45.643 28.927 46.023 28.927 46.653V50.35C28.927 50.98 29.187 51.36 29.746 51.36C30.316 51.36 30.566 50.98 30.566 50.35V49.441H31.306V50.31C31.306 51.37 30.806 52.07 29.727 52.07C28.657 52.07 28.158 51.37 28.158 50.31V46.693C28.158 45.633 28.658 44.933 29.727 44.933C30.806 44.934 31.306 45.634 31.306 46.693Z" fill="#282A36"/>
<path d="M33.797 48.852V52H33.018V45.004H33.797V48.152H35.516V45.004H36.296V52H35.516V48.852H33.797Z" fill="#282A36"/>
<path d="M40.586 48.103V48.802H38.877V51.29H40.976V52H38.098V45.004H40.976V45.714H38.877V48.103H40.586Z" fill="#282A36"/>
<path d="M45.726 46.683V46.873H44.986V46.643C44.986 46.014 44.746 45.644 44.187 45.644C43.627 45.644 43.387 46.014 43.387 46.633C43.387 48.202 45.736 48.352 45.736 50.321C45.736 51.38 45.226 52.07 44.157 52.07C43.088 52.07 42.588 51.38 42.588 50.321V49.921H43.317V50.361C43.317 50.99 43.577 51.36 44.136 51.36C44.696 51.36 44.956 50.99 44.956 50.361C44.956 48.801 42.617 48.651 42.617 46.682C42.617 45.603 43.117 44.933 44.166 44.933C45.226 44.934 45.726 45.623 45.726 46.683Z" fill="#282A36"/>
<path d="M56.83 46.273C56.57 46.432 56.23 46.552 55.86 46.573V45.933C56.62 45.903 56.88 45.493 57.06 45.003H57.6V52H56.83V46.273Z" fill="#282A36"/>
<path d="M107.085 46.703C107.085 48.811 104.716 49.571 104.706 51.181V51.29H107.005V52H103.937V51.4C103.937 49.141 106.306 48.702 106.306 46.732C106.306 46.013 106.066 45.633 105.486 45.633C104.917 45.633 104.667 46.042 104.667 46.662V47.281H103.938V46.712C103.938 45.643 104.428 44.933 105.507 44.933C106.595 44.934 107.085 45.634 107.085 46.703Z" fill="#282A36"/>
<path d="M155.306 46.693V46.873C155.306 47.593 155.016 48.103 154.456 48.313C155.045 48.533 155.306 49.062 155.306 49.762V50.301C155.306 51.37 154.806 52.071 153.726 52.071C152.657 52.071 152.157 51.371 152.157 50.301V49.821H152.886V50.35C152.886 50.98 153.146 51.36 153.706 51.36C154.275 51.36 154.525 50.99 154.525 50.281V49.741C154.525 49.052 154.235 48.721 153.646 48.702H153.226V48.002H153.686C154.206 47.982 154.525 47.652 154.525 47.043V46.723C154.525 46.003 154.275 45.634 153.706 45.634C153.146 45.634 152.886 46.024 152.886 46.654V47.013H152.157V46.694C152.157 45.624 152.656 44.934 153.726 44.934C154.806 44.934 155.306 45.623 155.306 46.693Z" fill="#282A36"/>
<path d="M203.23 50.591V52H202.47V50.591H200.211V49.881L202.38 45.004H203.23V49.881H203.789V50.591H203.23ZM200.932 49.881H202.471V46.463L200.932 49.881Z" fill="#282A36"/>
<path d="M249.496 47.853C249.717 47.473 250.066 47.273 250.536 47.273C251.435 47.273 251.835 47.933 251.835 48.932V50.301C251.835 51.37 251.325 52.071 250.256 52.071C249.187 52.071 248.687 51.371 248.687 50.301V49.831H249.417V50.351C249.417 50.981 249.677 51.361 250.236 51.361C250.796 51.361 251.055 50.981 251.055 50.351V48.992C251.055 48.363 250.795 47.983 250.236 47.983C249.806 47.983 249.516 48.222 249.446 48.732V48.892H248.717L248.907 45.004H251.665V45.703H249.606L249.496 47.853Z" fill="#282A36"/>
<path d="M300.105 46.683V46.813H299.376V46.633C299.376 46.003 299.116 45.634 298.547 45.634C297.957 45.634 297.697 46.014 297.697 46.763V48.332C297.886 47.853 298.266 47.582 298.826 47.582C299.725 47.582 300.126 48.232 300.126 49.241V50.301C300.126 51.37 299.596 52.071 298.526 52.071C297.447 52.071 296.917 51.371 296.917 50.301V46.733C296.917 45.624 297.417 44.934 298.526 44.934C299.605 44.934 300.105 45.613 300.105 46.683ZM297.697 49.302V50.351C297.697 50.981 297.957 51.361 298.526 51.361C299.086 51.361 299.356 50.981 299.356 50.351V49.302C299.356 48.672 299.086 48.292 298.526 48.292C297.957 48.292 297.697 48.672 297.697 49.302Z" fill="#282A36"/>
<path d="M348.109 45.703H345.73V45.004H348.898V45.684L347.1 52H346.321L348.109 45.703Z" fill="#282A36"/>
<path d="M396.681 46.663V46.883C396.681 47.593 396.431 48.112 395.881 48.322C396.461 48.551 396.681 49.101 396.681 49.801V50.321C396.681 51.4 396.121 52.07 395.032 52.07C393.943 52.07 393.384 51.4 393.384 50.321V49.801C393.384 49.092 393.604 48.562 394.194 48.322C393.624 48.102 393.384 47.593 393.384 46.883V46.663C393.384 45.584 393.953 44.934 395.032 44.934C396.111 44.934 396.681 45.584 396.681 46.663ZM394.152 46.683V47.023C394.152 47.703 394.481 48.003 395.031 48.003C395.581 48.003 395.911 47.703 395.911 47.023V46.683C395.911 45.963 395.581 45.634 395.031 45.634C394.481 45.634 394.152 45.963 394.152 46.683ZM394.152 49.711V50.301C394.152 51.021 394.471 51.361 395.031 51.361C395.591 51.361 395.901 51.021 395.911 50.301V49.711C395.911 49.031 395.611 48.702 395.031 48.702C394.452 48.702 394.152 49.031 394.152 49.711Z" fill="#282A36"/>
<path d="M7.347 46.693C7.347 45.623 7.877 44.933 8.946 44.933C10.026 44.933 10.555 45.622 10.555 46.693V50.3C10.555 51.369 10.026 52.07 8.946 52.07C7.877 52.07 7.347 51.37 7.347 50.3V46.693ZM8.117 50.351C8.117 50.981 8.387 51.361 8.947 51.361C9.517 51.361 9.777 50.981 9.777 50.351V46.654C9.777 46.014 9.517 45.634 8.947 45.634C8.387 45.634 8.117 46.014 8.117 46.654V50.351Z" fill="#282A36"/>
<defs>
<linearGradient id="paint0_linear_16_3" x1="202" y1="68" x2="202" y2="-4.05312e-06" gradientUnits="userSpaceOnUse">
<stop stop-color="#F1E9DA"/>
<stop offset="0.0164" stop-color="#F6EFE2"/>
<stop offset="0.0478" stop-color="#FBF5EA"/>
<stop offset="0.1" stop-color="#FCF7ED"/>
<stop offset="0.5" stop-color="#F1E9DA"/>
<stop offset="0.7089" stop-color="#F2EBDD"/>
<stop offset="0.8344" stop-color="#F7F1E5"/>
<stop offset="0.9" stop-color="#FCF7ED"/>
<stop offset="0.9522" stop-color="#FBF5EA"/>
<stop offset="0.9836" stop-color="#F6EFE2"/>
<stop offset="1" stop-color="#F1E9DA"/>
</linearGradient>
<linearGradient id="paint1_linear_16_3" x1="19" y1="41" x2="19" y2="34.5" gradientUnits="userSpaceOnUse">
<stop stop-color="#FCF7ED"/>
<stop offset="0.4265" stop-color="#F6F0E3"/>
<stop offset="1" stop-color="#F1E9DA"/>
</linearGradient>
<linearGradient id="paint2_linear_16_3" x1="19" y1="27" x2="19" y2="33.5" gradientUnits="userSpaceOnUse">
<stop stop-color="#FCF7ED"/>
<stop offset="0.4265" stop-color="#F6F0E3"/>
<stop offset="1" stop-color="#F1E9DA"/>
</linearGradient>
<linearGradient id="paint3_linear_16_3" x1="202" y1="0" x2="202" y2="9" gradientUnits="userSpaceOnUse">
<stop stop-color="#FCF7ED"/>
<stop offset="0.4265" stop-color="#F6F0E3"/>
<stop offset="1" stop-color="#F1E9DA"/>
</linearGradient>
<linearGradient id="paint4_linear_16_3" x1="202" y1="68" x2="202" y2="59" gradientUnits="userSpaceOnUse">
<stop stop-color="#FCF7ED"/>
<stop offset="0.4265" stop-color="#F6F0E3"/>
<stop offset="1" stop-color="#F1E9DA"/>
</linearGradient>
</defs>
</svg>
