<svg width="1029" height="682" viewBox="0 0 1029 682" fill="none" xmlns="http://www.w3.org/2000/svg">
<path d="M100.145 554.078L161.626 538.162L117.102 492.875L100.145 554.078ZM575.145 87.078L513.663 102.994L558.187 148.281L575.145 87.078ZM135.442 519.375L139.298 523.297L543.703 125.703L539.847 121.781L535.991 117.859L131.586 515.453L135.442 519.375Z" fill="#06E6FF"/>
<path d="M396 410L443.382 452.289L456.314 390.111L396 410ZM997 535L949.618 492.711L936.686 554.889L997 535ZM444.463 420.08L443.343 425.464L947.417 530.305L948.537 524.92L949.657 519.536L445.583 414.695L444.463 420.08Z" fill="#FBFF00"/>
<circle cx="232" cy="425" r="23" fill="white"/>
<circle cx="232" cy="425" r="8" fill="#06E6FF"/>
<circle cx="583" cy="450" r="23" fill="white"/>
<circle cx="583" cy="450" r="8" fill="#FBFF00"/>
<circle cx="427" cy="234" r="23" fill="white"/>
<circle cx="427" cy="234" r="8" fill="#06E6FF"/>
<circle cx="821" cy="499" r="23" fill="white"/>
<circle cx="821" cy="499" r="8" fill="#FBFF00"/>
<path d="M154.793 366.364H166.17L178.188 395.682H178.699L190.716 366.364H202.094V410H193.145V381.598H192.783L181.49 409.787H175.396L164.104 381.491H163.741V410H154.793V366.364Z" fill="white"/>
<path d="M549.314 531H539.428L554.491 487.364H566.381L581.423 531H571.537L560.607 497.335H560.266L549.314 531ZM548.696 513.848H572.048V521.05H548.696V513.848Z" fill="white"/>
<path d="M436.291 152.364V196H428.322L409.338 168.536H409.018V196H399.793V152.364H407.889L426.724 179.807H427.108V152.364H436.291Z" fill="white"/>
<path d="M801.793 580V536.364H819.264C822.474 536.364 825.152 536.839 827.297 537.791C829.442 538.743 831.054 540.064 832.134 541.754C833.213 543.43 833.753 545.362 833.753 547.55C833.753 549.254 833.412 550.753 832.73 552.045C832.048 553.324 831.111 554.375 829.918 555.199C828.739 556.009 827.389 556.584 825.869 556.925V557.351C827.531 557.422 829.087 557.891 830.536 558.757C831.999 559.624 833.185 560.838 834.094 562.401C835.003 563.949 835.457 565.795 835.457 567.94C835.457 570.256 834.882 572.322 833.732 574.141C832.595 575.945 830.912 577.372 828.682 578.423C826.452 579.474 823.703 580 820.436 580H801.793ZM811.018 572.457H818.54C821.111 572.457 822.986 571.967 824.165 570.987C825.344 569.993 825.933 568.672 825.933 567.024C825.933 565.817 825.642 564.751 825.06 563.828C824.477 562.905 823.646 562.18 822.567 561.655C821.501 561.129 820.23 560.866 818.753 560.866H811.018V572.457ZM811.018 554.624H817.858C819.122 554.624 820.244 554.403 821.224 553.963C822.219 553.509 823 552.869 823.568 552.045C824.151 551.222 824.442 550.234 824.442 549.084C824.442 547.507 823.881 546.236 822.759 545.27C821.651 544.304 820.074 543.821 818.028 543.821H811.018V554.624Z" fill="white"/>
</svg>
