<svg width="911" height="52" viewBox="0 0 911 52" fill="none" xmlns="http://www.w3.org/2000/svg">
<path d="M1.02513 23.2991C-0.341709 24.6659 -0.341709 26.882 1.02513 28.2488L23.299 50.5227C24.6658 51.8895 26.8819 51.8895 28.2487 50.5227C29.6156 49.1558 29.6156 46.9398 28.2487 45.5729L8.44975 25.7739L28.2487 5.97494C29.6156 4.6081 29.6156 2.39202 28.2487 1.02519C26.8819 -0.341646 24.6658 -0.341646 23.299 1.02519L1.02513 23.2991ZM909.975 28.2488C911.342 26.882 911.342 24.6659 909.975 23.2991L887.701 1.02519C886.334 -0.341646 884.118 -0.341646 882.751 1.02519C881.384 2.39202 881.384 4.6081 882.751 5.97494L902.55 25.7739L882.751 45.5729C881.384 46.9398 881.384 49.1558 882.751 50.5227C884.118 51.8895 886.334 51.8895 887.701 50.5227L909.975 28.2488ZM3.5 25.7739V29.2739H907.5V25.7739V22.2739H3.5V25.7739Z" fill="white"/>
</svg>
