<svg width="891" height="639" viewBox="0 0 891 639" fill="none" xmlns="http://www.w3.org/2000/svg">
<path d="M326.809 50L705.615 429.5H186L326.809 50Z" fill="#5FD7FF"/>
<path d="M511.521 157.364V201H502.295V166.121H502.04L492.047 172.385V164.203L502.849 157.364H511.521ZM538.64 201.597C536.395 201.582 534.229 201.206 532.141 200.467C530.067 199.729 528.206 198.528 526.559 196.866C524.911 195.205 523.604 193.003 522.638 190.261C521.686 187.52 521.211 184.153 521.211 180.162C521.225 176.497 521.644 173.223 522.468 170.339C523.306 167.442 524.499 164.984 526.047 162.967C527.61 160.95 529.478 159.416 531.651 158.365C533.824 157.3 536.26 156.767 538.959 156.767C541.871 156.767 544.442 157.335 546.672 158.472C548.902 159.594 550.692 161.121 552.042 163.053C553.405 164.984 554.229 167.151 554.513 169.551H545.415C545.06 168.031 544.314 166.838 543.178 165.972C542.042 165.105 540.635 164.672 538.959 164.672C536.118 164.672 533.959 165.908 532.482 168.379C531.019 170.851 530.273 174.21 530.245 178.457H530.543C531.196 177.165 532.077 176.064 533.185 175.155C534.307 174.232 535.578 173.528 536.999 173.045C538.434 172.548 539.946 172.3 541.537 172.3C544.123 172.3 546.424 172.911 548.441 174.132C550.458 175.339 552.049 177.001 553.213 179.118C554.378 181.234 554.961 183.656 554.961 186.384C554.961 189.338 554.272 191.966 552.894 194.267C551.53 196.568 549.62 198.372 547.162 199.679C544.719 200.972 541.878 201.611 538.64 201.597ZM538.597 194.352C540.017 194.352 541.289 194.011 542.411 193.33C543.533 192.648 544.414 191.724 545.053 190.56C545.692 189.395 546.012 188.088 546.012 186.639C546.012 185.19 545.692 183.891 545.053 182.74C544.428 181.589 543.561 180.673 542.453 179.991C541.346 179.31 540.081 178.969 538.661 178.969C537.596 178.969 536.608 179.168 535.699 179.565C534.804 179.963 534.016 180.517 533.334 181.227C532.667 181.937 532.141 182.761 531.757 183.699C531.374 184.622 531.182 185.609 531.182 186.661C531.182 188.067 531.502 189.352 532.141 190.517C532.794 191.682 533.675 192.612 534.783 193.308C535.905 194.004 537.176 194.352 538.597 194.352ZM590.261 201.639C586.908 201.639 584.025 200.929 581.61 199.509C579.21 198.074 577.363 196.085 576.07 193.543C574.792 191 574.153 188.074 574.153 184.764C574.153 181.412 574.799 178.472 576.092 175.943C577.398 173.401 579.252 171.419 581.653 169.999C584.053 168.564 586.908 167.847 590.218 167.847C593.073 167.847 595.573 168.365 597.718 169.402C599.863 170.439 601.56 171.895 602.81 173.77C604.06 175.645 604.749 177.847 604.877 180.375H596.312C596.07 178.741 595.431 177.428 594.394 176.433C593.371 175.425 592.029 174.92 590.367 174.92C588.961 174.92 587.732 175.304 586.681 176.071C585.644 176.824 584.835 177.925 584.252 179.374C583.67 180.822 583.379 182.577 583.379 184.636C583.379 186.724 583.663 188.5 584.231 189.963C584.813 191.426 585.63 192.541 586.681 193.308C587.732 194.075 588.961 194.459 590.367 194.459C591.404 194.459 592.335 194.246 593.158 193.82C593.996 193.393 594.685 192.776 595.225 191.966C595.779 191.142 596.141 190.155 596.312 189.004H604.877C604.735 191.504 604.053 193.706 602.832 195.609C601.624 197.499 599.955 198.976 597.825 200.041C595.694 201.107 593.173 201.639 590.261 201.639ZM610.689 201V168.273H619.339V174.047H619.723C620.404 172.129 621.541 170.616 623.132 169.509C624.723 168.401 626.626 167.847 628.842 167.847C631.086 167.847 632.997 168.408 634.574 169.53C636.15 170.638 637.201 172.143 637.727 174.047H638.068C638.735 172.172 639.943 170.673 641.69 169.551C643.451 168.415 645.532 167.847 647.933 167.847C650.987 167.847 653.466 168.82 655.369 170.766C657.287 172.697 658.245 175.439 658.245 178.99V201H649.19V180.78C649.19 178.962 648.707 177.598 647.741 176.689C646.775 175.78 645.568 175.325 644.119 175.325C642.471 175.325 641.186 175.851 640.262 176.902C639.339 177.939 638.877 179.31 638.877 181.014V201H630.078V180.588C630.078 178.983 629.616 177.705 628.693 176.753C627.784 175.801 626.583 175.325 625.092 175.325C624.083 175.325 623.174 175.581 622.365 176.092C621.569 176.589 620.937 177.293 620.468 178.202C620 179.097 619.765 180.148 619.765 181.355V201H610.689Z" fill="#F9B562"/>
<path d="M370.521 458.364V502H361.295V467.121H361.04L351.047 473.385V465.203L361.849 458.364H370.521ZM397.171 502.597C393.89 502.597 390.971 502.064 388.414 500.999C385.871 499.919 383.875 498.449 382.426 496.588C380.978 494.727 380.253 492.618 380.253 490.26C380.253 488.442 380.665 486.773 381.489 485.253C382.327 483.719 383.463 482.447 384.898 481.439C386.333 480.416 387.938 479.763 389.713 479.479V479.18C387.384 478.712 385.495 477.582 384.046 475.793C382.597 473.989 381.873 471.893 381.873 469.507C381.873 467.249 382.533 465.239 383.854 463.477C385.175 461.702 386.986 460.31 389.287 459.301C391.603 458.278 394.23 457.767 397.171 457.767C400.111 457.767 402.732 458.278 405.033 459.301C407.348 460.324 409.167 461.723 410.488 463.499C411.809 465.26 412.476 467.263 412.49 469.507C412.476 471.908 411.738 474.003 410.275 475.793C408.811 477.582 406.936 478.712 404.65 479.18V479.479C406.397 479.763 407.98 480.416 409.401 481.439C410.836 482.447 411.972 483.719 412.81 485.253C413.662 486.773 414.096 488.442 414.11 490.26C414.096 492.618 413.364 494.727 411.915 496.588C410.466 498.449 408.463 499.919 405.907 500.999C403.364 502.064 400.452 502.597 397.171 502.597ZM397.171 495.821C398.634 495.821 399.912 495.558 401.006 495.033C402.1 494.493 402.952 493.754 403.563 492.817C404.188 491.865 404.5 490.771 404.5 489.536C404.5 488.271 404.181 487.156 403.542 486.19C402.902 485.21 402.036 484.443 400.942 483.889C399.848 483.321 398.591 483.037 397.171 483.037C395.765 483.037 394.507 483.321 393.4 483.889C392.292 484.443 391.418 485.21 390.779 486.19C390.154 487.156 389.841 488.271 389.841 489.536C389.841 490.771 390.147 491.865 390.757 492.817C391.368 493.754 392.228 494.493 393.336 495.033C394.444 495.558 395.722 495.821 397.171 495.821ZM397.171 476.325C398.392 476.325 399.479 476.077 400.431 475.58C401.382 475.082 402.128 474.393 402.668 473.513C403.208 472.632 403.478 471.616 403.478 470.466C403.478 469.33 403.208 468.335 402.668 467.483C402.128 466.616 401.39 465.942 400.452 465.459C399.515 464.962 398.421 464.713 397.171 464.713C395.935 464.713 394.841 464.962 393.89 465.459C392.938 465.942 392.192 466.616 391.652 467.483C391.127 468.335 390.864 469.33 390.864 470.466C390.864 471.616 391.134 472.632 391.674 473.513C392.213 474.393 392.959 475.082 393.911 475.58C394.863 476.077 395.949 476.325 397.171 476.325ZM449.319 502.639C445.967 502.639 443.083 501.929 440.669 500.509C438.268 499.074 436.422 497.085 435.129 494.543C433.85 492 433.211 489.074 433.211 485.764C433.211 482.412 433.858 479.472 435.15 476.943C436.457 474.401 438.311 472.419 440.711 470.999C443.112 469.564 445.967 468.847 449.277 468.847C452.132 468.847 454.632 469.365 456.777 470.402C458.922 471.439 460.619 472.895 461.869 474.77C463.119 476.645 463.808 478.847 463.936 481.375H455.37C455.129 479.741 454.49 478.428 453.453 477.433C452.43 476.425 451.088 475.92 449.426 475.92C448.02 475.92 446.791 476.304 445.74 477.071C444.703 477.824 443.893 478.925 443.311 480.374C442.728 481.822 442.437 483.577 442.437 485.636C442.437 487.724 442.721 489.5 443.289 490.963C443.872 492.426 444.689 493.541 445.74 494.308C446.791 495.075 448.02 495.459 449.426 495.459C450.463 495.459 451.393 495.246 452.217 494.82C453.055 494.393 453.744 493.776 454.284 492.966C454.838 492.142 455.2 491.155 455.37 490.004H463.936C463.794 492.504 463.112 494.706 461.89 496.609C460.683 498.499 459.014 499.976 456.883 501.041C454.752 502.107 452.231 502.639 449.319 502.639ZM469.747 502V469.273H478.398V475.047H478.781C479.463 473.129 480.599 471.616 482.19 470.509C483.781 469.401 485.685 468.847 487.901 468.847C490.145 468.847 492.055 469.408 493.632 470.53C495.209 471.638 496.26 473.143 496.786 475.047H497.126C497.794 473.172 499.001 471.673 500.749 470.551C502.51 469.415 504.591 468.847 506.991 468.847C510.045 468.847 512.524 469.82 514.428 471.766C516.345 473.697 517.304 476.439 517.304 479.99V502H508.249V481.78C508.249 479.962 507.766 478.598 506.8 477.689C505.834 476.78 504.626 476.325 503.178 476.325C501.53 476.325 500.244 476.851 499.321 477.902C498.398 478.939 497.936 480.31 497.936 482.014V502H489.136V481.588C489.136 479.983 488.675 478.705 487.751 477.753C486.842 476.801 485.642 476.325 484.151 476.325C483.142 476.325 482.233 476.581 481.423 477.092C480.628 477.589 479.996 478.293 479.527 479.202C479.058 480.097 478.824 481.148 478.824 482.355V502H469.747Z" fill="#F9B562"/>
<path d="M207.284 607V563.364H222.028C225.452 563.364 228.25 563.982 230.423 565.217C232.611 566.439 234.23 568.094 235.281 570.182C236.332 572.27 236.858 574.599 236.858 577.17C236.858 579.741 236.332 582.078 235.281 584.18C234.244 586.283 232.639 587.959 230.466 589.209C228.293 590.445 225.509 591.062 222.114 591.062H211.545V586.375H221.943C224.287 586.375 226.169 585.97 227.589 585.161C229.01 584.351 230.04 583.257 230.679 581.879C231.332 580.487 231.659 578.918 231.659 577.17C231.659 575.423 231.332 573.861 230.679 572.483C230.04 571.105 229.003 570.026 227.568 569.244C226.134 568.449 224.23 568.051 221.858 568.051H212.568V607H207.284ZM258.058 607.682C254.905 607.682 252.185 606.986 249.898 605.594C247.625 604.188 245.871 602.227 244.635 599.713C243.413 597.185 242.803 594.244 242.803 590.892C242.803 587.54 243.413 584.585 244.635 582.028C245.871 579.457 247.589 577.455 249.791 576.02C252.007 574.571 254.592 573.847 257.547 573.847C259.251 573.847 260.935 574.131 262.597 574.699C264.259 575.267 265.771 576.19 267.135 577.469C268.499 578.733 269.585 580.409 270.395 582.497C271.205 584.585 271.609 587.156 271.609 590.21V592.341H246.382V587.994H266.496C266.496 586.148 266.126 584.5 265.388 583.051C264.663 581.602 263.626 580.459 262.277 579.621C260.942 578.783 259.365 578.364 257.547 578.364C255.544 578.364 253.811 578.861 252.348 579.855C250.899 580.835 249.784 582.114 249.003 583.69C248.222 585.267 247.831 586.957 247.831 588.761V591.659C247.831 594.131 248.257 596.226 249.109 597.945C249.976 599.649 251.176 600.949 252.71 601.844C254.244 602.724 256.027 603.165 258.058 603.165C259.379 603.165 260.572 602.98 261.638 602.611C262.717 602.227 263.648 601.659 264.429 600.906C265.21 600.139 265.814 599.187 266.24 598.051L271.098 599.415C270.587 601.062 269.727 602.511 268.52 603.761C267.313 604.997 265.821 605.963 264.045 606.659C262.27 607.341 260.274 607.682 258.058 607.682ZM279.259 607V574.273H284.116V579.216H284.457C285.054 577.597 286.134 576.283 287.696 575.274C289.259 574.266 291.02 573.761 292.98 573.761C293.349 573.761 293.811 573.768 294.365 573.783C294.919 573.797 295.338 573.818 295.622 573.847V578.96C295.452 578.918 295.061 578.854 294.45 578.768C293.854 578.669 293.222 578.619 292.554 578.619C290.963 578.619 289.543 578.953 288.293 579.621C287.057 580.274 286.077 581.183 285.352 582.348C284.642 583.499 284.287 584.812 284.287 586.29V607H279.259ZM301.583 607V574.273H306.611V607H301.583ZM304.14 568.818C303.159 568.818 302.314 568.484 301.604 567.817C300.908 567.149 300.56 566.347 300.56 565.409C300.56 564.472 300.908 563.669 301.604 563.001C302.314 562.334 303.159 562 304.14 562C305.12 562 305.958 562.334 306.654 563.001C307.364 563.669 307.719 564.472 307.719 565.409C307.719 566.347 307.364 567.149 306.654 567.817C305.958 568.484 305.12 568.818 304.14 568.818ZM315.821 607V574.273H320.679V579.386H321.105C321.787 577.639 322.888 576.283 324.408 575.317C325.928 574.337 327.753 573.847 329.884 573.847C332.043 573.847 333.839 574.337 335.274 575.317C336.723 576.283 337.852 577.639 338.662 579.386H339.003C339.841 577.696 341.098 576.354 342.774 575.359C344.45 574.351 346.46 573.847 348.804 573.847C351.73 573.847 354.124 574.763 355.984 576.595C357.845 578.413 358.776 581.247 358.776 585.097V607H353.747V585.097C353.747 582.682 353.087 580.956 351.766 579.919C350.445 578.882 348.889 578.364 347.099 578.364C344.798 578.364 343.016 579.06 341.751 580.452C340.487 581.83 339.855 583.577 339.855 585.693V607H334.741V584.585C334.741 582.724 334.138 581.226 332.93 580.089C331.723 578.939 330.168 578.364 328.264 578.364C326.957 578.364 325.736 578.712 324.599 579.408C323.477 580.104 322.568 581.07 321.872 582.305C321.19 583.527 320.849 584.94 320.849 586.545V607H315.821ZM381.691 607.682C378.538 607.682 375.817 606.986 373.531 605.594C371.258 604.188 369.504 602.227 368.268 599.713C367.046 597.185 366.435 594.244 366.435 590.892C366.435 587.54 367.046 584.585 368.268 582.028C369.504 579.457 371.222 577.455 373.424 576.02C375.64 574.571 378.225 573.847 381.18 573.847C382.884 573.847 384.567 574.131 386.229 574.699C387.891 575.267 389.404 576.19 390.768 577.469C392.131 578.733 393.218 580.409 394.028 582.497C394.837 584.585 395.242 587.156 395.242 590.21V592.341H370.015V587.994H390.129C390.129 586.148 389.759 584.5 389.021 583.051C388.296 581.602 387.259 580.459 385.91 579.621C384.575 578.783 382.998 578.364 381.18 578.364C379.177 578.364 377.444 578.861 375.981 579.855C374.532 580.835 373.417 582.114 372.636 583.69C371.854 585.267 371.464 586.957 371.464 588.761V591.659C371.464 594.131 371.89 596.226 372.742 597.945C373.609 599.649 374.809 600.949 376.343 601.844C377.877 602.724 379.66 603.165 381.691 603.165C383.012 603.165 384.205 602.98 385.271 602.611C386.35 602.227 387.281 601.659 388.062 600.906C388.843 600.139 389.447 599.187 389.873 598.051L394.731 599.415C394.219 601.062 393.36 602.511 392.153 603.761C390.945 604.997 389.454 605.963 387.678 606.659C385.903 607.341 383.907 607.682 381.691 607.682ZM417.124 574.273V578.534H400.164V574.273H417.124ZM405.107 566.432H410.136V597.625C410.136 599.045 410.342 600.111 410.754 600.821C411.18 601.517 411.719 601.986 412.373 602.227C413.04 602.455 413.744 602.568 414.482 602.568C415.036 602.568 415.491 602.54 415.846 602.483C416.201 602.412 416.485 602.355 416.698 602.312L417.721 606.83C417.38 606.957 416.904 607.085 416.293 607.213C415.683 607.355 414.908 607.426 413.971 607.426C412.55 607.426 411.158 607.121 409.795 606.51C408.445 605.899 407.323 604.969 406.428 603.719C405.548 602.469 405.107 600.892 405.107 598.989V566.432ZM438.058 607.682C434.905 607.682 432.185 606.986 429.898 605.594C427.625 604.188 425.871 602.227 424.635 599.713C423.413 597.185 422.803 594.244 422.803 590.892C422.803 587.54 423.413 584.585 424.635 582.028C425.871 579.457 427.589 577.455 429.791 576.02C432.007 574.571 434.592 573.847 437.547 573.847C439.251 573.847 440.935 574.131 442.597 574.699C444.259 575.267 445.771 576.19 447.135 577.469C448.499 578.733 449.585 580.409 450.395 582.497C451.205 584.585 451.609 587.156 451.609 590.21V592.341H426.382V587.994H446.496C446.496 586.148 446.126 584.5 445.388 583.051C444.663 581.602 443.626 580.459 442.277 579.621C440.942 578.783 439.365 578.364 437.547 578.364C435.544 578.364 433.811 578.861 432.348 579.855C430.899 580.835 429.784 582.114 429.003 583.69C428.222 585.267 427.831 586.957 427.831 588.761V591.659C427.831 594.131 428.257 596.226 429.109 597.945C429.976 599.649 431.176 600.949 432.71 601.844C434.244 602.724 436.027 603.165 438.058 603.165C439.379 603.165 440.572 602.98 441.638 602.611C442.717 602.227 443.648 601.659 444.429 600.906C445.21 600.139 445.814 599.187 446.24 598.051L451.098 599.415C450.587 601.062 449.727 602.511 448.52 603.761C447.313 604.997 445.821 605.963 444.045 606.659C442.27 607.341 440.274 607.682 438.058 607.682ZM459.259 607V574.273H464.116V579.216H464.457C465.054 577.597 466.134 576.283 467.696 575.274C469.259 574.266 471.02 573.761 472.98 573.761C473.349 573.761 473.811 573.768 474.365 573.783C474.919 573.797 475.338 573.818 475.622 573.847V578.96C475.452 578.918 475.061 578.854 474.45 578.768C473.854 578.669 473.222 578.619 472.554 578.619C470.963 578.619 469.543 578.953 468.293 579.621C467.057 580.274 466.077 581.183 465.352 582.348C464.642 583.499 464.287 584.812 464.287 586.29V607H459.259ZM500.503 581.176V576.574H526.753V581.176H500.503ZM500.503 593.79V589.188H526.753V593.79H500.503ZM568.435 607.597C565.935 607.597 563.683 607.099 561.68 606.105C559.678 605.111 558.072 603.747 556.865 602.014C555.658 600.281 554.997 598.307 554.884 596.091H559.997C560.196 598.065 561.091 599.699 562.682 600.991C564.287 602.27 566.205 602.909 568.435 602.909C570.224 602.909 571.815 602.49 573.207 601.652C574.614 600.814 575.714 599.663 576.51 598.2C577.32 596.723 577.724 595.054 577.724 593.193C577.724 591.29 577.305 589.592 576.467 588.101C575.643 586.595 574.507 585.409 573.058 584.543C571.609 583.676 569.955 583.236 568.094 583.222C566.759 583.207 565.388 583.413 563.982 583.839C562.575 584.251 561.418 584.784 560.509 585.438L555.565 584.841L558.207 563.364H580.878V568.051H562.639L561.105 580.92H561.361C562.256 580.21 563.378 579.621 564.727 579.152C566.077 578.683 567.483 578.449 568.946 578.449C571.616 578.449 573.996 579.088 576.084 580.366C578.186 581.631 579.834 583.364 581.027 585.565C582.234 587.767 582.838 590.281 582.838 593.108C582.838 595.892 582.213 598.378 580.963 600.565C579.727 602.739 578.023 604.457 575.849 605.722C573.676 606.972 571.205 607.597 568.435 607.597ZM590.279 598.051V593.705L609.456 563.364H612.609V570.097H610.478L595.99 593.023V593.364H621.814V598.051H590.279ZM610.819 607V596.73V594.706V563.364H615.848V607H610.819ZM660.054 607.682C656.986 607.682 654.344 606.957 652.128 605.509C649.912 604.06 648.207 602.064 647.014 599.521C645.821 596.979 645.224 594.074 645.224 590.807C645.224 587.483 645.835 584.55 647.057 582.007C648.293 579.45 650.011 577.455 652.213 576.02C654.429 574.571 657.014 573.847 659.969 573.847C662.27 573.847 664.344 574.273 666.19 575.125C668.037 575.977 669.55 577.17 670.729 578.705C671.908 580.239 672.639 582.028 672.923 584.074H667.895C667.511 582.582 666.659 581.261 665.338 580.111C664.031 578.946 662.27 578.364 660.054 578.364C658.094 578.364 656.375 578.875 654.898 579.898C653.435 580.906 652.291 582.334 651.467 584.18C650.658 586.013 650.253 588.165 650.253 590.636C650.253 593.165 650.651 595.366 651.446 597.241C652.256 599.116 653.392 600.572 654.855 601.609C656.332 602.646 658.065 603.165 660.054 603.165C661.361 603.165 662.547 602.938 663.612 602.483C664.678 602.028 665.58 601.375 666.318 600.523C667.057 599.67 667.582 598.648 667.895 597.455H672.923C672.639 599.386 671.936 601.126 670.814 602.675C669.706 604.209 668.236 605.43 666.403 606.339C664.585 607.234 662.469 607.682 660.054 607.682ZM680.274 607V574.273H685.132V579.386H685.558C686.24 577.639 687.341 576.283 688.861 575.317C690.381 574.337 692.206 573.847 694.337 573.847C696.496 573.847 698.293 574.337 699.727 575.317C701.176 576.283 702.305 577.639 703.115 579.386H703.456C704.294 577.696 705.551 576.354 707.227 575.359C708.903 574.351 710.913 573.847 713.257 573.847C716.183 573.847 718.577 574.763 720.438 576.595C722.298 578.413 723.229 581.247 723.229 585.097V607H718.2V585.097C718.2 582.682 717.54 580.956 716.219 579.919C714.898 578.882 713.342 578.364 711.553 578.364C709.251 578.364 707.469 579.06 706.205 580.452C704.94 581.83 704.308 583.577 704.308 585.693V607H699.195V584.585C699.195 582.724 698.591 581.226 697.384 580.089C696.176 578.939 694.621 578.364 692.717 578.364C691.411 578.364 690.189 578.712 689.053 579.408C687.93 580.104 687.021 581.07 686.325 582.305C685.643 583.527 685.303 584.94 685.303 586.545V607H680.274Z" fill="white"/>
<path d="M213.42 211.918V211.193C213.435 208.707 213.655 206.726 214.081 205.249C214.521 203.771 215.161 202.578 215.999 201.669C216.837 200.76 217.845 199.936 219.024 199.197C219.905 198.629 220.693 198.04 221.389 197.429C222.085 196.818 222.639 196.143 223.051 195.405C223.463 194.652 223.669 193.814 223.669 192.891C223.669 191.911 223.435 191.051 222.966 190.312C222.497 189.574 221.865 189.006 221.07 188.608C220.288 188.21 219.422 188.011 218.47 188.011C217.547 188.011 216.673 188.217 215.849 188.629C215.026 189.027 214.351 189.624 213.825 190.419C213.3 191.2 213.016 192.173 212.973 193.338H204.28C204.351 190.497 205.033 188.153 206.325 186.307C207.618 184.446 209.33 183.061 211.46 182.152C213.591 181.229 215.942 180.767 218.513 180.767C221.339 180.767 223.839 181.236 226.013 182.173C228.186 183.097 229.891 184.439 231.126 186.2C232.362 187.962 232.98 190.085 232.98 192.571C232.98 194.233 232.703 195.71 232.149 197.003C231.609 198.281 230.849 199.418 229.869 200.412C228.889 201.392 227.732 202.28 226.396 203.075C225.274 203.743 224.351 204.439 223.626 205.163C222.916 205.888 222.384 206.726 222.028 207.678C221.688 208.629 221.51 209.801 221.496 211.193V211.918H213.42ZM217.639 225.554C216.219 225.554 215.004 225.057 213.996 224.062C213.001 223.054 212.511 221.847 212.526 220.44C212.511 219.048 213.001 217.855 213.996 216.861C215.004 215.866 216.219 215.369 217.639 215.369C218.989 215.369 220.175 215.866 221.197 216.861C222.22 217.855 222.739 219.048 222.753 220.44C222.739 221.378 222.49 222.237 222.007 223.018C221.538 223.786 220.92 224.403 220.153 224.872C219.386 225.327 218.548 225.554 217.639 225.554Z" fill="white"/>
<line x1="329.485" y1="55.9777" x2="701.978" y2="426.515" stroke="#F9B562" stroke-width="12" stroke-linecap="round"/>
<line x1="189" y1="427" x2="702" y2="427" stroke="#F9B562" stroke-width="12" stroke-linecap="round"/>
<line x1="327.522" y1="54.7197" x2="188.72" y2="426.478" stroke="white" stroke-width="12" stroke-linecap="round"/>
</svg>
