<svg width="891" height="639" viewBox="0 0 891 639" fill="none" xmlns="http://www.w3.org/2000/svg">
<path d="M326.809 50L705.615 429.5H186L326.809 50Z" fill="#5FD7FF"/>
<path d="M511.521 157.364V201H502.295V166.121H502.04L492.047 172.385V164.203L502.849 157.364H511.521ZM538.64 201.597C536.395 201.582 534.229 201.206 532.141 200.467C530.067 199.729 528.206 198.528 526.559 196.866C524.911 195.205 523.604 193.003 522.638 190.261C521.686 187.52 521.211 184.153 521.211 180.162C521.225 176.497 521.644 173.223 522.468 170.339C523.306 167.442 524.499 164.984 526.047 162.967C527.61 160.95 529.478 159.416 531.651 158.365C533.824 157.3 536.26 156.767 538.959 156.767C541.871 156.767 544.442 157.335 546.672 158.472C548.902 159.594 550.692 161.121 552.042 163.053C553.405 164.984 554.229 167.151 554.513 169.551H545.415C545.06 168.031 544.314 166.838 543.178 165.972C542.042 165.105 540.635 164.672 538.959 164.672C536.118 164.672 533.959 165.908 532.482 168.379C531.019 170.851 530.273 174.21 530.245 178.457H530.543C531.196 177.165 532.077 176.064 533.185 175.155C534.307 174.232 535.578 173.528 536.999 173.045C538.434 172.548 539.946 172.3 541.537 172.3C544.123 172.3 546.424 172.911 548.441 174.132C550.458 175.339 552.049 177.001 553.213 179.118C554.378 181.234 554.961 183.656 554.961 186.384C554.961 189.338 554.272 191.966 552.894 194.267C551.53 196.568 549.62 198.372 547.162 199.679C544.719 200.972 541.878 201.611 538.64 201.597ZM538.597 194.352C540.017 194.352 541.289 194.011 542.411 193.33C543.533 192.648 544.414 191.724 545.053 190.56C545.692 189.395 546.012 188.088 546.012 186.639C546.012 185.19 545.692 183.891 545.053 182.74C544.428 181.589 543.561 180.673 542.453 179.991C541.346 179.31 540.081 178.969 538.661 178.969C537.596 178.969 536.608 179.168 535.699 179.565C534.804 179.963 534.016 180.517 533.334 181.227C532.667 181.937 532.141 182.761 531.757 183.699C531.374 184.622 531.182 185.609 531.182 186.661C531.182 188.067 531.502 189.352 532.141 190.517C532.794 191.682 533.675 192.612 534.783 193.308C535.905 194.004 537.176 194.352 538.597 194.352ZM590.261 201.639C586.908 201.639 584.025 200.929 581.61 199.509C579.21 198.074 577.363 196.085 576.07 193.543C574.792 191 574.153 188.074 574.153 184.764C574.153 181.412 574.799 178.472 576.092 175.943C577.398 173.401 579.252 171.419 581.653 169.999C584.053 168.564 586.908 167.847 590.218 167.847C593.073 167.847 595.573 168.365 597.718 169.402C599.863 170.439 601.56 171.895 602.81 173.77C604.06 175.645 604.749 177.847 604.877 180.375H596.312C596.07 178.741 595.431 177.428 594.394 176.433C593.371 175.425 592.029 174.92 590.367 174.92C588.961 174.92 587.732 175.304 586.681 176.071C585.644 176.824 584.835 177.925 584.252 179.374C583.67 180.822 583.379 182.577 583.379 184.636C583.379 186.724 583.663 188.5 584.231 189.963C584.813 191.426 585.63 192.541 586.681 193.308C587.732 194.075 588.961 194.459 590.367 194.459C591.404 194.459 592.335 194.246 593.158 193.82C593.996 193.393 594.685 192.776 595.225 191.966C595.779 191.142 596.141 190.155 596.312 189.004H604.877C604.735 191.504 604.053 193.706 602.832 195.609C601.624 197.499 599.955 198.976 597.825 200.041C595.694 201.107 593.173 201.639 590.261 201.639ZM610.689 201V168.273H619.339V174.047H619.723C620.404 172.129 621.541 170.616 623.132 169.509C624.723 168.401 626.626 167.847 628.842 167.847C631.086 167.847 632.997 168.408 634.574 169.53C636.15 170.638 637.201 172.143 637.727 174.047H638.068C638.735 172.172 639.943 170.673 641.69 169.551C643.451 168.415 645.532 167.847 647.933 167.847C650.987 167.847 653.466 168.82 655.369 170.766C657.287 172.697 658.245 175.439 658.245 178.99V201H649.19V180.78C649.19 178.962 648.707 177.598 647.741 176.689C646.775 175.78 645.568 175.325 644.119 175.325C642.471 175.325 641.186 175.851 640.262 176.902C639.339 177.939 638.877 179.31 638.877 181.014V201H630.078V180.588C630.078 178.983 629.616 177.705 628.693 176.753C627.784 175.801 626.583 175.325 625.092 175.325C624.083 175.325 623.174 175.581 622.365 176.092C621.569 176.589 620.937 177.293 620.468 178.202C620 179.097 619.765 180.148 619.765 181.355V201H610.689Z" fill="#F9B562"/>
<path d="M370.521 458.364V502H361.295V467.121H361.04L351.047 473.385V465.203L361.849 458.364H370.521ZM397.171 502.597C393.89 502.597 390.971 502.064 388.414 500.999C385.871 499.919 383.875 498.449 382.426 496.588C380.978 494.727 380.253 492.618 380.253 490.26C380.253 488.442 380.665 486.773 381.489 485.253C382.327 483.719 383.463 482.447 384.898 481.439C386.333 480.416 387.938 479.763 389.713 479.479V479.18C387.384 478.712 385.495 477.582 384.046 475.793C382.597 473.989 381.873 471.893 381.873 469.507C381.873 467.249 382.533 465.239 383.854 463.477C385.175 461.702 386.986 460.31 389.287 459.301C391.603 458.278 394.23 457.767 397.171 457.767C400.111 457.767 402.732 458.278 405.033 459.301C407.348 460.324 409.167 461.723 410.488 463.499C411.809 465.26 412.476 467.263 412.49 469.507C412.476 471.908 411.738 474.003 410.275 475.793C408.811 477.582 406.936 478.712 404.65 479.18V479.479C406.397 479.763 407.98 480.416 409.401 481.439C410.836 482.447 411.972 483.719 412.81 485.253C413.662 486.773 414.096 488.442 414.11 490.26C414.096 492.618 413.364 494.727 411.915 496.588C410.466 498.449 408.463 499.919 405.907 500.999C403.364 502.064 400.452 502.597 397.171 502.597ZM397.171 495.821C398.634 495.821 399.912 495.558 401.006 495.033C402.1 494.493 402.952 493.754 403.563 492.817C404.188 491.865 404.5 490.771 404.5 489.536C404.5 488.271 404.181 487.156 403.542 486.19C402.902 485.21 402.036 484.443 400.942 483.889C399.848 483.321 398.591 483.037 397.171 483.037C395.765 483.037 394.507 483.321 393.4 483.889C392.292 484.443 391.418 485.21 390.779 486.19C390.154 487.156 389.841 488.271 389.841 489.536C389.841 490.771 390.147 491.865 390.757 492.817C391.368 493.754 392.228 494.493 393.336 495.033C394.444 495.558 395.722 495.821 397.171 495.821ZM397.171 476.325C398.392 476.325 399.479 476.077 400.431 475.58C401.382 475.082 402.128 474.393 402.668 473.513C403.208 472.632 403.478 471.616 403.478 470.466C403.478 469.33 403.208 468.335 402.668 467.483C402.128 466.616 401.39 465.942 400.452 465.459C399.515 464.962 398.421 464.713 397.171 464.713C395.935 464.713 394.841 464.962 393.89 465.459C392.938 465.942 392.192 466.616 391.652 467.483C391.127 468.335 390.864 469.33 390.864 470.466C390.864 471.616 391.134 472.632 391.674 473.513C392.213 474.393 392.959 475.082 393.911 475.58C394.863 476.077 395.949 476.325 397.171 476.325ZM449.319 502.639C445.967 502.639 443.083 501.929 440.669 500.509C438.268 499.074 436.422 497.085 435.129 494.543C433.85 492 433.211 489.074 433.211 485.764C433.211 482.412 433.858 479.472 435.15 476.943C436.457 474.401 438.311 472.419 440.711 470.999C443.112 469.564 445.967 468.847 449.277 468.847C452.132 468.847 454.632 469.365 456.777 470.402C458.922 471.439 460.619 472.895 461.869 474.77C463.119 476.645 463.808 478.847 463.936 481.375H455.37C455.129 479.741 454.49 478.428 453.453 477.433C452.43 476.425 451.088 475.92 449.426 475.92C448.02 475.92 446.791 476.304 445.74 477.071C444.703 477.824 443.893 478.925 443.311 480.374C442.728 481.822 442.437 483.577 442.437 485.636C442.437 487.724 442.721 489.5 443.289 490.963C443.872 492.426 444.689 493.541 445.74 494.308C446.791 495.075 448.02 495.459 449.426 495.459C450.463 495.459 451.393 495.246 452.217 494.82C453.055 494.393 453.744 493.776 454.284 492.966C454.838 492.142 455.2 491.155 455.37 490.004H463.936C463.794 492.504 463.112 494.706 461.89 496.609C460.683 498.499 459.014 499.976 456.883 501.041C454.752 502.107 452.231 502.639 449.319 502.639ZM469.747 502V469.273H478.398V475.047H478.781C479.463 473.129 480.599 471.616 482.19 470.509C483.781 469.401 485.685 468.847 487.901 468.847C490.145 468.847 492.055 469.408 493.632 470.53C495.209 471.638 496.26 473.143 496.786 475.047H497.126C497.794 473.172 499.001 471.673 500.749 470.551C502.51 469.415 504.591 468.847 506.991 468.847C510.045 468.847 512.524 469.82 514.428 471.766C516.345 473.697 517.304 476.439 517.304 479.99V502H508.249V481.78C508.249 479.962 507.766 478.598 506.8 477.689C505.834 476.78 504.626 476.325 503.178 476.325C501.53 476.325 500.244 476.851 499.321 477.902C498.398 478.939 497.936 480.31 497.936 482.014V502H489.136V481.588C489.136 479.983 488.675 478.705 487.751 477.753C486.842 476.801 485.642 476.325 484.151 476.325C483.142 476.325 482.233 476.581 481.423 477.092C480.628 477.589 479.996 478.293 479.527 479.202C479.058 480.097 478.824 481.148 478.824 482.355V502H469.747Z" fill="#F9B562"/>
<path d="M207.284 607V563.364H212.568V585.011H213.08L232.682 563.364H239.585L221.261 583.051L239.585 607H233.193L218.023 586.716L212.568 592.852V607H207.284ZM257.062 607.682C253.909 607.682 251.189 606.986 248.902 605.594C246.629 604.188 244.875 602.227 243.639 599.713C242.417 597.185 241.806 594.244 241.806 590.892C241.806 587.54 242.417 584.585 243.639 582.028C244.875 579.457 246.593 577.455 248.795 576.02C251.011 574.571 253.596 573.847 256.551 573.847C258.255 573.847 259.939 574.131 261.6 574.699C263.262 575.267 264.775 576.19 266.139 577.469C267.502 578.733 268.589 580.409 269.399 582.497C270.208 584.585 270.613 587.156 270.613 590.21V592.341H245.386V587.994H265.5C265.5 586.148 265.13 584.5 264.392 583.051C263.667 581.602 262.63 580.459 261.281 579.621C259.946 578.783 258.369 578.364 256.551 578.364C254.548 578.364 252.815 578.861 251.352 579.855C249.903 580.835 248.788 582.114 248.007 583.69C247.225 585.267 246.835 586.957 246.835 588.761V591.659C246.835 594.131 247.261 596.226 248.113 597.945C248.98 599.649 250.18 600.949 251.714 601.844C253.248 602.724 255.031 603.165 257.062 603.165C258.383 603.165 259.576 602.98 260.642 602.611C261.721 602.227 262.652 601.659 263.433 600.906C264.214 600.139 264.818 599.187 265.244 598.051L270.102 599.415C269.591 601.062 268.731 602.511 267.524 603.761C266.316 604.997 264.825 605.963 263.049 606.659C261.274 607.341 259.278 607.682 257.062 607.682ZM283.291 563.364V607H278.262V563.364H283.291ZM292.501 607V574.273H297.529V607H292.501ZM295.058 568.818C294.077 568.818 293.232 568.484 292.522 567.817C291.826 567.149 291.478 566.347 291.478 565.409C291.478 564.472 291.826 563.669 292.522 563.001C293.232 562.334 294.077 562 295.058 562C296.038 562 296.876 562.334 297.572 563.001C298.282 563.669 298.637 564.472 298.637 565.409C298.637 566.347 298.282 567.149 297.572 567.817C296.876 568.484 296.038 568.818 295.058 568.818ZM311.767 563.364V607H306.739V563.364H311.767ZM320.977 607V574.273H326.006V607H320.977ZM323.534 568.818C322.554 568.818 321.709 568.484 320.999 567.817C320.303 567.149 319.955 566.347 319.955 565.409C319.955 564.472 320.303 563.669 320.999 563.001C321.709 562.334 322.554 562 323.534 562C324.514 562 325.352 562.334 326.048 563.001C326.759 563.669 327.114 564.472 327.114 565.409C327.114 566.347 326.759 567.149 326.048 567.817C325.352 568.484 324.514 568.818 323.534 568.818ZM340.244 587.312V607H335.216V574.273H340.074V579.386H340.5C341.267 577.724 342.431 576.389 343.994 575.381C345.556 574.358 347.574 573.847 350.045 573.847C352.261 573.847 354.2 574.301 355.862 575.21C357.524 576.105 358.816 577.469 359.74 579.301C360.663 581.119 361.125 583.42 361.125 586.205V607H356.096V586.545C356.096 583.974 355.429 581.972 354.093 580.537C352.758 579.088 350.926 578.364 348.596 578.364C346.991 578.364 345.556 578.712 344.292 579.408C343.042 580.104 342.055 581.119 341.331 582.455C340.606 583.79 340.244 585.409 340.244 587.312ZM383.523 619.955C381.094 619.955 379.006 619.642 377.259 619.017C375.512 618.406 374.056 617.597 372.891 616.588C371.741 615.594 370.825 614.528 370.143 613.392L374.148 610.58C374.603 611.176 375.178 611.858 375.874 612.625C376.57 613.406 377.522 614.081 378.729 614.649C379.951 615.232 381.549 615.523 383.523 615.523C386.165 615.523 388.346 614.884 390.065 613.605C391.783 612.327 392.643 610.324 392.643 607.597V600.949H392.217C391.847 601.545 391.322 602.284 390.64 603.165C389.972 604.031 389.006 604.805 387.742 605.487C386.492 606.155 384.802 606.489 382.671 606.489C380.029 606.489 377.657 605.864 375.555 604.614C373.467 603.364 371.812 601.545 370.59 599.159C369.383 596.773 368.779 593.875 368.779 590.466C368.779 587.114 369.369 584.195 370.548 581.709C371.727 579.209 373.367 577.277 375.469 575.913C377.572 574.536 380.001 573.847 382.756 573.847C384.887 573.847 386.577 574.202 387.827 574.912C389.092 575.608 390.058 576.403 390.725 577.298C391.407 578.179 391.933 578.903 392.302 579.472H392.813V574.273H397.671V607.938C397.671 610.75 397.032 613.037 395.754 614.798C394.489 616.574 392.785 617.874 390.64 618.697C388.509 619.536 386.137 619.955 383.523 619.955ZM383.353 601.972C385.37 601.972 387.075 601.51 388.467 600.587C389.859 599.663 390.917 598.335 391.641 596.602C392.366 594.869 392.728 592.795 392.728 590.381C392.728 588.023 392.373 585.942 391.663 584.138C390.952 582.334 389.901 580.92 388.509 579.898C387.117 578.875 385.398 578.364 383.353 578.364C381.222 578.364 379.447 578.903 378.026 579.983C376.62 581.062 375.562 582.511 374.852 584.33C374.156 586.148 373.808 588.165 373.808 590.381C373.808 592.653 374.163 594.663 374.873 596.411C375.597 598.143 376.663 599.507 378.069 600.501C379.489 601.482 381.251 601.972 383.353 601.972ZM425.796 581.176V576.574H452.046V581.176H425.796ZM425.796 593.79V589.188H452.046V593.79H425.796ZM493.728 607.597C491.228 607.597 488.976 607.099 486.973 606.105C484.971 605.111 483.365 603.747 482.158 602.014C480.951 600.281 480.29 598.307 480.176 596.091H485.29C485.489 598.065 486.384 599.699 487.975 600.991C489.58 602.27 491.498 602.909 493.728 602.909C495.517 602.909 497.108 602.49 498.5 601.652C499.907 600.814 501.007 599.663 501.803 598.2C502.613 596.723 503.017 595.054 503.017 593.193C503.017 591.29 502.598 589.592 501.76 588.101C500.936 586.595 499.8 585.409 498.351 584.543C496.902 583.676 495.248 583.236 493.387 583.222C492.051 583.207 490.681 583.413 489.275 583.839C487.868 584.251 486.711 584.784 485.801 585.438L480.858 584.841L483.5 563.364H506.171V568.051H487.932L486.398 580.92H486.654C487.549 580.21 488.671 579.621 490.02 579.152C491.37 578.683 492.776 578.449 494.239 578.449C496.909 578.449 499.289 579.088 501.377 580.366C503.479 581.631 505.127 583.364 506.32 585.565C507.527 587.767 508.131 590.281 508.131 593.108C508.131 595.892 507.506 598.378 506.256 600.565C505.02 602.739 503.316 604.457 501.142 605.722C498.969 606.972 496.498 607.597 493.728 607.597ZM515.572 598.051V593.705L534.749 563.364H537.902V570.097H535.771L521.283 593.023V593.364H547.107V598.051H515.572ZM536.112 607V596.73V594.706V563.364H541.141V607H536.112ZM585.347 607.682C582.279 607.682 579.637 606.957 577.421 605.509C575.205 604.06 573.5 602.064 572.307 599.521C571.114 596.979 570.517 594.074 570.517 590.807C570.517 587.483 571.128 584.55 572.35 582.007C573.586 579.45 575.304 577.455 577.506 576.02C579.722 574.571 582.307 573.847 585.262 573.847C587.563 573.847 589.637 574.273 591.483 575.125C593.33 575.977 594.843 577.17 596.022 578.705C597.201 580.239 597.932 582.028 598.216 584.074H593.188C592.804 582.582 591.952 581.261 590.631 580.111C589.324 578.946 587.563 578.364 585.347 578.364C583.387 578.364 581.668 578.875 580.191 579.898C578.728 580.906 577.584 582.334 576.76 584.18C575.951 586.013 575.546 588.165 575.546 590.636C575.546 593.165 575.944 595.366 576.739 597.241C577.549 599.116 578.685 600.572 580.148 601.609C581.625 602.646 583.358 603.165 585.347 603.165C586.654 603.165 587.84 602.938 588.905 602.483C589.971 602.028 590.873 601.375 591.611 600.523C592.35 599.67 592.875 598.648 593.188 597.455H598.216C597.932 599.386 597.229 601.126 596.107 602.675C594.999 604.209 593.529 605.43 591.696 606.339C589.878 607.234 587.762 607.682 585.347 607.682ZM605.567 607V574.273H610.425V579.386H610.851C611.533 577.639 612.634 576.283 614.154 575.317C615.674 574.337 617.499 573.847 619.63 573.847C621.789 573.847 623.586 574.337 625.02 575.317C626.469 576.283 627.598 577.639 628.408 579.386H628.749C629.587 577.696 630.844 576.354 632.52 575.359C634.196 574.351 636.206 573.847 638.55 573.847C641.476 573.847 643.87 574.763 645.73 576.595C647.591 578.413 648.522 581.247 648.522 585.097V607H643.493V585.097C643.493 582.682 642.833 580.956 641.512 579.919C640.191 578.882 638.635 578.364 636.846 578.364C634.544 578.364 632.762 579.06 631.498 580.452C630.233 581.83 629.601 583.577 629.601 585.693V607H624.488V584.585C624.488 582.724 623.884 581.226 622.676 580.089C621.469 578.939 619.914 578.364 618.01 578.364C616.703 578.364 615.482 578.712 614.346 579.408C613.223 580.104 612.314 581.07 611.618 582.305C610.936 583.527 610.596 584.94 610.596 586.545V607H605.567Z" fill="white"/>
<path d="M213.42 211.918V211.193C213.435 208.707 213.655 206.726 214.081 205.249C214.521 203.771 215.161 202.578 215.999 201.669C216.837 200.76 217.845 199.936 219.024 199.197C219.905 198.629 220.693 198.04 221.389 197.429C222.085 196.818 222.639 196.143 223.051 195.405C223.463 194.652 223.669 193.814 223.669 192.891C223.669 191.911 223.435 191.051 222.966 190.312C222.497 189.574 221.865 189.006 221.07 188.608C220.288 188.21 219.422 188.011 218.47 188.011C217.547 188.011 216.673 188.217 215.849 188.629C215.026 189.027 214.351 189.624 213.825 190.419C213.3 191.2 213.016 192.173 212.973 193.338H204.28C204.351 190.497 205.033 188.153 206.325 186.307C207.618 184.446 209.33 183.061 211.46 182.152C213.591 181.229 215.942 180.767 218.513 180.767C221.339 180.767 223.839 181.236 226.013 182.173C228.186 183.097 229.891 184.439 231.126 186.2C232.362 187.962 232.98 190.085 232.98 192.571C232.98 194.233 232.703 195.71 232.149 197.003C231.609 198.281 230.849 199.418 229.869 200.412C228.889 201.392 227.732 202.28 226.396 203.075C225.274 203.743 224.351 204.439 223.626 205.163C222.916 205.888 222.384 206.726 222.028 207.678C221.688 208.629 221.51 209.801 221.496 211.193V211.918H213.42ZM217.639 225.554C216.219 225.554 215.004 225.057 213.996 224.062C213.001 223.054 212.511 221.847 212.526 220.44C212.511 219.048 213.001 217.855 213.996 216.861C215.004 215.866 216.219 215.369 217.639 215.369C218.989 215.369 220.175 215.866 221.197 216.861C222.22 217.855 222.739 219.048 222.753 220.44C222.739 221.378 222.49 222.237 222.007 223.018C221.538 223.786 220.92 224.403 220.153 224.872C219.386 225.327 218.548 225.554 217.639 225.554Z" fill="white"/>
<line x1="329.485" y1="55.9777" x2="701.978" y2="426.515" stroke="#F9B562" stroke-width="12" stroke-linecap="round"/>
<line x1="189" y1="427" x2="702" y2="427" stroke="#F9B562" stroke-width="12" stroke-linecap="round"/>
<line x1="327.522" y1="54.7197" x2="188.72" y2="426.478" stroke="white" stroke-width="12" stroke-linecap="round"/>
</svg>
