<svg width="891" height="597" viewBox="0 0 891 597" fill="none" xmlns="http://www.w3.org/2000/svg">
<path d="M461.752 467L276 78L662 78L461.752 467Z" fill="#5FD7FF"/>
<path d="M392.537 63V56.3523L408.07 41.9702C409.391 40.6918 410.499 39.5412 411.393 38.5185C412.303 37.4957 412.991 36.4943 413.46 35.5142C413.929 34.5199 414.163 33.4474 414.163 32.2969C414.163 31.0185 413.872 29.9176 413.29 28.9943C412.707 28.0568 411.912 27.3395 410.903 26.8423C409.895 26.331 408.751 26.0753 407.473 26.0753C406.138 26.0753 404.973 26.3452 403.979 26.8849C402.984 27.4247 402.217 28.1989 401.678 29.2074C401.138 30.2159 400.868 31.4162 400.868 32.8082H392.111C392.111 29.9531 392.757 27.4744 394.05 25.3722C395.342 23.2699 397.153 21.6435 399.483 20.4929C401.813 19.3423 404.497 18.767 407.537 18.767C410.662 18.767 413.382 19.321 415.697 20.429C418.027 21.5227 419.838 23.0426 421.131 24.9886C422.423 26.9347 423.07 29.1648 423.07 31.679C423.07 33.3267 422.743 34.9531 422.089 36.5582C421.45 38.1634 420.307 39.946 418.659 41.9062C417.011 43.8523 414.689 46.1889 411.692 48.9162L405.321 55.1591V55.4574H423.645V63H392.537ZM432.056 63L450.145 27.2045V26.9062H429.073V19.3636H459.691V27.0128L441.58 63H432.056ZM494.772 63.6392C491.42 63.6392 488.537 62.929 486.122 61.5085C483.721 60.0739 481.875 58.0852 480.582 55.5426C479.304 53 478.664 50.0739 478.664 46.7642C478.664 43.4119 479.311 40.4716 480.603 37.9432C481.91 35.4006 483.764 33.419 486.164 31.9986C488.565 30.5639 491.42 29.8466 494.73 29.8466C497.585 29.8466 500.085 30.3651 502.23 31.402C504.375 32.4389 506.072 33.8949 507.322 35.7699C508.572 37.6449 509.261 39.8466 509.389 42.375H500.824C500.582 40.7415 499.943 39.4276 498.906 38.4332C497.883 37.4247 496.541 36.9205 494.879 36.9205C493.473 36.9205 492.244 37.304 491.193 38.071C490.156 38.8239 489.346 39.9247 488.764 41.3736C488.181 42.8224 487.89 44.5767 487.89 46.6364C487.89 48.7244 488.174 50.5 488.743 51.9631C489.325 53.4261 490.142 54.5412 491.193 55.3082C492.244 56.0753 493.473 56.4588 494.879 56.4588C495.916 56.4588 496.846 56.2457 497.67 55.8196C498.508 55.3935 499.197 54.7756 499.737 53.9659C500.291 53.142 500.653 52.1548 500.824 51.0043H509.389C509.247 53.5043 508.565 55.706 507.343 57.6094C506.136 59.4986 504.467 60.9759 502.336 62.0412C500.206 63.1065 497.684 63.6392 494.772 63.6392ZM515.2 63V30.2727H523.851V36.0469H524.234C524.916 34.1293 526.053 32.6165 527.643 31.5085C529.234 30.4006 531.138 29.8466 533.354 29.8466C535.598 29.8466 537.509 30.4077 539.085 31.5298C540.662 32.6378 541.713 34.1435 542.239 36.0469H542.58C543.247 34.1719 544.455 32.6733 546.202 31.5511C547.963 30.4148 550.044 29.8466 552.445 29.8466C555.499 29.8466 557.977 30.8196 559.881 32.7656C561.798 34.6974 562.757 37.4389 562.757 40.9901V63H553.702V42.7798C553.702 40.9616 553.219 39.598 552.253 38.6889C551.287 37.7798 550.08 37.3253 548.631 37.3253C546.983 37.3253 545.697 37.8509 544.774 38.902C543.851 39.9389 543.389 41.3097 543.389 43.0142V63H534.589V42.5881C534.589 40.983 534.128 39.7045 533.205 38.7528C532.295 37.8011 531.095 37.3253 529.604 37.3253C528.595 37.3253 527.686 37.581 526.876 38.0923C526.081 38.5895 525.449 39.2926 524.98 40.2017C524.511 41.0966 524.277 42.1477 524.277 43.3551V63H515.2Z" fill="white"/>
<path d="M207.284 553V509.364H222.028C225.452 509.364 228.25 509.982 230.423 511.217C232.611 512.439 234.23 514.094 235.281 516.182C236.332 518.27 236.858 520.599 236.858 523.17C236.858 525.741 236.332 528.078 235.281 530.18C234.244 532.283 232.639 533.959 230.466 535.209C228.293 536.445 225.509 537.062 222.114 537.062H211.545V532.375H221.943C224.287 532.375 226.169 531.97 227.589 531.161C229.01 530.351 230.04 529.257 230.679 527.879C231.332 526.487 231.659 524.918 231.659 523.17C231.659 521.423 231.332 519.861 230.679 518.483C230.04 517.105 229.003 516.026 227.568 515.244C226.134 514.449 224.23 514.051 221.858 514.051H212.568V553H207.284ZM258.058 553.682C254.905 553.682 252.185 552.986 249.898 551.594C247.625 550.188 245.871 548.227 244.635 545.713C243.413 543.185 242.803 540.244 242.803 536.892C242.803 533.54 243.413 530.585 244.635 528.028C245.871 525.457 247.589 523.455 249.791 522.02C252.007 520.571 254.592 519.847 257.547 519.847C259.251 519.847 260.935 520.131 262.597 520.699C264.259 521.267 265.771 522.19 267.135 523.469C268.499 524.733 269.585 526.409 270.395 528.497C271.205 530.585 271.609 533.156 271.609 536.21V538.341H246.382V533.994H266.496C266.496 532.148 266.126 530.5 265.388 529.051C264.663 527.602 263.626 526.459 262.277 525.621C260.942 524.783 259.365 524.364 257.547 524.364C255.544 524.364 253.811 524.861 252.348 525.855C250.899 526.835 249.784 528.114 249.003 529.69C248.222 531.267 247.831 532.957 247.831 534.761V537.659C247.831 540.131 248.257 542.226 249.109 543.945C249.976 545.649 251.176 546.949 252.71 547.844C254.244 548.724 256.027 549.165 258.058 549.165C259.379 549.165 260.572 548.98 261.638 548.611C262.717 548.227 263.648 547.659 264.429 546.906C265.21 546.139 265.814 545.187 266.24 544.051L271.098 545.415C270.587 547.062 269.727 548.511 268.52 549.761C267.313 550.997 265.821 551.963 264.045 552.659C262.27 553.341 260.274 553.682 258.058 553.682ZM279.259 553V520.273H284.116V525.216H284.457C285.054 523.597 286.134 522.283 287.696 521.274C289.259 520.266 291.02 519.761 292.98 519.761C293.349 519.761 293.811 519.768 294.365 519.783C294.919 519.797 295.338 519.818 295.622 519.847V524.96C295.452 524.918 295.061 524.854 294.45 524.768C293.854 524.669 293.222 524.619 292.554 524.619C290.963 524.619 289.543 524.953 288.293 525.621C287.057 526.274 286.077 527.183 285.352 528.348C284.642 529.499 284.287 530.812 284.287 532.29V553H279.259ZM301.583 553V520.273H306.611V553H301.583ZM304.14 514.818C303.159 514.818 302.314 514.484 301.604 513.817C300.908 513.149 300.56 512.347 300.56 511.409C300.56 510.472 300.908 509.669 301.604 509.001C302.314 508.334 303.159 508 304.14 508C305.12 508 305.958 508.334 306.654 509.001C307.364 509.669 307.719 510.472 307.719 511.409C307.719 512.347 307.364 513.149 306.654 513.817C305.958 514.484 305.12 514.818 304.14 514.818ZM315.821 553V520.273H320.679V525.386H321.105C321.787 523.639 322.888 522.283 324.408 521.317C325.928 520.337 327.753 519.847 329.884 519.847C332.043 519.847 333.839 520.337 335.274 521.317C336.723 522.283 337.852 523.639 338.662 525.386H339.003C339.841 523.696 341.098 522.354 342.774 521.359C344.45 520.351 346.46 519.847 348.804 519.847C351.73 519.847 354.124 520.763 355.984 522.595C357.845 524.413 358.776 527.247 358.776 531.097V553H353.747V531.097C353.747 528.682 353.087 526.956 351.766 525.919C350.445 524.882 348.889 524.364 347.099 524.364C344.798 524.364 343.016 525.06 341.751 526.452C340.487 527.83 339.855 529.577 339.855 531.693V553H334.741V530.585C334.741 528.724 334.138 527.226 332.93 526.089C331.723 524.939 330.168 524.364 328.264 524.364C326.957 524.364 325.736 524.712 324.599 525.408C323.477 526.104 322.568 527.07 321.872 528.305C321.19 529.527 320.849 530.94 320.849 532.545V553H315.821ZM381.691 553.682C378.538 553.682 375.817 552.986 373.531 551.594C371.258 550.188 369.504 548.227 368.268 545.713C367.046 543.185 366.435 540.244 366.435 536.892C366.435 533.54 367.046 530.585 368.268 528.028C369.504 525.457 371.222 523.455 373.424 522.02C375.64 520.571 378.225 519.847 381.18 519.847C382.884 519.847 384.567 520.131 386.229 520.699C387.891 521.267 389.404 522.19 390.768 523.469C392.131 524.733 393.218 526.409 394.028 528.497C394.837 530.585 395.242 533.156 395.242 536.21V538.341H370.015V533.994H390.129C390.129 532.148 389.759 530.5 389.021 529.051C388.296 527.602 387.259 526.459 385.91 525.621C384.575 524.783 382.998 524.364 381.18 524.364C379.177 524.364 377.444 524.861 375.981 525.855C374.532 526.835 373.417 528.114 372.636 529.69C371.854 531.267 371.464 532.957 371.464 534.761V537.659C371.464 540.131 371.89 542.226 372.742 543.945C373.609 545.649 374.809 546.949 376.343 547.844C377.877 548.724 379.66 549.165 381.691 549.165C383.012 549.165 384.205 548.98 385.271 548.611C386.35 548.227 387.281 547.659 388.062 546.906C388.843 546.139 389.447 545.187 389.873 544.051L394.731 545.415C394.219 547.062 393.36 548.511 392.153 549.761C390.945 550.997 389.454 551.963 387.678 552.659C385.903 553.341 383.907 553.682 381.691 553.682ZM417.124 520.273V524.534H400.164V520.273H417.124ZM405.107 512.432H410.136V543.625C410.136 545.045 410.342 546.111 410.754 546.821C411.18 547.517 411.719 547.986 412.373 548.227C413.04 548.455 413.744 548.568 414.482 548.568C415.036 548.568 415.491 548.54 415.846 548.483C416.201 548.412 416.485 548.355 416.698 548.312L417.721 552.83C417.38 552.957 416.904 553.085 416.293 553.213C415.683 553.355 414.908 553.426 413.971 553.426C412.55 553.426 411.158 553.121 409.795 552.51C408.445 551.899 407.323 550.969 406.428 549.719C405.548 548.469 405.107 546.892 405.107 544.989V512.432ZM438.058 553.682C434.905 553.682 432.185 552.986 429.898 551.594C427.625 550.188 425.871 548.227 424.635 545.713C423.413 543.185 422.803 540.244 422.803 536.892C422.803 533.54 423.413 530.585 424.635 528.028C425.871 525.457 427.589 523.455 429.791 522.02C432.007 520.571 434.592 519.847 437.547 519.847C439.251 519.847 440.935 520.131 442.597 520.699C444.259 521.267 445.771 522.19 447.135 523.469C448.499 524.733 449.585 526.409 450.395 528.497C451.205 530.585 451.609 533.156 451.609 536.21V538.341H426.382V533.994H446.496C446.496 532.148 446.126 530.5 445.388 529.051C444.663 527.602 443.626 526.459 442.277 525.621C440.942 524.783 439.365 524.364 437.547 524.364C435.544 524.364 433.811 524.861 432.348 525.855C430.899 526.835 429.784 528.114 429.003 529.69C428.222 531.267 427.831 532.957 427.831 534.761V537.659C427.831 540.131 428.257 542.226 429.109 543.945C429.976 545.649 431.176 546.949 432.71 547.844C434.244 548.724 436.027 549.165 438.058 549.165C439.379 549.165 440.572 548.98 441.638 548.611C442.717 548.227 443.648 547.659 444.429 546.906C445.21 546.139 445.814 545.187 446.24 544.051L451.098 545.415C450.587 547.062 449.727 548.511 448.52 549.761C447.313 550.997 445.821 551.963 444.045 552.659C442.27 553.341 440.274 553.682 438.058 553.682ZM459.259 553V520.273H464.116V525.216H464.457C465.054 523.597 466.134 522.283 467.696 521.274C469.259 520.266 471.02 519.761 472.98 519.761C473.349 519.761 473.811 519.768 474.365 519.783C474.919 519.797 475.338 519.818 475.622 519.847V524.96C475.452 524.918 475.061 524.854 474.45 524.768C473.854 524.669 473.222 524.619 472.554 524.619C470.963 524.619 469.543 524.953 468.293 525.621C467.057 526.274 466.077 527.183 465.352 528.348C464.642 529.499 464.287 530.812 464.287 532.29V553H459.259ZM500.503 527.176V522.574H526.753V527.176H500.503ZM500.503 539.79V535.188H526.753V539.79H500.503ZM556.162 553L575.679 514.392V514.051H553.179V509.364H581.134V514.307L561.702 553H556.162ZM591.611 553L611.128 514.392V514.051H588.628V509.364H616.583V514.307L597.151 553H591.611ZM654.781 553.682C651.712 553.682 649.07 552.957 646.854 551.509C644.638 550.06 642.934 548.064 641.741 545.521C640.548 542.979 639.951 540.074 639.951 536.807C639.951 533.483 640.562 530.55 641.783 528.007C643.019 525.45 644.738 523.455 646.94 522.02C649.156 520.571 651.741 519.847 654.695 519.847C656.996 519.847 659.07 520.273 660.917 521.125C662.763 521.977 664.276 523.17 665.455 524.705C666.634 526.239 667.366 528.028 667.65 530.074H662.621C662.238 528.582 661.386 527.261 660.065 526.111C658.758 524.946 656.996 524.364 654.781 524.364C652.82 524.364 651.102 524.875 649.624 525.898C648.161 526.906 647.018 528.334 646.194 530.18C645.384 532.013 644.979 534.165 644.979 536.636C644.979 539.165 645.377 541.366 646.173 543.241C646.982 545.116 648.119 546.572 649.582 547.609C651.059 548.646 652.792 549.165 654.781 549.165C656.087 549.165 657.273 548.938 658.339 548.483C659.404 548.028 660.306 547.375 661.045 546.523C661.783 545.67 662.309 544.648 662.621 543.455H667.65C667.366 545.386 666.663 547.126 665.54 548.675C664.433 550.209 662.962 551.43 661.13 552.339C659.312 553.234 657.195 553.682 654.781 553.682ZM675.001 553V520.273H679.859V525.386H680.285C680.967 523.639 682.067 522.283 683.587 521.317C685.107 520.337 686.933 519.847 689.063 519.847C691.222 519.847 693.019 520.337 694.454 521.317C695.903 522.283 697.032 523.639 697.842 525.386H698.183C699.021 523.696 700.278 522.354 701.954 521.359C703.63 520.351 705.64 519.847 707.984 519.847C710.91 519.847 713.303 520.763 715.164 522.595C717.025 524.413 717.955 527.247 717.955 531.097V553H712.927V531.097C712.927 528.682 712.266 526.956 710.945 525.919C709.624 524.882 708.069 524.364 706.279 524.364C703.978 524.364 702.195 525.06 700.931 526.452C699.667 527.83 699.035 529.577 699.035 531.693V553H693.921V530.585C693.921 528.724 693.317 527.226 692.11 526.089C690.903 524.939 689.347 524.364 687.444 524.364C686.137 524.364 684.915 524.712 683.779 525.408C682.657 526.104 681.748 527.07 681.052 528.305C680.37 529.527 680.029 530.94 680.029 532.545V553H675.001Z" fill="white"/>
<path d="M301.42 283.918V283.193C301.435 280.707 301.655 278.726 302.081 277.249C302.521 275.771 303.161 274.578 303.999 273.669C304.837 272.76 305.845 271.936 307.024 271.197C307.905 270.629 308.693 270.04 309.389 269.429C310.085 268.818 310.639 268.143 311.051 267.405C311.463 266.652 311.669 265.814 311.669 264.891C311.669 263.911 311.435 263.051 310.966 262.312C310.497 261.574 309.865 261.006 309.07 260.608C308.288 260.21 307.422 260.011 306.47 260.011C305.547 260.011 304.673 260.217 303.849 260.629C303.026 261.027 302.351 261.624 301.825 262.419C301.3 263.2 301.016 264.173 300.973 265.338H292.28C292.351 262.497 293.033 260.153 294.325 258.307C295.618 256.446 297.33 255.061 299.46 254.152C301.591 253.229 303.942 252.767 306.513 252.767C309.339 252.767 311.839 253.236 314.013 254.173C316.186 255.097 317.891 256.439 319.126 258.2C320.362 259.962 320.98 262.085 320.98 264.571C320.98 266.233 320.703 267.71 320.149 269.003C319.609 270.281 318.849 271.418 317.869 272.412C316.889 273.392 315.732 274.28 314.396 275.075C313.274 275.743 312.351 276.439 311.626 277.163C310.916 277.888 310.384 278.726 310.028 279.678C309.688 280.629 309.51 281.801 309.496 283.193V283.918H301.42ZM305.639 297.554C304.219 297.554 303.004 297.057 301.996 296.062C301.001 295.054 300.511 293.847 300.526 292.44C300.511 291.048 301.001 289.855 301.996 288.861C303.004 287.866 304.219 287.369 305.639 287.369C306.989 287.369 308.175 287.866 309.197 288.861C310.22 289.855 310.739 291.048 310.753 292.44C310.739 293.378 310.49 294.237 310.007 295.018C309.538 295.786 308.92 296.403 308.153 296.872C307.386 297.327 306.548 297.554 305.639 297.554Z" fill="white"/>
<line x1="281.999" y1="82.832" x2="463.832" y2="464.001" stroke="#FFB84D" stroke-width="12" stroke-linecap="round"/>
<path d="M281 81L659 81" stroke="white" stroke-width="12" stroke-linecap="round"/>
<line x1="657.634" y1="83.0661" x2="464.066" y2="464.366" stroke="#FFB84D" stroke-width="12" stroke-linecap="round"/>
<line x1="544.832" y1="255.215" x2="584.206" y2="278.597" stroke="white" stroke-width="10"/>
<line x1="389.855" y1="254.771" x2="348.915" y2="275.287" stroke="white" stroke-width="10"/>
</svg>
