<svg width="891" height="597" viewBox="0 0 891 597" fill="none" xmlns="http://www.w3.org/2000/svg">
<path d="M461.752 467L276 78L662 78L461.752 467Z" fill="#5FD7FF"/>
<path d="M392.537 63V56.3523L408.07 41.9702C409.391 40.6918 410.499 39.5412 411.393 38.5185C412.303 37.4957 412.991 36.4943 413.46 35.5142C413.929 34.5199 414.163 33.4474 414.163 32.2969C414.163 31.0185 413.872 29.9176 413.29 28.9943C412.707 28.0568 411.912 27.3395 410.903 26.8423C409.895 26.331 408.751 26.0753 407.473 26.0753C406.138 26.0753 404.973 26.3452 403.979 26.8849C402.984 27.4247 402.217 28.1989 401.678 29.2074C401.138 30.2159 400.868 31.4162 400.868 32.8082H392.111C392.111 29.9531 392.757 27.4744 394.05 25.3722C395.342 23.2699 397.153 21.6435 399.483 20.4929C401.813 19.3423 404.497 18.767 407.537 18.767C410.662 18.767 413.382 19.321 415.697 20.429C418.027 21.5227 419.838 23.0426 421.131 24.9886C422.423 26.9347 423.07 29.1648 423.07 31.679C423.07 33.3267 422.743 34.9531 422.089 36.5582C421.45 38.1634 420.307 39.946 418.659 41.9062C417.011 43.8523 414.689 46.1889 411.692 48.9162L405.321 55.1591V55.4574H423.645V63H392.537ZM432.056 63L450.145 27.2045V26.9062H429.073V19.3636H459.691V27.0128L441.58 63H432.056ZM494.772 63.6392C491.42 63.6392 488.537 62.929 486.122 61.5085C483.721 60.0739 481.875 58.0852 480.582 55.5426C479.304 53 478.664 50.0739 478.664 46.7642C478.664 43.4119 479.311 40.4716 480.603 37.9432C481.91 35.4006 483.764 33.419 486.164 31.9986C488.565 30.5639 491.42 29.8466 494.73 29.8466C497.585 29.8466 500.085 30.3651 502.23 31.402C504.375 32.4389 506.072 33.8949 507.322 35.7699C508.572 37.6449 509.261 39.8466 509.389 42.375H500.824C500.582 40.7415 499.943 39.4276 498.906 38.4332C497.883 37.4247 496.541 36.9205 494.879 36.9205C493.473 36.9205 492.244 37.304 491.193 38.071C490.156 38.8239 489.346 39.9247 488.764 41.3736C488.181 42.8224 487.89 44.5767 487.89 46.6364C487.89 48.7244 488.174 50.5 488.743 51.9631C489.325 53.4261 490.142 54.5412 491.193 55.3082C492.244 56.0753 493.473 56.4588 494.879 56.4588C495.916 56.4588 496.846 56.2457 497.67 55.8196C498.508 55.3935 499.197 54.7756 499.737 53.9659C500.291 53.142 500.653 52.1548 500.824 51.0043H509.389C509.247 53.5043 508.565 55.706 507.343 57.6094C506.136 59.4986 504.467 60.9759 502.336 62.0412C500.206 63.1065 497.684 63.6392 494.772 63.6392ZM515.2 63V30.2727H523.851V36.0469H524.234C524.916 34.1293 526.053 32.6165 527.643 31.5085C529.234 30.4006 531.138 29.8466 533.354 29.8466C535.598 29.8466 537.509 30.4077 539.085 31.5298C540.662 32.6378 541.713 34.1435 542.239 36.0469H542.58C543.247 34.1719 544.455 32.6733 546.202 31.5511C547.963 30.4148 550.044 29.8466 552.445 29.8466C555.499 29.8466 557.977 30.8196 559.881 32.7656C561.798 34.6974 562.757 37.4389 562.757 40.9901V63H553.702V42.7798C553.702 40.9616 553.219 39.598 552.253 38.6889C551.287 37.7798 550.08 37.3253 548.631 37.3253C546.983 37.3253 545.697 37.8509 544.774 38.902C543.851 39.9389 543.389 41.3097 543.389 43.0142V63H534.589V42.5881C534.589 40.983 534.128 39.7045 533.205 38.7528C532.295 37.8011 531.095 37.3253 529.604 37.3253C528.595 37.3253 527.686 37.581 526.876 38.0923C526.081 38.5895 525.449 39.2926 524.98 40.2017C524.511 41.0966 524.277 42.1477 524.277 43.3551V63H515.2Z" fill="white"/>
<path d="M207.284 553V509.364H212.568V531.011H213.08L232.682 509.364H239.585L221.261 529.051L239.585 553H233.193L218.023 532.716L212.568 538.852V553H207.284ZM257.062 553.682C253.909 553.682 251.189 552.986 248.902 551.594C246.629 550.188 244.875 548.227 243.639 545.713C242.417 543.185 241.806 540.244 241.806 536.892C241.806 533.54 242.417 530.585 243.639 528.028C244.875 525.457 246.593 523.455 248.795 522.02C251.011 520.571 253.596 519.847 256.551 519.847C258.255 519.847 259.939 520.131 261.6 520.699C263.262 521.267 264.775 522.19 266.139 523.469C267.502 524.733 268.589 526.409 269.399 528.497C270.208 530.585 270.613 533.156 270.613 536.21V538.341H245.386V533.994H265.5C265.5 532.148 265.13 530.5 264.392 529.051C263.667 527.602 262.63 526.459 261.281 525.621C259.946 524.783 258.369 524.364 256.551 524.364C254.548 524.364 252.815 524.861 251.352 525.855C249.903 526.835 248.788 528.114 248.007 529.69C247.225 531.267 246.835 532.957 246.835 534.761V537.659C246.835 540.131 247.261 542.226 248.113 543.945C248.98 545.649 250.18 546.949 251.714 547.844C253.248 548.724 255.031 549.165 257.062 549.165C258.383 549.165 259.576 548.98 260.642 548.611C261.721 548.227 262.652 547.659 263.433 546.906C264.214 546.139 264.818 545.187 265.244 544.051L270.102 545.415C269.591 547.062 268.731 548.511 267.524 549.761C266.316 550.997 264.825 551.963 263.049 552.659C261.274 553.341 259.278 553.682 257.062 553.682ZM283.291 509.364V553H278.262V509.364H283.291ZM292.501 553V520.273H297.529V553H292.501ZM295.058 514.818C294.077 514.818 293.232 514.484 292.522 513.817C291.826 513.149 291.478 512.347 291.478 511.409C291.478 510.472 291.826 509.669 292.522 509.001C293.232 508.334 294.077 508 295.058 508C296.038 508 296.876 508.334 297.572 509.001C298.282 509.669 298.637 510.472 298.637 511.409C298.637 512.347 298.282 513.149 297.572 513.817C296.876 514.484 296.038 514.818 295.058 514.818ZM311.767 509.364V553H306.739V509.364H311.767ZM320.977 553V520.273H326.006V553H320.977ZM323.534 514.818C322.554 514.818 321.709 514.484 320.999 513.817C320.303 513.149 319.955 512.347 319.955 511.409C319.955 510.472 320.303 509.669 320.999 509.001C321.709 508.334 322.554 508 323.534 508C324.514 508 325.352 508.334 326.048 509.001C326.759 509.669 327.114 510.472 327.114 511.409C327.114 512.347 326.759 513.149 326.048 513.817C325.352 514.484 324.514 514.818 323.534 514.818ZM340.244 533.312V553H335.216V520.273H340.074V525.386H340.5C341.267 523.724 342.431 522.389 343.994 521.381C345.556 520.358 347.574 519.847 350.045 519.847C352.261 519.847 354.2 520.301 355.862 521.21C357.524 522.105 358.816 523.469 359.74 525.301C360.663 527.119 361.125 529.42 361.125 532.205V553H356.096V532.545C356.096 529.974 355.429 527.972 354.093 526.537C352.758 525.088 350.926 524.364 348.596 524.364C346.991 524.364 345.556 524.712 344.292 525.408C343.042 526.104 342.055 527.119 341.331 528.455C340.606 529.79 340.244 531.409 340.244 533.312ZM383.523 565.955C381.094 565.955 379.006 565.642 377.259 565.017C375.512 564.406 374.056 563.597 372.891 562.588C371.741 561.594 370.825 560.528 370.143 559.392L374.148 556.58C374.603 557.176 375.178 557.858 375.874 558.625C376.57 559.406 377.522 560.081 378.729 560.649C379.951 561.232 381.549 561.523 383.523 561.523C386.165 561.523 388.346 560.884 390.065 559.605C391.783 558.327 392.643 556.324 392.643 553.597V546.949H392.217C391.847 547.545 391.322 548.284 390.64 549.165C389.972 550.031 389.006 550.805 387.742 551.487C386.492 552.155 384.802 552.489 382.671 552.489C380.029 552.489 377.657 551.864 375.555 550.614C373.467 549.364 371.812 547.545 370.59 545.159C369.383 542.773 368.779 539.875 368.779 536.466C368.779 533.114 369.369 530.195 370.548 527.709C371.727 525.209 373.367 523.277 375.469 521.913C377.572 520.536 380.001 519.847 382.756 519.847C384.887 519.847 386.577 520.202 387.827 520.912C389.092 521.608 390.058 522.403 390.725 523.298C391.407 524.179 391.933 524.903 392.302 525.472H392.813V520.273H397.671V553.938C397.671 556.75 397.032 559.037 395.754 560.798C394.489 562.574 392.785 563.874 390.64 564.697C388.509 565.536 386.137 565.955 383.523 565.955ZM383.353 547.972C385.37 547.972 387.075 547.51 388.467 546.587C389.859 545.663 390.917 544.335 391.641 542.602C392.366 540.869 392.728 538.795 392.728 536.381C392.728 534.023 392.373 531.942 391.663 530.138C390.952 528.334 389.901 526.92 388.509 525.898C387.117 524.875 385.398 524.364 383.353 524.364C381.222 524.364 379.447 524.903 378.026 525.983C376.62 527.062 375.562 528.511 374.852 530.33C374.156 532.148 373.808 534.165 373.808 536.381C373.808 538.653 374.163 540.663 374.873 542.411C375.597 544.143 376.663 545.507 378.069 546.501C379.489 547.482 381.251 547.972 383.353 547.972ZM425.796 527.176V522.574H452.046V527.176H425.796ZM425.796 539.79V535.188H452.046V539.79H425.796ZM481.455 553L500.972 514.392V514.051H478.472V509.364H506.426V514.307L486.995 553H481.455ZM516.904 553L536.421 514.392V514.051H513.921V509.364H541.876V514.307L522.444 553H516.904ZM580.074 553.682C577.005 553.682 574.363 552.957 572.147 551.509C569.931 550.06 568.227 548.064 567.034 545.521C565.841 542.979 565.244 540.074 565.244 536.807C565.244 533.483 565.855 530.55 567.076 528.007C568.312 525.45 570.031 523.455 572.233 522.02C574.449 520.571 577.034 519.847 579.988 519.847C582.289 519.847 584.363 520.273 586.21 521.125C588.056 521.977 589.569 523.17 590.748 524.705C591.927 526.239 592.659 528.028 592.943 530.074H587.914C587.531 528.582 586.679 527.261 585.358 526.111C584.051 524.946 582.289 524.364 580.074 524.364C578.113 524.364 576.395 524.875 574.917 525.898C573.454 526.906 572.311 528.334 571.487 530.18C570.677 532.013 570.272 534.165 570.272 536.636C570.272 539.165 570.67 541.366 571.466 543.241C572.275 545.116 573.412 546.572 574.875 547.609C576.352 548.646 578.085 549.165 580.074 549.165C581.38 549.165 582.566 548.938 583.632 548.483C584.697 548.028 585.599 547.375 586.338 546.523C587.076 545.67 587.602 544.648 587.914 543.455H592.943C592.659 545.386 591.956 547.126 590.833 548.675C589.725 550.209 588.255 551.43 586.423 552.339C584.605 553.234 582.488 553.682 580.074 553.682ZM600.294 553V520.273H605.152V525.386H605.578C606.26 523.639 607.36 522.283 608.88 521.317C610.4 520.337 612.225 519.847 614.356 519.847C616.515 519.847 618.312 520.337 619.747 521.317C621.196 522.283 622.325 523.639 623.135 525.386H623.475C624.314 523.696 625.571 522.354 627.247 521.359C628.923 520.351 630.933 519.847 633.277 519.847C636.203 519.847 638.596 520.763 640.457 522.595C642.318 524.413 643.248 527.247 643.248 531.097V553H638.22V531.097C638.22 528.682 637.559 526.956 636.238 525.919C634.917 524.882 633.362 524.364 631.572 524.364C629.271 524.364 627.488 525.06 626.224 526.452C624.96 527.83 624.328 529.577 624.328 531.693V553H619.214V530.585C619.214 528.724 618.61 527.226 617.403 526.089C616.196 524.939 614.64 524.364 612.737 524.364C611.43 524.364 610.208 524.712 609.072 525.408C607.95 526.104 607.041 527.07 606.345 528.305C605.663 529.527 605.322 530.94 605.322 532.545V553H600.294Z" fill="#FFB84D"/>
<path d="M301.42 283.918V283.193C301.435 280.707 301.655 278.726 302.081 277.249C302.521 275.771 303.161 274.578 303.999 273.669C304.837 272.76 305.845 271.936 307.024 271.197C307.905 270.629 308.693 270.04 309.389 269.429C310.085 268.818 310.639 268.143 311.051 267.405C311.463 266.652 311.669 265.814 311.669 264.891C311.669 263.911 311.435 263.051 310.966 262.312C310.497 261.574 309.865 261.006 309.07 260.608C308.288 260.21 307.422 260.011 306.47 260.011C305.547 260.011 304.673 260.217 303.849 260.629C303.026 261.027 302.351 261.624 301.825 262.419C301.3 263.2 301.016 264.173 300.973 265.338H292.28C292.351 262.497 293.033 260.153 294.325 258.307C295.618 256.446 297.33 255.061 299.46 254.152C301.591 253.229 303.942 252.767 306.513 252.767C309.339 252.767 311.839 253.236 314.013 254.173C316.186 255.097 317.891 256.439 319.126 258.2C320.362 259.962 320.98 262.085 320.98 264.571C320.98 266.233 320.703 267.71 320.149 269.003C319.609 270.281 318.849 271.418 317.869 272.412C316.889 273.392 315.732 274.28 314.396 275.075C313.274 275.743 312.351 276.439 311.626 277.163C310.916 277.888 310.384 278.726 310.028 279.678C309.688 280.629 309.51 281.801 309.496 283.193V283.918H301.42ZM305.639 297.554C304.219 297.554 303.004 297.057 301.996 296.062C301.001 295.054 300.511 293.847 300.526 292.44C300.511 291.048 301.001 289.855 301.996 288.861C303.004 287.866 304.219 287.369 305.639 287.369C306.989 287.369 308.175 287.866 309.197 288.861C310.22 289.855 310.739 291.048 310.753 292.44C310.739 293.378 310.49 294.237 310.007 295.018C309.538 295.786 308.92 296.403 308.153 296.872C307.386 297.327 306.548 297.554 305.639 297.554Z" fill="white"/>
<line x1="281.999" y1="82.832" x2="463.832" y2="464.001" stroke="#FFB84D" stroke-width="12" stroke-linecap="round"/>
<path d="M281 81L659 81" stroke="#FFB84D" stroke-width="12" stroke-linecap="round"/>
<line x1="657.634" y1="83.0661" x2="464.066" y2="464.366" stroke="#FFB84D" stroke-width="12" stroke-linecap="round"/>
<line x1="544.832" y1="255.215" x2="584.206" y2="278.597" stroke="white" stroke-width="10"/>
<line x1="389.855" y1="254.771" x2="348.915" y2="275.287" stroke="white" stroke-width="10"/>
</svg>
