<svg width="947" height="668" viewBox="0 0 947 668" fill="none" xmlns="http://www.w3.org/2000/svg">
<path d="M473 38L732.808 488L213.192 488L473 38Z" fill="#5FD7FF"/>
<line x1="472.191" y1="38.1976" x2="212.198" y2="487.809" stroke="white" stroke-width="12" stroke-linecap="round"/>
<line x1="732.804" y1="486.804" x2="473.804" y2="38.1961" stroke="white" stroke-width="12" stroke-linecap="round"/>
<line x1="733" y1="488" x2="213" y2="488" stroke="white" stroke-width="12" stroke-linecap="round"/>
<line x1="483.283" y1="465.219" x2="483.283" y2="511.012" stroke="white" stroke-width="10"/>
<line x1="628.62" y1="259.258" x2="589.62" y2="283.258" stroke="white" stroke-width="10"/>
<line x1="356.48" y1="283.319" x2="316.926" y2="260.243" stroke="white" stroke-width="10"/>
<path d="M196.793 623V579.364H206.018V598.604H206.594L222.297 579.364H233.355L217.162 598.902L233.547 623H222.51L210.557 605.06L206.018 610.599V623H196.793ZM250.502 623.639C247.135 623.639 244.238 622.957 241.809 621.594C239.394 620.216 237.533 618.27 236.226 615.756C234.919 613.227 234.266 610.237 234.266 606.786C234.266 603.419 234.919 600.464 236.226 597.922C237.533 595.379 239.373 593.398 241.745 591.977C244.131 590.557 246.929 589.847 250.14 589.847C252.299 589.847 254.309 590.195 256.169 590.891C258.044 591.572 259.678 592.602 261.07 593.98C262.476 595.358 263.57 597.091 264.351 599.179C265.132 601.253 265.523 603.682 265.523 606.466V608.959H237.888V603.334H256.979C256.979 602.027 256.695 600.869 256.127 599.861C255.559 598.852 254.77 598.064 253.762 597.496C252.767 596.913 251.61 596.622 250.289 596.622C248.911 596.622 247.689 596.942 246.624 597.581C245.573 598.206 244.749 599.051 244.152 600.116C243.556 601.168 243.25 602.339 243.236 603.632V608.98C243.236 610.599 243.534 611.999 244.131 613.178C244.742 614.357 245.601 615.266 246.709 615.905C247.817 616.544 249.131 616.864 250.651 616.864C251.659 616.864 252.583 616.722 253.421 616.438C254.259 616.153 254.976 615.727 255.573 615.159C256.169 614.591 256.624 613.895 256.936 613.071L265.331 613.625C264.905 615.642 264.032 617.403 262.711 618.909C261.404 620.401 259.713 621.565 257.64 622.403C255.58 623.227 253.201 623.639 250.502 623.639ZM280.523 579.364V623H271.446V579.364H280.523ZM287.794 623V590.273H296.871V623H287.794ZM292.354 586.054C291.004 586.054 289.847 585.607 288.881 584.712C287.929 583.803 287.453 582.716 287.453 581.452C287.453 580.202 287.929 579.129 288.881 578.234C289.847 577.325 291.004 576.871 292.354 576.871C293.703 576.871 294.854 577.325 295.805 578.234C296.771 579.129 297.254 580.202 297.254 581.452C297.254 582.716 296.771 583.803 295.805 584.712C294.854 585.607 293.703 586.054 292.354 586.054ZM313.218 579.364V623H304.142V579.364H313.218ZM320.489 623V590.273H329.566V623H320.489ZM325.049 586.054C323.7 586.054 322.542 585.607 321.576 584.712C320.624 583.803 320.148 582.716 320.148 581.452C320.148 580.202 320.624 579.129 321.576 578.234C322.542 577.325 323.7 576.871 325.049 576.871C326.398 576.871 327.549 577.325 328.501 578.234C329.467 579.129 329.95 580.202 329.95 581.452C329.95 582.716 329.467 583.803 328.501 584.712C327.549 585.607 326.398 586.054 325.049 586.054ZM345.914 604.08V623H336.837V590.273H345.488V596.047H345.871C346.596 594.143 347.81 592.638 349.515 591.53C351.219 590.408 353.286 589.847 355.715 589.847C357.988 589.847 359.969 590.344 361.659 591.338C363.35 592.332 364.664 593.753 365.601 595.599C366.539 597.432 367.007 599.619 367.007 602.162V623H357.931V603.781C357.945 601.778 357.434 600.216 356.397 599.094C355.36 597.957 353.932 597.389 352.114 597.389C350.892 597.389 349.813 597.652 348.875 598.178C347.952 598.703 347.228 599.47 346.702 600.479C346.191 601.473 345.928 602.673 345.914 604.08ZM388.906 635.955C385.965 635.955 383.444 635.55 381.342 634.74C379.254 633.945 377.592 632.858 376.356 631.48C375.12 630.102 374.317 628.554 373.948 626.835L382.343 625.706C382.599 626.359 383.004 626.97 383.558 627.538C384.112 628.107 384.843 628.561 385.752 628.902C386.675 629.257 387.798 629.435 389.119 629.435C391.093 629.435 392.719 628.952 393.998 627.986C395.29 627.034 395.937 625.436 395.937 623.192V617.205H395.553C395.156 618.114 394.559 618.973 393.763 619.783C392.968 620.592 391.945 621.253 390.695 621.764C389.445 622.276 387.954 622.531 386.221 622.531C383.763 622.531 381.526 621.963 379.509 620.827C377.506 619.676 375.908 617.922 374.715 615.564C373.536 613.192 372.947 610.195 372.947 606.572C372.947 602.865 373.55 599.768 374.758 597.283C375.965 594.797 377.57 592.936 379.573 591.7C381.59 590.464 383.799 589.847 386.2 589.847C388.032 589.847 389.566 590.159 390.802 590.784C392.038 591.395 393.032 592.162 393.785 593.085C394.552 593.994 395.141 594.889 395.553 595.77H395.894V590.273H404.907V623.32C404.907 626.104 404.225 628.433 402.862 630.308C401.498 632.183 399.609 633.589 397.194 634.527C394.793 635.479 392.031 635.955 388.906 635.955ZM389.097 615.713C390.56 615.713 391.796 615.351 392.805 614.626C393.827 613.888 394.609 612.837 395.148 611.473C395.702 610.095 395.979 608.447 395.979 606.53C395.979 604.612 395.71 602.95 395.17 601.544C394.63 600.124 393.849 599.023 392.826 598.241C391.803 597.46 390.56 597.07 389.097 597.07C387.606 597.07 386.349 597.474 385.326 598.284C384.303 599.08 383.529 600.187 383.004 601.608C382.478 603.028 382.215 604.669 382.215 606.53C382.215 608.419 382.478 610.053 383.004 611.43C383.543 612.794 384.317 613.852 385.326 614.605C386.349 615.344 387.606 615.713 389.097 615.713ZM428.062 597.901V590.315H457.487V597.901H428.062ZM428.062 612.048V604.463H457.487V612.048H428.062ZM499.584 579.364V623H490.358V588.121H490.102L480.109 594.385V586.203L490.912 579.364H499.584ZM528.939 579.364V623H519.713V588.121H519.458L509.465 594.385V586.203L520.267 579.364H528.939ZM538.65 615.33V608.064L556.867 579.364H563.131V589.42H559.424L547.94 607.595V607.936H573.827V615.33H538.65ZM559.594 623V613.114L559.765 609.896V579.364H568.415V623H559.594ZM608.733 623.639C605.381 623.639 602.498 622.929 600.083 621.509C597.682 620.074 595.836 618.085 594.543 615.543C593.265 613 592.625 610.074 592.625 606.764C592.625 603.412 593.272 600.472 594.564 597.943C595.871 595.401 597.725 593.419 600.125 591.999C602.526 590.564 605.381 589.847 608.691 589.847C611.546 589.847 614.046 590.365 616.191 591.402C618.336 592.439 620.033 593.895 621.283 595.77C622.533 597.645 623.222 599.847 623.35 602.375H614.784C614.543 600.741 613.904 599.428 612.867 598.433C611.844 597.425 610.502 596.92 608.84 596.92C607.434 596.92 606.205 597.304 605.154 598.071C604.117 598.824 603.307 599.925 602.725 601.374C602.142 602.822 601.851 604.577 601.851 606.636C601.851 608.724 602.135 610.5 602.703 611.963C603.286 613.426 604.103 614.541 605.154 615.308C606.205 616.075 607.434 616.459 608.84 616.459C609.877 616.459 610.807 616.246 611.631 615.82C612.469 615.393 613.158 614.776 613.698 613.966C614.252 613.142 614.614 612.155 614.784 611.004H623.35C623.208 613.504 622.526 615.706 621.304 617.609C620.097 619.499 618.428 620.976 616.297 622.041C614.167 623.107 611.645 623.639 608.733 623.639ZM629.161 623V590.273H637.812V596.047H638.195C638.877 594.129 640.013 592.616 641.604 591.509C643.195 590.401 645.099 589.847 647.315 589.847C649.559 589.847 651.469 590.408 653.046 591.53C654.623 592.638 655.674 594.143 656.2 596.047H656.54C657.208 594.172 658.415 592.673 660.163 591.551C661.924 590.415 664.005 589.847 666.406 589.847C669.46 589.847 671.938 590.82 673.842 592.766C675.759 594.697 676.718 597.439 676.718 600.99V623H667.663V602.78C667.663 600.962 667.18 599.598 666.214 598.689C665.248 597.78 664.04 597.325 662.592 597.325C660.944 597.325 659.658 597.851 658.735 598.902C657.812 599.939 657.35 601.31 657.35 603.014V623H648.55V602.588C648.55 600.983 648.089 599.705 647.165 598.753C646.256 597.801 645.056 597.325 643.565 597.325C642.556 597.325 641.647 597.581 640.837 598.092C640.042 598.589 639.41 599.293 638.941 600.202C638.472 601.097 638.238 602.148 638.238 603.355V623H629.161Z" fill="white"/>
<path d="M269.42 265.918V265.193C269.435 262.707 269.655 260.726 270.081 259.249C270.521 257.771 271.161 256.578 271.999 255.669C272.837 254.76 273.845 253.936 275.024 253.197C275.905 252.629 276.693 252.04 277.389 251.429C278.085 250.818 278.639 250.143 279.051 249.405C279.463 248.652 279.669 247.814 279.669 246.891C279.669 245.911 279.435 245.051 278.966 244.312C278.497 243.574 277.865 243.006 277.07 242.608C276.288 242.21 275.422 242.011 274.47 242.011C273.547 242.011 272.673 242.217 271.849 242.629C271.026 243.027 270.351 243.624 269.825 244.419C269.3 245.2 269.016 246.173 268.973 247.338H260.28C260.351 244.497 261.033 242.153 262.325 240.307C263.618 238.446 265.33 237.061 267.46 236.152C269.591 235.229 271.942 234.767 274.513 234.767C277.339 234.767 279.839 235.236 282.013 236.173C284.186 237.097 285.891 238.439 287.126 240.2C288.362 241.962 288.98 244.085 288.98 246.571C288.98 248.233 288.703 249.71 288.149 251.003C287.609 252.281 286.849 253.418 285.869 254.412C284.889 255.392 283.732 256.28 282.396 257.075C281.274 257.743 280.351 258.439 279.626 259.163C278.916 259.888 278.384 260.726 278.028 261.678C277.688 262.629 277.51 263.801 277.496 265.193V265.918H269.42ZM273.639 279.554C272.219 279.554 271.004 279.057 269.996 278.062C269.001 277.054 268.511 275.847 268.526 274.44C268.511 273.048 269.001 271.855 269.996 270.861C271.004 269.866 272.219 269.369 273.639 269.369C274.989 269.369 276.175 269.866 277.197 270.861C278.22 271.855 278.739 273.048 278.753 274.44C278.739 275.378 278.49 276.237 278.007 277.018C277.538 277.786 276.92 278.403 276.153 278.872C275.386 279.327 274.548 279.554 273.639 279.554Z" fill="#FFB84D"/>
</svg>
