<svg width="947" height="668" viewBox="0 0 947 668" fill="none" xmlns="http://www.w3.org/2000/svg">
<path d="M473 38L732.808 488L213.192 488L473 38Z" fill="#5FD7FF"/>
<line x1="472.191" y1="38.1976" x2="212.198" y2="487.809" stroke="white" stroke-width="12" stroke-linecap="round"/>
<line x1="732.804" y1="486.804" x2="473.804" y2="38.1961" stroke="white" stroke-width="12" stroke-linecap="round"/>
<line x1="733" y1="488" x2="213" y2="488" stroke="white" stroke-width="12" stroke-linecap="round"/>
<line x1="483.283" y1="465.219" x2="483.283" y2="511.012" stroke="white" stroke-width="10"/>
<line x1="628.62" y1="259.258" x2="589.62" y2="283.258" stroke="white" stroke-width="10"/>
<line x1="356.48" y1="283.319" x2="316.926" y2="260.243" stroke="white" stroke-width="10"/>
<path d="M196.793 623V579.364H214.009C217.318 579.364 220.138 579.996 222.467 581.26C224.797 582.51 226.572 584.25 227.794 586.48C229.03 588.696 229.648 591.253 229.648 594.151C229.648 597.048 229.023 599.605 227.773 601.821C226.523 604.037 224.712 605.763 222.339 606.999C219.982 608.234 217.126 608.852 213.774 608.852H202.801V601.459H212.283C214.058 601.459 215.521 601.153 216.672 600.543C217.837 599.918 218.703 599.058 219.271 597.964C219.854 596.857 220.145 595.585 220.145 594.151C220.145 592.702 219.854 591.437 219.271 590.358C218.703 589.264 217.837 588.419 216.672 587.822C215.507 587.212 214.03 586.906 212.24 586.906H206.018V623H196.793ZM249.857 623.639C246.491 623.639 243.593 622.957 241.164 621.594C238.749 620.216 236.888 618.27 235.582 615.756C234.275 613.227 233.621 610.237 233.621 606.786C233.621 603.419 234.275 600.464 235.582 597.922C236.888 595.379 238.728 593.398 241.1 591.977C243.487 590.557 246.285 589.847 249.495 589.847C251.654 589.847 253.664 590.195 255.525 590.891C257.4 591.572 259.033 592.602 260.425 593.98C261.832 595.358 262.925 597.091 263.707 599.179C264.488 601.253 264.879 603.682 264.879 606.466V608.959H237.244V603.334H256.335C256.335 602.027 256.05 600.869 255.482 599.861C254.914 598.852 254.126 598.064 253.117 597.496C252.123 596.913 250.965 596.622 249.644 596.622C248.266 596.622 247.045 596.942 245.979 597.581C244.928 598.206 244.104 599.051 243.508 600.116C242.911 601.168 242.606 602.339 242.592 603.632V608.98C242.592 610.599 242.89 611.999 243.487 613.178C244.097 614.357 244.957 615.266 246.065 615.905C247.173 616.544 248.487 616.864 250.006 616.864C251.015 616.864 251.938 616.722 252.776 616.438C253.614 616.153 254.332 615.727 254.928 615.159C255.525 614.591 255.979 613.895 256.292 613.071L264.687 613.625C264.261 615.642 263.387 617.403 262.066 618.909C260.759 620.401 259.069 621.565 256.995 622.403C254.935 623.227 252.556 623.639 249.857 623.639ZM270.802 623V590.273H279.602V595.983H279.942C280.539 593.952 281.54 592.418 282.947 591.381C284.353 590.33 285.972 589.804 287.805 589.804C288.259 589.804 288.749 589.832 289.275 589.889C289.8 589.946 290.262 590.024 290.66 590.124V598.178C290.234 598.05 289.644 597.936 288.891 597.837C288.138 597.737 287.45 597.688 286.825 597.688C285.489 597.688 284.296 597.979 283.245 598.561C282.208 599.129 281.384 599.925 280.773 600.947C280.177 601.97 279.879 603.149 279.879 604.484V623H270.802ZM295.353 623V590.273H304.429V623H295.353ZM299.912 586.054C298.563 586.054 297.405 585.607 296.439 584.712C295.488 583.803 295.012 582.716 295.012 581.452C295.012 580.202 295.488 579.129 296.439 578.234C297.405 577.325 298.563 576.871 299.912 576.871C301.262 576.871 302.412 577.325 303.364 578.234C304.33 579.129 304.813 580.202 304.813 581.452C304.813 582.716 304.33 583.803 303.364 584.712C302.412 585.607 301.262 586.054 299.912 586.054ZM311.7 623V590.273H320.351V596.047H320.734C321.416 594.129 322.553 592.616 324.143 591.509C325.734 590.401 327.638 589.847 329.854 589.847C332.098 589.847 334.009 590.408 335.585 591.53C337.162 592.638 338.213 594.143 338.739 596.047H339.08C339.747 594.172 340.955 592.673 342.702 591.551C344.463 590.415 346.544 589.847 348.945 589.847C351.999 589.847 354.477 590.82 356.381 592.766C358.298 594.697 359.257 597.439 359.257 600.99V623H350.202V602.78C350.202 600.962 349.719 599.598 348.753 598.689C347.787 597.78 346.58 597.325 345.131 597.325C343.483 597.325 342.197 597.851 341.274 598.902C340.351 599.939 339.889 601.31 339.889 603.014V623H331.089V602.588C331.089 600.983 330.628 599.705 329.705 598.753C328.795 597.801 327.595 597.325 326.104 597.325C325.095 597.325 324.186 597.581 323.376 598.092C322.581 598.589 321.949 599.293 321.48 600.202C321.011 601.097 320.777 602.148 320.777 603.355V623H311.7ZM381.342 623.639C377.975 623.639 375.077 622.957 372.648 621.594C370.234 620.216 368.373 618.27 367.066 615.756C365.759 613.227 365.106 610.237 365.106 606.786C365.106 603.419 365.759 600.464 367.066 597.922C368.373 595.379 370.212 593.398 372.585 591.977C374.971 590.557 377.769 589.847 380.979 589.847C383.138 589.847 385.148 590.195 387.009 590.891C388.884 591.572 390.518 592.602 391.91 593.98C393.316 595.358 394.41 597.091 395.191 599.179C395.972 601.253 396.363 603.682 396.363 606.466V608.959H368.728V603.334H387.819C387.819 602.027 387.535 600.869 386.967 599.861C386.398 598.852 385.61 598.064 384.602 597.496C383.607 596.913 382.45 596.622 381.129 596.622C379.751 596.622 378.529 596.942 377.464 597.581C376.413 598.206 375.589 599.051 374.992 600.116C374.396 601.168 374.09 602.339 374.076 603.632V608.98C374.076 610.599 374.374 611.999 374.971 613.178C375.582 614.357 376.441 615.266 377.549 615.905C378.657 616.544 379.971 616.864 381.491 616.864C382.499 616.864 383.423 616.722 384.261 616.438C385.099 616.153 385.816 615.727 386.413 615.159C387.009 614.591 387.464 613.895 387.776 613.071L396.171 613.625C395.745 615.642 394.871 617.403 393.55 618.909C392.244 620.401 390.553 621.565 388.479 622.403C386.42 623.227 384.04 623.639 381.342 623.639ZM419.694 590.273V597.091H399.985V590.273H419.694ZM404.46 582.432H413.536V612.943C413.536 613.781 413.664 614.435 413.92 614.903C414.175 615.358 414.531 615.678 414.985 615.862C415.454 616.047 415.994 616.139 416.604 616.139C417.031 616.139 417.457 616.104 417.883 616.033C418.309 615.947 418.636 615.884 418.863 615.841L420.29 622.595C419.836 622.737 419.197 622.901 418.373 623.085C417.549 623.284 416.548 623.405 415.369 623.447C413.181 623.533 411.263 623.241 409.616 622.574C407.982 621.906 406.711 620.869 405.802 619.463C404.893 618.057 404.445 616.281 404.46 614.136V582.432ZM440.17 623.639C436.803 623.639 433.906 622.957 431.477 621.594C429.062 620.216 427.201 618.27 425.894 615.756C424.587 613.227 423.934 610.237 423.934 606.786C423.934 603.419 424.587 600.464 425.894 597.922C427.201 595.379 429.04 593.398 431.413 591.977C433.799 590.557 436.597 589.847 439.808 589.847C441.967 589.847 443.977 590.195 445.837 590.891C447.712 591.572 449.346 592.602 450.738 593.98C452.144 595.358 453.238 597.091 454.019 599.179C454.8 601.253 455.191 603.682 455.191 606.466V608.959H427.556V603.334H446.647C446.647 602.027 446.363 600.869 445.795 599.861C445.227 598.852 444.438 598.064 443.43 597.496C442.435 596.913 441.278 596.622 439.957 596.622C438.579 596.622 437.357 596.942 436.292 597.581C435.241 598.206 434.417 599.051 433.82 600.116C433.224 601.168 432.918 602.339 432.904 603.632V608.98C432.904 610.599 433.202 611.999 433.799 613.178C434.41 614.357 435.269 615.266 436.377 615.905C437.485 616.544 438.799 616.864 440.319 616.864C441.327 616.864 442.251 616.722 443.089 616.438C443.927 616.153 444.644 615.727 445.241 615.159C445.837 614.591 446.292 613.895 446.604 613.071L454.999 613.625C454.573 615.642 453.7 617.403 452.379 618.909C451.072 620.401 449.381 621.565 447.308 622.403C445.248 623.227 442.869 623.639 440.17 623.639ZM461.114 623V590.273H469.914V595.983H470.255C470.852 593.952 471.853 592.418 473.259 591.381C474.665 590.33 476.285 589.804 478.117 589.804C478.572 589.804 479.062 589.832 479.587 589.889C480.113 589.946 480.575 590.024 480.972 590.124V598.178C480.546 598.05 479.957 597.936 479.204 597.837C478.451 597.737 477.762 597.688 477.137 597.688C475.802 597.688 474.609 597.979 473.558 598.561C472.521 599.129 471.697 599.925 471.086 600.947C470.489 601.97 470.191 603.149 470.191 604.484V623H461.114ZM501.597 597.901V590.315H531.022V597.901H501.597ZM501.597 612.048V604.463H531.022V612.048H501.597ZM573.119 579.364V623H563.893V588.121H563.637L553.645 594.385V586.203L564.447 579.364H573.119ZM602.474 579.364V623H593.249V588.121H592.993L583 594.385V586.203L593.803 579.364H602.474ZM612.185 615.33V608.064L630.402 579.364H636.667V589.42H632.959L621.475 607.595V607.936H647.363V615.33H612.185ZM633.13 623V613.114L633.3 609.896V579.364H641.951V623H633.13ZM682.268 623.639C678.916 623.639 676.033 622.929 673.618 621.509C671.217 620.074 669.371 618.085 668.078 615.543C666.8 613 666.161 610.074 666.161 606.764C666.161 603.412 666.807 600.472 668.099 597.943C669.406 595.401 671.26 593.419 673.661 591.999C676.061 590.564 678.916 589.847 682.226 589.847C685.081 589.847 687.581 590.365 689.726 591.402C691.871 592.439 693.568 593.895 694.818 595.77C696.068 597.645 696.757 599.847 696.885 602.375H688.32C688.078 600.741 687.439 599.428 686.402 598.433C685.379 597.425 684.037 596.92 682.375 596.92C680.969 596.92 679.74 597.304 678.689 598.071C677.652 598.824 676.842 599.925 676.26 601.374C675.678 602.822 675.386 604.577 675.386 606.636C675.386 608.724 675.67 610.5 676.239 611.963C676.821 613.426 677.638 614.541 678.689 615.308C679.74 616.075 680.969 616.459 682.375 616.459C683.412 616.459 684.342 616.246 685.166 615.82C686.004 615.393 686.693 614.776 687.233 613.966C687.787 613.142 688.149 612.155 688.32 611.004H696.885C696.743 613.504 696.061 615.706 694.839 617.609C693.632 619.499 691.963 620.976 689.832 622.041C687.702 623.107 685.18 623.639 682.268 623.639ZM702.696 623V590.273H711.347V596.047H711.73C712.412 594.129 713.549 592.616 715.14 591.509C716.73 590.401 718.634 589.847 720.85 589.847C723.094 589.847 725.005 590.408 726.581 591.53C728.158 592.638 729.209 594.143 729.735 596.047H730.076C730.743 594.172 731.951 592.673 733.698 591.551C735.459 590.415 737.54 589.847 739.941 589.847C742.995 589.847 745.473 590.82 747.377 592.766C749.294 594.697 750.253 597.439 750.253 600.99V623H741.198V602.78C741.198 600.962 740.715 599.598 739.749 598.689C738.783 597.78 737.576 597.325 736.127 597.325C734.479 597.325 733.194 597.851 732.27 598.902C731.347 599.939 730.885 601.31 730.885 603.014V623H722.086V602.588C722.086 600.983 721.624 599.705 720.701 598.753C719.792 597.801 718.591 597.325 717.1 597.325C716.091 597.325 715.182 597.581 714.373 598.092C713.577 598.589 712.945 599.293 712.476 600.202C712.007 601.097 711.773 602.148 711.773 603.355V623H702.696Z" fill="white"/>
<path d="M270.955 279.618C268.866 279.618 267.006 279.256 265.372 278.531C263.739 277.793 262.446 276.706 261.494 275.271C260.557 273.822 260.088 272.018 260.088 269.859C260.088 268.041 260.422 266.514 261.089 265.278C261.757 264.043 262.666 263.048 263.817 262.295C264.967 261.543 266.274 260.974 267.737 260.591C269.214 260.207 270.763 259.938 272.382 259.781C274.286 259.582 275.82 259.398 276.984 259.227C278.149 259.043 278.994 258.773 279.52 258.418C280.045 258.062 280.308 257.537 280.308 256.841V256.713C280.308 255.364 279.882 254.32 279.03 253.581C278.192 252.842 276.999 252.473 275.45 252.473C273.817 252.473 272.517 252.835 271.551 253.56C270.585 254.27 269.946 255.165 269.634 256.244L261.239 255.562C261.665 253.574 262.503 251.855 263.753 250.406C265.003 248.943 266.615 247.821 268.589 247.04C270.578 246.244 272.879 245.847 275.493 245.847C277.311 245.847 279.051 246.06 280.713 246.486C282.389 246.912 283.874 247.572 285.166 248.467C286.473 249.362 287.503 250.513 288.256 251.919C289.009 253.311 289.385 254.98 289.385 256.926V279H280.777V274.462H280.521C279.996 275.484 279.293 276.386 278.412 277.168C277.531 277.935 276.473 278.538 275.237 278.979C274.001 279.405 272.574 279.618 270.955 279.618ZM273.554 273.354C274.889 273.354 276.068 273.091 277.091 272.565C278.114 272.026 278.916 271.301 279.499 270.392C280.081 269.483 280.372 268.453 280.372 267.303V263.83C280.088 264.014 279.697 264.185 279.2 264.341C278.717 264.483 278.17 264.618 277.56 264.746C276.949 264.859 276.338 264.966 275.727 265.065C275.116 265.151 274.562 265.229 274.065 265.3C273 265.456 272.07 265.705 271.274 266.045C270.479 266.386 269.861 266.848 269.42 267.43C268.98 267.999 268.76 268.709 268.76 269.561C268.76 270.797 269.207 271.741 270.102 272.395C271.011 273.034 272.162 273.354 273.554 273.354Z" fill="#FFB84D"/>
<path d="M679.955 267.618C677.866 267.618 676.006 267.256 674.372 266.531C672.739 265.793 671.446 264.706 670.494 263.271C669.557 261.822 669.088 260.018 669.088 257.859C669.088 256.041 669.422 254.514 670.089 253.278C670.757 252.043 671.666 251.048 672.817 250.295C673.967 249.543 675.274 248.974 676.737 248.591C678.214 248.207 679.763 247.938 681.382 247.781C683.286 247.582 684.82 247.398 685.984 247.227C687.149 247.043 687.994 246.773 688.52 246.418C689.045 246.062 689.308 245.537 689.308 244.841V244.713C689.308 243.364 688.882 242.32 688.03 241.581C687.192 240.842 685.999 240.473 684.45 240.473C682.817 240.473 681.517 240.835 680.551 241.56C679.585 242.27 678.946 243.165 678.634 244.244L670.239 243.562C670.665 241.574 671.503 239.855 672.753 238.406C674.003 236.943 675.615 235.821 677.589 235.04C679.578 234.244 681.879 233.847 684.493 233.847C686.311 233.847 688.051 234.06 689.713 234.486C691.389 234.912 692.874 235.572 694.166 236.467C695.473 237.362 696.503 238.513 697.256 239.919C698.009 241.311 698.385 242.98 698.385 244.926V267H689.777V262.462H689.521C688.996 263.484 688.293 264.386 687.412 265.168C686.531 265.935 685.473 266.538 684.237 266.979C683.001 267.405 681.574 267.618 679.955 267.618ZM682.554 261.354C683.889 261.354 685.068 261.091 686.091 260.565C687.114 260.026 687.916 259.301 688.499 258.392C689.081 257.483 689.372 256.453 689.372 255.303V251.83C689.088 252.014 688.697 252.185 688.2 252.341C687.717 252.483 687.17 252.618 686.56 252.746C685.949 252.859 685.338 252.966 684.727 253.065C684.116 253.151 683.562 253.229 683.065 253.3C682 253.456 681.07 253.705 680.274 254.045C679.479 254.386 678.861 254.848 678.42 255.43C677.98 255.999 677.76 256.709 677.76 257.561C677.76 258.797 678.207 259.741 679.102 260.395C680.011 261.034 681.162 261.354 682.554 261.354Z" fill="#FFB84D"/>
<path d="M508.955 540.618C506.866 540.618 505.006 540.256 503.372 539.531C501.739 538.793 500.446 537.706 499.494 536.271C498.557 534.822 498.088 533.018 498.088 530.859C498.088 529.041 498.422 527.514 499.089 526.278C499.757 525.043 500.666 524.048 501.817 523.295C502.967 522.543 504.274 521.974 505.737 521.591C507.214 521.207 508.763 520.938 510.382 520.781C512.286 520.582 513.82 520.398 514.984 520.227C516.149 520.043 516.994 519.773 517.52 519.418C518.045 519.062 518.308 518.537 518.308 517.841V517.713C518.308 516.364 517.882 515.32 517.03 514.581C516.192 513.842 514.999 513.473 513.45 513.473C511.817 513.473 510.517 513.835 509.551 514.56C508.585 515.27 507.946 516.165 507.634 517.244L499.239 516.562C499.665 514.574 500.503 512.855 501.753 511.406C503.003 509.943 504.615 508.821 506.589 508.04C508.578 507.244 510.879 506.847 513.493 506.847C515.311 506.847 517.051 507.06 518.713 507.486C520.389 507.912 521.874 508.572 523.166 509.467C524.473 510.362 525.503 511.513 526.256 512.919C527.009 514.311 527.385 515.98 527.385 517.926V540H518.777V535.462H518.521C517.996 536.484 517.293 537.386 516.412 538.168C515.531 538.935 514.473 539.538 513.237 539.979C512.001 540.405 510.574 540.618 508.955 540.618ZM511.554 534.354C512.889 534.354 514.068 534.091 515.091 533.565C516.114 533.026 516.916 532.301 517.499 531.392C518.081 530.483 518.372 529.453 518.372 528.303V524.83C518.088 525.014 517.697 525.185 517.2 525.341C516.717 525.483 516.17 525.618 515.56 525.746C514.949 525.859 514.338 525.966 513.727 526.065C513.116 526.151 512.562 526.229 512.065 526.3C511 526.456 510.07 526.705 509.274 527.045C508.479 527.386 507.861 527.848 507.42 528.43C506.98 528.999 506.76 529.709 506.76 530.561C506.76 531.797 507.207 532.741 508.102 533.395C509.011 534.034 510.162 534.354 511.554 534.354Z" fill="#FFB84D"/>
</svg>
