<svg width="947" height="668" viewBox="0 0 947 668" fill="none" xmlns="http://www.w3.org/2000/svg">
<path d="M473 38L732.808 488L213.192 488L473 38Z" fill="#5FD7FF"/>
<line x1="472.191" y1="38.1976" x2="212.198" y2="487.809" stroke="#FFB84D" stroke-width="12" stroke-linecap="round"/>
<line x1="732.804" y1="486.804" x2="473.804" y2="38.1961" stroke="#FFB84D" stroke-width="12" stroke-linecap="round"/>
<line x1="733" y1="488" x2="213" y2="488" stroke="#FFB84D" stroke-width="12" stroke-linecap="round"/>
<line x1="483.283" y1="465.219" x2="483.283" y2="511.012" stroke="#FFB84D" stroke-width="10"/>
<line x1="628.62" y1="259.258" x2="589.62" y2="283.258" stroke="#FFB84D" stroke-width="10"/>
<line x1="356.48" y1="283.319" x2="316.926" y2="260.243" stroke="#FFB84D" stroke-width="10"/>
<path d="M196.793 623V579.364H214.009C217.318 579.364 220.138 579.996 222.467 581.26C224.797 582.51 226.572 584.25 227.794 586.48C229.03 588.696 229.648 591.253 229.648 594.151C229.648 597.048 229.023 599.605 227.773 601.821C226.523 604.037 224.712 605.763 222.339 606.999C219.982 608.234 217.126 608.852 213.774 608.852H202.801V601.459H212.283C214.058 601.459 215.521 601.153 216.672 600.543C217.837 599.918 218.703 599.058 219.271 597.964C219.854 596.857 220.145 595.585 220.145 594.151C220.145 592.702 219.854 591.437 219.271 590.358C218.703 589.264 217.837 588.419 216.672 587.822C215.507 587.212 214.03 586.906 212.24 586.906H206.018V623H196.793ZM249.857 623.639C246.491 623.639 243.593 622.957 241.164 621.594C238.749 620.216 236.888 618.27 235.582 615.756C234.275 613.227 233.621 610.237 233.621 606.786C233.621 603.419 234.275 600.464 235.582 597.922C236.888 595.379 238.728 593.398 241.1 591.977C243.487 590.557 246.285 589.847 249.495 589.847C251.654 589.847 253.664 590.195 255.525 590.891C257.4 591.572 259.033 592.602 260.425 593.98C261.832 595.358 262.925 597.091 263.707 599.179C264.488 601.253 264.879 603.682 264.879 606.466V608.959H237.244V603.334H256.335C256.335 602.027 256.05 600.869 255.482 599.861C254.914 598.852 254.126 598.064 253.117 597.496C252.123 596.913 250.965 596.622 249.644 596.622C248.266 596.622 247.045 596.942 245.979 597.581C244.928 598.206 244.104 599.051 243.508 600.116C242.911 601.168 242.606 602.339 242.592 603.632V608.98C242.592 610.599 242.89 611.999 243.487 613.178C244.097 614.357 244.957 615.266 246.065 615.905C247.173 616.544 248.487 616.864 250.006 616.864C251.015 616.864 251.938 616.722 252.776 616.438C253.614 616.153 254.332 615.727 254.928 615.159C255.525 614.591 255.979 613.895 256.292 613.071L264.687 613.625C264.261 615.642 263.387 617.403 262.066 618.909C260.759 620.401 259.069 621.565 256.995 622.403C254.935 623.227 252.556 623.639 249.857 623.639ZM270.802 623V590.273H279.602V595.983H279.942C280.539 593.952 281.54 592.418 282.947 591.381C284.353 590.33 285.972 589.804 287.805 589.804C288.259 589.804 288.749 589.832 289.275 589.889C289.8 589.946 290.262 590.024 290.66 590.124V598.178C290.234 598.05 289.644 597.936 288.891 597.837C288.138 597.737 287.45 597.688 286.825 597.688C285.489 597.688 284.296 597.979 283.245 598.561C282.208 599.129 281.384 599.925 280.773 600.947C280.177 601.97 279.879 603.149 279.879 604.484V623H270.802ZM295.353 623V590.273H304.429V623H295.353ZM299.912 586.054C298.563 586.054 297.405 585.607 296.439 584.712C295.488 583.803 295.012 582.716 295.012 581.452C295.012 580.202 295.488 579.129 296.439 578.234C297.405 577.325 298.563 576.871 299.912 576.871C301.262 576.871 302.412 577.325 303.364 578.234C304.33 579.129 304.813 580.202 304.813 581.452C304.813 582.716 304.33 583.803 303.364 584.712C302.412 585.607 301.262 586.054 299.912 586.054ZM311.7 623V590.273H320.351V596.047H320.734C321.416 594.129 322.553 592.616 324.143 591.509C325.734 590.401 327.638 589.847 329.854 589.847C332.098 589.847 334.009 590.408 335.585 591.53C337.162 592.638 338.213 594.143 338.739 596.047H339.08C339.747 594.172 340.955 592.673 342.702 591.551C344.463 590.415 346.544 589.847 348.945 589.847C351.999 589.847 354.477 590.82 356.381 592.766C358.298 594.697 359.257 597.439 359.257 600.99V623H350.202V602.78C350.202 600.962 349.719 599.598 348.753 598.689C347.787 597.78 346.58 597.325 345.131 597.325C343.483 597.325 342.197 597.851 341.274 598.902C340.351 599.939 339.889 601.31 339.889 603.014V623H331.089V602.588C331.089 600.983 330.628 599.705 329.705 598.753C328.795 597.801 327.595 597.325 326.104 597.325C325.095 597.325 324.186 597.581 323.376 598.092C322.581 598.589 321.949 599.293 321.48 600.202C321.011 601.097 320.777 602.148 320.777 603.355V623H311.7ZM381.342 623.639C377.975 623.639 375.077 622.957 372.648 621.594C370.234 620.216 368.373 618.27 367.066 615.756C365.759 613.227 365.106 610.237 365.106 606.786C365.106 603.419 365.759 600.464 367.066 597.922C368.373 595.379 370.212 593.398 372.585 591.977C374.971 590.557 377.769 589.847 380.979 589.847C383.138 589.847 385.148 590.195 387.009 590.891C388.884 591.572 390.518 592.602 391.91 593.98C393.316 595.358 394.41 597.091 395.191 599.179C395.972 601.253 396.363 603.682 396.363 606.466V608.959H368.728V603.334H387.819C387.819 602.027 387.535 600.869 386.967 599.861C386.398 598.852 385.61 598.064 384.602 597.496C383.607 596.913 382.45 596.622 381.129 596.622C379.751 596.622 378.529 596.942 377.464 597.581C376.413 598.206 375.589 599.051 374.992 600.116C374.396 601.168 374.09 602.339 374.076 603.632V608.98C374.076 610.599 374.374 611.999 374.971 613.178C375.582 614.357 376.441 615.266 377.549 615.905C378.657 616.544 379.971 616.864 381.491 616.864C382.499 616.864 383.423 616.722 384.261 616.438C385.099 616.153 385.816 615.727 386.413 615.159C387.009 614.591 387.464 613.895 387.776 613.071L396.171 613.625C395.745 615.642 394.871 617.403 393.55 618.909C392.244 620.401 390.553 621.565 388.479 622.403C386.42 623.227 384.04 623.639 381.342 623.639ZM419.694 590.273V597.091H399.985V590.273H419.694ZM404.46 582.432H413.536V612.943C413.536 613.781 413.664 614.435 413.92 614.903C414.175 615.358 414.531 615.678 414.985 615.862C415.454 616.047 415.994 616.139 416.604 616.139C417.031 616.139 417.457 616.104 417.883 616.033C418.309 615.947 418.636 615.884 418.863 615.841L420.29 622.595C419.836 622.737 419.197 622.901 418.373 623.085C417.549 623.284 416.548 623.405 415.369 623.447C413.181 623.533 411.263 623.241 409.616 622.574C407.982 621.906 406.711 620.869 405.802 619.463C404.893 618.057 404.445 616.281 404.46 614.136V582.432ZM440.17 623.639C436.803 623.639 433.906 622.957 431.477 621.594C429.062 620.216 427.201 618.27 425.894 615.756C424.587 613.227 423.934 610.237 423.934 606.786C423.934 603.419 424.587 600.464 425.894 597.922C427.201 595.379 429.04 593.398 431.413 591.977C433.799 590.557 436.597 589.847 439.808 589.847C441.967 589.847 443.977 590.195 445.837 590.891C447.712 591.572 449.346 592.602 450.738 593.98C452.144 595.358 453.238 597.091 454.019 599.179C454.8 601.253 455.191 603.682 455.191 606.466V608.959H427.556V603.334H446.647C446.647 602.027 446.363 600.869 445.795 599.861C445.227 598.852 444.438 598.064 443.43 597.496C442.435 596.913 441.278 596.622 439.957 596.622C438.579 596.622 437.357 596.942 436.292 597.581C435.241 598.206 434.417 599.051 433.82 600.116C433.224 601.168 432.918 602.339 432.904 603.632V608.98C432.904 610.599 433.202 611.999 433.799 613.178C434.41 614.357 435.269 615.266 436.377 615.905C437.485 616.544 438.799 616.864 440.319 616.864C441.327 616.864 442.251 616.722 443.089 616.438C443.927 616.153 444.644 615.727 445.241 615.159C445.837 614.591 446.292 613.895 446.604 613.071L454.999 613.625C454.573 615.642 453.7 617.403 452.379 618.909C451.072 620.401 449.381 621.565 447.308 622.403C445.248 623.227 442.869 623.639 440.17 623.639ZM461.114 623V590.273H469.914V595.983H470.255C470.852 593.952 471.853 592.418 473.259 591.381C474.665 590.33 476.285 589.804 478.117 589.804C478.572 589.804 479.062 589.832 479.587 589.889C480.113 589.946 480.575 590.024 480.972 590.124V598.178C480.546 598.05 479.957 597.936 479.204 597.837C478.451 597.737 477.762 597.688 477.137 597.688C475.802 597.688 474.609 597.979 473.558 598.561C472.521 599.129 471.697 599.925 471.086 600.947C470.489 601.97 470.191 603.149 470.191 604.484V623H461.114ZM501.597 597.901V590.315H531.022V597.901H501.597ZM501.597 612.048V604.463H531.022V612.048H501.597ZM573.119 579.364V623H563.893V588.121H563.637L553.645 594.385V586.203L564.447 579.364H573.119ZM602.474 579.364V623H593.249V588.121H592.993L583 594.385V586.203L593.803 579.364H602.474ZM612.185 615.33V608.064L630.402 579.364H636.667V589.42H632.959L621.475 607.595V607.936H647.363V615.33H612.185ZM633.13 623V613.114L633.3 609.896V579.364H641.951V623H633.13ZM682.268 623.639C678.916 623.639 676.033 622.929 673.618 621.509C671.217 620.074 669.371 618.085 668.078 615.543C666.8 613 666.161 610.074 666.161 606.764C666.161 603.412 666.807 600.472 668.099 597.943C669.406 595.401 671.26 593.419 673.661 591.999C676.061 590.564 678.916 589.847 682.226 589.847C685.081 589.847 687.581 590.365 689.726 591.402C691.871 592.439 693.568 593.895 694.818 595.77C696.068 597.645 696.757 599.847 696.885 602.375H688.32C688.078 600.741 687.439 599.428 686.402 598.433C685.379 597.425 684.037 596.92 682.375 596.92C680.969 596.92 679.74 597.304 678.689 598.071C677.652 598.824 676.842 599.925 676.26 601.374C675.678 602.822 675.386 604.577 675.386 606.636C675.386 608.724 675.67 610.5 676.239 611.963C676.821 613.426 677.638 614.541 678.689 615.308C679.74 616.075 680.969 616.459 682.375 616.459C683.412 616.459 684.342 616.246 685.166 615.82C686.004 615.393 686.693 614.776 687.233 613.966C687.787 613.142 688.149 612.155 688.32 611.004H696.885C696.743 613.504 696.061 615.706 694.839 617.609C693.632 619.499 691.963 620.976 689.832 622.041C687.702 623.107 685.18 623.639 682.268 623.639ZM702.696 623V590.273H711.347V596.047H711.73C712.412 594.129 713.549 592.616 715.14 591.509C716.73 590.401 718.634 589.847 720.85 589.847C723.094 589.847 725.005 590.408 726.581 591.53C728.158 592.638 729.209 594.143 729.735 596.047H730.076C730.743 594.172 731.951 592.673 733.698 591.551C735.459 590.415 737.54 589.847 739.941 589.847C742.995 589.847 745.473 590.82 747.377 592.766C749.294 594.697 750.253 597.439 750.253 600.99V623H741.198V602.78C741.198 600.962 740.715 599.598 739.749 598.689C738.783 597.78 737.576 597.325 736.127 597.325C734.479 597.325 733.194 597.851 732.27 598.902C731.347 599.939 730.885 601.31 730.885 603.014V623H722.086V602.588C722.086 600.983 721.624 599.705 720.701 598.753C719.792 597.801 718.591 597.325 717.1 597.325C716.091 597.325 715.182 597.581 714.373 598.092C713.577 598.589 712.945 599.293 712.476 600.202C712.007 601.097 711.773 602.148 711.773 603.355V623H702.696Z" fill="white"/>
<path d="M269.42 265.918V265.193C269.435 262.707 269.655 260.726 270.081 259.249C270.521 257.771 271.161 256.578 271.999 255.669C272.837 254.76 273.845 253.936 275.024 253.197C275.905 252.629 276.693 252.04 277.389 251.429C278.085 250.818 278.639 250.143 279.051 249.405C279.463 248.652 279.669 247.814 279.669 246.891C279.669 245.911 279.435 245.051 278.966 244.312C278.497 243.574 277.865 243.006 277.07 242.608C276.288 242.21 275.422 242.011 274.47 242.011C273.547 242.011 272.673 242.217 271.849 242.629C271.026 243.027 270.351 243.624 269.825 244.419C269.3 245.2 269.016 246.173 268.973 247.338H260.28C260.351 244.497 261.033 242.153 262.325 240.307C263.618 238.446 265.33 237.061 267.46 236.152C269.591 235.229 271.942 234.767 274.513 234.767C277.339 234.767 279.839 235.236 282.013 236.173C284.186 237.097 285.891 238.439 287.126 240.2C288.362 241.962 288.98 244.085 288.98 246.571C288.98 248.233 288.703 249.71 288.149 251.003C287.609 252.281 286.849 253.418 285.869 254.412C284.889 255.392 283.732 256.28 282.396 257.075C281.274 257.743 280.351 258.439 279.626 259.163C278.916 259.888 278.384 260.726 278.028 261.678C277.688 262.629 277.51 263.801 277.496 265.193V265.918H269.42ZM273.639 279.554C272.219 279.554 271.004 279.057 269.996 278.062C269.001 277.054 268.511 275.847 268.526 274.44C268.511 273.048 269.001 271.855 269.996 270.861C271.004 269.866 272.219 269.369 273.639 269.369C274.989 269.369 276.175 269.866 277.197 270.861C278.22 271.855 278.739 273.048 278.753 274.44C278.739 275.378 278.49 276.237 278.007 277.018C277.538 277.786 276.92 278.403 276.153 278.872C275.386 279.327 274.548 279.554 273.639 279.554Z" fill="white"/>
</svg>
