<svg width="947" height="668" viewBox="0 0 947 668" fill="none" xmlns="http://www.w3.org/2000/svg">
<path d="M473 38L732.808 488L213.192 488L473 38Z" fill="#5FD7FF"/>
<line x1="472.191" y1="38.1976" x2="212.198" y2="487.809" stroke="white" stroke-width="12" stroke-linecap="round"/>
<line x1="732.804" y1="486.804" x2="473.804" y2="38.1961" stroke="white" stroke-width="12" stroke-linecap="round"/>
<line x1="733" y1="488" x2="213" y2="488" stroke="white" stroke-width="12" stroke-linecap="round"/>
<line x1="483.283" y1="465.219" x2="483.283" y2="511.012" stroke="white" stroke-width="10"/>
<line x1="628.62" y1="259.258" x2="589.62" y2="283.258" stroke="white" stroke-width="10"/>
<line x1="356.48" y1="283.319" x2="316.926" y2="260.243" stroke="white" stroke-width="10"/>
<path d="M196.793 623V579.364H206.018V598.604H206.594L222.297 579.364H233.355L217.162 598.902L233.547 623H222.51L210.557 605.06L206.018 610.599V623H196.793ZM250.502 623.639C247.135 623.639 244.238 622.957 241.809 621.594C239.394 620.216 237.533 618.27 236.226 615.756C234.919 613.227 234.266 610.237 234.266 606.786C234.266 603.419 234.919 600.464 236.226 597.922C237.533 595.379 239.373 593.398 241.745 591.977C244.131 590.557 246.929 589.847 250.14 589.847C252.299 589.847 254.309 590.195 256.169 590.891C258.044 591.572 259.678 592.602 261.07 593.98C262.476 595.358 263.57 597.091 264.351 599.179C265.132 601.253 265.523 603.682 265.523 606.466V608.959H237.888V603.334H256.979C256.979 602.027 256.695 600.869 256.127 599.861C255.559 598.852 254.77 598.064 253.762 597.496C252.767 596.913 251.61 596.622 250.289 596.622C248.911 596.622 247.689 596.942 246.624 597.581C245.573 598.206 244.749 599.051 244.152 600.116C243.556 601.168 243.25 602.339 243.236 603.632V608.98C243.236 610.599 243.534 611.999 244.131 613.178C244.742 614.357 245.601 615.266 246.709 615.905C247.817 616.544 249.131 616.864 250.651 616.864C251.659 616.864 252.583 616.722 253.421 616.438C254.259 616.153 254.976 615.727 255.573 615.159C256.169 614.591 256.624 613.895 256.936 613.071L265.331 613.625C264.905 615.642 264.032 617.403 262.711 618.909C261.404 620.401 259.713 621.565 257.64 622.403C255.58 623.227 253.201 623.639 250.502 623.639ZM280.523 579.364V623H271.446V579.364H280.523ZM287.794 623V590.273H296.871V623H287.794ZM292.354 586.054C291.004 586.054 289.847 585.607 288.881 584.712C287.929 583.803 287.453 582.716 287.453 581.452C287.453 580.202 287.929 579.129 288.881 578.234C289.847 577.325 291.004 576.871 292.354 576.871C293.703 576.871 294.854 577.325 295.805 578.234C296.771 579.129 297.254 580.202 297.254 581.452C297.254 582.716 296.771 583.803 295.805 584.712C294.854 585.607 293.703 586.054 292.354 586.054ZM313.218 579.364V623H304.142V579.364H313.218ZM320.489 623V590.273H329.566V623H320.489ZM325.049 586.054C323.7 586.054 322.542 585.607 321.576 584.712C320.624 583.803 320.148 582.716 320.148 581.452C320.148 580.202 320.624 579.129 321.576 578.234C322.542 577.325 323.7 576.871 325.049 576.871C326.398 576.871 327.549 577.325 328.501 578.234C329.467 579.129 329.95 580.202 329.95 581.452C329.95 582.716 329.467 583.803 328.501 584.712C327.549 585.607 326.398 586.054 325.049 586.054ZM345.914 604.08V623H336.837V590.273H345.488V596.047H345.871C346.596 594.143 347.81 592.638 349.515 591.53C351.219 590.408 353.286 589.847 355.715 589.847C357.988 589.847 359.969 590.344 361.659 591.338C363.35 592.332 364.664 593.753 365.601 595.599C366.539 597.432 367.007 599.619 367.007 602.162V623H357.931V603.781C357.945 601.778 357.434 600.216 356.397 599.094C355.36 597.957 353.932 597.389 352.114 597.389C350.892 597.389 349.813 597.652 348.875 598.178C347.952 598.703 347.228 599.47 346.702 600.479C346.191 601.473 345.928 602.673 345.914 604.08ZM388.906 635.955C385.965 635.955 383.444 635.55 381.342 634.74C379.254 633.945 377.592 632.858 376.356 631.48C375.12 630.102 374.317 628.554 373.948 626.835L382.343 625.706C382.599 626.359 383.004 626.97 383.558 627.538C384.112 628.107 384.843 628.561 385.752 628.902C386.675 629.257 387.798 629.435 389.119 629.435C391.093 629.435 392.719 628.952 393.998 627.986C395.29 627.034 395.937 625.436 395.937 623.192V617.205H395.553C395.156 618.114 394.559 618.973 393.763 619.783C392.968 620.592 391.945 621.253 390.695 621.764C389.445 622.276 387.954 622.531 386.221 622.531C383.763 622.531 381.526 621.963 379.509 620.827C377.506 619.676 375.908 617.922 374.715 615.564C373.536 613.192 372.947 610.195 372.947 606.572C372.947 602.865 373.55 599.768 374.758 597.283C375.965 594.797 377.57 592.936 379.573 591.7C381.59 590.464 383.799 589.847 386.2 589.847C388.032 589.847 389.566 590.159 390.802 590.784C392.038 591.395 393.032 592.162 393.785 593.085C394.552 593.994 395.141 594.889 395.553 595.77H395.894V590.273H404.907V623.32C404.907 626.104 404.225 628.433 402.862 630.308C401.498 632.183 399.609 633.589 397.194 634.527C394.793 635.479 392.031 635.955 388.906 635.955ZM389.097 615.713C390.56 615.713 391.796 615.351 392.805 614.626C393.827 613.888 394.609 612.837 395.148 611.473C395.702 610.095 395.979 608.447 395.979 606.53C395.979 604.612 395.71 602.95 395.17 601.544C394.63 600.124 393.849 599.023 392.826 598.241C391.803 597.46 390.56 597.07 389.097 597.07C387.606 597.07 386.349 597.474 385.326 598.284C384.303 599.08 383.529 600.187 383.004 601.608C382.478 603.028 382.215 604.669 382.215 606.53C382.215 608.419 382.478 610.053 383.004 611.43C383.543 612.794 384.317 613.852 385.326 614.605C386.349 615.344 387.606 615.713 389.097 615.713ZM428.062 597.901V590.315H457.487V597.901H428.062ZM428.062 612.048V604.463H457.487V612.048H428.062ZM499.584 579.364V623H490.358V588.121H490.102L480.109 594.385V586.203L490.912 579.364H499.584ZM528.939 579.364V623H519.713V588.121H519.458L509.465 594.385V586.203L520.267 579.364H528.939ZM538.65 615.33V608.064L556.867 579.364H563.131V589.42H559.424L547.94 607.595V607.936H573.827V615.33H538.65ZM559.594 623V613.114L559.765 609.896V579.364H568.415V623H559.594ZM608.733 623.639C605.381 623.639 602.498 622.929 600.083 621.509C597.682 620.074 595.836 618.085 594.543 615.543C593.265 613 592.625 610.074 592.625 606.764C592.625 603.412 593.272 600.472 594.564 597.943C595.871 595.401 597.725 593.419 600.125 591.999C602.526 590.564 605.381 589.847 608.691 589.847C611.546 589.847 614.046 590.365 616.191 591.402C618.336 592.439 620.033 593.895 621.283 595.77C622.533 597.645 623.222 599.847 623.35 602.375H614.784C614.543 600.741 613.904 599.428 612.867 598.433C611.844 597.425 610.502 596.92 608.84 596.92C607.434 596.92 606.205 597.304 605.154 598.071C604.117 598.824 603.307 599.925 602.725 601.374C602.142 602.822 601.851 604.577 601.851 606.636C601.851 608.724 602.135 610.5 602.703 611.963C603.286 613.426 604.103 614.541 605.154 615.308C606.205 616.075 607.434 616.459 608.84 616.459C609.877 616.459 610.807 616.246 611.631 615.82C612.469 615.393 613.158 614.776 613.698 613.966C614.252 613.142 614.614 612.155 614.784 611.004H623.35C623.208 613.504 622.526 615.706 621.304 617.609C620.097 619.499 618.428 620.976 616.297 622.041C614.167 623.107 611.645 623.639 608.733 623.639ZM629.161 623V590.273H637.812V596.047H638.195C638.877 594.129 640.013 592.616 641.604 591.509C643.195 590.401 645.099 589.847 647.315 589.847C649.559 589.847 651.469 590.408 653.046 591.53C654.623 592.638 655.674 594.143 656.2 596.047H656.54C657.208 594.172 658.415 592.673 660.163 591.551C661.924 590.415 664.005 589.847 666.406 589.847C669.46 589.847 671.938 590.82 673.842 592.766C675.759 594.697 676.718 597.439 676.718 600.99V623H667.663V602.78C667.663 600.962 667.18 599.598 666.214 598.689C665.248 597.78 664.04 597.325 662.592 597.325C660.944 597.325 659.658 597.851 658.735 598.902C657.812 599.939 657.35 601.31 657.35 603.014V623H648.55V602.588C648.55 600.983 648.089 599.705 647.165 598.753C646.256 597.801 645.056 597.325 643.565 597.325C642.556 597.325 641.647 597.581 640.837 598.092C640.042 598.589 639.41 599.293 638.941 600.202C638.472 601.097 638.238 602.148 638.238 603.355V623H629.161Z" fill="white"/>
<path d="M270.955 279.618C268.866 279.618 267.006 279.256 265.372 278.531C263.739 277.793 262.446 276.706 261.494 275.271C260.557 273.822 260.088 272.018 260.088 269.859C260.088 268.041 260.422 266.514 261.089 265.278C261.757 264.043 262.666 263.048 263.817 262.295C264.967 261.543 266.274 260.974 267.737 260.591C269.214 260.207 270.763 259.938 272.382 259.781C274.286 259.582 275.82 259.398 276.984 259.227C278.149 259.043 278.994 258.773 279.52 258.418C280.045 258.062 280.308 257.537 280.308 256.841V256.713C280.308 255.364 279.882 254.32 279.03 253.581C278.192 252.842 276.999 252.473 275.45 252.473C273.817 252.473 272.517 252.835 271.551 253.56C270.585 254.27 269.946 255.165 269.634 256.244L261.239 255.562C261.665 253.574 262.503 251.855 263.753 250.406C265.003 248.943 266.615 247.821 268.589 247.04C270.578 246.244 272.879 245.847 275.493 245.847C277.311 245.847 279.051 246.06 280.713 246.486C282.389 246.912 283.874 247.572 285.166 248.467C286.473 249.362 287.503 250.513 288.256 251.919C289.009 253.311 289.385 254.98 289.385 256.926V279H280.777V274.462H280.521C279.996 275.484 279.293 276.386 278.412 277.168C277.531 277.935 276.473 278.538 275.237 278.979C274.001 279.405 272.574 279.618 270.955 279.618ZM273.554 273.354C274.889 273.354 276.068 273.091 277.091 272.565C278.114 272.026 278.916 271.301 279.499 270.392C280.081 269.483 280.372 268.453 280.372 267.303V263.83C280.088 264.014 279.697 264.185 279.2 264.341C278.717 264.483 278.17 264.618 277.56 264.746C276.949 264.859 276.338 264.966 275.727 265.065C275.116 265.151 274.562 265.229 274.065 265.3C273 265.456 272.07 265.705 271.274 266.045C270.479 266.386 269.861 266.848 269.42 267.43C268.98 267.999 268.76 268.709 268.76 269.561C268.76 270.797 269.207 271.741 270.102 272.395C271.011 273.034 272.162 273.354 273.554 273.354Z" fill="#FFB84D"/>
<path d="M679.955 267.618C677.866 267.618 676.006 267.256 674.372 266.531C672.739 265.793 671.446 264.706 670.494 263.271C669.557 261.822 669.088 260.018 669.088 257.859C669.088 256.041 669.422 254.514 670.089 253.278C670.757 252.043 671.666 251.048 672.817 250.295C673.967 249.543 675.274 248.974 676.737 248.591C678.214 248.207 679.763 247.938 681.382 247.781C683.286 247.582 684.82 247.398 685.984 247.227C687.149 247.043 687.994 246.773 688.52 246.418C689.045 246.062 689.308 245.537 689.308 244.841V244.713C689.308 243.364 688.882 242.32 688.03 241.581C687.192 240.842 685.999 240.473 684.45 240.473C682.817 240.473 681.517 240.835 680.551 241.56C679.585 242.27 678.946 243.165 678.634 244.244L670.239 243.562C670.665 241.574 671.503 239.855 672.753 238.406C674.003 236.943 675.615 235.821 677.589 235.04C679.578 234.244 681.879 233.847 684.493 233.847C686.311 233.847 688.051 234.06 689.713 234.486C691.389 234.912 692.874 235.572 694.166 236.467C695.473 237.362 696.503 238.513 697.256 239.919C698.009 241.311 698.385 242.98 698.385 244.926V267H689.777V262.462H689.521C688.996 263.484 688.293 264.386 687.412 265.168C686.531 265.935 685.473 266.538 684.237 266.979C683.001 267.405 681.574 267.618 679.955 267.618ZM682.554 261.354C683.889 261.354 685.068 261.091 686.091 260.565C687.114 260.026 687.916 259.301 688.499 258.392C689.081 257.483 689.372 256.453 689.372 255.303V251.83C689.088 252.014 688.697 252.185 688.2 252.341C687.717 252.483 687.17 252.618 686.56 252.746C685.949 252.859 685.338 252.966 684.727 253.065C684.116 253.151 683.562 253.229 683.065 253.3C682 253.456 681.07 253.705 680.274 254.045C679.479 254.386 678.861 254.848 678.42 255.43C677.98 255.999 677.76 256.709 677.76 257.561C677.76 258.797 678.207 259.741 679.102 260.395C680.011 261.034 681.162 261.354 682.554 261.354Z" fill="#FFB84D"/>
<path d="M508.955 540.618C506.866 540.618 505.006 540.256 503.372 539.531C501.739 538.793 500.446 537.706 499.494 536.271C498.557 534.822 498.088 533.018 498.088 530.859C498.088 529.041 498.422 527.514 499.089 526.278C499.757 525.043 500.666 524.048 501.817 523.295C502.967 522.543 504.274 521.974 505.737 521.591C507.214 521.207 508.763 520.938 510.382 520.781C512.286 520.582 513.82 520.398 514.984 520.227C516.149 520.043 516.994 519.773 517.52 519.418C518.045 519.062 518.308 518.537 518.308 517.841V517.713C518.308 516.364 517.882 515.32 517.03 514.581C516.192 513.842 514.999 513.473 513.45 513.473C511.817 513.473 510.517 513.835 509.551 514.56C508.585 515.27 507.946 516.165 507.634 517.244L499.239 516.562C499.665 514.574 500.503 512.855 501.753 511.406C503.003 509.943 504.615 508.821 506.589 508.04C508.578 507.244 510.879 506.847 513.493 506.847C515.311 506.847 517.051 507.06 518.713 507.486C520.389 507.912 521.874 508.572 523.166 509.467C524.473 510.362 525.503 511.513 526.256 512.919C527.009 514.311 527.385 515.98 527.385 517.926V540H518.777V535.462H518.521C517.996 536.484 517.293 537.386 516.412 538.168C515.531 538.935 514.473 539.538 513.237 539.979C512.001 540.405 510.574 540.618 508.955 540.618ZM511.554 534.354C512.889 534.354 514.068 534.091 515.091 533.565C516.114 533.026 516.916 532.301 517.499 531.392C518.081 530.483 518.372 529.453 518.372 528.303V524.83C518.088 525.014 517.697 525.185 517.2 525.341C516.717 525.483 516.17 525.618 515.56 525.746C514.949 525.859 514.338 525.966 513.727 526.065C513.116 526.151 512.562 526.229 512.065 526.3C511 526.456 510.07 526.705 509.274 527.045C508.479 527.386 507.861 527.848 507.42 528.43C506.98 528.999 506.76 529.709 506.76 530.561C506.76 531.797 507.207 532.741 508.102 533.395C509.011 534.034 510.162 534.354 511.554 534.354Z" fill="#FFB84D"/>
</svg>
