<svg width="969" height="662" viewBox="0 0 969 662" fill="none" xmlns="http://www.w3.org/2000/svg">
<path d="M851.823 30.2761C853.573 29.1557 855.659 31.1153 854.65 32.9315L572.187 541.471C571.834 542.106 571.165 542.5 570.438 542.5H58.8314C56.8335 542.5 56.0704 539.893 57.7528 538.816L851.823 30.2761Z" fill="#5FD7FF" stroke="white" stroke-width="12"/>
<path d="M296.548 268V222.182H301.828V239.095H302.276C302.663 238.499 303.2 237.738 303.886 236.813C304.587 235.874 305.587 235.038 306.884 234.308C308.197 233.562 309.972 233.189 312.209 233.189C315.102 233.189 317.653 233.912 319.86 235.359C322.067 236.806 323.79 238.857 325.028 241.511C326.266 244.166 326.885 247.298 326.885 250.908C326.885 254.547 326.266 257.701 325.028 260.371C323.79 263.026 322.075 265.084 319.882 266.546C317.69 267.993 315.162 268.716 312.298 268.716C310.091 268.716 308.324 268.35 306.996 267.62C305.669 266.874 304.647 266.031 303.931 265.092C303.215 264.137 302.663 263.347 302.276 262.72H301.649V268H296.548ZM301.739 250.818C301.739 253.413 302.119 255.703 302.88 257.686C303.64 259.655 304.751 261.199 306.213 262.317C307.675 263.421 309.464 263.973 311.582 263.973C313.79 263.973 315.632 263.391 317.108 262.228C318.6 261.05 319.718 259.469 320.464 257.485C321.225 255.487 321.605 253.264 321.605 250.818C321.605 248.402 321.232 246.224 320.487 244.286C319.756 242.332 318.645 240.788 317.153 239.654C315.676 238.506 313.82 237.932 311.582 237.932C309.435 237.932 307.63 238.476 306.168 239.565C304.707 240.639 303.603 242.145 302.857 244.084C302.112 246.008 301.739 248.253 301.739 250.818ZM354.828 240.885V236.053H382.39V240.885H354.828ZM354.828 254.129V249.297H382.39V254.129H354.828ZM418.818 255.114V254.845C418.848 251.996 419.146 249.729 419.713 248.044C420.279 246.359 421.085 244.994 422.129 243.95C423.173 242.906 424.426 241.944 425.887 241.064C426.767 240.527 427.558 239.893 428.259 239.162C428.96 238.417 429.512 237.559 429.914 236.589C430.332 235.62 430.541 234.546 430.541 233.368C430.541 231.906 430.198 230.638 429.512 229.565C428.826 228.491 427.908 227.663 426.76 227.081C425.611 226.5 424.336 226.209 422.934 226.209C421.711 226.209 420.533 226.462 419.399 226.969C418.266 227.477 417.319 228.275 416.558 229.363C415.797 230.452 415.358 231.876 415.238 233.636H409.6C409.72 231.101 410.376 228.931 411.569 227.126C412.777 225.321 414.366 223.942 416.334 222.987C418.318 222.033 420.518 221.555 422.934 221.555C425.559 221.555 427.841 222.077 429.78 223.121C431.734 224.165 433.24 225.597 434.299 227.417C435.373 229.237 435.91 231.31 435.91 233.636C435.91 235.277 435.657 236.761 435.149 238.088C434.657 239.416 433.941 240.602 433.002 241.646C432.077 242.69 430.958 243.614 429.646 244.42C428.333 245.24 427.282 246.105 426.491 247.015C425.701 247.91 425.127 248.976 424.769 250.214C424.411 251.452 424.217 252.996 424.187 254.845V255.114H418.818ZM421.681 268.358C420.578 268.358 419.631 267.963 418.84 267.172C418.05 266.382 417.654 265.435 417.654 264.331C417.654 263.227 418.05 262.28 418.84 261.49C419.631 260.699 420.578 260.304 421.681 260.304C422.785 260.304 423.732 260.699 424.523 261.49C425.313 262.28 425.708 263.227 425.708 264.331C425.708 265.062 425.522 265.733 425.149 266.344C424.791 266.956 424.306 267.448 423.695 267.821C423.098 268.179 422.427 268.358 421.681 268.358Z" fill="white"/>
<path d="M199.945 615.805C197.767 615.805 195.791 615.395 194.016 614.575C192.241 613.74 190.832 612.539 189.788 610.973C188.744 609.392 188.222 607.483 188.222 605.246C188.222 603.277 188.609 601.681 189.385 600.458C190.161 599.22 191.197 598.251 192.495 597.55C193.792 596.849 195.224 596.327 196.79 595.984C198.371 595.626 199.96 595.342 201.555 595.134C203.643 594.865 205.336 594.664 206.634 594.529C207.946 594.38 208.901 594.134 209.498 593.791C210.109 593.448 210.415 592.852 210.415 592.001V591.822C210.415 589.615 209.811 587.9 208.603 586.677C207.409 585.454 205.597 584.842 203.166 584.842C200.646 584.842 198.669 585.394 197.238 586.498C195.806 587.602 194.799 588.78 194.217 590.033L189.206 588.243C190.101 586.155 191.294 584.529 192.786 583.366C194.292 582.187 195.933 581.367 197.707 580.905C199.497 580.428 201.257 580.189 202.987 580.189C204.091 580.189 205.359 580.323 206.79 580.592C208.237 580.845 209.632 581.375 210.974 582.18C212.331 582.985 213.457 584.201 214.352 585.827C215.247 587.452 215.695 589.63 215.695 592.359V615H210.415V610.347H210.146C209.788 611.092 209.192 611.89 208.357 612.74C207.521 613.591 206.41 614.314 205.023 614.911C203.636 615.507 201.943 615.805 199.945 615.805ZM200.75 611.062C202.838 611.062 204.598 610.652 206.03 609.832C207.477 609.012 208.565 607.953 209.296 606.655C210.042 605.358 210.415 603.993 210.415 602.561V597.729C210.191 597.997 209.699 598.243 208.938 598.467C208.192 598.676 207.327 598.862 206.343 599.026C205.374 599.175 204.426 599.31 203.502 599.429C202.592 599.533 201.854 599.623 201.287 599.697C199.915 599.876 198.632 600.167 197.439 600.57C196.261 600.958 195.306 601.547 194.575 602.337C193.859 603.113 193.501 604.172 193.501 605.514C193.501 607.349 194.18 608.736 195.537 609.675C196.909 610.6 198.647 611.062 200.75 611.062ZM245.198 587.885V583.053H272.76V587.885H245.198ZM245.198 601.129V596.297H272.76V601.129H245.198ZM302.208 615V610.973L317.331 594.418C319.106 592.479 320.568 590.793 321.716 589.362C322.865 587.915 323.715 586.558 324.267 585.29C324.833 584.007 325.117 582.665 325.117 581.263C325.117 579.652 324.729 578.257 323.953 577.079C323.193 575.901 322.149 574.991 320.821 574.35C319.494 573.708 318.002 573.388 316.347 573.388C314.587 573.388 313.051 573.753 311.738 574.484C310.441 575.2 309.434 576.207 308.718 577.504C308.017 578.802 307.667 580.323 307.667 582.068H302.387C302.387 579.384 303.006 577.027 304.244 574.999C305.482 572.97 307.167 571.389 309.3 570.256C311.447 569.122 313.856 568.555 316.526 568.555C319.211 568.555 321.589 569.122 323.663 570.256C325.736 571.389 327.362 572.918 328.54 574.842C329.718 576.766 330.307 578.906 330.307 581.263C330.307 582.948 330.001 584.596 329.39 586.207C328.793 587.803 327.749 589.585 326.258 591.554C324.781 593.508 322.73 595.894 320.105 598.713L309.814 609.72V610.078H331.113V615H302.208ZM355.834 615.626C352.881 615.626 350.248 615.119 347.936 614.105C345.64 613.091 343.813 611.681 342.455 609.877C341.113 608.057 340.382 605.947 340.263 603.545H345.901C346.02 605.022 346.527 606.297 347.422 607.371C348.317 608.43 349.488 609.25 350.934 609.832C352.381 610.414 353.984 610.705 355.744 610.705C357.713 610.705 359.458 610.362 360.979 609.675C362.501 608.989 363.694 608.035 364.559 606.812C365.424 605.589 365.857 604.172 365.857 602.561C365.857 600.876 365.439 599.392 364.604 598.109C363.768 596.811 362.545 595.797 360.935 595.066C359.324 594.336 357.355 593.97 355.028 593.97H351.359V589.048H355.028C356.848 589.048 358.444 588.72 359.816 588.064C361.203 587.408 362.284 586.483 363.06 585.29C363.85 584.097 364.246 582.695 364.246 581.084C364.246 579.533 363.903 578.183 363.217 577.034C362.531 575.886 361.561 574.991 360.308 574.35C359.07 573.708 357.609 573.388 355.923 573.388C354.342 573.388 352.851 573.679 351.449 574.26C350.062 574.827 348.928 575.655 348.048 576.744C347.168 577.817 346.691 579.115 346.616 580.636H341.247C341.337 578.235 342.06 576.132 343.417 574.327C344.775 572.508 346.549 571.091 348.742 570.077C350.949 569.062 353.373 568.555 356.013 568.555C358.847 568.555 361.278 569.13 363.306 570.278C365.335 571.412 366.893 572.911 367.982 574.775C369.071 576.639 369.615 578.653 369.615 580.815C369.615 583.396 368.936 585.596 367.579 587.415C366.237 589.235 364.41 590.495 362.098 591.196V591.554C364.991 592.031 367.251 593.262 368.877 595.245C370.502 597.214 371.315 599.653 371.315 602.561C371.315 605.052 370.637 607.289 369.279 609.273C367.937 611.241 366.103 612.793 363.776 613.926C361.449 615.06 358.802 615.626 355.834 615.626ZM412.234 615.716C409.012 615.716 406.238 614.955 403.912 613.434C401.585 611.913 399.795 609.817 398.542 607.147C397.289 604.478 396.663 601.428 396.663 597.997C396.663 594.507 397.304 591.427 398.587 588.757C399.885 586.073 401.689 583.977 404.001 582.471C406.328 580.95 409.042 580.189 412.145 580.189C414.561 580.189 416.738 580.636 418.677 581.531C420.616 582.426 422.205 583.679 423.442 585.29C424.68 586.901 425.449 588.78 425.747 590.928H420.467C420.064 589.362 419.169 587.974 417.782 586.766C416.41 585.543 414.561 584.932 412.234 584.932C410.176 584.932 408.371 585.469 406.82 586.543C405.284 587.602 404.083 589.1 403.218 591.039C402.368 592.963 401.943 595.223 401.943 597.818C401.943 600.473 402.36 602.785 403.196 604.754C404.046 606.722 405.239 608.251 406.775 609.34C408.326 610.429 410.146 610.973 412.234 610.973C413.606 610.973 414.852 610.734 415.97 610.257C417.089 609.78 418.036 609.094 418.811 608.199C419.587 607.304 420.139 606.23 420.467 604.977H425.747C425.449 607.006 424.71 608.833 423.532 610.458C422.369 612.069 420.825 613.352 418.901 614.306C416.992 615.246 414.77 615.716 412.234 615.716ZM433.465 615V580.636H438.566V586.006H439.013C439.729 584.171 440.885 582.747 442.481 581.733C444.077 580.703 445.994 580.189 448.231 580.189C450.498 580.189 452.385 580.703 453.891 581.733C455.412 582.747 456.598 584.171 457.448 586.006H457.806C458.686 584.231 460.006 582.821 461.766 581.777C463.526 580.718 465.636 580.189 468.097 580.189C471.17 580.189 473.683 581.151 475.637 583.075C477.591 584.984 478.567 587.96 478.567 592.001V615H473.288V592.001C473.288 589.466 472.594 587.654 471.207 586.565C469.82 585.476 468.187 584.932 466.308 584.932C463.891 584.932 462.02 585.663 460.692 587.124C459.365 588.571 458.701 590.406 458.701 592.628V615H453.332V591.464C453.332 589.511 452.698 587.937 451.43 586.744C450.162 585.536 448.529 584.932 446.531 584.932C445.158 584.932 443.876 585.297 442.683 586.028C441.504 586.759 440.55 587.773 439.819 589.071C439.103 590.353 438.745 591.837 438.745 593.523V615H433.465Z" fill="white"/>
<path d="M735.743 344V339.973L750.866 323.418C752.641 321.479 754.103 319.793 755.251 318.362C756.4 316.915 757.25 315.558 757.802 314.29C758.369 313.007 758.652 311.665 758.652 310.263C758.652 308.652 758.264 307.257 757.489 306.079C756.728 304.901 755.684 303.991 754.357 303.35C753.029 302.708 751.538 302.388 749.882 302.388C748.122 302.388 746.586 302.753 745.273 303.484C743.976 304.2 742.969 305.207 742.253 306.504C741.552 307.802 741.202 309.323 741.202 311.068H735.922C735.922 308.384 736.541 306.027 737.779 303.999C739.017 301.97 740.702 300.389 742.835 299.256C744.983 298.122 747.391 297.555 750.061 297.555C752.746 297.555 755.125 298.122 757.198 299.256C759.271 300.389 760.897 301.918 762.075 303.842C763.253 305.766 763.842 307.906 763.842 310.263C763.842 311.948 763.537 313.596 762.925 315.207C762.328 316.803 761.284 318.585 759.793 320.554C758.316 322.508 756.266 324.894 753.641 327.713L743.349 338.72V339.078H764.648V344H735.743ZM788.832 344.626C785.461 344.626 782.59 343.709 780.219 341.875C777.847 340.025 776.035 337.348 774.782 333.843C773.529 330.323 772.903 326.072 772.903 321.091C772.903 316.139 773.529 311.911 774.782 308.406C776.05 304.886 777.87 302.201 780.241 300.352C782.627 298.488 785.491 297.555 788.832 297.555C792.173 297.555 795.029 298.488 797.401 300.352C799.787 302.201 801.607 304.886 802.859 308.406C804.127 311.911 804.761 316.139 804.761 321.091C804.761 326.072 804.135 330.323 802.882 333.843C801.629 337.348 799.817 340.025 797.445 341.875C795.074 343.709 792.203 344.626 788.832 344.626ZM788.832 339.705C792.173 339.705 794.768 338.094 796.618 334.872C798.467 331.651 799.392 327.057 799.392 321.091C799.392 317.124 798.967 313.745 798.116 310.956C797.281 308.167 796.073 306.042 794.492 304.58C792.926 303.119 791.039 302.388 788.832 302.388C785.521 302.388 782.933 304.021 781.069 307.287C779.205 310.539 778.272 315.14 778.272 321.091C778.272 325.058 778.69 328.429 779.525 331.203C780.36 333.977 781.561 336.088 783.127 337.534C784.708 338.981 786.61 339.705 788.832 339.705ZM845.031 344.716C841.809 344.716 839.035 343.955 836.708 342.434C834.382 340.913 832.592 338.817 831.339 336.147C830.086 333.478 829.46 330.428 829.46 326.997C829.46 323.507 830.101 320.427 831.384 317.757C832.681 315.073 834.486 312.977 836.798 311.471C839.125 309.95 841.839 309.189 844.941 309.189C847.358 309.189 849.535 309.636 851.474 310.531C853.413 311.426 855.001 312.679 856.239 314.29C857.477 315.901 858.245 317.78 858.544 319.928H853.264C852.861 318.362 851.966 316.974 850.579 315.766C849.207 314.543 847.358 313.932 845.031 313.932C842.973 313.932 841.168 314.469 839.617 315.543C838.081 316.602 836.88 318.1 836.015 320.039C835.165 321.963 834.74 324.223 834.74 326.818C834.74 329.473 835.157 331.785 835.993 333.754C836.843 335.722 838.036 337.251 839.572 338.34C841.123 339.429 842.943 339.973 845.031 339.973C846.403 339.973 847.648 339.734 848.767 339.257C849.886 338.78 850.833 338.094 851.608 337.199C852.384 336.304 852.936 335.23 853.264 333.977H858.544C858.245 336.006 857.507 337.833 856.329 339.458C855.165 341.069 853.622 342.352 851.698 343.306C849.789 344.246 847.566 344.716 845.031 344.716ZM866.262 344V309.636H871.363V315.006H871.81C872.526 313.171 873.682 311.747 875.278 310.733C876.874 309.703 878.79 309.189 881.028 309.189C883.295 309.189 885.181 309.703 886.688 310.733C888.209 311.747 889.395 313.171 890.245 315.006H890.603C891.483 313.231 892.803 311.821 894.563 310.777C896.323 309.718 898.433 309.189 900.894 309.189C903.967 309.189 906.48 310.151 908.434 312.075C910.387 313.984 911.364 316.96 911.364 321.001V344H906.085V321.001C906.085 318.466 905.391 316.654 904.004 315.565C902.617 314.476 900.984 313.932 899.104 313.932C896.688 313.932 894.816 314.663 893.489 316.124C892.162 317.571 891.498 319.406 891.498 321.628V344H886.129V320.464C886.129 318.511 885.495 316.937 884.227 315.744C882.959 314.536 881.326 313.932 879.327 313.932C877.955 313.932 876.673 314.297 875.479 315.028C874.301 315.759 873.347 316.773 872.616 318.071C871.9 319.353 871.542 320.837 871.542 322.523V344H866.262Z" fill="white"/>
<line x1="58" y1="541" x2="571" y2="541" stroke="#9DFF00" stroke-width="14" stroke-linecap="round"/>
<line x1="57.1405" y1="538.335" x2="853.335" y2="30.8594" stroke="#FFD500" stroke-width="14" stroke-linecap="round"/>
</svg>
