<svg width="969" height="662" viewBox="0 0 969 662" fill="none" xmlns="http://www.w3.org/2000/svg">
<path d="M851.823 30.2761C853.573 29.1557 855.659 31.1153 854.65 32.9315L572.187 541.471C571.834 542.106 571.165 542.5 570.438 542.5H58.8314C56.8335 542.5 56.0704 539.893 57.7528 538.816L851.823 30.2761Z" fill="#5FD7FF" stroke="#FF903C" stroke-width="12"/>
<path d="M309.945 604.805C307.767 604.805 305.791 604.395 304.016 603.575C302.241 602.74 300.832 601.539 299.788 599.973C298.744 598.392 298.222 596.483 298.222 594.246C298.222 592.277 298.609 590.681 299.385 589.458C300.161 588.22 301.197 587.251 302.495 586.55C303.792 585.849 305.224 585.327 306.79 584.984C308.371 584.626 309.96 584.342 311.555 584.134C313.643 583.865 315.336 583.664 316.634 583.529C317.946 583.38 318.901 583.134 319.498 582.791C320.109 582.448 320.415 581.852 320.415 581.001V580.822C320.415 578.615 319.811 576.9 318.603 575.677C317.409 574.454 315.597 573.842 313.166 573.842C310.646 573.842 308.669 574.394 307.238 575.498C305.806 576.602 304.799 577.78 304.217 579.033L299.206 577.243C300.101 575.155 301.294 573.529 302.786 572.366C304.292 571.187 305.933 570.367 307.707 569.905C309.497 569.428 311.257 569.189 312.987 569.189C314.091 569.189 315.359 569.323 316.79 569.592C318.237 569.845 319.632 570.375 320.974 571.18C322.331 571.985 323.457 573.201 324.352 574.827C325.247 576.452 325.695 578.63 325.695 581.359V604H320.415V599.347H320.146C319.788 600.092 319.192 600.89 318.357 601.74C317.521 602.591 316.41 603.314 315.023 603.911C313.636 604.507 311.943 604.805 309.945 604.805ZM310.75 600.062C312.838 600.062 314.598 599.652 316.03 598.832C317.477 598.012 318.565 596.953 319.296 595.655C320.042 594.358 320.415 592.993 320.415 591.561V586.729C320.191 586.997 319.699 587.243 318.938 587.467C318.192 587.676 317.327 587.862 316.343 588.026C315.374 588.175 314.426 588.31 313.502 588.429C312.592 588.533 311.854 588.623 311.287 588.697C309.915 588.876 308.632 589.167 307.439 589.57C306.261 589.958 305.306 590.547 304.575 591.337C303.859 592.113 303.501 593.172 303.501 594.514C303.501 596.349 304.18 597.736 305.537 598.675C306.909 599.6 308.647 600.062 310.75 600.062Z" fill="white"/>
<path d="M735.743 344V339.973L750.866 323.418C752.641 321.479 754.103 319.793 755.251 318.362C756.4 316.915 757.25 315.558 757.802 314.29C758.369 313.007 758.652 311.665 758.652 310.263C758.652 308.652 758.264 307.257 757.489 306.079C756.728 304.901 755.684 303.991 754.357 303.35C753.029 302.708 751.538 302.388 749.882 302.388C748.122 302.388 746.586 302.753 745.273 303.484C743.976 304.2 742.969 305.207 742.253 306.504C741.552 307.802 741.202 309.323 741.202 311.068H735.922C735.922 308.384 736.541 306.027 737.779 303.999C739.017 301.97 740.702 300.389 742.835 299.256C744.983 298.122 747.391 297.555 750.061 297.555C752.746 297.555 755.125 298.122 757.198 299.256C759.271 300.389 760.897 301.918 762.075 303.842C763.253 305.766 763.842 307.906 763.842 310.263C763.842 311.948 763.537 313.596 762.925 315.207C762.328 316.803 761.284 318.585 759.793 320.554C758.316 322.508 756.266 324.894 753.641 327.713L743.349 338.72V339.078H764.648V344H735.743ZM788.832 344.626C785.461 344.626 782.59 343.709 780.219 341.875C777.847 340.025 776.035 337.348 774.782 333.843C773.529 330.323 772.903 326.072 772.903 321.091C772.903 316.139 773.529 311.911 774.782 308.406C776.05 304.886 777.87 302.201 780.241 300.352C782.627 298.488 785.491 297.555 788.832 297.555C792.173 297.555 795.029 298.488 797.401 300.352C799.787 302.201 801.607 304.886 802.859 308.406C804.127 311.911 804.761 316.139 804.761 321.091C804.761 326.072 804.135 330.323 802.882 333.843C801.629 337.348 799.817 340.025 797.445 341.875C795.074 343.709 792.203 344.626 788.832 344.626ZM788.832 339.705C792.173 339.705 794.768 338.094 796.618 334.872C798.467 331.651 799.392 327.057 799.392 321.091C799.392 317.124 798.967 313.745 798.116 310.956C797.281 308.167 796.073 306.042 794.492 304.58C792.926 303.119 791.039 302.388 788.832 302.388C785.521 302.388 782.933 304.021 781.069 307.287C779.205 310.539 778.272 315.14 778.272 321.091C778.272 325.058 778.69 328.429 779.525 331.203C780.36 333.977 781.561 336.088 783.127 337.534C784.708 338.981 786.61 339.705 788.832 339.705ZM845.031 344.716C841.809 344.716 839.035 343.955 836.708 342.434C834.382 340.913 832.592 338.817 831.339 336.147C830.086 333.478 829.46 330.428 829.46 326.997C829.46 323.507 830.101 320.427 831.384 317.757C832.681 315.073 834.486 312.977 836.798 311.471C839.125 309.95 841.839 309.189 844.941 309.189C847.358 309.189 849.535 309.636 851.474 310.531C853.413 311.426 855.001 312.679 856.239 314.29C857.477 315.901 858.245 317.78 858.544 319.928H853.264C852.861 318.362 851.966 316.974 850.579 315.766C849.207 314.543 847.358 313.932 845.031 313.932C842.973 313.932 841.168 314.469 839.617 315.543C838.081 316.602 836.88 318.1 836.015 320.039C835.165 321.963 834.74 324.223 834.74 326.818C834.74 329.473 835.157 331.785 835.993 333.754C836.843 335.722 838.036 337.251 839.572 338.34C841.123 339.429 842.943 339.973 845.031 339.973C846.403 339.973 847.648 339.734 848.767 339.257C849.886 338.78 850.833 338.094 851.608 337.199C852.384 336.304 852.936 335.23 853.264 333.977H858.544C858.245 336.006 857.507 337.833 856.329 339.458C855.165 341.069 853.622 342.352 851.698 343.306C849.789 344.246 847.566 344.716 845.031 344.716ZM866.262 344V309.636H871.363V315.006H871.81C872.526 313.171 873.682 311.747 875.278 310.733C876.874 309.703 878.79 309.189 881.028 309.189C883.295 309.189 885.181 309.703 886.688 310.733C888.209 311.747 889.395 313.171 890.245 315.006H890.603C891.483 313.231 892.803 311.821 894.563 310.777C896.323 309.718 898.433 309.189 900.894 309.189C903.967 309.189 906.48 310.151 908.434 312.075C910.387 313.984 911.364 316.96 911.364 321.001V344H906.085V321.001C906.085 318.466 905.391 316.654 904.004 315.565C902.617 314.476 900.984 313.932 899.104 313.932C896.688 313.932 894.816 314.663 893.489 316.124C892.162 317.571 891.498 319.406 891.498 321.628V344H886.129V320.464C886.129 318.511 885.495 316.937 884.227 315.744C882.959 314.536 881.326 313.932 879.327 313.932C877.955 313.932 876.673 314.297 875.479 315.028C874.301 315.759 873.347 316.773 872.616 318.071C871.9 319.353 871.542 320.837 871.542 322.523V344H866.262Z" fill="white"/>
<path d="M269.982 247V201.182H279.513V218.408H279.804C280.221 217.484 280.825 216.544 281.616 215.589C282.421 214.62 283.465 213.815 284.748 213.173C286.045 212.517 287.656 212.189 289.58 212.189C292.086 212.189 294.398 212.845 296.516 214.158C298.634 215.455 300.326 217.417 301.594 220.042C302.862 222.652 303.496 225.925 303.496 229.863C303.496 233.696 302.877 236.933 301.639 239.572C300.416 242.197 298.745 244.189 296.627 245.546C294.525 246.888 292.168 247.559 289.558 247.559C287.708 247.559 286.135 247.254 284.837 246.642C283.555 246.031 282.503 245.262 281.683 244.338C280.863 243.398 280.236 242.451 279.804 241.496H279.379V247H269.982ZM279.311 229.818C279.311 231.862 279.595 233.644 280.162 235.165C280.728 236.686 281.549 237.872 282.623 238.722C283.696 239.558 285.001 239.975 286.538 239.975C288.089 239.975 289.401 239.55 290.475 238.7C291.549 237.835 292.362 236.642 292.914 235.12C293.48 233.584 293.764 231.817 293.764 229.818C293.764 227.835 293.488 226.089 292.936 224.583C292.384 223.077 291.571 221.898 290.498 221.048C289.424 220.198 288.104 219.773 286.538 219.773C284.987 219.773 283.674 220.183 282.6 221.004C281.541 221.824 280.728 222.987 280.162 224.494C279.595 226 279.311 227.775 279.311 229.818ZM326.584 220.646V212.681H357.48V220.646H326.584ZM326.584 235.501V227.536H357.48V235.501H326.584ZM381.748 247V240.02L398.057 224.919C399.444 223.576 400.608 222.368 401.547 221.294C402.502 220.221 403.225 219.169 403.717 218.14C404.21 217.096 404.456 215.97 404.456 214.762C404.456 213.419 404.15 212.263 403.538 211.294C402.927 210.31 402.092 209.556 401.033 209.034C399.974 208.498 398.773 208.229 397.431 208.229C396.029 208.229 394.806 208.512 393.762 209.079C392.718 209.646 391.912 210.459 391.346 211.518C390.779 212.577 390.495 213.837 390.495 215.299H381.301C381.301 212.301 381.979 209.698 383.336 207.491C384.694 205.283 386.595 203.576 389.041 202.368C391.487 201.159 394.306 200.555 397.498 200.555C400.779 200.555 403.635 201.137 406.066 202.3C408.513 203.449 410.414 205.045 411.771 207.088C413.129 209.131 413.807 211.473 413.807 214.113C413.807 215.843 413.464 217.551 412.778 219.236C412.107 220.922 410.906 222.793 409.176 224.852C407.446 226.895 405.008 229.348 401.861 232.212L395.171 238.767V239.08H414.411V247H381.748ZM431.319 247.649C429.127 247.649 427.173 247.268 425.458 246.508C423.742 245.732 422.385 244.591 421.386 243.085C420.401 241.564 419.909 239.669 419.909 237.402C419.909 235.493 420.26 233.89 420.961 232.592C421.662 231.295 422.616 230.251 423.824 229.46C425.032 228.67 426.405 228.073 427.941 227.67C429.492 227.268 431.118 226.984 432.818 226.82C434.817 226.612 436.427 226.418 437.65 226.239C438.873 226.045 439.761 225.761 440.313 225.388C440.865 225.016 441.14 224.464 441.14 223.733V223.599C441.14 222.182 440.693 221.086 439.798 220.31C438.918 219.534 437.665 219.147 436.04 219.147C434.324 219.147 432.96 219.527 431.945 220.288C430.931 221.033 430.26 221.973 429.932 223.107L421.117 222.391C421.565 220.303 422.445 218.498 423.757 216.977C425.07 215.44 426.763 214.262 428.836 213.442C430.924 212.607 433.34 212.189 436.084 212.189C437.993 212.189 439.82 212.413 441.566 212.86C443.325 213.308 444.884 214.001 446.241 214.941C447.613 215.88 448.695 217.088 449.485 218.565C450.276 220.027 450.671 221.779 450.671 223.822V247H441.633V242.235H441.364C440.812 243.309 440.074 244.256 439.149 245.076C438.225 245.881 437.113 246.515 435.816 246.978C434.518 247.425 433.019 247.649 431.319 247.649ZM434.048 241.071C435.45 241.071 436.688 240.795 437.762 240.244C438.836 239.677 439.679 238.916 440.29 237.962C440.902 237.007 441.208 235.926 441.208 234.718V231.071C440.909 231.265 440.499 231.444 439.977 231.608C439.47 231.757 438.896 231.899 438.254 232.033C437.613 232.152 436.972 232.264 436.33 232.369C435.689 232.458 435.107 232.54 434.585 232.615C433.467 232.779 432.49 233.04 431.655 233.398C430.819 233.756 430.171 234.24 429.708 234.852C429.246 235.449 429.015 236.194 429.015 237.089C429.015 238.387 429.485 239.379 430.424 240.065C431.379 240.736 432.587 241.071 434.048 241.071Z" fill="white"/>
</svg>
