<svg width="969" height="662" viewBox="0 0 969 662" fill="none" xmlns="http://www.w3.org/2000/svg">
<path d="M851.823 30.2761C853.573 29.1557 855.659 31.1153 854.65 32.9315L572.187 541.471C571.834 542.106 571.165 542.5 570.438 542.5H58.8314C56.8335 542.5 56.0704 539.893 57.7528 538.816L851.823 30.2761Z" fill="#5FD7FF" stroke="white" stroke-width="12"/>
<path d="M296.548 268V222.182H301.828V239.095H302.276C302.663 238.499 303.2 237.738 303.886 236.813C304.587 235.874 305.587 235.038 306.884 234.308C308.197 233.562 309.972 233.189 312.209 233.189C315.102 233.189 317.653 233.912 319.86 235.359C322.067 236.806 323.79 238.857 325.028 241.511C326.266 244.166 326.885 247.298 326.885 250.908C326.885 254.547 326.266 257.701 325.028 260.371C323.79 263.026 322.075 265.084 319.882 266.546C317.69 267.993 315.162 268.716 312.298 268.716C310.091 268.716 308.324 268.35 306.996 267.62C305.669 266.874 304.647 266.031 303.931 265.092C303.215 264.137 302.663 263.347 302.276 262.72H301.649V268H296.548ZM301.739 250.818C301.739 253.413 302.119 255.703 302.88 257.686C303.64 259.655 304.751 261.199 306.213 262.317C307.675 263.421 309.464 263.973 311.582 263.973C313.79 263.973 315.632 263.391 317.108 262.228C318.6 261.05 319.718 259.469 320.464 257.485C321.225 255.487 321.605 253.264 321.605 250.818C321.605 248.402 321.232 246.224 320.487 244.286C319.756 242.332 318.645 240.788 317.153 239.654C315.676 238.506 313.82 237.932 311.582 237.932C309.435 237.932 307.63 238.476 306.168 239.565C304.707 240.639 303.603 242.145 302.857 244.084C302.112 246.008 301.739 248.253 301.739 250.818ZM354.828 240.885V236.053H382.39V240.885H354.828ZM354.828 254.129V249.297H382.39V254.129H354.828ZM418.818 255.114V254.845C418.848 251.996 419.146 249.729 419.713 248.044C420.279 246.359 421.085 244.994 422.129 243.95C423.173 242.906 424.426 241.944 425.887 241.064C426.767 240.527 427.558 239.893 428.259 239.162C428.96 238.417 429.512 237.559 429.914 236.589C430.332 235.62 430.541 234.546 430.541 233.368C430.541 231.906 430.198 230.638 429.512 229.565C428.826 228.491 427.908 227.663 426.76 227.081C425.611 226.5 424.336 226.209 422.934 226.209C421.711 226.209 420.533 226.462 419.399 226.969C418.266 227.477 417.319 228.275 416.558 229.363C415.797 230.452 415.358 231.876 415.238 233.636H409.6C409.72 231.101 410.376 228.931 411.569 227.126C412.777 225.321 414.366 223.942 416.334 222.987C418.318 222.033 420.518 221.555 422.934 221.555C425.559 221.555 427.841 222.077 429.78 223.121C431.734 224.165 433.24 225.597 434.299 227.417C435.373 229.237 435.91 231.31 435.91 233.636C435.91 235.277 435.657 236.761 435.149 238.088C434.657 239.416 433.941 240.602 433.002 241.646C432.077 242.69 430.958 243.614 429.646 244.42C428.333 245.24 427.282 246.105 426.491 247.015C425.701 247.91 425.127 248.976 424.769 250.214C424.411 251.452 424.217 252.996 424.187 254.845V255.114H418.818ZM421.681 268.358C420.578 268.358 419.631 267.963 418.84 267.172C418.05 266.382 417.654 265.435 417.654 264.331C417.654 263.227 418.05 262.28 418.84 261.49C419.631 260.699 420.578 260.304 421.681 260.304C422.785 260.304 423.732 260.699 424.523 261.49C425.313 262.28 425.708 263.227 425.708 264.331C425.708 265.062 425.522 265.733 425.149 266.344C424.791 266.956 424.306 267.448 423.695 267.821C423.098 268.179 422.427 268.358 421.681 268.358Z" fill="white"/>
<path d="M309.945 604.805C307.767 604.805 305.791 604.395 304.016 603.575C302.241 602.74 300.832 601.539 299.788 599.973C298.744 598.392 298.222 596.483 298.222 594.246C298.222 592.277 298.609 590.681 299.385 589.458C300.161 588.22 301.197 587.251 302.495 586.55C303.792 585.849 305.224 585.327 306.79 584.984C308.371 584.626 309.96 584.342 311.555 584.134C313.643 583.865 315.336 583.664 316.634 583.529C317.946 583.38 318.901 583.134 319.498 582.791C320.109 582.448 320.415 581.852 320.415 581.001V580.822C320.415 578.615 319.811 576.9 318.603 575.677C317.409 574.454 315.597 573.842 313.166 573.842C310.646 573.842 308.669 574.394 307.238 575.498C305.806 576.602 304.799 577.78 304.217 579.033L299.206 577.243C300.101 575.155 301.294 573.529 302.786 572.366C304.292 571.187 305.933 570.367 307.707 569.905C309.497 569.428 311.257 569.189 312.987 569.189C314.091 569.189 315.359 569.323 316.79 569.592C318.237 569.845 319.632 570.375 320.974 571.18C322.331 571.985 323.457 573.201 324.352 574.827C325.247 576.452 325.695 578.63 325.695 581.359V604H320.415V599.347H320.146C319.788 600.092 319.192 600.89 318.357 601.74C317.521 602.591 316.41 603.314 315.023 603.911C313.636 604.507 311.943 604.805 309.945 604.805ZM310.75 600.062C312.838 600.062 314.598 599.652 316.03 598.832C317.477 598.012 318.565 596.953 319.296 595.655C320.042 594.358 320.415 592.993 320.415 591.561V586.729C320.191 586.997 319.699 587.243 318.938 587.467C318.192 587.676 317.327 587.862 316.343 588.026C315.374 588.175 314.426 588.31 313.502 588.429C312.592 588.533 311.854 588.623 311.287 588.697C309.915 588.876 308.632 589.167 307.439 589.57C306.261 589.958 305.306 590.547 304.575 591.337C303.859 592.113 303.501 593.172 303.501 594.514C303.501 596.349 304.18 597.736 305.537 598.675C306.909 599.6 308.647 600.062 310.75 600.062ZM355.198 576.885V572.053H382.76V576.885H355.198ZM355.198 590.129V585.297H382.76V590.129H355.198ZM419.188 591.114V590.845C419.218 587.996 419.516 585.729 420.083 584.044C420.65 582.359 421.455 580.994 422.499 579.95C423.543 578.906 424.796 577.944 426.257 577.064C427.137 576.527 427.928 575.893 428.629 575.162C429.33 574.417 429.882 573.559 430.284 572.589C430.702 571.62 430.911 570.546 430.911 569.368C430.911 567.906 430.568 566.638 429.882 565.565C429.196 564.491 428.278 563.663 427.13 563.081C425.982 562.5 424.706 562.209 423.304 562.209C422.081 562.209 420.903 562.462 419.77 562.969C418.636 563.477 417.689 564.275 416.928 565.363C416.168 566.452 415.728 567.876 415.608 569.636H409.971C410.09 567.101 410.746 564.931 411.939 563.126C413.147 561.321 414.736 559.942 416.705 558.987C418.688 558.033 420.888 557.555 423.304 557.555C425.929 557.555 428.211 558.077 430.15 559.121C432.104 560.165 433.61 561.597 434.669 563.417C435.743 565.237 436.28 567.31 436.28 569.636C436.28 571.277 436.027 572.761 435.52 574.088C435.027 575.416 434.311 576.602 433.372 577.646C432.447 578.69 431.328 579.614 430.016 580.42C428.703 581.24 427.652 582.105 426.862 583.015C426.071 583.91 425.497 584.976 425.139 586.214C424.781 587.452 424.587 588.996 424.557 590.845V591.114H419.188ZM422.051 604.358C420.948 604.358 420.001 603.963 419.21 603.172C418.42 602.382 418.025 601.435 418.025 600.331C418.025 599.227 418.42 598.28 419.21 597.49C420.001 596.699 420.948 596.304 422.051 596.304C423.155 596.304 424.102 596.699 424.893 597.49C425.683 598.28 426.078 599.227 426.078 600.331C426.078 601.062 425.892 601.733 425.519 602.344C425.161 602.956 424.676 603.448 424.065 603.821C423.468 604.179 422.797 604.358 422.051 604.358Z" fill="white"/>
<path d="M735.743 344V339.973L750.866 323.418C752.641 321.479 754.103 319.793 755.251 318.362C756.4 316.915 757.25 315.558 757.802 314.29C758.369 313.007 758.652 311.665 758.652 310.263C758.652 308.652 758.264 307.257 757.489 306.079C756.728 304.901 755.684 303.991 754.357 303.35C753.029 302.708 751.538 302.388 749.882 302.388C748.122 302.388 746.586 302.753 745.273 303.484C743.976 304.2 742.969 305.207 742.253 306.504C741.552 307.802 741.202 309.323 741.202 311.068H735.922C735.922 308.384 736.541 306.027 737.779 303.999C739.017 301.97 740.702 300.389 742.835 299.256C744.983 298.122 747.391 297.555 750.061 297.555C752.746 297.555 755.125 298.122 757.198 299.256C759.271 300.389 760.897 301.918 762.075 303.842C763.253 305.766 763.842 307.906 763.842 310.263C763.842 311.948 763.537 313.596 762.925 315.207C762.328 316.803 761.284 318.585 759.793 320.554C758.316 322.508 756.266 324.894 753.641 327.713L743.349 338.72V339.078H764.648V344H735.743ZM788.832 344.626C785.461 344.626 782.59 343.709 780.219 341.875C777.847 340.025 776.035 337.348 774.782 333.843C773.529 330.323 772.903 326.072 772.903 321.091C772.903 316.139 773.529 311.911 774.782 308.406C776.05 304.886 777.87 302.201 780.241 300.352C782.627 298.488 785.491 297.555 788.832 297.555C792.173 297.555 795.029 298.488 797.401 300.352C799.787 302.201 801.607 304.886 802.859 308.406C804.127 311.911 804.761 316.139 804.761 321.091C804.761 326.072 804.135 330.323 802.882 333.843C801.629 337.348 799.817 340.025 797.445 341.875C795.074 343.709 792.203 344.626 788.832 344.626ZM788.832 339.705C792.173 339.705 794.768 338.094 796.618 334.872C798.467 331.651 799.392 327.057 799.392 321.091C799.392 317.124 798.967 313.745 798.116 310.956C797.281 308.167 796.073 306.042 794.492 304.58C792.926 303.119 791.039 302.388 788.832 302.388C785.521 302.388 782.933 304.021 781.069 307.287C779.205 310.539 778.272 315.14 778.272 321.091C778.272 325.058 778.69 328.429 779.525 331.203C780.36 333.977 781.561 336.088 783.127 337.534C784.708 338.981 786.61 339.705 788.832 339.705ZM845.031 344.716C841.809 344.716 839.035 343.955 836.708 342.434C834.382 340.913 832.592 338.817 831.339 336.147C830.086 333.478 829.46 330.428 829.46 326.997C829.46 323.507 830.101 320.427 831.384 317.757C832.681 315.073 834.486 312.977 836.798 311.471C839.125 309.95 841.839 309.189 844.941 309.189C847.358 309.189 849.535 309.636 851.474 310.531C853.413 311.426 855.001 312.679 856.239 314.29C857.477 315.901 858.245 317.78 858.544 319.928H853.264C852.861 318.362 851.966 316.974 850.579 315.766C849.207 314.543 847.358 313.932 845.031 313.932C842.973 313.932 841.168 314.469 839.617 315.543C838.081 316.602 836.88 318.1 836.015 320.039C835.165 321.963 834.74 324.223 834.74 326.818C834.74 329.473 835.157 331.785 835.993 333.754C836.843 335.722 838.036 337.251 839.572 338.34C841.123 339.429 842.943 339.973 845.031 339.973C846.403 339.973 847.648 339.734 848.767 339.257C849.886 338.78 850.833 338.094 851.608 337.199C852.384 336.304 852.936 335.23 853.264 333.977H858.544C858.245 336.006 857.507 337.833 856.329 339.458C855.165 341.069 853.622 342.352 851.698 343.306C849.789 344.246 847.566 344.716 845.031 344.716ZM866.262 344V309.636H871.363V315.006H871.81C872.526 313.171 873.682 311.747 875.278 310.733C876.874 309.703 878.79 309.189 881.028 309.189C883.295 309.189 885.181 309.703 886.688 310.733C888.209 311.747 889.395 313.171 890.245 315.006H890.603C891.483 313.231 892.803 311.821 894.563 310.777C896.323 309.718 898.433 309.189 900.894 309.189C903.967 309.189 906.48 310.151 908.434 312.075C910.387 313.984 911.364 316.96 911.364 321.001V344H906.085V321.001C906.085 318.466 905.391 316.654 904.004 315.565C902.617 314.476 900.984 313.932 899.104 313.932C896.688 313.932 894.816 314.663 893.489 316.124C892.162 317.571 891.498 319.406 891.498 321.628V344H886.129V320.464C886.129 318.511 885.495 316.937 884.227 315.744C882.959 314.536 881.326 313.932 879.327 313.932C877.955 313.932 876.673 314.297 875.479 315.028C874.301 315.759 873.347 316.773 872.616 318.071C871.9 319.353 871.542 320.837 871.542 322.523V344H866.262Z" fill="white"/>
<line x1="58" y1="541" x2="571" y2="541" stroke="#9DFF00" stroke-width="14" stroke-linecap="round"/>
<line x1="57.1405" y1="538.335" x2="853.335" y2="30.8594" stroke="#FFD500" stroke-width="14" stroke-linecap="round"/>
</svg>
