<svg width="969" height="662" viewBox="0 0 969 662" fill="none" xmlns="http://www.w3.org/2000/svg">
<path d="M851.823 30.2761C853.573 29.1557 855.659 31.1153 854.65 32.9315L572.187 541.471C571.834 542.106 571.165 542.5 570.438 542.5H58.8314C56.8335 542.5 56.0704 539.893 57.7528 538.816L851.823 30.2761Z" fill="#5FD7FF" stroke="white" stroke-width="12"/>
<path d="M281.669 239.604V235.04L301.804 203.182H305.115V210.251H302.878L287.665 234.324V234.682H314.78V239.604H281.669ZM303.236 249V238.217V236.091V203.182H308.516V249H303.236ZM338.377 249.626C336.498 249.597 334.618 249.239 332.739 248.553C330.86 247.866 329.145 246.711 327.593 245.085C326.042 243.444 324.797 241.229 323.857 238.44C322.918 235.636 322.448 232.116 322.448 227.881C322.448 223.824 322.828 220.229 323.589 217.097C324.35 213.95 325.453 211.303 326.9 209.155C328.347 206.993 330.092 205.352 332.135 204.233C334.193 203.115 336.513 202.555 339.093 202.555C341.658 202.555 343.94 203.07 345.939 204.099C347.952 205.113 349.593 206.53 350.861 208.35C352.128 210.169 352.949 212.265 353.321 214.636H347.863C347.356 212.578 346.371 210.87 344.91 209.513C343.448 208.156 341.509 207.477 339.093 207.477C335.543 207.477 332.747 209.021 330.703 212.108C328.675 215.196 327.653 219.528 327.638 225.107H327.996C328.831 223.839 329.823 222.757 330.972 221.863C332.135 220.953 333.418 220.252 334.82 219.76C336.222 219.267 337.706 219.021 339.272 219.021C341.897 219.021 344.298 219.678 346.476 220.99C348.653 222.288 350.398 224.085 351.711 226.382C353.023 228.664 353.679 231.281 353.679 234.234C353.679 237.068 353.046 239.663 351.778 242.02C350.51 244.362 348.728 246.226 346.431 247.613C344.149 248.985 341.464 249.656 338.377 249.626ZM338.377 244.705C340.256 244.705 341.941 244.235 343.433 243.295C344.939 242.355 346.125 241.095 346.99 239.514C347.87 237.933 348.31 236.173 348.31 234.234C348.31 232.34 347.885 230.618 347.035 229.066C346.2 227.5 345.044 226.255 343.567 225.33C342.106 224.406 340.435 223.943 338.556 223.943C337.139 223.943 335.819 224.227 334.596 224.793C333.373 225.345 332.299 226.106 331.374 227.075C330.465 228.045 329.749 229.156 329.227 230.409C328.705 231.647 328.444 232.952 328.444 234.324C328.444 236.143 328.869 237.844 329.719 239.425C330.584 241.006 331.762 242.281 333.254 243.25C334.76 244.22 336.468 244.705 338.377 244.705ZM394.246 249.716C391.024 249.716 388.25 248.955 385.923 247.434C383.597 245.913 381.807 243.817 380.554 241.147C379.301 238.478 378.675 235.428 378.675 231.997C378.675 228.507 379.316 225.427 380.599 222.757C381.896 220.073 383.701 217.977 386.013 216.471C388.339 214.95 391.054 214.189 394.156 214.189C396.572 214.189 398.75 214.636 400.689 215.531C402.628 216.426 404.216 217.679 405.454 219.29C406.692 220.901 407.46 222.78 407.759 224.928H402.479C402.076 223.362 401.181 221.974 399.794 220.766C398.422 219.543 396.572 218.932 394.246 218.932C392.188 218.932 390.383 219.469 388.832 220.543C387.295 221.602 386.095 223.1 385.23 225.039C384.38 226.963 383.955 229.223 383.955 231.818C383.955 234.473 384.372 236.785 385.207 238.754C386.058 240.722 387.251 242.251 388.787 243.34C390.338 244.429 392.158 244.973 394.246 244.973C395.618 244.973 396.863 244.734 397.982 244.257C399.1 243.78 400.048 243.094 400.823 242.199C401.599 241.304 402.151 240.23 402.479 238.977H407.759C407.46 241.006 406.722 242.833 405.544 244.458C404.38 246.069 402.837 247.352 400.913 248.306C399.004 249.246 396.781 249.716 394.246 249.716ZM415.477 249V214.636H420.578V220.006H421.025C421.741 218.171 422.897 216.747 424.493 215.733C426.089 214.703 428.005 214.189 430.243 214.189C432.51 214.189 434.396 214.703 435.903 215.733C437.424 216.747 438.61 218.171 439.46 220.006H439.818C440.698 218.231 442.018 216.821 443.778 215.777C445.538 214.718 447.648 214.189 450.109 214.189C453.181 214.189 455.695 215.151 457.648 217.075C459.602 218.984 460.579 221.96 460.579 226.001V249H455.299V226.001C455.299 223.466 454.606 221.654 453.219 220.565C451.832 219.476 450.199 218.932 448.319 218.932C445.903 218.932 444.031 219.663 442.704 221.124C441.376 222.571 440.713 224.406 440.713 226.628V249H435.343V225.464C435.343 223.511 434.71 221.937 433.442 220.744C432.174 219.536 430.541 218.932 428.542 218.932C427.17 218.932 425.887 219.297 424.694 220.028C423.516 220.759 422.561 221.773 421.831 223.071C421.115 224.353 420.757 225.837 420.757 227.523V249H415.477Z" fill="white"/>
<path d="M252.743 622V617.973L267.866 601.418C269.641 599.479 271.103 597.793 272.251 596.362C273.4 594.915 274.25 593.558 274.802 592.29C275.369 591.007 275.652 589.665 275.652 588.263C275.652 586.652 275.264 585.257 274.489 584.079C273.728 582.901 272.684 581.991 271.357 581.35C270.029 580.708 268.538 580.388 266.882 580.388C265.122 580.388 263.586 580.753 262.273 581.484C260.976 582.2 259.969 583.207 259.253 584.504C258.552 585.802 258.202 587.323 258.202 589.068H252.922C252.922 586.384 253.541 584.027 254.779 581.999C256.017 579.97 257.702 578.389 259.835 577.256C261.983 576.122 264.391 575.555 267.061 575.555C269.746 575.555 272.125 576.122 274.198 577.256C276.271 578.389 277.897 579.918 279.075 581.842C280.253 583.766 280.842 585.906 280.842 588.263C280.842 589.948 280.537 591.596 279.925 593.207C279.328 594.803 278.284 596.585 276.793 598.554C275.316 600.508 273.266 602.894 270.641 605.713L260.349 616.72V617.078H281.648V622H252.743ZM306.369 622.626C303.416 622.626 300.783 622.119 298.472 621.105C296.175 620.091 294.348 618.681 292.99 616.877C291.648 615.057 290.917 612.947 290.798 610.545H296.436C296.555 612.022 297.062 613.297 297.957 614.371C298.852 615.43 300.023 616.25 301.469 616.832C302.916 617.414 304.52 617.705 306.279 617.705C308.248 617.705 309.993 617.362 311.515 616.675C313.036 615.989 314.229 615.035 315.094 613.812C315.959 612.589 316.392 611.172 316.392 609.561C316.392 607.876 315.974 606.392 315.139 605.109C314.304 603.811 313.081 602.797 311.47 602.066C309.859 601.336 307.89 600.97 305.564 600.97H301.895V596.048H305.564C307.383 596.048 308.979 595.72 310.351 595.064C311.738 594.408 312.82 593.483 313.595 592.29C314.386 591.097 314.781 589.695 314.781 588.084C314.781 586.533 314.438 585.183 313.752 584.034C313.066 582.886 312.096 581.991 310.843 581.35C309.605 580.708 308.144 580.388 306.458 580.388C304.877 580.388 303.386 580.679 301.984 581.26C300.597 581.827 299.463 582.655 298.583 583.744C297.703 584.817 297.226 586.115 297.152 587.636H291.782C291.872 585.235 292.595 583.132 293.952 581.327C295.31 579.508 297.085 578.091 299.277 577.077C301.484 576.062 303.908 575.555 306.548 575.555C309.382 575.555 311.813 576.13 313.841 577.278C315.87 578.412 317.428 579.911 318.517 581.775C319.606 583.639 320.15 585.653 320.15 587.815C320.15 590.396 319.472 592.596 318.114 594.415C316.772 596.235 314.945 597.495 312.633 598.196V598.554C315.527 599.031 317.786 600.262 319.412 602.245C321.038 604.214 321.85 606.653 321.85 609.561C321.85 612.052 321.172 614.289 319.815 616.273C318.472 618.241 316.638 619.793 314.311 620.926C311.984 622.06 309.337 622.626 306.369 622.626ZM362.769 622.716C359.548 622.716 356.773 621.955 354.447 620.434C352.12 618.913 350.33 616.817 349.077 614.147C347.825 611.478 347.198 608.428 347.198 604.997C347.198 601.507 347.839 598.427 349.122 595.757C350.42 593.073 352.224 590.977 354.536 589.471C356.863 587.95 359.577 587.189 362.68 587.189C365.096 587.189 367.273 587.636 369.212 588.531C371.151 589.426 372.74 590.679 373.978 592.29C375.216 593.901 375.984 595.78 376.282 597.928H371.002C370.599 596.362 369.705 594.974 368.317 593.766C366.945 592.543 365.096 591.932 362.769 591.932C360.711 591.932 358.906 592.469 357.355 593.543C355.819 594.602 354.618 596.1 353.753 598.039C352.903 599.963 352.478 602.223 352.478 604.818C352.478 607.473 352.896 609.785 353.731 611.754C354.581 613.722 355.774 615.251 357.31 616.34C358.862 617.429 360.681 617.973 362.769 617.973C364.141 617.973 365.387 617.734 366.505 617.257C367.624 616.78 368.571 616.094 369.347 615.199C370.122 614.304 370.674 613.23 371.002 611.977H376.282C375.984 614.006 375.245 615.833 374.067 617.458C372.904 619.069 371.36 620.352 369.436 621.306C367.527 622.246 365.305 622.716 362.769 622.716ZM384 622V587.636H389.101V593.006H389.549C390.265 591.171 391.42 589.747 393.016 588.733C394.612 587.703 396.529 587.189 398.766 587.189C401.033 587.189 402.92 587.703 404.426 588.733C405.947 589.747 407.133 591.171 407.983 593.006H408.341C409.221 591.231 410.541 589.821 412.301 588.777C414.061 587.718 416.172 587.189 418.632 587.189C421.705 587.189 424.218 588.151 426.172 590.075C428.126 591.984 429.103 594.96 429.103 599.001V622H423.823V599.001C423.823 596.466 423.129 594.654 421.742 593.565C420.355 592.476 418.722 591.932 416.843 591.932C414.426 591.932 412.555 592.663 411.227 594.124C409.9 595.571 409.236 597.406 409.236 599.628V622H403.867V598.464C403.867 596.511 403.233 594.937 401.965 593.744C400.697 592.536 399.064 591.932 397.066 591.932C395.694 591.932 394.411 592.297 393.218 593.028C392.039 593.759 391.085 594.773 390.354 596.071C389.638 597.353 389.28 598.837 389.28 600.523V622H384Z" fill="white"/>
<path d="M735.743 344V339.973L750.866 323.418C752.641 321.479 754.103 319.793 755.251 318.362C756.4 316.915 757.25 315.558 757.802 314.29C758.369 313.007 758.652 311.665 758.652 310.263C758.652 308.652 758.264 307.257 757.489 306.079C756.728 304.901 755.684 303.991 754.357 303.35C753.029 302.708 751.538 302.388 749.882 302.388C748.122 302.388 746.586 302.753 745.273 303.484C743.976 304.2 742.969 305.207 742.253 306.504C741.552 307.802 741.202 309.323 741.202 311.068H735.922C735.922 308.384 736.541 306.027 737.779 303.999C739.017 301.97 740.702 300.389 742.835 299.256C744.983 298.122 747.391 297.555 750.061 297.555C752.746 297.555 755.125 298.122 757.198 299.256C759.271 300.389 760.897 301.918 762.075 303.842C763.253 305.766 763.842 307.906 763.842 310.263C763.842 311.948 763.537 313.596 762.925 315.207C762.328 316.803 761.284 318.585 759.793 320.554C758.316 322.508 756.266 324.894 753.641 327.713L743.349 338.72V339.078H764.648V344H735.743ZM788.832 344.626C785.461 344.626 782.59 343.709 780.219 341.875C777.847 340.025 776.035 337.348 774.782 333.843C773.529 330.323 772.903 326.072 772.903 321.091C772.903 316.139 773.529 311.911 774.782 308.406C776.05 304.886 777.87 302.201 780.241 300.352C782.627 298.488 785.491 297.555 788.832 297.555C792.173 297.555 795.029 298.488 797.401 300.352C799.787 302.201 801.607 304.886 802.859 308.406C804.127 311.911 804.761 316.139 804.761 321.091C804.761 326.072 804.135 330.323 802.882 333.843C801.629 337.348 799.817 340.025 797.445 341.875C795.074 343.709 792.203 344.626 788.832 344.626ZM788.832 339.705C792.173 339.705 794.768 338.094 796.618 334.872C798.467 331.651 799.392 327.057 799.392 321.091C799.392 317.124 798.967 313.745 798.116 310.956C797.281 308.167 796.073 306.042 794.492 304.58C792.926 303.119 791.039 302.388 788.832 302.388C785.521 302.388 782.933 304.021 781.069 307.287C779.205 310.539 778.272 315.14 778.272 321.091C778.272 325.058 778.69 328.429 779.525 331.203C780.36 333.977 781.561 336.088 783.127 337.534C784.708 338.981 786.61 339.705 788.832 339.705ZM845.031 344.716C841.809 344.716 839.035 343.955 836.708 342.434C834.382 340.913 832.592 338.817 831.339 336.147C830.086 333.478 829.46 330.428 829.46 326.997C829.46 323.507 830.101 320.427 831.384 317.757C832.681 315.073 834.486 312.977 836.798 311.471C839.125 309.95 841.839 309.189 844.941 309.189C847.358 309.189 849.535 309.636 851.474 310.531C853.413 311.426 855.001 312.679 856.239 314.29C857.477 315.901 858.245 317.78 858.544 319.928H853.264C852.861 318.362 851.966 316.974 850.579 315.766C849.207 314.543 847.358 313.932 845.031 313.932C842.973 313.932 841.168 314.469 839.617 315.543C838.081 316.602 836.88 318.1 836.015 320.039C835.165 321.963 834.74 324.223 834.74 326.818C834.74 329.473 835.157 331.785 835.993 333.754C836.843 335.722 838.036 337.251 839.572 338.34C841.123 339.429 842.943 339.973 845.031 339.973C846.403 339.973 847.648 339.734 848.767 339.257C849.886 338.78 850.833 338.094 851.608 337.199C852.384 336.304 852.936 335.23 853.264 333.977H858.544C858.245 336.006 857.507 337.833 856.329 339.458C855.165 341.069 853.622 342.352 851.698 343.306C849.789 344.246 847.566 344.716 845.031 344.716ZM866.262 344V309.636H871.363V315.006H871.81C872.526 313.171 873.682 311.747 875.278 310.733C876.874 309.703 878.79 309.189 881.028 309.189C883.295 309.189 885.181 309.703 886.688 310.733C888.209 311.747 889.395 313.171 890.245 315.006H890.603C891.483 313.231 892.803 311.821 894.563 310.777C896.323 309.718 898.433 309.189 900.894 309.189C903.967 309.189 906.48 310.151 908.434 312.075C910.387 313.984 911.364 316.96 911.364 321.001V344H906.085V321.001C906.085 318.466 905.391 316.654 904.004 315.565C902.617 314.476 900.984 313.932 899.104 313.932C896.688 313.932 894.816 314.663 893.489 316.124C892.162 317.571 891.498 319.406 891.498 321.628V344H886.129V320.464C886.129 318.511 885.495 316.937 884.227 315.744C882.959 314.536 881.326 313.932 879.327 313.932C877.955 313.932 876.673 314.297 875.479 315.028C874.301 315.759 873.347 316.773 872.616 318.071C871.9 319.353 871.542 320.837 871.542 322.523V344H866.262Z" fill="white"/>
</svg>
