<svg width="720" height="398" viewBox="0 0 720 398" fill="none" xmlns="http://www.w3.org/2000/svg">
<path d="M48.8949 312H44.2784L57.6307 275.636H62.1761L75.5284 312H70.9119L60.0455 281.389H59.7614L48.8949 312ZM50.5994 297.795H69.2074V301.702H50.5994V297.795Z" fill="white"/>
<path d="M152.087 272.348C151.043 272.331 149.999 272.133 148.955 271.751C147.911 271.37 146.958 270.728 146.096 269.825C145.234 268.913 144.542 267.683 144.02 266.134C143.498 264.576 143.237 262.62 143.237 260.267C143.237 258.013 143.449 256.016 143.871 254.276C144.294 252.528 144.907 251.057 145.711 249.864C146.514 248.663 147.484 247.751 148.619 247.13C149.762 246.508 151.051 246.197 152.484 246.197C153.91 246.197 155.177 246.483 156.288 247.055C157.406 247.618 158.318 248.406 159.022 249.417C159.726 250.427 160.182 251.592 160.389 252.909H157.357C157.075 251.766 156.528 250.817 155.716 250.063C154.904 249.309 153.827 248.932 152.484 248.932C150.512 248.932 148.959 249.789 147.824 251.505C146.697 253.22 146.129 255.627 146.121 258.726H146.32C146.784 258.022 147.335 257.421 147.973 256.924C148.619 256.418 149.332 256.029 150.11 255.755C150.889 255.482 151.714 255.345 152.584 255.345C154.042 255.345 155.376 255.71 156.586 256.439C157.796 257.16 158.765 258.158 159.494 259.434C160.223 260.702 160.588 262.156 160.588 263.797C160.588 265.371 160.236 266.813 159.532 268.122C158.827 269.423 157.837 270.459 156.561 271.229C155.293 271.992 153.802 272.365 152.087 272.348ZM152.087 269.614C153.131 269.614 154.067 269.353 154.896 268.831C155.732 268.309 156.391 267.608 156.872 266.73C157.361 265.852 157.605 264.874 157.605 263.797C157.605 262.745 157.369 261.788 156.897 260.926C156.433 260.056 155.79 259.364 154.97 258.85C154.158 258.336 153.23 258.08 152.186 258.08C151.399 258.08 150.666 258.237 149.986 258.552C149.307 258.858 148.71 259.281 148.196 259.82C147.691 260.358 147.293 260.975 147.003 261.672C146.713 262.359 146.568 263.084 146.568 263.847C146.568 264.857 146.804 265.802 147.277 266.68C147.757 267.559 148.412 268.267 149.24 268.806C150.077 269.344 151.026 269.614 152.087 269.614ZM173.778 272.348C171.906 272.348 170.311 271.838 168.993 270.819C167.676 269.792 166.669 268.304 165.973 266.357C165.277 264.402 164.929 262.04 164.929 259.273C164.929 256.522 165.277 254.173 165.973 252.225C166.677 250.27 167.688 248.779 169.006 247.751C170.331 246.715 171.922 246.197 173.778 246.197C175.634 246.197 177.221 246.715 178.539 247.751C179.864 248.779 180.875 250.27 181.571 252.225C182.276 254.173 182.628 256.522 182.628 259.273C182.628 262.04 182.28 264.402 181.584 266.357C180.888 268.304 179.881 269.792 178.563 270.819C177.246 271.838 175.651 272.348 173.778 272.348ZM173.778 269.614C175.634 269.614 177.076 268.719 178.104 266.929C179.131 265.139 179.645 262.587 179.645 259.273C179.645 257.069 179.409 255.192 178.936 253.642C178.472 252.093 177.801 250.912 176.923 250.1C176.053 249.288 175.005 248.882 173.778 248.882C171.939 248.882 170.501 249.789 169.465 251.604C168.43 253.41 167.912 255.967 167.912 259.273C167.912 261.477 168.144 263.349 168.608 264.891C169.072 266.432 169.739 267.604 170.609 268.408C171.487 269.212 172.544 269.614 173.778 269.614ZM192.67 257.781C191.618 257.781 190.657 257.524 189.787 257.011C188.925 256.497 188.237 255.809 187.724 254.947C187.21 254.077 186.953 253.116 186.953 252.064C186.953 251.012 187.21 250.055 187.724 249.193C188.237 248.323 188.925 247.631 189.787 247.117C190.657 246.603 191.618 246.347 192.67 246.347C193.723 246.347 194.68 246.603 195.541 247.117C196.411 247.631 197.103 248.323 197.617 249.193C198.131 250.055 198.388 251.012 198.388 252.064C198.388 253.116 198.131 254.077 197.617 254.947C197.103 255.809 196.411 256.497 195.541 257.011C194.68 257.524 193.723 257.781 192.67 257.781ZM192.67 255.295C193.267 255.295 193.81 255.15 194.299 254.86C194.787 254.57 195.177 254.181 195.467 253.692C195.757 253.203 195.902 252.661 195.902 252.064C195.902 251.467 195.757 250.925 195.467 250.436C195.177 249.947 194.787 249.557 194.299 249.267C193.81 248.977 193.267 248.832 192.67 248.832C192.074 248.832 191.531 248.977 191.042 249.267C190.553 249.557 190.164 249.947 189.874 250.436C189.584 250.925 189.439 251.467 189.439 252.064C189.439 252.661 189.584 253.203 189.874 253.692C190.164 254.181 190.553 254.57 191.042 254.86C191.531 255.15 192.074 255.295 192.67 255.295Z" fill="white"/>
<path d="M549.087 270.348C548.043 270.331 546.999 270.133 545.955 269.751C544.911 269.37 543.958 268.728 543.096 267.825C542.234 266.913 541.542 265.683 541.02 264.134C540.498 262.576 540.237 260.62 540.237 258.267C540.237 256.013 540.449 254.016 540.871 252.276C541.294 250.528 541.907 249.057 542.711 247.864C543.514 246.663 544.484 245.751 545.619 245.13C546.762 244.508 548.051 244.197 549.484 244.197C550.91 244.197 552.177 244.483 553.288 245.055C554.406 245.618 555.318 246.406 556.022 247.417C556.726 248.427 557.182 249.592 557.389 250.909H554.357C554.075 249.766 553.528 248.817 552.716 248.063C551.904 247.309 550.827 246.932 549.484 246.932C547.512 246.932 545.959 247.789 544.824 249.505C543.697 251.22 543.129 253.627 543.121 256.726H543.32C543.784 256.022 544.335 255.421 544.973 254.924C545.619 254.418 546.332 254.029 547.11 253.755C547.889 253.482 548.714 253.345 549.584 253.345C551.042 253.345 552.376 253.71 553.586 254.439C554.796 255.16 555.765 256.158 556.494 257.434C557.223 258.702 557.588 260.156 557.588 261.797C557.588 263.371 557.236 264.813 556.532 266.122C555.827 267.423 554.837 268.459 553.561 269.229C552.293 269.992 550.802 270.365 549.087 270.348ZM549.087 267.614C550.131 267.614 551.067 267.353 551.896 266.831C552.732 266.309 553.391 265.608 553.872 264.73C554.361 263.852 554.605 262.874 554.605 261.797C554.605 260.745 554.369 259.788 553.897 258.926C553.433 258.056 552.79 257.364 551.97 256.85C551.158 256.336 550.23 256.08 549.186 256.08C548.399 256.08 547.666 256.237 546.986 256.552C546.307 256.858 545.71 257.281 545.196 257.82C544.691 258.358 544.293 258.975 544.003 259.672C543.713 260.359 543.568 261.084 543.568 261.847C543.568 262.857 543.804 263.802 544.277 264.68C544.757 265.559 545.412 266.267 546.24 266.806C547.077 267.344 548.026 267.614 549.087 267.614ZM570.778 270.348C568.906 270.348 567.311 269.838 565.993 268.819C564.676 267.792 563.669 266.304 562.973 264.357C562.277 262.402 561.929 260.04 561.929 257.273C561.929 254.522 562.277 252.173 562.973 250.225C563.677 248.27 564.688 246.779 566.006 245.751C567.331 244.715 568.922 244.197 570.778 244.197C572.634 244.197 574.221 244.715 575.539 245.751C576.864 246.779 577.875 248.27 578.571 250.225C579.276 252.173 579.628 254.522 579.628 257.273C579.628 260.04 579.28 262.402 578.584 264.357C577.888 266.304 576.881 267.792 575.563 268.819C574.246 269.838 572.651 270.348 570.778 270.348ZM570.778 267.614C572.634 267.614 574.076 266.719 575.104 264.929C576.131 263.139 576.645 260.587 576.645 257.273C576.645 255.069 576.409 253.192 575.936 251.642C575.472 250.093 574.801 248.912 573.923 248.1C573.053 247.288 572.005 246.882 570.778 246.882C568.939 246.882 567.501 247.789 566.465 249.604C565.43 251.41 564.912 253.967 564.912 257.273C564.912 259.477 565.144 261.349 565.608 262.891C566.072 264.432 566.739 265.604 567.609 266.408C568.487 267.212 569.544 267.614 570.778 267.614ZM589.67 255.781C588.618 255.781 587.657 255.524 586.787 255.011C585.925 254.497 585.237 253.809 584.724 252.947C584.21 252.077 583.953 251.116 583.953 250.064C583.953 249.012 584.21 248.055 584.724 247.193C585.237 246.323 585.925 245.631 586.787 245.117C587.657 244.603 588.618 244.347 589.67 244.347C590.723 244.347 591.68 244.603 592.541 245.117C593.411 245.631 594.103 246.323 594.617 247.193C595.131 248.055 595.388 249.012 595.388 250.064C595.388 251.116 595.131 252.077 594.617 252.947C594.103 253.809 593.411 254.497 592.541 255.011C591.68 255.524 590.723 255.781 589.67 255.781ZM589.67 253.295C590.267 253.295 590.81 253.15 591.299 252.86C591.787 252.57 592.177 252.181 592.467 251.692C592.757 251.203 592.902 250.661 592.902 250.064C592.902 249.467 592.757 248.925 592.467 248.436C592.177 247.947 591.787 247.557 591.299 247.267C590.81 246.977 590.267 246.832 589.67 246.832C589.074 246.832 588.531 246.977 588.042 247.267C587.553 247.557 587.164 247.947 586.874 248.436C586.584 248.925 586.439 249.467 586.439 250.064C586.439 250.661 586.584 251.203 586.874 251.692C587.164 252.181 587.553 252.57 588.042 252.86C588.531 253.15 589.074 253.295 589.67 253.295Z" fill="white"/>
<path d="M658.403 312V275.636H671.116C673.65 275.636 675.739 276.074 677.384 276.95C679.03 277.814 680.255 278.98 681.06 280.448C681.865 281.904 682.267 283.52 682.267 285.295C682.267 286.858 681.989 288.148 681.433 289.166C680.888 290.184 680.166 290.989 679.266 291.581C678.379 292.173 677.414 292.611 676.372 292.895V293.25C677.485 293.321 678.603 293.712 679.728 294.422C680.853 295.132 681.794 296.15 682.551 297.476C683.309 298.802 683.688 300.423 683.688 302.341C683.688 304.164 683.273 305.803 682.445 307.259C681.616 308.715 680.308 309.869 678.521 310.722C676.733 311.574 674.407 312 671.543 312H658.403ZM662.807 308.094H671.543C674.419 308.094 676.461 307.537 677.668 306.425C678.888 305.3 679.497 303.939 679.497 302.341C679.497 301.11 679.183 299.973 678.556 298.932C677.929 297.878 677.035 297.038 675.875 296.411C674.715 295.771 673.342 295.452 671.756 295.452H662.807V308.094ZM662.807 291.616H670.974C672.3 291.616 673.496 291.356 674.561 290.835C675.638 290.314 676.491 289.58 677.118 288.634C677.757 287.687 678.077 286.574 678.077 285.295C678.077 283.697 677.52 282.342 676.408 281.229C675.295 280.105 673.531 279.543 671.116 279.543H662.807V291.616Z" fill="white"/>
<path d="M562.665 56H558.261C558.001 54.7334 557.545 53.6207 556.894 52.6619C556.255 51.7031 555.474 50.8982 554.55 50.2472C553.639 49.5843 552.627 49.0871 551.514 48.7557C550.402 48.4242 549.241 48.2585 548.034 48.2585C545.832 48.2585 543.838 48.8149 542.05 49.9276C540.275 51.0402 538.86 52.6797 537.807 54.8459C536.765 57.0121 536.244 59.6695 536.244 62.8182C536.244 65.9669 536.765 68.6243 537.807 70.7905C538.86 72.9567 540.275 74.5961 542.05 75.7088C543.838 76.8215 545.832 77.3778 548.034 77.3778C549.241 77.3778 550.402 77.2121 551.514 76.8807C552.627 76.5492 553.639 76.058 554.55 75.407C555.474 74.7441 556.255 73.9332 556.894 72.9744C557.545 72.0038 558.001 70.8911 558.261 69.6364H562.665C562.333 71.4948 561.73 73.1579 560.854 74.6257C559.978 76.0935 558.889 77.3423 557.587 78.3722C556.285 79.3902 554.823 80.1655 553.201 80.6982C551.591 81.2308 549.869 81.4972 548.034 81.4972C544.933 81.4972 542.175 80.7396 539.76 79.2244C537.345 77.7093 535.445 75.5549 534.06 72.7614C532.675 69.9678 531.983 66.6534 531.983 62.8182C531.983 58.983 532.675 55.6686 534.06 52.875C535.445 50.0814 537.345 47.9271 539.76 46.4119C542.175 44.8968 544.933 44.1392 548.034 44.1392C549.869 44.1392 551.591 44.4055 553.201 44.9382C554.823 45.4709 556.285 46.2521 557.587 47.282C558.889 48.3 559.978 49.5428 560.854 51.0107C561.73 52.4666 562.333 54.1297 562.665 56Z" fill="white"/>
<path d="M169.625 81H158.403V44.6364H170.122C173.65 44.6364 176.668 45.3643 179.178 46.8203C181.687 48.2644 183.611 50.3419 184.948 53.0526C186.286 55.7514 186.955 58.983 186.955 62.7472C186.955 66.535 186.28 69.7962 184.93 72.5305C183.581 75.2531 181.616 77.3482 179.036 78.8161C176.455 80.272 173.318 81 169.625 81ZM162.807 77.0938H169.341C172.348 77.0938 174.839 76.5137 176.816 75.3537C178.793 74.1937 180.267 72.5424 181.237 70.3999C182.208 68.2573 182.693 65.7064 182.693 62.7472C182.693 59.8116 182.214 57.2843 181.255 55.1655C180.296 53.0348 178.864 51.4013 176.958 50.2649C175.052 49.1167 172.679 48.5426 169.838 48.5426H162.807V77.0938Z" fill="white"/>
<path d="M219.004 65.5H505.657C505.84 65.5 506.009 65.6 506.097 65.7607L638.39 308.761C638.571 309.094 638.33 309.5 637.951 309.5H92.9365C92.5616 309.5 92.3195 309.102 92.4922 308.77L218.561 65.7695C218.646 65.604 218.817 65.5002 219.004 65.5Z" fill="#008423" stroke="white" stroke-width="5"/>
<path d="M177.895 224H173.278L186.631 187.636H191.176L204.528 224H199.912L189.045 193.389H188.761L177.895 224ZM179.599 209.795H198.207V213.702H179.599V209.795ZM209.624 224V196.727H213.673V200.847H213.957C214.454 199.497 215.353 198.402 216.656 197.562C217.958 196.721 219.425 196.301 221.059 196.301C221.367 196.301 221.751 196.307 222.213 196.319C222.675 196.331 223.024 196.348 223.261 196.372V200.634C223.119 200.598 222.793 200.545 222.284 200.474C221.787 200.391 221.26 200.349 220.704 200.349C219.378 200.349 218.194 200.628 217.153 201.184C216.123 201.728 215.306 202.486 214.702 203.457C214.111 204.415 213.815 205.51 213.815 206.741V224H209.624ZM238.832 224.568C236.205 224.568 233.938 223.988 232.032 222.828C230.138 221.656 228.676 220.023 227.646 217.928C226.628 215.821 226.119 213.37 226.119 210.577C226.119 207.783 226.628 205.321 227.646 203.19C228.676 201.048 230.108 199.379 231.943 198.183C233.79 196.976 235.944 196.372 238.406 196.372C239.827 196.372 241.229 196.609 242.614 197.082C243.999 197.556 245.26 198.325 246.396 199.391C247.533 200.444 248.438 201.841 249.113 203.581C249.788 205.321 250.125 207.464 250.125 210.009V211.784H229.102V208.162H245.864C245.864 206.623 245.556 205.25 244.94 204.043C244.337 202.835 243.473 201.882 242.348 201.184C241.235 200.486 239.921 200.136 238.406 200.136C236.737 200.136 235.293 200.551 234.074 201.379C232.866 202.196 231.937 203.261 231.286 204.575C230.635 205.889 230.31 207.298 230.31 208.801V211.216C230.31 213.276 230.665 215.022 231.375 216.454C232.097 217.874 233.097 218.957 234.376 219.703C235.654 220.437 237.14 220.804 238.832 220.804C239.933 220.804 240.928 220.65 241.815 220.342C242.715 220.023 243.49 219.549 244.141 218.922C244.792 218.283 245.295 217.49 245.651 216.543L249.699 217.679C249.273 219.052 248.557 220.259 247.55 221.301C246.544 222.331 245.301 223.136 243.822 223.716C242.342 224.284 240.679 224.568 238.832 224.568ZM264.525 224.639C262.797 224.639 261.228 224.314 259.82 223.663C258.411 223 257.292 222.047 256.464 220.804C255.635 219.549 255.221 218.034 255.221 216.259C255.221 214.696 255.529 213.429 256.144 212.459C256.76 211.476 257.582 210.707 258.612 210.151C259.642 209.594 260.778 209.18 262.021 208.908C263.276 208.624 264.537 208.399 265.803 208.233C267.46 208.02 268.804 207.86 269.834 207.754C270.875 207.635 271.633 207.44 272.107 207.168C272.592 206.895 272.835 206.422 272.835 205.747V205.605C272.835 203.853 272.355 202.492 271.396 201.521C270.449 200.551 269.011 200.065 267.082 200.065C265.081 200.065 263.513 200.503 262.376 201.379C261.24 202.255 260.441 203.19 259.979 204.185L256.002 202.764C256.712 201.107 257.659 199.817 258.843 198.893C260.039 197.958 261.341 197.307 262.749 196.94C264.17 196.562 265.567 196.372 266.94 196.372C267.816 196.372 268.822 196.479 269.958 196.692C271.106 196.893 272.213 197.313 273.278 197.952C274.356 198.592 275.249 199.556 275.96 200.847C276.67 202.137 277.025 203.865 277.025 206.031V224H272.835V220.307H272.621C272.337 220.899 271.864 221.532 271.201 222.207C270.538 222.881 269.656 223.455 268.555 223.929C267.455 224.402 266.111 224.639 264.525 224.639ZM265.164 220.875C266.821 220.875 268.218 220.549 269.354 219.898C270.503 219.247 271.367 218.407 271.947 217.377C272.539 216.347 272.835 215.264 272.835 214.128V210.293C272.657 210.506 272.266 210.701 271.663 210.879C271.071 211.044 270.384 211.192 269.603 211.322C268.834 211.441 268.082 211.547 267.348 211.642C266.626 211.725 266.04 211.796 265.59 211.855C264.501 211.997 263.483 212.228 262.536 212.548C261.601 212.855 260.844 213.323 260.263 213.95C259.695 214.566 259.411 215.406 259.411 216.472C259.411 217.928 259.95 219.028 261.027 219.774C262.116 220.508 263.495 220.875 265.164 220.875ZM300.44 202.48V198.645H322.315V202.48H300.44ZM300.44 212.991V209.156H322.315V212.991H300.44ZM345.686 224V220.804L357.689 207.665C359.098 206.126 360.258 204.788 361.169 203.652C362.08 202.504 362.755 201.427 363.193 200.42C363.643 199.402 363.868 198.337 363.868 197.224C363.868 195.946 363.56 194.839 362.945 193.904C362.341 192.969 361.512 192.247 360.459 191.738C359.405 191.229 358.222 190.974 356.908 190.974C355.511 190.974 354.292 191.264 353.25 191.844C352.22 192.413 351.421 193.212 350.853 194.241C350.297 195.271 350.018 196.479 350.018 197.864H345.828C345.828 195.733 346.319 193.863 347.302 192.253C348.284 190.643 349.622 189.388 351.315 188.489C353.019 187.589 354.931 187.139 357.05 187.139C359.18 187.139 361.068 187.589 362.714 188.489C364.359 189.388 365.649 190.602 366.585 192.129C367.52 193.656 367.987 195.354 367.987 197.224C367.987 198.562 367.745 199.87 367.259 201.148C366.786 202.415 365.957 203.83 364.773 205.392C363.602 206.943 361.974 208.837 359.891 211.074L351.723 219.81V220.094H368.626V224H345.686ZM387.82 224.497C385.145 224.497 382.866 223.769 380.984 222.313C379.102 220.845 377.664 218.721 376.67 215.939C375.675 213.145 375.178 209.772 375.178 205.818C375.178 201.888 375.675 198.532 376.67 195.751C377.676 192.957 379.12 190.826 381.002 189.359C382.896 187.879 385.169 187.139 387.82 187.139C390.472 187.139 392.739 187.879 394.621 189.359C396.515 190.826 397.959 192.957 398.953 195.751C399.959 198.532 400.462 201.888 400.462 205.818C400.462 209.772 399.965 213.145 398.971 215.939C397.977 218.721 396.538 220.845 394.656 222.313C392.774 223.769 390.496 224.497 387.82 224.497ZM387.82 220.591C390.472 220.591 392.531 219.312 393.999 216.756C395.467 214.199 396.201 210.553 396.201 205.818C396.201 202.67 395.864 199.988 395.189 197.775C394.526 195.561 393.567 193.875 392.312 192.714C391.07 191.554 389.572 190.974 387.82 190.974C385.192 190.974 383.139 192.271 381.659 194.863C380.179 197.443 379.44 201.095 379.44 205.818C379.44 208.967 379.771 211.642 380.434 213.844C381.097 216.045 382.05 217.72 383.293 218.869C384.547 220.017 386.057 220.591 387.82 220.591ZM409.065 224.284C408.189 224.284 407.437 223.97 406.81 223.343C406.183 222.716 405.869 221.964 405.869 221.088C405.869 220.212 406.183 219.46 406.81 218.833C407.437 218.206 408.189 217.892 409.065 217.892C409.941 217.892 410.693 218.206 411.32 218.833C411.947 219.46 412.261 220.212 412.261 221.088C412.261 221.668 412.113 222.201 411.817 222.686C411.533 223.171 411.148 223.562 410.663 223.858C410.19 224.142 409.657 224.284 409.065 224.284ZM420.113 224L436.378 191.827V191.543H417.628V187.636H440.923V191.756L424.73 224H420.113ZM458.834 224.497C457.343 224.473 455.851 224.189 454.36 223.645C452.868 223.1 451.507 222.183 450.276 220.893C449.045 219.591 448.056 217.833 447.311 215.619C446.565 213.394 446.192 210.6 446.192 207.239C446.192 204.019 446.494 201.166 447.098 198.68C447.701 196.183 448.577 194.082 449.725 192.377C450.874 190.661 452.259 189.359 453.88 188.471C455.514 187.583 457.355 187.139 459.402 187.139C461.438 187.139 463.249 187.548 464.836 188.364C466.434 189.169 467.736 190.294 468.742 191.738C469.748 193.182 470.399 194.845 470.695 196.727H466.363C465.96 195.094 465.179 193.738 464.019 192.661C462.859 191.584 461.32 191.045 459.402 191.045C456.585 191.045 454.366 192.271 452.744 194.721C451.134 197.171 450.323 200.61 450.311 205.037H450.596C451.258 204.031 452.046 203.173 452.957 202.462C453.88 201.74 454.898 201.184 456.011 200.793C457.124 200.403 458.301 200.207 459.544 200.207C461.628 200.207 463.533 200.728 465.262 201.77C466.99 202.8 468.375 204.226 469.417 206.049C470.458 207.86 470.979 209.938 470.979 212.281C470.979 214.53 470.476 216.59 469.47 218.46C468.464 220.319 467.049 221.798 465.226 222.899C463.415 223.988 461.284 224.521 458.834 224.497ZM458.834 220.591C460.326 220.591 461.663 220.218 462.847 219.472C464.042 218.727 464.984 217.726 465.67 216.472C466.368 215.217 466.718 213.82 466.718 212.281C466.718 210.778 466.38 209.411 465.706 208.18C465.043 206.937 464.125 205.948 462.953 205.214C461.793 204.481 460.468 204.114 458.976 204.114C457.852 204.114 456.804 204.339 455.833 204.788C454.863 205.226 454.011 205.83 453.277 206.599C452.555 207.369 451.986 208.251 451.572 209.245C451.158 210.228 450.951 211.263 450.951 212.352C450.951 213.796 451.288 215.146 451.963 216.401C452.649 217.655 453.584 218.667 454.768 219.437C455.964 220.206 457.319 220.591 458.834 220.591ZM492.095 224V196.727H496.143V200.989H496.498C497.067 199.533 497.984 198.402 499.251 197.597C500.517 196.781 502.038 196.372 503.814 196.372C505.613 196.372 507.11 196.781 508.306 197.597C509.513 198.402 510.454 199.533 511.129 200.989H511.413C512.112 199.58 513.159 198.461 514.556 197.633C515.953 196.792 517.628 196.372 519.581 196.372C522.019 196.372 524.014 197.136 525.564 198.663C527.115 200.178 527.89 202.539 527.89 205.747V224H523.7V205.747C523.7 203.735 523.15 202.297 522.049 201.433C520.948 200.568 519.652 200.136 518.16 200.136C516.243 200.136 514.757 200.716 513.704 201.876C512.65 203.025 512.123 204.481 512.123 206.244V224H507.862V205.321C507.862 203.77 507.359 202.522 506.353 201.575C505.347 200.616 504.05 200.136 502.464 200.136C501.375 200.136 500.357 200.426 499.41 201.006C498.475 201.586 497.718 202.391 497.138 203.421C496.569 204.439 496.285 205.617 496.285 206.955V224H492.095ZM534.203 205.818V203.048L542.512 195.662C543.341 194.928 544.033 194.271 544.59 193.691C545.146 193.111 545.566 192.549 545.85 192.004C546.134 191.46 546.276 190.88 546.276 190.264C546.276 189.199 545.868 188.353 545.051 187.725C544.235 187.098 543.222 186.784 542.015 186.784C540.737 186.784 539.707 187.127 538.926 187.814C538.144 188.489 537.754 189.376 537.754 190.477H534.061C534.061 188.453 534.812 186.826 536.316 185.594C537.819 184.352 539.742 183.73 542.086 183.73C543.649 183.73 545.022 184.014 546.205 184.582C547.389 185.139 548.312 185.908 548.975 186.891C549.638 187.861 549.97 188.962 549.97 190.193C549.97 191.164 549.774 192.063 549.384 192.892C548.993 193.721 548.383 194.579 547.555 195.467C546.726 196.354 545.661 197.366 544.359 198.503L539.742 202.551V202.693H550.609V205.818H534.203Z" fill="white"/>
</svg>
