<svg width="720" height="398" viewBox="0 0 720 398" fill="none" xmlns="http://www.w3.org/2000/svg">
<rect x="191" y="274" width="36" height="36" stroke="#FFB200" stroke-width="4"/>
<rect x="470" y="272" width="36" height="36" stroke="#FFB200" stroke-width="4"/>
<path d="M48.8949 312H44.2784L57.6307 275.636H62.1761L75.5284 312H70.9119L60.0455 281.389H59.7614L48.8949 312ZM50.5994 297.795H69.2074V301.702H50.5994V297.795Z" fill="white"/>
<path d="M152.087 272.348C151.043 272.331 149.999 272.133 148.955 271.751C147.911 271.37 146.958 270.728 146.096 269.825C145.234 268.913 144.542 267.683 144.02 266.134C143.498 264.576 143.237 262.62 143.237 260.267C143.237 258.013 143.449 256.016 143.871 254.276C144.294 252.528 144.907 251.057 145.711 249.864C146.514 248.663 147.484 247.751 148.619 247.13C149.762 246.508 151.051 246.197 152.484 246.197C153.91 246.197 155.177 246.483 156.288 247.055C157.406 247.618 158.318 248.406 159.022 249.417C159.726 250.427 160.182 251.592 160.389 252.909H157.357C157.075 251.766 156.528 250.817 155.716 250.063C154.904 249.309 153.827 248.932 152.484 248.932C150.512 248.932 148.959 249.789 147.824 251.505C146.697 253.22 146.129 255.627 146.121 258.726H146.32C146.784 258.022 147.335 257.421 147.973 256.924C148.619 256.418 149.332 256.029 150.11 255.755C150.889 255.482 151.714 255.345 152.584 255.345C154.042 255.345 155.376 255.71 156.586 256.439C157.796 257.16 158.765 258.158 159.494 259.434C160.223 260.702 160.588 262.156 160.588 263.797C160.588 265.371 160.236 266.813 159.532 268.122C158.827 269.423 157.837 270.459 156.561 271.229C155.293 271.992 153.802 272.365 152.087 272.348ZM152.087 269.614C153.131 269.614 154.067 269.353 154.896 268.831C155.732 268.309 156.391 267.608 156.872 266.73C157.361 265.852 157.605 264.874 157.605 263.797C157.605 262.745 157.369 261.788 156.897 260.926C156.433 260.056 155.79 259.364 154.97 258.85C154.158 258.336 153.23 258.08 152.186 258.08C151.399 258.08 150.666 258.237 149.986 258.552C149.307 258.858 148.71 259.281 148.196 259.82C147.691 260.358 147.293 260.975 147.003 261.672C146.713 262.359 146.568 263.084 146.568 263.847C146.568 264.857 146.804 265.802 147.277 266.68C147.757 267.559 148.412 268.267 149.24 268.806C150.077 269.344 151.026 269.614 152.087 269.614ZM173.778 272.348C171.906 272.348 170.311 271.838 168.993 270.819C167.676 269.792 166.669 268.304 165.973 266.357C165.277 264.402 164.929 262.04 164.929 259.273C164.929 256.522 165.277 254.173 165.973 252.225C166.677 250.27 167.688 248.779 169.006 247.751C170.331 246.715 171.922 246.197 173.778 246.197C175.634 246.197 177.221 246.715 178.539 247.751C179.864 248.779 180.875 250.27 181.571 252.225C182.276 254.173 182.628 256.522 182.628 259.273C182.628 262.04 182.28 264.402 181.584 266.357C180.888 268.304 179.881 269.792 178.563 270.819C177.246 271.838 175.651 272.348 173.778 272.348ZM173.778 269.614C175.634 269.614 177.076 268.719 178.104 266.929C179.131 265.139 179.645 262.587 179.645 259.273C179.645 257.069 179.409 255.192 178.936 253.642C178.472 252.093 177.801 250.912 176.923 250.1C176.053 249.288 175.005 248.882 173.778 248.882C171.939 248.882 170.501 249.789 169.465 251.604C168.43 253.41 167.912 255.967 167.912 259.273C167.912 261.477 168.144 263.349 168.608 264.891C169.072 266.432 169.739 267.604 170.609 268.408C171.487 269.212 172.544 269.614 173.778 269.614ZM192.67 257.781C191.618 257.781 190.657 257.524 189.787 257.011C188.925 256.497 188.237 255.809 187.724 254.947C187.21 254.077 186.953 253.116 186.953 252.064C186.953 251.012 187.21 250.055 187.724 249.193C188.237 248.323 188.925 247.631 189.787 247.117C190.657 246.603 191.618 246.347 192.67 246.347C193.723 246.347 194.68 246.603 195.541 247.117C196.411 247.631 197.103 248.323 197.617 249.193C198.131 250.055 198.388 251.012 198.388 252.064C198.388 253.116 198.131 254.077 197.617 254.947C197.103 255.809 196.411 256.497 195.541 257.011C194.68 257.524 193.723 257.781 192.67 257.781ZM192.67 255.295C193.267 255.295 193.81 255.15 194.299 254.86C194.787 254.57 195.177 254.181 195.467 253.692C195.757 253.203 195.902 252.661 195.902 252.064C195.902 251.467 195.757 250.925 195.467 250.436C195.177 249.947 194.787 249.557 194.299 249.267C193.81 248.977 193.267 248.832 192.67 248.832C192.074 248.832 191.531 248.977 191.042 249.267C190.553 249.557 190.164 249.947 189.874 250.436C189.584 250.925 189.439 251.467 189.439 252.064C189.439 252.661 189.584 253.203 189.874 253.692C190.164 254.181 190.553 254.57 191.042 254.86C191.531 255.15 192.074 255.295 192.67 255.295Z" fill="white"/>
<path d="M549.087 270.348C548.043 270.331 546.999 270.133 545.955 269.751C544.911 269.37 543.958 268.728 543.096 267.825C542.234 266.913 541.542 265.683 541.02 264.134C540.498 262.576 540.237 260.62 540.237 258.267C540.237 256.013 540.449 254.016 540.871 252.276C541.294 250.528 541.907 249.057 542.711 247.864C543.514 246.663 544.484 245.751 545.619 245.13C546.762 244.508 548.051 244.197 549.484 244.197C550.91 244.197 552.177 244.483 553.288 245.055C554.406 245.618 555.318 246.406 556.022 247.417C556.726 248.427 557.182 249.592 557.389 250.909H554.357C554.075 249.766 553.528 248.817 552.716 248.063C551.904 247.309 550.827 246.932 549.484 246.932C547.512 246.932 545.959 247.789 544.824 249.505C543.697 251.22 543.129 253.627 543.121 256.726H543.32C543.784 256.022 544.335 255.421 544.973 254.924C545.619 254.418 546.332 254.029 547.11 253.755C547.889 253.482 548.714 253.345 549.584 253.345C551.042 253.345 552.376 253.71 553.586 254.439C554.796 255.16 555.765 256.158 556.494 257.434C557.223 258.702 557.588 260.156 557.588 261.797C557.588 263.371 557.236 264.813 556.532 266.122C555.827 267.423 554.837 268.459 553.561 269.229C552.293 269.992 550.802 270.365 549.087 270.348ZM549.087 267.614C550.131 267.614 551.067 267.353 551.896 266.831C552.732 266.309 553.391 265.608 553.872 264.73C554.361 263.852 554.605 262.874 554.605 261.797C554.605 260.745 554.369 259.788 553.897 258.926C553.433 258.056 552.79 257.364 551.97 256.85C551.158 256.336 550.23 256.08 549.186 256.08C548.399 256.08 547.666 256.237 546.986 256.552C546.307 256.858 545.71 257.281 545.196 257.82C544.691 258.358 544.293 258.975 544.003 259.672C543.713 260.359 543.568 261.084 543.568 261.847C543.568 262.857 543.804 263.802 544.277 264.68C544.757 265.559 545.412 266.267 546.24 266.806C547.077 267.344 548.026 267.614 549.087 267.614ZM570.778 270.348C568.906 270.348 567.311 269.838 565.993 268.819C564.676 267.792 563.669 266.304 562.973 264.357C562.277 262.402 561.929 260.04 561.929 257.273C561.929 254.522 562.277 252.173 562.973 250.225C563.677 248.27 564.688 246.779 566.006 245.751C567.331 244.715 568.922 244.197 570.778 244.197C572.634 244.197 574.221 244.715 575.539 245.751C576.864 246.779 577.875 248.27 578.571 250.225C579.276 252.173 579.628 254.522 579.628 257.273C579.628 260.04 579.28 262.402 578.584 264.357C577.888 266.304 576.881 267.792 575.563 268.819C574.246 269.838 572.651 270.348 570.778 270.348ZM570.778 267.614C572.634 267.614 574.076 266.719 575.104 264.929C576.131 263.139 576.645 260.587 576.645 257.273C576.645 255.069 576.409 253.192 575.936 251.642C575.472 250.093 574.801 248.912 573.923 248.1C573.053 247.288 572.005 246.882 570.778 246.882C568.939 246.882 567.501 247.789 566.465 249.604C565.43 251.41 564.912 253.967 564.912 257.273C564.912 259.477 565.144 261.349 565.608 262.891C566.072 264.432 566.739 265.604 567.609 266.408C568.487 267.212 569.544 267.614 570.778 267.614ZM589.67 255.781C588.618 255.781 587.657 255.524 586.787 255.011C585.925 254.497 585.237 253.809 584.724 252.947C584.21 252.077 583.953 251.116 583.953 250.064C583.953 249.012 584.21 248.055 584.724 247.193C585.237 246.323 585.925 245.631 586.787 245.117C587.657 244.603 588.618 244.347 589.67 244.347C590.723 244.347 591.68 244.603 592.541 245.117C593.411 245.631 594.103 246.323 594.617 247.193C595.131 248.055 595.388 249.012 595.388 250.064C595.388 251.116 595.131 252.077 594.617 252.947C594.103 253.809 593.411 254.497 592.541 255.011C591.68 255.524 590.723 255.781 589.67 255.781ZM589.67 253.295C590.267 253.295 590.81 253.15 591.299 252.86C591.787 252.57 592.177 252.181 592.467 251.692C592.757 251.203 592.902 250.661 592.902 250.064C592.902 249.467 592.757 248.925 592.467 248.436C592.177 247.947 591.787 247.557 591.299 247.267C590.81 246.977 590.267 246.832 589.67 246.832C589.074 246.832 588.531 246.977 588.042 247.267C587.553 247.557 587.164 247.947 586.874 248.436C586.584 248.925 586.439 249.467 586.439 250.064C586.439 250.661 586.584 251.203 586.874 251.692C587.164 252.181 587.553 252.57 588.042 252.86C588.531 253.15 589.074 253.295 589.67 253.295Z" fill="white"/>
<path d="M658.403 312V275.636H671.116C673.65 275.636 675.739 276.074 677.384 276.95C679.03 277.814 680.255 278.98 681.06 280.448C681.865 281.904 682.267 283.52 682.267 285.295C682.267 286.858 681.989 288.148 681.433 289.166C680.888 290.184 680.166 290.989 679.266 291.581C678.379 292.173 677.414 292.611 676.372 292.895V293.25C677.485 293.321 678.603 293.712 679.728 294.422C680.853 295.132 681.794 296.15 682.551 297.476C683.309 298.802 683.688 300.423 683.688 302.341C683.688 304.164 683.273 305.803 682.445 307.259C681.616 308.715 680.308 309.869 678.521 310.722C676.733 311.574 674.407 312 671.543 312H658.403ZM662.807 308.094H671.543C674.419 308.094 676.461 307.537 677.668 306.425C678.888 305.3 679.497 303.939 679.497 302.341C679.497 301.11 679.183 299.973 678.556 298.932C677.929 297.878 677.035 297.038 675.875 296.411C674.715 295.771 673.342 295.452 671.756 295.452H662.807V308.094ZM662.807 291.616H670.974C672.3 291.616 673.496 291.356 674.561 290.835C675.638 290.314 676.491 289.58 677.118 288.634C677.757 287.687 678.077 286.574 678.077 285.295C678.077 283.697 677.52 282.342 676.408 281.229C675.295 280.105 673.531 279.543 671.116 279.543H662.807V291.616Z" fill="white"/>
<path d="M562.665 56H558.261C558.001 54.7334 557.545 53.6207 556.894 52.6619C556.255 51.7031 555.474 50.8982 554.55 50.2472C553.639 49.5843 552.627 49.0871 551.514 48.7557C550.402 48.4242 549.241 48.2585 548.034 48.2585C545.832 48.2585 543.838 48.8149 542.05 49.9276C540.275 51.0402 538.86 52.6797 537.807 54.8459C536.765 57.0121 536.244 59.6695 536.244 62.8182C536.244 65.9669 536.765 68.6243 537.807 70.7905C538.86 72.9567 540.275 74.5961 542.05 75.7088C543.838 76.8215 545.832 77.3778 548.034 77.3778C549.241 77.3778 550.402 77.2121 551.514 76.8807C552.627 76.5492 553.639 76.058 554.55 75.407C555.474 74.7441 556.255 73.9332 556.894 72.9744C557.545 72.0038 558.001 70.8911 558.261 69.6364H562.665C562.333 71.4948 561.73 73.1579 560.854 74.6257C559.978 76.0935 558.889 77.3423 557.587 78.3722C556.285 79.3902 554.823 80.1655 553.201 80.6982C551.591 81.2308 549.869 81.4972 548.034 81.4972C544.933 81.4972 542.175 80.7396 539.76 79.2244C537.345 77.7093 535.445 75.5549 534.06 72.7614C532.675 69.9678 531.983 66.6534 531.983 62.8182C531.983 58.983 532.675 55.6686 534.06 52.875C535.445 50.0814 537.345 47.9271 539.76 46.4119C542.175 44.8968 544.933 44.1392 548.034 44.1392C549.869 44.1392 551.591 44.4055 553.201 44.9382C554.823 45.4709 556.285 46.2521 557.587 47.282C558.889 48.3 559.978 49.5428 560.854 51.0107C561.73 52.4666 562.333 54.1297 562.665 56Z" fill="white"/>
<path d="M169.625 81H158.403V44.6364H170.122C173.65 44.6364 176.668 45.3643 179.178 46.8203C181.687 48.2644 183.611 50.3419 184.948 53.0526C186.286 55.7514 186.955 58.983 186.955 62.7472C186.955 66.535 186.28 69.7962 184.93 72.5305C183.581 75.2531 181.616 77.3482 179.036 78.8161C176.455 80.272 173.318 81 169.625 81ZM162.807 77.0938H169.341C172.348 77.0938 174.839 76.5137 176.816 75.3537C178.793 74.1937 180.267 72.5424 181.237 70.3999C182.208 68.2573 182.693 65.7064 182.693 62.7472C182.693 59.8116 182.214 57.2843 181.255 55.1655C180.296 53.0348 178.864 51.4013 176.958 50.2649C175.052 49.1167 172.679 48.5426 169.838 48.5426H162.807V77.0938Z" fill="white"/>
<path d="M212.403 365V328.636H234.349V332.543H216.807V344.83H233.213V348.736H216.807V361.094H234.634V365H212.403Z" fill="white"/>
<path d="M491.403 359V322.636H513.207V326.543H495.807V338.83H511.574V342.736H495.807V359H491.403Z" fill="white"/>
<path opacity="0.3" d="M219.004 65.5H505.657C505.84 65.5 506.009 65.6 506.097 65.7607L638.39 308.761C638.571 309.094 638.33 309.5 637.951 309.5H92.9365C92.5616 309.5 92.3195 309.102 92.4922 308.77L218.561 65.7695C218.646 65.604 218.817 65.5002 219.004 65.5Z" stroke="white" stroke-width="5"/>
<line x1="543.663" y1="182.358" x2="582.24" y2="163.363" stroke="white" stroke-width="7"/>
<line x1="144.695" y1="160.938" x2="182.317" y2="181.759" stroke="white" stroke-width="7"/>
<line x1="366.5" y1="81" x2="366.5" y2="47" stroke="white" stroke-width="7"/>
<path d="M120.163 255.972C129.963 260.901 138.099 268.6 143.562 278.112C149.025 287.625 151.574 298.533 150.892 309.481L145.412 309.14C146.027 299.265 143.728 289.427 138.801 280.847C133.874 272.267 126.535 265.323 117.696 260.877L120.163 255.972Z" fill="white"/>
<path d="M575 309C575 298.03 578.222 287.302 584.265 278.147C590.309 268.993 598.908 261.815 608.996 257.504L611.153 262.553C602.055 266.441 594.299 272.915 588.847 281.172C583.396 289.43 580.491 299.106 580.491 309L575 309Z" fill="white"/>
<line x1="224.5" y1="62.9794" x2="226.5" y2="305.979" stroke="#47D2B6" stroke-width="5"/>
<line x1="95" y1="308.5" x2="229" y2="308.5" stroke="#FFB84B" stroke-width="7"/>
<line x1="219.491" y1="64.72" x2="92.72" y2="308.509" stroke="#56C7FF" stroke-width="7" stroke-linecap="round"/>
<line x1="504.5" y1="68.9789" x2="506.5" y2="305.979" stroke="#FFB200" stroke-width="5" stroke-dasharray="10 10"/>
<path d="M34.9119 168.543V164.92L50.892 139.636H53.5199V145.247H51.7443L39.6705 164.352V164.636H61.1903V168.543H34.9119ZM52.0284 176V167.442V165.755V139.636H56.2188V176H52.0284ZM81.9778 176V148.727H86.0261V152.989H86.3812C86.9494 151.533 87.8668 150.402 89.1333 149.597C90.3999 148.781 91.921 148.372 93.6966 148.372C95.4958 148.372 96.9932 148.781 98.1887 149.597C99.3961 150.402 100.337 151.533 101.012 152.989H101.296C101.994 151.58 103.042 150.461 104.439 149.633C105.836 148.792 107.51 148.372 109.464 148.372C111.902 148.372 113.897 149.136 115.447 150.663C116.998 152.178 117.773 154.539 117.773 157.747V176H113.583V157.747C113.583 155.735 113.032 154.297 111.932 153.433C110.831 152.568 109.535 152.136 108.043 152.136C106.126 152.136 104.64 152.716 103.586 153.876C102.533 155.025 102.006 156.481 102.006 158.244V176H97.7449V157.321C97.7449 155.77 97.2418 154.522 96.2356 153.575C95.2295 152.616 93.9333 152.136 92.3471 152.136C91.2581 152.136 90.2401 152.426 89.2931 153.006C88.358 153.586 87.6004 154.391 87.0204 155.421C86.4522 156.439 86.1681 157.617 86.1681 158.955V176H81.9778Z" fill="#56C7FF"/>
<path d="M239.764 213V209.804L251.767 196.665C253.176 195.126 254.336 193.788 255.247 192.652C256.159 191.504 256.833 190.427 257.271 189.42C257.721 188.402 257.946 187.337 257.946 186.224C257.946 184.946 257.638 183.839 257.023 182.904C256.419 181.969 255.59 181.247 254.537 180.738C253.483 180.229 252.3 179.974 250.986 179.974C249.589 179.974 248.37 180.264 247.328 180.844C246.298 181.413 245.499 182.212 244.931 183.241C244.375 184.271 244.097 185.479 244.097 186.864H239.906C239.906 184.733 240.397 182.863 241.38 181.253C242.362 179.643 243.7 178.388 245.393 177.489C247.097 176.589 249.009 176.139 251.128 176.139C253.259 176.139 255.147 176.589 256.792 177.489C258.437 178.388 259.728 179.602 260.663 181.129C261.598 182.656 262.065 184.354 262.065 186.224C262.065 187.562 261.823 188.87 261.337 190.148C260.864 191.415 260.035 192.83 258.852 194.392C257.68 195.943 256.052 197.837 253.969 200.074L245.801 208.81V209.094H262.705V213H239.764ZM280.052 206.963L291.273 176.636H296.281L282.538 213H279.342L280.052 206.963ZM276.217 193.753L281.117 206.963L282.04 213H278.844L271.245 193.753H276.217ZM268.12 197.659V193.753H276.075V197.659H268.12ZM313.868 213.497C311.524 213.497 309.435 213.095 307.6 212.29C305.777 211.485 304.327 210.366 303.25 208.934C302.184 207.49 301.604 205.815 301.51 203.909H305.984C306.079 205.081 306.481 206.093 307.191 206.945C307.902 207.786 308.831 208.437 309.979 208.898C311.127 209.36 312.4 209.591 313.797 209.591C315.359 209.591 316.744 209.319 317.951 208.774C319.159 208.23 320.106 207.472 320.792 206.501C321.479 205.531 321.822 204.406 321.822 203.128C321.822 201.79 321.491 200.612 320.828 199.594C320.165 198.565 319.194 197.76 317.916 197.18C316.637 196.6 315.075 196.31 313.228 196.31H310.316V192.403H313.228C314.672 192.403 315.939 192.143 317.028 191.622C318.129 191.101 318.987 190.367 319.603 189.42C320.23 188.473 320.544 187.361 320.544 186.082C320.544 184.851 320.271 183.78 319.727 182.869C319.182 181.957 318.413 181.247 317.419 180.738C316.436 180.229 315.276 179.974 313.939 179.974C312.684 179.974 311.5 180.205 310.387 180.667C309.287 181.117 308.387 181.774 307.689 182.638C306.99 183.49 306.611 184.52 306.552 185.727H302.291C302.362 183.821 302.936 182.152 304.013 180.72C305.09 179.276 306.499 178.152 308.239 177.347C309.991 176.542 311.914 176.139 314.01 176.139C316.259 176.139 318.188 176.595 319.798 177.506C321.408 178.406 322.645 179.596 323.509 181.075C324.373 182.555 324.805 184.153 324.805 185.869C324.805 187.917 324.266 189.663 323.189 191.107C322.124 192.551 320.674 193.552 318.839 194.108V194.392C321.136 194.771 322.929 195.747 324.219 197.322C325.509 198.884 326.154 200.82 326.154 203.128C326.154 205.105 325.616 206.88 324.539 208.455C323.473 210.017 322.017 211.248 320.171 212.148C318.324 213.047 316.223 213.497 313.868 213.497ZM347.55 213V185.727H351.598V189.989H351.953C352.522 188.533 353.439 187.402 354.706 186.597C355.972 185.781 357.493 185.372 359.269 185.372C361.068 185.372 362.565 185.781 363.761 186.597C364.968 187.402 365.909 188.533 366.584 189.989H366.868C367.567 188.58 368.614 187.461 370.011 186.633C371.408 185.792 373.083 185.372 375.036 185.372C377.474 185.372 379.469 186.136 381.02 187.663C382.57 189.178 383.346 191.539 383.346 194.747V213H379.155V194.747C379.155 192.735 378.605 191.297 377.504 190.433C376.403 189.568 375.107 189.136 373.615 189.136C371.698 189.136 370.212 189.716 369.159 190.876C368.105 192.025 367.578 193.481 367.578 195.244V213H363.317V194.321C363.317 192.77 362.814 191.522 361.808 190.575C360.802 189.616 359.506 189.136 357.919 189.136C356.83 189.136 355.812 189.426 354.865 190.006C353.93 190.586 353.173 191.391 352.593 192.421C352.025 193.439 351.74 194.617 351.74 195.955V213H347.55Z" fill="#47D2B6"/>
<path d="M100.764 361V357.804L112.767 344.665C114.176 343.126 115.336 341.788 116.247 340.652C117.159 339.504 117.833 338.427 118.271 337.42C118.721 336.402 118.946 335.337 118.946 334.224C118.946 332.946 118.638 331.839 118.023 330.904C117.419 329.969 116.59 329.247 115.537 328.738C114.483 328.229 113.3 327.974 111.986 327.974C110.589 327.974 109.37 328.264 108.328 328.844C107.298 329.413 106.499 330.212 105.931 331.241C105.375 332.271 105.097 333.479 105.097 334.864H100.906C100.906 332.733 101.397 330.863 102.38 329.253C103.362 327.643 104.7 326.388 106.393 325.489C108.097 324.589 110.009 324.139 112.128 324.139C114.259 324.139 116.147 324.589 117.792 325.489C119.437 326.388 120.728 327.602 121.663 329.129C122.598 330.656 123.065 332.354 123.065 334.224C123.065 335.562 122.823 336.87 122.337 338.148C121.864 339.415 121.035 340.83 119.852 342.392C118.68 343.943 117.052 345.837 114.969 348.074L106.801 356.81V357.094H123.705V361H100.764ZM145.171 361V333.727H149.219V337.989H149.575C150.143 336.533 151.06 335.402 152.327 334.597C153.593 333.781 155.114 333.372 156.89 333.372C158.689 333.372 160.187 333.781 161.382 334.597C162.589 335.402 163.531 336.533 164.205 337.989H164.489C165.188 336.58 166.235 335.461 167.632 334.633C169.029 333.792 170.704 333.372 172.657 333.372C175.095 333.372 177.09 334.136 178.641 335.663C180.191 337.178 180.967 339.539 180.967 342.747V361H176.776V342.747C176.776 340.735 176.226 339.297 175.125 338.433C174.024 337.568 172.728 337.136 171.237 337.136C169.319 337.136 167.833 337.716 166.78 338.876C165.726 340.025 165.2 341.481 165.2 343.244V361H160.938V342.321C160.938 340.77 160.435 339.522 159.429 338.575C158.423 337.616 157.127 337.136 155.54 337.136C154.451 337.136 153.433 337.426 152.487 338.006C151.551 338.586 150.794 339.391 150.214 340.421C149.646 341.439 149.362 342.617 149.362 343.955V361H145.171Z" fill="#FFB84B"/>
</svg>
