<svg width="298" height="385" viewBox="0 0 298 385" fill="none" xmlns="http://www.w3.org/2000/svg">
<style>
</style>
<rect class="square" x="112.402" y="17" width="72" height="72" stroke="white" stroke-width="2"/>
<rect class="rectangle" x="140.902" y="89.5" width="16" height="27" stroke="white"/>
<rect class="rectangle" x="183.902" y="35.5" width="21" height="35" stroke="white"/>
<rect class="rectangle" x="91.902" y="35.5" width="21" height="35" stroke="white"/>
<rect class="square" x="95.402" y="117" width="107" height="107" stroke="white" stroke-width="2"/>
<rect class="rectangle" x="168.902" y="252.5" width="30" height="86" stroke="white"/>
<path class="triangle" d="M183.469 226.75C183.662 226.417 184.142 226.417 184.335 226.75L198.625 251.5C198.817 251.833 198.576 252.25 198.191 252.25H169.613C169.228 252.25 168.987 251.833 169.179 251.5L183.469 226.75Z" stroke="white"/>
<circle class="circle" cx="183.902" cy="354.5" r="15" stroke="white"/>
<rect class="rectangle" x="205.183" y="146.566" width="30" height="86" transform="rotate(-30 205.183 146.566)" stroke="white"/>
<path class="triangle" d="M204.924 116.982C204.924 116.597 205.34 116.357 205.673 116.549L230.424 130.838C230.757 131.031 230.757 131.512 230.424 131.705L205.674 145.994C205.341 146.186 204.924 145.946 204.924 145.561L204.924 116.982Z" stroke="white"/>
<circle class="circle" cx="269.174" cy="227.4" r="15" transform="rotate(-30 269.174 227.4)" stroke="white"/>
<circle class="circle" cx="132.402" cy="46" r="10.5" stroke="white"/>
<circle class="circle" cx="165.402" cy="46" r="10.5" stroke="white"/>
<rect class="rectangle" x="66.183" y="131.566" width="30" height="86" transform="rotate(30 66.183 131.566)" stroke="white"/>
<path class="triangle" d="M91.6738 116.549C92.007 116.357 92.423 116.597 92.4231 116.982L92.4236 145.561C92.4236 145.946 92.0064 146.186 91.6731 145.994L66.9238 131.705C66.5905 131.512 66.59 131.031 66.9233 130.838L91.6738 116.549Z" stroke="white"/>
<circle class="circle" cx="28.1734" cy="227.4" r="15" transform="rotate(30 28.1734 227.4)" stroke="white"/>
<rect class="rectangle" x="96.902" y="252.5" width="30" height="86" stroke="white"/>
<path class="triangle" d="M111.469 226.75C111.662 226.417 112.142 226.417 112.335 226.75L126.625 251.5C126.817 251.833 126.576 252.25 126.191 252.25H97.6129C97.2281 252.25 96.987 251.833 97.1793 251.5L111.469 226.75Z" stroke="white"/>
<circle class="circle" cx="111.902" cy="354.5" r="15" stroke="white"/>
<rect class="rectangle" x="132.902" y="68.5" width="32" height="11" stroke="white"/>
</svg>
