<svg width="314" height="506" viewBox="0 0 314 506" fill="none" xmlns="http://www.w3.org/2000/svg">
<path class="triangle" d="M10.5547 18L69.4453 18L40 69.001L10.5547 18Z" fill="#0077D1" stroke="white"/>
<path class="triangle" d="M105.445 84H46.5547L76 32.999L105.445 84Z" fill="#0077D1" stroke="white"/>
<path class="triangle" d="M190.445 363H131.555L161 311.999L190.445 363Z" fill="#0077D1" stroke="white"/>
<path class="triangle" d="M251.545 207.677L250.128 148.804L301.823 177.014L251.545 207.677Z" fill="#0077D1" stroke="white"/>
<path class="triangle" d="M25.5448 357.677L24.1284 298.804L75.8228 327.014L25.5448 357.677Z" fill="#FA9D11" stroke="white"/>
<path class="triangle" d="M23.5448 159.677L22.1284 100.804L73.8228 129.014L23.5448 159.677Z" fill="#8ABE37" stroke="white"/>
<circle class="circle" cx="166" cy="252" r="24.5" fill="#EE4231" stroke="white"/>
<circle class="circle" cx="51" cy="406" r="24.5" fill="#EE4231" stroke="white"/>
<circle class="circle" cx="108" cy="127" r="24.5" fill="#EE4231" stroke="white"/>
<circle class="circle" cx="221" cy="125" r="24.5" fill="#EE4231" stroke="white"/>
<circle class="circle" cx="44" cy="262" r="24.5" fill="#8ABE37" stroke="white"/>
<circle class="circle" cx="100" cy="357" r="24.5" fill="#0077D1" stroke="white"/>
<circle class="circle" cx="164" cy="105" r="24.5" fill="#8ABE37" stroke="white"/>
<circle class="circle" cx="133" cy="52" r="24.5" fill="#FA9D11" stroke="white"/>
<path class="square" d="M77.5 441.5V490.5H28.5V441.5H77.5Z" fill="#0077D1" stroke="white"/>
<path class="square" d="M241.5 17.5V66.5H192.5V17.5H241.5Z" fill="#EE4231" stroke="white"/>
<path class="square" d="M301.5 47.5V96.5H252.5V47.5H301.5Z" fill="#8ABE37" stroke="white"/>
<path class="square" d="M233.5 278.5V327.5H184.5V278.5H233.5Z" fill="#FA9D11" stroke="white"/>
<rect class="rectangle" x="84.5" y="225.5" width="44" height="94" fill="#FA9D11" stroke="white"/>
<rect class="rectangle" x="255.5" y="393.5" width="44" height="94" fill="#FA9D11" stroke="white"/>
<rect class="rectangle" x="255.5" y="277.5" width="44" height="94" fill="#8ABE37" stroke="white"/>
<rect class="rectangle" x="119.5" y="446.5" width="94" height="44" fill="#FA9D11" stroke="white"/>
<rect class="rectangle" x="122.5" y="383.5" width="94" height="44" fill="#8ABE37" stroke="white"/>
<rect class="rectangle" x="205.5" y="221.5" width="94" height="44" fill="#FA9D11" stroke="white"/>
<rect class="rectangle" x="136.5" y="162.5" width="94" height="44" fill="#0077D1" stroke="white"/>
<rect class="rectangle" x="16.5" y="169.5" width="94" height="44" fill="#0077D1" stroke="white"/>
</svg>
