<svg width="3041" height="2003" viewBox="0 0 3041 2003" fill="none" xmlns="http://www.w3.org/2000/svg">
<path d="M765.999 1626.94L793.499 1642.82V1611.06L765.999 1626.94ZM2066.01 1626.94L2038.51 1611.06V1642.82L2066.01 1626.94ZM790.749 1626.94V1629.69H2041.26V1626.94V1624.19H790.749V1626.94Z" fill="white"/>
<path opacity="0.9" d="M778 1081L805.5 1096.88V1065.12L778 1081ZM1168 1081L1140.5 1065.12V1096.88L1168 1081ZM802.75 1081V1083.75H1143.25V1081V1078.25H802.75V1081Z" fill="white"/>
<path opacity="0.9" d="M1671 355L1698.5 370.877V339.123L1671 355ZM2061 355L2033.5 339.123V370.877L2061 355ZM1695.75 355V357.75H2036.25V355V352.25H1695.75V355Z" fill="white"/>
<path d="M2105 1591L2120.88 1563.5H2089.12L2105 1591ZM2105 391L2089.12 418.5H2120.88L2105 391ZM2105 1566.25H2107.75V415.75H2105H2102.25V1566.25H2105Z" fill="white"/>
<path d="M1634 1081L1649.88 1053.5H1618.12L1634 1081ZM1634 391L1618.12 418.5H1649.88L1634 391ZM1634 1056.25H1636.75V415.75H1634H1631.25V1056.25H1634Z" fill="white"/>
<path d="M837.989 1016.1V1007.41L876.341 946.727H882.648V960.193H878.386L849.409 1006.05V1006.73H901.057V1016.1H837.989ZM879.068 1034V1013.46V1009.41V946.727H889.125V1034H879.068ZM977.538 1035.36C971.401 1035.36 966.117 1033.91 961.685 1031.02C957.254 1028.12 953.844 1024.13 951.458 1019.04C949.072 1013.96 947.879 1008.15 947.879 1001.61C947.879 994.966 949.1 989.099 951.543 984.014C954.015 978.901 957.452 974.909 961.856 972.04C966.288 969.142 971.458 967.693 977.367 967.693C981.969 967.693 986.117 968.545 989.81 970.25C993.504 971.955 996.529 974.341 998.887 977.409C1001.25 980.477 1002.71 984.057 1003.28 988.148H993.219C992.452 985.165 990.748 982.523 988.106 980.222C985.492 977.892 981.969 976.727 977.538 976.727C973.617 976.727 970.18 977.75 967.225 979.795C964.299 981.812 962.012 984.668 960.364 988.361C958.745 992.026 957.935 996.33 957.935 1001.27C957.935 1006.33 958.731 1010.73 960.322 1014.48C961.941 1018.23 964.214 1021.14 967.14 1023.22C970.094 1025.29 973.56 1026.33 977.538 1026.33C980.151 1026.33 982.523 1025.88 984.654 1024.97C986.785 1024.06 988.589 1022.75 990.066 1021.05C991.543 1019.34 992.594 1017.3 993.219 1014.91H1003.28C1002.71 1018.77 1001.3 1022.25 999.058 1025.35C996.842 1028.42 993.901 1030.86 990.237 1032.68C986.6 1034.47 982.367 1035.36 977.538 1035.36ZM1017.98 1034V968.545H1027.69V978.773H1028.55C1029.91 975.278 1032.11 972.565 1035.15 970.634C1038.19 968.673 1041.84 967.693 1046.1 967.693C1050.42 967.693 1054.01 968.673 1056.88 970.634C1059.78 972.565 1062.04 975.278 1063.66 978.773H1064.34C1066.02 975.392 1068.53 972.707 1071.88 970.719C1075.24 968.702 1079.26 967.693 1083.94 967.693C1089.8 967.693 1094.58 969.526 1098.3 973.19C1102.03 976.827 1103.89 982.494 1103.89 990.193V1034H1093.83V990.193C1093.83 985.364 1092.51 981.912 1089.87 979.838C1087.23 977.764 1084.11 976.727 1080.53 976.727C1075.93 976.727 1072.37 978.119 1069.84 980.903C1067.31 983.659 1066.05 987.153 1066.05 991.386V1034H1055.82V989.17C1055.82 985.449 1054.61 982.452 1052.2 980.179C1049.78 977.878 1046.67 976.727 1042.86 976.727C1040.25 976.727 1037.81 977.423 1035.53 978.815C1033.29 980.207 1031.47 982.139 1030.08 984.611C1028.72 987.054 1028.03 989.881 1028.03 993.091V1034H1017.98Z" fill="white"/>
<path d="M1730.99 294.102V285.409L1769.34 224.727H1775.65V238.193H1771.39L1742.41 284.045V284.727H1794.06V294.102H1730.99ZM1772.07 312V291.46V287.412V224.727H1782.12V312H1772.07ZM1870.54 313.364C1864.4 313.364 1859.12 311.915 1854.69 309.017C1850.25 306.119 1846.84 302.128 1844.46 297.043C1842.07 291.957 1840.88 286.148 1840.88 279.614C1840.88 272.966 1842.1 267.099 1844.54 262.014C1847.01 256.901 1850.45 252.909 1854.86 250.04C1859.29 247.142 1864.46 245.693 1870.37 245.693C1874.97 245.693 1879.12 246.545 1882.81 248.25C1886.5 249.955 1889.53 252.341 1891.89 255.409C1894.25 258.477 1895.71 262.057 1896.28 266.148H1886.22C1885.45 263.165 1883.75 260.523 1881.11 258.222C1878.49 255.892 1874.97 254.727 1870.54 254.727C1866.62 254.727 1863.18 255.75 1860.23 257.795C1857.3 259.812 1855.01 262.668 1853.36 266.361C1851.75 270.026 1850.94 274.33 1850.94 279.273C1850.94 284.33 1851.73 288.733 1853.32 292.483C1854.94 296.233 1857.21 299.145 1860.14 301.219C1863.09 303.293 1866.56 304.33 1870.54 304.33C1873.15 304.33 1875.52 303.875 1877.65 302.966C1879.78 302.057 1881.59 300.75 1883.07 299.045C1884.54 297.341 1885.59 295.295 1886.22 292.909H1896.28C1895.71 296.773 1894.3 300.253 1892.06 303.349C1889.84 306.418 1886.9 308.861 1883.24 310.679C1879.6 312.469 1875.37 313.364 1870.54 313.364ZM1910.98 312V246.545H1920.69V256.773H1921.55C1922.91 253.278 1925.11 250.565 1928.15 248.634C1931.19 246.673 1934.84 245.693 1939.1 245.693C1943.42 245.693 1947.01 246.673 1949.88 248.634C1952.78 250.565 1955.04 253.278 1956.66 256.773H1957.34C1959.02 253.392 1961.53 250.707 1964.88 248.719C1968.24 246.702 1972.26 245.693 1976.94 245.693C1982.8 245.693 1987.58 247.526 1991.3 251.19C1995.03 254.827 1996.89 260.494 1996.89 268.193V312H1986.83V268.193C1986.83 263.364 1985.51 259.912 1982.87 257.838C1980.23 255.764 1977.11 254.727 1973.53 254.727C1968.93 254.727 1965.37 256.119 1962.84 258.903C1960.31 261.659 1959.05 265.153 1959.05 269.386V312H1948.82V267.17C1948.82 263.449 1947.61 260.452 1945.2 258.179C1942.78 255.878 1939.67 254.727 1935.86 254.727C1933.25 254.727 1930.81 255.423 1928.53 256.815C1926.29 258.207 1924.47 260.139 1923.08 262.611C1921.72 265.054 1921.03 267.881 1921.03 271.091V312H1910.98Z" fill="white"/>
<path d="M1582 865.239L1504.78 826.205H1504.1V871.205H1494.73V815.295H1504.61L1582 854.159V865.239ZM1583.36 738.9C1583.36 745.036 1581.91 750.32 1579.02 754.752C1576.12 759.184 1572.13 762.593 1567.04 764.979C1561.96 767.366 1556.15 768.559 1549.61 768.559C1542.97 768.559 1537.1 767.337 1532.01 764.894C1526.9 762.423 1522.91 758.985 1520.04 754.582C1517.14 750.15 1515.69 744.979 1515.69 739.07C1515.69 734.468 1516.55 730.32 1518.25 726.627C1519.95 722.934 1522.34 719.908 1525.41 717.55C1528.48 715.192 1532.06 713.729 1536.15 713.161V723.218C1533.16 723.985 1530.52 725.69 1528.22 728.332C1525.89 730.945 1524.73 734.468 1524.73 738.9C1524.73 742.82 1525.75 746.258 1527.8 749.212C1529.81 752.138 1532.67 754.425 1536.36 756.073C1540.03 757.692 1544.33 758.502 1549.27 758.502C1554.33 758.502 1558.73 757.707 1562.48 756.116C1566.23 754.496 1569.14 752.224 1571.22 749.298C1573.29 746.343 1574.33 742.877 1574.33 738.9C1574.33 736.286 1573.88 733.914 1572.97 731.783C1572.06 729.653 1570.75 727.849 1569.05 726.371C1567.34 724.894 1565.3 723.843 1562.91 723.218V713.161C1566.77 713.729 1570.25 715.136 1573.35 717.38C1576.42 719.596 1578.86 722.536 1580.68 726.201C1582.47 729.837 1583.36 734.07 1583.36 738.9ZM1582 698.46H1516.55V688.744H1526.77V687.891C1523.28 686.528 1520.57 684.326 1518.63 681.286C1516.67 678.246 1515.69 674.596 1515.69 670.335C1515.69 666.016 1516.67 662.423 1518.63 659.553C1520.57 656.656 1523.28 654.397 1526.77 652.778V652.096C1523.39 650.42 1520.71 647.906 1518.72 644.553C1516.7 641.201 1515.69 637.181 1515.69 632.494C1515.69 626.641 1517.53 621.854 1521.19 618.133C1524.83 614.411 1530.49 612.55 1538.19 612.55H1582V622.607H1538.19C1533.36 622.607 1529.91 623.928 1527.84 626.57C1525.76 629.212 1524.73 632.323 1524.73 635.903C1524.73 640.505 1526.12 644.07 1528.9 646.599C1531.66 649.127 1535.15 650.391 1539.39 650.391H1582V660.619H1537.17C1533.45 660.619 1530.45 661.826 1528.18 664.241C1525.88 666.656 1524.73 669.766 1524.73 673.573C1524.73 676.187 1525.42 678.63 1526.82 680.903C1528.21 683.147 1530.14 684.965 1532.61 686.357C1535.05 687.721 1537.88 688.403 1541.09 688.403H1582V698.46Z" fill="#00FF55"/>
<path d="M2260.27 888.716H2173V878.148H2249.19V877.636L2235.05 856.33H2245.78L2260.27 878.148V888.716ZM2173 913.815H2180.67L2212.2 942.622C2215.9 946.003 2219.11 948.787 2221.84 950.974C2224.59 953.162 2227.18 954.781 2229.59 955.832C2232.03 956.912 2234.59 957.452 2237.26 957.452C2240.33 957.452 2242.99 956.713 2245.23 955.236C2247.47 953.787 2249.21 951.798 2250.43 949.27C2251.65 946.741 2252.26 943.901 2252.26 940.747C2252.26 937.395 2251.57 934.469 2250.17 931.969C2248.81 929.497 2246.89 927.58 2244.42 926.216C2241.95 924.881 2239.05 924.213 2235.73 924.213V914.156C2240.84 914.156 2245.33 915.335 2249.19 917.693C2253.06 920.051 2256.07 923.261 2258.23 927.324C2260.39 931.415 2261.47 936.003 2261.47 941.088C2261.47 946.202 2260.39 950.733 2258.23 954.682C2256.07 958.631 2253.16 961.727 2249.49 963.972C2245.83 966.216 2241.75 967.338 2237.26 967.338C2234.05 967.338 2230.91 966.756 2227.84 965.591C2224.8 964.455 2221.41 962.466 2217.66 959.625C2213.94 956.812 2209.39 952.906 2204.02 947.906L2183.06 928.304H2182.38V968.872H2173V913.815ZM2171.64 1046.98C2171.64 1040.85 2173.09 1035.56 2175.98 1031.13C2178.88 1026.7 2182.87 1023.29 2187.96 1020.9C2193.04 1018.52 2198.85 1017.32 2205.39 1017.32C2212.03 1017.32 2217.9 1018.55 2222.99 1020.99C2228.1 1023.46 2232.09 1026.9 2234.96 1031.3C2237.86 1035.73 2239.31 1040.9 2239.31 1046.81C2239.31 1051.41 2238.45 1055.56 2236.75 1059.26C2235.05 1062.95 2232.66 1065.97 2229.59 1068.33C2226.52 1070.69 2222.94 1072.15 2218.85 1072.72V1062.66C2221.84 1061.9 2224.48 1060.19 2226.78 1057.55C2229.11 1054.94 2230.27 1051.41 2230.27 1046.98C2230.27 1043.06 2229.25 1039.63 2227.2 1036.67C2225.19 1033.74 2222.33 1031.46 2218.64 1029.81C2214.97 1028.19 2210.67 1027.38 2205.73 1027.38C2200.67 1027.38 2196.27 1028.18 2192.52 1029.77C2188.77 1031.39 2185.86 1033.66 2183.78 1036.59C2181.71 1039.54 2180.67 1043.01 2180.67 1046.98C2180.67 1049.6 2181.12 1051.97 2182.03 1054.1C2182.94 1056.23 2184.25 1058.03 2185.95 1059.51C2187.66 1060.99 2189.7 1062.04 2192.09 1062.66V1072.72C2188.23 1072.15 2184.75 1070.75 2181.65 1068.5C2178.58 1066.29 2176.14 1063.35 2174.32 1059.68C2172.53 1056.05 2171.64 1051.81 2171.64 1046.98ZM2173 1087.42H2238.45V1097.14H2228.23V1097.99C2231.72 1099.36 2234.43 1101.56 2236.37 1104.6C2238.33 1107.64 2239.31 1111.29 2239.31 1115.55C2239.31 1119.87 2238.33 1123.46 2236.37 1126.33C2234.43 1129.23 2231.72 1131.49 2228.23 1133.11V1133.79C2231.61 1135.46 2234.29 1137.98 2236.28 1141.33C2238.3 1144.68 2239.31 1148.7 2239.31 1153.39C2239.31 1159.24 2237.47 1164.03 2233.81 1167.75C2230.17 1171.47 2224.51 1173.33 2216.81 1173.33H2173V1163.28H2216.81C2221.64 1163.28 2225.09 1161.95 2227.16 1159.31C2229.24 1156.67 2230.27 1153.56 2230.27 1149.98C2230.27 1145.38 2228.88 1141.81 2226.1 1139.28C2223.34 1136.76 2219.85 1135.49 2215.61 1135.49H2173V1125.26H2217.83C2221.55 1125.26 2224.55 1124.06 2226.82 1121.64C2229.12 1119.23 2230.27 1116.12 2230.27 1112.31C2230.27 1109.7 2229.58 1107.25 2228.18 1104.98C2226.79 1102.74 2224.86 1100.92 2222.39 1099.53C2219.95 1098.16 2217.12 1097.48 2213.91 1097.48H2173V1087.42Z" fill="#FF7700"/>
<path d="M1338.72 1691.73V1779H1328.15V1702.81H1327.64L1306.33 1716.95V1706.22L1328.15 1691.73H1338.72ZM1393.3 1780.19C1387.68 1780.19 1382.66 1779.23 1378.26 1777.3C1373.89 1775.36 1370.41 1772.68 1367.82 1769.24C1365.26 1765.78 1363.87 1761.76 1363.64 1757.18H1374.38C1374.61 1759.99 1375.58 1762.42 1377.28 1764.47C1378.99 1766.49 1381.22 1768.05 1383.97 1769.16C1386.73 1770.26 1389.78 1770.82 1393.13 1770.82C1396.88 1770.82 1400.21 1770.16 1403.11 1768.86C1406 1767.55 1408.28 1765.73 1409.92 1763.4C1411.57 1761.07 1412.39 1758.38 1412.39 1755.31C1412.39 1752.1 1411.6 1749.27 1410.01 1746.83C1408.42 1744.36 1406.09 1742.42 1403.02 1741.03C1399.95 1739.64 1396.2 1738.94 1391.77 1738.94H1384.78V1729.57H1391.77C1395.24 1729.57 1398.28 1728.94 1400.89 1727.69C1403.53 1726.44 1405.59 1724.68 1407.07 1722.41C1408.57 1720.14 1409.33 1717.47 1409.33 1714.4C1409.33 1711.44 1408.67 1708.87 1407.37 1706.68C1406.06 1704.5 1404.21 1702.79 1401.83 1701.57C1399.47 1700.35 1396.68 1699.74 1393.47 1699.74C1390.46 1699.74 1387.62 1700.29 1384.95 1701.4C1382.31 1702.48 1380.15 1704.06 1378.47 1706.13C1376.8 1708.18 1375.89 1710.65 1375.75 1713.55H1365.52C1365.69 1708.97 1367.07 1704.97 1369.65 1701.53C1372.24 1698.06 1375.62 1695.36 1379.8 1693.43C1384 1691.5 1388.62 1690.53 1393.64 1690.53C1399.04 1690.53 1403.67 1691.63 1407.54 1693.82C1411.4 1695.97 1414.37 1698.83 1416.44 1702.38C1418.52 1705.93 1419.55 1709.77 1419.55 1713.89C1419.55 1718.8 1418.26 1722.99 1415.68 1726.46C1413.12 1729.92 1409.64 1732.32 1405.24 1733.66V1734.34C1410.75 1735.25 1415.05 1737.59 1418.15 1741.37C1421.24 1745.12 1422.79 1749.77 1422.79 1755.31C1422.79 1760.05 1421.5 1764.31 1418.91 1768.09C1416.36 1771.84 1412.86 1774.8 1408.43 1776.95C1404 1779.11 1398.96 1780.19 1393.3 1780.19ZM1500.73 1780.36C1494.6 1780.36 1489.31 1778.91 1484.88 1776.02C1480.45 1773.12 1477.04 1769.13 1474.65 1764.04C1472.27 1758.96 1471.07 1753.15 1471.07 1746.61C1471.07 1739.97 1472.3 1734.1 1474.74 1729.01C1477.21 1723.9 1480.65 1719.91 1485.05 1717.04C1489.48 1714.14 1494.65 1712.69 1500.56 1712.69C1505.16 1712.69 1509.31 1713.55 1513.01 1715.25C1516.7 1716.95 1519.72 1719.34 1522.08 1722.41C1524.44 1725.48 1525.9 1729.06 1526.47 1733.15H1516.41C1515.65 1730.16 1513.94 1727.52 1511.3 1725.22C1508.69 1722.89 1505.16 1721.73 1500.73 1721.73C1496.81 1721.73 1493.38 1722.75 1490.42 1724.8C1487.49 1726.81 1485.21 1729.67 1483.56 1733.36C1481.94 1737.03 1481.13 1741.33 1481.13 1746.27C1481.13 1751.33 1481.93 1755.73 1483.52 1759.48C1485.14 1763.23 1487.41 1766.14 1490.34 1768.22C1493.29 1770.29 1496.76 1771.33 1500.73 1771.33C1503.35 1771.33 1505.72 1770.88 1507.85 1769.97C1509.98 1769.06 1511.78 1767.75 1513.26 1766.05C1514.74 1764.34 1515.79 1762.3 1516.41 1759.91H1526.47C1525.9 1763.77 1524.5 1767.25 1522.25 1770.35C1520.04 1773.42 1517.1 1775.86 1513.43 1777.68C1509.8 1779.47 1505.56 1780.36 1500.73 1780.36ZM1541.17 1779V1713.55H1550.89V1723.77H1551.74C1553.11 1720.28 1555.31 1717.57 1558.35 1715.63C1561.39 1713.67 1565.04 1712.69 1569.3 1712.69C1573.62 1712.69 1577.21 1713.67 1580.08 1715.63C1582.98 1717.57 1585.24 1720.28 1586.86 1723.77H1587.54C1589.21 1720.39 1591.73 1717.71 1595.08 1715.72C1598.43 1713.7 1602.45 1712.69 1607.14 1712.69C1612.99 1712.69 1617.78 1714.53 1621.5 1718.19C1625.22 1721.83 1627.08 1727.49 1627.08 1735.19V1779H1617.03V1735.19C1617.03 1730.36 1615.7 1726.91 1613.06 1724.84C1610.42 1722.76 1607.31 1721.73 1603.73 1721.73C1599.13 1721.73 1595.56 1723.12 1593.03 1725.9C1590.51 1728.66 1589.24 1732.15 1589.24 1736.39V1779H1579.01V1734.17C1579.01 1730.45 1577.81 1727.45 1575.39 1725.18C1572.98 1722.88 1569.87 1721.73 1566.06 1721.73C1563.45 1721.73 1561 1722.42 1558.73 1723.82C1556.49 1725.21 1554.67 1727.14 1553.28 1729.61C1551.91 1732.05 1551.23 1734.88 1551.23 1738.09V1779H1541.17Z" fill="white"/>
<path d="M1663.84 1095.5L2056.64 1586.5H775.363L1168.16 1095.5H1663.84Z" fill="#D2A6D9" stroke="#DC00FF" stroke-width="9"/>
<path d="M2061.5 395.5V1578.17L1670.5 1089.42V395.5H2061.5Z" fill="#D2A6D9" stroke="#DC00FF" stroke-width="9"/>
<path d="M1182.15 1034H1171.07L1203.11 946.727H1214.02L1246.07 1034H1234.99L1208.91 960.534H1208.23L1182.15 1034ZM1186.24 999.909H1230.9V1009.28H1186.24V999.909Z" fill="white"/>
<path d="M1582.5 1197H1555.57V1109.73H1583.69C1592.16 1109.73 1599.4 1111.47 1605.43 1114.97C1611.45 1118.43 1616.07 1123.42 1619.28 1129.93C1622.49 1136.4 1624.09 1144.16 1624.09 1153.19C1624.09 1162.28 1622.47 1170.11 1619.23 1176.67C1615.99 1183.21 1611.28 1188.24 1605.09 1191.76C1598.89 1195.25 1591.36 1197 1582.5 1197ZM1566.14 1187.62H1581.82C1589.03 1187.62 1595.01 1186.23 1599.76 1183.45C1604.5 1180.66 1608.04 1176.7 1610.37 1171.56C1612.7 1166.42 1613.86 1160.3 1613.86 1153.19C1613.86 1146.15 1612.71 1140.08 1610.41 1135C1608.11 1129.88 1604.67 1125.96 1600.1 1123.24C1595.53 1120.48 1589.83 1119.1 1583.01 1119.1H1566.14V1187.62Z" fill="#0D0A0E"/>
<path d="M1552.67 1555V1547.33L1599.72 1477.1H1552.16V1467.73H1612.33V1475.4L1565.28 1545.62H1612.84V1555H1552.67Z" fill="black"/>
<path d="M655.568 1670V1582.73H686.08C692.159 1582.73 697.173 1583.78 701.122 1585.88C705.071 1587.95 708.011 1590.75 709.943 1594.28C711.875 1597.77 712.841 1601.65 712.841 1605.91C712.841 1609.66 712.173 1612.76 710.838 1615.2C709.531 1617.64 707.798 1619.57 705.639 1620.99C703.509 1622.41 701.193 1623.47 698.693 1624.15V1625C701.364 1625.17 704.048 1626.11 706.747 1627.81C709.446 1629.52 711.705 1631.96 713.523 1635.14C715.341 1638.32 716.25 1642.22 716.25 1646.82C716.25 1651.19 715.256 1655.13 713.267 1658.62C711.278 1662.12 708.139 1664.89 703.849 1666.93C699.56 1668.98 693.977 1670 687.102 1670H655.568ZM666.136 1660.62H687.102C694.006 1660.62 698.906 1659.29 701.804 1656.62C704.73 1653.92 706.193 1650.65 706.193 1646.82C706.193 1643.86 705.44 1641.14 703.935 1638.64C702.429 1636.11 700.284 1634.09 697.5 1632.59C694.716 1631.05 691.42 1630.28 687.614 1630.28H666.136V1660.62ZM666.136 1621.08H685.739C688.92 1621.08 691.79 1620.45 694.347 1619.2C696.932 1617.95 698.977 1616.19 700.483 1613.92C702.017 1611.65 702.784 1608.98 702.784 1605.91C702.784 1602.07 701.449 1598.82 698.778 1596.15C696.108 1593.45 691.875 1592.1 686.08 1592.1H666.136V1621.08Z" fill="white"/>
<path d="M2047.8 1690H2037.23C2036.6 1686.96 2035.51 1684.29 2033.95 1681.99C2032.41 1679.69 2030.54 1677.76 2028.32 1676.19C2026.13 1674.6 2023.7 1673.41 2021.03 1672.61C2018.36 1671.82 2015.58 1671.42 2012.68 1671.42C2007.4 1671.42 2002.61 1672.76 1998.32 1675.43C1994.06 1678.1 1990.66 1682.03 1988.14 1687.23C1985.64 1692.43 1984.39 1698.81 1984.39 1706.36C1984.39 1713.92 1985.64 1720.3 1988.14 1725.5C1990.66 1730.7 1994.06 1734.63 1998.32 1737.3C2002.61 1739.97 2007.4 1741.31 2012.68 1741.31C2015.58 1741.31 2018.36 1740.91 2021.03 1740.11C2023.7 1739.32 2026.13 1738.14 2028.32 1736.58C2030.54 1734.99 2032.41 1733.04 2033.95 1730.74C2035.51 1728.41 2036.6 1725.74 2037.23 1722.73H2047.8C2047 1727.19 2045.55 1731.18 2043.45 1734.7C2041.35 1738.22 2038.73 1741.22 2035.61 1743.69C2032.48 1746.14 2028.97 1748 2025.08 1749.28C2021.22 1750.55 2017.09 1751.19 2012.68 1751.19C2005.24 1751.19 1998.62 1749.38 1992.82 1745.74C1987.03 1742.1 1982.47 1736.93 1979.14 1730.23C1975.82 1723.52 1974.16 1715.57 1974.16 1706.36C1974.16 1697.16 1975.82 1689.2 1979.14 1682.5C1982.47 1675.8 1987.03 1670.62 1992.82 1666.99C1998.62 1663.35 2005.24 1661.53 2012.68 1661.53C2017.09 1661.53 2021.22 1662.17 2025.08 1663.45C2028.97 1664.73 2032.48 1666.61 2035.61 1669.08C2038.73 1671.52 2041.35 1674.5 2043.45 1678.03C2045.55 1681.52 2047 1685.51 2047.8 1690Z" fill="white"/>
<path d="M2165.57 1627V1539.73H2218.24V1549.1H2176.14V1578.59H2215.51V1587.97H2176.14V1617.62H2218.92V1627H2165.57Z" fill="white"/>
<path d="M2154.57 362V274.727H2206.9V284.102H2165.14V313.591H2202.98V322.966H2165.14V362H2154.57Z" fill="white"/>
<path d="M1645.23 273C1644.29 270.131 1643.05 267.56 1641.52 265.287C1640.01 262.986 1638.21 261.026 1636.11 259.406C1634.03 257.787 1631.68 256.551 1629.03 255.699C1626.39 254.847 1623.49 254.42 1620.34 254.42C1615.17 254.42 1610.47 255.756 1606.24 258.426C1602 261.097 1598.64 265.031 1596.14 270.23C1593.64 275.429 1592.39 281.807 1592.39 289.364C1592.39 296.92 1593.65 303.298 1596.18 308.497C1598.71 313.696 1602.13 317.631 1606.45 320.301C1610.77 322.972 1615.63 324.307 1621.02 324.307C1626.02 324.307 1630.43 323.241 1634.23 321.111C1638.07 318.952 1641.05 315.912 1643.18 311.991C1645.34 308.043 1646.42 303.398 1646.42 298.057L1649.66 298.739H1623.41V289.364H1656.65V298.739C1656.65 305.926 1655.11 312.176 1652.05 317.489C1649.01 322.801 1644.8 326.92 1639.43 329.847C1634.09 332.744 1627.95 334.193 1621.02 334.193C1613.3 334.193 1606.51 332.375 1600.65 328.739C1594.83 325.102 1590.28 319.932 1587.02 313.227C1583.78 306.523 1582.16 298.568 1582.16 289.364C1582.16 282.46 1583.08 276.253 1584.93 270.741C1586.8 265.202 1589.45 260.486 1592.86 256.594C1596.26 252.702 1600.3 249.719 1604.96 247.645C1609.62 245.571 1614.74 244.534 1620.34 244.534C1624.94 244.534 1629.23 245.23 1633.21 246.622C1637.22 247.986 1640.78 249.932 1643.91 252.46C1647.06 254.96 1649.69 257.957 1651.79 261.452C1653.89 264.918 1655.34 268.767 1656.14 273H1645.23Z" fill="white"/>
<path d="M1734.57 1077V989.727H1745.14V1028.59H1791.67V989.727H1802.24V1077H1791.67V1037.97H1745.14V1077H1734.57Z" fill="black"/>
<line x1="1660" y1="1591.12" x2="1660" y2="1095" stroke="#D83EF1" stroke-width="12" stroke-dasharray="26 26"/>
<path d="M1362.31 1387.19C1357.31 1387.19 1352.8 1386.2 1348.8 1384.21C1344.79 1382.22 1341.58 1379.49 1339.17 1376.03C1336.75 1372.56 1335.43 1368.61 1335.2 1364.18H1345.43C1345.83 1368.13 1347.62 1371.4 1350.8 1373.98C1354.01 1376.54 1357.85 1377.82 1362.31 1377.82C1365.89 1377.82 1369.07 1376.98 1371.85 1375.3C1374.66 1373.63 1376.87 1371.33 1378.46 1368.4C1380.08 1365.45 1380.89 1362.11 1380.89 1358.39C1380.89 1354.58 1380.05 1351.18 1378.37 1348.2C1376.72 1345.19 1374.45 1342.82 1371.55 1341.09C1368.66 1339.35 1365.35 1338.47 1361.62 1338.44C1358.95 1338.41 1356.21 1338.83 1353.4 1339.68C1350.59 1340.5 1348.27 1341.57 1346.45 1342.88L1336.57 1341.68L1341.85 1298.73H1387.19V1308.1H1350.72L1347.65 1333.84H1348.16C1349.95 1332.42 1352.19 1331.24 1354.89 1330.3C1357.59 1329.37 1360.4 1328.9 1363.33 1328.9C1368.67 1328.9 1373.43 1330.18 1377.61 1332.73C1381.81 1335.26 1385.11 1338.73 1387.49 1343.13C1389.91 1347.53 1391.11 1352.56 1391.11 1358.22C1391.11 1363.78 1389.86 1368.76 1387.36 1373.13C1384.89 1377.48 1381.48 1380.91 1377.14 1383.44C1372.79 1385.94 1367.85 1387.19 1362.31 1387.19ZM1468.55 1387.36C1462.42 1387.36 1457.13 1385.91 1452.7 1383.02C1448.27 1380.12 1444.86 1376.13 1442.47 1371.04C1440.09 1365.96 1438.89 1360.15 1438.89 1353.61C1438.89 1346.97 1440.12 1341.1 1442.56 1336.01C1445.03 1330.9 1448.47 1326.91 1452.87 1324.04C1457.3 1321.14 1462.47 1319.69 1468.38 1319.69C1472.99 1319.69 1477.13 1320.55 1480.83 1322.25C1484.52 1323.95 1487.54 1326.34 1489.9 1329.41C1492.26 1332.48 1493.72 1336.06 1494.29 1340.15H1484.24C1483.47 1337.16 1481.76 1334.52 1479.12 1332.22C1476.51 1329.89 1472.99 1328.73 1468.55 1328.73C1464.63 1328.73 1461.2 1329.75 1458.24 1331.8C1455.31 1333.81 1453.03 1336.67 1451.38 1340.36C1449.76 1344.03 1448.95 1348.33 1448.95 1353.27C1448.95 1358.33 1449.75 1362.73 1451.34 1366.48C1452.96 1370.23 1455.23 1373.14 1458.16 1375.22C1461.11 1377.29 1464.58 1378.33 1468.55 1378.33C1471.17 1378.33 1473.54 1377.88 1475.67 1376.97C1477.8 1376.06 1479.6 1374.75 1481.08 1373.05C1482.56 1371.34 1483.61 1369.3 1484.24 1366.91H1494.29C1493.72 1370.77 1492.32 1374.25 1490.07 1377.35C1487.86 1380.42 1484.92 1382.86 1481.25 1384.68C1477.62 1386.47 1473.38 1387.36 1468.55 1387.36ZM1508.99 1386V1320.55H1518.71V1330.77H1519.56C1520.93 1327.28 1523.13 1324.57 1526.17 1322.63C1529.21 1320.67 1532.86 1319.69 1537.12 1319.69C1541.44 1319.69 1545.03 1320.67 1547.9 1322.63C1550.8 1324.57 1553.06 1327.28 1554.68 1330.77H1555.36C1557.03 1327.39 1559.55 1324.71 1562.9 1322.72C1566.25 1320.7 1570.27 1319.69 1574.96 1319.69C1580.81 1319.69 1585.6 1321.53 1589.32 1325.19C1593.04 1328.83 1594.9 1334.49 1594.9 1342.19V1386H1584.85V1342.19C1584.85 1337.36 1583.52 1333.91 1580.88 1331.84C1578.24 1329.76 1575.13 1328.73 1571.55 1328.73C1566.95 1328.73 1563.38 1330.12 1560.85 1332.9C1558.33 1335.66 1557.06 1339.15 1557.06 1343.39V1386H1546.83V1341.17C1546.83 1337.45 1545.63 1334.45 1543.21 1332.18C1540.8 1329.88 1537.69 1328.73 1533.88 1328.73C1531.27 1328.73 1528.82 1329.42 1526.55 1330.82C1524.31 1332.21 1522.49 1334.14 1521.1 1336.61C1519.73 1339.05 1519.05 1341.88 1519.05 1345.09V1386H1508.99Z" fill="black"/>
</svg>
