<svg width="3041" height="2003" viewBox="0 0 3041 2003" fill="none" xmlns="http://www.w3.org/2000/svg">
<path d="M393.999 1626.94L421.499 1642.82V1611.07L393.999 1626.94ZM1694.01 1626.94L1666.51 1611.07V1642.82L1694.01 1626.94ZM418.749 1626.94V1629.69H1669.26V1626.94V1624.19H418.749V1626.94Z" fill="white"/>
<path opacity="0.9" d="M409 1081L436.5 1096.88V1065.12L409 1081ZM799 1081L771.5 1065.12V1096.88L799 1081ZM433.75 1081V1083.75H774.25V1081V1078.25H433.75V1081Z" fill="white"/>
<path opacity="0.9" d="M1302 1091L1329.5 1106.88V1075.12L1302 1091ZM1692 1091L1664.5 1075.12V1106.88L1692 1091ZM1326.75 1091V1093.75H1667.25V1091V1088.25H1326.75V1091Z" fill="white"/>
<path d="M2183 355L2210.5 370.877V339.123L2183 355ZM2573 355L2545.5 339.123V370.877L2573 355ZM2207.75 355V357.75H2548.25V355V352.25H2207.75V355Z" fill="white"/>
<path d="M2617 1591L2632.88 1563.5H2601.12L2617 1591ZM2617 391L2601.12 418.5H2632.88L2617 391ZM2617 1566.25H2619.75V415.75H2617H2614.25V1566.25H2617Z" fill="white"/>
<path d="M2146 1081L2161.88 1053.5H2130.12L2146 1081ZM2146 391L2130.12 418.5H2161.88L2146 391ZM2146 1056.25H2148.75V415.75H2146H2143.25V1056.25H2146Z" fill="white"/>
<path d="M468.989 1016.1V1007.41L507.341 946.727H513.648V960.193H509.386L480.409 1006.05V1006.73H532.057V1016.1H468.989ZM510.068 1034V1013.46V1009.41V946.727H520.125V1034H510.068ZM608.538 1035.36C602.401 1035.36 597.117 1033.91 592.685 1031.02C588.254 1028.12 584.844 1024.13 582.458 1019.04C580.072 1013.96 578.879 1008.15 578.879 1001.61C578.879 994.966 580.1 989.099 582.543 984.014C585.015 978.901 588.452 974.909 592.856 972.04C597.288 969.142 602.458 967.693 608.367 967.693C612.969 967.693 617.117 968.545 620.81 970.25C624.504 971.955 627.529 974.341 629.887 977.409C632.245 980.477 633.708 984.057 634.276 988.148H624.219C623.452 985.165 621.748 982.523 619.106 980.222C616.492 977.892 612.969 976.727 608.538 976.727C604.617 976.727 601.18 977.75 598.225 979.795C595.299 981.812 593.012 984.668 591.364 988.361C589.745 992.026 588.935 996.33 588.935 1001.27C588.935 1006.33 589.731 1010.73 591.322 1014.48C592.941 1018.23 595.214 1021.14 598.14 1023.22C601.094 1025.29 604.56 1026.33 608.538 1026.33C611.151 1026.33 613.523 1025.88 615.654 1024.97C617.785 1024.06 619.589 1022.75 621.066 1021.05C622.543 1019.34 623.594 1017.3 624.219 1014.91H634.276C633.708 1018.77 632.302 1022.25 630.058 1025.35C627.842 1028.42 624.901 1030.86 621.237 1032.68C617.6 1034.47 613.367 1035.36 608.538 1035.36ZM648.978 1034V968.545H658.694V978.773H659.546C660.91 975.278 663.112 972.565 666.151 970.634C669.191 968.673 672.842 967.693 677.103 967.693C681.421 967.693 685.015 968.673 687.884 970.634C690.782 972.565 693.04 975.278 694.66 978.773H695.342C697.018 975.392 699.532 972.707 702.884 970.719C706.237 968.702 710.256 967.693 714.944 967.693C720.796 967.693 725.583 969.526 729.305 973.19C733.026 976.827 734.887 982.494 734.887 990.193V1034H724.83V990.193C724.83 985.364 723.509 981.912 720.867 979.838C718.225 977.764 715.114 976.727 711.535 976.727C706.933 976.727 703.367 978.119 700.839 980.903C698.31 983.659 697.046 987.153 697.046 991.386V1034H686.819V989.17C686.819 985.449 685.612 982.452 683.197 980.179C680.782 977.878 677.671 976.727 673.864 976.727C671.251 976.727 668.808 977.423 666.535 978.815C664.29 980.207 662.472 982.139 661.08 984.611C659.717 987.054 659.035 989.881 659.035 993.091V1034H648.978Z" fill="white"/>
<path d="M1361.99 1026.1V1017.41L1400.34 956.727H1406.65V970.193H1402.39L1373.41 1016.05V1016.73H1425.06V1026.1H1361.99ZM1403.07 1044V1023.46V1019.41V956.727H1413.12V1044H1403.07ZM1501.54 1045.36C1495.4 1045.36 1490.12 1043.91 1485.69 1041.02C1481.25 1038.12 1477.84 1034.13 1475.46 1029.04C1473.07 1023.96 1471.88 1018.15 1471.88 1011.61C1471.88 1004.97 1473.1 999.099 1475.54 994.014C1478.01 988.901 1481.45 984.909 1485.86 982.04C1490.29 979.142 1495.46 977.693 1501.37 977.693C1505.97 977.693 1510.12 978.545 1513.81 980.25C1517.5 981.955 1520.53 984.341 1522.89 987.409C1525.25 990.477 1526.71 994.057 1527.28 998.148H1517.22C1516.45 995.165 1514.75 992.523 1512.11 990.222C1509.49 987.892 1505.97 986.727 1501.54 986.727C1497.62 986.727 1494.18 987.75 1491.23 989.795C1488.3 991.812 1486.01 994.668 1484.36 998.361C1482.75 1002.03 1481.94 1006.33 1481.94 1011.27C1481.94 1016.33 1482.73 1020.73 1484.32 1024.48C1485.94 1028.23 1488.21 1031.14 1491.14 1033.22C1494.09 1035.29 1497.56 1036.33 1501.54 1036.33C1504.15 1036.33 1506.52 1035.88 1508.65 1034.97C1510.78 1034.06 1512.59 1032.75 1514.07 1031.05C1515.54 1029.34 1516.59 1027.3 1517.22 1024.91H1527.28C1526.71 1028.77 1525.3 1032.25 1523.06 1035.35C1520.84 1038.42 1517.9 1040.86 1514.24 1042.68C1510.6 1044.47 1506.37 1045.36 1501.54 1045.36ZM1541.98 1044V978.545H1551.69V988.773H1552.55C1553.91 985.278 1556.11 982.565 1559.15 980.634C1562.19 978.673 1565.84 977.693 1570.1 977.693C1574.42 977.693 1578.01 978.673 1580.88 980.634C1583.78 982.565 1586.04 985.278 1587.66 988.773H1588.34C1590.02 985.392 1592.53 982.707 1595.88 980.719C1599.24 978.702 1603.26 977.693 1607.94 977.693C1613.8 977.693 1618.58 979.526 1622.3 983.19C1626.03 986.827 1627.89 992.494 1627.89 1000.19V1044H1617.83V1000.19C1617.83 995.364 1616.51 991.912 1613.87 989.838C1611.23 987.764 1608.11 986.727 1604.53 986.727C1599.93 986.727 1596.37 988.119 1593.84 990.903C1591.31 993.659 1590.05 997.153 1590.05 1001.39V1044H1579.82V999.17C1579.82 995.449 1578.61 992.452 1576.2 990.179C1573.78 987.878 1570.67 986.727 1566.86 986.727C1564.25 986.727 1561.81 987.423 1559.53 988.815C1557.29 990.207 1555.47 992.139 1554.08 994.611C1552.72 997.054 1552.03 999.881 1552.03 1003.09V1044H1541.98Z" fill="white"/>
<path d="M2242.99 294.102V285.409L2281.34 224.727H2287.65V238.193H2283.39L2254.41 284.045V284.727H2306.06V294.102H2242.99ZM2284.07 312V291.46V287.412V224.727H2294.12V312H2284.07ZM2382.54 313.364C2376.4 313.364 2371.12 311.915 2366.69 309.017C2362.25 306.119 2358.84 302.128 2356.46 297.043C2354.07 291.957 2352.88 286.148 2352.88 279.614C2352.88 272.966 2354.1 267.099 2356.54 262.014C2359.01 256.901 2362.45 252.909 2366.86 250.04C2371.29 247.142 2376.46 245.693 2382.37 245.693C2386.97 245.693 2391.12 246.545 2394.81 248.25C2398.5 249.955 2401.53 252.341 2403.89 255.409C2406.25 258.477 2407.71 262.057 2408.28 266.148H2398.22C2397.45 263.165 2395.75 260.523 2393.11 258.222C2390.49 255.892 2386.97 254.727 2382.54 254.727C2378.62 254.727 2375.18 255.75 2372.23 257.795C2369.3 259.812 2367.01 262.668 2365.36 266.361C2363.75 270.026 2362.94 274.33 2362.94 279.273C2362.94 284.33 2363.73 288.733 2365.32 292.483C2366.94 296.233 2369.21 299.145 2372.14 301.219C2375.09 303.293 2378.56 304.33 2382.54 304.33C2385.15 304.33 2387.52 303.875 2389.65 302.966C2391.78 302.057 2393.59 300.75 2395.07 299.045C2396.54 297.341 2397.59 295.295 2398.22 292.909H2408.28C2407.71 296.773 2406.3 300.253 2404.06 303.349C2401.84 306.418 2398.9 308.861 2395.24 310.679C2391.6 312.469 2387.37 313.364 2382.54 313.364ZM2422.98 312V246.545H2432.69V256.773H2433.55C2434.91 253.278 2437.11 250.565 2440.15 248.634C2443.19 246.673 2446.84 245.693 2451.1 245.693C2455.42 245.693 2459.01 246.673 2461.88 248.634C2464.78 250.565 2467.04 253.278 2468.66 256.773H2469.34C2471.02 253.392 2473.53 250.707 2476.88 248.719C2480.24 246.702 2484.26 245.693 2488.94 245.693C2494.8 245.693 2499.58 247.526 2503.3 251.19C2507.03 254.827 2508.89 260.494 2508.89 268.193V312H2498.83V268.193C2498.83 263.364 2497.51 259.912 2494.87 257.838C2492.23 255.764 2489.11 254.727 2485.53 254.727C2480.93 254.727 2477.37 256.119 2474.84 258.903C2472.31 261.659 2471.05 265.153 2471.05 269.386V312H2460.82V267.17C2460.82 263.449 2459.61 260.452 2457.2 258.179C2454.78 255.878 2451.67 254.727 2447.86 254.727C2445.25 254.727 2442.81 255.423 2440.53 256.815C2438.29 258.207 2436.47 260.139 2435.08 262.611C2433.72 265.054 2433.03 267.881 2433.03 271.091V312H2422.98Z" fill="white"/>
<path d="M2094 865.239L2016.78 826.205H2016.1V871.205H2006.73V815.295H2016.61L2094 854.159V865.239ZM2095.36 738.9C2095.36 745.036 2093.91 750.32 2091.02 754.752C2088.12 759.184 2084.13 762.593 2079.04 764.979C2073.96 767.366 2068.15 768.559 2061.61 768.559C2054.97 768.559 2049.1 767.337 2044.01 764.894C2038.9 762.423 2034.91 758.985 2032.04 754.582C2029.14 750.15 2027.69 744.979 2027.69 739.07C2027.69 734.468 2028.55 730.32 2030.25 726.627C2031.95 722.934 2034.34 719.908 2037.41 717.55C2040.48 715.192 2044.06 713.729 2048.15 713.161V723.218C2045.16 723.985 2042.52 725.69 2040.22 728.332C2037.89 730.945 2036.73 734.468 2036.73 738.9C2036.73 742.82 2037.75 746.258 2039.8 749.212C2041.81 752.138 2044.67 754.425 2048.36 756.073C2052.03 757.692 2056.33 758.502 2061.27 758.502C2066.33 758.502 2070.73 757.707 2074.48 756.116C2078.23 754.496 2081.14 752.224 2083.22 749.298C2085.29 746.343 2086.33 742.877 2086.33 738.9C2086.33 736.286 2085.88 733.914 2084.97 731.783C2084.06 729.653 2082.75 727.849 2081.05 726.371C2079.34 724.894 2077.3 723.843 2074.91 723.218V713.161C2078.77 713.729 2082.25 715.136 2085.35 717.38C2088.42 719.596 2090.86 722.536 2092.68 726.201C2094.47 729.837 2095.36 734.07 2095.36 738.9ZM2094 698.46H2028.55V688.744H2038.77V687.891C2035.28 686.528 2032.57 684.326 2030.63 681.286C2028.67 678.246 2027.69 674.596 2027.69 670.335C2027.69 666.016 2028.67 662.423 2030.63 659.553C2032.57 656.656 2035.28 654.397 2038.77 652.778V652.096C2035.39 650.42 2032.71 647.906 2030.72 644.553C2028.7 641.201 2027.69 637.181 2027.69 632.494C2027.69 626.641 2029.53 621.854 2033.19 618.133C2036.83 614.411 2042.49 612.55 2050.19 612.55H2094V622.607H2050.19C2045.36 622.607 2041.91 623.928 2039.84 626.57C2037.76 629.212 2036.73 632.323 2036.73 635.903C2036.73 640.505 2038.12 644.07 2040.9 646.599C2043.66 649.127 2047.15 650.391 2051.39 650.391H2094V660.619H2049.17C2045.45 660.619 2042.45 661.826 2040.18 664.241C2037.88 666.656 2036.73 669.766 2036.73 673.573C2036.73 676.187 2037.42 678.63 2038.82 680.903C2040.21 683.147 2042.14 684.965 2044.61 686.357C2047.05 687.721 2049.88 688.403 2053.09 688.403H2094V698.46Z" fill="white"/>
<path d="M2772.27 888.716H2685V878.148H2761.19V877.636L2747.05 856.33H2757.78L2772.27 878.148V888.716ZM2685 913.815H2692.67L2724.2 942.622C2727.9 946.003 2731.11 948.787 2733.84 950.974C2736.59 953.162 2739.18 954.781 2741.59 955.832C2744.03 956.912 2746.59 957.452 2749.26 957.452C2752.33 957.452 2754.99 956.713 2757.23 955.236C2759.47 953.787 2761.21 951.798 2762.43 949.27C2763.65 946.741 2764.26 943.901 2764.26 940.747C2764.26 937.395 2763.57 934.469 2762.17 931.969C2760.81 929.497 2758.89 927.58 2756.42 926.216C2753.95 924.881 2751.05 924.213 2747.73 924.213V914.156C2752.84 914.156 2757.33 915.335 2761.19 917.693C2765.06 920.051 2768.07 923.261 2770.23 927.324C2772.39 931.415 2773.47 936.003 2773.47 941.088C2773.47 946.202 2772.39 950.733 2770.23 954.682C2768.07 958.631 2765.16 961.727 2761.49 963.972C2757.83 966.216 2753.75 967.338 2749.26 967.338C2746.05 967.338 2742.91 966.756 2739.84 965.591C2736.8 964.455 2733.41 962.466 2729.66 959.625C2725.94 956.812 2721.39 952.906 2716.02 947.906L2695.06 928.304H2694.38V968.872H2685V913.815ZM2683.64 1046.98C2683.64 1040.85 2685.09 1035.56 2687.98 1031.13C2690.88 1026.7 2694.87 1023.29 2699.96 1020.9C2705.04 1018.52 2710.85 1017.32 2717.39 1017.32C2724.03 1017.32 2729.9 1018.55 2734.99 1020.99C2740.1 1023.46 2744.09 1026.9 2746.96 1031.3C2749.86 1035.73 2751.31 1040.9 2751.31 1046.81C2751.31 1051.41 2750.45 1055.56 2748.75 1059.26C2747.05 1062.95 2744.66 1065.97 2741.59 1068.33C2738.52 1070.69 2734.94 1072.15 2730.85 1072.72V1062.66C2733.84 1061.9 2736.48 1060.19 2738.78 1057.55C2741.11 1054.94 2742.27 1051.41 2742.27 1046.98C2742.27 1043.06 2741.25 1039.63 2739.2 1036.67C2737.19 1033.74 2734.33 1031.46 2730.64 1029.81C2726.97 1028.19 2722.67 1027.38 2717.73 1027.38C2712.67 1027.38 2708.27 1028.18 2704.52 1029.77C2700.77 1031.39 2697.86 1033.66 2695.78 1036.59C2693.71 1039.54 2692.67 1043.01 2692.67 1046.98C2692.67 1049.6 2693.12 1051.97 2694.03 1054.1C2694.94 1056.23 2696.25 1058.03 2697.95 1059.51C2699.66 1060.99 2701.7 1062.04 2704.09 1062.66V1072.72C2700.23 1072.15 2696.75 1070.75 2693.65 1068.5C2690.58 1066.29 2688.14 1063.35 2686.32 1059.68C2684.53 1056.05 2683.64 1051.81 2683.64 1046.98ZM2685 1087.42H2750.45V1097.14H2740.23V1097.99C2743.72 1099.36 2746.43 1101.56 2748.37 1104.6C2750.33 1107.64 2751.31 1111.29 2751.31 1115.55C2751.31 1119.87 2750.33 1123.46 2748.37 1126.33C2746.43 1129.23 2743.72 1131.49 2740.23 1133.11V1133.79C2743.61 1135.46 2746.29 1137.98 2748.28 1141.33C2750.3 1144.68 2751.31 1148.7 2751.31 1153.39C2751.31 1159.24 2749.47 1164.03 2745.81 1167.75C2742.17 1171.47 2736.51 1173.33 2728.81 1173.33H2685V1163.28H2728.81C2733.64 1163.28 2737.09 1161.95 2739.16 1159.31C2741.24 1156.67 2742.27 1153.56 2742.27 1149.98C2742.27 1145.38 2740.88 1141.81 2738.1 1139.28C2735.34 1136.76 2731.85 1135.49 2727.61 1135.49H2685V1125.26H2729.83C2733.55 1125.26 2736.55 1124.06 2738.82 1121.64C2741.12 1119.23 2742.27 1116.12 2742.27 1112.31C2742.27 1109.7 2741.58 1107.25 2740.18 1104.98C2738.79 1102.74 2736.86 1100.92 2734.39 1099.53C2731.95 1098.16 2729.12 1097.48 2725.91 1097.48H2685V1087.42Z" fill="white"/>
<path d="M966.716 1691.73V1779H956.148V1702.81H955.636L934.33 1716.95V1706.22L956.148 1691.73H966.716ZM1021.3 1780.19C1015.68 1780.19 1010.66 1779.23 1006.26 1777.3C1001.89 1775.36 998.406 1772.68 995.821 1769.24C993.264 1765.78 991.872 1761.76 991.645 1757.18H1002.38C1002.61 1759.99 1003.58 1762.42 1005.28 1764.47C1006.99 1766.49 1009.22 1768.05 1011.97 1769.16C1014.73 1770.26 1017.78 1770.82 1021.13 1770.82C1024.88 1770.82 1028.21 1770.16 1031.11 1768.86C1034 1767.55 1036.28 1765.73 1037.92 1763.4C1039.57 1761.07 1040.39 1758.38 1040.39 1755.31C1040.39 1752.1 1039.6 1749.27 1038.01 1746.83C1036.42 1744.36 1034.09 1742.42 1031.02 1741.03C1027.95 1739.64 1024.2 1738.94 1019.77 1738.94H1012.78V1729.57H1019.77C1023.24 1729.57 1026.28 1728.94 1028.89 1727.69C1031.53 1726.44 1033.59 1724.68 1035.07 1722.41C1036.57 1720.14 1037.33 1717.47 1037.33 1714.4C1037.33 1711.44 1036.67 1708.87 1035.37 1706.68C1034.06 1704.5 1032.21 1702.79 1029.83 1701.57C1027.47 1700.35 1024.68 1699.74 1021.47 1699.74C1018.46 1699.74 1015.62 1700.29 1012.95 1701.4C1010.31 1702.48 1008.15 1704.06 1006.47 1706.13C1004.8 1708.18 1003.89 1710.65 1003.75 1713.55H993.52C993.69 1708.97 995.068 1704.97 997.653 1701.53C1000.24 1698.06 1003.62 1695.36 1007.8 1693.43C1012 1691.5 1016.62 1690.53 1021.64 1690.53C1027.04 1690.53 1031.67 1691.63 1035.54 1693.82C1039.4 1695.97 1042.37 1698.83 1044.44 1702.38C1046.52 1705.93 1047.55 1709.77 1047.55 1713.89C1047.55 1718.8 1046.26 1722.99 1043.68 1726.46C1041.12 1729.92 1037.64 1732.32 1033.24 1733.66V1734.34C1038.75 1735.25 1043.05 1737.59 1046.15 1741.37C1049.24 1745.12 1050.79 1749.77 1050.79 1755.31C1050.79 1760.05 1049.5 1764.31 1046.91 1768.09C1044.36 1771.84 1040.86 1774.8 1036.43 1776.95C1032 1779.11 1026.96 1780.19 1021.3 1780.19ZM1128.73 1780.36C1122.6 1780.36 1117.31 1778.91 1112.88 1776.02C1108.45 1773.12 1105.04 1769.13 1102.65 1764.04C1100.27 1758.96 1099.07 1753.15 1099.07 1746.61C1099.07 1739.97 1100.3 1734.1 1102.74 1729.01C1105.21 1723.9 1108.65 1719.91 1113.05 1717.04C1117.48 1714.14 1122.65 1712.69 1128.56 1712.69C1133.16 1712.69 1137.31 1713.55 1141.01 1715.25C1144.7 1716.95 1147.72 1719.34 1150.08 1722.41C1152.44 1725.48 1153.9 1729.06 1154.47 1733.15H1144.41C1143.65 1730.16 1141.94 1727.52 1139.3 1725.22C1136.69 1722.89 1133.16 1721.73 1128.73 1721.73C1124.81 1721.73 1121.38 1722.75 1118.42 1724.8C1115.49 1726.81 1113.21 1729.67 1111.56 1733.36C1109.94 1737.03 1109.13 1741.33 1109.13 1746.27C1109.13 1751.33 1109.93 1755.73 1111.52 1759.48C1113.14 1763.23 1115.41 1766.14 1118.34 1768.22C1121.29 1770.29 1124.76 1771.33 1128.73 1771.33C1131.35 1771.33 1133.72 1770.88 1135.85 1769.97C1137.98 1769.06 1139.78 1767.75 1141.26 1766.05C1142.74 1764.34 1143.79 1762.3 1144.41 1759.91H1154.47C1153.9 1763.77 1152.5 1767.25 1150.25 1770.35C1148.04 1773.42 1145.1 1775.86 1141.43 1777.68C1137.8 1779.47 1133.56 1780.36 1128.73 1780.36ZM1169.17 1779V1713.55H1178.89V1723.77H1179.74C1181.11 1720.28 1183.31 1717.57 1186.35 1715.63C1189.39 1713.67 1193.04 1712.69 1197.3 1712.69C1201.62 1712.69 1205.21 1713.67 1208.08 1715.63C1210.98 1717.57 1213.24 1720.28 1214.86 1723.77H1215.54C1217.21 1720.39 1219.73 1717.71 1223.08 1715.72C1226.43 1713.7 1230.45 1712.69 1235.14 1712.69C1240.99 1712.69 1245.78 1714.53 1249.5 1718.19C1253.22 1721.83 1255.08 1727.49 1255.08 1735.19V1779H1245.03V1735.19C1245.03 1730.36 1243.7 1726.91 1241.06 1724.84C1238.42 1722.76 1235.31 1721.73 1231.73 1721.73C1227.13 1721.73 1223.56 1723.12 1221.03 1725.9C1218.51 1728.66 1217.24 1732.15 1217.24 1736.39V1779H1207.01V1734.17C1207.01 1730.45 1205.81 1727.45 1203.39 1725.18C1200.98 1722.88 1197.87 1721.73 1194.06 1721.73C1191.45 1721.73 1189 1722.42 1186.73 1723.82C1184.49 1725.21 1182.67 1727.14 1181.28 1729.61C1179.91 1732.05 1179.23 1734.88 1179.23 1738.09V1779H1169.17Z" fill="white"/>
<path d="M1291.84 1095.5L1684.64 1586.5H403.363L796.163 1095.5H1291.84Z" fill="#D2A6D9" stroke="#DC00FF" stroke-width="9"/>
<path d="M2573.5 395.5V1578.17L2182.5 1089.42V395.5H2573.5Z" fill="#D2A6D9" stroke="#DC00FF" stroke-width="9"/>
<line x1="1289.5" y1="1590.06" x2="1289.5" y2="1093.94" stroke="#D83EF1" stroke-width="12" stroke-dasharray="26 26"/>
<path d="M813.148 1043H802.068L834.114 955.727H845.023L877.068 1043H865.989L839.909 969.534H839.227L813.148 1043ZM817.239 1008.91H861.898V1018.28H817.239V1008.91Z" fill="white"/>
<path d="M283.568 1633V1545.73H314.08C320.159 1545.73 325.173 1546.78 329.122 1548.88C333.071 1550.95 336.011 1553.75 337.943 1557.28C339.875 1560.77 340.841 1564.65 340.841 1568.91C340.841 1572.66 340.173 1575.76 338.838 1578.2C337.531 1580.64 335.798 1582.57 333.639 1583.99C331.509 1585.41 329.193 1586.47 326.693 1587.15V1588C329.364 1588.17 332.048 1589.11 334.747 1590.81C337.446 1592.52 339.705 1594.96 341.523 1598.14C343.341 1601.32 344.25 1605.22 344.25 1609.82C344.25 1614.19 343.256 1618.13 341.267 1621.62C339.278 1625.12 336.139 1627.89 331.849 1629.93C327.56 1631.98 321.977 1633 315.102 1633H283.568ZM294.136 1623.62H315.102C322.006 1623.62 326.906 1622.29 329.804 1619.62C332.73 1616.92 334.193 1613.65 334.193 1609.82C334.193 1606.86 333.44 1604.14 331.935 1601.64C330.429 1599.11 328.284 1597.09 325.5 1595.59C322.716 1594.05 319.42 1593.28 315.614 1593.28H294.136V1623.62ZM294.136 1584.08H313.739C316.92 1584.08 319.79 1583.45 322.347 1582.2C324.932 1580.95 326.977 1579.19 328.483 1576.92C330.017 1574.65 330.784 1571.98 330.784 1568.91C330.784 1565.07 329.449 1561.82 326.778 1559.15C324.108 1556.45 319.875 1555.1 314.08 1555.1H294.136V1584.08Z" fill="white"/>
<path d="M1816.8 1574H1806.23C1805.6 1570.96 1804.51 1568.29 1802.95 1565.99C1801.41 1563.69 1799.54 1561.76 1797.32 1560.19C1795.13 1558.6 1792.7 1557.41 1790.03 1556.61C1787.36 1555.82 1784.58 1555.42 1781.68 1555.42C1776.4 1555.42 1771.61 1556.76 1767.32 1559.43C1763.06 1562.1 1759.66 1566.03 1757.14 1571.23C1754.64 1576.43 1753.39 1582.81 1753.39 1590.36C1753.39 1597.92 1754.64 1604.3 1757.14 1609.5C1759.66 1614.7 1763.06 1618.63 1767.32 1621.3C1771.61 1623.97 1776.4 1625.31 1781.68 1625.31C1784.58 1625.31 1787.36 1624.91 1790.03 1624.11C1792.7 1623.32 1795.13 1622.14 1797.32 1620.58C1799.54 1618.99 1801.41 1617.04 1802.95 1614.74C1804.51 1612.41 1805.6 1609.74 1806.23 1606.73H1816.8C1816 1611.19 1814.55 1615.18 1812.45 1618.7C1810.35 1622.22 1807.73 1625.22 1804.61 1627.69C1801.48 1630.14 1797.97 1632 1794.08 1633.28C1790.22 1634.55 1786.09 1635.19 1781.68 1635.19C1774.24 1635.19 1767.62 1633.38 1761.82 1629.74C1756.03 1626.1 1751.47 1620.93 1748.14 1614.23C1744.82 1607.52 1743.16 1599.57 1743.16 1590.36C1743.16 1581.16 1744.82 1573.2 1748.14 1566.5C1751.47 1559.8 1756.03 1554.62 1761.82 1550.99C1767.62 1547.35 1774.24 1545.53 1781.68 1545.53C1786.09 1545.53 1790.22 1546.17 1794.08 1547.45C1797.97 1548.73 1801.48 1550.61 1804.61 1553.08C1807.73 1555.52 1810.35 1558.5 1812.45 1562.03C1814.55 1565.52 1816 1569.51 1816.8 1574Z" fill="white"/>
<path d="M2658.57 1646V1558.73H2711.24V1568.1H2669.14V1597.59H2708.51V1606.97H2669.14V1636.62H2711.92V1646H2658.57Z" fill="white"/>
<path d="M2164.23 266C2163.29 263.131 2162.05 260.56 2160.52 258.287C2159.01 255.986 2157.21 254.026 2155.11 252.406C2153.03 250.787 2150.68 249.551 2148.03 248.699C2145.39 247.847 2142.49 247.42 2139.34 247.42C2134.17 247.42 2129.47 248.756 2125.24 251.426C2121 254.097 2117.64 258.031 2115.14 263.23C2112.64 268.429 2111.39 274.807 2111.39 282.364C2111.39 289.92 2112.65 296.298 2115.18 301.497C2117.71 306.696 2121.13 310.631 2125.45 313.301C2129.77 315.972 2134.63 317.307 2140.02 317.307C2145.02 317.307 2149.43 316.241 2153.23 314.111C2157.07 311.952 2160.05 308.912 2162.18 304.991C2164.34 301.043 2165.42 296.398 2165.42 291.057L2168.66 291.739H2142.41V282.364H2175.65V291.739C2175.65 298.926 2174.11 305.176 2171.05 310.489C2168.01 315.801 2163.8 319.92 2158.43 322.847C2153.09 325.744 2146.95 327.193 2140.02 327.193C2132.3 327.193 2125.51 325.375 2119.65 321.739C2113.83 318.102 2109.28 312.932 2106.02 306.227C2102.78 299.523 2101.16 291.568 2101.16 282.364C2101.16 275.46 2102.08 269.253 2103.93 263.741C2105.8 258.202 2108.45 253.486 2111.86 249.594C2115.26 245.702 2119.3 242.719 2123.96 240.645C2128.62 238.571 2133.74 237.534 2139.34 237.534C2143.94 237.534 2148.23 238.23 2152.21 239.622C2156.22 240.986 2159.78 242.932 2162.91 245.46C2166.06 247.96 2168.69 250.957 2170.79 254.452C2172.89 257.918 2174.34 261.767 2175.14 266H2164.23Z" fill="white"/>
<path d="M2613.57 341V253.727H2665.9V263.102H2624.14V292.591H2661.98V301.966H2624.14V341H2613.57Z" fill="white"/>
<path d="M2084.57 1210V1122.73H2095.14V1161.59H2141.67V1122.73H2152.24V1210H2141.67V1170.97H2095.14V1210H2084.57Z" fill="white"/>
<path d="M1272.5 1034H1245.57V946.727H1273.69C1282.16 946.727 1289.4 948.474 1295.43 951.969C1301.45 955.435 1306.07 960.42 1309.28 966.926C1312.49 973.403 1314.09 981.159 1314.09 990.193C1314.09 999.284 1312.47 1007.11 1309.23 1013.67C1305.99 1020.21 1301.28 1025.24 1295.09 1028.76C1288.89 1032.25 1281.36 1034 1272.5 1034ZM1256.14 1024.62H1271.82C1279.03 1024.62 1285.01 1023.23 1289.76 1020.45C1294.5 1017.66 1298.04 1013.7 1300.37 1008.56C1302.7 1003.42 1303.86 997.295 1303.86 990.193C1303.86 983.148 1302.71 977.082 1300.41 971.997C1298.11 966.884 1294.67 962.963 1290.1 960.236C1285.53 957.48 1279.83 956.102 1273.01 956.102H1256.14V1024.62Z" fill="white"/>
<path d="M1178.67 1573V1565.33L1225.72 1495.1H1178.16V1485.73H1238.33V1493.4L1191.28 1563.62H1238.84V1573H1178.67Z" fill="black"/>
</svg>
