<svg width="3041" height="2003" viewBox="0 0 3041 2003" fill="none" xmlns="http://www.w3.org/2000/svg">
<path opacity="0.9" d="M167 1628L194.5 1643.88V1612.12L167 1628ZM557 1628L529.5 1612.12V1643.88L557 1628ZM191.75 1628V1630.75H532.25V1628V1625.25H191.75V1628Z" fill="white"/>
<path opacity="0.9" d="M2346 355L2373.5 370.877V339.123L2346 355ZM2736 355L2708.5 339.123V370.877L2736 355ZM2370.75 355V357.75H2711.25V355V352.25H2370.75V355Z" fill="white"/>
<path d="M2780 1591L2795.88 1563.5H2764.12L2780 1591ZM2780 391L2764.12 418.5H2795.88L2780 391ZM2780 1566.25H2782.75V415.75H2780H2777.25V1566.25H2780Z" fill="white"/>
<path d="M227.989 1725.1V1716.41L266.341 1655.73H272.648V1669.19H268.386L239.409 1715.05V1715.73H291.057V1725.1H227.989ZM269.068 1743V1722.46V1718.41V1655.73H279.125V1743H269.068ZM367.538 1744.36C361.401 1744.36 356.117 1742.91 351.685 1740.02C347.254 1737.12 343.844 1733.13 341.458 1728.04C339.072 1722.96 337.879 1717.15 337.879 1710.61C337.879 1703.97 339.1 1698.1 341.543 1693.01C344.015 1687.9 347.452 1683.91 351.856 1681.04C356.288 1678.14 361.458 1676.69 367.367 1676.69C371.969 1676.69 376.117 1677.55 379.81 1679.25C383.504 1680.95 386.529 1683.34 388.887 1686.41C391.245 1689.48 392.708 1693.06 393.276 1697.15H383.219C382.452 1694.16 380.748 1691.52 378.106 1689.22C375.492 1686.89 371.969 1685.73 367.538 1685.73C363.617 1685.73 360.18 1686.75 357.225 1688.8C354.299 1690.81 352.012 1693.67 350.364 1697.36C348.745 1701.03 347.935 1705.33 347.935 1710.27C347.935 1715.33 348.731 1719.73 350.322 1723.48C351.941 1727.23 354.214 1730.14 357.14 1732.22C360.094 1734.29 363.56 1735.33 367.538 1735.33C370.151 1735.33 372.523 1734.88 374.654 1733.97C376.785 1733.06 378.589 1731.75 380.066 1730.05C381.543 1728.34 382.594 1726.3 383.219 1723.91H393.276C392.708 1727.77 391.302 1731.25 389.058 1734.35C386.842 1737.42 383.901 1739.86 380.237 1741.68C376.6 1743.47 372.367 1744.36 367.538 1744.36ZM407.978 1743V1677.55H417.694V1687.77H418.546C419.91 1684.28 422.112 1681.57 425.151 1679.63C428.191 1677.67 431.842 1676.69 436.103 1676.69C440.421 1676.69 444.015 1677.67 446.884 1679.63C449.782 1681.57 452.04 1684.28 453.66 1687.77H454.342C456.018 1684.39 458.532 1681.71 461.884 1679.72C465.237 1677.7 469.256 1676.69 473.944 1676.69C479.796 1676.69 484.583 1678.53 488.305 1682.19C492.026 1685.83 493.887 1691.49 493.887 1699.19V1743H483.83V1699.19C483.83 1694.36 482.509 1690.91 479.867 1688.84C477.225 1686.76 474.114 1685.73 470.535 1685.73C465.933 1685.73 462.367 1687.12 459.839 1689.9C457.31 1692.66 456.046 1696.15 456.046 1700.39V1743H445.819V1698.17C445.819 1694.45 444.612 1691.45 442.197 1689.18C439.782 1686.88 436.671 1685.73 432.864 1685.73C430.251 1685.73 427.808 1686.42 425.535 1687.82C423.29 1689.21 421.472 1691.14 420.08 1693.61C418.717 1696.05 418.035 1698.88 418.035 1702.09V1743H407.978Z" fill="white"/>
<path d="M2405.99 294.102V285.409L2444.34 224.727H2450.65V238.193H2446.39L2417.41 284.045V284.727H2469.06V294.102H2405.99ZM2447.07 312V291.46V287.412V224.727H2457.12V312H2447.07ZM2545.54 313.364C2539.4 313.364 2534.12 311.915 2529.69 309.017C2525.25 306.119 2521.84 302.128 2519.46 297.043C2517.07 291.957 2515.88 286.148 2515.88 279.614C2515.88 272.966 2517.1 267.099 2519.54 262.014C2522.01 256.901 2525.45 252.909 2529.86 250.04C2534.29 247.142 2539.46 245.693 2545.37 245.693C2549.97 245.693 2554.12 246.545 2557.81 248.25C2561.5 249.955 2564.53 252.341 2566.89 255.409C2569.25 258.477 2570.71 262.057 2571.28 266.148H2561.22C2560.45 263.165 2558.75 260.523 2556.11 258.222C2553.49 255.892 2549.97 254.727 2545.54 254.727C2541.62 254.727 2538.18 255.75 2535.23 257.795C2532.3 259.812 2530.01 262.668 2528.36 266.361C2526.75 270.026 2525.94 274.33 2525.94 279.273C2525.94 284.33 2526.73 288.733 2528.32 292.483C2529.94 296.233 2532.21 299.145 2535.14 301.219C2538.09 303.293 2541.56 304.33 2545.54 304.33C2548.15 304.33 2550.52 303.875 2552.65 302.966C2554.78 302.057 2556.59 300.75 2558.07 299.045C2559.54 297.341 2560.59 295.295 2561.22 292.909H2571.28C2570.71 296.773 2569.3 300.253 2567.06 303.349C2564.84 306.418 2561.9 308.861 2558.24 310.679C2554.6 312.469 2550.37 313.364 2545.54 313.364ZM2585.98 312V246.545H2595.69V256.773H2596.55C2597.91 253.278 2600.11 250.565 2603.15 248.634C2606.19 246.673 2609.84 245.693 2614.1 245.693C2618.42 245.693 2622.01 246.673 2624.88 248.634C2627.78 250.565 2630.04 253.278 2631.66 256.773H2632.34C2634.02 253.392 2636.53 250.707 2639.88 248.719C2643.24 246.702 2647.26 245.693 2651.94 245.693C2657.8 245.693 2662.58 247.526 2666.3 251.19C2670.03 254.827 2671.89 260.494 2671.89 268.193V312H2661.83V268.193C2661.83 263.364 2660.51 259.912 2657.87 257.838C2655.23 255.764 2652.11 254.727 2648.53 254.727C2643.93 254.727 2640.37 256.119 2637.84 258.903C2635.31 261.659 2634.05 265.153 2634.05 269.386V312H2623.82V267.17C2623.82 263.449 2622.61 260.452 2620.2 258.179C2617.78 255.878 2614.67 254.727 2610.86 254.727C2608.25 254.727 2605.81 255.423 2603.53 256.815C2601.29 258.207 2599.47 260.139 2598.08 262.611C2596.72 265.054 2596.03 267.881 2596.03 271.091V312H2585.98Z" fill="white"/>
<path d="M2935.27 888.716H2848V878.148H2924.19V877.636L2910.05 856.33H2920.78L2935.27 878.148V888.716ZM2848 913.815H2855.67L2887.2 942.622C2890.9 946.003 2894.11 948.787 2896.84 950.974C2899.59 953.162 2902.18 954.781 2904.59 955.832C2907.03 956.912 2909.59 957.452 2912.26 957.452C2915.33 957.452 2917.99 956.713 2920.23 955.236C2922.47 953.787 2924.21 951.798 2925.43 949.27C2926.65 946.741 2927.26 943.901 2927.26 940.747C2927.26 937.395 2926.57 934.469 2925.17 931.969C2923.81 929.497 2921.89 927.58 2919.42 926.216C2916.95 924.881 2914.05 924.213 2910.73 924.213V914.156C2915.84 914.156 2920.33 915.335 2924.19 917.693C2928.06 920.051 2931.07 923.261 2933.23 927.324C2935.39 931.415 2936.47 936.003 2936.47 941.088C2936.47 946.202 2935.39 950.733 2933.23 954.682C2931.07 958.631 2928.16 961.727 2924.49 963.972C2920.83 966.216 2916.75 967.338 2912.26 967.338C2909.05 967.338 2905.91 966.756 2902.84 965.591C2899.8 964.455 2896.41 962.466 2892.66 959.625C2888.94 956.812 2884.39 952.906 2879.02 947.906L2858.06 928.304H2857.38V968.872H2848V913.815ZM2846.64 1046.98C2846.64 1040.85 2848.09 1035.56 2850.98 1031.13C2853.88 1026.7 2857.87 1023.29 2862.96 1020.9C2868.04 1018.52 2873.85 1017.32 2880.39 1017.32C2887.03 1017.32 2892.9 1018.55 2897.99 1020.99C2903.1 1023.46 2907.09 1026.9 2909.96 1031.3C2912.86 1035.73 2914.31 1040.9 2914.31 1046.81C2914.31 1051.41 2913.45 1055.56 2911.75 1059.26C2910.05 1062.95 2907.66 1065.97 2904.59 1068.33C2901.52 1070.69 2897.94 1072.15 2893.85 1072.72V1062.66C2896.84 1061.9 2899.48 1060.19 2901.78 1057.55C2904.11 1054.94 2905.27 1051.41 2905.27 1046.98C2905.27 1043.06 2904.25 1039.63 2902.2 1036.67C2900.19 1033.74 2897.33 1031.46 2893.64 1029.81C2889.97 1028.19 2885.67 1027.38 2880.73 1027.38C2875.67 1027.38 2871.27 1028.18 2867.52 1029.77C2863.77 1031.39 2860.86 1033.66 2858.78 1036.59C2856.71 1039.54 2855.67 1043.01 2855.67 1046.98C2855.67 1049.6 2856.12 1051.97 2857.03 1054.1C2857.94 1056.23 2859.25 1058.03 2860.95 1059.51C2862.66 1060.99 2864.7 1062.04 2867.09 1062.66V1072.72C2863.23 1072.15 2859.75 1070.75 2856.65 1068.5C2853.58 1066.29 2851.14 1063.35 2849.32 1059.68C2847.53 1056.05 2846.64 1051.81 2846.64 1046.98ZM2848 1087.42H2913.45V1097.14H2903.23V1097.99C2906.72 1099.36 2909.43 1101.56 2911.37 1104.6C2913.33 1107.64 2914.31 1111.29 2914.31 1115.55C2914.31 1119.87 2913.33 1123.46 2911.37 1126.33C2909.43 1129.23 2906.72 1131.49 2903.23 1133.11V1133.79C2906.61 1135.46 2909.29 1137.98 2911.28 1141.33C2913.3 1144.68 2914.31 1148.7 2914.31 1153.39C2914.31 1159.24 2912.47 1164.03 2908.81 1167.75C2905.17 1171.47 2899.51 1173.33 2891.81 1173.33H2848V1163.28H2891.81C2896.64 1163.28 2900.09 1161.95 2902.16 1159.31C2904.24 1156.67 2905.27 1153.56 2905.27 1149.98C2905.27 1145.38 2903.88 1141.81 2901.1 1139.28C2898.34 1136.76 2894.85 1135.49 2890.61 1135.49H2848V1125.26H2892.83C2896.55 1125.26 2899.55 1124.06 2901.82 1121.64C2904.12 1119.23 2905.27 1116.12 2905.27 1112.31C2905.27 1109.7 2904.58 1107.25 2903.18 1104.98C2901.79 1102.74 2899.86 1100.92 2897.39 1099.53C2894.95 1098.16 2892.12 1097.48 2888.91 1097.48H2848V1087.42Z" fill="white"/>
<path d="M1699.5 1095.5V1586.5H1208.5V1095.5H1699.5Z" fill="#D2A6D9" stroke="#DC00FF" stroke-width="9"/>
<path d="M2736.5 395.5V1586.5H2345.5V395.5H2736.5Z" fill="#D2A6D9" stroke="#DC00FF" stroke-width="9"/>
<path d="M562.5 1586.5H176.363L562.5 1103.83V1586.5Z" fill="#D2A6D9" stroke="#DC00FF" stroke-width="9"/>
<path d="M1697 1081L1712.88 1053.5H1681.12L1697 1081ZM1697 391L1681.12 418.5H1712.88L1697 391ZM1697 1056.25H1699.75V415.75H1697H1694.25V1056.25H1697Z" fill="white"/>
<path d="M1645 865.239L1567.78 826.205H1567.1V871.205H1557.73V815.295H1567.61L1645 854.159V865.239ZM1646.36 738.9C1646.36 745.036 1644.91 750.32 1642.02 754.752C1639.12 759.184 1635.13 762.593 1630.04 764.979C1624.96 767.366 1619.15 768.559 1612.61 768.559C1605.97 768.559 1600.1 767.337 1595.01 764.894C1589.9 762.423 1585.91 758.985 1583.04 754.582C1580.14 750.15 1578.69 744.979 1578.69 739.07C1578.69 734.468 1579.55 730.32 1581.25 726.627C1582.95 722.934 1585.34 719.908 1588.41 717.55C1591.48 715.192 1595.06 713.729 1599.15 713.161V723.218C1596.16 723.985 1593.52 725.69 1591.22 728.332C1588.89 730.945 1587.73 734.468 1587.73 738.9C1587.73 742.82 1588.75 746.258 1590.8 749.212C1592.81 752.138 1595.67 754.425 1599.36 756.073C1603.03 757.692 1607.33 758.502 1612.27 758.502C1617.33 758.502 1621.73 757.707 1625.48 756.116C1629.23 754.496 1632.14 752.224 1634.22 749.298C1636.29 746.343 1637.33 742.877 1637.33 738.9C1637.33 736.286 1636.88 733.914 1635.97 731.783C1635.06 729.653 1633.75 727.849 1632.05 726.371C1630.34 724.894 1628.3 723.843 1625.91 723.218V713.161C1629.77 713.729 1633.25 715.136 1636.35 717.38C1639.42 719.596 1641.86 722.536 1643.68 726.201C1645.47 729.837 1646.36 734.07 1646.36 738.9ZM1645 698.46H1579.55V688.744H1589.77V687.891C1586.28 686.528 1583.57 684.326 1581.63 681.286C1579.67 678.246 1578.69 674.596 1578.69 670.335C1578.69 666.016 1579.67 662.423 1581.63 659.553C1583.57 656.656 1586.28 654.397 1589.77 652.778V652.096C1586.39 650.42 1583.71 647.906 1581.72 644.553C1579.7 641.201 1578.69 637.181 1578.69 632.494C1578.69 626.641 1580.53 621.854 1584.19 618.133C1587.83 614.411 1593.49 612.55 1601.19 612.55H1645V622.607H1601.19C1596.36 622.607 1592.91 623.928 1590.84 626.57C1588.76 629.212 1587.73 632.323 1587.73 635.903C1587.73 640.505 1589.12 644.07 1591.9 646.599C1594.66 649.127 1598.15 650.391 1602.39 650.391H1645V660.619H1600.17C1596.45 660.619 1593.45 661.826 1591.18 664.241C1588.88 666.656 1587.73 669.766 1587.73 673.573C1587.73 676.187 1588.42 678.63 1589.82 680.903C1591.21 683.147 1593.14 684.965 1595.61 686.357C1598.05 687.721 1600.88 688.403 1604.09 688.403H1645V698.46Z" fill="white"/>
</svg>
