<svg width="3041" height="2003" viewBox="0 0 3041 2003" fill="none" xmlns="http://www.w3.org/2000/svg">
<path opacity="0.3" d="M167 1628L194.5 1643.88V1612.12L167 1628ZM557 1628L529.5 1612.12V1643.88L557 1628ZM191.75 1628V1630.75H532.25V1628V1625.25H191.75V1628Z" fill="white"/>
<path opacity="0.3" d="M2346 355L2373.5 370.877V339.123L2346 355ZM2736 355L2708.5 339.123V370.877L2736 355ZM2370.75 355V357.75H2711.25V355V352.25H2370.75V355Z" fill="white"/>
<path opacity="0.3" d="M2780 1591L2795.88 1563.5H2764.12L2780 1591ZM2780 391L2764.12 418.5H2795.88L2780 391ZM2780 1566.25H2782.75V415.75H2780H2777.25V1566.25H2780Z" fill="white"/>
<path opacity="0.3" d="M227.989 1725.1V1716.41L266.341 1655.73H272.648V1669.19H268.386L239.409 1715.05V1715.73H291.057V1725.1H227.989ZM269.068 1743V1722.46V1718.41V1655.73H279.125V1743H269.068ZM367.538 1744.36C361.401 1744.36 356.117 1742.91 351.685 1740.02C347.254 1737.12 343.844 1733.13 341.458 1728.04C339.072 1722.96 337.879 1717.15 337.879 1710.61C337.879 1703.97 339.1 1698.1 341.543 1693.01C344.015 1687.9 347.452 1683.91 351.856 1681.04C356.288 1678.14 361.458 1676.69 367.367 1676.69C371.969 1676.69 376.117 1677.55 379.81 1679.25C383.504 1680.95 386.529 1683.34 388.887 1686.41C391.245 1689.48 392.708 1693.06 393.276 1697.15H383.219C382.452 1694.16 380.748 1691.52 378.106 1689.22C375.492 1686.89 371.969 1685.73 367.538 1685.73C363.617 1685.73 360.18 1686.75 357.225 1688.8C354.299 1690.81 352.012 1693.67 350.364 1697.36C348.745 1701.03 347.935 1705.33 347.935 1710.27C347.935 1715.33 348.731 1719.73 350.322 1723.48C351.941 1727.23 354.214 1730.14 357.14 1732.22C360.094 1734.29 363.56 1735.33 367.538 1735.33C370.151 1735.33 372.523 1734.88 374.654 1733.97C376.785 1733.06 378.589 1731.75 380.066 1730.05C381.543 1728.34 382.594 1726.3 383.219 1723.91H393.276C392.708 1727.77 391.302 1731.25 389.058 1734.35C386.842 1737.42 383.901 1739.86 380.237 1741.68C376.6 1743.47 372.367 1744.36 367.538 1744.36ZM407.978 1743V1677.55H417.694V1687.77H418.546C419.91 1684.28 422.112 1681.57 425.151 1679.63C428.191 1677.67 431.842 1676.69 436.103 1676.69C440.421 1676.69 444.015 1677.67 446.884 1679.63C449.782 1681.57 452.04 1684.28 453.66 1687.77H454.342C456.018 1684.39 458.532 1681.71 461.884 1679.72C465.237 1677.7 469.256 1676.69 473.944 1676.69C479.796 1676.69 484.583 1678.53 488.305 1682.19C492.026 1685.83 493.887 1691.49 493.887 1699.19V1743H483.83V1699.19C483.83 1694.36 482.509 1690.91 479.867 1688.84C477.225 1686.76 474.114 1685.73 470.535 1685.73C465.933 1685.73 462.367 1687.12 459.839 1689.9C457.31 1692.66 456.046 1696.15 456.046 1700.39V1743H445.819V1698.17C445.819 1694.45 444.612 1691.45 442.197 1689.18C439.782 1686.88 436.671 1685.73 432.864 1685.73C430.251 1685.73 427.808 1686.42 425.535 1687.82C423.29 1689.21 421.472 1691.14 420.08 1693.61C418.717 1696.05 418.035 1698.88 418.035 1702.09V1743H407.978Z" fill="white"/>
<path opacity="0.3" d="M2405.99 294.102V285.409L2444.34 224.727H2450.65V238.193H2446.39L2417.41 284.045V284.727H2469.06V294.102H2405.99ZM2447.07 312V291.46V287.412V224.727H2457.12V312H2447.07ZM2545.54 313.364C2539.4 313.364 2534.12 311.915 2529.69 309.017C2525.25 306.119 2521.84 302.128 2519.46 297.043C2517.07 291.957 2515.88 286.148 2515.88 279.614C2515.88 272.966 2517.1 267.099 2519.54 262.014C2522.01 256.901 2525.45 252.909 2529.86 250.04C2534.29 247.142 2539.46 245.693 2545.37 245.693C2549.97 245.693 2554.12 246.545 2557.81 248.25C2561.5 249.955 2564.53 252.341 2566.89 255.409C2569.25 258.477 2570.71 262.057 2571.28 266.148H2561.22C2560.45 263.165 2558.75 260.523 2556.11 258.222C2553.49 255.892 2549.97 254.727 2545.54 254.727C2541.62 254.727 2538.18 255.75 2535.23 257.795C2532.3 259.812 2530.01 262.668 2528.36 266.361C2526.75 270.026 2525.94 274.33 2525.94 279.273C2525.94 284.33 2526.73 288.733 2528.32 292.483C2529.94 296.233 2532.21 299.145 2535.14 301.219C2538.09 303.293 2541.56 304.33 2545.54 304.33C2548.15 304.33 2550.52 303.875 2552.65 302.966C2554.78 302.057 2556.59 300.75 2558.07 299.045C2559.54 297.341 2560.59 295.295 2561.22 292.909H2571.28C2570.71 296.773 2569.3 300.253 2567.06 303.349C2564.84 306.418 2561.9 308.861 2558.24 310.679C2554.6 312.469 2550.37 313.364 2545.54 313.364ZM2585.98 312V246.545H2595.69V256.773H2596.55C2597.91 253.278 2600.11 250.565 2603.15 248.634C2606.19 246.673 2609.84 245.693 2614.1 245.693C2618.42 245.693 2622.01 246.673 2624.88 248.634C2627.78 250.565 2630.04 253.278 2631.66 256.773H2632.34C2634.02 253.392 2636.53 250.707 2639.88 248.719C2643.24 246.702 2647.26 245.693 2651.94 245.693C2657.8 245.693 2662.58 247.526 2666.3 251.19C2670.03 254.827 2671.89 260.494 2671.89 268.193V312H2661.83V268.193C2661.83 263.364 2660.51 259.912 2657.87 257.838C2655.23 255.764 2652.11 254.727 2648.53 254.727C2643.93 254.727 2640.37 256.119 2637.84 258.903C2635.31 261.659 2634.05 265.153 2634.05 269.386V312H2623.82V267.17C2623.82 263.449 2622.61 260.452 2620.2 258.179C2617.78 255.878 2614.67 254.727 2610.86 254.727C2608.25 254.727 2605.81 255.423 2603.53 256.815C2601.29 258.207 2599.47 260.139 2598.08 262.611C2596.72 265.054 2596.03 267.881 2596.03 271.091V312H2585.98Z" fill="white"/>
<path opacity="0.3" d="M2935.27 888.716H2848V878.148H2924.19V877.636L2910.05 856.33H2920.78L2935.27 878.148V888.716ZM2848 913.815H2855.67L2887.2 942.622C2890.9 946.003 2894.11 948.787 2896.84 950.974C2899.59 953.162 2902.18 954.781 2904.59 955.832C2907.03 956.912 2909.59 957.452 2912.26 957.452C2915.33 957.452 2917.99 956.713 2920.23 955.236C2922.47 953.787 2924.21 951.798 2925.43 949.27C2926.65 946.741 2927.26 943.901 2927.26 940.747C2927.26 937.395 2926.57 934.469 2925.17 931.969C2923.81 929.497 2921.89 927.58 2919.42 926.216C2916.95 924.881 2914.05 924.213 2910.73 924.213V914.156C2915.84 914.156 2920.33 915.335 2924.19 917.693C2928.06 920.051 2931.07 923.261 2933.23 927.324C2935.39 931.415 2936.47 936.003 2936.47 941.088C2936.47 946.202 2935.39 950.733 2933.23 954.682C2931.07 958.631 2928.16 961.727 2924.49 963.972C2920.83 966.216 2916.75 967.338 2912.26 967.338C2909.05 967.338 2905.91 966.756 2902.84 965.591C2899.8 964.455 2896.41 962.466 2892.66 959.625C2888.94 956.812 2884.39 952.906 2879.02 947.906L2858.06 928.304H2857.38V968.872H2848V913.815ZM2846.64 1046.98C2846.64 1040.85 2848.09 1035.56 2850.98 1031.13C2853.88 1026.7 2857.87 1023.29 2862.96 1020.9C2868.04 1018.52 2873.85 1017.32 2880.39 1017.32C2887.03 1017.32 2892.9 1018.55 2897.99 1020.99C2903.1 1023.46 2907.09 1026.9 2909.96 1031.3C2912.86 1035.73 2914.31 1040.9 2914.31 1046.81C2914.31 1051.41 2913.45 1055.56 2911.75 1059.26C2910.05 1062.95 2907.66 1065.97 2904.59 1068.33C2901.52 1070.69 2897.94 1072.15 2893.85 1072.72V1062.66C2896.84 1061.9 2899.48 1060.19 2901.78 1057.55C2904.11 1054.94 2905.27 1051.41 2905.27 1046.98C2905.27 1043.06 2904.25 1039.63 2902.2 1036.67C2900.19 1033.74 2897.33 1031.46 2893.64 1029.81C2889.97 1028.19 2885.67 1027.38 2880.73 1027.38C2875.67 1027.38 2871.27 1028.18 2867.52 1029.77C2863.77 1031.39 2860.86 1033.66 2858.78 1036.59C2856.71 1039.54 2855.67 1043.01 2855.67 1046.98C2855.67 1049.6 2856.12 1051.97 2857.03 1054.1C2857.94 1056.23 2859.25 1058.03 2860.95 1059.51C2862.66 1060.99 2864.7 1062.04 2867.09 1062.66V1072.72C2863.23 1072.15 2859.75 1070.75 2856.65 1068.5C2853.58 1066.29 2851.14 1063.35 2849.32 1059.68C2847.53 1056.05 2846.64 1051.81 2846.64 1046.98ZM2848 1087.42H2913.45V1097.14H2903.23V1097.99C2906.72 1099.36 2909.43 1101.56 2911.37 1104.6C2913.33 1107.64 2914.31 1111.29 2914.31 1115.55C2914.31 1119.87 2913.33 1123.46 2911.37 1126.33C2909.43 1129.23 2906.72 1131.49 2903.23 1133.11V1133.79C2906.61 1135.46 2909.29 1137.98 2911.28 1141.33C2913.3 1144.68 2914.31 1148.7 2914.31 1153.39C2914.31 1159.24 2912.47 1164.03 2908.81 1167.75C2905.17 1171.47 2899.51 1173.33 2891.81 1173.33H2848V1163.28H2891.81C2896.64 1163.28 2900.09 1161.95 2902.16 1159.31C2904.24 1156.67 2905.27 1153.56 2905.27 1149.98C2905.27 1145.38 2903.88 1141.81 2901.1 1139.28C2898.34 1136.76 2894.85 1135.49 2890.61 1135.49H2848V1125.26H2892.83C2896.55 1125.26 2899.55 1124.06 2901.82 1121.64C2904.12 1119.23 2905.27 1116.12 2905.27 1112.31C2905.27 1109.7 2904.58 1107.25 2903.18 1104.98C2901.79 1102.74 2899.86 1100.92 2897.39 1099.53C2894.95 1098.16 2892.12 1097.48 2888.91 1097.48H2848V1087.42Z" fill="white"/>
<path d="M1699.5 1095.5V1586.5H1208.5V1095.5H1699.5Z" fill="#D2A6D9" stroke="#DC00FF" stroke-width="9"/>
<path opacity="0.3" d="M2736.5 395.5V1586.5H2345.5V395.5H2736.5Z" fill="#D2A6D9" stroke="#DC00FF" stroke-width="9"/>
<path opacity="0.3" d="M562.5 1586.5H176.363L562.5 1103.83V1586.5Z" fill="#D2A6D9" stroke="#DC00FF" stroke-width="9"/>
<path opacity="0.3" d="M99.1477 1562H88.0682L120.114 1474.73H131.023L163.068 1562H151.989L125.909 1488.53H125.227L99.1477 1562ZM103.239 1527.91H147.898V1537.28H103.239V1527.91Z" fill="white"/>
<path opacity="0.3" d="M598.568 1579V1491.73H629.08C635.159 1491.73 640.173 1492.78 644.122 1494.88C648.071 1496.95 651.011 1499.75 652.943 1503.28C654.875 1506.77 655.841 1510.65 655.841 1514.91C655.841 1518.66 655.173 1521.76 653.838 1524.2C652.531 1526.64 650.798 1528.57 648.639 1529.99C646.509 1531.41 644.193 1532.47 641.693 1533.15V1534C644.364 1534.17 647.048 1535.11 649.747 1536.81C652.446 1538.52 654.705 1540.96 656.523 1544.14C658.341 1547.32 659.25 1551.22 659.25 1555.82C659.25 1560.19 658.256 1564.13 656.267 1567.62C654.278 1571.12 651.139 1573.89 646.849 1575.93C642.56 1577.98 636.977 1579 630.102 1579H598.568ZM609.136 1569.62H630.102C637.006 1569.62 641.906 1568.29 644.804 1565.62C647.73 1562.92 649.193 1559.65 649.193 1555.82C649.193 1552.86 648.44 1550.14 646.935 1547.64C645.429 1545.11 643.284 1543.09 640.5 1541.59C637.716 1540.05 634.42 1539.28 630.614 1539.28H609.136V1569.62ZM609.136 1530.08H628.739C631.92 1530.08 634.79 1529.45 637.347 1528.2C639.932 1526.95 641.977 1525.19 643.483 1522.92C645.017 1520.65 645.784 1517.98 645.784 1514.91C645.784 1511.07 644.449 1507.82 641.778 1505.15C639.108 1502.45 634.875 1501.1 629.08 1501.1H609.136V1530.08Z" fill="white"/>
<path d="M1122.5 1579H1095.57V1491.73H1123.69C1132.16 1491.73 1139.4 1493.47 1145.43 1496.97C1151.45 1500.43 1156.07 1505.42 1159.28 1511.93C1162.49 1518.4 1164.09 1526.16 1164.09 1535.19C1164.09 1544.28 1162.47 1552.11 1159.23 1558.67C1155.99 1565.21 1151.28 1570.24 1145.09 1573.76C1138.89 1577.25 1131.36 1579 1122.5 1579ZM1106.14 1569.62H1121.82C1129.03 1569.62 1135.01 1568.23 1139.76 1565.45C1144.5 1562.66 1148.04 1558.7 1150.37 1553.56C1152.7 1548.42 1153.86 1542.3 1153.86 1535.19C1153.86 1528.15 1152.71 1522.08 1150.41 1517C1148.11 1511.88 1144.67 1507.96 1140.1 1505.24C1135.53 1502.48 1129.83 1501.1 1123.01 1501.1H1106.14V1569.62Z" fill="white"/>
<path d="M1746.57 1591V1503.73H1799.24V1513.1H1757.14V1542.59H1796.51V1551.97H1757.14V1581.62H1799.92V1591H1746.57Z" fill="white"/>
<path opacity="0.3" d="M2240.57 1599V1511.73H2251.14V1550.59H2297.67V1511.73H2308.24V1599H2297.67V1559.97H2251.14V1599H2240.57Z" fill="white"/>
<path opacity="0.3" d="M2840.14 1491.73V1579H2829.57V1491.73H2840.14Z" fill="white"/>
<path opacity="0.3" d="M2807.98 274.727H2818.55V337.114C2818.55 342.682 2817.52 347.412 2815.48 351.304C2813.43 355.196 2810.55 358.151 2806.83 360.168C2803.11 362.185 2798.72 363.193 2793.66 363.193C2788.89 363.193 2784.64 362.327 2780.92 360.594C2777.2 358.832 2774.27 356.332 2772.14 353.094C2770.01 349.855 2768.94 346.006 2768.94 341.545H2779.34C2779.34 344.017 2779.95 346.176 2781.17 348.023C2782.42 349.841 2784.13 351.261 2786.29 352.284C2788.45 353.307 2790.9 353.818 2793.66 353.818C2796.7 353.818 2799.28 353.179 2801.41 351.901C2803.55 350.622 2805.16 348.747 2806.27 346.276C2807.41 343.776 2807.98 340.722 2807.98 337.114V274.727Z" fill="white"/>
<path opacity="0.3" d="M2240.57 362V274.727H2251.14V318.023H2252.16L2291.36 274.727H2305.17L2268.52 314.102L2305.17 362H2292.39L2262.05 321.432L2251.14 333.705V362H2240.57Z" fill="white"/>
<path d="M1746.57 1107V1019.73H1798.9V1029.1H1757.14V1058.59H1794.98V1067.97H1757.14V1107H1746.57Z" fill="white"/>
<path d="M1155.23 1047C1154.29 1044.13 1153.05 1041.56 1151.52 1039.29C1150.01 1036.99 1148.21 1035.03 1146.11 1033.41C1144.03 1031.79 1141.68 1030.55 1139.03 1029.7C1136.39 1028.85 1133.49 1028.42 1130.34 1028.42C1125.17 1028.42 1120.47 1029.76 1116.24 1032.43C1112 1035.1 1108.64 1039.03 1106.14 1044.23C1103.64 1049.43 1102.39 1055.81 1102.39 1063.36C1102.39 1070.92 1103.65 1077.3 1106.18 1082.5C1108.71 1087.7 1112.13 1091.63 1116.45 1094.3C1120.77 1096.97 1125.63 1098.31 1131.02 1098.31C1136.02 1098.31 1140.43 1097.24 1144.23 1095.11C1148.07 1092.95 1151.05 1089.91 1153.18 1085.99C1155.34 1082.04 1156.42 1077.4 1156.42 1072.06L1159.66 1072.74H1133.41V1063.36H1166.65V1072.74C1166.65 1079.93 1165.11 1086.18 1162.05 1091.49C1159.01 1096.8 1154.8 1100.92 1149.43 1103.85C1144.09 1106.74 1137.95 1108.19 1131.02 1108.19C1123.3 1108.19 1116.51 1106.38 1110.65 1102.74C1104.83 1099.1 1100.28 1093.93 1097.02 1087.23C1093.78 1080.52 1092.16 1072.57 1092.16 1063.36C1092.16 1056.46 1093.08 1050.25 1094.93 1044.74C1096.8 1039.2 1099.45 1034.49 1102.86 1030.59C1106.26 1026.7 1110.3 1023.72 1114.96 1021.64C1119.62 1019.57 1124.74 1018.53 1130.34 1018.53C1134.94 1018.53 1139.23 1019.23 1143.21 1020.62C1147.22 1021.99 1150.78 1023.93 1153.91 1026.46C1157.06 1028.96 1159.69 1031.96 1161.79 1035.45C1163.89 1038.92 1165.34 1042.77 1166.14 1047H1155.23Z" fill="white"/>
<path opacity="0.3" d="M608.795 992H598.227C597.602 988.96 596.509 986.29 594.946 983.989C593.412 981.688 591.537 979.756 589.321 978.193C587.134 976.602 584.705 975.409 582.034 974.614C579.364 973.818 576.58 973.42 573.682 973.42C568.398 973.42 563.611 974.756 559.321 977.426C555.06 980.097 551.665 984.031 549.136 989.23C546.636 994.429 545.386 1000.81 545.386 1008.36C545.386 1015.92 546.636 1022.3 549.136 1027.5C551.665 1032.7 555.06 1036.63 559.321 1039.3C563.611 1041.97 568.398 1043.31 573.682 1043.31C576.58 1043.31 579.364 1042.91 582.034 1042.11C584.705 1041.32 587.134 1040.14 589.321 1038.58C591.537 1036.99 593.412 1035.04 594.946 1032.74C596.509 1030.41 597.602 1027.74 598.227 1024.73H608.795C608 1029.19 606.551 1033.18 604.449 1036.7C602.347 1040.22 599.733 1043.22 596.608 1045.69C593.483 1048.14 589.974 1050 586.082 1051.28C582.219 1052.55 578.085 1053.19 573.682 1053.19C566.239 1053.19 559.619 1051.38 553.824 1047.74C548.028 1044.1 543.469 1038.93 540.145 1032.23C536.821 1025.52 535.159 1017.57 535.159 1008.36C535.159 999.159 536.821 991.205 540.145 984.5C543.469 977.795 548.028 972.625 553.824 968.989C559.619 965.352 566.239 963.534 573.682 963.534C578.085 963.534 582.219 964.173 586.082 965.452C589.974 966.73 593.483 968.605 596.608 971.077C599.733 973.52 602.347 976.503 604.449 980.026C606.551 983.52 608 987.511 608.795 992Z" fill="white"/>
<path d="M927.148 1974H916.068L948.114 1886.73H959.023L991.068 1974H979.989L953.909 1900.53H953.227L927.148 1974ZM931.239 1939.91H975.898V1949.28H931.239V1939.91ZM1004.66 1974V1886.73H1035.17C1041.25 1886.73 1046.27 1887.78 1050.22 1889.88C1054.16 1891.95 1057.11 1894.75 1059.04 1898.28C1060.97 1901.77 1061.93 1905.65 1061.93 1909.91C1061.93 1913.66 1061.27 1916.76 1059.93 1919.2C1058.63 1921.64 1056.89 1923.57 1054.73 1924.99C1052.6 1926.41 1050.29 1927.47 1047.79 1928.15V1929C1050.46 1929.17 1053.14 1930.11 1055.84 1931.81C1058.54 1933.52 1060.8 1935.96 1062.62 1939.14C1064.43 1942.32 1065.34 1946.22 1065.34 1950.82C1065.34 1955.19 1064.35 1959.13 1062.36 1962.62C1060.37 1966.12 1057.23 1968.89 1052.94 1970.93C1048.65 1972.98 1043.07 1974 1036.2 1974H1004.66ZM1015.23 1964.62H1036.2C1043.1 1964.62 1048 1963.29 1050.9 1960.62C1053.82 1957.92 1055.29 1954.65 1055.29 1950.82C1055.29 1947.86 1054.53 1945.14 1053.03 1942.64C1051.52 1940.11 1049.38 1938.09 1046.59 1936.59C1043.81 1935.05 1040.51 1934.28 1036.71 1934.28H1015.23V1964.62ZM1015.23 1925.08H1034.83C1038.01 1925.08 1040.88 1924.45 1043.44 1923.2C1046.03 1921.95 1048.07 1920.19 1049.58 1917.92C1051.11 1915.65 1051.88 1912.98 1051.88 1909.91C1051.88 1906.07 1050.54 1902.82 1047.87 1900.15C1045.2 1897.45 1040.97 1896.1 1035.17 1896.1H1015.23V1925.08ZM1140.66 1958.66V1902.41H1150.21V1958.66H1140.66ZM1117.31 1935.31V1925.76H1173.56V1935.31H1117.31ZM1256.24 1974H1229.31V1886.73H1257.44C1265.9 1886.73 1273.15 1888.47 1279.17 1891.97C1285.19 1895.43 1289.81 1900.42 1293.02 1906.93C1296.23 1913.4 1297.83 1921.16 1297.83 1930.19C1297.83 1939.28 1296.21 1947.11 1292.98 1953.67C1289.74 1960.21 1285.02 1965.24 1278.83 1968.76C1272.63 1972.25 1265.11 1974 1256.24 1974ZM1239.88 1964.62H1255.56C1262.78 1964.62 1268.76 1963.23 1273.5 1960.45C1278.25 1957.66 1281.78 1953.7 1284.11 1948.56C1286.44 1943.42 1287.61 1937.3 1287.61 1930.19C1287.61 1923.15 1286.46 1917.08 1284.15 1912C1281.85 1906.88 1278.42 1902.96 1273.84 1900.24C1269.27 1897.48 1263.57 1896.1 1256.75 1896.1H1239.88V1964.62ZM1315.56 1974V1886.73H1368.23V1896.1H1326.13V1925.59H1365.5V1934.97H1326.13V1964.62H1368.91V1974H1315.56ZM1445.23 1958.66V1902.41H1454.78V1958.66H1445.23ZM1421.88 1935.31V1925.76H1478.13V1935.31H1421.88ZM1533.88 1974V1886.73H1544.45V1925.59H1590.98V1886.73H1601.55V1974H1590.98V1934.97H1544.45V1974H1533.88ZM1633.28 1886.73V1974H1622.71V1886.73H1633.28ZM1690.94 1922.35V1913.15H1743.44V1922.35H1690.94ZM1690.94 1947.58V1938.38H1743.44V1947.58H1690.94ZM1830.22 1886.73V1974H1819.65V1897.81H1819.14L1797.83 1911.95V1901.22L1819.65 1886.73H1830.22ZM1884.8 1975.19C1879.18 1975.19 1874.16 1974.23 1869.76 1972.3C1865.39 1970.36 1861.91 1967.68 1859.32 1964.24C1856.76 1960.78 1855.37 1956.76 1855.14 1952.18H1865.88C1866.11 1954.99 1867.08 1957.42 1868.78 1959.47C1870.49 1961.49 1872.72 1963.05 1875.47 1964.16C1878.23 1965.26 1881.28 1965.82 1884.63 1965.82C1888.38 1965.82 1891.71 1965.16 1894.61 1963.86C1897.5 1962.55 1899.78 1960.73 1901.42 1958.4C1903.07 1956.07 1903.89 1953.38 1903.89 1950.31C1903.89 1947.1 1903.1 1944.27 1901.51 1941.83C1899.92 1939.36 1897.59 1937.42 1894.52 1936.03C1891.45 1934.64 1887.7 1933.94 1883.27 1933.94H1876.28V1924.57H1883.27C1886.74 1924.57 1889.78 1923.94 1892.39 1922.69C1895.03 1921.44 1897.09 1919.68 1898.57 1917.41C1900.07 1915.14 1900.83 1912.47 1900.83 1909.4C1900.83 1906.44 1900.17 1903.87 1898.87 1901.68C1897.56 1899.5 1895.71 1897.79 1893.33 1896.57C1890.97 1895.35 1888.18 1894.74 1884.97 1894.74C1881.96 1894.74 1879.12 1895.29 1876.45 1896.4C1873.81 1897.48 1871.65 1899.06 1869.97 1901.13C1868.3 1903.18 1867.39 1905.65 1867.25 1908.55H1857.02C1857.19 1903.97 1858.57 1899.97 1861.15 1896.53C1863.74 1893.06 1867.12 1890.36 1871.3 1888.43C1875.5 1886.5 1880.12 1885.53 1885.14 1885.53C1890.54 1885.53 1895.17 1886.63 1899.04 1888.82C1902.9 1890.97 1905.87 1893.83 1907.94 1897.38C1910.02 1900.93 1911.05 1904.77 1911.05 1908.89C1911.05 1913.8 1909.76 1917.99 1907.18 1921.46C1904.62 1924.92 1901.14 1927.32 1896.74 1928.66V1929.34C1902.25 1930.25 1906.55 1932.59 1909.65 1936.37C1912.74 1940.12 1914.29 1944.77 1914.29 1950.31C1914.29 1955.05 1913 1959.31 1910.41 1963.09C1907.86 1966.84 1904.36 1969.8 1899.93 1971.95C1895.5 1974.11 1890.46 1975.19 1884.8 1975.19ZM1992.23 1975.36C1986.1 1975.36 1980.81 1973.91 1976.38 1971.02C1971.95 1968.12 1968.54 1964.13 1966.15 1959.04C1963.77 1953.96 1962.57 1948.15 1962.57 1941.61C1962.57 1934.97 1963.8 1929.1 1966.24 1924.01C1968.71 1918.9 1972.15 1914.91 1976.55 1912.04C1980.98 1909.14 1986.15 1907.69 1992.06 1907.69C1996.66 1907.69 2000.81 1908.55 2004.51 1910.25C2008.2 1911.95 2011.22 1914.34 2013.58 1917.41C2015.94 1920.48 2017.4 1924.06 2017.97 1928.15H2007.91C2007.15 1925.16 2005.44 1922.52 2002.8 1920.22C2000.19 1917.89 1996.66 1916.73 1992.23 1916.73C1988.31 1916.73 1984.88 1917.75 1981.92 1919.8C1978.99 1921.81 1976.71 1924.67 1975.06 1928.36C1973.44 1932.03 1972.63 1936.33 1972.63 1941.27C1972.63 1946.33 1973.43 1950.73 1975.02 1954.48C1976.64 1958.23 1978.91 1961.14 1981.84 1963.22C1984.79 1965.29 1988.26 1966.33 1992.23 1966.33C1994.85 1966.33 1997.22 1965.88 1999.35 1964.97C2001.48 1964.06 2003.28 1962.75 2004.76 1961.05C2006.24 1959.34 2007.29 1957.3 2007.91 1954.91H2017.97C2017.4 1958.77 2016 1962.25 2013.75 1965.35C2011.54 1968.42 2008.6 1970.86 2004.93 1972.68C2001.3 1974.47 1997.06 1975.36 1992.23 1975.36ZM2032.67 1974V1908.55H2042.39V1918.77H2043.24C2044.61 1915.28 2046.81 1912.57 2049.85 1910.63C2052.89 1908.67 2056.54 1907.69 2060.8 1907.69C2065.12 1907.69 2068.71 1908.67 2071.58 1910.63C2074.48 1912.57 2076.74 1915.28 2078.36 1918.77H2079.04C2080.71 1915.39 2083.23 1912.71 2086.58 1910.72C2089.93 1908.7 2093.95 1907.69 2098.64 1907.69C2104.49 1907.69 2109.28 1909.53 2113 1913.19C2116.72 1916.83 2118.58 1922.49 2118.58 1930.19V1974H2108.53V1930.19C2108.53 1925.36 2107.2 1921.91 2104.56 1919.84C2101.92 1917.76 2098.81 1916.73 2095.23 1916.73C2090.63 1916.73 2087.06 1918.12 2084.53 1920.9C2082.01 1923.66 2080.74 1927.15 2080.74 1931.39V1974H2070.51V1929.17C2070.51 1925.45 2069.31 1922.45 2066.89 1920.18C2064.48 1917.88 2061.37 1916.73 2057.56 1916.73C2054.95 1916.73 2052.5 1917.42 2050.23 1918.82C2047.99 1920.21 2046.17 1922.14 2044.78 1924.61C2043.41 1927.05 2042.73 1929.88 2042.73 1933.09V1974H2032.67Z" fill="#00E6FF"/>
<path d="M1697 1081L1712.88 1053.5H1681.12L1697 1081ZM1697 391L1681.12 418.5H1712.88L1697 391ZM1697 1056.25H1699.75V415.75H1697H1694.25V1056.25H1697Z" fill="white"/>
<path d="M1645 865.239L1567.78 826.205H1567.1V871.205H1557.73V815.295H1567.61L1645 854.159V865.239ZM1646.36 738.9C1646.36 745.036 1644.91 750.32 1642.02 754.752C1639.12 759.184 1635.13 762.593 1630.04 764.979C1624.96 767.366 1619.15 768.559 1612.61 768.559C1605.97 768.559 1600.1 767.337 1595.01 764.894C1589.9 762.423 1585.91 758.985 1583.04 754.582C1580.14 750.15 1578.69 744.979 1578.69 739.07C1578.69 734.468 1579.55 730.32 1581.25 726.627C1582.95 722.934 1585.34 719.908 1588.41 717.55C1591.48 715.192 1595.06 713.729 1599.15 713.161V723.218C1596.16 723.985 1593.52 725.69 1591.22 728.332C1588.89 730.945 1587.73 734.468 1587.73 738.9C1587.73 742.82 1588.75 746.258 1590.8 749.212C1592.81 752.138 1595.67 754.425 1599.36 756.073C1603.03 757.692 1607.33 758.502 1612.27 758.502C1617.33 758.502 1621.73 757.707 1625.48 756.116C1629.23 754.496 1632.14 752.224 1634.22 749.298C1636.29 746.343 1637.33 742.877 1637.33 738.9C1637.33 736.286 1636.88 733.914 1635.97 731.783C1635.06 729.653 1633.75 727.849 1632.05 726.371C1630.34 724.894 1628.3 723.843 1625.91 723.218V713.161C1629.77 713.729 1633.25 715.136 1636.35 717.38C1639.42 719.596 1641.86 722.536 1643.68 726.201C1645.47 729.837 1646.36 734.07 1646.36 738.9ZM1645 698.46H1579.55V688.744H1589.77V687.891C1586.28 686.528 1583.57 684.326 1581.63 681.286C1579.67 678.246 1578.69 674.596 1578.69 670.335C1578.69 666.016 1579.67 662.423 1581.63 659.553C1583.57 656.656 1586.28 654.397 1589.77 652.778V652.096C1586.39 650.42 1583.71 647.906 1581.72 644.553C1579.7 641.201 1578.69 637.181 1578.69 632.494C1578.69 626.641 1580.53 621.854 1584.19 618.133C1587.83 614.411 1593.49 612.55 1601.19 612.55H1645V622.607H1601.19C1596.36 622.607 1592.91 623.928 1590.84 626.57C1588.76 629.212 1587.73 632.323 1587.73 635.903C1587.73 640.505 1589.12 644.07 1591.9 646.599C1594.66 649.127 1598.15 650.391 1602.39 650.391H1645V660.619H1600.17C1596.45 660.619 1593.45 661.826 1591.18 664.241C1588.88 666.656 1587.73 669.766 1587.73 673.573C1587.73 676.187 1588.42 678.63 1589.82 680.903C1591.21 683.147 1593.14 684.965 1595.61 686.357C1598.05 687.721 1600.88 688.403 1604.09 688.403H1645V698.46Z" fill="white"/>
<line x1="1212" y1="1588" x2="1696" y2="1588" stroke="#FFF200" stroke-width="16" stroke-linecap="round"/>
</svg>
