<svg width="794" height="455" viewBox="0 0 794 455" fill="none" xmlns="http://www.w3.org/2000/svg">
<rect x="63" y="75" width="316" height="239" fill="#F96F2A"/>
<path d="M62.289 326.274C61.8985 326.664 61.8985 327.297 62.289 327.688L68.6529 334.052C69.0435 334.442 69.6766 334.442 70.0672 334.052C70.4577 333.661 70.4577 333.028 70.0672 332.638L64.4103 326.981L70.0672 321.324C70.4577 320.933 70.4577 320.3 70.0672 319.91C69.6766 319.519 69.0435 319.519 68.6529 319.91L62.289 326.274ZM379.71 327.688C380.1 327.297 380.1 326.664 379.71 326.274L373.346 319.91C372.955 319.519 372.322 319.519 371.931 319.91C371.541 320.3 371.541 320.933 371.931 321.324L377.588 326.981L371.931 332.638C371.541 333.028 371.541 333.661 371.931 334.052C372.322 334.442 372.955 334.442 373.346 334.052L379.71 327.688ZM62.9961 326.981V327.981H379.002V326.981V325.981H62.9961V326.981Z" fill="white"/>
<path d="M48.2929 314.759C48.6834 315.15 49.3166 315.15 49.7071 314.759L56.0711 308.395C56.4616 308.005 56.4616 307.372 56.0711 306.981C55.6805 306.591 55.0474 306.591 54.6569 306.981L49 312.638L43.3431 306.981C42.9526 306.591 42.3195 306.591 41.9289 306.981C41.5384 307.372 41.5384 308.005 41.9289 308.395L48.2929 314.759ZM49.7071 74.2929C49.3166 73.9023 48.6834 73.9023 48.2929 74.2929L41.9289 80.6568C41.5384 81.0473 41.5384 81.6805 41.9289 82.071C42.3195 82.4616 42.9526 82.4616 43.3431 82.071L49 76.4142L54.6569 82.071C55.0474 82.4616 55.6805 82.4616 56.0711 82.071C56.4616 81.6805 56.4616 81.0473 56.0711 80.6568L49.7071 74.2929ZM49 314.052H50L50 75H49H48L48 314.052H49Z" fill="white"/>
<path d="M36 241.516H33.8906L25.2187 233.594C24.2031 232.664 23.3203 231.898 22.5703 231.297C21.8125 230.695 21.1016 230.25 20.4375 229.961C19.7656 229.664 19.0625 229.516 18.3281 229.516C17.4844 229.516 16.7539 229.719 16.1367 230.125C15.5195 230.523 15.043 231.07 14.707 231.766C14.3711 232.461 14.2031 233.242 14.2031 234.109C14.2031 235.031 14.3945 235.836 14.7773 236.523C15.1523 237.203 15.6797 237.73 16.3594 238.105C17.0391 238.473 17.8359 238.656 18.75 238.656V241.422C17.3437 241.422 16.1094 241.098 15.0469 240.449C13.9844 239.801 13.1562 238.918 12.5625 237.801C11.9687 236.676 11.6719 235.414 11.6719 234.016C11.6719 232.609 11.9687 231.363 12.5625 230.277C13.1562 229.191 13.957 228.34 14.9648 227.723C15.9727 227.105 17.0938 226.797 18.3281 226.797C19.2109 226.797 20.0742 226.957 20.918 227.277C21.7539 227.59 22.6875 228.137 23.7187 228.918C24.7422 229.691 25.9922 230.766 27.4687 232.141L33.2344 237.531H33.4219V226.375H36V241.516ZM36.3281 213.707C36.3281 215.473 35.8477 216.977 34.8867 218.219C33.918 219.461 32.5156 220.41 30.6797 221.066C28.8359 221.723 26.6094 222.051 24 222.051C21.4062 222.051 19.1914 221.723 17.3555 221.066C15.5117 220.402 14.1055 219.449 13.1367 218.207C12.1602 216.957 11.6719 215.457 11.6719 213.707C11.6719 211.957 12.1602 210.461 13.1367 209.219C14.1055 207.969 15.5117 207.016 17.3555 206.359C19.1914 205.695 21.4062 205.363 24 205.363C26.6094 205.363 28.8359 205.691 30.6797 206.348C32.5156 207.004 33.918 207.953 34.8867 209.195C35.8477 210.437 36.3281 211.941 36.3281 213.707ZM33.75 213.707C33.75 211.957 32.9062 210.598 31.2187 209.629C29.5312 208.66 27.125 208.176 24 208.176C21.9219 208.176 20.1523 208.398 18.6914 208.844C17.2305 209.281 16.1172 209.914 15.3516 210.742C14.5859 211.562 14.2031 212.551 14.2031 213.707C14.2031 215.441 15.0586 216.797 16.7695 217.773C18.4727 218.75 20.8828 219.238 24 219.238C26.0781 219.238 27.8437 219.02 29.2969 218.582C30.75 218.145 31.8555 217.516 32.6133 216.695C33.3711 215.867 33.75 214.871 33.75 213.707ZM36.375 184.27C36.375 185.957 35.9766 187.41 35.1797 188.629C34.3828 189.848 33.2852 190.785 31.8867 191.441C30.4883 192.098 28.8906 192.426 27.0937 192.426C25.2656 192.426 23.6523 192.09 22.2539 191.418C20.8477 190.738 19.75 189.793 18.9609 188.582C18.1641 187.363 17.7656 185.941 17.7656 184.316C17.7656 183.051 18 181.91 18.4688 180.895C18.9375 179.879 19.5937 179.047 20.4375 178.398C21.2812 177.75 22.2656 177.348 23.3906 177.191V179.957C22.5703 180.168 21.8437 180.637 21.2109 181.363C20.5703 182.082 20.25 183.051 20.25 184.27C20.25 185.348 20.5312 186.293 21.0937 187.105C21.6484 187.91 22.4336 188.539 23.4492 188.992C24.457 189.437 25.6406 189.66 27 189.66C28.3906 189.66 29.6016 189.441 30.6328 189.004C31.6641 188.559 32.4648 187.934 33.0352 187.129C33.6055 186.316 33.8906 185.363 33.8906 184.27C33.8906 183.551 33.7656 182.898 33.5156 182.312C33.2656 181.727 32.9062 181.23 32.4375 180.824C31.9687 180.418 31.4062 180.129 30.75 179.957V177.191C31.8125 177.348 32.7695 177.734 33.6211 178.352C34.4648 178.961 35.1367 179.77 35.6367 180.777C36.1289 181.777 36.375 182.941 36.375 184.27ZM36 173.148H18V170.477H20.8125V170.242C19.8516 169.867 19.1055 169.262 18.5742 168.426C18.0352 167.59 17.7656 166.586 17.7656 165.414C17.7656 164.227 18.0352 163.238 18.5742 162.449C19.1055 161.652 19.8516 161.031 20.8125 160.586V160.398C19.8828 159.937 19.1445 159.246 18.5977 158.324C18.043 157.402 17.7656 156.297 17.7656 155.008C17.7656 153.398 18.2695 152.082 19.2773 151.059C20.2773 150.035 21.8359 149.523 23.9531 149.523H36V152.289H23.9531C22.625 152.289 21.6758 152.652 21.1055 153.379C20.5352 154.105 20.25 154.961 20.25 155.945C20.25 157.211 20.6328 158.191 21.3984 158.887C22.1562 159.582 23.1172 159.93 24.2812 159.93H36V162.742H23.6719C22.6484 162.742 21.8242 163.074 21.1992 163.738C20.5664 164.402 20.25 165.258 20.25 166.305C20.25 167.023 20.4414 167.695 20.8242 168.32C21.207 168.937 21.7383 169.437 22.418 169.82C23.0898 170.195 23.8672 170.383 24.75 170.383H36V173.148Z" fill="white"/>
<path d="M175.484 372V369.891L183.406 361.219C184.336 360.203 185.102 359.32 185.703 358.57C186.305 357.812 186.75 357.102 187.039 356.437C187.336 355.766 187.484 355.062 187.484 354.328C187.484 353.484 187.281 352.754 186.875 352.137C186.477 351.52 185.93 351.043 185.234 350.707C184.539 350.371 183.758 350.203 182.891 350.203C181.969 350.203 181.164 350.395 180.477 350.777C179.797 351.152 179.27 351.68 178.895 352.359C178.527 353.039 178.344 353.836 178.344 354.75H175.578C175.578 353.344 175.902 352.109 176.551 351.047C177.199 349.984 178.082 349.156 179.199 348.562C180.324 347.969 181.586 347.672 182.984 347.672C184.391 347.672 185.637 347.969 186.723 348.562C187.809 349.156 188.66 349.957 189.277 350.965C189.895 351.973 190.203 353.094 190.203 354.328C190.203 355.211 190.043 356.074 189.723 356.918C189.41 357.754 188.863 358.687 188.082 359.719C187.309 360.742 186.234 361.992 184.859 363.469L179.469 369.234V369.422H190.625V372H175.484ZM196.215 372L206.949 350.766V350.578H194.574V348H209.949V350.719L199.262 372H196.215ZM230.958 372.375C229.271 372.375 227.817 371.977 226.599 371.18C225.38 370.383 224.442 369.285 223.786 367.887C223.13 366.488 222.802 364.891 222.802 363.094C222.802 361.266 223.138 359.652 223.81 358.254C224.489 356.848 225.435 355.75 226.646 354.961C227.864 354.164 229.286 353.766 230.911 353.766C232.177 353.766 233.317 354 234.333 354.469C235.349 354.937 236.181 355.594 236.829 356.437C237.478 357.281 237.88 358.266 238.036 359.391H235.271C235.06 358.57 234.591 357.844 233.864 357.211C233.146 356.57 232.177 356.25 230.958 356.25C229.88 356.25 228.935 356.531 228.122 357.094C227.317 357.648 226.688 358.434 226.235 359.449C225.79 360.457 225.567 361.641 225.567 363C225.567 364.391 225.786 365.602 226.224 366.633C226.669 367.664 227.294 368.465 228.099 369.035C228.911 369.605 229.864 369.891 230.958 369.891C231.677 369.891 232.329 369.766 232.915 369.516C233.501 369.266 233.997 368.906 234.403 368.437C234.81 367.969 235.099 367.406 235.271 366.75H238.036C237.88 367.812 237.493 368.77 236.876 369.621C236.267 370.465 235.458 371.137 234.45 371.637C233.45 372.129 232.286 372.375 230.958 372.375ZM242.079 372V354H244.751V356.812H244.985C245.36 355.852 245.966 355.105 246.802 354.574C247.638 354.035 248.642 353.766 249.813 353.766C251.001 353.766 251.989 354.035 252.778 354.574C253.575 355.105 254.196 355.852 254.642 356.812H254.829C255.29 355.883 255.981 355.145 256.903 354.598C257.825 354.043 258.931 353.766 260.22 353.766C261.829 353.766 263.146 354.27 264.169 355.277C265.192 356.277 265.704 357.836 265.704 359.953V372H262.938V359.953C262.938 358.625 262.575 357.676 261.849 357.105C261.122 356.535 260.267 356.25 259.282 356.25C258.017 356.25 257.036 356.633 256.341 357.398C255.646 358.156 255.298 359.117 255.298 360.281V372H252.485V359.672C252.485 358.648 252.153 357.824 251.489 357.199C250.825 356.566 249.97 356.25 248.923 356.25C248.204 356.25 247.532 356.441 246.907 356.824C246.29 357.207 245.79 357.738 245.407 358.418C245.032 359.09 244.845 359.867 244.845 360.75V372H242.079Z" fill="white"/>
</svg>
