<svg width="672" height="389" viewBox="0 0 672 389" fill="none" xmlns="http://www.w3.org/2000/svg">
<rect x="63" y="75" width="316" height="239" fill="#F96F2A"/>
<path d="M62.2896 326.274C61.8991 326.664 61.8991 327.297 62.2896 327.688L68.6536 334.052C69.0441 334.442 69.6772 334.442 70.0678 334.052C70.4583 333.661 70.4583 333.028 70.0678 332.638L64.4109 326.981L70.0678 321.324C70.4583 320.933 70.4583 320.3 70.0678 319.91C69.6772 319.519 69.0441 319.519 68.6536 319.91L62.2896 326.274ZM379.71 327.688C380.101 327.297 380.101 326.664 379.71 326.274L373.346 319.91C372.956 319.519 372.322 319.519 371.932 319.91C371.541 320.3 371.541 320.933 371.932 321.324L377.589 326.981L371.932 332.638C371.541 333.028 371.541 333.661 371.932 334.052C372.322 334.442 372.956 334.442 373.346 334.052L379.71 327.688ZM62.9967 326.981V327.981H379.003V326.981V325.981H62.9967V326.981Z" fill="white"/>
<path d="M48.2929 314.759C48.6834 315.15 49.3166 315.15 49.7071 314.759L56.0711 308.395C56.4616 308.005 56.4616 307.372 56.0711 306.981C55.6805 306.591 55.0474 306.591 54.6569 306.981L49 312.638L43.3431 306.981C42.9526 306.591 42.3195 306.591 41.9289 306.981C41.5384 307.372 41.5384 308.005 41.9289 308.395L48.2929 314.759ZM49.7071 74.2929C49.3166 73.9023 48.6834 73.9023 48.2929 74.2929L41.9289 80.6568C41.5384 81.0473 41.5384 81.6805 41.9289 82.071C42.3195 82.4616 42.9526 82.4616 43.3431 82.071L49 76.4142L54.6569 82.071C55.0474 82.4616 55.6805 82.4616 56.0711 82.071C56.4616 81.6805 56.4616 81.0473 56.0711 80.6568L49.7071 74.2929ZM49 314.052H50L50 75H49H48L48 314.052H49Z" fill="white"/>
<path d="M36 241.516H33.8906L25.2187 233.594C24.2031 232.664 23.3203 231.898 22.5703 231.297C21.8125 230.695 21.1016 230.25 20.4375 229.961C19.7656 229.664 19.0625 229.516 18.3281 229.516C17.4844 229.516 16.7539 229.719 16.1367 230.125C15.5195 230.523 15.043 231.07 14.707 231.766C14.3711 232.461 14.2031 233.242 14.2031 234.109C14.2031 235.031 14.3945 235.836 14.7773 236.523C15.1523 237.203 15.6797 237.73 16.3594 238.105C17.0391 238.473 17.8359 238.656 18.75 238.656V241.422C17.3437 241.422 16.1094 241.098 15.0469 240.449C13.9844 239.801 13.1562 238.918 12.5625 237.801C11.9687 236.676 11.6719 235.414 11.6719 234.016C11.6719 232.609 11.9687 231.363 12.5625 230.277C13.1562 229.191 13.957 228.34 14.9648 227.723C15.9727 227.105 17.0938 226.797 18.3281 226.797C19.2109 226.797 20.0742 226.957 20.918 227.277C21.7539 227.59 22.6875 228.137 23.7187 228.918C24.7422 229.691 25.9922 230.766 27.4687 232.141L33.2344 237.531H33.4219V226.375H36V241.516ZM36.3281 213.707C36.3281 215.473 35.8477 216.977 34.8867 218.219C33.918 219.461 32.5156 220.41 30.6797 221.066C28.8359 221.723 26.6094 222.051 24 222.051C21.4062 222.051 19.1914 221.723 17.3555 221.066C15.5117 220.402 14.1055 219.449 13.1367 218.207C12.1602 216.957 11.6719 215.457 11.6719 213.707C11.6719 211.957 12.1602 210.461 13.1367 209.219C14.1055 207.969 15.5117 207.016 17.3555 206.359C19.1914 205.695 21.4062 205.363 24 205.363C26.6094 205.363 28.8359 205.691 30.6797 206.348C32.5156 207.004 33.918 207.953 34.8867 209.195C35.8477 210.437 36.3281 211.941 36.3281 213.707ZM33.75 213.707C33.75 211.957 32.9062 210.598 31.2187 209.629C29.5312 208.66 27.125 208.176 24 208.176C21.9219 208.176 20.1523 208.398 18.6914 208.844C17.2305 209.281 16.1172 209.914 15.3516 210.742C14.5859 211.562 14.2031 212.551 14.2031 213.707C14.2031 215.441 15.0586 216.797 16.7695 217.773C18.4727 218.75 20.8828 219.238 24 219.238C26.0781 219.238 27.8437 219.02 29.2969 218.582C30.75 218.145 31.8555 217.516 32.6133 216.695C33.3711 215.867 33.75 214.871 33.75 213.707ZM36.375 184.27C36.375 185.957 35.9766 187.41 35.1797 188.629C34.3828 189.848 33.2852 190.785 31.8867 191.441C30.4883 192.098 28.8906 192.426 27.0937 192.426C25.2656 192.426 23.6523 192.09 22.2539 191.418C20.8477 190.738 19.75 189.793 18.9609 188.582C18.1641 187.363 17.7656 185.941 17.7656 184.316C17.7656 183.051 18 181.91 18.4688 180.895C18.9375 179.879 19.5937 179.047 20.4375 178.398C21.2812 177.75 22.2656 177.348 23.3906 177.191V179.957C22.5703 180.168 21.8437 180.637 21.2109 181.363C20.5703 182.082 20.25 183.051 20.25 184.27C20.25 185.348 20.5312 186.293 21.0937 187.105C21.6484 187.91 22.4336 188.539 23.4492 188.992C24.457 189.437 25.6406 189.66 27 189.66C28.3906 189.66 29.6016 189.441 30.6328 189.004C31.6641 188.559 32.4648 187.934 33.0352 187.129C33.6055 186.316 33.8906 185.363 33.8906 184.27C33.8906 183.551 33.7656 182.898 33.5156 182.312C33.2656 181.727 32.9062 181.23 32.4375 180.824C31.9687 180.418 31.4062 180.129 30.75 179.957V177.191C31.8125 177.348 32.7695 177.734 33.6211 178.352C34.4648 178.961 35.1367 179.77 35.6367 180.777C36.1289 181.777 36.375 182.941 36.375 184.27ZM36 173.148H18V170.477H20.8125V170.242C19.8516 169.867 19.1055 169.262 18.5742 168.426C18.0352 167.59 17.7656 166.586 17.7656 165.414C17.7656 164.227 18.0352 163.238 18.5742 162.449C19.1055 161.652 19.8516 161.031 20.8125 160.586V160.398C19.8828 159.937 19.1445 159.246 18.5977 158.324C18.043 157.402 17.7656 156.297 17.7656 155.008C17.7656 153.398 18.2695 152.082 19.2773 151.059C20.2773 150.035 21.8359 149.523 23.9531 149.523H36V152.289H23.9531C22.625 152.289 21.6758 152.652 21.1055 153.379C20.5352 154.105 20.25 154.961 20.25 155.945C20.25 157.211 20.6328 158.191 21.3984 158.887C22.1562 159.582 23.1172 159.93 24.2812 159.93H36V162.742H23.6719C22.6484 162.742 21.8242 163.074 21.1992 163.738C20.5664 164.402 20.25 165.258 20.25 166.305C20.25 167.023 20.4414 167.695 20.8242 168.32C21.207 168.937 21.7383 169.437 22.418 169.82C23.0898 170.195 23.8672 170.383 24.75 170.383H36V173.148Z" fill="white"/>
<path d="M175.484 372V369.891L183.406 361.219C184.336 360.203 185.102 359.32 185.703 358.57C186.305 357.812 186.75 357.102 187.039 356.437C187.336 355.766 187.484 355.062 187.484 354.328C187.484 353.484 187.281 352.754 186.875 352.137C186.477 351.52 185.93 351.043 185.234 350.707C184.539 350.371 183.758 350.203 182.891 350.203C181.969 350.203 181.164 350.395 180.477 350.777C179.797 351.152 179.27 351.68 178.895 352.359C178.527 353.039 178.344 353.836 178.344 354.75H175.578C175.578 353.344 175.902 352.109 176.551 351.047C177.199 349.984 178.082 349.156 179.199 348.562C180.324 347.969 181.586 347.672 182.984 347.672C184.391 347.672 185.637 347.969 186.723 348.562C187.809 349.156 188.66 349.957 189.277 350.965C189.895 351.973 190.203 353.094 190.203 354.328C190.203 355.211 190.043 356.074 189.723 356.918C189.41 357.754 188.863 358.687 188.082 359.719C187.309 360.742 186.234 361.992 184.859 363.469L179.469 369.234V369.422H190.625V372H175.484ZM196.215 372L206.949 350.766V350.578H194.574V348H209.949V350.719L199.262 372H196.215ZM230.958 372.375C229.271 372.375 227.817 371.977 226.599 371.18C225.38 370.383 224.442 369.285 223.786 367.887C223.13 366.488 222.802 364.891 222.802 363.094C222.802 361.266 223.138 359.652 223.81 358.254C224.489 356.848 225.435 355.75 226.646 354.961C227.864 354.164 229.286 353.766 230.911 353.766C232.177 353.766 233.317 354 234.333 354.469C235.349 354.937 236.181 355.594 236.829 356.437C237.478 357.281 237.88 358.266 238.036 359.391H235.271C235.06 358.57 234.591 357.844 233.864 357.211C233.146 356.57 232.177 356.25 230.958 356.25C229.88 356.25 228.935 356.531 228.122 357.094C227.317 357.648 226.688 358.434 226.235 359.449C225.79 360.457 225.567 361.641 225.567 363C225.567 364.391 225.786 365.602 226.224 366.633C226.669 367.664 227.294 368.465 228.099 369.035C228.911 369.605 229.864 369.891 230.958 369.891C231.677 369.891 232.329 369.766 232.915 369.516C233.501 369.266 233.997 368.906 234.403 368.437C234.81 367.969 235.099 367.406 235.271 366.75H238.036C237.88 367.812 237.493 368.77 236.876 369.621C236.267 370.465 235.458 371.137 234.45 371.637C233.45 372.129 232.286 372.375 230.958 372.375ZM242.079 372V354H244.751V356.812H244.985C245.36 355.852 245.966 355.105 246.802 354.574C247.638 354.035 248.642 353.766 249.813 353.766C251.001 353.766 251.989 354.035 252.778 354.574C253.575 355.105 254.196 355.852 254.642 356.812H254.829C255.29 355.883 255.981 355.145 256.903 354.598C257.825 354.043 258.931 353.766 260.22 353.766C261.829 353.766 263.146 354.27 264.169 355.277C265.192 356.277 265.704 357.836 265.704 359.953V372H262.938V359.953C262.938 358.625 262.575 357.676 261.849 357.105C261.122 356.535 260.267 356.25 259.282 356.25C258.017 356.25 257.036 356.633 256.341 357.398C255.646 358.156 255.298 359.117 255.298 360.281V372H252.485V359.672C252.485 358.648 252.153 357.824 251.489 357.199C250.825 356.566 249.97 356.25 248.923 356.25C248.204 356.25 247.532 356.441 246.907 356.824C246.29 357.207 245.79 357.738 245.407 358.418C245.032 359.09 244.845 359.867 244.845 360.75V372H242.079Z" fill="white"/>
<path d="M273.084 129.7L342.837 260.3H99.0832L157.457 129.7H273.084Z" fill="#24CEFB" stroke="white" stroke-width="1.4"/>
<line x1="159.004" y1="130" x2="159.004" y2="261" stroke="white" stroke-width="2" stroke-dasharray="4 4"/>
<path d="M173.278 186.818V205H171.077V189.126H170.97L166.531 192.074V189.837L171.077 186.818H173.278ZM184.331 205.249C183.112 205.249 182.035 205.033 181.1 204.6C180.17 204.163 179.445 203.562 178.925 202.798C178.404 202.029 178.146 201.153 178.152 200.17C178.146 199.401 178.297 198.691 178.605 198.04C178.913 197.383 179.333 196.835 179.866 196.397C180.404 195.953 181.005 195.672 181.668 195.554V195.447C180.798 195.223 180.105 194.734 179.59 193.983C179.075 193.225 178.821 192.364 178.827 191.399C178.821 190.476 179.055 189.65 179.528 188.922C180.002 188.194 180.653 187.62 181.481 187.2C182.316 186.78 183.266 186.57 184.331 186.57C185.385 186.57 186.326 186.78 187.154 187.2C187.983 187.62 188.634 188.194 189.107 188.922C189.587 189.65 189.829 190.476 189.835 191.399C189.829 192.364 189.566 193.225 189.045 193.983C188.53 194.734 187.847 195.223 186.995 195.447V195.554C187.651 195.672 188.243 195.953 188.77 196.397C189.297 196.835 189.717 197.383 190.031 198.04C190.344 198.691 190.504 199.401 190.51 200.17C190.504 201.153 190.238 202.029 189.711 202.798C189.19 203.562 188.465 204.163 187.536 204.6C186.613 205.033 185.544 205.249 184.331 205.249ZM184.331 203.295C185.154 203.295 185.864 203.162 186.462 202.896C187.06 202.63 187.521 202.254 187.847 201.768C188.172 201.283 188.338 200.715 188.344 200.064C188.338 199.377 188.16 198.771 187.811 198.244C187.462 197.717 186.986 197.303 186.382 197.001C185.784 196.699 185.101 196.548 184.331 196.548C183.556 196.548 182.863 196.699 182.254 197.001C181.65 197.303 181.174 197.717 180.824 198.244C180.481 198.771 180.312 199.377 180.318 200.064C180.312 200.715 180.469 201.283 180.789 201.768C181.114 202.254 181.579 202.63 182.183 202.896C182.786 203.162 183.503 203.295 184.331 203.295ZM184.331 194.666C184.982 194.666 185.559 194.536 186.062 194.276C186.571 194.015 186.971 193.651 187.261 193.184C187.551 192.716 187.699 192.169 187.705 191.541C187.699 190.926 187.554 190.39 187.27 189.934C186.986 189.473 186.592 189.118 186.089 188.869C185.586 188.614 185 188.487 184.331 188.487C183.651 188.487 183.056 188.614 182.547 188.869C182.038 189.118 181.644 189.473 181.366 189.934C181.088 190.39 180.952 190.926 180.958 191.541C180.952 192.169 181.091 192.716 181.375 193.184C181.665 193.651 182.064 194.015 182.573 194.276C183.082 194.536 183.668 194.666 184.331 194.666ZM206.519 205.284C205.241 205.284 204.14 204.982 203.217 204.379C202.293 203.775 201.583 202.943 201.086 201.884C200.589 200.824 200.34 199.614 200.34 198.253C200.34 196.868 200.595 195.646 201.104 194.586C201.619 193.521 202.335 192.689 203.252 192.092C204.175 191.488 205.253 191.186 206.484 191.186C207.442 191.186 208.306 191.364 209.076 191.719C209.845 192.074 210.476 192.571 210.967 193.21C211.458 193.849 211.763 194.595 211.881 195.447H209.786C209.626 194.826 209.271 194.276 208.721 193.796C208.176 193.311 207.442 193.068 206.519 193.068C205.702 193.068 204.986 193.281 204.371 193.707C203.761 194.128 203.285 194.722 202.941 195.492C202.604 196.255 202.435 197.152 202.435 198.182C202.435 199.235 202.601 200.153 202.932 200.934C203.27 201.715 203.743 202.322 204.353 202.754C204.968 203.186 205.69 203.402 206.519 203.402C207.064 203.402 207.558 203.307 208.002 203.118C208.446 202.929 208.821 202.656 209.129 202.301C209.437 201.946 209.656 201.52 209.786 201.023H211.881C211.763 201.828 211.47 202.553 211.002 203.198C210.541 203.837 209.928 204.346 209.165 204.725C208.407 205.098 207.525 205.284 206.519 205.284ZM214.944 205V191.364H216.968V193.494H217.146C217.43 192.766 217.889 192.201 218.522 191.799C219.155 191.39 219.916 191.186 220.804 191.186C221.703 191.186 222.452 191.39 223.05 191.799C223.653 192.201 224.124 192.766 224.461 193.494H224.603C224.952 192.79 225.476 192.231 226.175 191.816C226.873 191.396 227.711 191.186 228.687 191.186C229.906 191.186 230.904 191.568 231.679 192.331C232.454 193.089 232.842 194.27 232.842 195.874V205H230.747V195.874C230.747 194.867 230.472 194.148 229.921 193.716C229.371 193.284 228.723 193.068 227.977 193.068C227.018 193.068 226.275 193.358 225.748 193.938C225.222 194.512 224.958 195.24 224.958 196.122V205H222.828V195.661C222.828 194.885 222.576 194.261 222.073 193.787C221.57 193.308 220.922 193.068 220.129 193.068C219.584 193.068 219.075 193.213 218.602 193.503C218.134 193.793 217.755 194.196 217.465 194.711C217.181 195.22 217.039 195.808 217.039 196.477V205H214.944Z" fill="white"/>
<path d="M187.278 91.8182V110H185.077V94.1264H184.97L180.531 97.0739V94.8366L185.077 91.8182H187.278ZM192.507 110V108.402L198.509 101.832C199.213 101.063 199.793 100.394 200.249 99.826C200.704 99.2519 201.042 98.7133 201.261 98.2102C201.486 97.7012 201.598 97.1686 201.598 96.6122C201.598 95.973 201.444 95.4196 201.137 94.9521C200.835 94.4845 200.42 94.1235 199.894 93.869C199.367 93.6145 198.775 93.4872 198.118 93.4872C197.42 93.4872 196.81 93.6322 196.289 93.9222C195.774 94.2063 195.375 94.6058 195.091 95.1207C194.813 95.6357 194.673 96.2393 194.673 96.9318H192.578C192.578 95.8665 192.824 94.9313 193.315 94.1264C193.806 93.3215 194.475 92.6941 195.322 92.2443C196.174 91.7945 197.13 91.5696 198.189 91.5696C199.254 91.5696 200.198 91.7945 201.021 92.2443C201.844 92.6941 202.489 93.3008 202.957 94.0643C203.424 94.8278 203.658 95.6771 203.658 96.6122C203.658 97.281 203.537 97.935 203.294 98.5742C203.057 99.2075 202.643 99.9148 202.051 100.696C201.465 101.471 200.651 102.418 199.61 103.537L195.526 107.905V108.047H203.977V110H192.507ZM220.251 110.284C218.972 110.284 217.871 109.982 216.948 109.379C216.025 108.775 215.314 107.943 214.817 106.884C214.32 105.824 214.072 104.614 214.072 103.253C214.072 101.868 214.326 100.646 214.835 99.5863C215.35 98.521 216.066 97.6894 216.983 97.0916C217.907 96.4879 218.984 96.1861 220.215 96.1861C221.174 96.1861 222.038 96.3636 222.807 96.7188C223.577 97.0739 224.207 97.571 224.698 98.2102C225.19 98.8494 225.494 99.5952 225.613 100.447H223.518C223.358 99.826 223.003 99.2756 222.452 98.7962C221.908 98.3108 221.174 98.0682 220.251 98.0682C219.434 98.0682 218.718 98.2812 218.102 98.7074C217.492 99.1276 217.016 99.7224 216.673 100.492C216.335 101.255 216.167 102.152 216.167 103.182C216.167 104.235 216.332 105.153 216.664 105.934C217.001 106.715 217.475 107.322 218.084 107.754C218.7 108.186 219.422 108.402 220.251 108.402C220.795 108.402 221.289 108.307 221.733 108.118C222.177 107.929 222.553 107.656 222.861 107.301C223.168 106.946 223.387 106.52 223.518 106.023H225.613C225.494 106.828 225.201 107.553 224.734 108.198C224.272 108.837 223.66 109.346 222.896 109.725C222.139 110.098 221.257 110.284 220.251 110.284ZM228.676 110V96.3636H230.7V98.4943H230.877C231.161 97.7663 231.62 97.2011 232.253 96.7987C232.887 96.3903 233.647 96.1861 234.535 96.1861C235.435 96.1861 236.183 96.3903 236.781 96.7987C237.385 97.2011 237.855 97.7663 238.193 98.4943H238.335C238.684 97.79 239.208 97.2307 239.906 96.8164C240.604 96.3962 241.442 96.1861 242.419 96.1861C243.638 96.1861 244.635 96.5678 245.41 97.3313C246.186 98.0889 246.573 99.2696 246.573 100.874V110H244.478V100.874C244.478 99.8674 244.203 99.1483 243.653 98.7163C243.102 98.2842 242.454 98.0682 241.708 98.0682C240.749 98.0682 240.007 98.3582 239.48 98.9382C238.953 99.5123 238.69 100.24 238.69 101.122V110H236.559V100.661C236.559 99.8852 236.308 99.2608 235.805 98.7873C235.301 98.3079 234.653 98.0682 233.86 98.0682C233.316 98.0682 232.807 98.2132 232.333 98.5032C231.866 98.7932 231.487 99.1957 231.197 99.7106C230.913 100.22 230.771 100.808 230.771 101.477V110H228.676Z" fill="white"/>
<path d="M181.886 297V295.402L187.888 288.832C188.592 288.063 189.172 287.394 189.628 286.826C190.083 286.252 190.421 285.713 190.64 285.21C190.865 284.701 190.977 284.169 190.977 283.612C190.977 282.973 190.823 282.42 190.515 281.952C190.214 281.484 189.799 281.123 189.273 280.869C188.746 280.614 188.154 280.487 187.497 280.487C186.799 280.487 186.189 280.632 185.668 280.922C185.153 281.206 184.754 281.606 184.47 282.121C184.191 282.636 184.052 283.239 184.052 283.932H181.957C181.957 282.866 182.203 281.931 182.694 281.126C183.185 280.321 183.854 279.694 184.7 279.244C185.553 278.795 186.509 278.57 187.568 278.57C188.633 278.57 189.577 278.795 190.4 279.244C191.223 279.694 191.868 280.301 192.335 281.064C192.803 281.828 193.037 282.677 193.037 283.612C193.037 284.281 192.915 284.935 192.673 285.574C192.436 286.208 192.022 286.915 191.43 287.696C190.844 288.471 190.03 289.418 188.988 290.537L184.905 294.905V295.047H193.356V297H181.886ZM196.206 293.271V291.46L204.196 278.818H205.51V281.624H204.622L198.585 291.176V291.318H209.345V293.271H196.206ZM204.764 297V292.721V291.877V278.818H206.86V297H204.764ZM225.279 297.284C224 297.284 222.9 296.982 221.976 296.379C221.053 295.775 220.343 294.943 219.846 293.884C219.348 292.824 219.1 291.614 219.1 290.253C219.1 288.868 219.354 287.646 219.863 286.586C220.378 285.521 221.094 284.689 222.012 284.092C222.935 283.488 224.012 283.186 225.243 283.186C226.202 283.186 227.066 283.364 227.836 283.719C228.605 284.074 229.235 284.571 229.727 285.21C230.218 285.849 230.523 286.595 230.641 287.447H228.546C228.386 286.826 228.031 286.276 227.481 285.796C226.936 285.311 226.202 285.068 225.279 285.068C224.462 285.068 223.746 285.281 223.13 285.707C222.521 286.128 222.044 286.722 221.701 287.492C221.364 288.255 221.195 289.152 221.195 290.182C221.195 291.235 221.361 292.153 221.692 292.934C222.03 293.715 222.503 294.322 223.113 294.754C223.728 295.186 224.45 295.402 225.279 295.402C225.823 295.402 226.318 295.307 226.761 295.118C227.205 294.929 227.581 294.656 227.889 294.301C228.197 293.946 228.416 293.52 228.546 293.023H230.641C230.523 293.828 230.23 294.553 229.762 295.198C229.301 295.837 228.688 296.346 227.924 296.725C227.167 297.098 226.285 297.284 225.279 297.284ZM233.704 297V283.364H235.728V285.494H235.906C236.19 284.766 236.648 284.201 237.282 283.799C237.915 283.39 238.676 283.186 239.563 283.186C240.463 283.186 241.212 283.39 241.809 283.799C242.413 284.201 242.884 284.766 243.221 285.494H243.363C243.712 284.79 244.236 284.231 244.934 283.816C245.633 283.396 246.47 283.186 247.447 283.186C248.666 283.186 249.663 283.568 250.439 284.331C251.214 285.089 251.602 286.27 251.602 287.874V297H249.506V287.874C249.506 286.867 249.231 286.148 248.681 285.716C248.13 285.284 247.482 285.068 246.737 285.068C245.778 285.068 245.035 285.358 244.508 285.938C243.982 286.512 243.718 287.24 243.718 288.122V297H241.587V287.661C241.587 286.885 241.336 286.261 240.833 285.787C240.33 285.308 239.682 285.068 238.889 285.068C238.344 285.068 237.835 285.213 237.362 285.503C236.894 285.793 236.515 286.196 236.225 286.711C235.941 287.22 235.799 287.808 235.799 288.477V297H233.704Z" fill="white"/>
<path d="M158.509 118.505C158.236 118.778 158.236 119.222 158.509 119.495L162.964 123.95C163.237 124.223 163.68 124.223 163.954 123.95C164.227 123.676 164.227 123.233 163.954 122.96L159.994 119L163.954 115.04C164.227 114.767 164.227 114.324 163.954 114.05C163.68 113.777 163.237 113.777 162.964 114.05L158.509 118.505ZM270.54 119.495C270.813 119.222 270.813 118.778 270.54 118.505L266.085 114.05C265.811 113.777 265.368 113.777 265.095 114.05C264.822 114.324 264.822 114.767 265.095 115.04L269.055 119L265.095 122.96C264.822 123.233 264.822 123.676 265.095 123.95C265.368 124.223 265.811 124.223 266.085 123.95L270.54 119.495ZM159.004 119V119.7H270.045V119V118.3H159.004V119Z" fill="white"/>
<path d="M97.505 270.505C97.2317 270.778 97.2317 271.222 97.505 271.495L101.96 275.95C102.233 276.223 102.676 276.223 102.95 275.95C103.223 275.676 103.223 275.233 102.95 274.96L98.9899 271L102.95 267.04C103.223 266.767 103.223 266.324 102.95 266.05C102.676 265.777 102.233 265.777 101.96 266.05L97.505 270.505ZM345.495 271.495C345.768 271.222 345.768 270.778 345.495 270.505L341.04 266.05C340.767 265.777 340.324 265.777 340.05 266.05C339.777 266.324 339.777 266.767 340.05 267.04L344.01 271L340.05 274.96C339.777 275.233 339.777 275.676 340.05 275.95C340.324 276.223 340.767 276.223 341.04 275.95L345.495 271.495ZM98 271V271.7H345V271V270.3H98V271Z" fill="white"/>
<rect x="158" y="246" width="14" height="14" fill="white"/>
</svg>
