<svg width="794" height="455" viewBox="0 0 794 455" fill="none" xmlns="http://www.w3.org/2000/svg">
<rect x="63" y="75" width="316" height="239" fill="#F96F2A"/>
<path d="M62.2929 394.293C61.9024 394.683 61.9024 395.317 62.2929 395.707L68.6569 402.071C69.0474 402.462 69.6805 402.462 70.0711 402.071C70.4616 401.681 70.4616 401.047 70.0711 400.657L64.4142 395L70.0711 389.343C70.4616 388.953 70.4616 388.319 70.0711 387.929C69.6805 387.538 69.0474 387.538 68.6569 387.929L62.2929 394.293ZM379.713 395.707C380.104 395.317 380.104 394.683 379.713 394.293L373.349 387.929C372.959 387.538 372.326 387.538 371.935 387.929C371.545 388.319 371.545 388.953 371.935 389.343L377.592 395L371.935 400.657C371.545 401.047 371.545 401.681 371.935 402.071C372.326 402.462 372.959 402.462 373.349 402.071L379.713 395.707ZM63 395V396H379.006V395V394H63V395Z" fill="white"/>
<path d="M48.2929 314.759C48.6834 315.15 49.3166 315.15 49.7071 314.759L56.0711 308.395C56.4616 308.005 56.4616 307.372 56.0711 306.981C55.6805 306.591 55.0474 306.591 54.6569 306.981L49 312.638L43.3431 306.981C42.9526 306.591 42.3195 306.591 41.9289 306.981C41.5384 307.372 41.5384 308.005 41.9289 308.395L48.2929 314.759ZM49.7071 74.2929C49.3166 73.9023 48.6834 73.9023 48.2929 74.2929L41.9289 80.6568C41.5384 81.0473 41.5384 81.6805 41.9289 82.071C42.3195 82.4616 42.9526 82.4616 43.3431 82.071L49 76.4142L54.6569 82.071C55.0474 82.4616 55.6805 82.4616 56.0711 82.071C56.4616 81.6805 56.4616 81.0473 56.0711 80.6568L49.7071 74.2929ZM49 314.052H50L50 75H49H48L48 314.052H49Z" fill="white"/>
<path d="M36 241.516H33.8906L25.2187 233.594C24.2031 232.664 23.3203 231.898 22.5703 231.297C21.8125 230.695 21.1016 230.25 20.4375 229.961C19.7656 229.664 19.0625 229.516 18.3281 229.516C17.4844 229.516 16.7539 229.719 16.1367 230.125C15.5195 230.523 15.043 231.07 14.707 231.766C14.3711 232.461 14.2031 233.242 14.2031 234.109C14.2031 235.031 14.3945 235.836 14.7773 236.523C15.1523 237.203 15.6797 237.73 16.3594 238.105C17.0391 238.473 17.8359 238.656 18.75 238.656V241.422C17.3437 241.422 16.1094 241.098 15.0469 240.449C13.9844 239.801 13.1562 238.918 12.5625 237.801C11.9687 236.676 11.6719 235.414 11.6719 234.016C11.6719 232.609 11.9687 231.363 12.5625 230.277C13.1562 229.191 13.957 228.34 14.9648 227.723C15.9727 227.105 17.0938 226.797 18.3281 226.797C19.2109 226.797 20.0742 226.957 20.918 227.277C21.7539 227.59 22.6875 228.137 23.7187 228.918C24.7422 229.691 25.9922 230.766 27.4687 232.141L33.2344 237.531H33.4219V226.375H36V241.516ZM36.3281 213.707C36.3281 215.473 35.8477 216.977 34.8867 218.219C33.918 219.461 32.5156 220.41 30.6797 221.066C28.8359 221.723 26.6094 222.051 24 222.051C21.4062 222.051 19.1914 221.723 17.3555 221.066C15.5117 220.402 14.1055 219.449 13.1367 218.207C12.1602 216.957 11.6719 215.457 11.6719 213.707C11.6719 211.957 12.1602 210.461 13.1367 209.219C14.1055 207.969 15.5117 207.016 17.3555 206.359C19.1914 205.695 21.4062 205.363 24 205.363C26.6094 205.363 28.8359 205.691 30.6797 206.348C32.5156 207.004 33.918 207.953 34.8867 209.195C35.8477 210.437 36.3281 211.941 36.3281 213.707ZM33.75 213.707C33.75 211.957 32.9062 210.598 31.2187 209.629C29.5312 208.66 27.125 208.176 24 208.176C21.9219 208.176 20.1523 208.398 18.6914 208.844C17.2305 209.281 16.1172 209.914 15.3516 210.742C14.5859 211.562 14.2031 212.551 14.2031 213.707C14.2031 215.441 15.0586 216.797 16.7695 217.773C18.4727 218.75 20.8828 219.238 24 219.238C26.0781 219.238 27.8437 219.02 29.2969 218.582C30.75 218.145 31.8555 217.516 32.6133 216.695C33.3711 215.867 33.75 214.871 33.75 213.707ZM36.375 184.27C36.375 185.957 35.9766 187.41 35.1797 188.629C34.3828 189.848 33.2852 190.785 31.8867 191.441C30.4883 192.098 28.8906 192.426 27.0937 192.426C25.2656 192.426 23.6523 192.09 22.2539 191.418C20.8477 190.738 19.75 189.793 18.9609 188.582C18.1641 187.363 17.7656 185.941 17.7656 184.316C17.7656 183.051 18 181.91 18.4688 180.895C18.9375 179.879 19.5937 179.047 20.4375 178.398C21.2812 177.75 22.2656 177.348 23.3906 177.191V179.957C22.5703 180.168 21.8437 180.637 21.2109 181.363C20.5703 182.082 20.25 183.051 20.25 184.27C20.25 185.348 20.5312 186.293 21.0937 187.105C21.6484 187.91 22.4336 188.539 23.4492 188.992C24.457 189.437 25.6406 189.66 27 189.66C28.3906 189.66 29.6016 189.441 30.6328 189.004C31.6641 188.559 32.4648 187.934 33.0352 187.129C33.6055 186.316 33.8906 185.363 33.8906 184.27C33.8906 183.551 33.7656 182.898 33.5156 182.312C33.2656 181.727 32.9062 181.23 32.4375 180.824C31.9687 180.418 31.4062 180.129 30.75 179.957V177.191C31.8125 177.348 32.7695 177.734 33.6211 178.352C34.4648 178.961 35.1367 179.77 35.6367 180.777C36.1289 181.777 36.375 182.941 36.375 184.27ZM36 173.148H18V170.477H20.8125V170.242C19.8516 169.867 19.1055 169.262 18.5742 168.426C18.0352 167.59 17.7656 166.586 17.7656 165.414C17.7656 164.227 18.0352 163.238 18.5742 162.449C19.1055 161.652 19.8516 161.031 20.8125 160.586V160.398C19.8828 159.937 19.1445 159.246 18.5977 158.324C18.043 157.402 17.7656 156.297 17.7656 155.008C17.7656 153.398 18.2695 152.082 19.2773 151.059C20.2773 150.035 21.8359 149.523 23.9531 149.523H36V152.289H23.9531C22.625 152.289 21.6758 152.652 21.1055 153.379C20.5352 154.105 20.25 154.961 20.25 155.945C20.25 157.211 20.6328 158.191 21.3984 158.887C22.1562 159.582 23.1172 159.93 24.2812 159.93H36V162.742H23.6719C22.6484 162.742 21.8242 163.074 21.1992 163.738C20.5664 164.402 20.25 165.258 20.25 166.305C20.25 167.023 20.4414 167.695 20.8242 168.32C21.207 168.937 21.7383 169.437 22.418 169.82C23.0898 170.195 23.8672 170.383 24.75 170.383H36V173.148Z" fill="white"/>
<path d="M175.488 434.019V431.91L183.41 423.238C184.34 422.222 185.105 421.34 185.707 420.59C186.309 419.832 186.754 419.121 187.043 418.457C187.34 417.785 187.488 417.082 187.488 416.347C187.488 415.504 187.285 414.773 186.879 414.156C186.48 413.539 185.934 413.062 185.238 412.726C184.543 412.39 183.762 412.222 182.895 412.222C181.973 412.222 181.168 412.414 180.48 412.797C179.801 413.172 179.273 413.699 178.898 414.379C178.531 415.058 178.348 415.855 178.348 416.769H175.582C175.582 415.363 175.906 414.129 176.555 413.066C177.203 412.004 178.086 411.176 179.203 410.582C180.328 409.988 181.59 409.691 182.988 409.691C184.395 409.691 185.641 409.988 186.727 410.582C187.813 411.176 188.664 411.976 189.281 412.984C189.898 413.992 190.207 415.113 190.207 416.347C190.207 417.23 190.047 418.094 189.727 418.937C189.414 419.773 188.867 420.707 188.086 421.738C187.312 422.761 186.238 424.011 184.863 425.488L179.473 431.254V431.441H190.629V434.019H175.488ZM196.219 434.019L206.953 412.785V412.597H194.578V410.019H209.953V412.738L199.266 434.019H196.219ZM230.962 434.394C229.274 434.394 227.821 433.996 226.603 433.199C225.384 432.402 224.446 431.304 223.79 429.906C223.134 428.508 222.806 426.91 222.806 425.113C222.806 423.285 223.142 421.672 223.813 420.273C224.493 418.867 225.438 417.769 226.649 416.98C227.868 416.183 229.29 415.785 230.915 415.785C232.181 415.785 233.321 416.019 234.337 416.488C235.353 416.957 236.185 417.613 236.833 418.457C237.481 419.301 237.884 420.285 238.04 421.41H235.274C235.063 420.59 234.595 419.863 233.868 419.23C233.149 418.59 232.181 418.269 230.962 418.269C229.884 418.269 228.938 418.551 228.126 419.113C227.321 419.668 226.692 420.453 226.239 421.469C225.794 422.476 225.571 423.66 225.571 425.019C225.571 426.41 225.79 427.621 226.228 428.652C226.673 429.683 227.298 430.484 228.103 431.054C228.915 431.625 229.868 431.91 230.962 431.91C231.681 431.91 232.333 431.785 232.919 431.535C233.505 431.285 234.001 430.926 234.407 430.457C234.813 429.988 235.103 429.426 235.274 428.769H238.04C237.884 429.832 237.497 430.789 236.88 431.64C236.271 432.484 235.462 433.156 234.454 433.656C233.454 434.148 232.29 434.394 230.962 434.394ZM242.083 434.019V416.019H244.755V418.832H244.989C245.364 417.871 245.97 417.125 246.806 416.594C247.642 416.054 248.646 415.785 249.817 415.785C251.005 415.785 251.993 416.054 252.782 416.594C253.579 417.125 254.2 417.871 254.646 418.832H254.833C255.294 417.902 255.985 417.164 256.907 416.617C257.829 416.062 258.935 415.785 260.224 415.785C261.833 415.785 263.149 416.289 264.173 417.297C265.196 418.297 265.708 419.855 265.708 421.972V434.019H262.942V421.972C262.942 420.644 262.579 419.695 261.853 419.125C261.126 418.554 260.271 418.269 259.286 418.269C258.021 418.269 257.04 418.652 256.345 419.418C255.649 420.176 255.302 421.136 255.302 422.301V434.019H252.489V421.691C252.489 420.668 252.157 419.844 251.493 419.219C250.829 418.586 249.974 418.269 248.927 418.269C248.208 418.269 247.536 418.461 246.911 418.844C246.294 419.226 245.794 419.758 245.411 420.437C245.036 421.109 244.849 421.886 244.849 422.769V434.019H242.083Z" fill="white"/>
<path d="M279.842 87.7002L358.994 301.3H82.9502L149.19 87.7002H279.842Z" fill="#24CEFB" stroke="white" stroke-width="1.4"/>
<path d="M185.882 358V356.402L191.884 349.832C192.588 349.063 193.168 348.394 193.624 347.826C194.079 347.252 194.417 346.713 194.636 346.21C194.861 345.701 194.973 345.169 194.973 344.612C194.973 343.973 194.819 343.42 194.511 342.952C194.21 342.484 193.795 342.123 193.268 341.869C192.742 341.614 192.15 341.487 191.493 341.487C190.795 341.487 190.185 341.632 189.664 341.922C189.149 342.206 188.75 342.606 188.466 343.121C188.187 343.636 188.048 344.239 188.048 344.932H185.953C185.953 343.866 186.199 342.931 186.69 342.126C187.181 341.321 187.85 340.694 188.696 340.244C189.549 339.795 190.504 339.57 191.564 339.57C192.629 339.57 193.573 339.795 194.396 340.244C195.219 340.694 195.864 341.301 196.331 342.064C196.799 342.828 197.033 343.677 197.033 344.612C197.033 345.281 196.911 345.935 196.669 346.574C196.432 347.208 196.018 347.915 195.426 348.696C194.84 349.471 194.026 350.418 192.984 351.537L188.901 355.905V356.047H197.352V358H185.882ZM200.202 354.271V352.46L208.192 339.818H209.506V342.624H208.618L202.581 352.176V352.318H213.341V354.271H200.202ZM208.76 358V353.721V352.877V339.818H210.855V358H208.76ZM229.275 358.284C227.996 358.284 226.896 357.982 225.972 357.379C225.049 356.775 224.339 355.943 223.842 354.884C223.344 353.824 223.096 352.614 223.096 351.253C223.096 349.868 223.35 348.646 223.859 347.586C224.374 346.521 225.09 345.689 226.008 345.092C226.931 344.488 228.008 344.186 229.239 344.186C230.198 344.186 231.062 344.364 231.832 344.719C232.601 345.074 233.231 345.571 233.723 346.21C234.214 346.849 234.519 347.595 234.637 348.447H232.542C232.382 347.826 232.027 347.276 231.476 346.796C230.932 346.311 230.198 346.068 229.275 346.068C228.458 346.068 227.742 346.281 227.126 346.707C226.517 347.128 226.04 347.722 225.697 348.492C225.36 349.255 225.191 350.152 225.191 351.182C225.191 352.235 225.357 353.153 225.688 353.934C226.025 354.715 226.499 355.322 227.109 355.754C227.724 356.186 228.446 356.402 229.275 356.402C229.819 356.402 230.313 356.307 230.757 356.118C231.201 355.929 231.577 355.656 231.885 355.301C232.193 354.946 232.412 354.52 232.542 354.023H234.637C234.519 354.828 234.226 355.553 233.758 356.198C233.296 356.837 232.684 357.346 231.92 357.725C231.163 358.098 230.281 358.284 229.275 358.284ZM237.7 358V344.364H239.724V346.494H239.902C240.186 345.766 240.644 345.201 241.278 344.799C241.911 344.39 242.671 344.186 243.559 344.186C244.459 344.186 245.208 344.39 245.805 344.799C246.409 345.201 246.88 345.766 247.217 346.494H247.359C247.708 345.79 248.232 345.231 248.93 344.816C249.629 344.396 250.466 344.186 251.443 344.186C252.662 344.186 253.659 344.568 254.435 345.331C255.21 346.089 255.598 347.27 255.598 348.874V358H253.502V348.874C253.502 347.867 253.227 347.148 252.677 346.716C252.126 346.284 251.478 346.068 250.733 346.068C249.774 346.068 249.031 346.358 248.504 346.938C247.977 347.512 247.714 348.24 247.714 349.122V358H245.583V348.661C245.583 347.885 245.332 347.261 244.829 346.787C244.326 346.308 243.678 346.068 242.884 346.068C242.34 346.068 241.831 346.213 241.358 346.503C240.89 346.793 240.511 347.196 240.221 347.711C239.937 348.22 239.795 348.808 239.795 349.477V358H237.7Z" fill="white"/>
<path d="M81.5011 328.505C81.2278 328.778 81.2278 329.222 81.5011 329.495L85.9559 333.95C86.2293 334.223 86.6725 334.223 86.9458 333.95C87.2192 333.676 87.2192 333.233 86.9458 332.96L82.986 329L86.9458 325.04C87.2192 324.767 87.2192 324.324 86.9458 324.05C86.6725 323.777 86.2293 323.777 85.9559 324.05L81.5011 328.505ZM360.498 329.495C360.772 329.222 360.772 328.778 360.498 328.505L356.043 324.05C355.77 323.777 355.327 323.777 355.054 324.05C354.78 324.324 354.78 324.767 355.054 325.04L359.013 329L355.054 332.96C354.78 333.233 354.78 333.676 355.054 333.95C355.327 334.223 355.77 334.223 356.043 333.95L360.498 329.495ZM81.9961 329V329.7H360.003V329V328.3H81.9961V329Z" fill="white"/>
<line x1="149.521" y1="86.9891" x2="149.521" y2="300.01" stroke="white" stroke-width="2" stroke-dasharray="4 4"/>
<path d="M172.274 183.818V202H170.072V186.126H169.966L165.527 189.074V186.837L170.072 183.818H172.274ZM183.327 202.249C182.108 202.249 181.031 202.033 180.096 201.6C179.166 201.163 178.441 200.562 177.92 199.798C177.4 199.029 177.142 198.153 177.148 197.17C177.142 196.401 177.293 195.691 177.601 195.04C177.909 194.383 178.329 193.835 178.862 193.397C179.4 192.953 180.001 192.672 180.664 192.554V192.447C179.794 192.223 179.101 191.734 178.586 190.983C178.071 190.225 177.817 189.364 177.823 188.399C177.817 187.476 178.051 186.65 178.524 185.922C178.998 185.194 179.649 184.62 180.477 184.2C181.312 183.78 182.262 183.57 183.327 183.57C184.381 183.57 185.322 183.78 186.15 184.2C186.979 184.62 187.63 185.194 188.103 185.922C188.583 186.65 188.825 187.476 188.831 188.399C188.825 189.364 188.562 190.225 188.041 190.983C187.526 191.734 186.843 192.223 185.99 192.447V192.554C186.647 192.672 187.239 192.953 187.766 193.397C188.293 193.835 188.713 194.383 189.027 195.04C189.34 195.691 189.5 196.401 189.506 197.17C189.5 198.153 189.234 199.029 188.707 199.798C188.186 200.562 187.461 201.163 186.532 201.6C185.609 202.033 184.54 202.249 183.327 202.249ZM183.327 200.295C184.15 200.295 184.86 200.162 185.458 199.896C186.056 199.63 186.517 199.254 186.843 198.768C187.168 198.283 187.334 197.715 187.34 197.064C187.334 196.377 187.156 195.771 186.807 195.244C186.458 194.717 185.982 194.303 185.378 194.001C184.78 193.699 184.096 193.548 183.327 193.548C182.552 193.548 181.859 193.699 181.25 194.001C180.646 194.303 180.17 194.717 179.82 195.244C179.477 195.771 179.308 196.377 179.314 197.064C179.308 197.715 179.465 198.283 179.785 198.768C180.11 199.254 180.575 199.63 181.179 199.896C181.782 200.162 182.498 200.295 183.327 200.295ZM183.327 191.666C183.978 191.666 184.555 191.536 185.058 191.276C185.567 191.015 185.967 190.651 186.257 190.184C186.547 189.716 186.695 189.169 186.701 188.541C186.695 187.926 186.55 187.39 186.266 186.934C185.982 186.473 185.588 186.118 185.085 185.869C184.582 185.614 183.996 185.487 183.327 185.487C182.646 185.487 182.052 185.614 181.543 185.869C181.034 186.118 180.64 186.473 180.362 186.934C180.084 187.39 179.948 187.926 179.953 188.541C179.948 189.169 180.087 189.716 180.371 190.184C180.661 190.651 181.06 191.015 181.569 191.276C182.078 191.536 182.664 191.666 183.327 191.666ZM205.515 202.284C204.237 202.284 203.136 201.982 202.212 201.379C201.289 200.775 200.579 199.943 200.082 198.884C199.585 197.824 199.336 196.614 199.336 195.253C199.336 193.868 199.591 192.646 200.1 191.586C200.614 190.521 201.331 189.689 202.248 189.092C203.171 188.488 204.248 188.186 205.479 188.186C206.438 188.186 207.302 188.364 208.072 188.719C208.841 189.074 209.472 189.571 209.963 190.21C210.454 190.849 210.759 191.595 210.877 192.447H208.782C208.622 191.826 208.267 191.276 207.717 190.796C207.172 190.311 206.438 190.068 205.515 190.068C204.698 190.068 203.982 190.281 203.367 190.707C202.757 191.128 202.281 191.722 201.937 192.492C201.6 193.255 201.431 194.152 201.431 195.182C201.431 196.235 201.597 197.153 201.928 197.934C202.266 198.715 202.739 199.322 203.349 199.754C203.964 200.186 204.686 200.402 205.515 200.402C206.06 200.402 206.554 200.307 206.998 200.118C207.441 199.929 207.817 199.656 208.125 199.301C208.433 198.946 208.652 198.52 208.782 198.023H210.877C210.759 198.828 210.466 199.553 209.998 200.198C209.537 200.837 208.924 201.346 208.161 201.725C207.403 202.098 206.521 202.284 205.515 202.284ZM213.94 202V188.364H215.964V190.494H216.142C216.426 189.766 216.885 189.201 217.518 188.799C218.151 188.39 218.912 188.186 219.799 188.186C220.699 188.186 221.448 188.39 222.046 188.799C222.649 189.201 223.12 189.766 223.457 190.494H223.599C223.948 189.79 224.472 189.231 225.171 188.816C225.869 188.396 226.706 188.186 227.683 188.186C228.902 188.186 229.899 188.568 230.675 189.331C231.45 190.089 231.838 191.27 231.838 192.874V202H229.743V192.874C229.743 191.867 229.467 191.148 228.917 190.716C228.367 190.284 227.718 190.068 226.973 190.068C226.014 190.068 225.271 190.358 224.744 190.938C224.218 191.512 223.954 192.24 223.954 193.122V202H221.824V192.661C221.824 191.885 221.572 191.261 221.069 190.787C220.566 190.308 219.918 190.068 219.125 190.068C218.58 190.068 218.071 190.213 217.598 190.503C217.13 190.793 216.751 191.196 216.461 191.711C216.177 192.22 216.035 192.808 216.035 193.477V202H213.94Z" fill="white"/>
<path d="M187.274 42.8182V61H185.072V45.1264H184.966L180.527 48.0739V45.8366L185.072 42.8182H187.274ZM192.503 61V59.402L198.505 52.8324C199.209 52.063 199.789 51.3942 200.245 50.826C200.7 50.2519 201.038 49.7133 201.257 49.2102C201.482 48.7012 201.594 48.1686 201.594 47.6122C201.594 46.973 201.44 46.4196 201.132 45.9521C200.831 45.4845 200.416 45.1235 199.89 44.869C199.363 44.6145 198.771 44.4872 198.114 44.4872C197.416 44.4872 196.806 44.6322 196.285 44.9222C195.77 45.2063 195.371 45.6058 195.087 46.1207C194.808 46.6357 194.669 47.2393 194.669 47.9318H192.574C192.574 46.8665 192.82 45.9313 193.311 45.1264C193.802 44.3215 194.471 43.6941 195.317 43.2443C196.17 42.7945 197.126 42.5696 198.185 42.5696C199.25 42.5696 200.194 42.7945 201.017 43.2443C201.84 43.6941 202.485 44.3008 202.952 45.0643C203.42 45.8278 203.654 46.6771 203.654 47.6122C203.654 48.281 203.532 48.935 203.29 49.5742C203.053 50.2075 202.639 50.9148 202.047 51.696C201.461 52.4714 200.647 53.4183 199.605 54.5369L195.522 58.9048V59.0469H203.973V61H192.503ZM220.246 61.2841C218.968 61.2841 217.867 60.9822 216.944 60.3786C216.021 59.7749 215.31 58.9433 214.813 57.8839C214.316 56.8245 214.067 55.6141 214.067 54.2528C214.067 52.8679 214.322 51.6457 214.831 50.5863C215.346 49.521 216.062 48.6894 216.979 48.0916C217.903 47.4879 218.98 47.1861 220.211 47.1861C221.17 47.1861 222.034 47.3636 222.803 47.7188C223.573 48.0739 224.203 48.571 224.694 49.2102C225.185 49.8494 225.49 50.5952 225.609 51.4474H223.513C223.354 50.826 222.999 50.2756 222.448 49.7962C221.904 49.3108 221.17 49.0682 220.246 49.0682C219.43 49.0682 218.714 49.2812 218.098 49.7074C217.488 50.1276 217.012 50.7224 216.669 51.4918C216.331 52.2553 216.163 53.152 216.163 54.1818C216.163 55.2353 216.328 56.1527 216.66 56.9339C216.997 57.7152 217.471 58.3219 218.08 58.7539C218.696 59.186 219.418 59.402 220.246 59.402C220.791 59.402 221.285 59.3073 221.729 59.1179C222.173 58.9285 222.549 58.6562 222.857 58.3011C223.164 57.946 223.383 57.5199 223.513 57.0227H225.609C225.49 57.8277 225.197 58.5527 224.73 59.1978C224.268 59.837 223.656 60.346 222.892 60.7248C222.134 61.0977 221.253 61.2841 220.246 61.2841ZM228.672 61V47.3636H230.696V49.4943H230.873C231.157 48.7663 231.616 48.2011 232.249 47.7987C232.883 47.3903 233.643 47.1861 234.531 47.1861C235.431 47.1861 236.179 47.3903 236.777 47.7987C237.381 48.2011 237.851 48.7663 238.189 49.4943H238.331C238.68 48.79 239.204 48.2307 239.902 47.8164C240.6 47.3962 241.438 47.1861 242.414 47.1861C243.634 47.1861 244.631 47.5678 245.406 48.3313C246.182 49.0889 246.569 50.2696 246.569 51.8736V61H244.474V51.8736C244.474 50.8674 244.199 50.1483 243.648 49.7163C243.098 49.2842 242.45 49.0682 241.704 49.0682C240.745 49.0682 240.003 49.3582 239.476 49.9382C238.949 50.5123 238.686 51.2403 238.686 52.1222V61H236.555V51.6605C236.555 50.8852 236.304 50.2608 235.8 49.7873C235.297 49.3079 234.649 49.0682 233.856 49.0682C233.312 49.0682 232.803 49.2132 232.329 49.5032C231.862 49.7932 231.483 50.1957 231.193 50.7106C230.909 51.2196 230.767 51.8085 230.767 52.4773V61H228.672Z" fill="white"/>
<path d="M148.503 66.9973C148.23 67.2706 148.23 67.7139 148.503 67.9872L152.958 72.442C153.231 72.7154 153.674 72.7154 153.948 72.442C154.221 72.1686 154.221 71.7254 153.948 71.452L149.988 67.4922L153.948 63.5325C154.221 63.2591 154.221 62.8159 153.948 62.5425C153.674 62.2691 153.231 62.2691 152.958 62.5425L148.503 66.9973ZM280.497 67.9872C280.77 67.7139 280.77 67.2706 280.497 66.9973L276.042 62.5425C275.769 62.2691 275.325 62.2691 275.052 62.5425C274.779 62.8159 274.779 63.2591 275.052 63.5325L279.012 67.4922L275.052 71.452C274.779 71.7254 274.779 72.1686 275.052 72.442C275.325 72.7154 275.769 72.7154 276.042 72.442L280.497 67.9872ZM148.998 67.4922V68.1922H280.002V67.4922V66.7922H148.998V67.4922Z" fill="white"/>
</svg>
