<svg width="458" height="232" viewBox="0 0 458 232" fill="none" xmlns="http://www.w3.org/2000/svg">
<path d="M281.084 50.7002L350.837 181.3H107.083L165.457 50.7002H281.084Z" fill="#24CEFB" stroke="white" stroke-width="1.4"/>
<line x1="167.004" y1="51" x2="167.004" y2="182" stroke="white" stroke-width="2" stroke-dasharray="4 4"/>
<path d="M181.278 107.818V126H179.077V110.126H178.97L174.531 113.074V110.837L179.077 107.818H181.278ZM192.331 126.249C191.112 126.249 190.035 126.033 189.1 125.6C188.17 125.163 187.445 124.562 186.925 123.798C186.404 123.029 186.146 122.153 186.152 121.17C186.146 120.401 186.297 119.691 186.605 119.04C186.913 118.383 187.333 117.835 187.866 117.397C188.404 116.953 189.005 116.672 189.668 116.554V116.447C188.798 116.223 188.105 115.734 187.59 114.983C187.076 114.225 186.821 113.364 186.827 112.399C186.821 111.476 187.055 110.65 187.528 109.922C188.002 109.194 188.653 108.62 189.481 108.2C190.316 107.78 191.266 107.57 192.331 107.57C193.385 107.57 194.326 107.78 195.154 108.2C195.983 108.62 196.634 109.194 197.107 109.922C197.587 110.65 197.83 111.476 197.835 112.399C197.83 113.364 197.566 114.225 197.045 114.983C196.53 115.734 195.847 116.223 194.995 116.447V116.554C195.652 116.672 196.243 116.953 196.77 117.397C197.297 117.835 197.717 118.383 198.031 119.04C198.344 119.691 198.504 120.401 198.51 121.17C198.504 122.153 198.238 123.029 197.711 123.798C197.19 124.562 196.465 125.163 195.536 125.6C194.613 126.033 193.545 126.249 192.331 126.249ZM192.331 124.295C193.154 124.295 193.864 124.162 194.462 123.896C195.06 123.63 195.521 123.254 195.847 122.768C196.172 122.283 196.338 121.715 196.344 121.064C196.338 120.377 196.161 119.771 195.811 119.244C195.462 118.717 194.986 118.303 194.382 118.001C193.784 117.699 193.101 117.548 192.331 117.548C191.556 117.548 190.863 117.699 190.254 118.001C189.65 118.303 189.174 118.717 188.824 119.244C188.481 119.771 188.313 120.377 188.318 121.064C188.313 121.715 188.469 122.283 188.789 122.768C189.114 123.254 189.579 123.63 190.183 123.896C190.786 124.162 191.503 124.295 192.331 124.295ZM192.331 115.666C192.982 115.666 193.559 115.536 194.062 115.276C194.571 115.015 194.971 114.651 195.261 114.184C195.551 113.716 195.699 113.169 195.705 112.541C195.699 111.926 195.554 111.39 195.27 110.934C194.986 110.473 194.592 110.118 194.089 109.869C193.586 109.614 193 109.487 192.331 109.487C191.651 109.487 191.056 109.614 190.547 109.869C190.038 110.118 189.644 110.473 189.366 110.934C189.088 111.39 188.952 111.926 188.958 112.541C188.952 113.169 189.091 113.716 189.375 114.184C189.665 114.651 190.064 115.015 190.573 115.276C191.082 115.536 191.668 115.666 192.331 115.666ZM214.519 126.284C213.241 126.284 212.14 125.982 211.217 125.379C210.293 124.775 209.583 123.943 209.086 122.884C208.589 121.824 208.34 120.614 208.34 119.253C208.34 117.868 208.595 116.646 209.104 115.586C209.619 114.521 210.335 113.689 211.252 113.092C212.175 112.488 213.253 112.186 214.484 112.186C215.442 112.186 216.307 112.364 217.076 112.719C217.845 113.074 218.476 113.571 218.967 114.21C219.458 114.849 219.763 115.595 219.881 116.447H217.786C217.626 115.826 217.271 115.276 216.721 114.796C216.176 114.311 215.442 114.068 214.519 114.068C213.702 114.068 212.986 114.281 212.371 114.707C211.761 115.128 211.285 115.722 210.941 116.492C210.604 117.255 210.435 118.152 210.435 119.182C210.435 120.235 210.601 121.153 210.933 121.934C211.27 122.715 211.743 123.322 212.353 123.754C212.968 124.186 213.691 124.402 214.519 124.402C215.064 124.402 215.558 124.307 216.002 124.118C216.446 123.929 216.821 123.656 217.129 123.301C217.437 122.946 217.656 122.52 217.786 122.023H219.881C219.763 122.828 219.47 123.553 219.002 124.198C218.541 124.837 217.928 125.346 217.165 125.725C216.407 126.098 215.525 126.284 214.519 126.284ZM222.944 126V112.364H224.968V114.494H225.146C225.43 113.766 225.889 113.201 226.522 112.799C227.155 112.39 227.916 112.186 228.804 112.186C229.703 112.186 230.452 112.39 231.05 112.799C231.653 113.201 232.124 113.766 232.461 114.494H232.603C232.953 113.79 233.476 113.231 234.175 112.816C234.873 112.396 235.711 112.186 236.687 112.186C237.906 112.186 238.904 112.568 239.679 113.331C240.454 114.089 240.842 115.27 240.842 116.874V126H238.747V116.874C238.747 115.867 238.472 115.148 237.921 114.716C237.371 114.284 236.723 114.068 235.977 114.068C235.018 114.068 234.275 114.358 233.749 114.938C233.222 115.512 232.958 116.24 232.958 117.122V126H230.828V116.661C230.828 115.885 230.576 115.261 230.073 114.787C229.57 114.308 228.922 114.068 228.129 114.068C227.584 114.068 227.075 114.213 226.602 114.503C226.134 114.793 225.756 115.196 225.466 115.711C225.181 116.22 225.039 116.808 225.039 117.477V126H222.944Z" fill="white"/>
<path d="M195.278 12.8182V31H193.077V15.1264H192.97L188.531 18.0739V15.8366L193.077 12.8182H195.278ZM200.507 31V29.402L206.509 22.8324C207.213 22.063 207.793 21.3942 208.249 20.826C208.705 20.2519 209.042 19.7133 209.261 19.2102C209.486 18.7012 209.598 18.1686 209.598 17.6122C209.598 16.973 209.444 16.4196 209.137 15.9521C208.835 15.4845 208.42 15.1235 207.894 14.869C207.367 14.6145 206.775 14.4872 206.118 14.4872C205.42 14.4872 204.81 14.6322 204.289 14.9222C203.774 15.2063 203.375 15.6058 203.091 16.1207C202.813 16.6357 202.674 17.2393 202.674 17.9318H200.578C200.578 16.8665 200.824 15.9313 201.315 15.1264C201.806 14.3215 202.475 13.6941 203.322 13.2443C204.174 12.7945 205.13 12.5696 206.189 12.5696C207.255 12.5696 208.199 12.7945 209.021 13.2443C209.844 13.6941 210.489 14.3008 210.957 15.0643C211.424 15.8278 211.658 16.6771 211.658 17.6122C211.658 18.281 211.537 18.935 211.294 19.5742C211.057 20.2075 210.643 20.9148 210.051 21.696C209.465 22.4714 208.651 23.4183 207.61 24.5369L203.526 28.9048V29.0469H211.978V31H200.507ZM228.251 31.2841C226.972 31.2841 225.871 30.9822 224.948 30.3786C224.025 29.7749 223.315 28.9433 222.817 27.8839C222.32 26.8245 222.072 25.6141 222.072 24.2528C222.072 22.8679 222.326 21.6457 222.835 20.5863C223.35 19.521 224.066 18.6894 224.984 18.0916C225.907 17.4879 226.984 17.1861 228.215 17.1861C229.174 17.1861 230.038 17.3636 230.807 17.7188C231.577 18.0739 232.207 18.571 232.698 19.2102C233.19 19.8494 233.494 20.5952 233.613 21.4474H231.518C231.358 20.826 231.003 20.2756 230.452 19.7962C229.908 19.3108 229.174 19.0682 228.251 19.0682C227.434 19.0682 226.718 19.2812 226.102 19.7074C225.493 20.1276 225.016 20.7224 224.673 21.4918C224.335 22.2553 224.167 23.152 224.167 24.1818C224.167 25.2353 224.333 26.1527 224.664 26.9339C225.001 27.7152 225.475 28.3219 226.084 28.7539C226.7 29.186 227.422 29.402 228.251 29.402C228.795 29.402 229.289 29.3073 229.733 29.1179C230.177 28.9285 230.553 28.6562 230.861 28.3011C231.168 27.946 231.387 27.5199 231.518 27.0227H233.613C233.494 27.8277 233.201 28.5527 232.734 29.1978C232.272 29.837 231.66 30.346 230.896 30.7248C230.139 31.0977 229.257 31.2841 228.251 31.2841ZM236.676 31V17.3636H238.7V19.4943H238.877C239.161 18.7663 239.62 18.2011 240.253 17.7987C240.887 17.3903 241.647 17.1861 242.535 17.1861C243.435 17.1861 244.183 17.3903 244.781 17.7987C245.385 18.2011 245.855 18.7663 246.193 19.4943H246.335C246.684 18.79 247.208 18.2307 247.906 17.8164C248.605 17.3962 249.442 17.1861 250.419 17.1861C251.638 17.1861 252.635 17.5678 253.41 18.3313C254.186 19.0889 254.573 20.2696 254.573 21.8736V31H252.478V21.8736C252.478 20.8674 252.203 20.1483 251.653 19.7163C251.102 19.2842 250.454 19.0682 249.708 19.0682C248.75 19.0682 248.007 19.3582 247.48 19.9382C246.953 20.5123 246.69 21.2403 246.69 22.1222V31H244.559V21.6605C244.559 20.8852 244.308 20.2608 243.805 19.7873C243.301 19.3079 242.653 19.0682 241.86 19.0682C241.316 19.0682 240.807 19.2132 240.333 19.5032C239.866 19.7932 239.487 20.1957 239.197 20.7106C238.913 21.2196 238.771 21.8085 238.771 22.4773V31H236.676Z" fill="white"/>
<path d="M189.886 218V216.402L195.888 209.832C196.592 209.063 197.172 208.394 197.628 207.826C198.083 207.252 198.421 206.713 198.64 206.21C198.865 205.701 198.977 205.169 198.977 204.612C198.977 203.973 198.823 203.42 198.516 202.952C198.214 202.484 197.799 202.123 197.273 201.869C196.746 201.614 196.154 201.487 195.497 201.487C194.799 201.487 194.189 201.632 193.668 201.922C193.153 202.206 192.754 202.606 192.47 203.121C192.192 203.636 192.052 204.239 192.052 204.932H189.957C189.957 203.866 190.203 202.931 190.694 202.126C191.185 201.321 191.854 200.694 192.701 200.244C193.553 199.795 194.509 199.57 195.568 199.57C196.633 199.57 197.577 199.795 198.4 200.244C199.223 200.694 199.868 201.301 200.335 202.064C200.803 202.828 201.037 203.677 201.037 204.612C201.037 205.281 200.915 205.935 200.673 206.574C200.436 207.208 200.022 207.915 199.43 208.696C198.844 209.471 198.03 210.418 196.989 211.537L192.905 215.905V216.047H201.356V218H189.886ZM204.206 214.271V212.46L212.196 199.818H213.51V202.624H212.622L206.585 212.176V212.318H217.345V214.271H204.206ZM212.764 218V213.721V212.877V199.818H214.86V218H212.764ZM233.279 218.284C232.001 218.284 230.9 217.982 229.976 217.379C229.053 216.775 228.343 215.943 227.846 214.884C227.349 213.824 227.1 212.614 227.1 211.253C227.1 209.868 227.354 208.646 227.863 207.586C228.378 206.521 229.094 205.689 230.012 205.092C230.935 204.488 232.012 204.186 233.243 204.186C234.202 204.186 235.066 204.364 235.836 204.719C236.605 205.074 237.235 205.571 237.727 206.21C238.218 206.849 238.523 207.595 238.641 208.447H236.546C236.386 207.826 236.031 207.276 235.481 206.796C234.936 206.311 234.202 206.068 233.279 206.068C232.462 206.068 231.746 206.281 231.13 206.707C230.521 207.128 230.044 207.722 229.701 208.492C229.364 209.255 229.195 210.152 229.195 211.182C229.195 212.235 229.361 213.153 229.692 213.934C230.03 214.715 230.503 215.322 231.113 215.754C231.728 216.186 232.45 216.402 233.279 216.402C233.823 216.402 234.318 216.307 234.762 216.118C235.205 215.929 235.581 215.656 235.889 215.301C236.197 214.946 236.416 214.52 236.546 214.023H238.641C238.523 214.828 238.23 215.553 237.762 216.198C237.301 216.837 236.688 217.346 235.925 217.725C235.167 218.098 234.285 218.284 233.279 218.284ZM241.704 218V204.364H243.728V206.494H243.906C244.19 205.766 244.648 205.201 245.282 204.799C245.915 204.39 246.676 204.186 247.563 204.186C248.463 204.186 249.212 204.39 249.809 204.799C250.413 205.201 250.884 205.766 251.221 206.494H251.363C251.712 205.79 252.236 205.231 252.934 204.816C253.633 204.396 254.47 204.186 255.447 204.186C256.666 204.186 257.663 204.568 258.439 205.331C259.214 206.089 259.602 207.27 259.602 208.874V218H257.507V208.874C257.507 207.867 257.231 207.148 256.681 206.716C256.13 206.284 255.482 206.068 254.737 206.068C253.778 206.068 253.035 206.358 252.508 206.938C251.982 207.512 251.718 208.24 251.718 209.122V218H249.588V208.661C249.588 207.885 249.336 207.261 248.833 206.787C248.33 206.308 247.682 206.068 246.889 206.068C246.344 206.068 245.835 206.213 245.362 206.503C244.894 206.793 244.515 207.196 244.225 207.711C243.941 208.22 243.799 208.808 243.799 209.477V218H241.704Z" fill="white"/>
<path d="M166.509 39.505C166.236 39.7784 166.236 40.2216 166.509 40.495L170.964 44.9497C171.237 45.2231 171.681 45.2231 171.954 44.9497C172.227 44.6764 172.227 44.2332 171.954 43.9598L167.994 40L171.954 36.0402C172.227 35.7668 172.227 35.3236 171.954 35.0503C171.681 34.7769 171.237 34.7769 170.964 35.0503L166.509 39.505ZM278.54 40.495C278.813 40.2216 278.813 39.7784 278.54 39.505L274.085 35.0503C273.812 34.7769 273.368 34.7769 273.095 35.0503C272.822 35.3236 272.822 35.7668 273.095 36.0402L277.055 40L273.095 43.9598C272.822 44.2332 272.822 44.6764 273.095 44.9497C273.368 45.2231 273.812 45.2231 274.085 44.9497L278.54 40.495ZM167.004 40V40.7H278.045V40V39.3H167.004V40Z" fill="white"/>
<path d="M105.505 191.505C105.232 191.778 105.232 192.222 105.505 192.495L109.96 196.95C110.233 197.223 110.676 197.223 110.95 196.95C111.223 196.676 111.223 196.233 110.95 195.96L106.99 192L110.95 188.04C111.223 187.767 111.223 187.324 110.95 187.05C110.676 186.777 110.233 186.777 109.96 187.05L105.505 191.505ZM353.495 192.495C353.768 192.222 353.768 191.778 353.495 191.505L349.04 187.05C348.767 186.777 348.324 186.777 348.05 187.05C347.777 187.324 347.777 187.767 348.05 188.04L352.01 192L348.05 195.96C347.777 196.233 347.777 196.676 348.05 196.95C348.324 197.223 348.767 197.223 349.04 196.95L353.495 192.495ZM106 192V192.7H353V192V191.3H106V192Z" fill="white"/>
<rect x="166" y="167" width="14" height="14" fill="white"/>
</svg>
