<svg width="710" height="371" viewBox="0 0 710 371" fill="none" xmlns="http://www.w3.org/2000/svg">
<path d="M413.846 72.7002L492.998 286.3H216.954L283.194 72.7002H413.846Z" fill="#24CEFB" stroke="white" stroke-width="1.4"/>
<path d="M319.886 343V341.402L325.887 334.832C326.592 334.063 327.172 333.394 327.627 332.826C328.083 332.252 328.421 331.713 328.64 331.21C328.864 330.701 328.977 330.169 328.977 329.612C328.977 328.973 328.823 328.42 328.515 327.952C328.213 327.484 327.799 327.123 327.272 326.869C326.746 326.614 326.154 326.487 325.497 326.487C324.798 326.487 324.189 326.632 323.668 326.922C323.153 327.206 322.754 327.606 322.469 328.121C322.191 328.636 322.052 329.239 322.052 329.932H319.957C319.957 328.866 320.203 327.931 320.694 327.126C321.185 326.321 321.854 325.694 322.7 325.244C323.553 324.795 324.508 324.57 325.568 324.57C326.633 324.57 327.577 324.795 328.4 325.244C329.223 325.694 329.868 326.301 330.335 327.064C330.803 327.828 331.037 328.677 331.037 329.612C331.037 330.281 330.915 330.935 330.673 331.574C330.436 332.208 330.022 332.915 329.43 333.696C328.844 334.471 328.03 335.418 326.988 336.537L322.904 340.905V341.047H331.356V343H319.886ZM334.206 339.271V337.46L342.196 324.818H343.51V327.624H342.622L336.585 337.176V337.318H347.345V339.271H334.206ZM342.764 343V338.721V337.877V324.818H344.859V343H342.764ZM363.279 343.284C362 343.284 360.899 342.982 359.976 342.379C359.053 341.775 358.343 340.943 357.845 339.884C357.348 338.824 357.1 337.614 357.1 336.253C357.1 334.868 357.354 333.646 357.863 332.586C358.378 331.521 359.094 330.689 360.012 330.092C360.935 329.488 362.012 329.186 363.243 329.186C364.202 329.186 365.066 329.364 365.835 329.719C366.605 330.074 367.235 330.571 367.726 331.21C368.218 331.849 368.523 332.595 368.641 333.447H366.546C366.386 332.826 366.031 332.276 365.48 331.796C364.936 331.311 364.202 331.068 363.279 331.068C362.462 331.068 361.746 331.281 361.13 331.707C360.521 332.128 360.044 332.722 359.701 333.492C359.364 334.255 359.195 335.152 359.195 336.182C359.195 337.235 359.361 338.153 359.692 338.934C360.029 339.715 360.503 340.322 361.112 340.754C361.728 341.186 362.45 341.402 363.279 341.402C363.823 341.402 364.317 341.307 364.761 341.118C365.205 340.929 365.581 340.656 365.889 340.301C366.197 339.946 366.416 339.52 366.546 339.023H368.641C368.523 339.828 368.23 340.553 367.762 341.198C367.3 341.837 366.688 342.346 365.924 342.725C365.167 343.098 364.285 343.284 363.279 343.284ZM371.704 343V329.364H373.728V331.494H373.905C374.19 330.766 374.648 330.201 375.282 329.799C375.915 329.39 376.675 329.186 377.563 329.186C378.463 329.186 379.211 329.39 379.809 329.799C380.413 330.201 380.883 330.766 381.221 331.494H381.363C381.712 330.79 382.236 330.231 382.934 329.816C383.633 329.396 384.47 329.186 385.447 329.186C386.666 329.186 387.663 329.568 388.438 330.331C389.214 331.089 389.601 332.27 389.601 333.874V343H387.506V333.874C387.506 332.867 387.231 332.148 386.681 331.716C386.13 331.284 385.482 331.068 384.736 331.068C383.778 331.068 383.035 331.358 382.508 331.938C381.981 332.512 381.718 333.24 381.718 334.122V343H379.587V333.661C379.587 332.885 379.336 332.261 378.833 331.787C378.33 331.308 377.681 331.068 376.888 331.068C376.344 331.068 375.835 331.213 375.361 331.503C374.894 331.793 374.515 332.196 374.225 332.711C373.941 333.22 373.799 333.808 373.799 334.477V343H371.704Z" fill="white"/>
<path d="M215.505 313.505C215.232 313.778 215.232 314.222 215.505 314.495L219.96 318.95C220.233 319.223 220.676 319.223 220.95 318.95C221.223 318.676 221.223 318.233 220.95 317.96L216.99 314L220.95 310.04C221.223 309.767 221.223 309.324 220.95 309.05C220.676 308.777 220.233 308.777 219.96 309.05L215.505 313.505ZM494.502 314.495C494.776 314.222 494.776 313.778 494.502 313.505L490.047 309.05C489.774 308.777 489.331 308.777 489.057 309.05C488.784 309.324 488.784 309.767 489.057 310.04L493.017 314L489.057 317.96C488.784 318.233 488.784 318.676 489.057 318.95C489.331 319.223 489.774 319.223 490.047 318.95L494.502 314.495ZM216 314V314.7H494.007V314V313.3H216V314Z" fill="white"/>
<line x1="283.523" y1="71.9891" x2="283.523" y2="285.01" stroke="white" stroke-width="2" stroke-dasharray="4 4"/>
<path d="M306.278 168.818V187H304.076V171.126H303.97L299.531 174.074V171.837L304.076 168.818H306.278ZM317.331 187.249C316.112 187.249 315.035 187.033 314.099 186.6C313.17 186.163 312.445 185.562 311.924 184.798C311.404 184.029 311.146 183.153 311.152 182.17C311.146 181.401 311.297 180.691 311.605 180.04C311.913 179.383 312.333 178.835 312.865 178.397C313.404 177.953 314.005 177.672 314.668 177.554V177.447C313.798 177.223 313.105 176.734 312.59 175.983C312.075 175.225 311.821 174.364 311.827 173.399C311.821 172.476 312.055 171.65 312.528 170.922C313.002 170.194 313.653 169.62 314.481 169.2C315.316 168.78 316.266 168.57 317.331 168.57C318.384 168.57 319.326 168.78 320.154 169.2C320.983 169.62 321.634 170.194 322.107 170.922C322.587 171.65 322.829 172.476 322.835 173.399C322.829 174.364 322.566 175.225 322.045 175.983C321.53 176.734 320.847 177.223 319.994 177.447V177.554C320.651 177.672 321.243 177.953 321.77 178.397C322.297 178.835 322.717 179.383 323.031 180.04C323.344 180.691 323.504 181.401 323.51 182.17C323.504 183.153 323.238 184.029 322.711 184.798C322.19 185.562 321.465 186.163 320.536 186.6C319.613 187.033 318.544 187.249 317.331 187.249ZM317.331 185.295C318.154 185.295 318.864 185.162 319.462 184.896C320.059 184.63 320.521 184.254 320.847 183.768C321.172 183.283 321.338 182.715 321.344 182.064C321.338 181.377 321.16 180.771 320.811 180.244C320.462 179.717 319.985 179.303 319.382 179.001C318.784 178.699 318.1 178.548 317.331 178.548C316.556 178.548 315.863 178.699 315.254 179.001C314.65 179.303 314.173 179.717 313.824 180.244C313.481 180.771 313.312 181.377 313.318 182.064C313.312 182.715 313.469 183.283 313.789 183.768C314.114 184.254 314.579 184.63 315.183 184.896C315.786 185.162 316.502 185.295 317.331 185.295ZM317.331 176.666C317.982 176.666 318.559 176.536 319.062 176.276C319.571 176.015 319.971 175.651 320.261 175.184C320.551 174.716 320.699 174.169 320.705 173.541C320.699 172.926 320.554 172.39 320.27 171.934C319.985 171.473 319.592 171.118 319.089 170.869C318.586 170.614 318 170.487 317.331 170.487C316.65 170.487 316.056 170.614 315.547 170.869C315.038 171.118 314.644 171.473 314.366 171.934C314.088 172.39 313.951 172.926 313.957 173.541C313.951 174.169 314.091 174.716 314.375 175.184C314.665 175.651 315.064 176.015 315.573 176.276C316.082 176.536 316.668 176.666 317.331 176.666ZM339.519 187.284C338.241 187.284 337.14 186.982 336.216 186.379C335.293 185.775 334.583 184.943 334.086 183.884C333.589 182.824 333.34 181.614 333.34 180.253C333.34 178.868 333.594 177.646 334.103 176.586C334.618 175.521 335.334 174.689 336.252 174.092C337.175 173.488 338.252 173.186 339.483 173.186C340.442 173.186 341.306 173.364 342.076 173.719C342.845 174.074 343.475 174.571 343.967 175.21C344.458 175.849 344.763 176.595 344.881 177.447H342.786C342.626 176.826 342.271 176.276 341.721 175.796C341.176 175.311 340.442 175.068 339.519 175.068C338.702 175.068 337.986 175.281 337.37 175.707C336.761 176.128 336.284 176.722 335.941 177.492C335.604 178.255 335.435 179.152 335.435 180.182C335.435 181.235 335.601 182.153 335.932 182.934C336.27 183.715 336.743 184.322 337.353 184.754C337.968 185.186 338.69 185.402 339.519 185.402C340.063 185.402 340.558 185.307 341.002 185.118C341.445 184.929 341.821 184.656 342.129 184.301C342.437 183.946 342.656 183.52 342.786 183.023H344.881C344.763 183.828 344.47 184.553 344.002 185.198C343.541 185.837 342.928 186.346 342.165 186.725C341.407 187.098 340.525 187.284 339.519 187.284ZM347.944 187V173.364H349.968V175.494H350.146C350.43 174.766 350.888 174.201 351.522 173.799C352.155 173.39 352.916 173.186 353.803 173.186C354.703 173.186 355.452 173.39 356.049 173.799C356.653 174.201 357.124 174.766 357.461 175.494H357.603C357.952 174.79 358.476 174.231 359.174 173.816C359.873 173.396 360.71 173.186 361.687 173.186C362.906 173.186 363.903 173.568 364.679 174.331C365.454 175.089 365.842 176.27 365.842 177.874V187H363.747V177.874C363.747 176.867 363.471 176.148 362.921 175.716C362.37 175.284 361.722 175.068 360.977 175.068C360.018 175.068 359.275 175.358 358.748 175.938C358.222 176.512 357.958 177.24 357.958 178.122V187H355.828V177.661C355.828 176.885 355.576 176.261 355.073 175.787C354.57 175.308 353.922 175.068 353.129 175.068C352.584 175.068 352.075 175.213 351.602 175.503C351.134 175.793 350.755 176.196 350.465 176.711C350.181 177.22 350.039 177.808 350.039 178.477V187H347.944Z" fill="white"/>
<path d="M321.278 27.8182V46H319.076V30.1264H318.97L314.531 33.0739V30.8366L319.076 27.8182H321.278ZM326.507 46V44.402L332.509 37.8324C333.213 37.063 333.793 36.3942 334.249 35.826C334.704 35.2519 335.042 34.7133 335.261 34.2102C335.486 33.7012 335.598 33.1686 335.598 32.6122C335.598 31.973 335.444 31.4196 335.136 30.9521C334.835 30.4845 334.42 30.1235 333.893 29.869C333.367 29.6145 332.775 29.4872 332.118 29.4872C331.42 29.4872 330.81 29.6322 330.289 29.9222C329.774 30.2063 329.375 30.6058 329.091 31.1207C328.812 31.6357 328.673 32.2393 328.673 32.9318H326.578C326.578 31.8665 326.824 30.9313 327.315 30.1264C327.806 29.3215 328.475 28.6941 329.321 28.2443C330.174 27.7945 331.129 27.5696 332.189 27.5696C333.254 27.5696 334.198 27.7945 335.021 28.2443C335.844 28.6941 336.489 29.3008 336.956 30.0643C337.424 30.8278 337.658 31.6771 337.658 32.6122C337.658 33.281 337.536 33.935 337.294 34.5742C337.057 35.2075 336.643 35.9148 336.051 36.696C335.465 37.4714 334.651 38.4183 333.609 39.5369L329.526 43.9048V44.0469H337.977V46H326.507ZM354.25 46.2841C352.972 46.2841 351.871 45.9822 350.948 45.3786C350.025 44.7749 349.314 43.9433 348.817 42.8839C348.32 41.8245 348.071 40.6141 348.071 39.2528C348.071 37.8679 348.326 36.6457 348.835 35.5863C349.35 34.521 350.066 33.6894 350.983 33.0916C351.907 32.4879 352.984 32.1861 354.215 32.1861C355.174 32.1861 356.038 32.3636 356.807 32.7188C357.577 33.0739 358.207 33.571 358.698 34.2102C359.189 34.8494 359.494 35.5952 359.613 36.4474H357.517C357.358 35.826 357.002 35.2756 356.452 34.7962C355.908 34.3108 355.174 34.0682 354.25 34.0682C353.434 34.0682 352.717 34.2812 352.102 34.7074C351.492 35.1276 351.016 35.7224 350.673 36.4918C350.335 37.2553 350.167 38.152 350.167 39.1818C350.167 40.2353 350.332 41.1527 350.664 41.9339C351.001 42.7152 351.475 43.3219 352.084 43.7539C352.7 44.186 353.422 44.402 354.25 44.402C354.795 44.402 355.289 44.3073 355.733 44.1179C356.177 43.9285 356.553 43.6562 356.86 43.3011C357.168 42.946 357.387 42.5199 357.517 42.0227H359.613C359.494 42.8277 359.201 43.5527 358.734 44.1978C358.272 44.837 357.659 45.346 356.896 45.7248C356.138 46.0977 355.257 46.2841 354.25 46.2841ZM362.675 46V32.3636H364.7V34.4943H364.877C365.161 33.7663 365.62 33.2011 366.253 32.7987C366.886 32.3903 367.647 32.1861 368.535 32.1861C369.434 32.1861 370.183 32.3903 370.781 32.7987C371.385 33.2011 371.855 33.7663 372.192 34.4943H372.335C372.684 33.79 373.208 33.2307 373.906 32.8164C374.604 32.3962 375.442 32.1861 376.418 32.1861C377.638 32.1861 378.635 32.5678 379.41 33.3313C380.185 34.0889 380.573 35.2696 380.573 36.8736V46H378.478V36.8736C378.478 35.8674 378.203 35.1483 377.652 34.7163C377.102 34.2842 376.454 34.0682 375.708 34.0682C374.749 34.0682 374.007 34.3582 373.48 34.9382C372.953 35.5123 372.69 36.2403 372.69 37.1222V46H370.559V36.6605C370.559 35.8852 370.307 35.2608 369.804 34.7873C369.301 34.3079 368.653 34.0682 367.86 34.0682C367.316 34.0682 366.807 34.2132 366.333 34.5032C365.866 34.7932 365.487 35.1957 365.197 35.7106C364.913 36.2196 364.771 36.8085 364.771 37.4773V46H362.675Z" fill="white"/>
<path d="M282.505 51.9972C282.232 52.2706 282.232 52.7138 282.505 52.9872L286.96 57.4419C287.233 57.7153 287.676 57.7153 287.95 57.4419C288.223 57.1686 288.223 56.7254 287.95 56.452L283.99 52.4922L287.95 48.5324C288.223 48.259 288.223 47.8158 287.95 47.5424C287.676 47.2691 287.233 47.2691 286.96 47.5424L282.505 51.9972ZM414.499 52.9872C414.772 52.7138 414.772 52.2706 414.499 51.9972L410.044 47.5424C409.771 47.2691 409.327 47.2691 409.054 47.5424C408.781 47.8158 408.781 48.259 409.054 48.5324L413.014 52.4922L409.054 56.452C408.781 56.7254 408.781 57.1686 409.054 57.4419C409.327 57.7153 409.771 57.7153 410.044 57.4419L414.499 52.9872ZM283 52.4922V53.1922H414.004V52.4922V51.7922H283V52.4922Z" fill="white"/>
</svg>
