<svg width="672" height="324" viewBox="0 0 672 324" fill="none" xmlns="http://www.w3.org/2000/svg">
<rect x="59" y="13" width="316" height="239" fill="#F96F2A"/>
<path d="M58.2896 264.274C57.8991 264.664 57.8991 265.297 58.2896 265.688L64.6536 272.052C65.0441 272.442 65.6772 272.442 66.0678 272.052C66.4583 271.661 66.4583 271.028 66.0678 270.638L60.4109 264.981L66.0678 259.324C66.4583 258.933 66.4583 258.3 66.0678 257.91C65.6772 257.519 65.0441 257.519 64.6536 257.91L58.2896 264.274ZM375.71 265.688C376.101 265.297 376.101 264.664 375.71 264.274L369.346 257.91C368.956 257.519 368.322 257.519 367.932 257.91C367.541 258.3 367.541 258.933 367.932 259.324L373.589 264.981L367.932 270.638C367.541 271.028 367.541 271.661 367.932 272.052C368.322 272.442 368.956 272.442 369.346 272.052L375.71 265.688ZM58.9967 264.981V265.981H375.003V264.981V263.981H58.9967V264.981Z" fill="white"/>
<path d="M44.2929 252.759C44.6834 253.15 45.3166 253.15 45.7071 252.759L52.0711 246.395C52.4616 246.005 52.4616 245.372 52.0711 244.981C51.6805 244.591 51.0474 244.591 50.6569 244.981L45 250.638L39.3431 244.981C38.9526 244.591 38.3195 244.591 37.9289 244.981C37.5384 245.372 37.5384 246.005 37.9289 246.395L44.2929 252.759ZM45.7071 12.2929C45.3166 11.9023 44.6834 11.9023 44.2929 12.2929L37.9289 18.6568C37.5384 19.0473 37.5384 19.6805 37.9289 20.071C38.3195 20.4616 38.9526 20.4616 39.3431 20.071L45 14.4142L50.6569 20.071C51.0474 20.4616 51.6805 20.4616 52.0711 20.071C52.4616 19.6805 52.4616 19.0473 52.0711 18.6568L45.7071 12.2929ZM45 252.052H46L46 13H45H44L44 252.052H45Z" fill="white"/>
<path d="M32 179.516H29.8906L21.2187 171.594C20.2031 170.664 19.3203 169.898 18.5703 169.297C17.8125 168.695 17.1016 168.25 16.4375 167.961C15.7656 167.664 15.0625 167.516 14.3281 167.516C13.4844 167.516 12.7539 167.719 12.1367 168.125C11.5195 168.523 11.043 169.07 10.707 169.766C10.3711 170.461 10.2031 171.242 10.2031 172.109C10.2031 173.031 10.3945 173.836 10.7773 174.523C11.1523 175.203 11.6797 175.73 12.3594 176.105C13.0391 176.473 13.8359 176.656 14.75 176.656V179.422C13.3437 179.422 12.1094 179.098 11.0469 178.449C9.98437 177.801 9.15625 176.918 8.5625 175.801C7.96875 174.676 7.67187 173.414 7.67187 172.016C7.67187 170.609 7.96875 169.363 8.5625 168.277C9.15625 167.191 9.95703 166.34 10.9648 165.723C11.9727 165.105 13.0938 164.797 14.3281 164.797C15.2109 164.797 16.0742 164.957 16.918 165.277C17.7539 165.59 18.6875 166.137 19.7187 166.918C20.7422 167.691 21.9922 168.766 23.4687 170.141L29.2344 175.531H29.4219V164.375H32V179.516ZM32.3281 151.707C32.3281 153.473 31.8477 154.977 30.8867 156.219C29.918 157.461 28.5156 158.41 26.6797 159.066C24.8359 159.723 22.6094 160.051 20 160.051C17.4062 160.051 15.1914 159.723 13.3555 159.066C11.5117 158.402 10.1055 157.449 9.13672 156.207C8.16016 154.957 7.67187 153.457 7.67187 151.707C7.67187 149.957 8.16016 148.461 9.13672 147.219C10.1055 145.969 11.5117 145.016 13.3555 144.359C15.1914 143.695 17.4062 143.363 20 143.363C22.6094 143.363 24.8359 143.691 26.6797 144.348C28.5156 145.004 29.918 145.953 30.8867 147.195C31.8477 148.437 32.3281 149.941 32.3281 151.707ZM29.75 151.707C29.75 149.957 28.9062 148.598 27.2187 147.629C25.5312 146.66 23.125 146.176 20 146.176C17.9219 146.176 16.1523 146.398 14.6914 146.844C13.2305 147.281 12.1172 147.914 11.3516 148.742C10.5859 149.562 10.2031 150.551 10.2031 151.707C10.2031 153.441 11.0586 154.797 12.7695 155.773C14.4727 156.75 16.8828 157.238 20 157.238C22.0781 157.238 23.8437 157.02 25.2969 156.582C26.75 156.145 27.8555 155.516 28.6133 154.695C29.3711 153.867 29.75 152.871 29.75 151.707ZM32.375 122.27C32.375 123.957 31.9766 125.41 31.1797 126.629C30.3828 127.848 29.2852 128.785 27.8867 129.441C26.4883 130.098 24.8906 130.426 23.0937 130.426C21.2656 130.426 19.6523 130.09 18.2539 129.418C16.8477 128.738 15.75 127.793 14.9609 126.582C14.1641 125.363 13.7656 123.941 13.7656 122.316C13.7656 121.051 14 119.91 14.4688 118.895C14.9375 117.879 15.5937 117.047 16.4375 116.398C17.2812 115.75 18.2656 115.348 19.3906 115.191V117.957C18.5703 118.168 17.8437 118.637 17.2109 119.363C16.5703 120.082 16.25 121.051 16.25 122.27C16.25 123.348 16.5312 124.293 17.0937 125.105C17.6484 125.91 18.4336 126.539 19.4492 126.992C20.457 127.437 21.6406 127.66 23 127.66C24.3906 127.66 25.6016 127.441 26.6328 127.004C27.6641 126.559 28.4648 125.934 29.0352 125.129C29.6055 124.316 29.8906 123.363 29.8906 122.27C29.8906 121.551 29.7656 120.898 29.5156 120.312C29.2656 119.727 28.9063 119.23 28.4375 118.824C27.9687 118.418 27.4062 118.129 26.75 117.957V115.191C27.8125 115.348 28.7695 115.734 29.6211 116.352C30.4648 116.961 31.1367 117.77 31.6367 118.777C32.1289 119.777 32.375 120.941 32.375 122.27ZM32 111.148H14V108.477H16.8125V108.242C15.8516 107.867 15.1055 107.262 14.5742 106.426C14.0352 105.59 13.7656 104.586 13.7656 103.414C13.7656 102.227 14.0352 101.238 14.5742 100.449C15.1055 99.6523 15.8516 99.0312 16.8125 98.5859V98.3984C15.8828 97.9375 15.1445 97.2461 14.5977 96.3242C14.043 95.4023 13.7656 94.2969 13.7656 93.0078C13.7656 91.3984 14.2695 90.082 15.2773 89.0586C16.2773 88.0352 17.8359 87.5234 19.9531 87.5234H32V90.2891H19.9531C18.625 90.2891 17.6758 90.6523 17.1055 91.3789C16.5352 92.1055 16.25 92.9609 16.25 93.9453C16.25 95.2109 16.6328 96.1914 17.3984 96.8867C18.1562 97.582 19.1172 97.9297 20.2812 97.9297H32V100.742H19.6719C18.6484 100.742 17.8242 101.074 17.1992 101.738C16.5664 102.402 16.25 103.258 16.25 104.305C16.25 105.023 16.4414 105.695 16.8242 106.32C17.207 106.937 17.7383 107.437 18.418 107.82C19.0898 108.195 19.8672 108.383 20.75 108.383H32V111.148Z" fill="white"/>
<path d="M175.484 303V300.891L183.406 292.219C184.336 291.203 185.102 290.32 185.703 289.57C186.305 288.812 186.75 288.102 187.039 287.437C187.336 286.766 187.484 286.062 187.484 285.328C187.484 284.484 187.281 283.754 186.875 283.137C186.477 282.52 185.93 282.043 185.234 281.707C184.539 281.371 183.758 281.203 182.891 281.203C181.969 281.203 181.164 281.395 180.477 281.777C179.797 282.152 179.27 282.68 178.895 283.359C178.527 284.039 178.344 284.836 178.344 285.75H175.578C175.578 284.344 175.902 283.109 176.551 282.047C177.199 280.984 178.082 280.156 179.199 279.562C180.324 278.969 181.586 278.672 182.984 278.672C184.391 278.672 185.637 278.969 186.723 279.562C187.809 280.156 188.66 280.957 189.277 281.965C189.895 282.973 190.203 284.094 190.203 285.328C190.203 286.211 190.043 287.074 189.723 287.918C189.41 288.754 188.863 289.687 188.082 290.719C187.309 291.742 186.234 292.992 184.859 294.469L179.469 300.234V300.422H190.625V303H175.484ZM196.215 303L206.949 281.766V281.578H194.574V279H209.949V281.719L199.262 303H196.215ZM230.958 303.375C229.271 303.375 227.817 302.977 226.599 302.18C225.38 301.383 224.442 300.285 223.786 298.887C223.13 297.488 222.802 295.891 222.802 294.094C222.802 292.266 223.138 290.652 223.81 289.254C224.489 287.848 225.435 286.75 226.646 285.961C227.864 285.164 229.286 284.766 230.911 284.766C232.177 284.766 233.317 285 234.333 285.469C235.349 285.937 236.181 286.594 236.829 287.437C237.478 288.281 237.88 289.266 238.036 290.391H235.271C235.06 289.57 234.591 288.844 233.864 288.211C233.146 287.57 232.177 287.25 230.958 287.25C229.88 287.25 228.935 287.531 228.122 288.094C227.317 288.648 226.688 289.434 226.235 290.449C225.79 291.457 225.567 292.641 225.567 294C225.567 295.391 225.786 296.602 226.224 297.633C226.669 298.664 227.294 299.465 228.099 300.035C228.911 300.605 229.864 300.891 230.958 300.891C231.677 300.891 232.329 300.766 232.915 300.516C233.501 300.266 233.997 299.906 234.403 299.437C234.81 298.969 235.099 298.406 235.271 297.75H238.036C237.88 298.812 237.493 299.77 236.876 300.621C236.267 301.465 235.458 302.137 234.45 302.637C233.45 303.129 232.286 303.375 230.958 303.375ZM242.079 303V285H244.751V287.812H244.985C245.36 286.852 245.966 286.105 246.802 285.574C247.638 285.035 248.642 284.766 249.813 284.766C251.001 284.766 251.989 285.035 252.778 285.574C253.575 286.105 254.196 286.852 254.642 287.812H254.829C255.29 286.883 255.981 286.145 256.903 285.598C257.825 285.043 258.931 284.766 260.22 284.766C261.829 284.766 263.146 285.27 264.169 286.277C265.192 287.277 265.704 288.836 265.704 290.953V303H262.938V290.953C262.938 289.625 262.575 288.676 261.849 288.105C261.122 287.535 260.267 287.25 259.282 287.25C258.017 287.25 257.036 287.633 256.341 288.398C255.646 289.156 255.298 290.117 255.298 291.281V303H252.485V290.672C252.485 289.648 252.153 288.824 251.489 288.199C250.825 287.566 249.97 287.25 248.923 287.25C248.204 287.25 247.532 287.441 246.907 287.824C246.29 288.207 245.79 288.738 245.407 289.418C245.032 290.09 244.845 290.867 244.845 291.75V303H242.079Z" fill="white"/>
<path d="M269.084 67.7002L338.837 198.3H95.0833L153.457 67.7002H269.084Z" fill="#03003F" stroke="white" stroke-width="1.4"/>
<line x1="155.004" y1="68" x2="155.004" y2="199" stroke="white" stroke-width="2" stroke-dasharray="4 4"/>
<path d="M169.278 124.818V143H167.077V127.126H166.97L162.531 130.074V127.837L167.077 124.818H169.278ZM180.331 143.249C179.112 143.249 178.035 143.033 177.1 142.6C176.17 142.163 175.445 141.562 174.925 140.798C174.404 140.029 174.146 139.153 174.152 138.17C174.146 137.401 174.297 136.691 174.605 136.04C174.913 135.383 175.333 134.835 175.866 134.397C176.404 133.953 177.005 133.672 177.668 133.554V133.447C176.798 133.223 176.105 132.734 175.59 131.983C175.076 131.225 174.821 130.364 174.827 129.399C174.821 128.476 175.055 127.65 175.528 126.922C176.002 126.194 176.653 125.62 177.481 125.2C178.316 124.78 179.266 124.57 180.331 124.57C181.385 124.57 182.326 124.78 183.154 125.2C183.983 125.62 184.634 126.194 185.107 126.922C185.587 127.65 185.83 128.476 185.835 129.399C185.83 130.364 185.566 131.225 185.045 131.983C184.53 132.734 183.847 133.223 182.995 133.447V133.554C183.652 133.672 184.243 133.953 184.77 134.397C185.297 134.835 185.717 135.383 186.031 136.04C186.344 136.691 186.504 137.401 186.51 138.17C186.504 139.153 186.238 140.029 185.711 140.798C185.19 141.562 184.465 142.163 183.536 142.6C182.613 143.033 181.545 143.249 180.331 143.249ZM180.331 141.295C181.154 141.295 181.864 141.162 182.462 140.896C183.06 140.63 183.521 140.254 183.847 139.768C184.172 139.283 184.338 138.715 184.344 138.064C184.338 137.377 184.161 136.771 183.811 136.244C183.462 135.717 182.986 135.303 182.382 135.001C181.784 134.699 181.101 134.548 180.331 134.548C179.556 134.548 178.863 134.699 178.254 135.001C177.65 135.303 177.174 135.717 176.824 136.244C176.481 136.771 176.313 137.377 176.318 138.064C176.313 138.715 176.469 139.283 176.789 139.768C177.114 140.254 177.579 140.63 178.183 140.896C178.786 141.162 179.503 141.295 180.331 141.295ZM180.331 132.666C180.982 132.666 181.559 132.536 182.062 132.276C182.571 132.015 182.971 131.651 183.261 131.184C183.551 130.716 183.699 130.169 183.705 129.541C183.699 128.926 183.554 128.39 183.27 127.934C182.986 127.473 182.592 127.118 182.089 126.869C181.586 126.614 181 126.487 180.331 126.487C179.651 126.487 179.056 126.614 178.547 126.869C178.038 127.118 177.644 127.473 177.366 127.934C177.088 128.39 176.952 128.926 176.958 129.541C176.952 130.169 177.091 130.716 177.375 131.184C177.665 131.651 178.064 132.015 178.573 132.276C179.082 132.536 179.668 132.666 180.331 132.666ZM202.519 143.284C201.241 143.284 200.14 142.982 199.217 142.379C198.293 141.775 197.583 140.943 197.086 139.884C196.589 138.824 196.34 137.614 196.34 136.253C196.34 134.868 196.595 133.646 197.104 132.586C197.619 131.521 198.335 130.689 199.252 130.092C200.175 129.488 201.253 129.186 202.484 129.186C203.442 129.186 204.307 129.364 205.076 129.719C205.845 130.074 206.476 130.571 206.967 131.21C207.458 131.849 207.763 132.595 207.881 133.447H205.786C205.626 132.826 205.271 132.276 204.721 131.796C204.176 131.311 203.442 131.068 202.519 131.068C201.702 131.068 200.986 131.281 200.371 131.707C199.761 132.128 199.285 132.722 198.941 133.492C198.604 134.255 198.435 135.152 198.435 136.182C198.435 137.235 198.601 138.153 198.933 138.934C199.27 139.715 199.743 140.322 200.353 140.754C200.968 141.186 201.691 141.402 202.519 141.402C203.064 141.402 203.558 141.307 204.002 141.118C204.446 140.929 204.821 140.656 205.129 140.301C205.437 139.946 205.656 139.52 205.786 139.023H207.881C207.763 139.828 207.47 140.553 207.002 141.198C206.541 141.837 205.928 142.346 205.165 142.725C204.407 143.098 203.525 143.284 202.519 143.284ZM210.944 143V129.364H212.968V131.494H213.146C213.43 130.766 213.889 130.201 214.522 129.799C215.155 129.39 215.916 129.186 216.804 129.186C217.703 129.186 218.452 129.39 219.05 129.799C219.653 130.201 220.124 130.766 220.461 131.494H220.603C220.953 130.79 221.476 130.231 222.175 129.816C222.873 129.396 223.711 129.186 224.687 129.186C225.906 129.186 226.904 129.568 227.679 130.331C228.454 131.089 228.842 132.27 228.842 133.874V143H226.747V133.874C226.747 132.867 226.472 132.148 225.921 131.716C225.371 131.284 224.723 131.068 223.977 131.068C223.018 131.068 222.275 131.358 221.749 131.938C221.222 132.512 220.958 133.24 220.958 134.122V143H218.828V133.661C218.828 132.885 218.576 132.261 218.073 131.787C217.57 131.308 216.922 131.068 216.129 131.068C215.584 131.068 215.075 131.213 214.602 131.503C214.134 131.793 213.756 132.196 213.466 132.711C213.181 133.22 213.039 133.808 213.039 134.477V143H210.944Z" fill="white"/>
<path d="M183.278 29.8182V48H181.077V32.1264H180.97L176.531 35.0739V32.8366L181.077 29.8182H183.278ZM188.507 48V46.402L194.509 39.8324C195.213 39.063 195.793 38.3942 196.249 37.826C196.705 37.2519 197.042 36.7133 197.261 36.2102C197.486 35.7012 197.598 35.1686 197.598 34.6122C197.598 33.973 197.444 33.4196 197.137 32.9521C196.835 32.4845 196.42 32.1235 195.894 31.869C195.367 31.6145 194.775 31.4872 194.118 31.4872C193.42 31.4872 192.81 31.6322 192.289 31.9222C191.774 32.2063 191.375 32.6058 191.091 33.1207C190.813 33.6357 190.674 34.2393 190.674 34.9318H188.578C188.578 33.8665 188.824 32.9313 189.315 32.1264C189.806 31.3215 190.475 30.6941 191.322 30.2443C192.174 29.7945 193.13 29.5696 194.189 29.5696C195.255 29.5696 196.199 29.7945 197.021 30.2443C197.844 30.6941 198.489 31.3008 198.957 32.0643C199.424 32.8278 199.658 33.6771 199.658 34.6122C199.658 35.281 199.537 35.935 199.294 36.5742C199.057 37.2075 198.643 37.9148 198.051 38.696C197.465 39.4714 196.651 40.4183 195.61 41.5369L191.526 45.9048V46.0469H199.978V48H188.507ZM216.251 48.2841C214.972 48.2841 213.871 47.9822 212.948 47.3786C212.025 46.7749 211.315 45.9433 210.817 44.8839C210.32 43.8245 210.072 42.6141 210.072 41.2528C210.072 39.8679 210.326 38.6457 210.835 37.5863C211.35 36.521 212.066 35.6894 212.984 35.0916C213.907 34.4879 214.984 34.1861 216.215 34.1861C217.174 34.1861 218.038 34.3636 218.807 34.7188C219.577 35.0739 220.207 35.571 220.698 36.2102C221.19 36.8494 221.494 37.5952 221.613 38.4474H219.518C219.358 37.826 219.003 37.2756 218.452 36.7962C217.908 36.3108 217.174 36.0682 216.251 36.0682C215.434 36.0682 214.718 36.2812 214.102 36.7074C213.493 37.1276 213.016 37.7224 212.673 38.4918C212.335 39.2553 212.167 40.152 212.167 41.1818C212.167 42.2353 212.333 43.1527 212.664 43.9339C213.001 44.7152 213.475 45.3219 214.084 45.7539C214.7 46.186 215.422 46.402 216.251 46.402C216.795 46.402 217.289 46.3073 217.733 46.1179C218.177 45.9285 218.553 45.6562 218.861 45.3011C219.168 44.946 219.387 44.5199 219.518 44.0227H221.613C221.494 44.8277 221.201 45.5527 220.734 46.1978C220.272 46.837 219.66 47.346 218.896 47.7248C218.139 48.0977 217.257 48.2841 216.251 48.2841ZM224.676 48V34.3636H226.7V36.4943H226.877C227.161 35.7663 227.62 35.2011 228.253 34.7987C228.887 34.3903 229.647 34.1861 230.535 34.1861C231.435 34.1861 232.183 34.3903 232.781 34.7987C233.385 35.2011 233.855 35.7663 234.193 36.4943H234.335C234.684 35.79 235.208 35.2307 235.906 34.8164C236.605 34.3962 237.442 34.1861 238.419 34.1861C239.638 34.1861 240.635 34.5678 241.41 35.3313C242.186 36.0889 242.573 37.2696 242.573 38.8736V48H240.478V38.8736C240.478 37.8674 240.203 37.1483 239.653 36.7163C239.102 36.2842 238.454 36.0682 237.708 36.0682C236.75 36.0682 236.007 36.3582 235.48 36.9382C234.953 37.5123 234.69 38.2403 234.69 39.1222V48H232.559V38.6605C232.559 37.8852 232.308 37.2608 231.805 36.7873C231.301 36.3079 230.653 36.0682 229.86 36.0682C229.316 36.0682 228.807 36.2132 228.333 36.5032C227.866 36.7932 227.487 37.1957 227.197 37.7106C226.913 38.2196 226.771 38.8085 226.771 39.4773V48H224.676Z" fill="white"/>
<path d="M177.886 235V233.402L183.888 226.832C184.592 226.063 185.172 225.394 185.628 224.826C186.083 224.252 186.421 223.713 186.64 223.21C186.865 222.701 186.977 222.169 186.977 221.612C186.977 220.973 186.823 220.42 186.516 219.952C186.214 219.484 185.799 219.123 185.273 218.869C184.746 218.614 184.154 218.487 183.497 218.487C182.799 218.487 182.189 218.632 181.668 218.922C181.153 219.206 180.754 219.606 180.47 220.121C180.192 220.636 180.052 221.239 180.052 221.932H177.957C177.957 220.866 178.203 219.931 178.694 219.126C179.185 218.321 179.854 217.694 180.701 217.244C181.553 216.795 182.509 216.57 183.568 216.57C184.633 216.57 185.577 216.795 186.4 217.244C187.223 217.694 187.868 218.301 188.335 219.064C188.803 219.828 189.037 220.677 189.037 221.612C189.037 222.281 188.915 222.935 188.673 223.574C188.436 224.208 188.022 224.915 187.43 225.696C186.844 226.471 186.03 227.418 184.989 228.537L180.905 232.905V233.047H189.356V235H177.886ZM192.206 231.271V229.46L200.196 216.818H201.51V219.624H200.622L194.585 229.176V229.318H205.345V231.271H192.206ZM200.764 235V230.721V229.877V216.818H202.86V235H200.764ZM221.279 235.284C220.001 235.284 218.9 234.982 217.976 234.379C217.053 233.775 216.343 232.943 215.846 231.884C215.349 230.824 215.1 229.614 215.1 228.253C215.1 226.868 215.354 225.646 215.863 224.586C216.378 223.521 217.094 222.689 218.012 222.092C218.935 221.488 220.012 221.186 221.243 221.186C222.202 221.186 223.066 221.364 223.836 221.719C224.605 222.074 225.235 222.571 225.727 223.21C226.218 223.849 226.523 224.595 226.641 225.447H224.546C224.386 224.826 224.031 224.276 223.481 223.796C222.936 223.311 222.202 223.068 221.279 223.068C220.462 223.068 219.746 223.281 219.13 223.707C218.521 224.128 218.044 224.722 217.701 225.492C217.364 226.255 217.195 227.152 217.195 228.182C217.195 229.235 217.361 230.153 217.692 230.934C218.03 231.715 218.503 232.322 219.113 232.754C219.728 233.186 220.45 233.402 221.279 233.402C221.823 233.402 222.318 233.307 222.762 233.118C223.205 232.929 223.581 232.656 223.889 232.301C224.197 231.946 224.416 231.52 224.546 231.023H226.641C226.523 231.828 226.23 232.553 225.762 233.198C225.301 233.837 224.688 234.346 223.925 234.725C223.167 235.098 222.285 235.284 221.279 235.284ZM229.704 235V221.364H231.728V223.494H231.906C232.19 222.766 232.648 222.201 233.282 221.799C233.915 221.39 234.676 221.186 235.563 221.186C236.463 221.186 237.212 221.39 237.809 221.799C238.413 222.201 238.884 222.766 239.221 223.494H239.363C239.712 222.79 240.236 222.231 240.934 221.816C241.633 221.396 242.47 221.186 243.447 221.186C244.666 221.186 245.663 221.568 246.439 222.331C247.214 223.089 247.602 224.27 247.602 225.874V235H245.507V225.874C245.507 224.867 245.231 224.148 244.681 223.716C244.13 223.284 243.482 223.068 242.737 223.068C241.778 223.068 241.035 223.358 240.508 223.938C239.982 224.512 239.718 225.24 239.718 226.122V235H237.588V225.661C237.588 224.885 237.336 224.261 236.833 223.787C236.33 223.308 235.682 223.068 234.889 223.068C234.344 223.068 233.835 223.213 233.362 223.503C232.894 223.793 232.515 224.196 232.225 224.711C231.941 225.22 231.799 225.808 231.799 226.477V235H229.704Z" fill="white"/>
<path d="M154.509 56.505C154.236 56.7784 154.236 57.2216 154.509 57.495L158.964 61.9497C159.237 62.2231 159.681 62.2231 159.954 61.9497C160.227 61.6764 160.227 61.2332 159.954 60.9598L155.994 57L159.954 53.0402C160.227 52.7668 160.227 52.3236 159.954 52.0503C159.681 51.7769 159.237 51.7769 158.964 52.0503L154.509 56.505ZM266.54 57.495C266.813 57.2216 266.813 56.7784 266.54 56.505L262.085 52.0503C261.812 51.7769 261.368 51.7769 261.095 52.0503C260.822 52.3236 260.822 52.7668 261.095 53.0402L265.055 57L261.095 60.9598C260.822 61.2332 260.822 61.6764 261.095 61.9497C261.368 62.2231 261.812 62.2231 262.085 61.9497L266.54 57.495ZM155.004 57V57.7H266.045V57V56.3H155.004V57Z" fill="white"/>
<path d="M93.505 208.505C93.2317 208.778 93.2317 209.222 93.505 209.495L97.9598 213.95C98.2332 214.223 98.6764 214.223 98.9497 213.95C99.2231 213.676 99.2231 213.233 98.9497 212.96L94.9899 209L98.9497 205.04C99.2231 204.767 99.2231 204.324 98.9497 204.05C98.6764 203.777 98.2332 203.777 97.9598 204.05L93.505 208.505ZM341.495 209.495C341.768 209.222 341.768 208.778 341.495 208.505L337.04 204.05C336.767 203.777 336.324 203.777 336.05 204.05C335.777 204.324 335.777 204.767 336.05 205.04L340.01 209L336.05 212.96C335.777 213.233 335.777 213.676 336.05 213.95C336.324 214.223 336.767 214.223 337.04 213.95L341.495 209.495ZM94 209V209.7H341V209V208.3H94V209Z" fill="white"/>
<rect x="154" y="184" width="14" height="14" fill="white"/>
<g opacity="0.3">
<path d="M569.084 78.7002L638.837 209.3H395.083L453.457 78.7002H569.084Z" fill="#24CEFB" stroke="white" stroke-width="1.4"/>
<line x1="455.004" y1="79" x2="455.004" y2="210" stroke="white" stroke-width="2" stroke-dasharray="4 4"/>
<path d="M469.278 135.818V154H467.077V138.126H466.97L462.531 141.074V138.837L467.077 135.818H469.278ZM480.331 154.249C479.112 154.249 478.035 154.033 477.1 153.6C476.17 153.163 475.445 152.562 474.925 151.798C474.404 151.029 474.146 150.153 474.152 149.17C474.146 148.401 474.297 147.691 474.605 147.04C474.913 146.383 475.333 145.835 475.866 145.397C476.404 144.953 477.005 144.672 477.668 144.554V144.447C476.798 144.223 476.105 143.734 475.59 142.983C475.076 142.225 474.821 141.364 474.827 140.399C474.821 139.476 475.055 138.65 475.528 137.922C476.002 137.194 476.653 136.62 477.481 136.2C478.316 135.78 479.266 135.57 480.331 135.57C481.385 135.57 482.326 135.78 483.154 136.2C483.983 136.62 484.634 137.194 485.107 137.922C485.587 138.65 485.83 139.476 485.835 140.399C485.83 141.364 485.566 142.225 485.045 142.983C484.53 143.734 483.847 144.223 482.995 144.447V144.554C483.652 144.672 484.243 144.953 484.77 145.397C485.297 145.835 485.717 146.383 486.031 147.04C486.344 147.691 486.504 148.401 486.51 149.17C486.504 150.153 486.238 151.029 485.711 151.798C485.19 152.562 484.465 153.163 483.536 153.6C482.613 154.033 481.545 154.249 480.331 154.249ZM480.331 152.295C481.154 152.295 481.864 152.162 482.462 151.896C483.06 151.63 483.521 151.254 483.847 150.768C484.172 150.283 484.338 149.715 484.344 149.064C484.338 148.377 484.161 147.771 483.811 147.244C483.462 146.717 482.986 146.303 482.382 146.001C481.784 145.699 481.101 145.548 480.331 145.548C479.556 145.548 478.863 145.699 478.254 146.001C477.65 146.303 477.174 146.717 476.824 147.244C476.481 147.771 476.313 148.377 476.318 149.064C476.313 149.715 476.469 150.283 476.789 150.768C477.114 151.254 477.579 151.63 478.183 151.896C478.786 152.162 479.503 152.295 480.331 152.295ZM480.331 143.666C480.982 143.666 481.559 143.536 482.062 143.276C482.571 143.015 482.971 142.651 483.261 142.184C483.551 141.716 483.699 141.169 483.705 140.541C483.699 139.926 483.554 139.39 483.27 138.934C482.986 138.473 482.592 138.118 482.089 137.869C481.586 137.614 481 137.487 480.331 137.487C479.651 137.487 479.056 137.614 478.547 137.869C478.038 138.118 477.644 138.473 477.366 138.934C477.088 139.39 476.952 139.926 476.958 140.541C476.952 141.169 477.091 141.716 477.375 142.184C477.665 142.651 478.064 143.015 478.573 143.276C479.082 143.536 479.668 143.666 480.331 143.666ZM502.519 154.284C501.241 154.284 500.14 153.982 499.217 153.379C498.293 152.775 497.583 151.943 497.086 150.884C496.589 149.824 496.34 148.614 496.34 147.253C496.34 145.868 496.595 144.646 497.104 143.586C497.619 142.521 498.335 141.689 499.252 141.092C500.175 140.488 501.253 140.186 502.484 140.186C503.442 140.186 504.307 140.364 505.076 140.719C505.845 141.074 506.476 141.571 506.967 142.21C507.458 142.849 507.763 143.595 507.881 144.447H505.786C505.626 143.826 505.271 143.276 504.721 142.796C504.176 142.311 503.442 142.068 502.519 142.068C501.702 142.068 500.986 142.281 500.371 142.707C499.761 143.128 499.285 143.722 498.941 144.492C498.604 145.255 498.435 146.152 498.435 147.182C498.435 148.235 498.601 149.153 498.933 149.934C499.27 150.715 499.743 151.322 500.353 151.754C500.968 152.186 501.691 152.402 502.519 152.402C503.064 152.402 503.558 152.307 504.002 152.118C504.446 151.929 504.821 151.656 505.129 151.301C505.437 150.946 505.656 150.52 505.786 150.023H507.881C507.763 150.828 507.47 151.553 507.002 152.198C506.541 152.837 505.928 153.346 505.165 153.725C504.407 154.098 503.525 154.284 502.519 154.284ZM510.944 154V140.364H512.968V142.494H513.146C513.43 141.766 513.889 141.201 514.522 140.799C515.155 140.39 515.916 140.186 516.804 140.186C517.703 140.186 518.452 140.39 519.05 140.799C519.653 141.201 520.124 141.766 520.461 142.494H520.603C520.953 141.79 521.476 141.231 522.175 140.816C522.873 140.396 523.711 140.186 524.687 140.186C525.906 140.186 526.904 140.568 527.679 141.331C528.454 142.089 528.842 143.27 528.842 144.874V154H526.747V144.874C526.747 143.867 526.472 143.148 525.921 142.716C525.371 142.284 524.723 142.068 523.977 142.068C523.018 142.068 522.275 142.358 521.749 142.938C521.222 143.512 520.958 144.24 520.958 145.122V154H518.828V144.661C518.828 143.885 518.576 143.261 518.073 142.787C517.57 142.308 516.922 142.068 516.129 142.068C515.584 142.068 515.075 142.213 514.602 142.503C514.134 142.793 513.756 143.196 513.466 143.711C513.181 144.22 513.039 144.808 513.039 145.477V154H510.944Z" fill="white"/>
<path d="M483.278 40.8182V59H481.077V43.1264H480.97L476.531 46.0739V43.8366L481.077 40.8182H483.278ZM488.507 59V57.402L494.509 50.8324C495.213 50.063 495.793 49.3942 496.249 48.826C496.705 48.2519 497.042 47.7133 497.261 47.2102C497.486 46.7012 497.598 46.1686 497.598 45.6122C497.598 44.973 497.444 44.4196 497.137 43.9521C496.835 43.4845 496.42 43.1235 495.894 42.869C495.367 42.6145 494.775 42.4872 494.118 42.4872C493.42 42.4872 492.81 42.6322 492.289 42.9222C491.774 43.2063 491.375 43.6058 491.091 44.1207C490.813 44.6357 490.674 45.2393 490.674 45.9318H488.578C488.578 44.8665 488.824 43.9313 489.315 43.1264C489.806 42.3215 490.475 41.6941 491.322 41.2443C492.174 40.7945 493.13 40.5696 494.189 40.5696C495.255 40.5696 496.199 40.7945 497.021 41.2443C497.844 41.6941 498.489 42.3008 498.957 43.0643C499.424 43.8278 499.658 44.6771 499.658 45.6122C499.658 46.281 499.537 46.935 499.294 47.5742C499.057 48.2075 498.643 48.9148 498.051 49.696C497.465 50.4714 496.651 51.4183 495.61 52.5369L491.526 56.9048V57.0469H499.978V59H488.507ZM516.251 59.2841C514.972 59.2841 513.871 58.9822 512.948 58.3786C512.025 57.7749 511.315 56.9433 510.817 55.8839C510.32 54.8245 510.072 53.6141 510.072 52.2528C510.072 50.8679 510.326 49.6457 510.835 48.5863C511.35 47.521 512.066 46.6894 512.984 46.0916C513.907 45.4879 514.984 45.1861 516.215 45.1861C517.174 45.1861 518.038 45.3636 518.807 45.7188C519.577 46.0739 520.207 46.571 520.698 47.2102C521.19 47.8494 521.494 48.5952 521.613 49.4474H519.518C519.358 48.826 519.003 48.2756 518.452 47.7962C517.908 47.3108 517.174 47.0682 516.251 47.0682C515.434 47.0682 514.718 47.2812 514.102 47.7074C513.493 48.1276 513.016 48.7224 512.673 49.4918C512.335 50.2553 512.167 51.152 512.167 52.1818C512.167 53.2353 512.333 54.1527 512.664 54.9339C513.001 55.7152 513.475 56.3219 514.084 56.7539C514.7 57.186 515.422 57.402 516.251 57.402C516.795 57.402 517.289 57.3073 517.733 57.1179C518.177 56.9285 518.553 56.6562 518.861 56.3011C519.168 55.946 519.387 55.5199 519.518 55.0227H521.613C521.494 55.8277 521.201 56.5527 520.734 57.1978C520.272 57.837 519.66 58.346 518.896 58.7248C518.139 59.0977 517.257 59.2841 516.251 59.2841ZM524.676 59V45.3636H526.7V47.4943H526.877C527.161 46.7663 527.62 46.2011 528.253 45.7987C528.887 45.3903 529.647 45.1861 530.535 45.1861C531.435 45.1861 532.183 45.3903 532.781 45.7987C533.385 46.2011 533.855 46.7663 534.193 47.4943H534.335C534.684 46.79 535.208 46.2307 535.906 45.8164C536.605 45.3962 537.442 45.1861 538.419 45.1861C539.638 45.1861 540.635 45.5678 541.41 46.3313C542.186 47.0889 542.573 48.2696 542.573 49.8736V59H540.478V49.8736C540.478 48.8674 540.203 48.1483 539.653 47.7163C539.102 47.2842 538.454 47.0682 537.708 47.0682C536.75 47.0682 536.007 47.3582 535.48 47.9382C534.953 48.5123 534.69 49.2403 534.69 50.1222V59H532.559V49.6605C532.559 48.8852 532.308 48.2608 531.805 47.7873C531.301 47.3079 530.653 47.0682 529.86 47.0682C529.316 47.0682 528.807 47.2132 528.333 47.5032C527.866 47.7932 527.487 48.1957 527.197 48.7106C526.913 49.2196 526.771 49.8085 526.771 50.4773V59H524.676Z" fill="white"/>
<path d="M477.886 246V244.402L483.888 237.832C484.592 237.063 485.172 236.394 485.628 235.826C486.083 235.252 486.421 234.713 486.64 234.21C486.865 233.701 486.977 233.169 486.977 232.612C486.977 231.973 486.823 231.42 486.516 230.952C486.214 230.484 485.799 230.123 485.273 229.869C484.746 229.614 484.154 229.487 483.497 229.487C482.799 229.487 482.189 229.632 481.668 229.922C481.153 230.206 480.754 230.606 480.47 231.121C480.192 231.636 480.052 232.239 480.052 232.932H477.957C477.957 231.866 478.203 230.931 478.694 230.126C479.185 229.321 479.854 228.694 480.701 228.244C481.553 227.795 482.509 227.57 483.568 227.57C484.633 227.57 485.577 227.795 486.4 228.244C487.223 228.694 487.868 229.301 488.335 230.064C488.803 230.828 489.037 231.677 489.037 232.612C489.037 233.281 488.915 233.935 488.673 234.574C488.436 235.208 488.022 235.915 487.43 236.696C486.844 237.471 486.03 238.418 484.989 239.537L480.905 243.905V244.047H489.356V246H477.886ZM492.206 242.271V240.46L500.196 227.818H501.51V230.624H500.622L494.585 240.176V240.318H505.345V242.271H492.206ZM500.764 246V241.721V240.877V227.818H502.86V246H500.764ZM521.279 246.284C520.001 246.284 518.9 245.982 517.976 245.379C517.053 244.775 516.343 243.943 515.846 242.884C515.349 241.824 515.1 240.614 515.1 239.253C515.1 237.868 515.354 236.646 515.863 235.586C516.378 234.521 517.094 233.689 518.012 233.092C518.935 232.488 520.012 232.186 521.243 232.186C522.202 232.186 523.066 232.364 523.836 232.719C524.605 233.074 525.235 233.571 525.727 234.21C526.218 234.849 526.523 235.595 526.641 236.447H524.546C524.386 235.826 524.031 235.276 523.481 234.796C522.936 234.311 522.202 234.068 521.279 234.068C520.462 234.068 519.746 234.281 519.13 234.707C518.521 235.128 518.044 235.722 517.701 236.492C517.364 237.255 517.195 238.152 517.195 239.182C517.195 240.235 517.361 241.153 517.692 241.934C518.03 242.715 518.503 243.322 519.113 243.754C519.728 244.186 520.45 244.402 521.279 244.402C521.823 244.402 522.318 244.307 522.762 244.118C523.205 243.929 523.581 243.656 523.889 243.301C524.197 242.946 524.416 242.52 524.546 242.023H526.641C526.523 242.828 526.23 243.553 525.762 244.198C525.301 244.837 524.688 245.346 523.925 245.725C523.167 246.098 522.285 246.284 521.279 246.284ZM529.704 246V232.364H531.728V234.494H531.906C532.19 233.766 532.648 233.201 533.282 232.799C533.915 232.39 534.676 232.186 535.563 232.186C536.463 232.186 537.212 232.39 537.809 232.799C538.413 233.201 538.884 233.766 539.221 234.494H539.363C539.712 233.79 540.236 233.231 540.934 232.816C541.633 232.396 542.47 232.186 543.447 232.186C544.666 232.186 545.663 232.568 546.439 233.331C547.214 234.089 547.602 235.27 547.602 236.874V246H545.507V236.874C545.507 235.867 545.231 235.148 544.681 234.716C544.13 234.284 543.482 234.068 542.737 234.068C541.778 234.068 541.035 234.358 540.508 234.938C539.982 235.512 539.718 236.24 539.718 237.122V246H537.588V236.661C537.588 235.885 537.336 235.261 536.833 234.787C536.33 234.308 535.682 234.068 534.889 234.068C534.344 234.068 533.835 234.213 533.362 234.503C532.894 234.793 532.515 235.196 532.225 235.711C531.941 236.22 531.799 236.808 531.799 237.477V246H529.704Z" fill="white"/>
<path d="M454.509 67.505C454.236 67.7784 454.236 68.2216 454.509 68.495L458.964 72.9497C459.237 73.2231 459.681 73.2231 459.954 72.9497C460.227 72.6764 460.227 72.2332 459.954 71.9598L455.994 68L459.954 64.0402C460.227 63.7668 460.227 63.3236 459.954 63.0503C459.681 62.7769 459.237 62.7769 458.964 63.0503L454.509 67.505ZM566.54 68.495C566.813 68.2216 566.813 67.7784 566.54 67.505L562.085 63.0503C561.812 62.7769 561.368 62.7769 561.095 63.0503C560.822 63.3236 560.822 63.7668 561.095 64.0402L565.055 68L561.095 71.9598C560.822 72.2332 560.822 72.6764 561.095 72.9497C561.368 73.2231 561.812 73.2231 562.085 72.9497L566.54 68.495ZM455.004 68V68.7H566.045V68V67.3H455.004V68Z" fill="white"/>
<path d="M393.505 219.505C393.232 219.778 393.232 220.222 393.505 220.495L397.96 224.95C398.233 225.223 398.676 225.223 398.95 224.95C399.223 224.676 399.223 224.233 398.95 223.96L394.99 220L398.95 216.04C399.223 215.767 399.223 215.324 398.95 215.05C398.676 214.777 398.233 214.777 397.96 215.05L393.505 219.505ZM641.495 220.495C641.768 220.222 641.768 219.778 641.495 219.505L637.04 215.05C636.767 214.777 636.324 214.777 636.05 215.05C635.777 215.324 635.777 215.767 636.05 216.04L640.01 220L636.05 223.96C635.777 224.233 635.777 224.676 636.05 224.95C636.324 225.223 636.767 225.223 637.04 224.95L641.495 220.495ZM394 220V220.7H641V220V219.3H394V220Z" fill="white"/>
<rect x="454" y="195" width="14" height="14" fill="white"/>
</g>
</svg>
