<svg xmlns="http://www.w3.org/2000/svg" viewBox="0 0 64 64" fill="none">
  <path d="M32 6c-8.8 0-16 7.2-16 16 0 5.6 2.9 10.5 7.2 13.4V40c0 2.2 1.8 4 4 4h9.6c2.2 0 4-1.8 4-4v-4.6c4.3-2.9 7.2-7.8 7.2-13.4 0-8.8-7.2-16-16-16z" fill="#FFE566" stroke="#F5C400" stroke-width="2"/>
  <rect x="26" y="44" width="12" height="6" rx="2" fill="#B0BEC5"/>
  <path d="M28 52h8v4c0 1.1-.9 2-2 2h-4c-1.1 0-2-.9-2-2v-4z" fill="#90A4AE"/>
  <path d="M32 14v10M24 22h16" stroke="#F5C400" stroke-width="2" stroke-linecap="round" opacity="0.5"/>
</svg>
